<svg xmlns="http://www.w3.org/2000/svg" xmlns:ooo="http://xml.openoffice.org/svg/export" xmlns:svg="http://www.w3.org/2000/svg" id="svg2" width="572.492" height="260.433" clip-path="url(#presentation_clip_path)" style="fill-rule:evenodd;stroke-width:28.22200012;stroke-linejoin:round" preserveAspectRatio="xMidYMid" version="1.2" viewBox="0 0 16157 7350" xml:space="preserve"><metadata id="metadata436"/><defs id="defs4" class="ClipPathGroup"><clipPath id="presentation_clip_path" clipPathUnits="userSpaceOnUse"><rect id="rect7" width="21590" height="27940" x="0" y="0"/></clipPath></defs><defs id="defs13" class="EmbeddedBulletChars"><g id="bullet-char-template(57356)" transform="scale(4.8828125e-4,-4.8828125e-4)"><path id="path16" d="M 580,1141 1163,571 580,0 -4,571 580,1141 z"/></g><g id="bullet-char-template(57354)" transform="scale(4.8828125e-4,-4.8828125e-4)"><path id="path19" d="m 8,1128 1129,0 L 1137,0 8,0 8,1128 z"/></g><g id="bullet-char-template(10146)" transform="scale(4.8828125e-4,-4.8828125e-4)"><path id="path22" d="M 174,0 602,739 174,1481 1456,739 174,0 z m 1184,739 -1049,607 350,-607 699,0 z"/></g><g id="bullet-char-template(10132)" transform="scale(4.8828125e-4,-4.8828125e-4)"><path id="path25" d="M 2015,739 1276,0 717,0 l 543,543 -1086,0 0,393 1086,0 -543,545 557,0 741,-742 z"/></g><g id="bullet-char-template(10007)" transform="scale(4.8828125e-4,-4.8828125e-4)"><path id="path28" d="m 0,-2 c -7,16 -16,29 -25,39 l 381,530 c -94,256 -141,385 -141,387 0,25 13,38 40,38 9,0 21,-2 34,-5 21,4 42,12 65,25 l 27,-13 111,-251 280,301 64,-25 24,25 c 21,-10 41,-24 62,-43 C 886,937 835,863 770,784 769,783 710,716 594,584 L 774,223 c 0,-27 -21,-55 -63,-84 l 16,-20 C 717,90 699,76 672,76 641,76 570,178 457,381 L 164,-76 c -22,-34 -53,-51 -92,-51 -42,0 -63,17 -64,51 -7,9 -10,24 -10,44 0,9 1,19 2,30 z"/></g><g id="bullet-char-template(10004)" transform="scale(4.8828125e-4,-4.8828125e-4)"><path id="path31" d="M 285,-33 C 182,-33 111,30 74,156 52,228 41,333 41,471 c 0,78 14,145 41,201 34,71 87,106 158,106 53,0 88,-31 106,-94 l 23,-176 c 8,-64 28,-97 59,-98 l 735,706 c 11,11 33,17 66,17 42,0 63,-15 63,-46 l 0,-122 c 0,-36 -10,-64 -30,-84 L 442,47 C 390,-6 338,-33 285,-33 z"/></g><g id="bullet-char-template(9679)" transform="scale(4.8828125e-4,-4.8828125e-4)"><path id="path34" d="M 813,0 C 632,0 489,54 383,161 276,268 223,411 223,592 c 0,181 53,324 160,431 106,107 249,161 430,161 179,0 323,-54 432,-161 108,-107 162,-251 162,-431 0,-180 -54,-324 -162,-431 C 1136,54 992,0 813,0 z"/></g><g id="bullet-char-template(8226)" transform="scale(4.8828125e-4,-4.8828125e-4)"><path id="path37" d="m 346,457 c -73,0 -137,26 -191,78 -54,51 -81,114 -81,188 0,73 27,136 81,188 54,52 118,78 191,78 73,0 134,-26 185,-79 51,-51 77,-114 77,-187 0,-75 -25,-137 -76,-188 -50,-52 -112,-78 -186,-78 z"/></g><g id="bullet-char-template(8211)" transform="scale(4.8828125e-4,-4.8828125e-4)"><path id="path40" d="m -4,459 1139,0 0,147 -1139,0 0,-147 z"/></g></defs><g id="g49" class="SlideGroup" transform="translate(-1268,-1175)"><g id="g51"><g id="id1" class="Slide" clip-path="url(#presentation_clip_path)"><g id="g54" class="Page"><g id="g56" class="Group"><g id="g58" class="com.sun.star.drawing.CustomShape"><g id="id3"><path id="path61" d="m 9050,2500 -1150,0 0,-1100 2300,0 0,1100 -1150,0 z" style="fill:none;stroke:#000;stroke-width:50"/><text id="text63" class="TextShape"><tspan id="tspan65" class="TextParagraph" font-size="388" font-weight="400" style="font-size:388px;font-weight:400;font-family:'Arial, sans-serif'"><tspan id="tspan67" x="8640" y="2085" class="TextPosition"><tspan id="tspan69" style="fill:#000;stroke:none">nelle</tspan></tspan></tspan></text></g></g><g id="g71" class="com.sun.star.drawing.CustomShape"><g id="id4"><path id="path74" d="m 7900,1400 1001,0 -251,-200 -500,0 -250,200 z" style="fill:none;stroke:#000;stroke-width:50"/></g></g></g><g id="g76" class="Group"><g id="g78" class="com.sun.star.drawing.CustomShape"><g id="id5"><path id="path81" d="m 7250,5300 -1150,0 0,-1100 2300,0 0,1100 -1150,0 z" style="fill:none;stroke:#000;stroke-width:50"/><text id="text83" class="TextShape"><tspan id="tspan85" class="TextParagraph" font-size="388" font-weight="400" style="font-size:388px;font-weight:400;font-family:'Arial, sans-serif'"><tspan id="tspan87" x="6744" y="4885" class="TextPosition"><tspan id="tspan89" style="fill:#000;stroke:none">thesis</tspan></tspan></tspan></text></g></g><g id="g91" class="com.sun.star.drawing.CustomShape"><g id="id6"><path id="path94" d="m 6100,4200 1001,0 -251,-200 -500,0 -250,200 z" style="fill:none;stroke:#000;stroke-width:50"/></g></g></g><g id="g96" class="Group"><g id="g98" class="com.sun.star.drawing.CustomShape"><g id="id7"><path id="path101" d="m 3250,5300 -1150,0 0,-1100 2300,0 0,1100 -1150,0 z" style="fill:none;stroke:#000;stroke-width:50"/><text id="text103" class="TextShape"><tspan id="tspan105" class="TextParagraph" font-size="388" font-weight="400" style="font-size:388px;font-weight:400;font-family:'Arial, sans-serif'"><tspan id="tspan107" x="2873" y="4885" class="TextPosition"><tspan id="tspan109" style="fill:#000;stroke:none">data</tspan></tspan></tspan></text></g></g><g id="g111" class="com.sun.star.drawing.CustomShape"><g id="id8"><path id="path114" d="m 2100,4200 1001,0 -251,-200 -500,0 -250,200 z" style="fill:none;stroke:#000;stroke-width:50"/></g></g></g><g id="g116" class="Group"><g id="g118" class="com.sun.star.drawing.CustomShape"><g id="id9"><path id="path121" d="m 13450,5400 -1150,0 0,-1100 2300,0 0,1100 -1150,0 z" style="fill:none;stroke:#000;stroke-width:50"/><text id="text123" class="TextShape"><tspan id="tspan125" class="TextParagraph" font-size="388" font-weight="400" style="font-size:388px;font-weight:400;font-family:'Arial, sans-serif'"><tspan id="tspan127" x="13040" y="4985" class="TextPosition"><tspan id="tspan129" style="fill:#000;stroke:none">tools</tspan></tspan></tspan></text></g></g><g id="g131" class="com.sun.star.drawing.CustomShape"><g id="id10"><path id="path134" d="m 12300,4300 1001,0 -251,-200 -500,0 -250,200 z" style="fill:none;stroke:#000;stroke-width:50"/></g></g></g><g id="g136" class="Group"><g id="g138" class="com.sun.star.drawing.LineShape"><g id="id11"><path id="path141" d="m 9792,4300 0,1100" style="fill:none;stroke:#000;stroke-width:50"/></g></g><g id="g143" class="com.sun.star.drawing.LineShape"><g id="id12"><path id="path146" d="m 11567,4532 0,868" style="fill:none;stroke:#000;stroke-width:50"/></g></g><g id="g148" class="com.sun.star.drawing.LineShape"><g id="id13"><path id="path151" d="m 9792,5400 1775,0" style="fill:none;stroke:#000;stroke-width:50"/></g></g><g id="g153" class="com.sun.star.drawing.LineShape"><g id="id14"><path id="path156" d="m 9792,4300 1383,0" style="fill:none;stroke:#000;stroke-width:50"/></g></g><g id="g158" class="com.sun.star.drawing.LineShape"><g id="id15"><path id="path161" d="m 11175,4300 392,232" style="fill:none;stroke:#000;stroke-width:50"/></g></g><g id="g163" class="com.sun.star.drawing.TextShape"><g id="id16"><text id="text166" class="TextShape"><tspan id="tspan168" class="TextParagraph" font-size="388" font-weight="400" style="font-size:388px;font-weight:400;font-family:'Arial, sans-serif'"><tspan id="tspan170" x="9950" y="5023" class="TextPosition"><tspan id="tspan172" style="fill:#000;stroke:none">notes.txt</tspan></tspan></tspan></text></g></g></g><g id="g174" class="Group"><g id="g176" class="com.sun.star.drawing.CustomShape"><g id="id17"><path id="path179" d="m 16250,8500 -1150,0 0,-1100 2300,0 0,1100 -1150,0 z" style="fill:none;stroke:#000;stroke-width:50"/><text id="text181" class="TextShape"><tspan id="tspan183" class="TextParagraph" font-size="388" font-weight="400" style="font-size:388px;font-weight:400;font-family:'Arial, sans-serif'"><tspan id="tspan185" x="15992" y="8085" class="TextPosition"><tspan id="tspan187" style="fill:#000;stroke:none">old</tspan></tspan></tspan></text></g></g><g id="g189" class="com.sun.star.drawing.CustomShape"><g id="id18"><path id="path192" d="m 15100,7400 1001,0 -251,-200 -500,0 -250,200 z" style="fill:none;stroke:#000;stroke-width:50"/></g></g></g><g id="g194" class="Group"><g id="g196" class="com.sun.star.drawing.LineShape"><g id="id19"><path id="path199" d="m 9992,7400 0,1100" style="fill:none;stroke:#000;stroke-width:50"/></g></g><g id="g201" class="com.sun.star.drawing.LineShape"><g id="id20"><path id="path204" d="m 11767,7632 0,868" style="fill:none;stroke:#000;stroke-width:50"/></g></g><g id="g206" class="com.sun.star.drawing.LineShape"><g id="id21"><path id="path209" d="m 9992,8500 1775,0" style="fill:none;stroke:#000;stroke-width:50"/></g></g><g id="g211" class="com.sun.star.drawing.LineShape"><g id="id22"><path id="path214" d="m 9992,7400 1383,0" style="fill:none;stroke:#000;stroke-width:50"/></g></g><g id="g216" class="com.sun.star.drawing.LineShape"><g id="id23"><path id="path219" d="m 11375,7400 392,232" style="fill:none;stroke:#000;stroke-width:50"/></g></g><g id="g221" class="com.sun.star.drawing.TextShape"><g id="id24"><text id="text224" class="TextShape"><tspan id="tspan226" class="TextParagraph" font-size="388" font-weight="400" style="font-size:388px;font-weight:400;font-family:'Arial, sans-serif'"><tspan id="tspan228" x="10150" y="8123" class="TextPosition"><tspan id="tspan230" style="fill:#000;stroke:none">format</tspan></tspan></tspan></text></g></g></g><g id="g232" class="Group"><g id="g234" class="com.sun.star.drawing.LineShape"><g id="id25"><path id="path237" d="m 3892,7400 0,1100" style="fill:none;stroke:#000;stroke-width:50"/></g></g><g id="g239" class="com.sun.star.drawing.LineShape"><g id="id26"><path id="path242" d="m 5667,7632 0,868" style="fill:none;stroke:#000;stroke-width:50"/></g></g><g id="g244" class="com.sun.star.drawing.LineShape"><g id="id27"><path id="path247" d="m 3892,8500 1775,0" style="fill:none;stroke:#000;stroke-width:50"/></g></g><g id="g249" class="com.sun.star.drawing.LineShape"><g id="id28"><path id="path252" d="m 3892,7400 1383,0" style="fill:none;stroke:#000;stroke-width:50"/></g></g><g id="g254" class="com.sun.star.drawing.LineShape"><g id="id29"><path id="path257" d="m 5275,7400 392,232" style="fill:none;stroke:#000;stroke-width:50"/></g></g></g><g id="g259" class="com.sun.star.drawing.TextShape"><g id="id30"><text id="text262" class="TextShape"><tspan id="tspan264" class="TextParagraph" font-size="388" font-weight="400" style="font-size:388px;font-weight:400;font-family:'Arial, sans-serif'"><tspan id="tspan266" x="1550" y="8123" class="TextPosition"><tspan id="tspan268" style="fill:#000;stroke:none">one.txt</tspan></tspan></tspan></text></g></g><g id="g270" class="com.sun.star.drawing.LineShape"><g id="id31"><path id="path273" d="m 3400,3100 10100,0" style="fill:none;stroke:#000"/></g></g><g id="g275" class="com.sun.star.drawing.LineShape"><g id="id32"><path id="path278" d="m 3400,3100 0,470" style="fill:none;stroke:#000"/><path id="path280" d="m 3400,4000 150,-450 -300,0 150,450 z" style="fill:#000;stroke:none"/></g></g><g id="g282" class="com.sun.star.drawing.LineShape"><g id="id33"><path id="path285" d="m 7400,3100 0,470" style="fill:none;stroke:#000"/><path id="path287" d="m 7400,4000 150,-450 -300,0 150,450 z" style="fill:#000;stroke:none"/></g></g><g id="g289" class="com.sun.star.drawing.LineShape"><g id="id34"><path id="path292" d="m 10600,3100 0,470" style="fill:none;stroke:#000"/><path id="path294" d="m 10600,4000 150,-450 -300,0 150,450 z" style="fill:#000;stroke:none"/></g></g><g id="g296" class="com.sun.star.drawing.LineShape"><g id="id35"><path id="path299" d="m 13500,3100 0,470" style="fill:none;stroke:#000"/><path id="path301" d="m 13500,4000 150,-450 -300,0 150,450 z" style="fill:#000;stroke:none"/></g></g><g id="g303" class="com.sun.star.drawing.LineShape"><g id="id36"><path id="path306" d="m 2000,6400 2900,0" style="fill:none;stroke:#000"/></g></g><g id="g308" class="com.sun.star.drawing.LineShape"><g id="id37"><path id="path311" d="m 2000,6400 0,470" style="fill:none;stroke:#000"/><path id="path313" d="m 2000,7300 150,-450 -300,0 150,450 z" style="fill:#000;stroke:none"/></g></g><g id="g315" class="com.sun.star.drawing.LineShape"><g id="id38"><path id="path318" d="m 4900,6400 0,470" style="fill:none;stroke:#000"/><path id="path320" d="m 4900,7300 150,-450 -300,0 150,450 z" style="fill:#000;stroke:none"/></g></g><g id="g322" class="com.sun.star.drawing.LineShape"><g id="id39"><path id="path325" d="m 10800,6400 0,470" style="fill:none;stroke:#000"/><path id="path327" d="m 10800,7300 150,-450 -300,0 150,450 z" style="fill:#000;stroke:none"/></g></g><g id="g329" class="com.sun.star.drawing.LineShape"><g id="id40"><path id="path332" d="m 16400,6400 0,470" style="fill:none;stroke:#000"/><path id="path334" d="m 16400,7300 150,-450 -300,0 150,450 z" style="fill:#000;stroke:none"/></g></g><g id="g336" class="Group"><g id="g338" class="com.sun.star.drawing.LineShape"><g id="id41"><path id="path341" d="m 1293,7400 0,1100" style="fill:none;stroke:#000;stroke-width:50"/></g></g><g id="g343" class="com.sun.star.drawing.LineShape"><g id="id42"><path id="path346" d="m 3068,7632 0,868" style="fill:none;stroke:#000;stroke-width:50"/></g></g><g id="g348" class="com.sun.star.drawing.LineShape"><g id="id43"><path id="path351" d="m 1293,8500 1775,0" style="fill:none;stroke:#000;stroke-width:50"/></g></g><g id="g353" class="com.sun.star.drawing.LineShape"><g id="id44"><path id="path356" d="m 1293,7400 1383,0" style="fill:none;stroke:#000;stroke-width:50"/></g></g><g id="g358" class="com.sun.star.drawing.LineShape"><g id="id45"><path id="path361" d="m 2676,7400 392,232" style="fill:none;stroke:#000;stroke-width:50"/></g></g></g><g id="g363" class="com.sun.star.drawing.TextShape"><g id="id46"><text id="text366" class="TextShape"><tspan id="tspan368" class="TextParagraph" font-size="388" font-weight="400" style="font-size:388px;font-weight:400;font-family:'Arial, sans-serif'"><tspan id="tspan370" x="4151" y="8124" class="TextPosition"><tspan id="tspan372" style="fill:#000;stroke:none">two.txt</tspan></tspan></tspan></text></g></g><g id="g374" class="com.sun.star.drawing.LineShape"><g id="id47"><path id="path377" d="m 3400,5300 0,1100" style="fill:none;stroke:#000"/></g></g><g id="g379" class="Group"><g id="g381" class="com.sun.star.drawing.LineShape"><g id="id48"><path id="path384" d="m 12693,7400 0,1100" style="fill:none;stroke:#000;stroke-width:50"/></g></g><g id="g386" class="com.sun.star.drawing.LineShape"><g id="id49"><path id="path389" d="m 14468,7632 0,868" style="fill:none;stroke:#000;stroke-width:50"/></g></g><g id="g391" class="com.sun.star.drawing.LineShape"><g id="id50"><path id="path394" d="m 12693,8500 1775,0" style="fill:none;stroke:#000;stroke-width:50"/></g></g><g id="g396" class="com.sun.star.drawing.LineShape"><g id="id51"><path id="path399" d="m 12693,7400 1383,0" style="fill:none;stroke:#000;stroke-width:50"/></g></g><g id="g401" class="com.sun.star.drawing.LineShape"><g id="id52"><path id="path404" d="m 14076,7400 392,232" style="fill:none;stroke:#000;stroke-width:50"/></g></g><g id="g406" class="com.sun.star.drawing.TextShape"><g id="id53"><text id="text409" class="TextShape"><tspan id="tspan411" class="TextParagraph" font-size="388" font-weight="400" style="font-size:388px;font-weight:400;font-family:'Arial, sans-serif'"><tspan id="tspan413" x="12851" y="8123" class="TextPosition"><tspan id="tspan415" style="fill:#000;stroke:none">stats</tspan></tspan></tspan></text></g></g></g><g id="g417" class="com.sun.star.drawing.LineShape"><g id="id54"><path id="path420" d="m 13501,5400 0,1470" style="fill:none;stroke:#000"/><path id="path422" d="m 13501,7300 150,-450 -300,0 150,450 z" style="fill:#000;stroke:none"/></g></g><g id="g424" class="com.sun.star.drawing.LineShape"><g id="id55"><path id="path427" d="m 10800,6400 5600,0" style="fill:none;stroke:#000"/></g></g><g id="g429" class="com.sun.star.drawing.LineShape"><g id="id56"><path id="path432" d="m 9100,2500 0,600" style="fill:none;stroke:#000"/></g></g></g></g></g></g></svg>