<svg xmlns="http://www.w3.org/2000/svg" xmlns:ooo="http://xml.openoffice.org/svg/export" xmlns:svg="http://www.w3.org/2000/svg" id="svg2" width="387.992" height="324.213" clip-path="url(#presentation_clip_path)" style="fill-rule:evenodd;stroke-width:28.22200012;stroke-linejoin:round" preserveAspectRatio="xMidYMid" version="1.2" viewBox="0 0 10950 9150" xml:space="preserve"><metadata id="metadata267"/><defs id="defs4" class="ClipPathGroup"><clipPath id="presentation_clip_path" clipPathUnits="userSpaceOnUse"><rect id="rect7" width="21590" height="27940" x="0" y="0"/></clipPath></defs><defs id="defs13" class="EmbeddedBulletChars"><g id="bullet-char-template(57356)" transform="scale(4.8828125e-4,-4.8828125e-4)"><path id="path16" d="M 580,1141 1163,571 580,0 -4,571 580,1141 z"/></g><g id="bullet-char-template(57354)" transform="scale(4.8828125e-4,-4.8828125e-4)"><path id="path19" d="m 8,1128 1129,0 L 1137,0 8,0 8,1128 z"/></g><g id="bullet-char-template(10146)" transform="scale(4.8828125e-4,-4.8828125e-4)"><path id="path22" d="M 174,0 602,739 174,1481 1456,739 174,0 z m 1184,739 -1049,607 350,-607 699,0 z"/></g><g id="bullet-char-template(10132)" transform="scale(4.8828125e-4,-4.8828125e-4)"><path id="path25" d="M 2015,739 1276,0 717,0 l 543,543 -1086,0 0,393 1086,0 -543,545 557,0 741,-742 z"/></g><g id="bullet-char-template(10007)" transform="scale(4.8828125e-4,-4.8828125e-4)"><path id="path28" d="m 0,-2 c -7,16 -16,29 -25,39 l 381,530 c -94,256 -141,385 -141,387 0,25 13,38 40,38 9,0 21,-2 34,-5 21,4 42,12 65,25 l 27,-13 111,-251 280,301 64,-25 24,25 c 21,-10 41,-24 62,-43 C 886,937 835,863 770,784 769,783 710,716 594,584 L 774,223 c 0,-27 -21,-55 -63,-84 l 16,-20 C 717,90 699,76 672,76 641,76 570,178 457,381 L 164,-76 c -22,-34 -53,-51 -92,-51 -42,0 -63,17 -64,51 -7,9 -10,24 -10,44 0,9 1,19 2,30 z"/></g><g id="bullet-char-template(10004)" transform="scale(4.8828125e-4,-4.8828125e-4)"><path id="path31" d="M 285,-33 C 182,-33 111,30 74,156 52,228 41,333 41,471 c 0,78 14,145 41,201 34,71 87,106 158,106 53,0 88,-31 106,-94 l 23,-176 c 8,-64 28,-97 59,-98 l 735,706 c 11,11 33,17 66,17 42,0 63,-15 63,-46 l 0,-122 c 0,-36 -10,-64 -30,-84 L 442,47 C 390,-6 338,-33 285,-33 z"/></g><g id="bullet-char-template(9679)" transform="scale(4.8828125e-4,-4.8828125e-4)"><path id="path34" d="M 813,0 C 632,0 489,54 383,161 276,268 223,411 223,592 c 0,181 53,324 160,431 106,107 249,161 430,161 179,0 323,-54 432,-161 108,-107 162,-251 162,-431 0,-180 -54,-324 -162,-431 C 1136,54 992,0 813,0 z"/></g><g id="bullet-char-template(8226)" transform="scale(4.8828125e-4,-4.8828125e-4)"><path id="path37" d="m 346,457 c -73,0 -137,26 -191,78 -54,51 -81,114 -81,188 0,73 27,136 81,188 54,52 118,78 191,78 73,0 134,-26 185,-79 51,-51 77,-114 77,-187 0,-75 -25,-137 -76,-188 -50,-52 -112,-78 -186,-78 z"/></g><g id="bullet-char-template(8211)" transform="scale(4.8828125e-4,-4.8828125e-4)"><path id="path40" d="m -4,459 1139,0 0,147 -1139,0 0,-147 z"/></g></defs><g id="g49" class="SlideGroup" transform="translate(-1275,-1275)"><g id="g51"><g id="id1" class="Slide" clip-path="url(#presentation_clip_path)"><g id="g54" class="Page"><g id="g56" class="Group"><g id="g58" class="com.sun.star.drawing.CustomShape"><g id="id3"><path id="path61" d="m 5950,2600 -1150,0 0,-1100 2300,0 0,1100 -1150,0 z" style="fill:none;stroke:silver;stroke-width:50"/><text id="text63" class="TextShape"><tspan id="tspan65" class="TextParagraph" font-size="388" font-weight="400" style="font-size:388px;font-weight:400;font-family:'Arial, sans-serif'"><tspan id="tspan67" x="5897" y="2185" class="TextPosition"><tspan id="tspan69" style="fill:silver;stroke:none">/</tspan></tspan></tspan></text></g></g><g id="g71" class="com.sun.star.drawing.CustomShape"><g id="id4"><path id="path74" d="m 4800,1500 1001,0 -251,-200 -500,0 -250,200 z" style="fill:none;stroke:silver;stroke-width:50"/></g></g></g><g id="g76" class="Group"><g id="g78" class="com.sun.star.drawing.CustomShape"><g id="id5"><path id="path81" d="m 2450,5000 -1150,0 0,-1100 2300,0 0,1100 -1150,0 z" style="fill:none;stroke:silver;stroke-width:50"/><text id="text83" class="TextShape"><tspan id="tspan85" class="TextParagraph" font-size="388" font-weight="400" style="font-size:388px;font-weight:400;font-family:'Arial, sans-serif'"><tspan id="tspan87" x="2192" y="4585" class="TextPosition"><tspan id="tspan89" style="fill:silver;stroke:none">bin</tspan></tspan></tspan></text></g></g><g id="g91" class="com.sun.star.drawing.CustomShape"><g id="id6"><path id="path94" d="m 1300,3900 1001,0 -251,-200 -500,0 -250,200 z" style="fill:none;stroke:silver;stroke-width:50"/></g></g></g><g id="g96" class="Group"><g id="g98" class="com.sun.star.drawing.CustomShape"><g id="id7"><path id="path101" d="m 9450,5100 -1150,0 0,-1100 2300,0 0,1100 -1150,0 z" style="fill:none;stroke:silver;stroke-width:50"/><text id="text103" class="TextShape"><tspan id="tspan105" class="TextParagraph" font-size="388" font-weight="400" style="font-size:388px;font-weight:400;font-family:'Arial, sans-serif'"><tspan id="tspan107" x="9126" y="4685" class="TextPosition"><tspan id="tspan109" style="fill:silver;stroke:none">tmp</tspan></tspan></tspan></text></g></g><g id="g111" class="com.sun.star.drawing.CustomShape"><g id="id8"><path id="path114" d="m 8300,4000 1001,0 -251,-200 -500,0 -250,200 z" style="fill:none;stroke:silver;stroke-width:50"/></g></g></g><g id="g116" class="com.sun.star.drawing.LineShape"><g id="id9"><path id="path119" d="M 5700,2700 3891,3522" style="fill:none;stroke:silver"/><path id="path121" d="m 3500,3700 472,-50 -124,-273 -348,323 z" style="fill:silver;stroke:none"/></g></g><g id="g123" class="com.sun.star.drawing.LineShape"><g id="id10"><path id="path126" d="m 6300,2700 1809,822" style="fill:none;stroke:silver"/><path id="path128" d="m 8500,3700 -348,-323 -124,273 472,50 z" style="fill:silver;stroke:none"/></g></g><g id="g130" class="Group"><g id="g132" class="com.sun.star.drawing.CustomShape"><g id="id11"><path id="path135" d="m 4350,7000 -1150,0 0,-1100 2300,0 0,1100 -1150,0 z" style="fill:none;stroke:silver;stroke-width:50"/><text id="text137" class="TextShape"><tspan id="tspan139" class="TextParagraph" font-size="388" font-weight="400" style="font-size:388px;font-weight:400;font-family:'Arial, sans-serif'"><tspan id="tspan141" x="3973" y="6585" class="TextPosition"><tspan id="tspan143" style="fill:silver;stroke:none">data</tspan></tspan></tspan></text></g></g><g id="g145" class="com.sun.star.drawing.CustomShape"><g id="id12"><path id="path148" d="m 3200,5900 1001,0 -251,-200 -500,0 -250,200 z" style="fill:none;stroke:silver;stroke-width:50"/></g></g></g><g id="g150" class="Group"><g id="g152" class="com.sun.star.drawing.CustomShape"><g id="id13"><path id="path155" d="m 7450,7000 -1150,0 0,-1100 2300,0 0,1100 -1150,0 z" style="fill:none;stroke:#000;stroke-width:50"/><text id="text157" class="TextShape"><tspan id="tspan159" class="TextParagraph" font-size="388" font-weight="400" style="font-size:388px;font-weight:400;font-family:'Arial, sans-serif'"><tspan id="tspan161" x="6976" y="6585" class="TextPosition"><tspan id="tspan163" style="fill:#000;stroke:none">users</tspan></tspan></tspan></text></g></g><g id="g165" class="com.sun.star.drawing.CustomShape"><g id="id14"><path id="path168" d="m 6300,5900 1001,0 -251,-200 -500,0 -250,200 z" style="fill:none;stroke:#000;stroke-width:50"/></g></g></g><g id="g170" class="com.sun.star.drawing.LineShape"><g id="id15"><path id="path173" d="M 5900,2700 4864,5203" style="fill:none;stroke:silver"/><path id="path175" d="m 4700,5600 311,-358 -278,-115 -33,473 z" style="fill:silver;stroke:none"/></g></g><g id="g177" class="com.sun.star.drawing.LineShape"><g id="id16"><path id="path180" d="M 6100,2700 7136,5203" style="fill:none;stroke:silver"/><path id="path182" d="m 7300,5600 -33,-473 -278,115 311,358 z" style="fill:silver;stroke:none"/></g></g><g id="g184" class="Group"><g id="g186" class="com.sun.star.drawing.CustomShape"><g id="id17"><path id="path189" d="m 11050,9700 -1150,0 0,-1100 2300,0 0,1100 -1150,0 z" style="fill:none;stroke:#000;stroke-width:50"/><text id="text191" class="TextShape"><tspan id="tspan193" class="TextParagraph" font-size="388" font-weight="400" style="font-size:388px;font-weight:400;font-family:'Arial, sans-serif'"><tspan id="tspan195" x="10640" y="9285" class="TextPosition"><tspan id="tspan197" style="fill:#000;stroke:none">nelle</tspan></tspan></tspan></text></g></g><g id="g199" class="com.sun.star.drawing.CustomShape"><g id="id18"><path id="path202" d="m 9900,8600 1001,0 -251,-200 -500,0 -250,200 z" style="fill:none;stroke:#000;stroke-width:50"/></g></g></g><g id="g204" class="com.sun.star.drawing.LineShape"><g id="id19"><path id="path207" d="m 7900,7300 1809,822" style="fill:none;stroke:#000"/><path id="path209" d="m 10100,8300 -348,-323 -124,273 472,50 z" style="fill:#000;stroke:none"/></g></g><g id="g211" class="Group"><g id="g213" class="com.sun.star.drawing.CustomShape"><g id="id20"><path id="path216" d="m 3850,9600 -1150,0 0,-1100 2300,0 0,1100 -1150,0 z" style="fill:none;stroke:#000;stroke-width:50"/><text id="text218" class="TextShape"><tspan id="tspan220" class="TextParagraph" font-size="388" font-weight="400" style="font-size:388px;font-weight:400;font-family:'Arial, sans-serif'"><tspan id="tspan222" x="3571" y="9185" class="TextPosition"><tspan id="tspan224" style="fill:#000;stroke:none">dru</tspan></tspan></tspan></text></g></g><g id="g226" class="com.sun.star.drawing.CustomShape"><g id="id21"><path id="path229" d="m 2700,8500 1001,0 -251,-200 -500,0 -250,200 z" style="fill:none;stroke:#000;stroke-width:50"/></g></g></g><g id="g231" class="Group"><g id="g233" class="com.sun.star.drawing.CustomShape"><g id="id22"><path id="path236" d="m 7250,10400 -1150,0 0,-1100 2300,0 0,1100 -1150,0 z" style="fill:none;stroke:#000;stroke-width:50"/><text id="text238" class="TextShape"><tspan id="tspan240" class="TextParagraph" font-size="388" font-weight="400" style="font-size:388px;font-weight:400;font-family:'Arial, sans-serif'"><tspan id="tspan242" x="6647" y="9985" class="TextPosition"><tspan id="tspan244" style="fill:#000;stroke:none">gorgon</tspan></tspan></tspan></text></g></g><g id="g246" class="com.sun.star.drawing.CustomShape"><g id="id23"><path id="path249" d="m 6100,9300 1001,0 -251,-200 -500,0 -250,200 z" style="fill:none;stroke:#000;stroke-width:50"/></g></g></g><g id="g251" class="com.sun.star.drawing.LineShape"><g id="id24"><path id="path254" d="M 7000,7300 5191,8122" style="fill:none;stroke:#000"/><path id="path256" d="m 4800,8300 472,-50 -124,-273 -348,323 z" style="fill:#000;stroke:none"/></g></g><g id="g258" class="com.sun.star.drawing.LineShape"><g id="id25"><path id="path261" d="m 7400,7300 0,1270" style="fill:none;stroke:#000"/><path id="path263" d="m 7400,9000 150,-450 -300,0 150,450 z" style="fill:#000;stroke:none"/></g></g></g></g></g></g></svg>