<svg xmlns="http://www.w3.org/2000/svg" xmlns:ooo="http://xml.openoffice.org/svg/export" xmlns:svg="http://www.w3.org/2000/svg" id="svg2" width="621.85" height="260.433" clip-path="url(#presentation_clip_path)" style="fill-rule:evenodd;stroke-width:28.22200012;stroke-linejoin:round" preserveAspectRatio="xMidYMid" version="1.2" viewBox="0 0 17550 7350" xml:space="preserve"><metadata id="metadata417"/><defs id="defs4" class="ClipPathGroup"><clipPath id="presentation_clip_path" clipPathUnits="userSpaceOnUse"><rect id="rect7" width="21590" height="27940" x="0" y="0"/></clipPath></defs><defs id="defs13" class="EmbeddedBulletChars"><g id="bullet-char-template(57356)" transform="scale(4.8828125e-4,-4.8828125e-4)"><path id="path16" d="M 580,1141 1163,571 580,0 -4,571 580,1141 z"/></g><g id="bullet-char-template(57354)" transform="scale(4.8828125e-4,-4.8828125e-4)"><path id="path19" d="m 8,1128 1129,0 L 1137,0 8,0 8,1128 z"/></g><g id="bullet-char-template(10146)" transform="scale(4.8828125e-4,-4.8828125e-4)"><path id="path22" d="M 174,0 602,739 174,1481 1456,739 174,0 z m 1184,739 -1049,607 350,-607 699,0 z"/></g><g id="bullet-char-template(10132)" transform="scale(4.8828125e-4,-4.8828125e-4)"><path id="path25" d="M 2015,739 1276,0 717,0 l 543,543 -1086,0 0,393 1086,0 -543,545 557,0 741,-742 z"/></g><g id="bullet-char-template(10007)" transform="scale(4.8828125e-4,-4.8828125e-4)"><path id="path28" d="m 0,-2 c -7,16 -16,29 -25,39 l 381,530 c -94,256 -141,385 -141,387 0,25 13,38 40,38 9,0 21,-2 34,-5 21,4 42,12 65,25 l 27,-13 111,-251 280,301 64,-25 24,25 c 21,-10 41,-24 62,-43 C 886,937 835,863 770,784 769,783 710,716 594,584 L 774,223 c 0,-27 -21,-55 -63,-84 l 16,-20 C 717,90 699,76 672,76 641,76 570,178 457,381 L 164,-76 c -22,-34 -53,-51 -92,-51 -42,0 -63,17 -64,51 -7,9 -10,24 -10,44 0,9 1,19 2,30 z"/></g><g id="bullet-char-template(10004)" transform="scale(4.8828125e-4,-4.8828125e-4)"><path id="path31" d="M 285,-33 C 182,-33 111,30 74,156 52,228 41,333 41,471 c 0,78 14,145 41,201 34,71 87,106 158,106 53,0 88,-31 106,-94 l 23,-176 c 8,-64 28,-97 59,-98 l 735,706 c 11,11 33,17 66,17 42,0 63,-15 63,-46 l 0,-122 c 0,-36 -10,-64 -30,-84 L 442,47 C 390,-6 338,-33 285,-33 z"/></g><g id="bullet-char-template(9679)" transform="scale(4.8828125e-4,-4.8828125e-4)"><path id="path34" d="M 813,0 C 632,0 489,54 383,161 276,268 223,411 223,592 c 0,181 53,324 160,431 106,107 249,161 430,161 179,0 323,-54 432,-161 108,-107 162,-251 162,-431 0,-180 -54,-324 -162,-431 C 1136,54 992,0 813,0 z"/></g><g id="bullet-char-template(8226)" transform="scale(4.8828125e-4,-4.8828125e-4)"><path id="path37" d="m 346,457 c -73,0 -137,26 -191,78 -54,51 -81,114 -81,188 0,73 27,136 81,188 54,52 118,78 191,78 73,0 134,-26 185,-79 51,-51 77,-114 77,-187 0,-75 -25,-137 -76,-188 -50,-52 -112,-78 -186,-78 z"/></g><g id="bullet-char-template(8211)" transform="scale(4.8828125e-4,-4.8828125e-4)"><path id="path40" d="m -4,459 1139,0 0,147 -1139,0 0,-147 z"/></g></defs><g id="g49" class="SlideGroup" transform="translate(-1175,-1175)"><g id="g51"><g id="id1" class="Slide" clip-path="url(#presentation_clip_path)"><g id="g54" class="Page"><g id="g56" class="Group"><g id="g58" class="com.sun.star.drawing.CustomShape"><g id="id3"><path id="path61" d="m 10150,2500 -1150,0 0,-1100 2300,0 0,1100 -1150,0 z" style="fill:none;stroke:#000;stroke-width:50"/><text id="text63" class="TextShape"><tspan id="tspan65" class="TextParagraph" font-size="388" font-weight="400" style="font-size:388px;font-weight:400;font-family:'Arial, sans-serif'"><tspan id="tspan67" x="9740" y="2085" class="TextPosition"><tspan id="tspan69" style="fill:#000;stroke:none">nelle</tspan></tspan></tspan></text></g></g><g id="g71" class="com.sun.star.drawing.CustomShape"><g id="id4"><path id="path74" d="m 9000,1400 1001,0 -251,-200 -500,0 -250,200 z" style="fill:none;stroke:#000;stroke-width:50"/></g></g></g><g id="g76" class="Group"><g id="g78" class="com.sun.star.drawing.CustomShape"><g id="id5"><path id="path81" d="m 8350,5300 -1150,0 0,-1100 2300,0 0,1100 -1150,0 z" style="fill:none;stroke:#000;stroke-width:50"/><text id="text83" class="TextShape"><tspan id="tspan85" class="TextParagraph" font-size="388" font-weight="400" style="font-size:388px;font-weight:400;font-family:'Arial, sans-serif'"><tspan id="tspan87" x="7995" y="4885" class="TextPosition"><tspan id="tspan89" style="fill:#000;stroke:none">mail</tspan></tspan></tspan></text></g></g><g id="g91" class="com.sun.star.drawing.CustomShape"><g id="id6"><path id="path94" d="m 7200,4200 1001,0 -251,-200 -500,0 -250,200 z" style="fill:none;stroke:#000;stroke-width:50"/></g></g></g><g id="g96" class="Group"><g id="g98" class="com.sun.star.drawing.CustomShape"><g id="id7"><path id="path101" d="m 2350,5300 -1150,0 0,-1100 2300,0 0,1100 -1150,0 z" style="fill:none;stroke:#000;stroke-width:50"/><text id="text103" class="TextShape"><tspan id="tspan105" class="TextParagraph" font-size="388" font-weight="400" style="font-size:388px;font-weight:400;font-family:'Arial, sans-serif'"><tspan id="tspan107" x="2092" y="4885" class="TextPosition"><tspan id="tspan109" style="fill:#000;stroke:none">bin</tspan></tspan></tspan></text></g></g><g id="g111" class="com.sun.star.drawing.CustomShape"><g id="id8"><path id="path114" d="m 1200,4200 1001,0 -251,-200 -500,0 -250,200 z" style="fill:none;stroke:#000;stroke-width:50"/></g></g></g><g id="g116" class="Group"><g id="g118" class="com.sun.star.drawing.CustomShape"><g id="id9"><path id="path121" d="m 5350,5300 -1150,0 0,-1100 2300,0 0,1100 -1150,0 z" style="fill:none;stroke:#000;stroke-width:50"/><text id="text123" class="TextShape"><tspan id="tspan125" class="TextParagraph" font-size="388" font-weight="400" style="font-size:388px;font-weight:400;font-family:'Arial, sans-serif'"><tspan id="tspan127" x="4973" y="4885" class="TextPosition"><tspan id="tspan129" style="fill:#000;stroke:none">data</tspan></tspan></tspan></text></g></g><g id="g131" class="com.sun.star.drawing.CustomShape"><g id="id10"><path id="path134" d="m 4200,4200 1001,0 -251,-200 -500,0 -250,200 z" style="fill:none;stroke:#000;stroke-width:50"/></g></g></g><g id="g136" class="Group"><g id="g138" class="com.sun.star.drawing.CustomShape"><g id="id11"><path id="path141" d="m 14550,5400 -1150,0 0,-1100 2300,0 0,1100 -1150,0 z" style="fill:none;stroke:#000;stroke-width:50"/><text id="text143" class="TextShape"><tspan id="tspan145" class="TextParagraph" font-size="388" font-weight="400" style="font-size:388px;font-weight:400;font-family:'Arial, sans-serif'"><tspan id="tspan147" x="14044" y="4985" class="TextPosition"><tspan id="tspan149" style="fill:#000;stroke:none">music</tspan></tspan></tspan></text></g></g><g id="g151" class="com.sun.star.drawing.CustomShape"><g id="id12"><path id="path154" d="m 13400,4300 1001,0 -251,-200 -500,0 -250,200 z" style="fill:none;stroke:#000;stroke-width:50"/></g></g></g><g id="g156" class="Group"><g id="g158" class="com.sun.star.drawing.CustomShape"><g id="id13"><path id="path161" d="m 17550,5400 -1150,0 0,-1100 2300,0 0,1100 -1150,0 z" style="fill:none;stroke:#000;stroke-width:50"/><text id="text163" class="TextShape"><tspan id="tspan165" class="TextParagraph" font-size="388" font-weight="400" style="font-size:388px;font-weight:400;font-family:'Arial, sans-serif'"><tspan id="tspan167" x="16958" y="4985" class="TextPosition"><tspan id="tspan169" style="fill:#000;stroke:none">papers</tspan></tspan></tspan></text></g></g><g id="g171" class="com.sun.star.drawing.CustomShape"><g id="id14"><path id="path174" d="m 16400,4300 1001,0 -251,-200 -500,0 -250,200 z" style="fill:none;stroke:#000;stroke-width:50"/></g></g></g><g id="g176" class="Group"><g id="g178" class="com.sun.star.drawing.LineShape"><g id="id15"><path id="path181" d="m 10892,4300 0,1100" style="fill:none;stroke:#000;stroke-width:50"/></g></g><g id="g183" class="com.sun.star.drawing.LineShape"><g id="id16"><path id="path186" d="m 12667,4532 0,868" style="fill:none;stroke:#000;stroke-width:50"/></g></g><g id="g188" class="com.sun.star.drawing.LineShape"><g id="id17"><path id="path191" d="m 10892,5400 1775,0" style="fill:none;stroke:#000;stroke-width:50"/></g></g><g id="g193" class="com.sun.star.drawing.LineShape"><g id="id18"><path id="path196" d="m 10892,4300 1383,0" style="fill:none;stroke:#000;stroke-width:50"/></g></g><g id="g198" class="com.sun.star.drawing.LineShape"><g id="id19"><path id="path201" d="m 12275,4300 392,232" style="fill:none;stroke:#000;stroke-width:50"/></g></g><g id="g203" class="com.sun.star.drawing.TextShape"><g id="id20"><text id="text206" class="TextShape"><tspan id="tspan208" class="TextParagraph" font-size="388" font-weight="400" style="font-size:388px;font-weight:400;font-family:'Arial, sans-serif'"><tspan id="tspan210" x="11050" y="5023" class="TextPosition"><tspan id="tspan212" style="fill:#000;stroke:none">notes.txt</tspan></tspan></tspan></text></g></g></g><g id="g214" class="Group"><g id="g216" class="com.sun.star.drawing.CustomShape"><g id="id21"><path id="path219" d="m 14150,8500 -1150,0 0,-1100 2300,0 0,1100 -1150,0 z" style="fill:none;stroke:#000;stroke-width:50"/><text id="text221" class="TextShape"><tspan id="tspan223" class="TextParagraph" font-size="388" font-weight="400" style="font-size:388px;font-weight:400;font-family:'Arial, sans-serif'"><tspan id="tspan225" x="13816" y="8085" class="TextPosition"><tspan id="tspan227" style="fill:#000;stroke:none">swc</tspan></tspan></tspan></text></g></g><g id="g229" class="com.sun.star.drawing.CustomShape"><g id="id22"><path id="path232" d="m 13000,7400 1001,0 -251,-200 -500,0 -250,200 z" style="fill:none;stroke:#000;stroke-width:50"/></g></g></g><g id="g234" class="Group"><g id="g236" class="com.sun.star.drawing.LineShape"><g id="id23"><path id="path239" d="m 10492,7400 0,1100" style="fill:none;stroke:#000;stroke-width:50"/></g></g><g id="g241" class="com.sun.star.drawing.LineShape"><g id="id24"><path id="path244" d="m 12267,7632 0,868" style="fill:none;stroke:#000;stroke-width:50"/></g></g><g id="g246" class="com.sun.star.drawing.LineShape"><g id="id25"><path id="path249" d="m 10492,8500 1775,0" style="fill:none;stroke:#000;stroke-width:50"/></g></g><g id="g251" class="com.sun.star.drawing.LineShape"><g id="id26"><path id="path254" d="m 10492,7400 1383,0" style="fill:none;stroke:#000;stroke-width:50"/></g></g><g id="g256" class="com.sun.star.drawing.LineShape"><g id="id27"><path id="path259" d="m 11875,7400 392,232" style="fill:none;stroke:#000;stroke-width:50"/></g></g><g id="g261" class="com.sun.star.drawing.TextShape"><g id="id28"><text id="text264" class="TextShape"><tspan id="tspan266" class="TextParagraph" font-size="388" font-weight="400" style="font-size:388px;font-weight:400;font-family:'Arial, sans-serif'"><tspan id="tspan268" x="10650" y="8123" class="TextPosition"><tspan id="tspan270" style="fill:#000;stroke:none">solar.pdf</tspan></tspan></tspan></text></g></g></g><g id="g272" class="Group"><g id="g274" class="com.sun.star.drawing.CustomShape"><g id="id29"><path id="path277" d="m 8650,8500 -1150,0 0,-1100 2300,0 0,1100 -1150,0 z" style="fill:none;stroke:#000;stroke-width:50"/><text id="text279" class="TextShape"><tspan id="tspan281" class="TextParagraph" font-size="388" font-weight="400" style="font-size:388px;font-weight:400;font-family:'Arial, sans-serif'"><tspan id="tspan283" x="8229" y="8085" class="TextPosition"><tspan id="tspan285" style="fill:#000;stroke:none">solar</tspan></tspan></tspan></text></g></g><g id="g287" class="com.sun.star.drawing.CustomShape"><g id="id30"><path id="path290" d="m 7500,7400 1001,0 -251,-200 -500,0 -250,200 z" style="fill:none;stroke:#000;stroke-width:50"/></g></g></g><g id="g292" class="Group"><g id="g294" class="com.sun.star.drawing.LineShape"><g id="id31"><path id="path297" d="m 4992,7400 0,1100" style="fill:none;stroke:#000;stroke-width:50"/></g></g><g id="g299" class="com.sun.star.drawing.LineShape"><g id="id32"><path id="path302" d="m 6767,7632 0,868" style="fill:none;stroke:#000;stroke-width:50"/></g></g><g id="g304" class="com.sun.star.drawing.LineShape"><g id="id33"><path id="path307" d="m 4992,8500 1775,0" style="fill:none;stroke:#000;stroke-width:50"/></g></g><g id="g309" class="com.sun.star.drawing.LineShape"><g id="id34"><path id="path312" d="m 4992,7400 1383,0" style="fill:none;stroke:#000;stroke-width:50"/></g></g><g id="g314" class="com.sun.star.drawing.LineShape"><g id="id35"><path id="path317" d="m 6375,7400 392,232" style="fill:none;stroke:#000;stroke-width:50"/></g></g></g><g id="g319" class="com.sun.star.drawing.TextShape"><g id="id36"><text id="text322" class="TextShape"><tspan id="tspan324" class="TextParagraph" font-size="388" font-weight="400" style="font-size:388px;font-weight:400;font-family:'Arial, sans-serif'"><tspan id="tspan326" x="5150" y="8123" class="TextPosition"><tspan id="tspan328" style="fill:#000;stroke:none">pizza.cfg</tspan></tspan></tspan></text></g></g><g id="g330" class="com.sun.star.drawing.LineShape"><g id="id37"><path id="path333" d="m 2500,3100 15200,0" style="fill:none;stroke:#000"/></g></g><g id="g335" class="com.sun.star.drawing.LineShape"><g id="id38"><path id="path338" d="m 2500,3100 0,470" style="fill:none;stroke:#000"/><path id="path340" d="m 2500,4000 150,-450 -300,0 150,450 z" style="fill:#000;stroke:none"/></g></g><g id="g342" class="com.sun.star.drawing.LineShape"><g id="id39"><path id="path345" d="m 5500,3100 0,470" style="fill:none;stroke:#000"/><path id="path347" d="m 5500,4000 150,-450 -300,0 150,450 z" style="fill:#000;stroke:none"/></g></g><g id="g349" class="com.sun.star.drawing.LineShape"><g id="id40"><path id="path352" d="m 8500,3100 0,470" style="fill:none;stroke:#000"/><path id="path354" d="m 8500,4000 150,-450 -300,0 150,450 z" style="fill:#000;stroke:none"/></g></g><g id="g356" class="com.sun.star.drawing.LineShape"><g id="id41"><path id="path359" d="m 11700,3100 0,470" style="fill:none;stroke:#000"/><path id="path361" d="m 11700,4000 150,-450 -300,0 150,450 z" style="fill:#000;stroke:none"/></g></g><g id="g363" class="com.sun.star.drawing.LineShape"><g id="id42"><path id="path366" d="m 14800,3100 0,470" style="fill:none;stroke:#000"/><path id="path368" d="m 14800,4000 150,-450 -300,0 150,450 z" style="fill:#000;stroke:none"/></g></g><g id="g370" class="com.sun.star.drawing.LineShape"><g id="id43"><path id="path373" d="m 17700,3100 0,470" style="fill:none;stroke:#000"/><path id="path375" d="m 17700,4000 150,-450 -300,0 150,450 z" style="fill:#000;stroke:none"/></g></g><g id="g377" class="com.sun.star.drawing.LineShape"><g id="id44"><path id="path380" d="m 10200,2500 0,3900" style="fill:none;stroke:#000"/></g></g><g id="g382" class="com.sun.star.drawing.LineShape"><g id="id45"><path id="path385" d="m 5900,6400 8400,0" style="fill:none;stroke:#000"/></g></g><g id="g387" class="com.sun.star.drawing.LineShape"><g id="id46"><path id="path390" d="m 5900,6400 0,470" style="fill:none;stroke:#000"/><path id="path392" d="m 5900,7300 150,-450 -300,0 150,450 z" style="fill:#000;stroke:none"/></g></g><g id="g394" class="com.sun.star.drawing.LineShape"><g id="id47"><path id="path397" d="m 8800,6400 0,470" style="fill:none;stroke:#000"/><path id="path399" d="m 8800,7300 150,-450 -300,0 150,450 z" style="fill:#000;stroke:none"/></g></g><g id="g401" class="com.sun.star.drawing.LineShape"><g id="id48"><path id="path404" d="m 11300,6400 0,470" style="fill:none;stroke:#000"/><path id="path406" d="m 11300,7300 150,-450 -300,0 150,450 z" style="fill:#000;stroke:none"/></g></g><g id="g408" class="com.sun.star.drawing.LineShape"><g id="id49"><path id="path411" d="m 14300,6400 0,470" style="fill:none;stroke:#000"/><path id="path413" d="m 14300,7300 150,-450 -300,0 150,450 z" style="fill:#000;stroke:none"/></g></g></g></g></g></g></svg>