<svg xmlns="http://www.w3.org/2000/svg" xmlns:ooo="http://xml.openoffice.org/svg/export" xmlns:svg="http://www.w3.org/2000/svg" id="svg9323" width="560.161" height="329.97" clip-path="url(#presentation_clip_path)" style="fill-rule:evenodd;stroke-width:28.22200012;stroke-linejoin:round" preserveAspectRatio="xMidYMid" version="1.2" viewBox="0 0 15809.001 9312.475" xml:space="preserve"><metadata id="metadata10222"/><defs id="defs9325" class="ClipPathGroup"><clipPath id="presentation_clip_path" clipPathUnits="userSpaceOnUse"><rect id="rect9328" width="21590" height="27940" x="0" y="0"/></clipPath></defs><defs id="defs9334" class="EmbeddedBulletChars"><g id="bullet-char-template(57356)" transform="scale(4.8828125e-4,-4.8828125e-4)"><path id="path9337" d="M 580,1141 1163,571 580,0 -4,571 580,1141 z"/></g><g id="bullet-char-template(57354)" transform="scale(4.8828125e-4,-4.8828125e-4)"><path id="path9340" d="m 8,1128 1129,0 L 1137,0 8,0 8,1128 z"/></g><g id="bullet-char-template(10146)" transform="scale(4.8828125e-4,-4.8828125e-4)"><path id="path9343" d="M 174,0 602,739 174,1481 1456,739 174,0 z m 1184,739 -1049,607 350,-607 699,0 z"/></g><g id="bullet-char-template(10132)" transform="scale(4.8828125e-4,-4.8828125e-4)"><path id="path9346" d="M 2015,739 1276,0 717,0 l 543,543 -1086,0 0,393 1086,0 -543,545 557,0 741,-742 z"/></g><g id="bullet-char-template(10007)" transform="scale(4.8828125e-4,-4.8828125e-4)"><path id="path9349" d="m 0,-2 c -7,16 -16,29 -25,39 l 381,530 c -94,256 -141,385 -141,387 0,25 13,38 40,38 9,0 21,-2 34,-5 21,4 42,12 65,25 l 27,-13 111,-251 280,301 64,-25 24,25 c 21,-10 41,-24 62,-43 C 886,937 835,863 770,784 769,783 710,716 594,584 L 774,223 c 0,-27 -21,-55 -63,-84 l 16,-20 C 717,90 699,76 672,76 641,76 570,178 457,381 L 164,-76 c -22,-34 -53,-51 -92,-51 -42,0 -63,17 -64,51 -7,9 -10,24 -10,44 0,9 1,19 2,30 z"/></g><g id="bullet-char-template(10004)" transform="scale(4.8828125e-4,-4.8828125e-4)"><path id="path9352" d="M 285,-33 C 182,-33 111,30 74,156 52,228 41,333 41,471 c 0,78 14,145 41,201 34,71 87,106 158,106 53,0 88,-31 106,-94 l 23,-176 c 8,-64 28,-97 59,-98 l 735,706 c 11,11 33,17 66,17 42,0 63,-15 63,-46 l 0,-122 c 0,-36 -10,-64 -30,-84 L 442,47 C 390,-6 338,-33 285,-33 z"/></g><g id="bullet-char-template(9679)" transform="scale(4.8828125e-4,-4.8828125e-4)"><path id="path9355" d="M 813,0 C 632,0 489,54 383,161 276,268 223,411 223,592 c 0,181 53,324 160,431 106,107 249,161 430,161 179,0 323,-54 432,-161 108,-107 162,-251 162,-431 0,-180 -54,-324 -162,-431 C 1136,54 992,0 813,0 z"/></g><g id="bullet-char-template(8226)" transform="scale(4.8828125e-4,-4.8828125e-4)"><path id="path9358" d="m 346,457 c -73,0 -137,26 -191,78 -54,51 -81,114 -81,188 0,73 27,136 81,188 54,52 118,78 191,78 73,0 134,-26 185,-79 51,-51 77,-114 77,-187 0,-75 -25,-137 -76,-188 -50,-52 -112,-78 -186,-78 z"/></g><g id="bullet-char-template(8211)" transform="scale(4.8828125e-4,-4.8828125e-4)"><path id="path9361" d="m -4,459 1139,0 0,147 -1139,0 0,-147 z"/></g></defs><g id="g9370" class="SlideGroup" transform="translate(-1075,-1212.5254)"><g id="g9372"><g id="id1" class="Slide" clip-path="url(#presentation_clip_path)"><g id="g9375" class="Page"><g id="g9377" class="com.sun.star.drawing.CustomShape"><g id="id3"><path id="path9380" d="m 2750,4147 1400,0 0,1575 -175,225 -1225,0 0,-1800 z" style="fill:none;stroke:#000;stroke-width:50"/><path id="path9382" d="m 3975,5947 46,-225 c 44,33 42,14 129,0 l -175,225 z" style="fill:none;stroke:#000;stroke-width:50"/></g></g><g id="g9384" class="com.sun.star.drawing.TextShape"><g id="id4"><text id="text9387" class="TextShape"><tspan id="tspan9389" class="TextParagraph" font-size="388" font-weight="400" style="font-size:388px;font-weight:400;font-family:'Arial, sans-serif'"><tspan id="tspan9391" x="2759" y="6793" class="TextPosition"><tspan id="tspan9393" style="fill:#000;stroke:none">mars.txt</tspan></tspan></tspan></text></g></g><g id="g9395" class="com.sun.star.drawing.CustomShape"><g id="id5"><path id="path9398" d="m 1800,2300 c -100,0 -200,100 -200,200 l 0,800 c 0,100 100,201 200,201 l 3300,0 c 100,0 201,-101 201,-201 l 0,-800 c 0,-100 -101,-200 -201,-200 l -3300,0 z" style="fill:none;stroke:#000;stroke-width:50"/><text id="text9400" class="TextShape"><tspan id="tspan9402" class="TextParagraph" font-size="388" font-weight="400" style="font-size:388px;font-weight:400;font-family:'Arial, sans-serif'"><tspan id="tspan9404" x="1822" y="3035" class="TextPosition"><tspan id="tspan9406" style="fill:#000;stroke:none">/home/vlad/planets</tspan></tspan></tspan></text></g></g><g id="g9408" class="com.sun.star.drawing.CustomShape"><g id="id6"><path id="path9411" d="m 12650,2300 c -100,0 -200,100 -200,200 l 0,800 c 0,100 100,201 200,201 l 3300,0 c 100,0 201,-101 201,-201 l 0,-800 c 0,-100 -101,-200 -201,-200 l -3300,0 z" style="fill:none;stroke:#000;stroke-width:50"/><text id="text9413" class="TextShape"><tspan id="tspan9415" class="TextParagraph" font-size="388" font-weight="400" style="font-size:388px;font-weight:400;font-family:'Arial, sans-serif'"><tspan id="tspan9417" x="12564" y="3035" class="TextPosition"><tspan id="tspan9419" style="fill:#000;stroke:none">/somewhere/planets</tspan></tspan></tspan></text></g></g><g id="g9421" class="com.sun.star.drawing.LineShape"><g id="id7"><path id="path9424" d="m 11500,1300 0,51" style="fill:none;stroke:#000;stroke-width:50"/><path id="path9426" d="m 11500,1402 0,51" style="fill:none;stroke:#000;stroke-width:50"/><path id="path9428" d="m 11500,1504 0,51" style="fill:none;stroke:#000;stroke-width:50"/><path id="path9430" d="m 11500,1606 0,51" style="fill:none;stroke:#000;stroke-width:50"/><path id="path9432" d="m 11500,1708 0,51" style="fill:none;stroke:#000;stroke-width:50"/><path id="path9434" d="m 11500,1810 0,51" style="fill:none;stroke:#000;stroke-width:50"/><path id="path9436" d="m 11500,1912 0,51" style="fill:none;stroke:#000;stroke-width:50"/><path id="path9438" d="m 11500,2014 0,51" style="fill:none;stroke:#000;stroke-width:50"/><path id="path9440" d="m 11500,2116 0,51" style="fill:none;stroke:#000;stroke-width:50"/><path id="path9442" d="m 11500,2218 0,51" style="fill:none;stroke:#000;stroke-width:50"/><path id="path9444" d="m 11500,2320 0,51" style="fill:none;stroke:#000;stroke-width:50"/><path id="path9446" d="m 11500,2422 0,51" style="fill:none;stroke:#000;stroke-width:50"/><path id="path9448" d="m 11500,2524 0,51" style="fill:none;stroke:#000;stroke-width:50"/><path id="path9450" d="m 11500,2626 0,51" style="fill:none;stroke:#000;stroke-width:50"/><path id="path9452" d="m 11500,2728 0,51" style="fill:none;stroke:#000;stroke-width:50"/><path id="path9454" d="m 11500,2830 0,51" style="fill:none;stroke:#000;stroke-width:50"/><path id="path9456" d="m 11500,2932 0,51" style="fill:none;stroke:#000;stroke-width:50"/><path id="path9458" d="m 11500,3034 0,51" style="fill:none;stroke:#000;stroke-width:50"/><path id="path9460" d="m 11500,3136 0,51" style="fill:none;stroke:#000;stroke-width:50"/><path id="path9462" d="m 11500,3238 0,51" style="fill:none;stroke:#000;stroke-width:50"/><path id="path9464" d="m 11500,3340 0,51" style="fill:none;stroke:#000;stroke-width:50"/><path id="path9466" d="m 11500,3442 0,51" style="fill:none;stroke:#000;stroke-width:50"/><path id="path9468" d="m 11500,3544 0,51" style="fill:none;stroke:#000;stroke-width:50"/><path id="path9470" d="m 11500,3646 0,51" style="fill:none;stroke:#000;stroke-width:50"/><path id="path9472" d="m 11500,3748 0,51" style="fill:none;stroke:#000;stroke-width:50"/><path id="path9474" d="m 11500,3850 0,51" style="fill:none;stroke:#000;stroke-width:50"/><path id="path9476" d="m 11500,3952 0,51" style="fill:none;stroke:#000;stroke-width:50"/><path id="path9478" d="m 11500,4054 0,51" style="fill:none;stroke:#000;stroke-width:50"/><path id="path9480" d="m 11500,4156 0,51" style="fill:none;stroke:#000;stroke-width:50"/><path id="path9482" d="m 11500,4258 0,51" style="fill:none;stroke:#000;stroke-width:50"/><path id="path9484" d="m 11500,4360 0,51" style="fill:none;stroke:#000;stroke-width:50"/><path id="path9486" d="m 11500,4462 0,51" style="fill:none;stroke:#000;stroke-width:50"/><path id="path9488" d="m 11500,4564 0,51" style="fill:none;stroke:#000;stroke-width:50"/><path id="path9490" d="m 11500,4666 0,51" style="fill:none;stroke:#000;stroke-width:50"/><path id="path9492" d="m 11500,4768 0,51" style="fill:none;stroke:#000;stroke-width:50"/><path id="path9494" d="m 11500,4870 0,51" style="fill:none;stroke:#000;stroke-width:50"/><path id="path9496" d="m 11500,4972 0,51" style="fill:none;stroke:#000;stroke-width:50"/><path id="path9498" d="m 11500,5074 0,51" style="fill:none;stroke:#000;stroke-width:50"/><path id="path9500" d="m 11500,5176 0,51" style="fill:none;stroke:#000;stroke-width:50"/><path id="path9502" d="m 11500,5278 0,51" style="fill:none;stroke:#000;stroke-width:50"/><path id="path9504" d="m 11500,5380 0,51" style="fill:none;stroke:#000;stroke-width:50"/><path id="path9506" d="m 11500,5482 0,51" style="fill:none;stroke:#000;stroke-width:50"/><path id="path9508" d="m 11500,5584 0,51" style="fill:none;stroke:#000;stroke-width:50"/><path id="path9510" d="m 11500,5686 0,51" style="fill:none;stroke:#000;stroke-width:50"/><path id="path9512" d="m 11500,5788 0,51" style="fill:none;stroke:#000;stroke-width:50"/><path id="path9514" d="m 11500,5890 0,51" style="fill:none;stroke:#000;stroke-width:50"/><path id="path9516" d="m 11500,5992 0,51" style="fill:none;stroke:#000;stroke-width:50"/><path id="path9518" d="m 11500,6094 0,51" style="fill:none;stroke:#000;stroke-width:50"/><path id="path9520" d="m 11500,6196 0,51" style="fill:none;stroke:#000;stroke-width:50"/><path id="path9522" d="m 11500,6298 0,51" style="fill:none;stroke:#000;stroke-width:50"/><path id="path9524" d="m 11500,6400 0,51" style="fill:none;stroke:#000;stroke-width:50"/><path id="path9526" d="m 11500,6502 0,51" style="fill:none;stroke:#000;stroke-width:50"/><path id="path9528" d="m 11500,6604 0,51" style="fill:none;stroke:#000;stroke-width:50"/><path id="path9530" d="m 11500,6706 0,51" style="fill:none;stroke:#000;stroke-width:50"/><path id="path9532" d="m 11500,6808 0,51" style="fill:none;stroke:#000;stroke-width:50"/><path id="path9534" d="m 11500,6910 0,51" style="fill:none;stroke:#000;stroke-width:50"/><path id="path9536" d="m 11500,7012 0,51" style="fill:none;stroke:#000;stroke-width:50"/><path id="path9538" d="m 11500,7114 0,51" style="fill:none;stroke:#000;stroke-width:50"/><path id="path9540" d="m 11500,7216 0,51" style="fill:none;stroke:#000;stroke-width:50"/><path id="path9542" d="m 11500,7318 0,51" style="fill:none;stroke:#000;stroke-width:50"/><path id="path9544" d="m 11500,7420 0,51" style="fill:none;stroke:#000;stroke-width:50"/><path id="path9546" d="m 11500,7522 0,51" style="fill:none;stroke:#000;stroke-width:50"/><path id="path9548" d="m 11500,7624 0,51" style="fill:none;stroke:#000;stroke-width:50"/><path id="path9550" d="m 11500,7726 0,51" style="fill:none;stroke:#000;stroke-width:50"/><path id="path9552" d="m 11500,7828 0,51" style="fill:none;stroke:#000;stroke-width:50"/><path id="path9554" d="m 11500,7930 0,51" style="fill:none;stroke:#000;stroke-width:50"/><path id="path9556" d="m 11500,8032 0,51" style="fill:none;stroke:#000;stroke-width:50"/><path id="path9558" d="m 11500,8134 0,51" style="fill:none;stroke:#000;stroke-width:50"/><path id="path9560" d="m 11500,8236 0,51" style="fill:none;stroke:#000;stroke-width:50"/><path id="path9562" d="m 11500,8338 0,51" style="fill:none;stroke:#000;stroke-width:50"/><path id="path9564" d="m 11500,8440 0,51" style="fill:none;stroke:#000;stroke-width:50"/><path id="path9566" d="m 11500,8542 0,51" style="fill:none;stroke:#000;stroke-width:50"/><path id="path9568" d="m 11500,8644 0,51" style="fill:none;stroke:#000;stroke-width:50"/><path id="path9570" d="m 11500,8746 0,51" style="fill:none;stroke:#000;stroke-width:50"/><path id="path9572" d="m 11500,8848 0,51" style="fill:none;stroke:#000;stroke-width:50"/><path id="path9574" d="m 11500,8950 0,51" style="fill:none;stroke:#000;stroke-width:50"/><path id="path9576" d="m 11500,9052 0,51" style="fill:none;stroke:#000;stroke-width:50"/><path id="path9578" d="m 11500,9154 0,51" style="fill:none;stroke:#000;stroke-width:50"/><path id="path9580" d="m 11500,9256 0,51" style="fill:none;stroke:#000;stroke-width:50"/><path id="path9582" d="m 11500,9358 0,51" style="fill:none;stroke:#000;stroke-width:50"/><path id="path9584" d="m 11500,9460 0,51" style="fill:none;stroke:#000;stroke-width:50"/><path id="path9586" d="m 11500,9562 0,51" style="fill:none;stroke:#000;stroke-width:50"/><path id="path9588" d="m 11500,9664 0,51" style="fill:none;stroke:#000;stroke-width:50"/><path id="path9590" d="m 11500,9766 0,51" style="fill:none;stroke:#000;stroke-width:50"/><path id="path9592" d="m 11500,9868 0,51" style="fill:none;stroke:#000;stroke-width:50"/><path id="path9594" d="m 11500,9970 0,51" style="fill:none;stroke:#000;stroke-width:50"/><path id="path9596" d="m 11500,10072 0,51" style="fill:none;stroke:#000;stroke-width:50"/><path id="path9598" d="m 11500,10174 0,51" style="fill:none;stroke:#000;stroke-width:50"/><path id="path9600" d="m 11500,10276 0,51" style="fill:none;stroke:#000;stroke-width:50"/><path id="path9602" d="m 11500,10378 0,51" style="fill:none;stroke:#000;stroke-width:50"/><path id="path9604" d="m 11500,10480 0,20" style="fill:none;stroke:#000;stroke-width:50"/></g></g><g id="g9606" class="com.sun.star.drawing.LineShape"><g id="id8"><path id="path9609" d="m 1100,1800 51,0" style="fill:none;stroke:#000;stroke-width:50"/><path id="path9611" d="m 1202,1800 51,0" style="fill:none;stroke:#000;stroke-width:50"/><path id="path9613" d="m 1304,1800 51,0" style="fill:none;stroke:#000;stroke-width:50"/><path id="path9615" d="m 1406,1800 51,0" style="fill:none;stroke:#000;stroke-width:50"/><path id="path9617" d="m 1508,1800 51,0" style="fill:none;stroke:#000;stroke-width:50"/><path id="path9619" d="m 1610,1800 51,0" style="fill:none;stroke:#000;stroke-width:50"/><path id="path9621" d="m 1712,1800 51,0" style="fill:none;stroke:#000;stroke-width:50"/><path id="path9623" d="m 1814,1800 51,0" style="fill:none;stroke:#000;stroke-width:50"/><path id="path9625" d="m 1916,1800 51,0" style="fill:none;stroke:#000;stroke-width:50"/><path id="path9627" d="m 2018,1800 51,0" style="fill:none;stroke:#000;stroke-width:50"/><path id="path9629" d="m 2120,1800 51,0" style="fill:none;stroke:#000;stroke-width:50"/><path id="path9631" d="m 2222,1800 51,0" style="fill:none;stroke:#000;stroke-width:50"/><path id="path9633" d="m 2324,1800 51,0" style="fill:none;stroke:#000;stroke-width:50"/><path id="path9635" d="m 2426,1800 51,0" style="fill:none;stroke:#000;stroke-width:50"/><path id="path9637" d="m 2528,1800 51,0" style="fill:none;stroke:#000;stroke-width:50"/><path id="path9639" d="m 2630,1800 51,0" style="fill:none;stroke:#000;stroke-width:50"/><path id="path9641" d="m 2732,1800 51,0" style="fill:none;stroke:#000;stroke-width:50"/><path id="path9643" d="m 2834,1800 51,0" style="fill:none;stroke:#000;stroke-width:50"/><path id="path9645" d="m 2936,1800 51,0" style="fill:none;stroke:#000;stroke-width:50"/><path id="path9647" d="m 3038,1800 51,0" style="fill:none;stroke:#000;stroke-width:50"/><path id="path9649" d="m 3140,1800 51,0" style="fill:none;stroke:#000;stroke-width:50"/><path id="path9651" d="m 3242,1800 51,0" style="fill:none;stroke:#000;stroke-width:50"/><path id="path9653" d="m 3344,1800 51,0" style="fill:none;stroke:#000;stroke-width:50"/><path id="path9655" d="m 3446,1800 51,0" style="fill:none;stroke:#000;stroke-width:50"/><path id="path9657" d="m 3548,1800 51,0" style="fill:none;stroke:#000;stroke-width:50"/><path id="path9659" d="m 3650,1800 51,0" style="fill:none;stroke:#000;stroke-width:50"/><path id="path9661" d="m 3752,1800 51,0" style="fill:none;stroke:#000;stroke-width:50"/><path id="path9663" d="m 3854,1800 51,0" style="fill:none;stroke:#000;stroke-width:50"/><path id="path9665" d="m 3956,1800 51,0" style="fill:none;stroke:#000;stroke-width:50"/><path id="path9667" d="m 4058,1800 51,0" style="fill:none;stroke:#000;stroke-width:50"/><path id="path9669" d="m 4160,1800 51,0" style="fill:none;stroke:#000;stroke-width:50"/><path id="path9671" d="m 4262,1800 51,0" style="fill:none;stroke:#000;stroke-width:50"/><path id="path9673" d="m 4364,1800 51,0" style="fill:none;stroke:#000;stroke-width:50"/><path id="path9675" d="m 4466,1800 51,0" style="fill:none;stroke:#000;stroke-width:50"/><path id="path9677" d="m 4568,1800 51,0" style="fill:none;stroke:#000;stroke-width:50"/><path id="path9679" d="m 4670,1800 51,0" style="fill:none;stroke:#000;stroke-width:50"/><path id="path9681" d="m 4772,1800 51,0" style="fill:none;stroke:#000;stroke-width:50"/><path id="path9683" d="m 4874,1800 51,0" style="fill:none;stroke:#000;stroke-width:50"/><path id="path9685" d="m 4976,1800 51,0" style="fill:none;stroke:#000;stroke-width:50"/><path id="path9687" d="m 5078,1800 51,0" style="fill:none;stroke:#000;stroke-width:50"/><path id="path9689" d="m 5180,1800 51,0" style="fill:none;stroke:#000;stroke-width:50"/><path id="path9691" d="m 5282,1800 51,0" style="fill:none;stroke:#000;stroke-width:50"/><path id="path9693" d="m 5384,1800 51,0" style="fill:none;stroke:#000;stroke-width:50"/><path id="path9695" d="m 5486,1800 51,0" style="fill:none;stroke:#000;stroke-width:50"/><path id="path9697" d="m 5588,1800 51,0" style="fill:none;stroke:#000;stroke-width:50"/><path id="path9699" d="m 5690,1800 51,0" style="fill:none;stroke:#000;stroke-width:50"/><path id="path9701" d="m 5792,1800 51,0" style="fill:none;stroke:#000;stroke-width:50"/><path id="path9703" d="m 5894,1800 51,0" style="fill:none;stroke:#000;stroke-width:50"/><path id="path9705" d="m 5996,1800 51,0" style="fill:none;stroke:#000;stroke-width:50"/><path id="path9707" d="m 6098,1800 51,0" style="fill:none;stroke:#000;stroke-width:50"/><path id="path9709" d="m 6200,1800 51,0" style="fill:none;stroke:#000;stroke-width:50"/><path id="path9711" d="m 6302,1800 51,0" style="fill:none;stroke:#000;stroke-width:50"/><path id="path9713" d="m 6404,1800 51,0" style="fill:none;stroke:#000;stroke-width:50"/><path id="path9715" d="m 6506,1800 51,0" style="fill:none;stroke:#000;stroke-width:50"/><path id="path9717" d="m 6608,1800 51,0" style="fill:none;stroke:#000;stroke-width:50"/><path id="path9719" d="m 6710,1800 51,0" style="fill:none;stroke:#000;stroke-width:50"/><path id="path9721" d="m 6812,1800 51,0" style="fill:none;stroke:#000;stroke-width:50"/><path id="path9723" d="m 6914,1800 51,0" style="fill:none;stroke:#000;stroke-width:50"/><path id="path9725" d="m 7016,1800 51,0" style="fill:none;stroke:#000;stroke-width:50"/><path id="path9727" d="m 7118,1800 51,0" style="fill:none;stroke:#000;stroke-width:50"/><path id="path9729" d="m 7220,1800 51,0" style="fill:none;stroke:#000;stroke-width:50"/><path id="path9731" d="m 7322,1800 51,0" style="fill:none;stroke:#000;stroke-width:50"/><path id="path9733" d="m 7424,1800 51,0" style="fill:none;stroke:#000;stroke-width:50"/><path id="path9735" d="m 7526,1800 51,0" style="fill:none;stroke:#000;stroke-width:50"/><path id="path9737" d="m 7628,1800 51,0" style="fill:none;stroke:#000;stroke-width:50"/><path id="path9739" d="m 7730,1800 51,0" style="fill:none;stroke:#000;stroke-width:50"/><path id="path9741" d="m 7832,1800 51,0" style="fill:none;stroke:#000;stroke-width:50"/><path id="path9743" d="m 7934,1800 51,0" style="fill:none;stroke:#000;stroke-width:50"/><path id="path9745" d="m 8036,1800 51,0" style="fill:none;stroke:#000;stroke-width:50"/><path id="path9747" d="m 8138,1800 51,0" style="fill:none;stroke:#000;stroke-width:50"/><path id="path9749" d="m 8240,1800 51,0" style="fill:none;stroke:#000;stroke-width:50"/><path id="path9751" d="m 8342,1800 51,0" style="fill:none;stroke:#000;stroke-width:50"/><path id="path9753" d="m 8444,1800 51,0" style="fill:none;stroke:#000;stroke-width:50"/><path id="path9755" d="m 8546,1800 51,0" style="fill:none;stroke:#000;stroke-width:50"/><path id="path9757" d="m 8648,1800 51,0" style="fill:none;stroke:#000;stroke-width:50"/><path id="path9759" d="m 8750,1800 51,0" style="fill:none;stroke:#000;stroke-width:50"/><path id="path9761" d="m 8852,1800 51,0" style="fill:none;stroke:#000;stroke-width:50"/><path id="path9763" d="m 8954,1800 51,0" style="fill:none;stroke:#000;stroke-width:50"/><path id="path9765" d="m 9056,1800 51,0" style="fill:none;stroke:#000;stroke-width:50"/><path id="path9767" d="m 9158,1800 51,0" style="fill:none;stroke:#000;stroke-width:50"/><path id="path9769" d="m 9260,1800 51,0" style="fill:none;stroke:#000;stroke-width:50"/><path id="path9771" d="m 9362,1800 51,0" style="fill:none;stroke:#000;stroke-width:50"/><path id="path9773" d="m 9464,1800 51,0" style="fill:none;stroke:#000;stroke-width:50"/><path id="path9775" d="m 9566,1800 51,0" style="fill:none;stroke:#000;stroke-width:50"/><path id="path9777" d="m 9668,1800 51,0" style="fill:none;stroke:#000;stroke-width:50"/><path id="path9779" d="m 9770,1800 51,0" style="fill:none;stroke:#000;stroke-width:50"/><path id="path9781" d="m 9872,1800 51,0" style="fill:none;stroke:#000;stroke-width:50"/><path id="path9783" d="m 9974,1800 51,0" style="fill:none;stroke:#000;stroke-width:50"/><path id="path9785" d="m 10076,1800 51,0" style="fill:none;stroke:#000;stroke-width:50"/><path id="path9787" d="m 10178,1800 51,0" style="fill:none;stroke:#000;stroke-width:50"/><path id="path9789" d="m 10280,1800 51,0" style="fill:none;stroke:#000;stroke-width:50"/><path id="path9791" d="m 10382,1800 51,0" style="fill:none;stroke:#000;stroke-width:50"/><path id="path9793" d="m 10484,1800 51,0" style="fill:none;stroke:#000;stroke-width:50"/><path id="path9795" d="m 10586,1800 51,0" style="fill:none;stroke:#000;stroke-width:50"/><path id="path9797" d="m 10688,1800 51,0" style="fill:none;stroke:#000;stroke-width:50"/><path id="path9799" d="m 10790,1800 51,0" style="fill:none;stroke:#000;stroke-width:50"/><path id="path9801" d="m 10892,1800 51,0" style="fill:none;stroke:#000;stroke-width:50"/><path id="path9803" d="m 10994,1800 51,0" style="fill:none;stroke:#000;stroke-width:50"/><path id="path9805" d="m 11096,1800 51,0" style="fill:none;stroke:#000;stroke-width:50"/><path id="path9807" d="m 11198,1800 51,0" style="fill:none;stroke:#000;stroke-width:50"/><path id="path9809" d="m 11300,1800 51,0" style="fill:none;stroke:#000;stroke-width:50"/><path id="path9811" d="m 11402,1800 51,0" style="fill:none;stroke:#000;stroke-width:50"/><path id="path9813" d="m 11504,1800 51,0" style="fill:none;stroke:#000;stroke-width:50"/><path id="path9815" d="m 11606,1800 51,0" style="fill:none;stroke:#000;stroke-width:50"/><path id="path9817" d="m 11708,1800 51,0" style="fill:none;stroke:#000;stroke-width:50"/><path id="path9819" d="m 11810,1800 51,0" style="fill:none;stroke:#000;stroke-width:50"/><path id="path9821" d="m 11912,1800 51,0" style="fill:none;stroke:#000;stroke-width:50"/><path id="path9823" d="m 12014,1800 51,0" style="fill:none;stroke:#000;stroke-width:50"/><path id="path9825" d="m 12116,1800 51,0" style="fill:none;stroke:#000;stroke-width:50"/><path id="path9827" d="m 12218,1800 51,0" style="fill:none;stroke:#000;stroke-width:50"/><path id="path9829" d="m 12320,1800 51,0" style="fill:none;stroke:#000;stroke-width:50"/><path id="path9831" d="m 12422,1800 51,0" style="fill:none;stroke:#000;stroke-width:50"/><path id="path9833" d="m 12524,1800 51,0" style="fill:none;stroke:#000;stroke-width:50"/><path id="path9835" d="m 12626,1800 51,0" style="fill:none;stroke:#000;stroke-width:50"/><path id="path9837" d="m 12728,1800 51,0" style="fill:none;stroke:#000;stroke-width:50"/><path id="path9839" d="m 12830,1800 51,0" style="fill:none;stroke:#000;stroke-width:50"/><path id="path9841" d="m 12932,1800 51,0" style="fill:none;stroke:#000;stroke-width:50"/><path id="path9843" d="m 13034,1800 51,0" style="fill:none;stroke:#000;stroke-width:50"/><path id="path9845" d="m 13136,1800 51,0" style="fill:none;stroke:#000;stroke-width:50"/><path id="path9847" d="m 13238,1800 51,0" style="fill:none;stroke:#000;stroke-width:50"/><path id="path9849" d="m 13340,1800 51,0" style="fill:none;stroke:#000;stroke-width:50"/><path id="path9851" d="m 13442,1800 51,0" style="fill:none;stroke:#000;stroke-width:50"/><path id="path9853" d="m 13544,1800 51,0" style="fill:none;stroke:#000;stroke-width:50"/><path id="path9855" d="m 13646,1800 51,0" style="fill:none;stroke:#000;stroke-width:50"/><path id="path9857" d="m 13748,1800 51,0" style="fill:none;stroke:#000;stroke-width:50"/><path id="path9859" d="m 13850,1800 51,0" style="fill:none;stroke:#000;stroke-width:50"/><path id="path9861" d="m 13952,1800 51,0" style="fill:none;stroke:#000;stroke-width:50"/><path id="path9863" d="m 14054,1800 51,0" style="fill:none;stroke:#000;stroke-width:50"/><path id="path9865" d="m 14156,1800 51,0" style="fill:none;stroke:#000;stroke-width:50"/><path id="path9867" d="m 14258,1800 51,0" style="fill:none;stroke:#000;stroke-width:50"/><path id="path9869" d="m 14360,1800 51,0" style="fill:none;stroke:#000;stroke-width:50"/><path id="path9871" d="m 14462,1800 51,0" style="fill:none;stroke:#000;stroke-width:50"/><path id="path9873" d="m 14564,1800 51,0" style="fill:none;stroke:#000;stroke-width:50"/><path id="path9875" d="m 14666,1800 51,0" style="fill:none;stroke:#000;stroke-width:50"/><path id="path9877" d="m 14768,1800 51,0" style="fill:none;stroke:#000;stroke-width:50"/><path id="path9879" d="m 14870,1800 51,0" style="fill:none;stroke:#000;stroke-width:50"/><path id="path9881" d="m 14972,1800 51,0" style="fill:none;stroke:#000;stroke-width:50"/><path id="path9883" d="m 15074,1800 51,0" style="fill:none;stroke:#000;stroke-width:50"/><path id="path9885" d="m 15176,1800 51,0" style="fill:none;stroke:#000;stroke-width:50"/><path id="path9887" d="m 15278,1800 51,0" style="fill:none;stroke:#000;stroke-width:50"/><path id="path9889" d="m 15380,1800 51,0" style="fill:none;stroke:#000;stroke-width:50"/><path id="path9891" d="m 15482,1800 51,0" style="fill:none;stroke:#000;stroke-width:50"/><path id="path9893" d="m 15584,1800 51,0" style="fill:none;stroke:#000;stroke-width:50"/><path id="path9895" d="m 15686,1800 51,0" style="fill:none;stroke:#000;stroke-width:50"/><path id="path9897" d="m 15788,1800 51,0" style="fill:none;stroke:#000;stroke-width:50"/><path id="path9899" d="m 15890,1800 51,0" style="fill:none;stroke:#000;stroke-width:50"/><path id="path9901" d="m 15992,1800 51,0" style="fill:none;stroke:#000;stroke-width:50"/><path id="path9903" d="m 16094,1800 51,0" style="fill:none;stroke:#000;stroke-width:50"/><path id="path9905" d="m 16196,1800 51,0" style="fill:none;stroke:#000;stroke-width:50"/><path id="path9907" d="m 16298,1800 51,0" style="fill:none;stroke:#000;stroke-width:50"/><path id="path9909" d="m 16400,1800 51,0" style="fill:none;stroke:#000;stroke-width:50"/><path id="path9911" d="m 16502,1800 51,0" style="fill:none;stroke:#000;stroke-width:50"/><path id="path9913" d="m 16604,1800 51,0" style="fill:none;stroke:#000;stroke-width:50"/><path id="path9915" d="m 16706,1800 51,0" style="fill:none;stroke:#000;stroke-width:50"/><path id="path9917" d="m 16808,1800 51,0" style="fill:none;stroke:#000;stroke-width:50"/></g></g><g id="g9919" class="com.sun.star.drawing.TextShape"><g id="id9"><text id="text9922" class="TextShape"><tspan id="tspan9924" class="TextParagraph" font-size="388" font-weight="400" style="font-size:388px;font-weight:400;font-family:'Arial, sans-serif'"><tspan id="tspan9926" x="5951" y="1494" class="TextPosition"><tspan id="tspan9928" style="fill:#000;stroke:none">local</tspan></tspan></tspan></text></g></g><g id="g9930" class="com.sun.star.drawing.TextShape"><g id="id10"><text id="text9933" class="TextShape"><tspan id="tspan9935" class="TextParagraph" font-size="388" font-weight="400" style="font-size:388px;font-weight:400;font-family:'Arial, sans-serif'"><tspan id="tspan9937" x="13696" y="1495" class="TextPosition"><tspan id="tspan9939" style="fill:#000;stroke:none">GitHub</tspan></tspan></tspan></text></g></g><g id="g9941" class="com.sun.star.drawing.CustomShape"><g id="id11"><path id="path9944" d="m 13750,4148 1400,0 0,1575 -175,225 -1225,0 0,-1800 z" style="fill:none;stroke:#000;stroke-width:50"/><path id="path9946" d="m 14975,5948 46,-225 c 44,33 42,14 129,0 l -175,225 z" style="fill:none;stroke:#000;stroke-width:50"/></g></g><g id="g9948" class="com.sun.star.drawing.TextShape"><g id="id12"><text id="text9951" class="TextShape"><tspan id="tspan9953" class="TextParagraph" font-size="388" font-weight="400" style="font-size:388px;font-weight:400;font-family:'Arial, sans-serif'"><tspan id="tspan9955" x="13759" y="6794" class="TextPosition"><tspan id="tspan9957" style="fill:#000;stroke:none">mars.txt</tspan></tspan></tspan></text></g></g><g id="g9959" class="com.sun.star.drawing.CustomShape"><g id="id13"><path id="path9962" d="m 7850,4147 1400,0 0,1575 -175,225 -1225,0 0,-1800 z" style="fill:none;stroke:#000;stroke-width:50"/><path id="path9964" d="m 9075,5947 46,-225 c 44,33 42,14 129,0 l -175,225 z" style="fill:none;stroke:#000;stroke-width:50"/></g></g><g id="g9966" class="com.sun.star.drawing.TextShape"><g id="id14"><text id="text9969" class="TextShape"><tspan id="tspan9971" class="TextParagraph" font-size="388" font-weight="400" style="font-size:388px;font-weight:400;font-family:'Arial, sans-serif'"><tspan id="tspan9973" x="7859" y="6793" class="TextPosition"><tspan id="tspan9975" style="fill:#000;stroke:none">mars.txt</tspan></tspan></tspan></text></g></g><g id="g9977" class="com.sun.star.drawing.CustomShape"><g id="id15"><path id="path9980" d="m 6900,2300 c -100,0 -200,100 -200,200 l 0,800 c 0,100 100,201 200,201 l 3300,0 c 100,0 201,-101 201,-201 l 0,-800 c 0,-100 -101,-200 -201,-200 l -3300,0 z" style="fill:none;stroke:#000;stroke-width:50"/><text id="text9982" class="TextShape"><tspan id="tspan9984" class="TextParagraph" font-size="388" font-weight="400" style="font-size:388px;font-weight:400;font-family:'Arial, sans-serif'"><tspan id="tspan9986" x="7494" y="3035" class="TextPosition"><tspan id="tspan9988" style="fill:#000;stroke:none">/tmp/planets</tspan></tspan></tspan></text></g></g><g id="g9990" class="com.sun.star.drawing.CustomShape"><g id="id16"><path id="path9993" d="m 7850,7448 1400,0 0,1575 -175,225 -1225,0 0,-1800 z" style="fill:none;stroke:#000;stroke-width:50"/><path id="path9995" d="m 9075,9248 46,-225 c 44,33 42,14 129,0 l -175,225 z" style="fill:none;stroke:#000;stroke-width:50"/></g></g><g id="g9997" class="com.sun.star.drawing.TextShape"><g id="id17"><text id="text10000" class="TextShape"><tspan id="tspan10002" class="TextParagraph" font-size="388" font-weight="400" style="font-size:388px;font-weight:400;font-family:'Arial, sans-serif'"><tspan id="tspan10004" x="7859" y="10094" class="TextPosition"><tspan id="tspan10006" style="fill:#000;stroke:none">pluto.txt</tspan></tspan></tspan></text></g></g><g id="g10008" class="com.sun.star.drawing.LineShape"><g id="id18"><path id="path10011" d="m 8100,7898 900,0" style="fill:none;stroke:#000;stroke-width:50"/></g></g><g id="g10013" class="com.sun.star.drawing.LineShape"><g id="id19"><path id="path10016" d="m 8100,8198 900,0" style="fill:none;stroke:#000;stroke-width:50"/></g></g><g id="g10018" class="com.sun.star.drawing.LineShape"><g id="id20"><path id="path10021" d="m 8100,8498 900,0" style="fill:none;stroke:#000;stroke-width:50"/></g></g><g id="g10023" class="com.sun.star.drawing.CustomShape"><g id="id21"><path id="path10026" d="m 13751,7449 1400,0 0,1575 -175,225 -1225,0 0,-1800 z" style="fill:none;stroke:#000;stroke-width:50"/><path id="path10028" d="m 14976,9249 46,-225 c 44,33 42,14 129,0 l -175,225 z" style="fill:none;stroke:#000;stroke-width:50"/></g></g><g id="g10030" class="com.sun.star.drawing.TextShape"><g id="id22"><text id="text10033" class="TextShape"><tspan id="tspan10035" class="TextParagraph" font-size="388" font-weight="400" style="font-size:388px;font-weight:400;font-family:'Arial, sans-serif'"><tspan id="tspan10037" x="13760" y="10095" class="TextPosition"><tspan id="tspan10039" style="fill:#000;stroke:none">pluto.txt</tspan></tspan></tspan></text></g></g><g id="g10041" class="com.sun.star.drawing.LineShape"><g id="id23"><path id="path10044" d="m 14001,7899 900,0" style="fill:none;stroke:#000;stroke-width:50"/></g></g><g id="g10046" class="com.sun.star.drawing.LineShape"><g id="id24"><path id="path10049" d="m 14001,8199 900,0" style="fill:none;stroke:#000;stroke-width:50"/></g></g><g id="g10051" class="com.sun.star.drawing.LineShape"><g id="id25"><path id="path10054" d="m 14001,8499 900,0" style="fill:none;stroke:#000;stroke-width:50"/></g></g><g id="g10056" class="com.sun.star.drawing.CustomShape"><g id="id26"><path id="path10059" d="m 3450,4600 -105,344 -345,0 280,215 -105,342 275,-210 275,210 -105,-342 281,-215 -346,0 -105,-344 0,0 z m -450,0 0,0 z m 901,901 0,0 z" style="fill:silver;stroke:none"/><path id="path10061" d="m 3450,4600 -105,344 -345,0 280,215 -105,342 275,-210 275,210 -105,-342 281,-215 -346,0 -105,-344 0,0 z" style="fill:none;stroke:#000;stroke-width:50"/></g></g><g id="g10063" class="com.sun.star.drawing.OpenBezierShape"><g id="id27"><path id="path10066" d="m 9500,4844 c 16,-8 32,-17 49,-25" style="fill:none;stroke:#000;stroke-width:50"/><path id="path10068" d="m 9597,4795 c 16,-8 32,-15 48,-23" style="fill:none;stroke:#000;stroke-width:50"/><path id="path10070" d="m 9692,4749 c 16,-7 31,-15 47,-22" style="fill:none;stroke:#000;stroke-width:50"/><path id="path10072" d="m 9786,4706 c 15,-7 31,-14 46,-21" style="fill:none;stroke:#000;stroke-width:50"/><path id="path10074" d="m 9878,4665 c 15,-7 30,-13 45,-20" style="fill:none;stroke:#000;stroke-width:50"/><path id="path10076" d="m 9968,4626 c 15,-6 30,-12 45,-18" style="fill:none;stroke:#000;stroke-width:50"/><path id="path10078" d="m 10057,4590 c 17,-7 34,-13 51,-20" style="fill:none;stroke:#000;stroke-width:50"/><path id="path10080" d="m 10158,4551 c 16,-6 33,-12 49,-18" style="fill:none;stroke:#000;stroke-width:50"/><path id="path10082" d="m 10257,4516 c 16,-6 32,-12 48,-17" style="fill:none;stroke:#000;stroke-width:50"/><path id="path10084" d="m 10353,4483 c 16,-5 32,-10 48,-15" style="fill:none;stroke:#000;stroke-width:50"/><path id="path10086" d="m 10448,4453 c 16,-5 31,-9 47,-14" style="fill:none;stroke:#000;stroke-width:50"/><path id="path10088" d="m 10541,4426 c 17,-4 34,-9 50,-13" style="fill:none;stroke:#000;stroke-width:50"/><path id="path10090" d="m 10643,4399 c 17,-4 35,-8 52,-12" style="fill:none;stroke:#000;stroke-width:50"/><path id="path10092" d="m 10745,4375 c 17,-4 34,-7 50,-11" style="fill:none;stroke:#000;stroke-width:50"/><path id="path10094" d="m 10845,4354 c 16,-3 32,-6 49,-9" style="fill:none;stroke:#000;stroke-width:50"/><path id="path10096" d="m 10942,4337 c 16,-3 32,-5 47,-8" style="fill:none;stroke:#000;stroke-width:50"/><path id="path10098" d="m 11041,4322 c 18,-3 35,-5 53,-7" style="fill:none;stroke:#000;stroke-width:50"/><path id="path10100" d="m 11146,4309 c 17,-2 34,-3 51,-5" style="fill:none;stroke:#000;stroke-width:50"/><path id="path10102" d="m 11248,4300 c 17,-1 33,-2 50,-3" style="fill:none;stroke:#000;stroke-width:50"/><path id="path10104" d="m 11347,4295 c 16,-1 32,-2 48,-2" style="fill:none;stroke:#000;stroke-width:50"/><path id="path10106" d="m 11448,4292 c 18,0 35,0 53,0" style="fill:none;stroke:#000;stroke-width:50"/><path id="path10108" d="m 11553,4294 c 17,0 34,1 51,2" style="fill:none;stroke:#000;stroke-width:50"/><path id="path10110" d="m 11654,4298 c 17,2 33,3 50,4" style="fill:none;stroke:#000;stroke-width:50"/><path id="path10112" d="m 11752,4307 c 18,1 35,3 52,5" style="fill:none;stroke:#000;stroke-width:50"/><path id="path10114" d="m 11856,4319 c 17,3 34,5 51,8" style="fill:none;stroke:#000;stroke-width:50"/><path id="path10116" d="m 11957,4335 c 17,3 34,6 50,9" style="fill:none;stroke:#000;stroke-width:50"/><path id="path10118" d="m 12055,4354 c 17,4 33,7 50,11" style="fill:none;stroke:#000;stroke-width:50"/><path id="path10120" d="m 12156,4377 c 17,4 33,9 50,13" style="fill:none;stroke:#000;stroke-width:50"/><path id="path10122" d="m 12255,4404 c 16,4 32,9 48,14" style="fill:none;stroke:#000;stroke-width:50"/><path id="path10124" d="m 12350,4432 c 17,5 34,11 50,16" style="fill:none;stroke:#000;stroke-width:50"/><path id="path10126" d="m 12449,4465 c 17,5 33,11 49,17" style="fill:none;stroke:#000;stroke-width:50"/><path id="path10128" d="m 12545,4499 c 16,6 31,12 47,18" style="fill:none;stroke:#000;stroke-width:50"/><path id="path10130" d="m 12639,4535 c 17,6 33,13 49,19" style="fill:none;stroke:#000;stroke-width:50"/><path id="path10132" d="m 12736,4573 c 15,7 31,13 46,19" style="fill:none;stroke:#000;stroke-width:50"/><path id="path10134" d="m 12828,4611 c 16,7 32,13 48,19" style="fill:none;stroke:#000;stroke-width:50"/><path id="path10136" d="m 12925,4650 c 16,6 32,13 47,19" style="fill:none;stroke:#000;stroke-width:50"/><path id="path10138" d="m 13019,4686 c 10,4 20,8 29,11" style="fill:none;stroke:#000;stroke-width:50"/><path id="path10140" d="m 13400,4844 -328,-285 -106,254 434,31 z" style="fill:#000;stroke:none"/></g></g><g id="g10142" class="com.sun.star.drawing.CustomShape"><g id="id28"><path id="path10145" d="m 8100,4950 183,65 0,-130 -183,65 z m 0,-450 0,0 z m 901,901 0,0 z" style="fill:silver;stroke:none"/><path id="path10147" d="m 8100,4950 183,65 0,-130 -183,65 z" style="fill:none;stroke:#000;stroke-width:50"/><path id="path10149" d="m 8231,5269 176,-84 -92,-92 -84,176 z m -131,-769 0,0 z m 901,901 0,0 z" style="fill:silver;stroke:none"/><path id="path10151" d="m 8231,5269 176,-84 -92,-92 -84,176 z" style="fill:none;stroke:#000;stroke-width:50"/><path id="path10153" d="m 8550,5401 65,-184 -130,0 65,184 z m -450,-901 0,0 z m 901,901 0,0 z" style="fill:silver;stroke:none"/><path id="path10155" d="m 8550,5401 65,-184 -130,0 65,184 z" style="fill:none;stroke:#000;stroke-width:50"/><path id="path10157" d="m 8869,5269 -84,-176 -92,92 176,84 z m -769,-769 0,0 z m 901,901 0,0 z" style="fill:silver;stroke:none"/><path id="path10159" d="m 8869,5269 -84,-176 -92,92 176,84 z" style="fill:none;stroke:#000;stroke-width:50"/><path id="path10161" d="m 9001,4950 -184,-65 0,130 184,-65 z m -901,-450 0,0 z m 901,901 0,0 z" style="fill:silver;stroke:none"/><path id="path10163" d="m 9001,4950 -184,-65 0,130 184,-65 z" style="fill:none;stroke:#000;stroke-width:50"/><path id="path10165" d="m 8869,4631 -176,84 92,92 84,-176 z m -769,-131 0,0 z m 901,901 0,0 z" style="fill:silver;stroke:none"/><path id="path10167" d="m 8869,4631 -176,84 92,92 84,-176 z" style="fill:none;stroke:#000;stroke-width:50"/><path id="path10169" d="m 8550,4500 -65,183 130,0 -65,-183 z m -450,0 0,0 z m 901,901 0,0 z" style="fill:silver;stroke:none"/><path id="path10171" d="m 8550,4500 -65,183 130,0 -65,-183 z" style="fill:none;stroke:#000;stroke-width:50"/><path id="path10173" d="m 8231,4631 84,176 92,-92 -176,-84 z m -131,-131 0,0 z m 901,901 0,0 z" style="fill:silver;stroke:none"/><path id="path10175" d="m 8231,4631 84,176 92,-92 -176,-84 z" style="fill:none;stroke:#000;stroke-width:50"/><path id="path10177" d="m 8548,4724 c 127,0 225,97 225,224 0,127 -98,225 -225,225 -127,0 -224,-98 -224,-225 0,-127 97,-224 224,-224 z m -448,-224 0,0 z m 901,901 0,0 z" style="fill:silver;stroke:none"/><path id="path10179" d="m 8548,4724 c 127,0 225,97 225,224 0,127 -98,225 -225,225 -127,0 -224,-98 -224,-225 0,-127 97,-224 224,-224 z" style="fill:none;stroke:#000;stroke-width:50"/></g></g><g id="g10181" class="com.sun.star.drawing.CustomShape"><g id="id29"><path id="path10184" d="m 14000,4950 183,65 0,-130 -183,65 z m 0,-450 0,0 z m 901,901 0,0 z" style="fill:silver;stroke:none"/><path id="path10186" d="m 14000,4950 183,65 0,-130 -183,65 z" style="fill:none;stroke:#000;stroke-width:50"/><path id="path10188" d="m 14131,5269 176,-84 -92,-92 -84,176 z m -131,-769 0,0 z m 901,901 0,0 z" style="fill:silver;stroke:none"/><path id="path10190" d="m 14131,5269 176,-84 -92,-92 -84,176 z" style="fill:none;stroke:#000;stroke-width:50"/><path id="path10192" d="m 14450,5401 65,-184 -130,0 65,184 z m -450,-901 0,0 z m 901,901 0,0 z" style="fill:silver;stroke:none"/><path id="path10194" d="m 14450,5401 65,-184 -130,0 65,184 z" style="fill:none;stroke:#000;stroke-width:50"/><path id="path10196" d="m 14769,5269 -84,-176 -92,92 176,84 z m -769,-769 0,0 z m 901,901 0,0 z" style="fill:silver;stroke:none"/><path id="path10198" d="m 14769,5269 -84,-176 -92,92 176,84 z" style="fill:none;stroke:#000;stroke-width:50"/><path id="path10200" d="m 14901,4950 -184,-65 0,130 184,-65 z m -901,-450 0,0 z m 901,901 0,0 z" style="fill:silver;stroke:none"/><path id="path10202" d="m 14901,4950 -184,-65 0,130 184,-65 z" style="fill:none;stroke:#000;stroke-width:50"/><path id="path10204" d="m 14769,4631 -176,84 92,92 84,-176 z m -769,-131 0,0 z m 901,901 0,0 z" style="fill:silver;stroke:none"/><path id="path10206" d="m 14769,4631 -176,84 92,92 84,-176 z" style="fill:none;stroke:#000;stroke-width:50"/><path id="path10208" d="m 14450,4500 -65,183 130,0 -65,-183 z m -450,0 0,0 z m 901,901 0,0 z" style="fill:silver;stroke:none"/><path id="path10210" d="m 14450,4500 -65,183 130,0 -65,-183 z" style="fill:none;stroke:#000;stroke-width:50"/><path id="path10212" d="m 14131,4631 84,176 92,-92 -176,-84 z m -131,-131 0,0 z m 901,901 0,0 z" style="fill:silver;stroke:none"/><path id="path10214" d="m 14131,4631 84,176 92,-92 -176,-84 z" style="fill:none;stroke:#000;stroke-width:50"/><path id="path10216" d="m 14448,4724 c 127,0 225,97 225,224 0,127 -98,225 -225,225 -127,0 -224,-98 -224,-225 0,-127 97,-224 224,-224 z m -448,-224 0,0 z m 901,901 0,0 z" style="fill:silver;stroke:none"/><path id="path10218" d="m 14448,4724 c 127,0 225,97 225,224 0,127 -98,225 -225,225 -127,0 -224,-98 -224,-225 0,-127 97,-224 224,-224 z" style="fill:none;stroke:#000;stroke-width:50"/></g></g></g></g></g></g></svg>