<svg xmlns="http://www.w3.org/2000/svg" xmlns:xlink="http://www.w3.org/1999/xlink" id="Layer_1" width="792" height="300" x="0" y="0" enable-background="new 0 0 792 300" version="1.1" viewBox="0 0 792 300" xml:space="preserve"><g id="work"><path fill="#ACCC9B" stroke="#010101" stroke-miterlimit="10" stroke-width="2" d="M329.06,73.301 c0,6.85-4.78,12.402-10.676,12.402H177.814c-5.896,0-10.675-5.553-10.675-12.402V24.723c0-6.849,4.78-12.402,10.675-12.402h140.569 c5.896,0,10.676,5.553,10.676,12.402V73.301z"/><path fill="#FCF6B7" stroke="#010101" stroke-miterlimit="10" stroke-width="2" d="M511.106,73.301 c0,6.85-4.781,12.402-10.677,12.402H359.86c-5.893,0-10.673-5.553-10.673-12.402V24.723c0-6.849,4.78-12.402,10.673-12.402h140.57 c5.896,0,10.677,5.553,10.677,12.402V73.301L511.106,73.301z"/><path fill="#9DCDC9" stroke="#010101" stroke-miterlimit="10" stroke-width="2" d="M692.924,73.301 c0,6.85-4.78,12.402-10.677,12.402H541.679c-5.896,0-10.678-5.553-10.678-12.402V24.723c0-6.849,4.782-12.402,10.678-12.402 h140.568c5.896,0,10.677,5.553,10.677,12.402V73.301z"/><rect width="144.539" height="198.442" x="175.83" y="85.704" fill="#E7E7E7" stroke="#010101" stroke-miterlimit="10" stroke-width="2"/><rect width="144.542" height="198.442" x="357.762" y="85.704" fill="#E7E7E7" stroke="#010101" stroke-miterlimit="10" stroke-width="2"/><rect width="144.535" height="198.442" x="539.696" y="85.704" fill="#E7E7E7" stroke="#010101" stroke-miterlimit="10" stroke-width="2"/><text fill="#010101" font-family="'MyriadPro-Regular'" font-size="24.805" transform="matrix(0.8851 0 0 1 209.2515 41.2612)">Working</text><text fill="#010101" font-family="'MyriadPro-Regular'" font-size="24.805" transform="matrix(0.8851 0 0 1 205.7925 71.0278)">Directory</text><text fill="#010101" font-family="'MyriadPro-Regular'" font-size="24.805" transform="matrix(0.8851 0 0 1 406.6904 41.2612)">Stage</text><text fill="#010101" font-family="'MyriadPro-Regular'" font-size="24.805" transform="matrix(0.8851 0 0 1 400.9355 71.0278)">(Index)</text><g><line x1="248.1" x2="248.1" y1="85.704" y2="284.146" fill="none"/><g><line x1="248.1" x2="248.1" y1="85.704" y2="91.905" fill="none" stroke="#6E6F72" stroke-miterlimit="10" stroke-width="4"/><line x1="248.1" x2="248.1" y1="104.307" y2="271.742" fill="none" stroke="#6E6F72" stroke-dasharray="12 12" stroke-miterlimit="10" stroke-width="4"/><line x1="248.1" x2="248.1" y1="277.941" y2="284.146" fill="none" stroke="#6E6F72" stroke-miterlimit="10" stroke-width="4"/></g></g><g><g><line x1="611.964" x2="611.964" y1="85.704" y2="91.905" fill="none" stroke="#6E6F72" stroke-miterlimit="10" stroke-width="4"/><line x1="611.964" x2="611.964" y1="104.307" y2="271.742" fill="none" stroke="#6E6F72" stroke-dasharray="12 12" stroke-miterlimit="10" stroke-width="4"/><line x1="611.964" x2="611.964" y1="277.941" y2="284.146" fill="none" stroke="#6E6F72" stroke-miterlimit="10" stroke-width="4"/></g></g><g><g><line x1="430.031" x2="430.031" y1="85.704" y2="91.905" fill="none" stroke="#6E6F72" stroke-miterlimit="10" stroke-width="4"/><line x1="430.031" x2="430.031" y1="104.307" y2="271.742" fill="none" stroke="#6E6F72" stroke-dasharray="12 12" stroke-miterlimit="10" stroke-width="4"/><line x1="430.031" x2="430.031" y1="277.941" y2="284.146" fill="none" stroke="#6E6F72" stroke-miterlimit="10" stroke-width="4"/></g></g><g><rect width="144.54" height="271.824" x="2.788" y="12.321" fill="#E7E7E7"/><g><polyline fill="none" stroke="#010101" stroke-miterlimit="10" stroke-width="2" points="2.788 18.321 2.788 12.321 8.788 12.321"/><line x1="20.836" x2="135.303" y1="12.321" y2="12.321" fill="none" stroke="#010101" stroke-dasharray="12.049 12.049" stroke-miterlimit="10" stroke-width="2"/><polyline fill="none" stroke="#010101" stroke-miterlimit="10" stroke-width="2" points="141.327 12.321 147.327 12.321 147.327 18.321"/><line x1="147.327" x2="147.327" y1="30.694" y2="271.959" fill="none" stroke="#010101" stroke-dasharray="12.373 12.373" stroke-miterlimit="10" stroke-width="2"/><polyline fill="none" stroke="#010101" stroke-miterlimit="10" stroke-width="2" points="147.327 278.146 147.327 284.146 141.327 284.146"/><line x1="129.278" x2="14.812" y1="284.146" y2="284.146" fill="none" stroke="#010101" stroke-dasharray="12.049 12.049" stroke-miterlimit="10" stroke-width="2"/><polyline fill="none" stroke="#010101" stroke-miterlimit="10" stroke-width="2" points="8.788 284.146 2.788 284.146 2.788 278.146"/><line x1="2.788" x2="2.788" y1="265.772" y2="24.508" fill="none" stroke="#010101" stroke-dasharray="12.373 12.373" stroke-miterlimit="10" stroke-width="2"/></g></g><text enable-background="new" transform="matrix(0.9436 0 0 1 589.667 37.6606)"><tspan x="0" y="0" fill="#020202" font-family="'MyriadPro-Regular'" font-size="24.75">Local</tspan><tspan x="-28.191" y="29.701" fill="#020202" font-family="'MyriadPro-Regular'" font-size="24.75">Repository</tspan></text></g><g><g><line x1="438.802" x2="598.571" y1="160.495" y2="160.495" fill="none" stroke="#CC9998" stroke-miterlimit="10" stroke-width="2"/><g><polygon fill="#CC9998" points="596.707 143.996 596.707 176.904 610.597 160.452"/></g></g></g><rect width="165.025" height="30.806" x="430.895" y="145.039" fill="#CC9998" stroke="#CC9998" stroke-miterlimit="10" stroke-width="2"/><text fill="#010101" font-family="'LucidaConsole'" font-size="19.502" transform="matrix(0.8443 0 0 1 470.1758 165.9121)">git commit</text><g><polygon fill="#CC9998" points="414.365 192.051 414.365 224.96 428.253 208.506"/></g><rect width="165.026" height="30.807" x="248.551" y="193.094" fill="#CC9998" stroke="#CC9998" stroke-miterlimit="10" stroke-width="2"/><text fill="#010101" font-family="'LucidaConsole'" font-size="19.502" transform="matrix(0.8443 0 0 1 263.1313 213.9678)">git add &lt;file&gt;</text><g><polygon fill="#CC9998" points="235.324 112.13 235.324 145.039 249.211 128.587"/></g><rect width="165.024" height="30.807" x="69.51" y="113.171" fill="#CC9998" stroke="#CC9998" stroke-miterlimit="10" stroke-width="2"/><text fill="#010101" font-family="'LucidaConsole'" font-size="19.502" transform="matrix(0.8443 0 0 1 84.0894 134.0454)">git add &lt;file&gt;</text><text transform="matrix(0.9525 0 0 1 22.7427 37.6606)"><tspan x="0" y="0" font-family="'MyriadPro-Regular'" font-size="20.111">“Untracked” </tspan><tspan x="34.087" y="24.133" font-family="'MyriadPro-Regular'" font-size="20.111">Files</tspan></text></svg>