<svg xmlns="http://www.w3.org/2000/svg" xmlns:ooo="http://xml.openoffice.org/svg/export" xmlns:svg="http://www.w3.org/2000/svg" id="svg2" width="560.161" height="329.97" clip-path="url(#presentation_clip_path)" style="fill-rule:evenodd;stroke-width:28.22200012;stroke-linejoin:round" preserveAspectRatio="xMidYMid" version="1.2" viewBox="0 0 15809.001 9312.475" xml:space="preserve"><metadata id="metadata869"/><defs id="defs4" class="ClipPathGroup"><clipPath id="presentation_clip_path" clipPathUnits="userSpaceOnUse"><rect id="rect7" width="21590" height="27940" x="0" y="0"/></clipPath></defs><defs id="defs13" class="EmbeddedBulletChars"><g id="bullet-char-template(57356)" transform="scale(4.8828125e-4,-4.8828125e-4)"><path id="path16" d="M 580,1141 1163,571 580,0 -4,571 580,1141 z"/></g><g id="bullet-char-template(57354)" transform="scale(4.8828125e-4,-4.8828125e-4)"><path id="path19" d="m 8,1128 1129,0 L 1137,0 8,0 8,1128 z"/></g><g id="bullet-char-template(10146)" transform="scale(4.8828125e-4,-4.8828125e-4)"><path id="path22" d="M 174,0 602,739 174,1481 1456,739 174,0 z m 1184,739 -1049,607 350,-607 699,0 z"/></g><g id="bullet-char-template(10132)" transform="scale(4.8828125e-4,-4.8828125e-4)"><path id="path25" d="M 2015,739 1276,0 717,0 l 543,543 -1086,0 0,393 1086,0 -543,545 557,0 741,-742 z"/></g><g id="bullet-char-template(10007)" transform="scale(4.8828125e-4,-4.8828125e-4)"><path id="path28" d="m 0,-2 c -7,16 -16,29 -25,39 l 381,530 c -94,256 -141,385 -141,387 0,25 13,38 40,38 9,0 21,-2 34,-5 21,4 42,12 65,25 l 27,-13 111,-251 280,301 64,-25 24,25 c 21,-10 41,-24 62,-43 C 886,937 835,863 770,784 769,783 710,716 594,584 L 774,223 c 0,-27 -21,-55 -63,-84 l 16,-20 C 717,90 699,76 672,76 641,76 570,178 457,381 L 164,-76 c -22,-34 -53,-51 -92,-51 -42,0 -63,17 -64,51 -7,9 -10,24 -10,44 0,9 1,19 2,30 z"/></g><g id="bullet-char-template(10004)" transform="scale(4.8828125e-4,-4.8828125e-4)"><path id="path31" d="M 285,-33 C 182,-33 111,30 74,156 52,228 41,333 41,471 c 0,78 14,145 41,201 34,71 87,106 158,106 53,0 88,-31 106,-94 l 23,-176 c 8,-64 28,-97 59,-98 l 735,706 c 11,11 33,17 66,17 42,0 63,-15 63,-46 l 0,-122 c 0,-36 -10,-64 -30,-84 L 442,47 C 390,-6 338,-33 285,-33 z"/></g><g id="bullet-char-template(9679)" transform="scale(4.8828125e-4,-4.8828125e-4)"><path id="path34" d="M 813,0 C 632,0 489,54 383,161 276,268 223,411 223,592 c 0,181 53,324 160,431 106,107 249,161 430,161 179,0 323,-54 432,-161 108,-107 162,-251 162,-431 0,-180 -54,-324 -162,-431 C 1136,54 992,0 813,0 z"/></g><g id="bullet-char-template(8226)" transform="scale(4.8828125e-4,-4.8828125e-4)"><path id="path37" d="m 346,457 c -73,0 -137,26 -191,78 -54,51 -81,114 -81,188 0,73 27,136 81,188 54,52 118,78 191,78 73,0 134,-26 185,-79 51,-51 77,-114 77,-187 0,-75 -25,-137 -76,-188 -50,-52 -112,-78 -186,-78 z"/></g><g id="bullet-char-template(8211)" transform="scale(4.8828125e-4,-4.8828125e-4)"><path id="path40" d="m -4,459 1139,0 0,147 -1139,0 0,-147 z"/></g></defs><g id="g49" class="SlideGroup" transform="translate(-1075,-1212.5254)"><g id="g51"><g id="id1" class="Slide" clip-path="url(#presentation_clip_path)"><g id="g54" class="Page"><g id="g56" class="com.sun.star.drawing.CustomShape"><g id="id3"><path id="path59" d="m 2750,4147 1400,0 0,1575 -175,225 -1225,0 0,-1800 z" style="fill:none;stroke:#000;stroke-width:50"/><path id="path61" d="m 3975,5947 46,-225 c 44,33 42,14 129,0 l -175,225 z" style="fill:none;stroke:#000;stroke-width:50"/></g></g><g id="g63" class="com.sun.star.drawing.TextShape"><g id="id4"><text id="text66" class="TextShape"><tspan id="tspan68" class="TextParagraph" font-size="388" font-weight="400" style="font-size:388px;font-weight:400;font-family:'Arial, sans-serif'"><tspan id="tspan70" x="2759" y="6793" class="TextPosition"><tspan id="tspan72" style="fill:#000;stroke:none">mars.txt</tspan></tspan></tspan></text></g></g><g id="g74" class="com.sun.star.drawing.CustomShape"><g id="id5"><path id="path77" d="m 1800,2300 c -100,0 -200,100 -200,200 l 0,800 c 0,100 100,201 200,201 l 3300,0 c 100,0 201,-101 201,-201 l 0,-800 c 0,-100 -101,-200 -201,-200 l -3300,0 z" style="fill:none;stroke:#000;stroke-width:50"/><text id="text79" class="TextShape"><tspan id="tspan81" class="TextParagraph" font-size="388" font-weight="400" style="font-size:388px;font-weight:400;font-family:'Arial, sans-serif'"><tspan id="tspan83" x="1822" y="3035" class="TextPosition"><tspan id="tspan85" style="fill:#000;stroke:none">/home/vlad/planets</tspan></tspan></tspan></text></g></g><g id="g87" class="com.sun.star.drawing.CustomShape"><g id="id6"><path id="path90" d="m 12650,2300 c -100,0 -200,100 -200,200 l 0,800 c 0,100 100,201 200,201 l 3300,0 c 100,0 201,-101 201,-201 l 0,-800 c 0,-100 -101,-200 -201,-200 l -3300,0 z" style="fill:none;stroke:#000;stroke-width:50"/><text id="text92" class="TextShape"><tspan id="tspan94" class="TextParagraph" font-size="388" font-weight="400" style="font-size:388px;font-weight:400;font-family:'Arial, sans-serif'"><tspan id="tspan96" x="12564" y="3035" class="TextPosition"><tspan id="tspan98" style="fill:#000;stroke:none">/somewhere/planets</tspan></tspan></tspan></text></g></g><g id="g100" class="com.sun.star.drawing.LineShape"><g id="id7"><path id="path103" d="m 11500,1300 0,51" style="fill:none;stroke:#000;stroke-width:50"/><path id="path105" d="m 11500,1402 0,51" style="fill:none;stroke:#000;stroke-width:50"/><path id="path107" d="m 11500,1504 0,51" style="fill:none;stroke:#000;stroke-width:50"/><path id="path109" d="m 11500,1606 0,51" style="fill:none;stroke:#000;stroke-width:50"/><path id="path111" d="m 11500,1708 0,51" style="fill:none;stroke:#000;stroke-width:50"/><path id="path113" d="m 11500,1810 0,51" style="fill:none;stroke:#000;stroke-width:50"/><path id="path115" d="m 11500,1912 0,51" style="fill:none;stroke:#000;stroke-width:50"/><path id="path117" d="m 11500,2014 0,51" style="fill:none;stroke:#000;stroke-width:50"/><path id="path119" d="m 11500,2116 0,51" style="fill:none;stroke:#000;stroke-width:50"/><path id="path121" d="m 11500,2218 0,51" style="fill:none;stroke:#000;stroke-width:50"/><path id="path123" d="m 11500,2320 0,51" style="fill:none;stroke:#000;stroke-width:50"/><path id="path125" d="m 11500,2422 0,51" style="fill:none;stroke:#000;stroke-width:50"/><path id="path127" d="m 11500,2524 0,51" style="fill:none;stroke:#000;stroke-width:50"/><path id="path129" d="m 11500,2626 0,51" style="fill:none;stroke:#000;stroke-width:50"/><path id="path131" d="m 11500,2728 0,51" style="fill:none;stroke:#000;stroke-width:50"/><path id="path133" d="m 11500,2830 0,51" style="fill:none;stroke:#000;stroke-width:50"/><path id="path135" d="m 11500,2932 0,51" style="fill:none;stroke:#000;stroke-width:50"/><path id="path137" d="m 11500,3034 0,51" style="fill:none;stroke:#000;stroke-width:50"/><path id="path139" d="m 11500,3136 0,51" style="fill:none;stroke:#000;stroke-width:50"/><path id="path141" d="m 11500,3238 0,51" style="fill:none;stroke:#000;stroke-width:50"/><path id="path143" d="m 11500,3340 0,51" style="fill:none;stroke:#000;stroke-width:50"/><path id="path145" d="m 11500,3442 0,51" style="fill:none;stroke:#000;stroke-width:50"/><path id="path147" d="m 11500,3544 0,51" style="fill:none;stroke:#000;stroke-width:50"/><path id="path149" d="m 11500,3646 0,51" style="fill:none;stroke:#000;stroke-width:50"/><path id="path151" d="m 11500,3748 0,51" style="fill:none;stroke:#000;stroke-width:50"/><path id="path153" d="m 11500,3850 0,51" style="fill:none;stroke:#000;stroke-width:50"/><path id="path155" d="m 11500,3952 0,51" style="fill:none;stroke:#000;stroke-width:50"/><path id="path157" d="m 11500,4054 0,51" style="fill:none;stroke:#000;stroke-width:50"/><path id="path159" d="m 11500,4156 0,51" style="fill:none;stroke:#000;stroke-width:50"/><path id="path161" d="m 11500,4258 0,51" style="fill:none;stroke:#000;stroke-width:50"/><path id="path163" d="m 11500,4360 0,51" style="fill:none;stroke:#000;stroke-width:50"/><path id="path165" d="m 11500,4462 0,51" style="fill:none;stroke:#000;stroke-width:50"/><path id="path167" d="m 11500,4564 0,51" style="fill:none;stroke:#000;stroke-width:50"/><path id="path169" d="m 11500,4666 0,51" style="fill:none;stroke:#000;stroke-width:50"/><path id="path171" d="m 11500,4768 0,51" style="fill:none;stroke:#000;stroke-width:50"/><path id="path173" d="m 11500,4870 0,51" style="fill:none;stroke:#000;stroke-width:50"/><path id="path175" d="m 11500,4972 0,51" style="fill:none;stroke:#000;stroke-width:50"/><path id="path177" d="m 11500,5074 0,51" style="fill:none;stroke:#000;stroke-width:50"/><path id="path179" d="m 11500,5176 0,51" style="fill:none;stroke:#000;stroke-width:50"/><path id="path181" d="m 11500,5278 0,51" style="fill:none;stroke:#000;stroke-width:50"/><path id="path183" d="m 11500,5380 0,51" style="fill:none;stroke:#000;stroke-width:50"/><path id="path185" d="m 11500,5482 0,51" style="fill:none;stroke:#000;stroke-width:50"/><path id="path187" d="m 11500,5584 0,51" style="fill:none;stroke:#000;stroke-width:50"/><path id="path189" d="m 11500,5686 0,51" style="fill:none;stroke:#000;stroke-width:50"/><path id="path191" d="m 11500,5788 0,51" style="fill:none;stroke:#000;stroke-width:50"/><path id="path193" d="m 11500,5890 0,51" style="fill:none;stroke:#000;stroke-width:50"/><path id="path195" d="m 11500,5992 0,51" style="fill:none;stroke:#000;stroke-width:50"/><path id="path197" d="m 11500,6094 0,51" style="fill:none;stroke:#000;stroke-width:50"/><path id="path199" d="m 11500,6196 0,51" style="fill:none;stroke:#000;stroke-width:50"/><path id="path201" d="m 11500,6298 0,51" style="fill:none;stroke:#000;stroke-width:50"/><path id="path203" d="m 11500,6400 0,51" style="fill:none;stroke:#000;stroke-width:50"/><path id="path205" d="m 11500,6502 0,51" style="fill:none;stroke:#000;stroke-width:50"/><path id="path207" d="m 11500,6604 0,51" style="fill:none;stroke:#000;stroke-width:50"/><path id="path209" d="m 11500,6706 0,51" style="fill:none;stroke:#000;stroke-width:50"/><path id="path211" d="m 11500,6808 0,51" style="fill:none;stroke:#000;stroke-width:50"/><path id="path213" d="m 11500,6910 0,51" style="fill:none;stroke:#000;stroke-width:50"/><path id="path215" d="m 11500,7012 0,51" style="fill:none;stroke:#000;stroke-width:50"/><path id="path217" d="m 11500,7114 0,51" style="fill:none;stroke:#000;stroke-width:50"/><path id="path219" d="m 11500,7216 0,51" style="fill:none;stroke:#000;stroke-width:50"/><path id="path221" d="m 11500,7318 0,51" style="fill:none;stroke:#000;stroke-width:50"/><path id="path223" d="m 11500,7420 0,51" style="fill:none;stroke:#000;stroke-width:50"/><path id="path225" d="m 11500,7522 0,51" style="fill:none;stroke:#000;stroke-width:50"/><path id="path227" d="m 11500,7624 0,51" style="fill:none;stroke:#000;stroke-width:50"/><path id="path229" d="m 11500,7726 0,51" style="fill:none;stroke:#000;stroke-width:50"/><path id="path231" d="m 11500,7828 0,51" style="fill:none;stroke:#000;stroke-width:50"/><path id="path233" d="m 11500,7930 0,51" style="fill:none;stroke:#000;stroke-width:50"/><path id="path235" d="m 11500,8032 0,51" style="fill:none;stroke:#000;stroke-width:50"/><path id="path237" d="m 11500,8134 0,51" style="fill:none;stroke:#000;stroke-width:50"/><path id="path239" d="m 11500,8236 0,51" style="fill:none;stroke:#000;stroke-width:50"/><path id="path241" d="m 11500,8338 0,51" style="fill:none;stroke:#000;stroke-width:50"/><path id="path243" d="m 11500,8440 0,51" style="fill:none;stroke:#000;stroke-width:50"/><path id="path245" d="m 11500,8542 0,51" style="fill:none;stroke:#000;stroke-width:50"/><path id="path247" d="m 11500,8644 0,51" style="fill:none;stroke:#000;stroke-width:50"/><path id="path249" d="m 11500,8746 0,51" style="fill:none;stroke:#000;stroke-width:50"/><path id="path251" d="m 11500,8848 0,51" style="fill:none;stroke:#000;stroke-width:50"/><path id="path253" d="m 11500,8950 0,51" style="fill:none;stroke:#000;stroke-width:50"/><path id="path255" d="m 11500,9052 0,51" style="fill:none;stroke:#000;stroke-width:50"/><path id="path257" d="m 11500,9154 0,51" style="fill:none;stroke:#000;stroke-width:50"/><path id="path259" d="m 11500,9256 0,51" style="fill:none;stroke:#000;stroke-width:50"/><path id="path261" d="m 11500,9358 0,51" style="fill:none;stroke:#000;stroke-width:50"/><path id="path263" d="m 11500,9460 0,51" style="fill:none;stroke:#000;stroke-width:50"/><path id="path265" d="m 11500,9562 0,51" style="fill:none;stroke:#000;stroke-width:50"/><path id="path267" d="m 11500,9664 0,51" style="fill:none;stroke:#000;stroke-width:50"/><path id="path269" d="m 11500,9766 0,51" style="fill:none;stroke:#000;stroke-width:50"/><path id="path271" d="m 11500,9868 0,51" style="fill:none;stroke:#000;stroke-width:50"/><path id="path273" d="m 11500,9970 0,51" style="fill:none;stroke:#000;stroke-width:50"/><path id="path275" d="m 11500,10072 0,51" style="fill:none;stroke:#000;stroke-width:50"/><path id="path277" d="m 11500,10174 0,51" style="fill:none;stroke:#000;stroke-width:50"/><path id="path279" d="m 11500,10276 0,51" style="fill:none;stroke:#000;stroke-width:50"/><path id="path281" d="m 11500,10378 0,51" style="fill:none;stroke:#000;stroke-width:50"/><path id="path283" d="m 11500,10480 0,20" style="fill:none;stroke:#000;stroke-width:50"/></g></g><g id="g285" class="com.sun.star.drawing.LineShape"><g id="id8"><path id="path288" d="m 1100,1800 51,0" style="fill:none;stroke:#000;stroke-width:50"/><path id="path290" d="m 1202,1800 51,0" style="fill:none;stroke:#000;stroke-width:50"/><path id="path292" d="m 1304,1800 51,0" style="fill:none;stroke:#000;stroke-width:50"/><path id="path294" d="m 1406,1800 51,0" style="fill:none;stroke:#000;stroke-width:50"/><path id="path296" d="m 1508,1800 51,0" style="fill:none;stroke:#000;stroke-width:50"/><path id="path298" d="m 1610,1800 51,0" style="fill:none;stroke:#000;stroke-width:50"/><path id="path300" d="m 1712,1800 51,0" style="fill:none;stroke:#000;stroke-width:50"/><path id="path302" d="m 1814,1800 51,0" style="fill:none;stroke:#000;stroke-width:50"/><path id="path304" d="m 1916,1800 51,0" style="fill:none;stroke:#000;stroke-width:50"/><path id="path306" d="m 2018,1800 51,0" style="fill:none;stroke:#000;stroke-width:50"/><path id="path308" d="m 2120,1800 51,0" style="fill:none;stroke:#000;stroke-width:50"/><path id="path310" d="m 2222,1800 51,0" style="fill:none;stroke:#000;stroke-width:50"/><path id="path312" d="m 2324,1800 51,0" style="fill:none;stroke:#000;stroke-width:50"/><path id="path314" d="m 2426,1800 51,0" style="fill:none;stroke:#000;stroke-width:50"/><path id="path316" d="m 2528,1800 51,0" style="fill:none;stroke:#000;stroke-width:50"/><path id="path318" d="m 2630,1800 51,0" style="fill:none;stroke:#000;stroke-width:50"/><path id="path320" d="m 2732,1800 51,0" style="fill:none;stroke:#000;stroke-width:50"/><path id="path322" d="m 2834,1800 51,0" style="fill:none;stroke:#000;stroke-width:50"/><path id="path324" d="m 2936,1800 51,0" style="fill:none;stroke:#000;stroke-width:50"/><path id="path326" d="m 3038,1800 51,0" style="fill:none;stroke:#000;stroke-width:50"/><path id="path328" d="m 3140,1800 51,0" style="fill:none;stroke:#000;stroke-width:50"/><path id="path330" d="m 3242,1800 51,0" style="fill:none;stroke:#000;stroke-width:50"/><path id="path332" d="m 3344,1800 51,0" style="fill:none;stroke:#000;stroke-width:50"/><path id="path334" d="m 3446,1800 51,0" style="fill:none;stroke:#000;stroke-width:50"/><path id="path336" d="m 3548,1800 51,0" style="fill:none;stroke:#000;stroke-width:50"/><path id="path338" d="m 3650,1800 51,0" style="fill:none;stroke:#000;stroke-width:50"/><path id="path340" d="m 3752,1800 51,0" style="fill:none;stroke:#000;stroke-width:50"/><path id="path342" d="m 3854,1800 51,0" style="fill:none;stroke:#000;stroke-width:50"/><path id="path344" d="m 3956,1800 51,0" style="fill:none;stroke:#000;stroke-width:50"/><path id="path346" d="m 4058,1800 51,0" style="fill:none;stroke:#000;stroke-width:50"/><path id="path348" d="m 4160,1800 51,0" style="fill:none;stroke:#000;stroke-width:50"/><path id="path350" d="m 4262,1800 51,0" style="fill:none;stroke:#000;stroke-width:50"/><path id="path352" d="m 4364,1800 51,0" style="fill:none;stroke:#000;stroke-width:50"/><path id="path354" d="m 4466,1800 51,0" style="fill:none;stroke:#000;stroke-width:50"/><path id="path356" d="m 4568,1800 51,0" style="fill:none;stroke:#000;stroke-width:50"/><path id="path358" d="m 4670,1800 51,0" style="fill:none;stroke:#000;stroke-width:50"/><path id="path360" d="m 4772,1800 51,0" style="fill:none;stroke:#000;stroke-width:50"/><path id="path362" d="m 4874,1800 51,0" style="fill:none;stroke:#000;stroke-width:50"/><path id="path364" d="m 4976,1800 51,0" style="fill:none;stroke:#000;stroke-width:50"/><path id="path366" d="m 5078,1800 51,0" style="fill:none;stroke:#000;stroke-width:50"/><path id="path368" d="m 5180,1800 51,0" style="fill:none;stroke:#000;stroke-width:50"/><path id="path370" d="m 5282,1800 51,0" style="fill:none;stroke:#000;stroke-width:50"/><path id="path372" d="m 5384,1800 51,0" style="fill:none;stroke:#000;stroke-width:50"/><path id="path374" d="m 5486,1800 51,0" style="fill:none;stroke:#000;stroke-width:50"/><path id="path376" d="m 5588,1800 51,0" style="fill:none;stroke:#000;stroke-width:50"/><path id="path378" d="m 5690,1800 51,0" style="fill:none;stroke:#000;stroke-width:50"/><path id="path380" d="m 5792,1800 51,0" style="fill:none;stroke:#000;stroke-width:50"/><path id="path382" d="m 5894,1800 51,0" style="fill:none;stroke:#000;stroke-width:50"/><path id="path384" d="m 5996,1800 51,0" style="fill:none;stroke:#000;stroke-width:50"/><path id="path386" d="m 6098,1800 51,0" style="fill:none;stroke:#000;stroke-width:50"/><path id="path388" d="m 6200,1800 51,0" style="fill:none;stroke:#000;stroke-width:50"/><path id="path390" d="m 6302,1800 51,0" style="fill:none;stroke:#000;stroke-width:50"/><path id="path392" d="m 6404,1800 51,0" style="fill:none;stroke:#000;stroke-width:50"/><path id="path394" d="m 6506,1800 51,0" style="fill:none;stroke:#000;stroke-width:50"/><path id="path396" d="m 6608,1800 51,0" style="fill:none;stroke:#000;stroke-width:50"/><path id="path398" d="m 6710,1800 51,0" style="fill:none;stroke:#000;stroke-width:50"/><path id="path400" d="m 6812,1800 51,0" style="fill:none;stroke:#000;stroke-width:50"/><path id="path402" d="m 6914,1800 51,0" style="fill:none;stroke:#000;stroke-width:50"/><path id="path404" d="m 7016,1800 51,0" style="fill:none;stroke:#000;stroke-width:50"/><path id="path406" d="m 7118,1800 51,0" style="fill:none;stroke:#000;stroke-width:50"/><path id="path408" d="m 7220,1800 51,0" style="fill:none;stroke:#000;stroke-width:50"/><path id="path410" d="m 7322,1800 51,0" style="fill:none;stroke:#000;stroke-width:50"/><path id="path412" d="m 7424,1800 51,0" style="fill:none;stroke:#000;stroke-width:50"/><path id="path414" d="m 7526,1800 51,0" style="fill:none;stroke:#000;stroke-width:50"/><path id="path416" d="m 7628,1800 51,0" style="fill:none;stroke:#000;stroke-width:50"/><path id="path418" d="m 7730,1800 51,0" style="fill:none;stroke:#000;stroke-width:50"/><path id="path420" d="m 7832,1800 51,0" style="fill:none;stroke:#000;stroke-width:50"/><path id="path422" d="m 7934,1800 51,0" style="fill:none;stroke:#000;stroke-width:50"/><path id="path424" d="m 8036,1800 51,0" style="fill:none;stroke:#000;stroke-width:50"/><path id="path426" d="m 8138,1800 51,0" style="fill:none;stroke:#000;stroke-width:50"/><path id="path428" d="m 8240,1800 51,0" style="fill:none;stroke:#000;stroke-width:50"/><path id="path430" d="m 8342,1800 51,0" style="fill:none;stroke:#000;stroke-width:50"/><path id="path432" d="m 8444,1800 51,0" style="fill:none;stroke:#000;stroke-width:50"/><path id="path434" d="m 8546,1800 51,0" style="fill:none;stroke:#000;stroke-width:50"/><path id="path436" d="m 8648,1800 51,0" style="fill:none;stroke:#000;stroke-width:50"/><path id="path438" d="m 8750,1800 51,0" style="fill:none;stroke:#000;stroke-width:50"/><path id="path440" d="m 8852,1800 51,0" style="fill:none;stroke:#000;stroke-width:50"/><path id="path442" d="m 8954,1800 51,0" style="fill:none;stroke:#000;stroke-width:50"/><path id="path444" d="m 9056,1800 51,0" style="fill:none;stroke:#000;stroke-width:50"/><path id="path446" d="m 9158,1800 51,0" style="fill:none;stroke:#000;stroke-width:50"/><path id="path448" d="m 9260,1800 51,0" style="fill:none;stroke:#000;stroke-width:50"/><path id="path450" d="m 9362,1800 51,0" style="fill:none;stroke:#000;stroke-width:50"/><path id="path452" d="m 9464,1800 51,0" style="fill:none;stroke:#000;stroke-width:50"/><path id="path454" d="m 9566,1800 51,0" style="fill:none;stroke:#000;stroke-width:50"/><path id="path456" d="m 9668,1800 51,0" style="fill:none;stroke:#000;stroke-width:50"/><path id="path458" d="m 9770,1800 51,0" style="fill:none;stroke:#000;stroke-width:50"/><path id="path460" d="m 9872,1800 51,0" style="fill:none;stroke:#000;stroke-width:50"/><path id="path462" d="m 9974,1800 51,0" style="fill:none;stroke:#000;stroke-width:50"/><path id="path464" d="m 10076,1800 51,0" style="fill:none;stroke:#000;stroke-width:50"/><path id="path466" d="m 10178,1800 51,0" style="fill:none;stroke:#000;stroke-width:50"/><path id="path468" d="m 10280,1800 51,0" style="fill:none;stroke:#000;stroke-width:50"/><path id="path470" d="m 10382,1800 51,0" style="fill:none;stroke:#000;stroke-width:50"/><path id="path472" d="m 10484,1800 51,0" style="fill:none;stroke:#000;stroke-width:50"/><path id="path474" d="m 10586,1800 51,0" style="fill:none;stroke:#000;stroke-width:50"/><path id="path476" d="m 10688,1800 51,0" style="fill:none;stroke:#000;stroke-width:50"/><path id="path478" d="m 10790,1800 51,0" style="fill:none;stroke:#000;stroke-width:50"/><path id="path480" d="m 10892,1800 51,0" style="fill:none;stroke:#000;stroke-width:50"/><path id="path482" d="m 10994,1800 51,0" style="fill:none;stroke:#000;stroke-width:50"/><path id="path484" d="m 11096,1800 51,0" style="fill:none;stroke:#000;stroke-width:50"/><path id="path486" d="m 11198,1800 51,0" style="fill:none;stroke:#000;stroke-width:50"/><path id="path488" d="m 11300,1800 51,0" style="fill:none;stroke:#000;stroke-width:50"/><path id="path490" d="m 11402,1800 51,0" style="fill:none;stroke:#000;stroke-width:50"/><path id="path492" d="m 11504,1800 51,0" style="fill:none;stroke:#000;stroke-width:50"/><path id="path494" d="m 11606,1800 51,0" style="fill:none;stroke:#000;stroke-width:50"/><path id="path496" d="m 11708,1800 51,0" style="fill:none;stroke:#000;stroke-width:50"/><path id="path498" d="m 11810,1800 51,0" style="fill:none;stroke:#000;stroke-width:50"/><path id="path500" d="m 11912,1800 51,0" style="fill:none;stroke:#000;stroke-width:50"/><path id="path502" d="m 12014,1800 51,0" style="fill:none;stroke:#000;stroke-width:50"/><path id="path504" d="m 12116,1800 51,0" style="fill:none;stroke:#000;stroke-width:50"/><path id="path506" d="m 12218,1800 51,0" style="fill:none;stroke:#000;stroke-width:50"/><path id="path508" d="m 12320,1800 51,0" style="fill:none;stroke:#000;stroke-width:50"/><path id="path510" d="m 12422,1800 51,0" style="fill:none;stroke:#000;stroke-width:50"/><path id="path512" d="m 12524,1800 51,0" style="fill:none;stroke:#000;stroke-width:50"/><path id="path514" d="m 12626,1800 51,0" style="fill:none;stroke:#000;stroke-width:50"/><path id="path516" d="m 12728,1800 51,0" style="fill:none;stroke:#000;stroke-width:50"/><path id="path518" d="m 12830,1800 51,0" style="fill:none;stroke:#000;stroke-width:50"/><path id="path520" d="m 12932,1800 51,0" style="fill:none;stroke:#000;stroke-width:50"/><path id="path522" d="m 13034,1800 51,0" style="fill:none;stroke:#000;stroke-width:50"/><path id="path524" d="m 13136,1800 51,0" style="fill:none;stroke:#000;stroke-width:50"/><path id="path526" d="m 13238,1800 51,0" style="fill:none;stroke:#000;stroke-width:50"/><path id="path528" d="m 13340,1800 51,0" style="fill:none;stroke:#000;stroke-width:50"/><path id="path530" d="m 13442,1800 51,0" style="fill:none;stroke:#000;stroke-width:50"/><path id="path532" d="m 13544,1800 51,0" style="fill:none;stroke:#000;stroke-width:50"/><path id="path534" d="m 13646,1800 51,0" style="fill:none;stroke:#000;stroke-width:50"/><path id="path536" d="m 13748,1800 51,0" style="fill:none;stroke:#000;stroke-width:50"/><path id="path538" d="m 13850,1800 51,0" style="fill:none;stroke:#000;stroke-width:50"/><path id="path540" d="m 13952,1800 51,0" style="fill:none;stroke:#000;stroke-width:50"/><path id="path542" d="m 14054,1800 51,0" style="fill:none;stroke:#000;stroke-width:50"/><path id="path544" d="m 14156,1800 51,0" style="fill:none;stroke:#000;stroke-width:50"/><path id="path546" d="m 14258,1800 51,0" style="fill:none;stroke:#000;stroke-width:50"/><path id="path548" d="m 14360,1800 51,0" style="fill:none;stroke:#000;stroke-width:50"/><path id="path550" d="m 14462,1800 51,0" style="fill:none;stroke:#000;stroke-width:50"/><path id="path552" d="m 14564,1800 51,0" style="fill:none;stroke:#000;stroke-width:50"/><path id="path554" d="m 14666,1800 51,0" style="fill:none;stroke:#000;stroke-width:50"/><path id="path556" d="m 14768,1800 51,0" style="fill:none;stroke:#000;stroke-width:50"/><path id="path558" d="m 14870,1800 51,0" style="fill:none;stroke:#000;stroke-width:50"/><path id="path560" d="m 14972,1800 51,0" style="fill:none;stroke:#000;stroke-width:50"/><path id="path562" d="m 15074,1800 51,0" style="fill:none;stroke:#000;stroke-width:50"/><path id="path564" d="m 15176,1800 51,0" style="fill:none;stroke:#000;stroke-width:50"/><path id="path566" d="m 15278,1800 51,0" style="fill:none;stroke:#000;stroke-width:50"/><path id="path568" d="m 15380,1800 51,0" style="fill:none;stroke:#000;stroke-width:50"/><path id="path570" d="m 15482,1800 51,0" style="fill:none;stroke:#000;stroke-width:50"/><path id="path572" d="m 15584,1800 51,0" style="fill:none;stroke:#000;stroke-width:50"/><path id="path574" d="m 15686,1800 51,0" style="fill:none;stroke:#000;stroke-width:50"/><path id="path576" d="m 15788,1800 51,0" style="fill:none;stroke:#000;stroke-width:50"/><path id="path578" d="m 15890,1800 51,0" style="fill:none;stroke:#000;stroke-width:50"/><path id="path580" d="m 15992,1800 51,0" style="fill:none;stroke:#000;stroke-width:50"/><path id="path582" d="m 16094,1800 51,0" style="fill:none;stroke:#000;stroke-width:50"/><path id="path584" d="m 16196,1800 51,0" style="fill:none;stroke:#000;stroke-width:50"/><path id="path586" d="m 16298,1800 51,0" style="fill:none;stroke:#000;stroke-width:50"/><path id="path588" d="m 16400,1800 51,0" style="fill:none;stroke:#000;stroke-width:50"/><path id="path590" d="m 16502,1800 51,0" style="fill:none;stroke:#000;stroke-width:50"/><path id="path592" d="m 16604,1800 51,0" style="fill:none;stroke:#000;stroke-width:50"/><path id="path594" d="m 16706,1800 51,0" style="fill:none;stroke:#000;stroke-width:50"/><path id="path596" d="m 16808,1800 51,0" style="fill:none;stroke:#000;stroke-width:50"/></g></g><g id="g598" class="com.sun.star.drawing.TextShape"><g id="id9"><text id="text601" class="TextShape"><tspan id="tspan603" class="TextParagraph" font-size="388" font-weight="400" style="font-size:388px;font-weight:400;font-family:'Arial, sans-serif'"><tspan id="tspan605" x="5951" y="1494" class="TextPosition"><tspan id="tspan607" style="fill:#000;stroke:none">local</tspan></tspan></tspan></text></g></g><g id="g609" class="com.sun.star.drawing.TextShape"><g id="id10"><text id="text612" class="TextShape"><tspan id="tspan614" class="TextParagraph" font-size="388" font-weight="400" style="font-size:388px;font-weight:400;font-family:'Arial, sans-serif'"><tspan id="tspan616" x="13696" y="1495" class="TextPosition"><tspan id="tspan618" style="fill:#000;stroke:none">GitHub</tspan></tspan></tspan></text></g></g><g id="g620" class="com.sun.star.drawing.CustomShape"><g id="id11"><path id="path623" d="m 13750,4148 1400,0 0,1575 -175,225 -1225,0 0,-1800 z" style="fill:none;stroke:#000;stroke-width:50"/><path id="path625" d="m 14975,5948 46,-225 c 44,33 42,14 129,0 l -175,225 z" style="fill:none;stroke:#000;stroke-width:50"/></g></g><g id="g627" class="com.sun.star.drawing.TextShape"><g id="id12"><text id="text630" class="TextShape"><tspan id="tspan632" class="TextParagraph" font-size="388" font-weight="400" style="font-size:388px;font-weight:400;font-family:'Arial, sans-serif'"><tspan id="tspan634" x="13759" y="6794" class="TextPosition"><tspan id="tspan636" style="fill:#000;stroke:none">mars.txt</tspan></tspan></tspan></text></g></g><g id="g638" class="com.sun.star.drawing.CustomShape"><g id="id13"><path id="path641" d="m 7850,4147 1400,0 0,1575 -175,225 -1225,0 0,-1800 z" style="fill:none;stroke:#000;stroke-width:50"/><path id="path643" d="m 9075,5947 46,-225 c 44,33 42,14 129,0 l -175,225 z" style="fill:none;stroke:#000;stroke-width:50"/></g></g><g id="g645" class="com.sun.star.drawing.TextShape"><g id="id14"><text id="text648" class="TextShape"><tspan id="tspan650" class="TextParagraph" font-size="388" font-weight="400" style="font-size:388px;font-weight:400;font-family:'Arial, sans-serif'"><tspan id="tspan652" x="7859" y="6793" class="TextPosition"><tspan id="tspan654" style="fill:#000;stroke:none">mars.txt</tspan></tspan></tspan></text></g></g><g id="g656" class="com.sun.star.drawing.CustomShape"><g id="id15"><path id="path659" d="m 6900,2300 c -100,0 -200,100 -200,200 l 0,800 c 0,100 100,201 200,201 l 3300,0 c 100,0 201,-101 201,-201 l 0,-800 c 0,-100 -101,-200 -201,-200 l -3300,0 z" style="fill:none;stroke:#000;stroke-width:50"/><text id="text661" class="TextShape"><tspan id="tspan663" class="TextParagraph" font-size="388" font-weight="400" style="font-size:388px;font-weight:400;font-family:'Arial, sans-serif'"><tspan id="tspan665" x="7494" y="3035" class="TextPosition"><tspan id="tspan667" style="fill:#000;stroke:none">/tmp/planets</tspan></tspan></tspan></text></g></g><g id="g669" class="com.sun.star.drawing.CustomShape"><g id="id16"><path id="path672" d="m 7850,7448 1400,0 0,1575 -175,225 -1225,0 0,-1800 z" style="fill:none;stroke:#000;stroke-width:50"/><path id="path674" d="m 9075,9248 46,-225 c 44,33 42,14 129,0 l -175,225 z" style="fill:none;stroke:#000;stroke-width:50"/></g></g><g id="g676" class="com.sun.star.drawing.TextShape"><g id="id17"><text id="text679" class="TextShape"><tspan id="tspan681" class="TextParagraph" font-size="388" font-weight="400" style="font-size:388px;font-weight:400;font-family:'Arial, sans-serif'"><tspan id="tspan683" x="7859" y="10094" class="TextPosition"><tspan id="tspan685" style="fill:#000;stroke:none">pluto.txt</tspan></tspan></tspan></text></g></g><g id="g687" class="com.sun.star.drawing.LineShape"><g id="id18"><path id="path690" d="m 8100,7898 900,0" style="fill:none;stroke:#000;stroke-width:50"/></g></g><g id="g692" class="com.sun.star.drawing.LineShape"><g id="id19"><path id="path695" d="m 8100,8198 900,0" style="fill:none;stroke:#000;stroke-width:50"/></g></g><g id="g697" class="com.sun.star.drawing.LineShape"><g id="id20"><path id="path700" d="m 8100,8498 900,0" style="fill:none;stroke:#000;stroke-width:50"/></g></g><g id="g702" class="com.sun.star.drawing.CustomShape"><g id="id21"><path id="path705" d="m 13751,7449 1400,0 0,1575 -175,225 -1225,0 0,-1800 z" style="fill:none;stroke:#000;stroke-width:50"/><path id="path707" d="m 14976,9249 46,-225 c 44,33 42,14 129,0 l -175,225 z" style="fill:none;stroke:#000;stroke-width:50"/></g></g><g id="g709" class="com.sun.star.drawing.TextShape"><g id="id22"><text id="text712" class="TextShape"><tspan id="tspan714" class="TextParagraph" font-size="388" font-weight="400" style="font-size:388px;font-weight:400;font-family:'Arial, sans-serif'"><tspan id="tspan716" x="13760" y="10095" class="TextPosition"><tspan id="tspan718" style="fill:#000;stroke:none">pluto.txt</tspan></tspan></tspan></text></g></g><g id="g720" class="com.sun.star.drawing.LineShape"><g id="id23"><path id="path723" d="m 14001,7899 900,0" style="fill:none;stroke:#000;stroke-width:50"/></g></g><g id="g725" class="com.sun.star.drawing.LineShape"><g id="id24"><path id="path728" d="m 14001,8199 900,0" style="fill:none;stroke:#000;stroke-width:50"/></g></g><g id="g730" class="com.sun.star.drawing.LineShape"><g id="id25"><path id="path733" d="m 14001,8499 900,0" style="fill:none;stroke:#000;stroke-width:50"/></g></g><g id="g735" class="com.sun.star.drawing.CustomShape"><g id="id26"><path id="path738" d="m 3450,4600 -105,344 -345,0 280,215 -105,342 275,-210 275,210 -105,-342 281,-215 -346,0 -105,-344 0,0 z m -450,0 0,0 z m 901,901 0,0 z" style="fill:silver;stroke:none"/><path id="path740" d="m 3450,4600 -105,344 -345,0 280,215 -105,342 275,-210 275,210 -105,-342 281,-215 -346,0 -105,-344 0,0 z" style="fill:none;stroke:#000;stroke-width:50"/></g></g><g id="g742" class="com.sun.star.drawing.CustomShape"><g id="id27"><path id="path745" d="m 14450,4600 -105,344 -345,0 280,215 -105,342 275,-210 275,210 -105,-342 281,-215 -346,0 -105,-344 0,0 z m -450,0 0,0 z m 901,901 0,0 z" style="fill:silver;stroke:none"/><path id="path747" d="m 14450,4600 -105,344 -345,0 280,215 -105,342 275,-210 275,210 -105,-342 281,-215 -346,0 -105,-344 0,0 z" style="fill:none;stroke:#000;stroke-width:50"/></g></g><g id="g749" class="com.sun.star.drawing.OpenBezierShape"><g id="id28"><path id="path752" d="m 13400,4844 c -16,-8 -32,-17 -49,-25" style="fill:none;stroke:#000;stroke-width:50"/><path id="path754" d="m 13303,4795 c -16,-8 -32,-15 -48,-23" style="fill:none;stroke:#000;stroke-width:50"/><path id="path756" d="m 13208,4749 c -16,-7 -31,-15 -47,-22" style="fill:none;stroke:#000;stroke-width:50"/><path id="path758" d="m 13114,4706 c -15,-7 -31,-14 -46,-21" style="fill:none;stroke:#000;stroke-width:50"/><path id="path760" d="m 13022,4665 c -15,-7 -30,-13 -45,-20" style="fill:none;stroke:#000;stroke-width:50"/><path id="path762" d="m 12932,4626 c -15,-6 -30,-12 -45,-18" style="fill:none;stroke:#000;stroke-width:50"/><path id="path764" d="m 12843,4590 c -17,-7 -34,-13 -51,-20" style="fill:none;stroke:#000;stroke-width:50"/><path id="path766" d="m 12742,4551 c -16,-6 -33,-12 -49,-18" style="fill:none;stroke:#000;stroke-width:50"/><path id="path768" d="m 12643,4516 c -16,-6 -32,-12 -48,-17" style="fill:none;stroke:#000;stroke-width:50"/><path id="path770" d="m 12547,4483 c -16,-5 -32,-10 -48,-15" style="fill:none;stroke:#000;stroke-width:50"/><path id="path772" d="m 12452,4453 c -16,-5 -31,-9 -47,-14" style="fill:none;stroke:#000;stroke-width:50"/><path id="path774" d="m 12359,4426 c -17,-4 -34,-9 -50,-13" style="fill:none;stroke:#000;stroke-width:50"/><path id="path776" d="m 12257,4399 c -17,-4 -35,-8 -52,-12" style="fill:none;stroke:#000;stroke-width:50"/><path id="path778" d="m 12155,4375 c -17,-4 -34,-7 -50,-11" style="fill:none;stroke:#000;stroke-width:50"/><path id="path780" d="m 12055,4354 c -16,-3 -32,-6 -49,-9" style="fill:none;stroke:#000;stroke-width:50"/><path id="path782" d="m 11958,4337 c -16,-3 -32,-5 -47,-8" style="fill:none;stroke:#000;stroke-width:50"/><path id="path784" d="m 11859,4322 c -18,-3 -35,-5 -53,-7" style="fill:none;stroke:#000;stroke-width:50"/><path id="path786" d="m 11754,4309 c -17,-2 -34,-3 -51,-5" style="fill:none;stroke:#000;stroke-width:50"/><path id="path788" d="m 11652,4300 c -17,-1 -33,-2 -50,-3" style="fill:none;stroke:#000;stroke-width:50"/><path id="path790" d="m 11553,4295 c -16,-1 -32,-2 -48,-2" style="fill:none;stroke:#000;stroke-width:50"/><path id="path792" d="m 11452,4292 c -18,0 -35,0 -53,0" style="fill:none;stroke:#000;stroke-width:50"/><path id="path794" d="m 11347,4294 c -17,0 -34,1 -51,2" style="fill:none;stroke:#000;stroke-width:50"/><path id="path796" d="m 11246,4298 c -17,2 -33,3 -50,4" style="fill:none;stroke:#000;stroke-width:50"/><path id="path798" d="m 11148,4307 c -18,1 -35,3 -52,5" style="fill:none;stroke:#000;stroke-width:50"/><path id="path800" d="m 11044,4319 c -17,3 -34,5 -51,8" style="fill:none;stroke:#000;stroke-width:50"/><path id="path802" d="m 10943,4335 c -17,3 -34,6 -50,9" style="fill:none;stroke:#000;stroke-width:50"/><path id="path804" d="m 10845,4354 c -17,4 -33,7 -50,11" style="fill:none;stroke:#000;stroke-width:50"/><path id="path806" d="m 10744,4377 c -17,4 -33,9 -50,13" style="fill:none;stroke:#000;stroke-width:50"/><path id="path808" d="m 10645,4404 c -16,4 -32,9 -48,14" style="fill:none;stroke:#000;stroke-width:50"/><path id="path810" d="m 10550,4432 c -17,5 -34,11 -50,16" style="fill:none;stroke:#000;stroke-width:50"/><path id="path812" d="m 10451,4465 c -17,5 -33,11 -49,17" style="fill:none;stroke:#000;stroke-width:50"/><path id="path814" d="m 10355,4499 c -16,6 -31,12 -47,18" style="fill:none;stroke:#000;stroke-width:50"/><path id="path816" d="m 10261,4535 c -17,6 -33,13 -49,19" style="fill:none;stroke:#000;stroke-width:50"/><path id="path818" d="m 10164,4573 c -15,7 -31,13 -46,19" style="fill:none;stroke:#000;stroke-width:50"/><path id="path820" d="m 10072,4611 c -16,7 -32,13 -48,19" style="fill:none;stroke:#000;stroke-width:50"/><path id="path822" d="m 9975,4650 c -16,6 -32,13 -47,19" style="fill:none;stroke:#000;stroke-width:50"/><path id="path824" d="m 9881,4686 c -10,4 -20,8 -29,11" style="fill:none;stroke:#000;stroke-width:50"/><path id="path826" d="m 9500,4844 434,-31 -106,-254 -328,285 z" style="fill:#000;stroke:none"/></g></g><g id="g828" class="com.sun.star.drawing.CustomShape"><g id="id29"><path id="path831" d="m 8100,4950 183,65 0,-130 -183,65 z m 0,-450 0,0 z m 901,901 0,0 z" style="fill:silver;stroke:none"/><path id="path833" d="m 8100,4950 183,65 0,-130 -183,65 z" style="fill:none;stroke:#000;stroke-width:50"/><path id="path835" d="m 8231,5269 176,-84 -92,-92 -84,176 z m -131,-769 0,0 z m 901,901 0,0 z" style="fill:silver;stroke:none"/><path id="path837" d="m 8231,5269 176,-84 -92,-92 -84,176 z" style="fill:none;stroke:#000;stroke-width:50"/><path id="path839" d="m 8550,5401 65,-184 -130,0 65,184 z m -450,-901 0,0 z m 901,901 0,0 z" style="fill:silver;stroke:none"/><path id="path841" d="m 8550,5401 65,-184 -130,0 65,184 z" style="fill:none;stroke:#000;stroke-width:50"/><path id="path843" d="m 8869,5269 -84,-176 -92,92 176,84 z m -769,-769 0,0 z m 901,901 0,0 z" style="fill:silver;stroke:none"/><path id="path845" d="m 8869,5269 -84,-176 -92,92 176,84 z" style="fill:none;stroke:#000;stroke-width:50"/><path id="path847" d="m 9001,4950 -184,-65 0,130 184,-65 z m -901,-450 0,0 z m 901,901 0,0 z" style="fill:silver;stroke:none"/><path id="path849" d="m 9001,4950 -184,-65 0,130 184,-65 z" style="fill:none;stroke:#000;stroke-width:50"/><path id="path851" d="m 8869,4631 -176,84 92,92 84,-176 z m -769,-131 0,0 z m 901,901 0,0 z" style="fill:silver;stroke:none"/><path id="path853" d="m 8869,4631 -176,84 92,92 84,-176 z" style="fill:none;stroke:#000;stroke-width:50"/><path id="path855" d="m 8550,4500 -65,183 130,0 -65,-183 z m -450,0 0,0 z m 901,901 0,0 z" style="fill:silver;stroke:none"/><path id="path857" d="m 8550,4500 -65,183 130,0 -65,-183 z" style="fill:none;stroke:#000;stroke-width:50"/><path id="path859" d="m 8231,4631 84,176 92,-92 -176,-84 z m -131,-131 0,0 z m 901,901 0,0 z" style="fill:silver;stroke:none"/><path id="path861" d="m 8231,4631 84,176 92,-92 -176,-84 z" style="fill:none;stroke:#000;stroke-width:50"/><path id="path863" d="m 8548,4724 c 127,0 225,97 225,224 0,127 -98,225 -225,225 -127,0 -224,-98 -224,-225 0,-127 97,-224 224,-224 z m -448,-224 0,0 z m 901,901 0,0 z" style="fill:silver;stroke:none"/><path id="path865" d="m 8548,4724 c 127,0 225,97 225,224 0,127 -98,225 -225,225 -127,0 -224,-98 -224,-225 0,-127 97,-224 224,-224 z" style="fill:none;stroke:#000;stroke-width:50"/></g></g></g></g></g></g></svg>