<svg xmlns="http://www.w3.org/2000/svg" xmlns:ooo="http://xml.openoffice.org/svg/export" xmlns:svg="http://www.w3.org/2000/svg" id="svg2" width="560.161" height="329.97" clip-path="url(#presentation_clip_path)" style="fill-rule:evenodd;stroke-width:28.22200012;stroke-linejoin:round" preserveAspectRatio="xMidYMid" version="1.2" viewBox="0 0 15809.001 9312.475" xml:space="preserve"><metadata id="metadata787"/><defs id="defs4" class="ClipPathGroup"><clipPath id="presentation_clip_path" clipPathUnits="userSpaceOnUse"><rect id="rect7" width="21590" height="27940" x="0" y="0"/></clipPath></defs><defs id="defs13" class="EmbeddedBulletChars"><g id="bullet-char-template(57356)" transform="scale(4.8828125e-4,-4.8828125e-4)"><path id="path16" d="M 580,1141 1163,571 580,0 -4,571 580,1141 z"/></g><g id="bullet-char-template(57354)" transform="scale(4.8828125e-4,-4.8828125e-4)"><path id="path19" d="m 8,1128 1129,0 L 1137,0 8,0 8,1128 z"/></g><g id="bullet-char-template(10146)" transform="scale(4.8828125e-4,-4.8828125e-4)"><path id="path22" d="M 174,0 602,739 174,1481 1456,739 174,0 z m 1184,739 -1049,607 350,-607 699,0 z"/></g><g id="bullet-char-template(10132)" transform="scale(4.8828125e-4,-4.8828125e-4)"><path id="path25" d="M 2015,739 1276,0 717,0 l 543,543 -1086,0 0,393 1086,0 -543,545 557,0 741,-742 z"/></g><g id="bullet-char-template(10007)" transform="scale(4.8828125e-4,-4.8828125e-4)"><path id="path28" d="m 0,-2 c -7,16 -16,29 -25,39 l 381,530 c -94,256 -141,385 -141,387 0,25 13,38 40,38 9,0 21,-2 34,-5 21,4 42,12 65,25 l 27,-13 111,-251 280,301 64,-25 24,25 c 21,-10 41,-24 62,-43 C 886,937 835,863 770,784 769,783 710,716 594,584 L 774,223 c 0,-27 -21,-55 -63,-84 l 16,-20 C 717,90 699,76 672,76 641,76 570,178 457,381 L 164,-76 c -22,-34 -53,-51 -92,-51 -42,0 -63,17 -64,51 -7,9 -10,24 -10,44 0,9 1,19 2,30 z"/></g><g id="bullet-char-template(10004)" transform="scale(4.8828125e-4,-4.8828125e-4)"><path id="path31" d="M 285,-33 C 182,-33 111,30 74,156 52,228 41,333 41,471 c 0,78 14,145 41,201 34,71 87,106 158,106 53,0 88,-31 106,-94 l 23,-176 c 8,-64 28,-97 59,-98 l 735,706 c 11,11 33,17 66,17 42,0 63,-15 63,-46 l 0,-122 c 0,-36 -10,-64 -30,-84 L 442,47 C 390,-6 338,-33 285,-33 z"/></g><g id="bullet-char-template(9679)" transform="scale(4.8828125e-4,-4.8828125e-4)"><path id="path34" d="M 813,0 C 632,0 489,54 383,161 276,268 223,411 223,592 c 0,181 53,324 160,431 106,107 249,161 430,161 179,0 323,-54 432,-161 108,-107 162,-251 162,-431 0,-180 -54,-324 -162,-431 C 1136,54 992,0 813,0 z"/></g><g id="bullet-char-template(8226)" transform="scale(4.8828125e-4,-4.8828125e-4)"><path id="path37" d="m 346,457 c -73,0 -137,26 -191,78 -54,51 -81,114 -81,188 0,73 27,136 81,188 54,52 118,78 191,78 73,0 134,-26 185,-79 51,-51 77,-114 77,-187 0,-75 -25,-137 -76,-188 -50,-52 -112,-78 -186,-78 z"/></g><g id="bullet-char-template(8211)" transform="scale(4.8828125e-4,-4.8828125e-4)"><path id="path40" d="m -4,459 1139,0 0,147 -1139,0 0,-147 z"/></g></defs><g id="g49" class="SlideGroup" transform="translate(-1075,-1212.5254)"><g id="g51"><g id="id1" class="Slide" clip-path="url(#presentation_clip_path)"><g id="g54" class="Page"><g id="g56" class="com.sun.star.drawing.CustomShape"><g id="id3"><path id="path59" d="m 2750,4147 1400,0 0,1575 -175,225 -1225,0 0,-1800 z" style="fill:none;stroke:#000;stroke-width:50"/><path id="path61" d="m 3975,5947 46,-225 c 44,33 42,14 129,0 l -175,225 z" style="fill:none;stroke:#000;stroke-width:50"/></g></g><g id="g63" class="com.sun.star.drawing.TextShape"><g id="id4"><text id="text66" class="TextShape"><tspan id="tspan68" class="TextParagraph" font-size="388" font-weight="400" style="font-size:388px;font-weight:400;font-family:'Arial, sans-serif'"><tspan id="tspan70" x="2759" y="6793" class="TextPosition"><tspan id="tspan72" style="fill:#000;stroke:none">mars.txt</tspan></tspan></tspan></text></g></g><g id="g74" class="com.sun.star.drawing.LineShape"><g id="id5"><path id="path77" d="m 3000,4597 900,0" style="fill:none;stroke:#000;stroke-width:50"/></g></g><g id="g79" class="com.sun.star.drawing.LineShape"><g id="id6"><path id="path82" d="m 3000,4897 900,0" style="fill:none;stroke:#000;stroke-width:50"/></g></g><g id="g84" class="com.sun.star.drawing.LineShape"><g id="id7"><path id="path87" d="m 3000,5197 900,0" style="fill:none;stroke:#000;stroke-width:50"/></g></g><g id="g89" class="com.sun.star.drawing.CustomShape"><g id="id8"><path id="path92" d="m 1800,2300 c -100,0 -200,100 -200,200 l 0,800 c 0,100 100,201 200,201 l 3300,0 c 100,0 201,-101 201,-201 l 0,-800 c 0,-100 -101,-200 -201,-200 l -3300,0 z" style="fill:none;stroke:#000;stroke-width:50"/><text id="text94" class="TextShape"><tspan id="tspan96" class="TextParagraph" font-size="388" font-weight="400" style="font-size:388px;font-weight:400;font-family:'Arial, sans-serif'"><tspan id="tspan98" x="1822" y="3035" class="TextPosition"><tspan id="tspan100" style="fill:#000;stroke:none">/home/vlad/planets</tspan></tspan></tspan></text></g></g><g id="g102" class="com.sun.star.drawing.CustomShape"><g id="id9"><path id="path105" d="m 12650,2300 c -100,0 -200,100 -200,200 l 0,800 c 0,100 100,201 200,201 l 3300,0 c 100,0 201,-101 201,-201 l 0,-800 c 0,-100 -101,-200 -201,-200 l -3300,0 z" style="fill:none;stroke:#000;stroke-width:50"/><text id="text107" class="TextShape"><tspan id="tspan109" class="TextParagraph" font-size="388" font-weight="400" style="font-size:388px;font-weight:400;font-family:'Arial, sans-serif'"><tspan id="tspan111" x="12564" y="3035" class="TextPosition"><tspan id="tspan113" style="fill:#000;stroke:none">/somewhere/planets</tspan></tspan></tspan></text></g></g><g id="g115" class="com.sun.star.drawing.LineShape"><g id="id10"><path id="path118" d="m 11500,1300 0,51" style="fill:none;stroke:#000;stroke-width:50"/><path id="path120" d="m 11500,1402 0,51" style="fill:none;stroke:#000;stroke-width:50"/><path id="path122" d="m 11500,1504 0,51" style="fill:none;stroke:#000;stroke-width:50"/><path id="path124" d="m 11500,1606 0,51" style="fill:none;stroke:#000;stroke-width:50"/><path id="path126" d="m 11500,1708 0,51" style="fill:none;stroke:#000;stroke-width:50"/><path id="path128" d="m 11500,1810 0,51" style="fill:none;stroke:#000;stroke-width:50"/><path id="path130" d="m 11500,1912 0,51" style="fill:none;stroke:#000;stroke-width:50"/><path id="path132" d="m 11500,2014 0,51" style="fill:none;stroke:#000;stroke-width:50"/><path id="path134" d="m 11500,2116 0,51" style="fill:none;stroke:#000;stroke-width:50"/><path id="path136" d="m 11500,2218 0,51" style="fill:none;stroke:#000;stroke-width:50"/><path id="path138" d="m 11500,2320 0,51" style="fill:none;stroke:#000;stroke-width:50"/><path id="path140" d="m 11500,2422 0,51" style="fill:none;stroke:#000;stroke-width:50"/><path id="path142" d="m 11500,2524 0,51" style="fill:none;stroke:#000;stroke-width:50"/><path id="path144" d="m 11500,2626 0,51" style="fill:none;stroke:#000;stroke-width:50"/><path id="path146" d="m 11500,2728 0,51" style="fill:none;stroke:#000;stroke-width:50"/><path id="path148" d="m 11500,2830 0,51" style="fill:none;stroke:#000;stroke-width:50"/><path id="path150" d="m 11500,2932 0,51" style="fill:none;stroke:#000;stroke-width:50"/><path id="path152" d="m 11500,3034 0,51" style="fill:none;stroke:#000;stroke-width:50"/><path id="path154" d="m 11500,3136 0,51" style="fill:none;stroke:#000;stroke-width:50"/><path id="path156" d="m 11500,3238 0,51" style="fill:none;stroke:#000;stroke-width:50"/><path id="path158" d="m 11500,3340 0,51" style="fill:none;stroke:#000;stroke-width:50"/><path id="path160" d="m 11500,3442 0,51" style="fill:none;stroke:#000;stroke-width:50"/><path id="path162" d="m 11500,3544 0,51" style="fill:none;stroke:#000;stroke-width:50"/><path id="path164" d="m 11500,3646 0,51" style="fill:none;stroke:#000;stroke-width:50"/><path id="path166" d="m 11500,3748 0,51" style="fill:none;stroke:#000;stroke-width:50"/><path id="path168" d="m 11500,3850 0,51" style="fill:none;stroke:#000;stroke-width:50"/><path id="path170" d="m 11500,3952 0,51" style="fill:none;stroke:#000;stroke-width:50"/><path id="path172" d="m 11500,4054 0,51" style="fill:none;stroke:#000;stroke-width:50"/><path id="path174" d="m 11500,4156 0,51" style="fill:none;stroke:#000;stroke-width:50"/><path id="path176" d="m 11500,4258 0,51" style="fill:none;stroke:#000;stroke-width:50"/><path id="path178" d="m 11500,4360 0,51" style="fill:none;stroke:#000;stroke-width:50"/><path id="path180" d="m 11500,4462 0,51" style="fill:none;stroke:#000;stroke-width:50"/><path id="path182" d="m 11500,4564 0,51" style="fill:none;stroke:#000;stroke-width:50"/><path id="path184" d="m 11500,4666 0,51" style="fill:none;stroke:#000;stroke-width:50"/><path id="path186" d="m 11500,4768 0,51" style="fill:none;stroke:#000;stroke-width:50"/><path id="path188" d="m 11500,4870 0,51" style="fill:none;stroke:#000;stroke-width:50"/><path id="path190" d="m 11500,4972 0,51" style="fill:none;stroke:#000;stroke-width:50"/><path id="path192" d="m 11500,5074 0,51" style="fill:none;stroke:#000;stroke-width:50"/><path id="path194" d="m 11500,5176 0,51" style="fill:none;stroke:#000;stroke-width:50"/><path id="path196" d="m 11500,5278 0,51" style="fill:none;stroke:#000;stroke-width:50"/><path id="path198" d="m 11500,5380 0,51" style="fill:none;stroke:#000;stroke-width:50"/><path id="path200" d="m 11500,5482 0,51" style="fill:none;stroke:#000;stroke-width:50"/><path id="path202" d="m 11500,5584 0,51" style="fill:none;stroke:#000;stroke-width:50"/><path id="path204" d="m 11500,5686 0,51" style="fill:none;stroke:#000;stroke-width:50"/><path id="path206" d="m 11500,5788 0,51" style="fill:none;stroke:#000;stroke-width:50"/><path id="path208" d="m 11500,5890 0,51" style="fill:none;stroke:#000;stroke-width:50"/><path id="path210" d="m 11500,5992 0,51" style="fill:none;stroke:#000;stroke-width:50"/><path id="path212" d="m 11500,6094 0,51" style="fill:none;stroke:#000;stroke-width:50"/><path id="path214" d="m 11500,6196 0,51" style="fill:none;stroke:#000;stroke-width:50"/><path id="path216" d="m 11500,6298 0,51" style="fill:none;stroke:#000;stroke-width:50"/><path id="path218" d="m 11500,6400 0,51" style="fill:none;stroke:#000;stroke-width:50"/><path id="path220" d="m 11500,6502 0,51" style="fill:none;stroke:#000;stroke-width:50"/><path id="path222" d="m 11500,6604 0,51" style="fill:none;stroke:#000;stroke-width:50"/><path id="path224" d="m 11500,6706 0,51" style="fill:none;stroke:#000;stroke-width:50"/><path id="path226" d="m 11500,6808 0,51" style="fill:none;stroke:#000;stroke-width:50"/><path id="path228" d="m 11500,6910 0,51" style="fill:none;stroke:#000;stroke-width:50"/><path id="path230" d="m 11500,7012 0,51" style="fill:none;stroke:#000;stroke-width:50"/><path id="path232" d="m 11500,7114 0,51" style="fill:none;stroke:#000;stroke-width:50"/><path id="path234" d="m 11500,7216 0,51" style="fill:none;stroke:#000;stroke-width:50"/><path id="path236" d="m 11500,7318 0,51" style="fill:none;stroke:#000;stroke-width:50"/><path id="path238" d="m 11500,7420 0,51" style="fill:none;stroke:#000;stroke-width:50"/><path id="path240" d="m 11500,7522 0,51" style="fill:none;stroke:#000;stroke-width:50"/><path id="path242" d="m 11500,7624 0,51" style="fill:none;stroke:#000;stroke-width:50"/><path id="path244" d="m 11500,7726 0,51" style="fill:none;stroke:#000;stroke-width:50"/><path id="path246" d="m 11500,7828 0,51" style="fill:none;stroke:#000;stroke-width:50"/><path id="path248" d="m 11500,7930 0,51" style="fill:none;stroke:#000;stroke-width:50"/><path id="path250" d="m 11500,8032 0,51" style="fill:none;stroke:#000;stroke-width:50"/><path id="path252" d="m 11500,8134 0,51" style="fill:none;stroke:#000;stroke-width:50"/><path id="path254" d="m 11500,8236 0,51" style="fill:none;stroke:#000;stroke-width:50"/><path id="path256" d="m 11500,8338 0,51" style="fill:none;stroke:#000;stroke-width:50"/><path id="path258" d="m 11500,8440 0,51" style="fill:none;stroke:#000;stroke-width:50"/><path id="path260" d="m 11500,8542 0,51" style="fill:none;stroke:#000;stroke-width:50"/><path id="path262" d="m 11500,8644 0,51" style="fill:none;stroke:#000;stroke-width:50"/><path id="path264" d="m 11500,8746 0,51" style="fill:none;stroke:#000;stroke-width:50"/><path id="path266" d="m 11500,8848 0,51" style="fill:none;stroke:#000;stroke-width:50"/><path id="path268" d="m 11500,8950 0,51" style="fill:none;stroke:#000;stroke-width:50"/><path id="path270" d="m 11500,9052 0,51" style="fill:none;stroke:#000;stroke-width:50"/><path id="path272" d="m 11500,9154 0,51" style="fill:none;stroke:#000;stroke-width:50"/><path id="path274" d="m 11500,9256 0,51" style="fill:none;stroke:#000;stroke-width:50"/><path id="path276" d="m 11500,9358 0,51" style="fill:none;stroke:#000;stroke-width:50"/><path id="path278" d="m 11500,9460 0,51" style="fill:none;stroke:#000;stroke-width:50"/><path id="path280" d="m 11500,9562 0,51" style="fill:none;stroke:#000;stroke-width:50"/><path id="path282" d="m 11500,9664 0,51" style="fill:none;stroke:#000;stroke-width:50"/><path id="path284" d="m 11500,9766 0,51" style="fill:none;stroke:#000;stroke-width:50"/><path id="path286" d="m 11500,9868 0,51" style="fill:none;stroke:#000;stroke-width:50"/><path id="path288" d="m 11500,9970 0,51" style="fill:none;stroke:#000;stroke-width:50"/><path id="path290" d="m 11500,10072 0,51" style="fill:none;stroke:#000;stroke-width:50"/><path id="path292" d="m 11500,10174 0,51" style="fill:none;stroke:#000;stroke-width:50"/><path id="path294" d="m 11500,10276 0,51" style="fill:none;stroke:#000;stroke-width:50"/><path id="path296" d="m 11500,10378 0,51" style="fill:none;stroke:#000;stroke-width:50"/><path id="path298" d="m 11500,10480 0,20" style="fill:none;stroke:#000;stroke-width:50"/></g></g><g id="g300" class="com.sun.star.drawing.LineShape"><g id="id11"><path id="path303" d="m 1100,1800 51,0" style="fill:none;stroke:#000;stroke-width:50"/><path id="path305" d="m 1202,1800 51,0" style="fill:none;stroke:#000;stroke-width:50"/><path id="path307" d="m 1304,1800 51,0" style="fill:none;stroke:#000;stroke-width:50"/><path id="path309" d="m 1406,1800 51,0" style="fill:none;stroke:#000;stroke-width:50"/><path id="path311" d="m 1508,1800 51,0" style="fill:none;stroke:#000;stroke-width:50"/><path id="path313" d="m 1610,1800 51,0" style="fill:none;stroke:#000;stroke-width:50"/><path id="path315" d="m 1712,1800 51,0" style="fill:none;stroke:#000;stroke-width:50"/><path id="path317" d="m 1814,1800 51,0" style="fill:none;stroke:#000;stroke-width:50"/><path id="path319" d="m 1916,1800 51,0" style="fill:none;stroke:#000;stroke-width:50"/><path id="path321" d="m 2018,1800 51,0" style="fill:none;stroke:#000;stroke-width:50"/><path id="path323" d="m 2120,1800 51,0" style="fill:none;stroke:#000;stroke-width:50"/><path id="path325" d="m 2222,1800 51,0" style="fill:none;stroke:#000;stroke-width:50"/><path id="path327" d="m 2324,1800 51,0" style="fill:none;stroke:#000;stroke-width:50"/><path id="path329" d="m 2426,1800 51,0" style="fill:none;stroke:#000;stroke-width:50"/><path id="path331" d="m 2528,1800 51,0" style="fill:none;stroke:#000;stroke-width:50"/><path id="path333" d="m 2630,1800 51,0" style="fill:none;stroke:#000;stroke-width:50"/><path id="path335" d="m 2732,1800 51,0" style="fill:none;stroke:#000;stroke-width:50"/><path id="path337" d="m 2834,1800 51,0" style="fill:none;stroke:#000;stroke-width:50"/><path id="path339" d="m 2936,1800 51,0" style="fill:none;stroke:#000;stroke-width:50"/><path id="path341" d="m 3038,1800 51,0" style="fill:none;stroke:#000;stroke-width:50"/><path id="path343" d="m 3140,1800 51,0" style="fill:none;stroke:#000;stroke-width:50"/><path id="path345" d="m 3242,1800 51,0" style="fill:none;stroke:#000;stroke-width:50"/><path id="path347" d="m 3344,1800 51,0" style="fill:none;stroke:#000;stroke-width:50"/><path id="path349" d="m 3446,1800 51,0" style="fill:none;stroke:#000;stroke-width:50"/><path id="path351" d="m 3548,1800 51,0" style="fill:none;stroke:#000;stroke-width:50"/><path id="path353" d="m 3650,1800 51,0" style="fill:none;stroke:#000;stroke-width:50"/><path id="path355" d="m 3752,1800 51,0" style="fill:none;stroke:#000;stroke-width:50"/><path id="path357" d="m 3854,1800 51,0" style="fill:none;stroke:#000;stroke-width:50"/><path id="path359" d="m 3956,1800 51,0" style="fill:none;stroke:#000;stroke-width:50"/><path id="path361" d="m 4058,1800 51,0" style="fill:none;stroke:#000;stroke-width:50"/><path id="path363" d="m 4160,1800 51,0" style="fill:none;stroke:#000;stroke-width:50"/><path id="path365" d="m 4262,1800 51,0" style="fill:none;stroke:#000;stroke-width:50"/><path id="path367" d="m 4364,1800 51,0" style="fill:none;stroke:#000;stroke-width:50"/><path id="path369" d="m 4466,1800 51,0" style="fill:none;stroke:#000;stroke-width:50"/><path id="path371" d="m 4568,1800 51,0" style="fill:none;stroke:#000;stroke-width:50"/><path id="path373" d="m 4670,1800 51,0" style="fill:none;stroke:#000;stroke-width:50"/><path id="path375" d="m 4772,1800 51,0" style="fill:none;stroke:#000;stroke-width:50"/><path id="path377" d="m 4874,1800 51,0" style="fill:none;stroke:#000;stroke-width:50"/><path id="path379" d="m 4976,1800 51,0" style="fill:none;stroke:#000;stroke-width:50"/><path id="path381" d="m 5078,1800 51,0" style="fill:none;stroke:#000;stroke-width:50"/><path id="path383" d="m 5180,1800 51,0" style="fill:none;stroke:#000;stroke-width:50"/><path id="path385" d="m 5282,1800 51,0" style="fill:none;stroke:#000;stroke-width:50"/><path id="path387" d="m 5384,1800 51,0" style="fill:none;stroke:#000;stroke-width:50"/><path id="path389" d="m 5486,1800 51,0" style="fill:none;stroke:#000;stroke-width:50"/><path id="path391" d="m 5588,1800 51,0" style="fill:none;stroke:#000;stroke-width:50"/><path id="path393" d="m 5690,1800 51,0" style="fill:none;stroke:#000;stroke-width:50"/><path id="path395" d="m 5792,1800 51,0" style="fill:none;stroke:#000;stroke-width:50"/><path id="path397" d="m 5894,1800 51,0" style="fill:none;stroke:#000;stroke-width:50"/><path id="path399" d="m 5996,1800 51,0" style="fill:none;stroke:#000;stroke-width:50"/><path id="path401" d="m 6098,1800 51,0" style="fill:none;stroke:#000;stroke-width:50"/><path id="path403" d="m 6200,1800 51,0" style="fill:none;stroke:#000;stroke-width:50"/><path id="path405" d="m 6302,1800 51,0" style="fill:none;stroke:#000;stroke-width:50"/><path id="path407" d="m 6404,1800 51,0" style="fill:none;stroke:#000;stroke-width:50"/><path id="path409" d="m 6506,1800 51,0" style="fill:none;stroke:#000;stroke-width:50"/><path id="path411" d="m 6608,1800 51,0" style="fill:none;stroke:#000;stroke-width:50"/><path id="path413" d="m 6710,1800 51,0" style="fill:none;stroke:#000;stroke-width:50"/><path id="path415" d="m 6812,1800 51,0" style="fill:none;stroke:#000;stroke-width:50"/><path id="path417" d="m 6914,1800 51,0" style="fill:none;stroke:#000;stroke-width:50"/><path id="path419" d="m 7016,1800 51,0" style="fill:none;stroke:#000;stroke-width:50"/><path id="path421" d="m 7118,1800 51,0" style="fill:none;stroke:#000;stroke-width:50"/><path id="path423" d="m 7220,1800 51,0" style="fill:none;stroke:#000;stroke-width:50"/><path id="path425" d="m 7322,1800 51,0" style="fill:none;stroke:#000;stroke-width:50"/><path id="path427" d="m 7424,1800 51,0" style="fill:none;stroke:#000;stroke-width:50"/><path id="path429" d="m 7526,1800 51,0" style="fill:none;stroke:#000;stroke-width:50"/><path id="path431" d="m 7628,1800 51,0" style="fill:none;stroke:#000;stroke-width:50"/><path id="path433" d="m 7730,1800 51,0" style="fill:none;stroke:#000;stroke-width:50"/><path id="path435" d="m 7832,1800 51,0" style="fill:none;stroke:#000;stroke-width:50"/><path id="path437" d="m 7934,1800 51,0" style="fill:none;stroke:#000;stroke-width:50"/><path id="path439" d="m 8036,1800 51,0" style="fill:none;stroke:#000;stroke-width:50"/><path id="path441" d="m 8138,1800 51,0" style="fill:none;stroke:#000;stroke-width:50"/><path id="path443" d="m 8240,1800 51,0" style="fill:none;stroke:#000;stroke-width:50"/><path id="path445" d="m 8342,1800 51,0" style="fill:none;stroke:#000;stroke-width:50"/><path id="path447" d="m 8444,1800 51,0" style="fill:none;stroke:#000;stroke-width:50"/><path id="path449" d="m 8546,1800 51,0" style="fill:none;stroke:#000;stroke-width:50"/><path id="path451" d="m 8648,1800 51,0" style="fill:none;stroke:#000;stroke-width:50"/><path id="path453" d="m 8750,1800 51,0" style="fill:none;stroke:#000;stroke-width:50"/><path id="path455" d="m 8852,1800 51,0" style="fill:none;stroke:#000;stroke-width:50"/><path id="path457" d="m 8954,1800 51,0" style="fill:none;stroke:#000;stroke-width:50"/><path id="path459" d="m 9056,1800 51,0" style="fill:none;stroke:#000;stroke-width:50"/><path id="path461" d="m 9158,1800 51,0" style="fill:none;stroke:#000;stroke-width:50"/><path id="path463" d="m 9260,1800 51,0" style="fill:none;stroke:#000;stroke-width:50"/><path id="path465" d="m 9362,1800 51,0" style="fill:none;stroke:#000;stroke-width:50"/><path id="path467" d="m 9464,1800 51,0" style="fill:none;stroke:#000;stroke-width:50"/><path id="path469" d="m 9566,1800 51,0" style="fill:none;stroke:#000;stroke-width:50"/><path id="path471" d="m 9668,1800 51,0" style="fill:none;stroke:#000;stroke-width:50"/><path id="path473" d="m 9770,1800 51,0" style="fill:none;stroke:#000;stroke-width:50"/><path id="path475" d="m 9872,1800 51,0" style="fill:none;stroke:#000;stroke-width:50"/><path id="path477" d="m 9974,1800 51,0" style="fill:none;stroke:#000;stroke-width:50"/><path id="path479" d="m 10076,1800 51,0" style="fill:none;stroke:#000;stroke-width:50"/><path id="path481" d="m 10178,1800 51,0" style="fill:none;stroke:#000;stroke-width:50"/><path id="path483" d="m 10280,1800 51,0" style="fill:none;stroke:#000;stroke-width:50"/><path id="path485" d="m 10382,1800 51,0" style="fill:none;stroke:#000;stroke-width:50"/><path id="path487" d="m 10484,1800 51,0" style="fill:none;stroke:#000;stroke-width:50"/><path id="path489" d="m 10586,1800 51,0" style="fill:none;stroke:#000;stroke-width:50"/><path id="path491" d="m 10688,1800 51,0" style="fill:none;stroke:#000;stroke-width:50"/><path id="path493" d="m 10790,1800 51,0" style="fill:none;stroke:#000;stroke-width:50"/><path id="path495" d="m 10892,1800 51,0" style="fill:none;stroke:#000;stroke-width:50"/><path id="path497" d="m 10994,1800 51,0" style="fill:none;stroke:#000;stroke-width:50"/><path id="path499" d="m 11096,1800 51,0" style="fill:none;stroke:#000;stroke-width:50"/><path id="path501" d="m 11198,1800 51,0" style="fill:none;stroke:#000;stroke-width:50"/><path id="path503" d="m 11300,1800 51,0" style="fill:none;stroke:#000;stroke-width:50"/><path id="path505" d="m 11402,1800 51,0" style="fill:none;stroke:#000;stroke-width:50"/><path id="path507" d="m 11504,1800 51,0" style="fill:none;stroke:#000;stroke-width:50"/><path id="path509" d="m 11606,1800 51,0" style="fill:none;stroke:#000;stroke-width:50"/><path id="path511" d="m 11708,1800 51,0" style="fill:none;stroke:#000;stroke-width:50"/><path id="path513" d="m 11810,1800 51,0" style="fill:none;stroke:#000;stroke-width:50"/><path id="path515" d="m 11912,1800 51,0" style="fill:none;stroke:#000;stroke-width:50"/><path id="path517" d="m 12014,1800 51,0" style="fill:none;stroke:#000;stroke-width:50"/><path id="path519" d="m 12116,1800 51,0" style="fill:none;stroke:#000;stroke-width:50"/><path id="path521" d="m 12218,1800 51,0" style="fill:none;stroke:#000;stroke-width:50"/><path id="path523" d="m 12320,1800 51,0" style="fill:none;stroke:#000;stroke-width:50"/><path id="path525" d="m 12422,1800 51,0" style="fill:none;stroke:#000;stroke-width:50"/><path id="path527" d="m 12524,1800 51,0" style="fill:none;stroke:#000;stroke-width:50"/><path id="path529" d="m 12626,1800 51,0" style="fill:none;stroke:#000;stroke-width:50"/><path id="path531" d="m 12728,1800 51,0" style="fill:none;stroke:#000;stroke-width:50"/><path id="path533" d="m 12830,1800 51,0" style="fill:none;stroke:#000;stroke-width:50"/><path id="path535" d="m 12932,1800 51,0" style="fill:none;stroke:#000;stroke-width:50"/><path id="path537" d="m 13034,1800 51,0" style="fill:none;stroke:#000;stroke-width:50"/><path id="path539" d="m 13136,1800 51,0" style="fill:none;stroke:#000;stroke-width:50"/><path id="path541" d="m 13238,1800 51,0" style="fill:none;stroke:#000;stroke-width:50"/><path id="path543" d="m 13340,1800 51,0" style="fill:none;stroke:#000;stroke-width:50"/><path id="path545" d="m 13442,1800 51,0" style="fill:none;stroke:#000;stroke-width:50"/><path id="path547" d="m 13544,1800 51,0" style="fill:none;stroke:#000;stroke-width:50"/><path id="path549" d="m 13646,1800 51,0" style="fill:none;stroke:#000;stroke-width:50"/><path id="path551" d="m 13748,1800 51,0" style="fill:none;stroke:#000;stroke-width:50"/><path id="path553" d="m 13850,1800 51,0" style="fill:none;stroke:#000;stroke-width:50"/><path id="path555" d="m 13952,1800 51,0" style="fill:none;stroke:#000;stroke-width:50"/><path id="path557" d="m 14054,1800 51,0" style="fill:none;stroke:#000;stroke-width:50"/><path id="path559" d="m 14156,1800 51,0" style="fill:none;stroke:#000;stroke-width:50"/><path id="path561" d="m 14258,1800 51,0" style="fill:none;stroke:#000;stroke-width:50"/><path id="path563" d="m 14360,1800 51,0" style="fill:none;stroke:#000;stroke-width:50"/><path id="path565" d="m 14462,1800 51,0" style="fill:none;stroke:#000;stroke-width:50"/><path id="path567" d="m 14564,1800 51,0" style="fill:none;stroke:#000;stroke-width:50"/><path id="path569" d="m 14666,1800 51,0" style="fill:none;stroke:#000;stroke-width:50"/><path id="path571" d="m 14768,1800 51,0" style="fill:none;stroke:#000;stroke-width:50"/><path id="path573" d="m 14870,1800 51,0" style="fill:none;stroke:#000;stroke-width:50"/><path id="path575" d="m 14972,1800 51,0" style="fill:none;stroke:#000;stroke-width:50"/><path id="path577" d="m 15074,1800 51,0" style="fill:none;stroke:#000;stroke-width:50"/><path id="path579" d="m 15176,1800 51,0" style="fill:none;stroke:#000;stroke-width:50"/><path id="path581" d="m 15278,1800 51,0" style="fill:none;stroke:#000;stroke-width:50"/><path id="path583" d="m 15380,1800 51,0" style="fill:none;stroke:#000;stroke-width:50"/><path id="path585" d="m 15482,1800 51,0" style="fill:none;stroke:#000;stroke-width:50"/><path id="path587" d="m 15584,1800 51,0" style="fill:none;stroke:#000;stroke-width:50"/><path id="path589" d="m 15686,1800 51,0" style="fill:none;stroke:#000;stroke-width:50"/><path id="path591" d="m 15788,1800 51,0" style="fill:none;stroke:#000;stroke-width:50"/><path id="path593" d="m 15890,1800 51,0" style="fill:none;stroke:#000;stroke-width:50"/><path id="path595" d="m 15992,1800 51,0" style="fill:none;stroke:#000;stroke-width:50"/><path id="path597" d="m 16094,1800 51,0" style="fill:none;stroke:#000;stroke-width:50"/><path id="path599" d="m 16196,1800 51,0" style="fill:none;stroke:#000;stroke-width:50"/><path id="path601" d="m 16298,1800 51,0" style="fill:none;stroke:#000;stroke-width:50"/><path id="path603" d="m 16400,1800 51,0" style="fill:none;stroke:#000;stroke-width:50"/><path id="path605" d="m 16502,1800 51,0" style="fill:none;stroke:#000;stroke-width:50"/><path id="path607" d="m 16604,1800 51,0" style="fill:none;stroke:#000;stroke-width:50"/><path id="path609" d="m 16706,1800 51,0" style="fill:none;stroke:#000;stroke-width:50"/><path id="path611" d="m 16808,1800 51,0" style="fill:none;stroke:#000;stroke-width:50"/></g></g><g id="g613" class="com.sun.star.drawing.TextShape"><g id="id12"><text id="text616" class="TextShape"><tspan id="tspan618" class="TextParagraph" font-size="388" font-weight="400" style="font-size:388px;font-weight:400;font-family:'Arial, sans-serif'"><tspan id="tspan620" x="5951" y="1494" class="TextPosition"><tspan id="tspan622" style="fill:#000;stroke:none">local</tspan></tspan></tspan></text></g></g><g id="g624" class="com.sun.star.drawing.TextShape"><g id="id13"><text id="text627" class="TextShape"><tspan id="tspan629" class="TextParagraph" font-size="388" font-weight="400" style="font-size:388px;font-weight:400;font-family:'Arial, sans-serif'"><tspan id="tspan631" x="13696" y="1495" class="TextPosition"><tspan id="tspan633" style="fill:#000;stroke:none">GitHub</tspan></tspan></tspan></text></g></g><g id="g635" class="com.sun.star.drawing.CustomShape"><g id="id14"><path id="path638" d="m 13750,4148 1400,0 0,1575 -175,225 -1225,0 0,-1800 z" style="fill:none;stroke:#000;stroke-width:50"/><path id="path640" d="m 14975,5948 46,-225 c 44,33 42,14 129,0 l -175,225 z" style="fill:none;stroke:#000;stroke-width:50"/></g></g><g id="g642" class="com.sun.star.drawing.TextShape"><g id="id15"><text id="text645" class="TextShape"><tspan id="tspan647" class="TextParagraph" font-size="388" font-weight="400" style="font-size:388px;font-weight:400;font-family:'Arial, sans-serif'"><tspan id="tspan649" x="13759" y="6794" class="TextPosition"><tspan id="tspan651" style="fill:#000;stroke:none">mars.txt</tspan></tspan></tspan></text></g></g><g id="g653" class="com.sun.star.drawing.LineShape"><g id="id16"><path id="path656" d="m 14000,4598 900,0" style="fill:none;stroke:#000;stroke-width:50"/></g></g><g id="g658" class="com.sun.star.drawing.LineShape"><g id="id17"><path id="path661" d="m 14000,4898 900,0" style="fill:none;stroke:#000;stroke-width:50"/></g></g><g id="g663" class="com.sun.star.drawing.LineShape"><g id="id18"><path id="path666" d="m 14000,5198 900,0" style="fill:none;stroke:#000;stroke-width:50"/></g></g><g id="g668" class="com.sun.star.drawing.CustomShape"><g id="id19"><path id="path671" d="m 7850,4147 1400,0 0,1575 -175,225 -1225,0 0,-1800 z" style="fill:none;stroke:#000;stroke-width:50"/><path id="path673" d="m 9075,5947 46,-225 c 44,33 42,14 129,0 l -175,225 z" style="fill:none;stroke:#000;stroke-width:50"/></g></g><g id="g675" class="com.sun.star.drawing.TextShape"><g id="id20"><text id="text678" class="TextShape"><tspan id="tspan680" class="TextParagraph" font-size="388" font-weight="400" style="font-size:388px;font-weight:400;font-family:'Arial, sans-serif'"><tspan id="tspan682" x="7859" y="6793" class="TextPosition"><tspan id="tspan684" style="fill:#000;stroke:none">mars.txt</tspan></tspan></tspan></text></g></g><g id="g686" class="com.sun.star.drawing.LineShape"><g id="id21"><path id="path689" d="m 8100,4597 900,0" style="fill:none;stroke:#000;stroke-width:50"/></g></g><g id="g691" class="com.sun.star.drawing.LineShape"><g id="id22"><path id="path694" d="m 8100,4897 900,0" style="fill:none;stroke:#000;stroke-width:50"/></g></g><g id="g696" class="com.sun.star.drawing.LineShape"><g id="id23"><path id="path699" d="m 8100,5197 900,0" style="fill:none;stroke:#000;stroke-width:50"/></g></g><g id="g701" class="com.sun.star.drawing.CustomShape"><g id="id24"><path id="path704" d="m 6900,2300 c -100,0 -200,100 -200,200 l 0,800 c 0,100 100,201 200,201 l 3300,0 c 100,0 201,-101 201,-201 l 0,-800 c 0,-100 -101,-200 -201,-200 l -3300,0 z" style="fill:none;stroke:#000;stroke-width:50"/><text id="text706" class="TextShape"><tspan id="tspan708" class="TextParagraph" font-size="388" font-weight="400" style="font-size:388px;font-weight:400;font-family:'Arial, sans-serif'"><tspan id="tspan710" x="7494" y="3035" class="TextPosition"><tspan id="tspan712" style="fill:#000;stroke:none">/tmp/planets</tspan></tspan></tspan></text></g></g><g id="g714" class="com.sun.star.drawing.CustomShape"><g id="id25"><path id="path717" d="m 7850,7448 1400,0 0,1575 -175,225 -1225,0 0,-1800 z" style="fill:none;stroke:#000;stroke-width:50"/><path id="path719" d="m 9075,9248 46,-225 c 44,33 42,14 129,0 l -175,225 z" style="fill:none;stroke:#000;stroke-width:50"/></g></g><g id="g721" class="com.sun.star.drawing.TextShape"><g id="id26"><text id="text724" class="TextShape"><tspan id="tspan726" class="TextParagraph" font-size="388" font-weight="400" style="font-size:388px;font-weight:400;font-family:'Arial, sans-serif'"><tspan id="tspan728" x="7859" y="10094" class="TextPosition"><tspan id="tspan730" style="fill:#000;stroke:none">pluto.txt</tspan></tspan></tspan></text></g></g><g id="g732" class="com.sun.star.drawing.LineShape"><g id="id27"><path id="path735" d="m 8100,7898 900,0" style="fill:none;stroke:#000;stroke-width:50"/></g></g><g id="g737" class="com.sun.star.drawing.LineShape"><g id="id28"><path id="path740" d="m 8100,8198 900,0" style="fill:none;stroke:#000;stroke-width:50"/></g></g><g id="g742" class="com.sun.star.drawing.LineShape"><g id="id29"><path id="path745" d="m 8100,8498 900,0" style="fill:none;stroke:#000;stroke-width:50"/></g></g><g id="g747" class="com.sun.star.drawing.CustomShape"><g id="id30"><path id="path750" d="m 13751,7449 1400,0 0,1575 -175,225 -1225,0 0,-1800 z" style="fill:none;stroke:#000;stroke-width:50"/><path id="path752" d="m 14976,9249 46,-225 c 44,33 42,14 129,0 l -175,225 z" style="fill:none;stroke:#000;stroke-width:50"/></g></g><g id="g754" class="com.sun.star.drawing.TextShape"><g id="id31"><text id="text757" class="TextShape"><tspan id="tspan759" class="TextParagraph" font-size="388" font-weight="400" style="font-size:388px;font-weight:400;font-family:'Arial, sans-serif'"><tspan id="tspan761" x="13760" y="10095" class="TextPosition"><tspan id="tspan763" style="fill:#000;stroke:none">pluto.txt</tspan></tspan></tspan></text></g></g><g id="g765" class="com.sun.star.drawing.LineShape"><g id="id32"><path id="path768" d="m 14001,7899 900,0" style="fill:none;stroke:#000;stroke-width:50"/></g></g><g id="g770" class="com.sun.star.drawing.LineShape"><g id="id33"><path id="path773" d="m 14001,8199 900,0" style="fill:none;stroke:#000;stroke-width:50"/></g></g><g id="g775" class="com.sun.star.drawing.LineShape"><g id="id34"><path id="path778" d="m 14001,8499 900,0" style="fill:none;stroke:#000;stroke-width:50"/></g></g><g id="g780" class="com.sun.star.drawing.CustomShape"><g id="id35"><path id="path783" d="m 10400,6775 1500,0 0,-275 501,550 -501,551 0,-276 -1500,0 0,-550 z" style="fill:none;stroke:#000;stroke-width:50"/></g></g></g></g></g></g></svg>