<svg xmlns="http://www.w3.org/2000/svg" xmlns:ooo="http://xml.openoffice.org/svg/export" xmlns:svg="http://www.w3.org/2000/svg" id="svg4999" width="560.161" height="233.485" clip-path="url(#presentation_clip_path)" style="fill-rule:evenodd;stroke-width:28.22200012;stroke-linejoin:round" preserveAspectRatio="xMidYMid" version="1.2" viewBox="0 0 15809.001 6589.475" xml:space="preserve"><metadata id="metadata5664"/><defs id="defs5001" class="ClipPathGroup"><clipPath id="presentation_clip_path" clipPathUnits="userSpaceOnUse"><rect id="rect5004" width="21590" height="27940" x="0" y="0"/></clipPath></defs><defs id="defs5010" class="EmbeddedBulletChars"><g id="bullet-char-template(57356)" transform="scale(4.8828125e-4,-4.8828125e-4)"><path id="path5013" d="M 580,1141 1163,571 580,0 -4,571 580,1141 z"/></g><g id="bullet-char-template(57354)" transform="scale(4.8828125e-4,-4.8828125e-4)"><path id="path5016" d="m 8,1128 1129,0 L 1137,0 8,0 8,1128 z"/></g><g id="bullet-char-template(10146)" transform="scale(4.8828125e-4,-4.8828125e-4)"><path id="path5019" d="M 174,0 602,739 174,1481 1456,739 174,0 z m 1184,739 -1049,607 350,-607 699,0 z"/></g><g id="bullet-char-template(10132)" transform="scale(4.8828125e-4,-4.8828125e-4)"><path id="path5022" d="M 2015,739 1276,0 717,0 l 543,543 -1086,0 0,393 1086,0 -543,545 557,0 741,-742 z"/></g><g id="bullet-char-template(10007)" transform="scale(4.8828125e-4,-4.8828125e-4)"><path id="path5025" d="m 0,-2 c -7,16 -16,29 -25,39 l 381,530 c -94,256 -141,385 -141,387 0,25 13,38 40,38 9,0 21,-2 34,-5 21,4 42,12 65,25 l 27,-13 111,-251 280,301 64,-25 24,25 c 21,-10 41,-24 62,-43 C 886,937 835,863 770,784 769,783 710,716 594,584 L 774,223 c 0,-27 -21,-55 -63,-84 l 16,-20 C 717,90 699,76 672,76 641,76 570,178 457,381 L 164,-76 c -22,-34 -53,-51 -92,-51 -42,0 -63,17 -64,51 -7,9 -10,24 -10,44 0,9 1,19 2,30 z"/></g><g id="bullet-char-template(10004)" transform="scale(4.8828125e-4,-4.8828125e-4)"><path id="path5028" d="M 285,-33 C 182,-33 111,30 74,156 52,228 41,333 41,471 c 0,78 14,145 41,201 34,71 87,106 158,106 53,0 88,-31 106,-94 l 23,-176 c 8,-64 28,-97 59,-98 l 735,706 c 11,11 33,17 66,17 42,0 63,-15 63,-46 l 0,-122 c 0,-36 -10,-64 -30,-84 L 442,47 C 390,-6 338,-33 285,-33 z"/></g><g id="bullet-char-template(9679)" transform="scale(4.8828125e-4,-4.8828125e-4)"><path id="path5031" d="M 813,0 C 632,0 489,54 383,161 276,268 223,411 223,592 c 0,181 53,324 160,431 106,107 249,161 430,161 179,0 323,-54 432,-161 108,-107 162,-251 162,-431 0,-180 -54,-324 -162,-431 C 1136,54 992,0 813,0 z"/></g><g id="bullet-char-template(8226)" transform="scale(4.8828125e-4,-4.8828125e-4)"><path id="path5034" d="m 346,457 c -73,0 -137,26 -191,78 -54,51 -81,114 -81,188 0,73 27,136 81,188 54,52 118,78 191,78 73,0 134,-26 185,-79 51,-51 77,-114 77,-187 0,-75 -25,-137 -76,-188 -50,-52 -112,-78 -186,-78 z"/></g><g id="bullet-char-template(8211)" transform="scale(4.8828125e-4,-4.8828125e-4)"><path id="path5037" d="m -4,459 1139,0 0,147 -1139,0 0,-147 z"/></g></defs><g id="g5046" class="SlideGroup" transform="translate(-1075,-1212.5254)"><g id="g5048"><g id="id1" class="Slide" clip-path="url(#presentation_clip_path)"><g id="g5051" class="Page"><g id="g5053" class="com.sun.star.drawing.CustomShape"><g id="id3"><path id="path5056" d="m 2750,4147 1400,0 0,1575 -175,225 -1225,0 0,-1800 z" style="fill:none;stroke:#000;stroke-width:50"/><path id="path5058" d="m 3975,5947 46,-225 c 44,33 42,14 129,0 l -175,225 z" style="fill:none;stroke:#000;stroke-width:50"/></g></g><g id="g5060" class="com.sun.star.drawing.TextShape"><g id="id4"><text id="text5063" class="TextShape"><tspan id="tspan5065" class="TextParagraph" font-size="388" font-weight="400" style="font-size:388px;font-weight:400;font-family:'Arial, sans-serif'"><tspan id="tspan5067" x="2759" y="6793" class="TextPosition"><tspan id="tspan5069" style="fill:#000;stroke:none">mars.txt</tspan></tspan></tspan></text></g></g><g id="g5071" class="com.sun.star.drawing.LineShape"><g id="id5"><path id="path5074" d="m 3000,4597 900,0" style="fill:none;stroke:#000;stroke-width:50"/></g></g><g id="g5076" class="com.sun.star.drawing.LineShape"><g id="id6"><path id="path5079" d="m 3000,4897 900,0" style="fill:none;stroke:#000;stroke-width:50"/></g></g><g id="g5081" class="com.sun.star.drawing.LineShape"><g id="id7"><path id="path5084" d="m 3000,5197 900,0" style="fill:none;stroke:#000;stroke-width:50"/></g></g><g id="g5086" class="com.sun.star.drawing.CustomShape"><g id="id8"><path id="path5089" d="m 1800,2300 c -100,0 -200,100 -200,200 l 0,800 c 0,100 100,201 200,201 l 3300,0 c 100,0 201,-101 201,-201 l 0,-800 c 0,-100 -101,-200 -201,-200 l -3300,0 z" style="fill:none;stroke:#000;stroke-width:50"/><text id="text5091" class="TextShape"><tspan id="tspan5093" class="TextParagraph" font-size="388" font-weight="400" style="font-size:388px;font-weight:400;font-family:'Arial, sans-serif'"><tspan id="tspan5095" x="1822" y="3035" class="TextPosition"><tspan id="tspan5097" style="fill:#000;stroke:none">/home/vlad/planets</tspan></tspan></tspan></text></g></g><g id="g5099" class="com.sun.star.drawing.CustomShape"><g id="id9"><path id="path5102" d="m 12650,2300 c -100,0 -200,100 -200,200 l 0,800 c 0,100 100,201 200,201 l 3300,0 c 100,0 201,-101 201,-201 l 0,-800 c 0,-100 -101,-200 -201,-200 l -3300,0 z" style="fill:none;stroke:#000;stroke-width:50"/><text id="text5104" class="TextShape"><tspan id="tspan5106" class="TextParagraph" font-size="388" font-weight="400" style="font-size:388px;font-weight:400;font-family:'Arial, sans-serif'"><tspan id="tspan5108" x="12564" y="3035" class="TextPosition"><tspan id="tspan5110" style="fill:#000;stroke:none">/somewhere/planets</tspan></tspan></tspan></text></g></g><g id="g5112" class="com.sun.star.drawing.LineShape"><g id="id10"><path id="path5115" d="m 11500,1300 0,51" style="fill:none;stroke:#000;stroke-width:50"/><path id="path5117" d="m 11500,1402 0,51" style="fill:none;stroke:#000;stroke-width:50"/><path id="path5119" d="m 11500,1504 0,51" style="fill:none;stroke:#000;stroke-width:50"/><path id="path5121" d="m 11500,1606 0,51" style="fill:none;stroke:#000;stroke-width:50"/><path id="path5123" d="m 11500,1708 0,51" style="fill:none;stroke:#000;stroke-width:50"/><path id="path5125" d="m 11500,1810 0,51" style="fill:none;stroke:#000;stroke-width:50"/><path id="path5127" d="m 11500,1912 0,51" style="fill:none;stroke:#000;stroke-width:50"/><path id="path5129" d="m 11500,2014 0,51" style="fill:none;stroke:#000;stroke-width:50"/><path id="path5131" d="m 11500,2116 0,51" style="fill:none;stroke:#000;stroke-width:50"/><path id="path5133" d="m 11500,2218 0,51" style="fill:none;stroke:#000;stroke-width:50"/><path id="path5135" d="m 11500,2320 0,51" style="fill:none;stroke:#000;stroke-width:50"/><path id="path5137" d="m 11500,2422 0,51" style="fill:none;stroke:#000;stroke-width:50"/><path id="path5139" d="m 11500,2524 0,51" style="fill:none;stroke:#000;stroke-width:50"/><path id="path5141" d="m 11500,2626 0,51" style="fill:none;stroke:#000;stroke-width:50"/><path id="path5143" d="m 11500,2728 0,51" style="fill:none;stroke:#000;stroke-width:50"/><path id="path5145" d="m 11500,2830 0,51" style="fill:none;stroke:#000;stroke-width:50"/><path id="path5147" d="m 11500,2932 0,51" style="fill:none;stroke:#000;stroke-width:50"/><path id="path5149" d="m 11500,3034 0,51" style="fill:none;stroke:#000;stroke-width:50"/><path id="path5151" d="m 11500,3136 0,51" style="fill:none;stroke:#000;stroke-width:50"/><path id="path5153" d="m 11500,3238 0,51" style="fill:none;stroke:#000;stroke-width:50"/><path id="path5155" d="m 11500,3340 0,51" style="fill:none;stroke:#000;stroke-width:50"/><path id="path5157" d="m 11500,3442 0,51" style="fill:none;stroke:#000;stroke-width:50"/><path id="path5159" d="m 11500,3544 0,51" style="fill:none;stroke:#000;stroke-width:50"/><path id="path5161" d="m 11500,3646 0,51" style="fill:none;stroke:#000;stroke-width:50"/><path id="path5163" d="m 11500,3748 0,51" style="fill:none;stroke:#000;stroke-width:50"/><path id="path5165" d="m 11500,3850 0,51" style="fill:none;stroke:#000;stroke-width:50"/><path id="path5167" d="m 11500,3952 0,51" style="fill:none;stroke:#000;stroke-width:50"/><path id="path5169" d="m 11500,4054 0,51" style="fill:none;stroke:#000;stroke-width:50"/><path id="path5171" d="m 11500,4156 0,51" style="fill:none;stroke:#000;stroke-width:50"/><path id="path5173" d="m 11500,4258 0,51" style="fill:none;stroke:#000;stroke-width:50"/><path id="path5175" d="m 11500,4360 0,51" style="fill:none;stroke:#000;stroke-width:50"/><path id="path5177" d="m 11500,4462 0,51" style="fill:none;stroke:#000;stroke-width:50"/><path id="path5179" d="m 11500,4564 0,51" style="fill:none;stroke:#000;stroke-width:50"/><path id="path5181" d="m 11500,4666 0,51" style="fill:none;stroke:#000;stroke-width:50"/><path id="path5183" d="m 11500,4768 0,51" style="fill:none;stroke:#000;stroke-width:50"/><path id="path5185" d="m 11500,4870 0,51" style="fill:none;stroke:#000;stroke-width:50"/><path id="path5187" d="m 11500,4972 0,51" style="fill:none;stroke:#000;stroke-width:50"/><path id="path5189" d="m 11500,5074 0,51" style="fill:none;stroke:#000;stroke-width:50"/><path id="path5191" d="m 11500,5176 0,51" style="fill:none;stroke:#000;stroke-width:50"/><path id="path5193" d="m 11500,5278 0,51" style="fill:none;stroke:#000;stroke-width:50"/><path id="path5195" d="m 11500,5380 0,51" style="fill:none;stroke:#000;stroke-width:50"/><path id="path5197" d="m 11500,5482 0,51" style="fill:none;stroke:#000;stroke-width:50"/><path id="path5199" d="m 11500,5584 0,51" style="fill:none;stroke:#000;stroke-width:50"/><path id="path5201" d="m 11500,5686 0,51" style="fill:none;stroke:#000;stroke-width:50"/><path id="path5203" d="m 11500,5788 0,51" style="fill:none;stroke:#000;stroke-width:50"/><path id="path5205" d="m 11500,5890 0,51" style="fill:none;stroke:#000;stroke-width:50"/><path id="path5207" d="m 11500,5992 0,51" style="fill:none;stroke:#000;stroke-width:50"/><path id="path5209" d="m 11500,6094 0,51" style="fill:none;stroke:#000;stroke-width:50"/><path id="path5211" d="m 11500,6196 0,51" style="fill:none;stroke:#000;stroke-width:50"/><path id="path5213" d="m 11500,6298 0,51" style="fill:none;stroke:#000;stroke-width:50"/><path id="path5215" d="m 11500,6400 0,51" style="fill:none;stroke:#000;stroke-width:50"/><path id="path5217" d="m 11500,6502 0,51" style="fill:none;stroke:#000;stroke-width:50"/><path id="path5219" d="m 11500,6604 0,51" style="fill:none;stroke:#000;stroke-width:50"/><path id="path5221" d="m 11500,6706 0,51" style="fill:none;stroke:#000;stroke-width:50"/><path id="path5223" d="m 11500,6808 0,51" style="fill:none;stroke:#000;stroke-width:50"/><path id="path5225" d="m 11500,6910 0,51" style="fill:none;stroke:#000;stroke-width:50"/><path id="path5227" d="m 11500,7012 0,51" style="fill:none;stroke:#000;stroke-width:50"/><path id="path5229" d="m 11500,7114 0,51" style="fill:none;stroke:#000;stroke-width:50"/><path id="path5231" d="m 11500,7216 0,51" style="fill:none;stroke:#000;stroke-width:50"/><path id="path5233" d="m 11500,7318 0,51" style="fill:none;stroke:#000;stroke-width:50"/><path id="path5235" d="m 11500,7420 0,51" style="fill:none;stroke:#000;stroke-width:50"/><path id="path5237" d="m 11500,7522 0,51" style="fill:none;stroke:#000;stroke-width:50"/><path id="path5239" d="m 11500,7624 0,51" style="fill:none;stroke:#000;stroke-width:50"/><path id="path5241" d="m 11500,7726 0,51" style="fill:none;stroke:#000;stroke-width:50"/></g></g><g id="g5243" class="com.sun.star.drawing.LineShape"><g id="id11"><path id="path5246" d="m 1100,1800 51,0" style="fill:none;stroke:#000;stroke-width:50"/><path id="path5248" d="m 1202,1800 51,0" style="fill:none;stroke:#000;stroke-width:50"/><path id="path5250" d="m 1304,1800 51,0" style="fill:none;stroke:#000;stroke-width:50"/><path id="path5252" d="m 1406,1800 51,0" style="fill:none;stroke:#000;stroke-width:50"/><path id="path5254" d="m 1508,1800 51,0" style="fill:none;stroke:#000;stroke-width:50"/><path id="path5256" d="m 1610,1800 51,0" style="fill:none;stroke:#000;stroke-width:50"/><path id="path5258" d="m 1712,1800 51,0" style="fill:none;stroke:#000;stroke-width:50"/><path id="path5260" d="m 1814,1800 51,0" style="fill:none;stroke:#000;stroke-width:50"/><path id="path5262" d="m 1916,1800 51,0" style="fill:none;stroke:#000;stroke-width:50"/><path id="path5264" d="m 2018,1800 51,0" style="fill:none;stroke:#000;stroke-width:50"/><path id="path5266" d="m 2120,1800 51,0" style="fill:none;stroke:#000;stroke-width:50"/><path id="path5268" d="m 2222,1800 51,0" style="fill:none;stroke:#000;stroke-width:50"/><path id="path5270" d="m 2324,1800 51,0" style="fill:none;stroke:#000;stroke-width:50"/><path id="path5272" d="m 2426,1800 51,0" style="fill:none;stroke:#000;stroke-width:50"/><path id="path5274" d="m 2528,1800 51,0" style="fill:none;stroke:#000;stroke-width:50"/><path id="path5276" d="m 2630,1800 51,0" style="fill:none;stroke:#000;stroke-width:50"/><path id="path5278" d="m 2732,1800 51,0" style="fill:none;stroke:#000;stroke-width:50"/><path id="path5280" d="m 2834,1800 51,0" style="fill:none;stroke:#000;stroke-width:50"/><path id="path5282" d="m 2936,1800 51,0" style="fill:none;stroke:#000;stroke-width:50"/><path id="path5284" d="m 3038,1800 51,0" style="fill:none;stroke:#000;stroke-width:50"/><path id="path5286" d="m 3140,1800 51,0" style="fill:none;stroke:#000;stroke-width:50"/><path id="path5288" d="m 3242,1800 51,0" style="fill:none;stroke:#000;stroke-width:50"/><path id="path5290" d="m 3344,1800 51,0" style="fill:none;stroke:#000;stroke-width:50"/><path id="path5292" d="m 3446,1800 51,0" style="fill:none;stroke:#000;stroke-width:50"/><path id="path5294" d="m 3548,1800 51,0" style="fill:none;stroke:#000;stroke-width:50"/><path id="path5296" d="m 3650,1800 51,0" style="fill:none;stroke:#000;stroke-width:50"/><path id="path5298" d="m 3752,1800 51,0" style="fill:none;stroke:#000;stroke-width:50"/><path id="path5300" d="m 3854,1800 51,0" style="fill:none;stroke:#000;stroke-width:50"/><path id="path5302" d="m 3956,1800 51,0" style="fill:none;stroke:#000;stroke-width:50"/><path id="path5304" d="m 4058,1800 51,0" style="fill:none;stroke:#000;stroke-width:50"/><path id="path5306" d="m 4160,1800 51,0" style="fill:none;stroke:#000;stroke-width:50"/><path id="path5308" d="m 4262,1800 51,0" style="fill:none;stroke:#000;stroke-width:50"/><path id="path5310" d="m 4364,1800 51,0" style="fill:none;stroke:#000;stroke-width:50"/><path id="path5312" d="m 4466,1800 51,0" style="fill:none;stroke:#000;stroke-width:50"/><path id="path5314" d="m 4568,1800 51,0" style="fill:none;stroke:#000;stroke-width:50"/><path id="path5316" d="m 4670,1800 51,0" style="fill:none;stroke:#000;stroke-width:50"/><path id="path5318" d="m 4772,1800 51,0" style="fill:none;stroke:#000;stroke-width:50"/><path id="path5320" d="m 4874,1800 51,0" style="fill:none;stroke:#000;stroke-width:50"/><path id="path5322" d="m 4976,1800 51,0" style="fill:none;stroke:#000;stroke-width:50"/><path id="path5324" d="m 5078,1800 51,0" style="fill:none;stroke:#000;stroke-width:50"/><path id="path5326" d="m 5180,1800 51,0" style="fill:none;stroke:#000;stroke-width:50"/><path id="path5328" d="m 5282,1800 51,0" style="fill:none;stroke:#000;stroke-width:50"/><path id="path5330" d="m 5384,1800 51,0" style="fill:none;stroke:#000;stroke-width:50"/><path id="path5332" d="m 5486,1800 51,0" style="fill:none;stroke:#000;stroke-width:50"/><path id="path5334" d="m 5588,1800 51,0" style="fill:none;stroke:#000;stroke-width:50"/><path id="path5336" d="m 5690,1800 51,0" style="fill:none;stroke:#000;stroke-width:50"/><path id="path5338" d="m 5792,1800 51,0" style="fill:none;stroke:#000;stroke-width:50"/><path id="path5340" d="m 5894,1800 51,0" style="fill:none;stroke:#000;stroke-width:50"/><path id="path5342" d="m 5996,1800 51,0" style="fill:none;stroke:#000;stroke-width:50"/><path id="path5344" d="m 6098,1800 51,0" style="fill:none;stroke:#000;stroke-width:50"/><path id="path5346" d="m 6200,1800 51,0" style="fill:none;stroke:#000;stroke-width:50"/><path id="path5348" d="m 6302,1800 51,0" style="fill:none;stroke:#000;stroke-width:50"/><path id="path5350" d="m 6404,1800 51,0" style="fill:none;stroke:#000;stroke-width:50"/><path id="path5352" d="m 6506,1800 51,0" style="fill:none;stroke:#000;stroke-width:50"/><path id="path5354" d="m 6608,1800 51,0" style="fill:none;stroke:#000;stroke-width:50"/><path id="path5356" d="m 6710,1800 51,0" style="fill:none;stroke:#000;stroke-width:50"/><path id="path5358" d="m 6812,1800 51,0" style="fill:none;stroke:#000;stroke-width:50"/><path id="path5360" d="m 6914,1800 51,0" style="fill:none;stroke:#000;stroke-width:50"/><path id="path5362" d="m 7016,1800 51,0" style="fill:none;stroke:#000;stroke-width:50"/><path id="path5364" d="m 7118,1800 51,0" style="fill:none;stroke:#000;stroke-width:50"/><path id="path5366" d="m 7220,1800 51,0" style="fill:none;stroke:#000;stroke-width:50"/><path id="path5368" d="m 7322,1800 51,0" style="fill:none;stroke:#000;stroke-width:50"/><path id="path5370" d="m 7424,1800 51,0" style="fill:none;stroke:#000;stroke-width:50"/><path id="path5372" d="m 7526,1800 51,0" style="fill:none;stroke:#000;stroke-width:50"/><path id="path5374" d="m 7628,1800 51,0" style="fill:none;stroke:#000;stroke-width:50"/><path id="path5376" d="m 7730,1800 51,0" style="fill:none;stroke:#000;stroke-width:50"/><path id="path5378" d="m 7832,1800 51,0" style="fill:none;stroke:#000;stroke-width:50"/><path id="path5380" d="m 7934,1800 51,0" style="fill:none;stroke:#000;stroke-width:50"/><path id="path5382" d="m 8036,1800 51,0" style="fill:none;stroke:#000;stroke-width:50"/><path id="path5384" d="m 8138,1800 51,0" style="fill:none;stroke:#000;stroke-width:50"/><path id="path5386" d="m 8240,1800 51,0" style="fill:none;stroke:#000;stroke-width:50"/><path id="path5388" d="m 8342,1800 51,0" style="fill:none;stroke:#000;stroke-width:50"/><path id="path5390" d="m 8444,1800 51,0" style="fill:none;stroke:#000;stroke-width:50"/><path id="path5392" d="m 8546,1800 51,0" style="fill:none;stroke:#000;stroke-width:50"/><path id="path5394" d="m 8648,1800 51,0" style="fill:none;stroke:#000;stroke-width:50"/><path id="path5396" d="m 8750,1800 51,0" style="fill:none;stroke:#000;stroke-width:50"/><path id="path5398" d="m 8852,1800 51,0" style="fill:none;stroke:#000;stroke-width:50"/><path id="path5400" d="m 8954,1800 51,0" style="fill:none;stroke:#000;stroke-width:50"/><path id="path5402" d="m 9056,1800 51,0" style="fill:none;stroke:#000;stroke-width:50"/><path id="path5404" d="m 9158,1800 51,0" style="fill:none;stroke:#000;stroke-width:50"/><path id="path5406" d="m 9260,1800 51,0" style="fill:none;stroke:#000;stroke-width:50"/><path id="path5408" d="m 9362,1800 51,0" style="fill:none;stroke:#000;stroke-width:50"/><path id="path5410" d="m 9464,1800 51,0" style="fill:none;stroke:#000;stroke-width:50"/><path id="path5412" d="m 9566,1800 51,0" style="fill:none;stroke:#000;stroke-width:50"/><path id="path5414" d="m 9668,1800 51,0" style="fill:none;stroke:#000;stroke-width:50"/><path id="path5416" d="m 9770,1800 51,0" style="fill:none;stroke:#000;stroke-width:50"/><path id="path5418" d="m 9872,1800 51,0" style="fill:none;stroke:#000;stroke-width:50"/><path id="path5420" d="m 9974,1800 51,0" style="fill:none;stroke:#000;stroke-width:50"/><path id="path5422" d="m 10076,1800 51,0" style="fill:none;stroke:#000;stroke-width:50"/><path id="path5424" d="m 10178,1800 51,0" style="fill:none;stroke:#000;stroke-width:50"/><path id="path5426" d="m 10280,1800 51,0" style="fill:none;stroke:#000;stroke-width:50"/><path id="path5428" d="m 10382,1800 51,0" style="fill:none;stroke:#000;stroke-width:50"/><path id="path5430" d="m 10484,1800 51,0" style="fill:none;stroke:#000;stroke-width:50"/><path id="path5432" d="m 10586,1800 51,0" style="fill:none;stroke:#000;stroke-width:50"/><path id="path5434" d="m 10688,1800 51,0" style="fill:none;stroke:#000;stroke-width:50"/><path id="path5436" d="m 10790,1800 51,0" style="fill:none;stroke:#000;stroke-width:50"/><path id="path5438" d="m 10892,1800 51,0" style="fill:none;stroke:#000;stroke-width:50"/><path id="path5440" d="m 10994,1800 51,0" style="fill:none;stroke:#000;stroke-width:50"/><path id="path5442" d="m 11096,1800 51,0" style="fill:none;stroke:#000;stroke-width:50"/><path id="path5444" d="m 11198,1800 51,0" style="fill:none;stroke:#000;stroke-width:50"/><path id="path5446" d="m 11300,1800 51,0" style="fill:none;stroke:#000;stroke-width:50"/><path id="path5448" d="m 11402,1800 51,0" style="fill:none;stroke:#000;stroke-width:50"/><path id="path5450" d="m 11504,1800 51,0" style="fill:none;stroke:#000;stroke-width:50"/><path id="path5452" d="m 11606,1800 51,0" style="fill:none;stroke:#000;stroke-width:50"/><path id="path5454" d="m 11708,1800 51,0" style="fill:none;stroke:#000;stroke-width:50"/><path id="path5456" d="m 11810,1800 51,0" style="fill:none;stroke:#000;stroke-width:50"/><path id="path5458" d="m 11912,1800 51,0" style="fill:none;stroke:#000;stroke-width:50"/><path id="path5460" d="m 12014,1800 51,0" style="fill:none;stroke:#000;stroke-width:50"/><path id="path5462" d="m 12116,1800 51,0" style="fill:none;stroke:#000;stroke-width:50"/><path id="path5464" d="m 12218,1800 51,0" style="fill:none;stroke:#000;stroke-width:50"/><path id="path5466" d="m 12320,1800 51,0" style="fill:none;stroke:#000;stroke-width:50"/><path id="path5468" d="m 12422,1800 51,0" style="fill:none;stroke:#000;stroke-width:50"/><path id="path5470" d="m 12524,1800 51,0" style="fill:none;stroke:#000;stroke-width:50"/><path id="path5472" d="m 12626,1800 51,0" style="fill:none;stroke:#000;stroke-width:50"/><path id="path5474" d="m 12728,1800 51,0" style="fill:none;stroke:#000;stroke-width:50"/><path id="path5476" d="m 12830,1800 51,0" style="fill:none;stroke:#000;stroke-width:50"/><path id="path5478" d="m 12932,1800 51,0" style="fill:none;stroke:#000;stroke-width:50"/><path id="path5480" d="m 13034,1800 51,0" style="fill:none;stroke:#000;stroke-width:50"/><path id="path5482" d="m 13136,1800 51,0" style="fill:none;stroke:#000;stroke-width:50"/><path id="path5484" d="m 13238,1800 51,0" style="fill:none;stroke:#000;stroke-width:50"/><path id="path5486" d="m 13340,1800 51,0" style="fill:none;stroke:#000;stroke-width:50"/><path id="path5488" d="m 13442,1800 51,0" style="fill:none;stroke:#000;stroke-width:50"/><path id="path5490" d="m 13544,1800 51,0" style="fill:none;stroke:#000;stroke-width:50"/><path id="path5492" d="m 13646,1800 51,0" style="fill:none;stroke:#000;stroke-width:50"/><path id="path5494" d="m 13748,1800 51,0" style="fill:none;stroke:#000;stroke-width:50"/><path id="path5496" d="m 13850,1800 51,0" style="fill:none;stroke:#000;stroke-width:50"/><path id="path5498" d="m 13952,1800 51,0" style="fill:none;stroke:#000;stroke-width:50"/><path id="path5500" d="m 14054,1800 51,0" style="fill:none;stroke:#000;stroke-width:50"/><path id="path5502" d="m 14156,1800 51,0" style="fill:none;stroke:#000;stroke-width:50"/><path id="path5504" d="m 14258,1800 51,0" style="fill:none;stroke:#000;stroke-width:50"/><path id="path5506" d="m 14360,1800 51,0" style="fill:none;stroke:#000;stroke-width:50"/><path id="path5508" d="m 14462,1800 51,0" style="fill:none;stroke:#000;stroke-width:50"/><path id="path5510" d="m 14564,1800 51,0" style="fill:none;stroke:#000;stroke-width:50"/><path id="path5512" d="m 14666,1800 51,0" style="fill:none;stroke:#000;stroke-width:50"/><path id="path5514" d="m 14768,1800 51,0" style="fill:none;stroke:#000;stroke-width:50"/><path id="path5516" d="m 14870,1800 51,0" style="fill:none;stroke:#000;stroke-width:50"/><path id="path5518" d="m 14972,1800 51,0" style="fill:none;stroke:#000;stroke-width:50"/><path id="path5520" d="m 15074,1800 51,0" style="fill:none;stroke:#000;stroke-width:50"/><path id="path5522" d="m 15176,1800 51,0" style="fill:none;stroke:#000;stroke-width:50"/><path id="path5524" d="m 15278,1800 51,0" style="fill:none;stroke:#000;stroke-width:50"/><path id="path5526" d="m 15380,1800 51,0" style="fill:none;stroke:#000;stroke-width:50"/><path id="path5528" d="m 15482,1800 51,0" style="fill:none;stroke:#000;stroke-width:50"/><path id="path5530" d="m 15584,1800 51,0" style="fill:none;stroke:#000;stroke-width:50"/><path id="path5532" d="m 15686,1800 51,0" style="fill:none;stroke:#000;stroke-width:50"/><path id="path5534" d="m 15788,1800 51,0" style="fill:none;stroke:#000;stroke-width:50"/><path id="path5536" d="m 15890,1800 51,0" style="fill:none;stroke:#000;stroke-width:50"/><path id="path5538" d="m 15992,1800 51,0" style="fill:none;stroke:#000;stroke-width:50"/><path id="path5540" d="m 16094,1800 51,0" style="fill:none;stroke:#000;stroke-width:50"/><path id="path5542" d="m 16196,1800 51,0" style="fill:none;stroke:#000;stroke-width:50"/><path id="path5544" d="m 16298,1800 51,0" style="fill:none;stroke:#000;stroke-width:50"/><path id="path5546" d="m 16400,1800 51,0" style="fill:none;stroke:#000;stroke-width:50"/><path id="path5548" d="m 16502,1800 51,0" style="fill:none;stroke:#000;stroke-width:50"/><path id="path5550" d="m 16604,1800 51,0" style="fill:none;stroke:#000;stroke-width:50"/><path id="path5552" d="m 16706,1800 51,0" style="fill:none;stroke:#000;stroke-width:50"/><path id="path5554" d="m 16808,1800 51,0" style="fill:none;stroke:#000;stroke-width:50"/></g></g><g id="g5556" class="com.sun.star.drawing.TextShape"><g id="id12"><text id="text5559" class="TextShape"><tspan id="tspan5561" class="TextParagraph" font-size="388" font-weight="400" style="font-size:388px;font-weight:400;font-family:'Arial, sans-serif'"><tspan id="tspan5563" x="5951" y="1494" class="TextPosition"><tspan id="tspan5565" style="fill:#000;stroke:none">local</tspan></tspan></tspan></text></g></g><g id="g5567" class="com.sun.star.drawing.TextShape"><g id="id13"><text id="text5570" class="TextShape"><tspan id="tspan5572" class="TextParagraph" font-size="388" font-weight="400" style="font-size:388px;font-weight:400;font-family:'Arial, sans-serif'"><tspan id="tspan5574" x="13696" y="1495" class="TextPosition"><tspan id="tspan5576" style="fill:#000;stroke:none">GitHub</tspan></tspan></tspan></text></g></g><g id="g5578" class="com.sun.star.drawing.CustomShape"><g id="id14"><path id="path5581" d="m 13750,4148 1400,0 0,1575 -175,225 -1225,0 0,-1800 z" style="fill:none;stroke:#000;stroke-width:50"/><path id="path5583" d="m 14975,5948 46,-225 c 44,33 42,14 129,0 l -175,225 z" style="fill:none;stroke:#000;stroke-width:50"/></g></g><g id="g5585" class="com.sun.star.drawing.TextShape"><g id="id15"><text id="text5588" class="TextShape"><tspan id="tspan5590" class="TextParagraph" font-size="388" font-weight="400" style="font-size:388px;font-weight:400;font-family:'Arial, sans-serif'"><tspan id="tspan5592" x="13759" y="6794" class="TextPosition"><tspan id="tspan5594" style="fill:#000;stroke:none">mars.txt</tspan></tspan></tspan></text></g></g><g id="g5596" class="com.sun.star.drawing.LineShape"><g id="id16"><path id="path5599" d="m 14000,4598 900,0" style="fill:none;stroke:#000;stroke-width:50"/></g></g><g id="g5601" class="com.sun.star.drawing.LineShape"><g id="id17"><path id="path5604" d="m 14000,4898 900,0" style="fill:none;stroke:#000;stroke-width:50"/></g></g><g id="g5606" class="com.sun.star.drawing.LineShape"><g id="id18"><path id="path5609" d="m 14000,5198 900,0" style="fill:none;stroke:#000;stroke-width:50"/></g></g><g id="g5611" class="com.sun.star.drawing.CustomShape"><g id="id19"><path id="path5614" d="m 12400,4675 -1500,0 0,-275 -501,550 501,551 0,-276 1500,0 0,-550 z" style="fill:none;stroke:#000;stroke-width:50"/></g></g><g id="g5616" class="com.sun.star.drawing.CustomShape"><g id="id20"><path id="path5619" d="m 7850,4147 1400,0 0,1575 -175,225 -1225,0 0,-1800 z" style="fill:none;stroke:#000;stroke-width:50"/><path id="path5621" d="m 9075,5947 46,-225 c 44,33 42,14 129,0 l -175,225 z" style="fill:none;stroke:#000;stroke-width:50"/></g></g><g id="g5623" class="com.sun.star.drawing.TextShape"><g id="id21"><text id="text5626" class="TextShape"><tspan id="tspan5628" class="TextParagraph" font-size="388" font-weight="400" style="font-size:388px;font-weight:400;font-family:'Arial, sans-serif'"><tspan id="tspan5630" x="7859" y="6793" class="TextPosition"><tspan id="tspan5632" style="fill:#000;stroke:none">mars.txt</tspan></tspan></tspan></text></g></g><g id="g5634" class="com.sun.star.drawing.LineShape"><g id="id22"><path id="path5637" d="m 8100,4597 900,0" style="fill:none;stroke:#000;stroke-width:50"/></g></g><g id="g5639" class="com.sun.star.drawing.LineShape"><g id="id23"><path id="path5642" d="m 8100,4897 900,0" style="fill:none;stroke:#000;stroke-width:50"/></g></g><g id="g5644" class="com.sun.star.drawing.LineShape"><g id="id24"><path id="path5647" d="m 8100,5197 900,0" style="fill:none;stroke:#000;stroke-width:50"/></g></g><g id="g5649" class="com.sun.star.drawing.CustomShape"><g id="id25"><path id="path5652" d="m 6900,2300 c -100,0 -200,100 -200,200 l 0,800 c 0,100 100,201 200,201 l 3300,0 c 100,0 201,-101 201,-201 l 0,-800 c 0,-100 -101,-200 -201,-200 l -3300,0 z" style="fill:none;stroke:#000;stroke-width:50"/><text id="text5654" class="TextShape"><tspan id="tspan5656" class="TextParagraph" font-size="388" font-weight="400" style="font-size:388px;font-weight:400;font-family:'Arial, sans-serif'"><tspan id="tspan5658" x="7494" y="3035" class="TextPosition"><tspan id="tspan5660" style="fill:#000;stroke:none">/tmp/planets</tspan></tspan></tspan></text></g></g></g></g></g></g></svg>