<svg xmlns="http://www.w3.org/2000/svg" xmlns:ooo="http://xml.openoffice.org/svg/export" xmlns:svg="http://www.w3.org/2000/svg" id="svg16427" width="524.045" height="350.131" clip-path="url(#presentation_clip_path)" style="fill-rule:evenodd;stroke-width:28.22200012;stroke-linejoin:round" preserveAspectRatio="xMidYMid" version="1.2" viewBox="0 0 14789.726 9881.474" xml:space="preserve"><metadata id="metadata16666"/><defs id="defs16429" class="ClipPathGroup"><clipPath id="presentation_clip_path" clipPathUnits="userSpaceOnUse"><rect id="rect16432" width="21590" height="27940" x="0" y="0"/></clipPath></defs><defs id="defs16438" class="EmbeddedBulletChars"><g id="bullet-char-template(57356)" transform="scale(4.8828125e-4,-4.8828125e-4)"><path id="path16441" d="M 580,1141 1163,571 580,0 -4,571 580,1141 z"/></g><g id="bullet-char-template(57354)" transform="scale(4.8828125e-4,-4.8828125e-4)"><path id="path16444" d="m 8,1128 1129,0 L 1137,0 8,0 8,1128 z"/></g><g id="bullet-char-template(10146)" transform="scale(4.8828125e-4,-4.8828125e-4)"><path id="path16447" d="M 174,0 602,739 174,1481 1456,739 174,0 z m 1184,739 -1049,607 350,-607 699,0 z"/></g><g id="bullet-char-template(10132)" transform="scale(4.8828125e-4,-4.8828125e-4)"><path id="path16450" d="M 2015,739 1276,0 717,0 l 543,543 -1086,0 0,393 1086,0 -543,545 557,0 741,-742 z"/></g><g id="bullet-char-template(10007)" transform="scale(4.8828125e-4,-4.8828125e-4)"><path id="path16453" d="m 0,-2 c -7,16 -16,29 -25,39 l 381,530 c -94,256 -141,385 -141,387 0,25 13,38 40,38 9,0 21,-2 34,-5 21,4 42,12 65,25 l 27,-13 111,-251 280,301 64,-25 24,25 c 21,-10 41,-24 62,-43 C 886,937 835,863 770,784 769,783 710,716 594,584 L 774,223 c 0,-27 -21,-55 -63,-84 l 16,-20 C 717,90 699,76 672,76 641,76 570,178 457,381 L 164,-76 c -22,-34 -53,-51 -92,-51 -42,0 -63,17 -64,51 -7,9 -10,24 -10,44 0,9 1,19 2,30 z"/></g><g id="bullet-char-template(10004)" transform="scale(4.8828125e-4,-4.8828125e-4)"><path id="path16456" d="M 285,-33 C 182,-33 111,30 74,156 52,228 41,333 41,471 c 0,78 14,145 41,201 34,71 87,106 158,106 53,0 88,-31 106,-94 l 23,-176 c 8,-64 28,-97 59,-98 l 735,706 c 11,11 33,17 66,17 42,0 63,-15 63,-46 l 0,-122 c 0,-36 -10,-64 -30,-84 L 442,47 C 390,-6 338,-33 285,-33 z"/></g><g id="bullet-char-template(9679)" transform="scale(4.8828125e-4,-4.8828125e-4)"><path id="path16459" d="M 813,0 C 632,0 489,54 383,161 276,268 223,411 223,592 c 0,181 53,324 160,431 106,107 249,161 430,161 179,0 323,-54 432,-161 108,-107 162,-251 162,-431 0,-180 -54,-324 -162,-431 C 1136,54 992,0 813,0 z"/></g><g id="bullet-char-template(8226)" transform="scale(4.8828125e-4,-4.8828125e-4)"><path id="path16462" d="m 346,457 c -73,0 -137,26 -191,78 -54,51 -81,114 -81,188 0,73 27,136 81,188 54,52 118,78 191,78 73,0 134,-26 185,-79 51,-51 77,-114 77,-187 0,-75 -25,-137 -76,-188 -50,-52 -112,-78 -186,-78 z"/></g><g id="bullet-char-template(8211)" transform="scale(4.8828125e-4,-4.8828125e-4)"><path id="path16465" d="m -4,459 1139,0 0,147 -1139,0 0,-147 z"/></g></defs><g id="g16474" class="SlideGroup" transform="translate(-1065.1562,-1094.5254)"><g id="g16476"><g id="id1" class="Slide" clip-path="url(#presentation_clip_path)"><g id="g16479" class="Page"><g id="g16481" class="com.sun.star.drawing.TextShape"><g id="id3"><text id="text16484" class="TextShape"><tspan id="tspan16486" class="TextParagraph" font-size="388" font-weight="400" style="font-size:388px;font-weight:400;font-family:'Arial, sans-serif'"><tspan id="tspan16488" x="3700" y="1377" class="TextPosition"><tspan id="tspan16490" style="fill:#000;stroke:none">Working Files</tspan></tspan></tspan><tspan id="tspan16492" class="TextParagraph" font-size="388" font-weight="400" style="font-size:388px;font-weight:400;font-family:'Arial, sans-serif'"><tspan id="tspan16494" x="2950" y="1809" class="TextPosition"><tspan id="tspan16496" style="fill:#000;stroke:none">(what we actually see)</tspan></tspan></tspan></text></g></g><g id="g16498" class="com.sun.star.drawing.TextShape"><g id="id4"><text id="text16501" class="TextShape"><tspan id="tspan16503" class="TextParagraph" font-size="388" font-weight="400" style="font-size:388px;font-weight:400;font-family:'Arial, sans-serif'"><tspan id="tspan16505" x="8348" y="1377" class="TextPosition"><tspan id="tspan16507" style="fill:#000;stroke:none">Staging Area</tspan></tspan></tspan><tspan id="tspan16509" class="TextParagraph" font-size="388" font-weight="400" style="font-size:388px;font-weight:400;font-family:'Arial, sans-serif'"><tspan id="tspan16511" x="7950" y="1809" class="TextPosition"><tspan id="tspan16513" style="fill:#000;stroke:none">(ready to commit)</tspan></tspan></tspan></text></g></g><g id="g16515" class="com.sun.star.drawing.TextShape"><g id="id5"><text id="text16518" class="TextShape"><tspan id="tspan16520" class="TextParagraph" font-size="388" font-weight="400" style="font-size:388px;font-weight:400;font-family:'Arial, sans-serif'"><tspan id="tspan16522" x="13180" y="1377" class="TextPosition"><tspan id="tspan16524" style="fill:#000;stroke:none">Repository</tspan></tspan></tspan><tspan id="tspan16526" class="TextParagraph" font-size="388" font-weight="400" style="font-size:388px;font-weight:400;font-family:'Arial, sans-serif'"><tspan id="tspan16528" x="12350" y="1809" class="TextPosition"><tspan id="tspan16530" style="fill:#000;stroke:none">(permanent storage)</tspan></tspan></tspan></text></g></g><g id="g16532" class="com.sun.star.drawing.CustomShape"><g id="id6"><path id="path16535" d="m 4171,2250 1400,0 0,1575 -175,225 -1225,0 0,-1800 z" style="fill:none;stroke:#000;stroke-width:50"/><path id="path16537" d="m 5396,4050 46,-225 c 44,33 42,14 129,0 l -175,225 z" style="fill:none;stroke:#000;stroke-width:50"/></g></g><g id="g16539" class="com.sun.star.drawing.CustomShape"><g id="id7"><path id="path16542" d="m 4171,4551 1400,0 0,1575 -175,225 -1225,0 0,-1800 z" style="fill:none;stroke:#000;stroke-width:50"/><path id="path16544" d="m 5396,6351 46,-225 c 44,33 42,14 129,0 l -175,225 z" style="fill:none;stroke:#000;stroke-width:50"/></g></g><g id="g16546" class="com.sun.star.drawing.TextShape"><g id="id8"><text id="text16549" class="TextShape"><tspan id="tspan16551" class="TextParagraph" font-size="388" font-weight="400" style="font-size:388px;font-weight:400;font-family:'Arial, sans-serif'"><tspan id="tspan16553" x="1050" y="3285" class="TextPosition"><tspan id="tspan16555" style="fill:#000;stroke:none">intro.txt</tspan></tspan></tspan></text></g></g><g id="g16557" class="com.sun.star.drawing.TextShape"><g id="id9"><text id="text16560" class="TextShape"><tspan id="tspan16562" class="TextParagraph" font-size="388" font-weight="400" style="font-size:388px;font-weight:400;font-family:'Arial, sans-serif'"><tspan id="tspan16564" x="1050" y="5586" class="TextPosition"><tspan id="tspan16566" style="fill:#000;stroke:none">methods.txt</tspan></tspan></tspan></text></g></g><g id="g16568" class="com.sun.star.drawing.CustomShape"><g id="id10"><path id="path16571" d="m 4171,6851 1400,0 0,1575 -175,225 -1225,0 0,-1800 z" style="fill:none;stroke:#000;stroke-width:50"/><path id="path16573" d="m 5396,8651 46,-225 c 44,33 42,14 129,0 l -175,225 z" style="fill:none;stroke:#000;stroke-width:50"/></g></g><g id="g16575" class="com.sun.star.drawing.TextShape"><g id="id11"><text id="text16578" class="TextShape"><tspan id="tspan16580" class="TextParagraph" font-size="388" font-weight="400" style="font-size:388px;font-weight:400;font-family:'Arial, sans-serif'"><tspan id="tspan16582" x="1050" y="7886" class="TextPosition"><tspan id="tspan16584" style="fill:#000;stroke:none">results.txt</tspan></tspan></tspan></text></g></g><g id="g16586" class="com.sun.star.drawing.CustomShape"><g id="id12"><path id="path16589" d="m 4171,9151 1400,0 0,1575 -175,225 -1225,0 0,-1800 z" style="fill:none;stroke:#000;stroke-width:50"/><path id="path16591" d="m 5396,10951 46,-225 c 44,33 42,14 129,0 l -175,225 z" style="fill:none;stroke:#000;stroke-width:50"/></g></g><g id="g16593" class="com.sun.star.drawing.TextShape"><g id="id13"><text id="text16596" class="TextShape"><tspan id="tspan16598" class="TextParagraph" font-size="388" font-weight="400" style="font-size:388px;font-weight:400;font-family:'Arial, sans-serif'"><tspan id="tspan16600" x="1050" y="10186" class="TextPosition"><tspan id="tspan16602" style="fill:#000;stroke:none">conclusion.txt</tspan></tspan></tspan></text></g></g><g id="g16604" class="com.sun.star.drawing.CustomShape"><g id="id14"><path id="path16607" d="m 8871,4551 1400,0 0,1575 -175,225 -1225,0 0,-1800 z" style="fill:none;stroke:#000;stroke-width:50"/><path id="path16609" d="m 10096,6351 46,-225 c 44,33 42,14 129,0 l -175,225 z" style="fill:none;stroke:#000;stroke-width:50"/></g></g><g id="g16611" class="com.sun.star.drawing.CustomShape"><g id="id15"><path id="path16614" d="m 8871,6851 1400,0 0,1575 -175,225 -1225,0 0,-1800 z" style="fill:none;stroke:#000;stroke-width:50"/><path id="path16616" d="m 10096,8651 46,-225 c 44,33 42,14 129,0 l -175,225 z" style="fill:none;stroke:#000;stroke-width:50"/></g></g><g id="g16618" class="com.sun.star.drawing.CustomShape"><g id="id16"><path id="path16621" d="m 13571,4551 1400,0 0,1575 -175,225 -1225,0 0,-1800 z" style="fill:none;stroke:#000;stroke-width:50"/><path id="path16623" d="m 14796,6351 46,-225 c 44,33 42,14 129,0 l -175,225 z" style="fill:none;stroke:#000;stroke-width:50"/></g></g><g id="g16625" class="com.sun.star.drawing.CustomShape"><g id="id17"><path id="path16628" d="m 13571,6851 1400,0 0,1575 -175,225 -1225,0 0,-1800 z" style="fill:none;stroke:#000;stroke-width:50"/><path id="path16630" d="m 14796,8651 46,-225 c 44,33 42,14 129,0 l -175,225 z" style="fill:none;stroke:#000;stroke-width:50"/></g></g><g id="g16632" class="com.sun.star.drawing.CustomShape"><g id="id18"><path id="path16635" d="m 6300,6375 1500,0 0,-275 501,550 -501,551 0,-276 -1500,0 0,-550 z" style="fill:none;stroke:#000;stroke-width:50"/></g></g><g id="g16637" class="com.sun.star.drawing.TextShape"><g id="id19"><text id="text16640" class="TextShape"><tspan id="tspan16642" class="TextParagraph" font-size="388" font-weight="400" style="font-size:388px;font-weight:400;font-family:'Arial, sans-serif'"><tspan id="tspan16644" x="6717" y="5787" class="TextPosition"><tspan id="tspan16646" style="fill:#000;stroke:none">git add</tspan></tspan></tspan></text></g></g><g id="g16648" class="com.sun.star.drawing.CustomShape"><g id="id20"><path id="path16651" d="m 11019,6376 1500,0 0,-275 501,550 -501,551 0,-276 -1500,0 0,-550 z" style="fill:none;stroke:#000;stroke-width:50"/></g></g><g id="g16653" class="com.sun.star.drawing.TextShape"><g id="id21"><text id="text16656" class="TextShape"><tspan id="tspan16658" class="TextParagraph" font-size="388" font-weight="400" style="font-size:388px;font-weight:400;font-family:'Arial, sans-serif'"><tspan id="tspan16660" x="11133" y="5788" class="TextPosition"><tspan id="tspan16662" style="fill:#000;stroke:none">git commit</tspan></tspan></tspan></text></g></g></g></g></g></g></svg>