<svg xmlns="http://www.w3.org/2000/svg" xmlns:ooo="http://xml.openoffice.org/svg/export" xmlns:svg="http://www.w3.org/2000/svg" id="svg14327" width="375.839" height="233.485" clip-path="url(#presentation_clip_path)" style="fill-rule:evenodd;stroke-width:28.22200012;stroke-linejoin:round" preserveAspectRatio="xMidYMid" version="1.2" viewBox="0 0 10607 6589.475" xml:space="preserve"><metadata id="metadata14806"/><defs id="defs14329" class="ClipPathGroup"><clipPath id="presentation_clip_path" clipPathUnits="userSpaceOnUse"><rect id="rect14332" width="21590" height="27940" x="0" y="0"/></clipPath></defs><defs id="defs14338" class="EmbeddedBulletChars"><g id="bullet-char-template(57356)" transform="scale(4.8828125e-4,-4.8828125e-4)"><path id="path14341" d="M 580,1141 1163,571 580,0 -4,571 580,1141 z"/></g><g id="bullet-char-template(57354)" transform="scale(4.8828125e-4,-4.8828125e-4)"><path id="path14344" d="m 8,1128 1129,0 L 1137,0 8,0 8,1128 z"/></g><g id="bullet-char-template(10146)" transform="scale(4.8828125e-4,-4.8828125e-4)"><path id="path14347" d="M 174,0 602,739 174,1481 1456,739 174,0 z m 1184,739 -1049,607 350,-607 699,0 z"/></g><g id="bullet-char-template(10132)" transform="scale(4.8828125e-4,-4.8828125e-4)"><path id="path14350" d="M 2015,739 1276,0 717,0 l 543,543 -1086,0 0,393 1086,0 -543,545 557,0 741,-742 z"/></g><g id="bullet-char-template(10007)" transform="scale(4.8828125e-4,-4.8828125e-4)"><path id="path14353" d="m 0,-2 c -7,16 -16,29 -25,39 l 381,530 c -94,256 -141,385 -141,387 0,25 13,38 40,38 9,0 21,-2 34,-5 21,4 42,12 65,25 l 27,-13 111,-251 280,301 64,-25 24,25 c 21,-10 41,-24 62,-43 C 886,937 835,863 770,784 769,783 710,716 594,584 L 774,223 c 0,-27 -21,-55 -63,-84 l 16,-20 C 717,90 699,76 672,76 641,76 570,178 457,381 L 164,-76 c -22,-34 -53,-51 -92,-51 -42,0 -63,17 -64,51 -7,9 -10,24 -10,44 0,9 1,19 2,30 z"/></g><g id="bullet-char-template(10004)" transform="scale(4.8828125e-4,-4.8828125e-4)"><path id="path14356" d="M 285,-33 C 182,-33 111,30 74,156 52,228 41,333 41,471 c 0,78 14,145 41,201 34,71 87,106 158,106 53,0 88,-31 106,-94 l 23,-176 c 8,-64 28,-97 59,-98 l 735,706 c 11,11 33,17 66,17 42,0 63,-15 63,-46 l 0,-122 c 0,-36 -10,-64 -30,-84 L 442,47 C 390,-6 338,-33 285,-33 z"/></g><g id="bullet-char-template(9679)" transform="scale(4.8828125e-4,-4.8828125e-4)"><path id="path14359" d="M 813,0 C 632,0 489,54 383,161 276,268 223,411 223,592 c 0,181 53,324 160,431 106,107 249,161 430,161 179,0 323,-54 432,-161 108,-107 162,-251 162,-431 0,-180 -54,-324 -162,-431 C 1136,54 992,0 813,0 z"/></g><g id="bullet-char-template(8226)" transform="scale(4.8828125e-4,-4.8828125e-4)"><path id="path14362" d="m 346,457 c -73,0 -137,26 -191,78 -54,51 -81,114 -81,188 0,73 27,136 81,188 54,52 118,78 191,78 73,0 134,-26 185,-79 51,-51 77,-114 77,-187 0,-75 -25,-137 -76,-188 -50,-52 -112,-78 -186,-78 z"/></g><g id="bullet-char-template(8211)" transform="scale(4.8828125e-4,-4.8828125e-4)"><path id="path14365" d="m -4,459 1139,0 0,147 -1139,0 0,-147 z"/></g></defs><g id="g14374" class="SlideGroup" transform="translate(-1075,-1212.5254)"><g id="g14376"><g id="id1" class="Slide" clip-path="url(#presentation_clip_path)"><g id="g14379" class="Page"><g id="g14381" class="com.sun.star.drawing.CustomShape"><g id="id3"><path id="path14384" d="m 2750,4147 1400,0 0,1575 -175,225 -1225,0 0,-1800 z" style="fill:none;stroke:#000;stroke-width:50"/><path id="path14386" d="m 3975,5947 46,-225 c 44,33 42,14 129,0 l -175,225 z" style="fill:none;stroke:#000;stroke-width:50"/></g></g><g id="g14388" class="com.sun.star.drawing.TextShape"><g id="id4"><text id="text14391" class="TextShape"><tspan id="tspan14393" class="TextParagraph" font-size="388" font-weight="400" style="font-size:388px;font-weight:400;font-family:'Arial, sans-serif'"><tspan id="tspan14395" x="2759" y="6793" class="TextPosition"><tspan id="tspan14397" style="fill:#000;stroke:none">mars.txt</tspan></tspan></tspan></text></g></g><g id="g14399" class="com.sun.star.drawing.LineShape"><g id="id5"><path id="path14402" d="m 3000,4597 900,0" style="fill:none;stroke:#000;stroke-width:50"/></g></g><g id="g14404" class="com.sun.star.drawing.LineShape"><g id="id6"><path id="path14407" d="m 3000,4897 900,0" style="fill:none;stroke:#000;stroke-width:50"/></g></g><g id="g14409" class="com.sun.star.drawing.LineShape"><g id="id7"><path id="path14412" d="m 3000,5197 900,0" style="fill:none;stroke:#000;stroke-width:50"/></g></g><g id="g14414" class="com.sun.star.drawing.CustomShape"><g id="id8"><path id="path14417" d="m 1800,2300 c -100,0 -200,100 -200,200 l 0,800 c 0,100 100,201 200,201 l 3300,0 c 100,0 201,-101 201,-201 l 0,-800 c 0,-100 -101,-200 -201,-200 l -3300,0 z" style="fill:none;stroke:#000;stroke-width:50"/><text id="text14419" class="TextShape"><tspan id="tspan14421" class="TextParagraph" font-size="388" font-weight="400" style="font-size:388px;font-weight:400;font-family:'Arial, sans-serif'"><tspan id="tspan14423" x="1822" y="3035" class="TextPosition"><tspan id="tspan14425" style="fill:#000;stroke:none">/home/vlad/planets</tspan></tspan></tspan></text></g></g><g id="g14427" class="com.sun.star.drawing.CustomShape"><g id="id9"><path id="path14430" d="m 7150,2300 c -100,0 -200,100 -200,200 l 0,800 c 0,100 100,201 200,201 l 3300,0 c 100,0 201,-101 201,-201 l 0,-800 c 0,-100 -101,-200 -201,-200 l -3300,0 z" style="fill:none;stroke:#000;stroke-width:50"/><text id="text14432" class="TextShape"><tspan id="tspan14434" class="TextParagraph" font-size="388" font-weight="400" style="font-size:388px;font-weight:400;font-family:'Arial, sans-serif'"><tspan id="tspan14436" x="7064" y="3035" class="TextPosition"><tspan id="tspan14438" style="fill:#000;stroke:none">/somewhere/planets</tspan></tspan></tspan></text></g></g><g id="g14440" class="com.sun.star.drawing.LineShape"><g id="id10"><path id="path14443" d="m 6100,1300 0,51" style="fill:none;stroke:#000;stroke-width:50"/><path id="path14445" d="m 6100,1402 0,51" style="fill:none;stroke:#000;stroke-width:50"/><path id="path14447" d="m 6100,1504 0,51" style="fill:none;stroke:#000;stroke-width:50"/><path id="path14449" d="m 6100,1606 0,51" style="fill:none;stroke:#000;stroke-width:50"/><path id="path14451" d="m 6100,1708 0,51" style="fill:none;stroke:#000;stroke-width:50"/><path id="path14453" d="m 6100,1810 0,51" style="fill:none;stroke:#000;stroke-width:50"/><path id="path14455" d="m 6100,1912 0,51" style="fill:none;stroke:#000;stroke-width:50"/><path id="path14457" d="m 6100,2014 0,51" style="fill:none;stroke:#000;stroke-width:50"/><path id="path14459" d="m 6100,2116 0,51" style="fill:none;stroke:#000;stroke-width:50"/><path id="path14461" d="m 6100,2218 0,51" style="fill:none;stroke:#000;stroke-width:50"/><path id="path14463" d="m 6100,2320 0,51" style="fill:none;stroke:#000;stroke-width:50"/><path id="path14465" d="m 6100,2422 0,51" style="fill:none;stroke:#000;stroke-width:50"/><path id="path14467" d="m 6100,2524 0,51" style="fill:none;stroke:#000;stroke-width:50"/><path id="path14469" d="m 6100,2626 0,51" style="fill:none;stroke:#000;stroke-width:50"/><path id="path14471" d="m 6100,2728 0,51" style="fill:none;stroke:#000;stroke-width:50"/><path id="path14473" d="m 6100,2830 0,51" style="fill:none;stroke:#000;stroke-width:50"/><path id="path14475" d="m 6100,2932 0,51" style="fill:none;stroke:#000;stroke-width:50"/><path id="path14477" d="m 6100,3034 0,51" style="fill:none;stroke:#000;stroke-width:50"/><path id="path14479" d="m 6100,3136 0,51" style="fill:none;stroke:#000;stroke-width:50"/><path id="path14481" d="m 6100,3238 0,51" style="fill:none;stroke:#000;stroke-width:50"/><path id="path14483" d="m 6100,3340 0,51" style="fill:none;stroke:#000;stroke-width:50"/><path id="path14485" d="m 6100,3442 0,51" style="fill:none;stroke:#000;stroke-width:50"/><path id="path14487" d="m 6100,3544 0,51" style="fill:none;stroke:#000;stroke-width:50"/><path id="path14489" d="m 6100,3646 0,51" style="fill:none;stroke:#000;stroke-width:50"/><path id="path14491" d="m 6100,3748 0,51" style="fill:none;stroke:#000;stroke-width:50"/><path id="path14493" d="m 6100,3850 0,51" style="fill:none;stroke:#000;stroke-width:50"/><path id="path14495" d="m 6100,3952 0,51" style="fill:none;stroke:#000;stroke-width:50"/><path id="path14497" d="m 6100,4054 0,51" style="fill:none;stroke:#000;stroke-width:50"/><path id="path14499" d="m 6100,4156 0,51" style="fill:none;stroke:#000;stroke-width:50"/><path id="path14501" d="m 6100,4258 0,51" style="fill:none;stroke:#000;stroke-width:50"/><path id="path14503" d="m 6100,4360 0,51" style="fill:none;stroke:#000;stroke-width:50"/><path id="path14505" d="m 6100,4462 0,51" style="fill:none;stroke:#000;stroke-width:50"/><path id="path14507" d="m 6100,4564 0,51" style="fill:none;stroke:#000;stroke-width:50"/><path id="path14509" d="m 6100,4666 0,51" style="fill:none;stroke:#000;stroke-width:50"/><path id="path14511" d="m 6100,4768 0,51" style="fill:none;stroke:#000;stroke-width:50"/><path id="path14513" d="m 6100,4870 0,51" style="fill:none;stroke:#000;stroke-width:50"/><path id="path14515" d="m 6100,4972 0,51" style="fill:none;stroke:#000;stroke-width:50"/><path id="path14517" d="m 6100,5074 0,51" style="fill:none;stroke:#000;stroke-width:50"/><path id="path14519" d="m 6100,5176 0,51" style="fill:none;stroke:#000;stroke-width:50"/><path id="path14521" d="m 6100,5278 0,51" style="fill:none;stroke:#000;stroke-width:50"/><path id="path14523" d="m 6100,5380 0,51" style="fill:none;stroke:#000;stroke-width:50"/><path id="path14525" d="m 6100,5482 0,51" style="fill:none;stroke:#000;stroke-width:50"/><path id="path14527" d="m 6100,5584 0,51" style="fill:none;stroke:#000;stroke-width:50"/><path id="path14529" d="m 6100,5686 0,51" style="fill:none;stroke:#000;stroke-width:50"/><path id="path14531" d="m 6100,5788 0,51" style="fill:none;stroke:#000;stroke-width:50"/><path id="path14533" d="m 6100,5890 0,51" style="fill:none;stroke:#000;stroke-width:50"/><path id="path14535" d="m 6100,5992 0,51" style="fill:none;stroke:#000;stroke-width:50"/><path id="path14537" d="m 6100,6094 0,51" style="fill:none;stroke:#000;stroke-width:50"/><path id="path14539" d="m 6100,6196 0,51" style="fill:none;stroke:#000;stroke-width:50"/><path id="path14541" d="m 6100,6298 0,51" style="fill:none;stroke:#000;stroke-width:50"/><path id="path14543" d="m 6100,6400 0,51" style="fill:none;stroke:#000;stroke-width:50"/><path id="path14545" d="m 6100,6502 0,51" style="fill:none;stroke:#000;stroke-width:50"/><path id="path14547" d="m 6100,6604 0,51" style="fill:none;stroke:#000;stroke-width:50"/><path id="path14549" d="m 6100,6706 0,51" style="fill:none;stroke:#000;stroke-width:50"/><path id="path14551" d="m 6100,6808 0,51" style="fill:none;stroke:#000;stroke-width:50"/><path id="path14553" d="m 6100,6910 0,51" style="fill:none;stroke:#000;stroke-width:50"/><path id="path14555" d="m 6100,7012 0,51" style="fill:none;stroke:#000;stroke-width:50"/><path id="path14557" d="m 6100,7114 0,51" style="fill:none;stroke:#000;stroke-width:50"/><path id="path14559" d="m 6100,7216 0,51" style="fill:none;stroke:#000;stroke-width:50"/><path id="path14561" d="m 6100,7318 0,51" style="fill:none;stroke:#000;stroke-width:50"/><path id="path14563" d="m 6100,7420 0,51" style="fill:none;stroke:#000;stroke-width:50"/><path id="path14565" d="m 6100,7522 0,51" style="fill:none;stroke:#000;stroke-width:50"/><path id="path14567" d="m 6100,7624 0,51" style="fill:none;stroke:#000;stroke-width:50"/><path id="path14569" d="m 6100,7726 0,51" style="fill:none;stroke:#000;stroke-width:50"/></g></g><g id="g14571" class="com.sun.star.drawing.LineShape"><g id="id11"><path id="path14574" d="m 1100,1800 51,0" style="fill:none;stroke:#000;stroke-width:50"/><path id="path14576" d="m 1202,1800 51,0" style="fill:none;stroke:#000;stroke-width:50"/><path id="path14578" d="m 1304,1800 51,0" style="fill:none;stroke:#000;stroke-width:50"/><path id="path14580" d="m 1406,1800 51,0" style="fill:none;stroke:#000;stroke-width:50"/><path id="path14582" d="m 1508,1800 51,0" style="fill:none;stroke:#000;stroke-width:50"/><path id="path14584" d="m 1610,1800 51,0" style="fill:none;stroke:#000;stroke-width:50"/><path id="path14586" d="m 1712,1800 51,0" style="fill:none;stroke:#000;stroke-width:50"/><path id="path14588" d="m 1814,1800 51,0" style="fill:none;stroke:#000;stroke-width:50"/><path id="path14590" d="m 1916,1800 51,0" style="fill:none;stroke:#000;stroke-width:50"/><path id="path14592" d="m 2018,1800 51,0" style="fill:none;stroke:#000;stroke-width:50"/><path id="path14594" d="m 2120,1800 51,0" style="fill:none;stroke:#000;stroke-width:50"/><path id="path14596" d="m 2222,1800 51,0" style="fill:none;stroke:#000;stroke-width:50"/><path id="path14598" d="m 2324,1800 51,0" style="fill:none;stroke:#000;stroke-width:50"/><path id="path14600" d="m 2426,1800 51,0" style="fill:none;stroke:#000;stroke-width:50"/><path id="path14602" d="m 2528,1800 51,0" style="fill:none;stroke:#000;stroke-width:50"/><path id="path14604" d="m 2630,1800 51,0" style="fill:none;stroke:#000;stroke-width:50"/><path id="path14606" d="m 2732,1800 51,0" style="fill:none;stroke:#000;stroke-width:50"/><path id="path14608" d="m 2834,1800 51,0" style="fill:none;stroke:#000;stroke-width:50"/><path id="path14610" d="m 2936,1800 51,0" style="fill:none;stroke:#000;stroke-width:50"/><path id="path14612" d="m 3038,1800 51,0" style="fill:none;stroke:#000;stroke-width:50"/><path id="path14614" d="m 3140,1800 51,0" style="fill:none;stroke:#000;stroke-width:50"/><path id="path14616" d="m 3242,1800 51,0" style="fill:none;stroke:#000;stroke-width:50"/><path id="path14618" d="m 3344,1800 51,0" style="fill:none;stroke:#000;stroke-width:50"/><path id="path14620" d="m 3446,1800 51,0" style="fill:none;stroke:#000;stroke-width:50"/><path id="path14622" d="m 3548,1800 51,0" style="fill:none;stroke:#000;stroke-width:50"/><path id="path14624" d="m 3650,1800 51,0" style="fill:none;stroke:#000;stroke-width:50"/><path id="path14626" d="m 3752,1800 51,0" style="fill:none;stroke:#000;stroke-width:50"/><path id="path14628" d="m 3854,1800 51,0" style="fill:none;stroke:#000;stroke-width:50"/><path id="path14630" d="m 3956,1800 51,0" style="fill:none;stroke:#000;stroke-width:50"/><path id="path14632" d="m 4058,1800 51,0" style="fill:none;stroke:#000;stroke-width:50"/><path id="path14634" d="m 4160,1800 51,0" style="fill:none;stroke:#000;stroke-width:50"/><path id="path14636" d="m 4262,1800 51,0" style="fill:none;stroke:#000;stroke-width:50"/><path id="path14638" d="m 4364,1800 51,0" style="fill:none;stroke:#000;stroke-width:50"/><path id="path14640" d="m 4466,1800 51,0" style="fill:none;stroke:#000;stroke-width:50"/><path id="path14642" d="m 4568,1800 51,0" style="fill:none;stroke:#000;stroke-width:50"/><path id="path14644" d="m 4670,1800 51,0" style="fill:none;stroke:#000;stroke-width:50"/><path id="path14646" d="m 4772,1800 51,0" style="fill:none;stroke:#000;stroke-width:50"/><path id="path14648" d="m 4874,1800 51,0" style="fill:none;stroke:#000;stroke-width:50"/><path id="path14650" d="m 4976,1800 51,0" style="fill:none;stroke:#000;stroke-width:50"/><path id="path14652" d="m 5078,1800 51,0" style="fill:none;stroke:#000;stroke-width:50"/><path id="path14654" d="m 5180,1800 51,0" style="fill:none;stroke:#000;stroke-width:50"/><path id="path14656" d="m 5282,1800 51,0" style="fill:none;stroke:#000;stroke-width:50"/><path id="path14658" d="m 5384,1800 51,0" style="fill:none;stroke:#000;stroke-width:50"/><path id="path14660" d="m 5486,1800 51,0" style="fill:none;stroke:#000;stroke-width:50"/><path id="path14662" d="m 5588,1800 51,0" style="fill:none;stroke:#000;stroke-width:50"/><path id="path14664" d="m 5690,1800 51,0" style="fill:none;stroke:#000;stroke-width:50"/><path id="path14666" d="m 5792,1800 51,0" style="fill:none;stroke:#000;stroke-width:50"/><path id="path14668" d="m 5894,1800 51,0" style="fill:none;stroke:#000;stroke-width:50"/><path id="path14670" d="m 5996,1800 51,0" style="fill:none;stroke:#000;stroke-width:50"/><path id="path14672" d="m 6098,1800 51,0" style="fill:none;stroke:#000;stroke-width:50"/><path id="path14674" d="m 6200,1800 51,0" style="fill:none;stroke:#000;stroke-width:50"/><path id="path14676" d="m 6302,1800 51,0" style="fill:none;stroke:#000;stroke-width:50"/><path id="path14678" d="m 6404,1800 51,0" style="fill:none;stroke:#000;stroke-width:50"/><path id="path14680" d="m 6506,1800 51,0" style="fill:none;stroke:#000;stroke-width:50"/><path id="path14682" d="m 6608,1800 51,0" style="fill:none;stroke:#000;stroke-width:50"/><path id="path14684" d="m 6710,1800 51,0" style="fill:none;stroke:#000;stroke-width:50"/><path id="path14686" d="m 6812,1800 51,0" style="fill:none;stroke:#000;stroke-width:50"/><path id="path14688" d="m 6914,1800 51,0" style="fill:none;stroke:#000;stroke-width:50"/><path id="path14690" d="m 7016,1800 51,0" style="fill:none;stroke:#000;stroke-width:50"/><path id="path14692" d="m 7118,1800 51,0" style="fill:none;stroke:#000;stroke-width:50"/><path id="path14694" d="m 7220,1800 51,0" style="fill:none;stroke:#000;stroke-width:50"/><path id="path14696" d="m 7322,1800 51,0" style="fill:none;stroke:#000;stroke-width:50"/><path id="path14698" d="m 7424,1800 51,0" style="fill:none;stroke:#000;stroke-width:50"/><path id="path14700" d="m 7526,1800 51,0" style="fill:none;stroke:#000;stroke-width:50"/><path id="path14702" d="m 7628,1800 51,0" style="fill:none;stroke:#000;stroke-width:50"/><path id="path14704" d="m 7730,1800 51,0" style="fill:none;stroke:#000;stroke-width:50"/><path id="path14706" d="m 7832,1800 51,0" style="fill:none;stroke:#000;stroke-width:50"/><path id="path14708" d="m 7934,1800 51,0" style="fill:none;stroke:#000;stroke-width:50"/><path id="path14710" d="m 8036,1800 51,0" style="fill:none;stroke:#000;stroke-width:50"/><path id="path14712" d="m 8138,1800 51,0" style="fill:none;stroke:#000;stroke-width:50"/><path id="path14714" d="m 8240,1800 51,0" style="fill:none;stroke:#000;stroke-width:50"/><path id="path14716" d="m 8342,1800 51,0" style="fill:none;stroke:#000;stroke-width:50"/><path id="path14718" d="m 8444,1800 51,0" style="fill:none;stroke:#000;stroke-width:50"/><path id="path14720" d="m 8546,1800 51,0" style="fill:none;stroke:#000;stroke-width:50"/><path id="path14722" d="m 8648,1800 51,0" style="fill:none;stroke:#000;stroke-width:50"/><path id="path14724" d="m 8750,1800 51,0" style="fill:none;stroke:#000;stroke-width:50"/><path id="path14726" d="m 8852,1800 51,0" style="fill:none;stroke:#000;stroke-width:50"/><path id="path14728" d="m 8954,1800 51,0" style="fill:none;stroke:#000;stroke-width:50"/><path id="path14730" d="m 9056,1800 51,0" style="fill:none;stroke:#000;stroke-width:50"/><path id="path14732" d="m 9158,1800 51,0" style="fill:none;stroke:#000;stroke-width:50"/><path id="path14734" d="m 9260,1800 51,0" style="fill:none;stroke:#000;stroke-width:50"/><path id="path14736" d="m 9362,1800 51,0" style="fill:none;stroke:#000;stroke-width:50"/><path id="path14738" d="m 9464,1800 51,0" style="fill:none;stroke:#000;stroke-width:50"/><path id="path14740" d="m 9566,1800 51,0" style="fill:none;stroke:#000;stroke-width:50"/><path id="path14742" d="m 9668,1800 51,0" style="fill:none;stroke:#000;stroke-width:50"/><path id="path14744" d="m 9770,1800 51,0" style="fill:none;stroke:#000;stroke-width:50"/><path id="path14746" d="m 9872,1800 51,0" style="fill:none;stroke:#000;stroke-width:50"/><path id="path14748" d="m 9974,1800 51,0" style="fill:none;stroke:#000;stroke-width:50"/><path id="path14750" d="m 10076,1800 51,0" style="fill:none;stroke:#000;stroke-width:50"/><path id="path14752" d="m 10178,1800 51,0" style="fill:none;stroke:#000;stroke-width:50"/><path id="path14754" d="m 10280,1800 51,0" style="fill:none;stroke:#000;stroke-width:50"/><path id="path14756" d="m 10382,1800 51,0" style="fill:none;stroke:#000;stroke-width:50"/><path id="path14758" d="m 10484,1800 51,0" style="fill:none;stroke:#000;stroke-width:50"/><path id="path14760" d="m 10586,1800 51,0" style="fill:none;stroke:#000;stroke-width:50"/><path id="path14762" d="m 10688,1800 51,0" style="fill:none;stroke:#000;stroke-width:50"/><path id="path14764" d="m 10790,1800 51,0" style="fill:none;stroke:#000;stroke-width:50"/><path id="path14766" d="m 10892,1800 51,0" style="fill:none;stroke:#000;stroke-width:50"/><path id="path14768" d="m 10994,1800 51,0" style="fill:none;stroke:#000;stroke-width:50"/><path id="path14770" d="m 11096,1800 51,0" style="fill:none;stroke:#000;stroke-width:50"/><path id="path14772" d="m 11198,1800 51,0" style="fill:none;stroke:#000;stroke-width:50"/><path id="path14774" d="m 11300,1800 51,0" style="fill:none;stroke:#000;stroke-width:50"/><path id="path14776" d="m 11402,1800 51,0" style="fill:none;stroke:#000;stroke-width:50"/><path id="path14778" d="m 11504,1800 51,0" style="fill:none;stroke:#000;stroke-width:50"/><path id="path14780" d="m 11606,1800 51,0" style="fill:none;stroke:#000;stroke-width:50"/></g></g><g id="g14782" class="com.sun.star.drawing.TextShape"><g id="id12"><text id="text14785" class="TextShape"><tspan id="tspan14787" class="TextParagraph" font-size="388" font-weight="400" style="font-size:388px;font-weight:400;font-family:'Arial, sans-serif'"><tspan id="tspan14789" x="3051" y="1494" class="TextPosition"><tspan id="tspan14791" style="fill:#000;stroke:none">local</tspan></tspan></tspan></text></g></g><g id="g14793" class="com.sun.star.drawing.TextShape"><g id="id13"><text id="text14796" class="TextShape"><tspan id="tspan14798" class="TextParagraph" font-size="388" font-weight="400" style="font-size:388px;font-weight:400;font-family:'Arial, sans-serif'"><tspan id="tspan14800" x="8196" y="1495" class="TextPosition"><tspan id="tspan14802" style="fill:#000;stroke:none">GitHub</tspan></tspan></tspan></text></g></g></g></g></g></g></svg>