<svg xmlns="http://www.w3.org/2000/svg" xmlns:ooo="http://xml.openoffice.org/svg/export" xmlns:svg="http://www.w3.org/2000/svg" id="svg17331" width="455.315" height="119.969" clip-path="url(#presentation_clip_path)" style="fill-rule:evenodd;stroke-width:28.22200012;stroke-linejoin:round" preserveAspectRatio="xMidYMid" version="1.2" viewBox="0 0 12850 3385.801" xml:space="preserve"><metadata id="metadata17556"/><defs id="defs17333" class="ClipPathGroup"><clipPath id="presentation_clip_path" clipPathUnits="userSpaceOnUse"><rect id="rect17336" width="21590" height="27940" x="0" y="0"/></clipPath></defs><defs id="defs17342" class="EmbeddedBulletChars"><g id="bullet-char-template(57356)" transform="scale(4.8828125e-4,-4.8828125e-4)"><path id="path17345" d="M 580,1141 1163,571 580,0 -4,571 580,1141 z"/></g><g id="bullet-char-template(57354)" transform="scale(4.8828125e-4,-4.8828125e-4)"><path id="path17348" d="m 8,1128 1129,0 L 1137,0 8,0 8,1128 z"/></g><g id="bullet-char-template(10146)" transform="scale(4.8828125e-4,-4.8828125e-4)"><path id="path17351" d="M 174,0 602,739 174,1481 1456,739 174,0 z m 1184,739 -1049,607 350,-607 699,0 z"/></g><g id="bullet-char-template(10132)" transform="scale(4.8828125e-4,-4.8828125e-4)"><path id="path17354" d="M 2015,739 1276,0 717,0 l 543,543 -1086,0 0,393 1086,0 -543,545 557,0 741,-742 z"/></g><g id="bullet-char-template(10007)" transform="scale(4.8828125e-4,-4.8828125e-4)"><path id="path17357" d="m 0,-2 c -7,16 -16,29 -25,39 l 381,530 c -94,256 -141,385 -141,387 0,25 13,38 40,38 9,0 21,-2 34,-5 21,4 42,12 65,25 l 27,-13 111,-251 280,301 64,-25 24,25 c 21,-10 41,-24 62,-43 C 886,937 835,863 770,784 769,783 710,716 594,584 L 774,223 c 0,-27 -21,-55 -63,-84 l 16,-20 C 717,90 699,76 672,76 641,76 570,178 457,381 L 164,-76 c -22,-34 -53,-51 -92,-51 -42,0 -63,17 -64,51 -7,9 -10,24 -10,44 0,9 1,19 2,30 z"/></g><g id="bullet-char-template(10004)" transform="scale(4.8828125e-4,-4.8828125e-4)"><path id="path17360" d="M 285,-33 C 182,-33 111,30 74,156 52,228 41,333 41,471 c 0,78 14,145 41,201 34,71 87,106 158,106 53,0 88,-31 106,-94 l 23,-176 c 8,-64 28,-97 59,-98 l 735,706 c 11,11 33,17 66,17 42,0 63,-15 63,-46 l 0,-122 c 0,-36 -10,-64 -30,-84 L 442,47 C 390,-6 338,-33 285,-33 z"/></g><g id="bullet-char-template(9679)" transform="scale(4.8828125e-4,-4.8828125e-4)"><path id="path17363" d="M 813,0 C 632,0 489,54 383,161 276,268 223,411 223,592 c 0,181 53,324 160,431 106,107 249,161 430,161 179,0 323,-54 432,-161 108,-107 162,-251 162,-431 0,-180 -54,-324 -162,-431 C 1136,54 992,0 813,0 z"/></g><g id="bullet-char-template(8226)" transform="scale(4.8828125e-4,-4.8828125e-4)"><path id="path17366" d="m 346,457 c -73,0 -137,26 -191,78 -54,51 -81,114 -81,188 0,73 27,136 81,188 54,52 118,78 191,78 73,0 134,-26 185,-79 51,-51 77,-114 77,-187 0,-75 -25,-137 -76,-188 -50,-52 -112,-78 -186,-78 z"/></g><g id="bullet-char-template(8211)" transform="scale(4.8828125e-4,-4.8828125e-4)"><path id="path17369" d="m -4,459 1139,0 0,147 -1139,0 0,-147 z"/></g></defs><g id="g17378" class="SlideGroup" transform="translate(-1146,-1115.125)"><g id="g17380"><g id="id1" class="Slide" clip-path="url(#presentation_clip_path)"><g id="g17383" class="Page"><g id="g17385" class="com.sun.star.drawing.CustomShape"><g id="id3"><path id="path17388" d="m 1171,1850 1400,0 0,1575 -175,225 -1225,0 0,-1800 z" style="fill:none;stroke:#000;stroke-width:50"/><path id="path17390" d="m 2396,3650 46,-225 c 44,33 42,14 129,0 l -175,225 z" style="fill:none;stroke:#000;stroke-width:50"/><text id="text17392" class="TextShape"><tspan id="tspan17394" class="TextParagraph" font-size="388" font-weight="400" style="font-size:388px;font-weight:400;font-family:'Arial, sans-serif'"><tspan id="tspan17396" x="1331" y="2780" class="TextPosition"><tspan id="tspan17398" style="fill:#000;stroke:none">ABCD</tspan></tspan></tspan></text></g></g><g id="g17400" class="com.sun.star.drawing.CustomShape"><g id="id4"><path id="path17403" d="m 4971,1850 1400,0 0,1575 -175,225 -1225,0 0,-1800 z" style="fill:none;stroke:#000;stroke-width:50"/><path id="path17405" d="m 6196,3650 46,-225 c 44,33 42,14 129,0 l -175,225 z" style="fill:none;stroke:#000;stroke-width:50"/><text id="text17407" class="TextShape"><tspan id="tspan17409" class="TextParagraph" font-size="388" font-weight="400" style="font-size:388px;font-weight:400;font-family:'Arial, sans-serif'"><tspan id="tspan17411" x="5131" y="2780" class="TextPosition"><tspan id="tspan17413" style="fill:#000;stroke:none">EFGH</tspan></tspan></tspan></text></g></g><g id="g17415" class="com.sun.star.drawing.CustomShape"><g id="id5"><path id="path17418" d="m 8771,1850 1400,0 0,1575 -175,225 -1225,0 0,-1800 z" style="fill:none;stroke:#000;stroke-width:50"/><path id="path17420" d="m 9996,3650 46,-225 c 44,33 42,14 129,0 l -175,225 z" style="fill:none;stroke:#000;stroke-width:50"/><text id="text17422" class="TextShape"><tspan id="tspan17424" class="TextParagraph" font-size="388" font-weight="400" style="font-size:388px;font-weight:400;font-family:'Arial, sans-serif'"><tspan id="tspan17426" x="9084" y="2780" class="TextPosition"><tspan id="tspan17428" style="fill:#000;stroke:none">IJKL</tspan></tspan></tspan></text></g></g><g id="g17430" class="com.sun.star.drawing.CustomShape"><g id="id6"><path id="path17433" d="m 12571,1850 1400,0 0,1575 -175,225 -1225,0 0,-1800 z" style="fill:none;stroke:#000;stroke-width:50"/><path id="path17435" d="m 13796,3650 46,-225 c 44,33 42,14 129,0 l -175,225 z" style="fill:none;stroke:#000;stroke-width:50"/><text id="text17437" class="TextShape"><tspan id="tspan17439" class="TextParagraph" font-size="388" font-weight="400" style="font-size:388px;font-weight:400;font-family:'Arial, sans-serif'"><tspan id="tspan17441" x="12689" y="2780" class="TextPosition"><tspan id="tspan17443" style="fill:#000;stroke:none">MNOP</tspan></tspan></tspan></text></g></g><g id="g17445" class="com.sun.star.drawing.LineShape"><g id="id7"><path id="path17448" d="m 3200,2800 770,0" style="fill:none;stroke:#000"/><path id="path17450" d="m 4400,2800 -450,-150 0,300 450,-150 z" style="fill:#000;stroke:none"/></g></g><g id="g17452" class="com.sun.star.drawing.LineShape"><g id="id8"><path id="path17455" d="m 7000,2800 770,0" style="fill:none;stroke:#000"/><path id="path17457" d="m 8200,2800 -450,-150 0,300 450,-150 z" style="fill:#000;stroke:none"/></g></g><g id="g17459" class="com.sun.star.drawing.LineShape"><g id="id9"><path id="path17462" d="m 10800,2800 770,0" style="fill:none;stroke:#000"/><path id="path17464" d="m 12000,2800 -450,-150 0,300 450,-150 z" style="fill:#000;stroke:none"/></g></g><g id="g17466" class="com.sun.star.drawing.TextShape"><g id="id10"><text id="text17469" class="TextShape"><tspan id="tspan17471" class="TextParagraph" font-size="388" font-weight="400" style="font-size:388px;font-weight:400;font-family:'Arial, sans-serif'"><tspan id="tspan17473" x="12716" y="1393" class="TextPosition"><tspan id="tspan17475" style="fill:#000;stroke:none">HEAD</tspan></tspan></tspan></text></g></g><g id="g17477" class="com.sun.star.drawing.TextShape"><g id="id11"><text id="text17480" class="TextShape"><tspan id="tspan17482" class="TextParagraph" font-size="388" font-weight="400" style="font-size:388px;font-weight:400;font-family:'Arial, sans-serif'"><tspan id="tspan17484" x="8716" y="1394" class="TextPosition"><tspan id="tspan17486" style="fill:#000;stroke:none">HEAD~1</tspan></tspan></tspan></text></g></g><g id="g17488" class="com.sun.star.drawing.TextShape"><g id="id12"><text id="text17491" class="TextShape"><tspan id="tspan17493" class="TextParagraph" font-size="388" font-weight="400" style="font-size:388px;font-weight:400;font-family:'Arial, sans-serif'"><tspan id="tspan17495" x="4916" y="1395" class="TextPosition"><tspan id="tspan17497" style="fill:#000;stroke:none">HEAD~2</tspan></tspan></tspan></text></g></g><g id="g17499" class="com.sun.star.drawing.TextShape"><g id="id13"><text id="text17502" class="TextShape"><tspan id="tspan17504" class="TextParagraph" font-size="388" font-weight="400" style="font-size:388px;font-weight:400;font-family:'Arial, sans-serif'"><tspan id="tspan17506" x="1116" y="1396" class="TextPosition"><tspan id="tspan17508" style="fill:#000;stroke:none">HEAD~3</tspan></tspan></tspan></text></g></g><g id="g17510" class="com.sun.star.drawing.TextShape"><g id="id14"><text id="text17513" class="TextShape"><tspan id="tspan17515" class="TextParagraph" font-size="388" font-weight="400" style="font-size:388px;font-weight:400;font-family:'Arial, sans-serif'"><tspan id="tspan17517" x="12716" y="4493" class="TextPosition"><tspan id="tspan17519" style="fill:#000;stroke:none">87fe65</tspan></tspan></tspan></text></g></g><g id="g17521" class="com.sun.star.drawing.TextShape"><g id="id15"><text id="text17524" class="TextShape"><tspan id="tspan17526" class="TextParagraph" font-size="388" font-weight="400" style="font-size:388px;font-weight:400;font-family:'Arial, sans-serif'"><tspan id="tspan17528" x="8716" y="4494" class="TextPosition"><tspan id="tspan17530" style="fill:#000;stroke:none">34cd56</tspan></tspan></tspan></text></g></g><g id="g17532" class="com.sun.star.drawing.TextShape"><g id="id16"><text id="text17535" class="TextShape"><tspan id="tspan17537" class="TextParagraph" font-size="388" font-weight="400" style="font-size:388px;font-weight:400;font-family:'Arial, sans-serif'"><tspan id="tspan17539" x="4916" y="4495" class="TextPosition"><tspan id="tspan17541" style="fill:#000;stroke:none">9b8765</tspan></tspan></tspan></text></g></g><g id="g17543" class="com.sun.star.drawing.TextShape"><g id="id17"><text id="text17546" class="TextShape"><tspan id="tspan17548" class="TextParagraph" font-size="388" font-weight="400" style="font-size:388px;font-weight:400;font-family:'Arial, sans-serif'"><tspan id="tspan17550" x="1216" y="4496" class="TextPosition"><tspan id="tspan17552" style="fill:#000;stroke:none">1a2345</tspan></tspan></tspan></text></g></g></g></g></g></g></svg>