<svg xmlns="http://www.w3.org/2000/svg" xmlns:ooo="http://xml.openoffice.org/svg/export" xmlns:svg="http://www.w3.org/2000/svg" id="svg11418" width="560.161" height="329.97" clip-path="url(#presentation_clip_path)" style="fill-rule:evenodd;stroke-width:28.22200012;stroke-linejoin:round" preserveAspectRatio="xMidYMid" version="1.2" viewBox="0 0 15809.001 9312.475" xml:space="preserve"><metadata id="metadata12174"/><defs id="defs11420" class="ClipPathGroup"><clipPath id="presentation_clip_path" clipPathUnits="userSpaceOnUse"><rect id="rect11423" width="21590" height="27940" x="0" y="0"/></clipPath></defs><defs id="defs11429" class="EmbeddedBulletChars"><g id="bullet-char-template(57356)" transform="scale(4.8828125e-4,-4.8828125e-4)"><path id="path11432" d="M 580,1141 1163,571 580,0 -4,571 580,1141 z"/></g><g id="bullet-char-template(57354)" transform="scale(4.8828125e-4,-4.8828125e-4)"><path id="path11435" d="m 8,1128 1129,0 L 1137,0 8,0 8,1128 z"/></g><g id="bullet-char-template(10146)" transform="scale(4.8828125e-4,-4.8828125e-4)"><path id="path11438" d="M 174,0 602,739 174,1481 1456,739 174,0 z m 1184,739 -1049,607 350,-607 699,0 z"/></g><g id="bullet-char-template(10132)" transform="scale(4.8828125e-4,-4.8828125e-4)"><path id="path11441" d="M 2015,739 1276,0 717,0 l 543,543 -1086,0 0,393 1086,0 -543,545 557,0 741,-742 z"/></g><g id="bullet-char-template(10007)" transform="scale(4.8828125e-4,-4.8828125e-4)"><path id="path11444" d="m 0,-2 c -7,16 -16,29 -25,39 l 381,530 c -94,256 -141,385 -141,387 0,25 13,38 40,38 9,0 21,-2 34,-5 21,4 42,12 65,25 l 27,-13 111,-251 280,301 64,-25 24,25 c 21,-10 41,-24 62,-43 C 886,937 835,863 770,784 769,783 710,716 594,584 L 774,223 c 0,-27 -21,-55 -63,-84 l 16,-20 C 717,90 699,76 672,76 641,76 570,178 457,381 L 164,-76 c -22,-34 -53,-51 -92,-51 -42,0 -63,17 -64,51 -7,9 -10,24 -10,44 0,9 1,19 2,30 z"/></g><g id="bullet-char-template(10004)" transform="scale(4.8828125e-4,-4.8828125e-4)"><path id="path11447" d="M 285,-33 C 182,-33 111,30 74,156 52,228 41,333 41,471 c 0,78 14,145 41,201 34,71 87,106 158,106 53,0 88,-31 106,-94 l 23,-176 c 8,-64 28,-97 59,-98 l 735,706 c 11,11 33,17 66,17 42,0 63,-15 63,-46 l 0,-122 c 0,-36 -10,-64 -30,-84 L 442,47 C 390,-6 338,-33 285,-33 z"/></g><g id="bullet-char-template(9679)" transform="scale(4.8828125e-4,-4.8828125e-4)"><path id="path11450" d="M 813,0 C 632,0 489,54 383,161 276,268 223,411 223,592 c 0,181 53,324 160,431 106,107 249,161 430,161 179,0 323,-54 432,-161 108,-107 162,-251 162,-431 0,-180 -54,-324 -162,-431 C 1136,54 992,0 813,0 z"/></g><g id="bullet-char-template(8226)" transform="scale(4.8828125e-4,-4.8828125e-4)"><path id="path11453" d="m 346,457 c -73,0 -137,26 -191,78 -54,51 -81,114 -81,188 0,73 27,136 81,188 54,52 118,78 191,78 73,0 134,-26 185,-79 51,-51 77,-114 77,-187 0,-75 -25,-137 -76,-188 -50,-52 -112,-78 -186,-78 z"/></g><g id="bullet-char-template(8211)" transform="scale(4.8828125e-4,-4.8828125e-4)"><path id="path11456" d="m -4,459 1139,0 0,147 -1139,0 0,-147 z"/></g></defs><g id="g11465" class="SlideGroup" transform="translate(-1075,-1212.5254)"><g id="g11467"><g id="id1" class="Slide" clip-path="url(#presentation_clip_path)"><g id="g11470" class="Page"><g id="g11472" class="com.sun.star.drawing.CustomShape"><g id="id3"><path id="path11475" d="m 2750,4147 1400,0 0,1575 -175,225 -1225,0 0,-1800 z" style="fill:none;stroke:#000;stroke-width:50"/><path id="path11477" d="m 3975,5947 46,-225 c 44,33 42,14 129,0 l -175,225 z" style="fill:none;stroke:#000;stroke-width:50"/></g></g><g id="g11479" class="com.sun.star.drawing.TextShape"><g id="id4"><text id="text11482" class="TextShape"><tspan id="tspan11484" class="TextParagraph" font-size="388" font-weight="400" style="font-size:388px;font-weight:400;font-family:'Arial, sans-serif'"><tspan id="tspan11486" x="2759" y="6793" class="TextPosition"><tspan id="tspan11488" style="fill:#000;stroke:none">mars.txt</tspan></tspan></tspan></text></g></g><g id="g11490" class="com.sun.star.drawing.CustomShape"><g id="id5"><path id="path11493" d="m 1800,2300 c -100,0 -200,100 -200,200 l 0,800 c 0,100 100,201 200,201 l 3300,0 c 100,0 201,-101 201,-201 l 0,-800 c 0,-100 -101,-200 -201,-200 l -3300,0 z" style="fill:none;stroke:#000;stroke-width:50"/><text id="text11495" class="TextShape"><tspan id="tspan11497" class="TextParagraph" font-size="388" font-weight="400" style="font-size:388px;font-weight:400;font-family:'Arial, sans-serif'"><tspan id="tspan11499" x="1822" y="3035" class="TextPosition"><tspan id="tspan11501" style="fill:#000;stroke:none">/home/vlad/planets</tspan></tspan></tspan></text></g></g><g id="g11503" class="com.sun.star.drawing.CustomShape"><g id="id6"><path id="path11506" d="m 12650,2300 c -100,0 -200,100 -200,200 l 0,800 c 0,100 100,201 200,201 l 3300,0 c 100,0 201,-101 201,-201 l 0,-800 c 0,-100 -101,-200 -201,-200 l -3300,0 z" style="fill:none;stroke:#000;stroke-width:50"/><text id="text11508" class="TextShape"><tspan id="tspan11510" class="TextParagraph" font-size="388" font-weight="400" style="font-size:388px;font-weight:400;font-family:'Arial, sans-serif'"><tspan id="tspan11512" x="12564" y="3035" class="TextPosition"><tspan id="tspan11514" style="fill:#000;stroke:none">/somewhere/planets</tspan></tspan></tspan></text></g></g><g id="g11516" class="com.sun.star.drawing.LineShape"><g id="id7"><path id="path11519" d="m 11500,1300 0,51" style="fill:none;stroke:#000;stroke-width:50"/><path id="path11521" d="m 11500,1402 0,51" style="fill:none;stroke:#000;stroke-width:50"/><path id="path11523" d="m 11500,1504 0,51" style="fill:none;stroke:#000;stroke-width:50"/><path id="path11525" d="m 11500,1606 0,51" style="fill:none;stroke:#000;stroke-width:50"/><path id="path11527" d="m 11500,1708 0,51" style="fill:none;stroke:#000;stroke-width:50"/><path id="path11529" d="m 11500,1810 0,51" style="fill:none;stroke:#000;stroke-width:50"/><path id="path11531" d="m 11500,1912 0,51" style="fill:none;stroke:#000;stroke-width:50"/><path id="path11533" d="m 11500,2014 0,51" style="fill:none;stroke:#000;stroke-width:50"/><path id="path11535" d="m 11500,2116 0,51" style="fill:none;stroke:#000;stroke-width:50"/><path id="path11537" d="m 11500,2218 0,51" style="fill:none;stroke:#000;stroke-width:50"/><path id="path11539" d="m 11500,2320 0,51" style="fill:none;stroke:#000;stroke-width:50"/><path id="path11541" d="m 11500,2422 0,51" style="fill:none;stroke:#000;stroke-width:50"/><path id="path11543" d="m 11500,2524 0,51" style="fill:none;stroke:#000;stroke-width:50"/><path id="path11545" d="m 11500,2626 0,51" style="fill:none;stroke:#000;stroke-width:50"/><path id="path11547" d="m 11500,2728 0,51" style="fill:none;stroke:#000;stroke-width:50"/><path id="path11549" d="m 11500,2830 0,51" style="fill:none;stroke:#000;stroke-width:50"/><path id="path11551" d="m 11500,2932 0,51" style="fill:none;stroke:#000;stroke-width:50"/><path id="path11553" d="m 11500,3034 0,51" style="fill:none;stroke:#000;stroke-width:50"/><path id="path11555" d="m 11500,3136 0,51" style="fill:none;stroke:#000;stroke-width:50"/><path id="path11557" d="m 11500,3238 0,51" style="fill:none;stroke:#000;stroke-width:50"/><path id="path11559" d="m 11500,3340 0,51" style="fill:none;stroke:#000;stroke-width:50"/><path id="path11561" d="m 11500,3442 0,51" style="fill:none;stroke:#000;stroke-width:50"/><path id="path11563" d="m 11500,3544 0,51" style="fill:none;stroke:#000;stroke-width:50"/><path id="path11565" d="m 11500,3646 0,51" style="fill:none;stroke:#000;stroke-width:50"/><path id="path11567" d="m 11500,3748 0,51" style="fill:none;stroke:#000;stroke-width:50"/><path id="path11569" d="m 11500,3850 0,51" style="fill:none;stroke:#000;stroke-width:50"/><path id="path11571" d="m 11500,3952 0,51" style="fill:none;stroke:#000;stroke-width:50"/><path id="path11573" d="m 11500,4054 0,51" style="fill:none;stroke:#000;stroke-width:50"/><path id="path11575" d="m 11500,4156 0,51" style="fill:none;stroke:#000;stroke-width:50"/><path id="path11577" d="m 11500,4258 0,51" style="fill:none;stroke:#000;stroke-width:50"/><path id="path11579" d="m 11500,4360 0,51" style="fill:none;stroke:#000;stroke-width:50"/><path id="path11581" d="m 11500,4462 0,51" style="fill:none;stroke:#000;stroke-width:50"/><path id="path11583" d="m 11500,4564 0,51" style="fill:none;stroke:#000;stroke-width:50"/><path id="path11585" d="m 11500,4666 0,51" style="fill:none;stroke:#000;stroke-width:50"/><path id="path11587" d="m 11500,4768 0,51" style="fill:none;stroke:#000;stroke-width:50"/><path id="path11589" d="m 11500,4870 0,51" style="fill:none;stroke:#000;stroke-width:50"/><path id="path11591" d="m 11500,4972 0,51" style="fill:none;stroke:#000;stroke-width:50"/><path id="path11593" d="m 11500,5074 0,51" style="fill:none;stroke:#000;stroke-width:50"/><path id="path11595" d="m 11500,5176 0,51" style="fill:none;stroke:#000;stroke-width:50"/><path id="path11597" d="m 11500,5278 0,51" style="fill:none;stroke:#000;stroke-width:50"/><path id="path11599" d="m 11500,5380 0,51" style="fill:none;stroke:#000;stroke-width:50"/><path id="path11601" d="m 11500,5482 0,51" style="fill:none;stroke:#000;stroke-width:50"/><path id="path11603" d="m 11500,5584 0,51" style="fill:none;stroke:#000;stroke-width:50"/><path id="path11605" d="m 11500,5686 0,51" style="fill:none;stroke:#000;stroke-width:50"/><path id="path11607" d="m 11500,5788 0,51" style="fill:none;stroke:#000;stroke-width:50"/><path id="path11609" d="m 11500,5890 0,51" style="fill:none;stroke:#000;stroke-width:50"/><path id="path11611" d="m 11500,5992 0,51" style="fill:none;stroke:#000;stroke-width:50"/><path id="path11613" d="m 11500,6094 0,51" style="fill:none;stroke:#000;stroke-width:50"/><path id="path11615" d="m 11500,6196 0,51" style="fill:none;stroke:#000;stroke-width:50"/><path id="path11617" d="m 11500,6298 0,51" style="fill:none;stroke:#000;stroke-width:50"/><path id="path11619" d="m 11500,6400 0,51" style="fill:none;stroke:#000;stroke-width:50"/><path id="path11621" d="m 11500,6502 0,51" style="fill:none;stroke:#000;stroke-width:50"/><path id="path11623" d="m 11500,6604 0,51" style="fill:none;stroke:#000;stroke-width:50"/><path id="path11625" d="m 11500,6706 0,51" style="fill:none;stroke:#000;stroke-width:50"/><path id="path11627" d="m 11500,6808 0,51" style="fill:none;stroke:#000;stroke-width:50"/><path id="path11629" d="m 11500,6910 0,51" style="fill:none;stroke:#000;stroke-width:50"/><path id="path11631" d="m 11500,7012 0,51" style="fill:none;stroke:#000;stroke-width:50"/><path id="path11633" d="m 11500,7114 0,51" style="fill:none;stroke:#000;stroke-width:50"/><path id="path11635" d="m 11500,7216 0,51" style="fill:none;stroke:#000;stroke-width:50"/><path id="path11637" d="m 11500,7318 0,51" style="fill:none;stroke:#000;stroke-width:50"/><path id="path11639" d="m 11500,7420 0,51" style="fill:none;stroke:#000;stroke-width:50"/><path id="path11641" d="m 11500,7522 0,51" style="fill:none;stroke:#000;stroke-width:50"/><path id="path11643" d="m 11500,7624 0,51" style="fill:none;stroke:#000;stroke-width:50"/><path id="path11645" d="m 11500,7726 0,51" style="fill:none;stroke:#000;stroke-width:50"/><path id="path11647" d="m 11500,7828 0,51" style="fill:none;stroke:#000;stroke-width:50"/><path id="path11649" d="m 11500,7930 0,51" style="fill:none;stroke:#000;stroke-width:50"/><path id="path11651" d="m 11500,8032 0,51" style="fill:none;stroke:#000;stroke-width:50"/><path id="path11653" d="m 11500,8134 0,51" style="fill:none;stroke:#000;stroke-width:50"/><path id="path11655" d="m 11500,8236 0,51" style="fill:none;stroke:#000;stroke-width:50"/><path id="path11657" d="m 11500,8338 0,51" style="fill:none;stroke:#000;stroke-width:50"/><path id="path11659" d="m 11500,8440 0,51" style="fill:none;stroke:#000;stroke-width:50"/><path id="path11661" d="m 11500,8542 0,51" style="fill:none;stroke:#000;stroke-width:50"/><path id="path11663" d="m 11500,8644 0,51" style="fill:none;stroke:#000;stroke-width:50"/><path id="path11665" d="m 11500,8746 0,51" style="fill:none;stroke:#000;stroke-width:50"/><path id="path11667" d="m 11500,8848 0,51" style="fill:none;stroke:#000;stroke-width:50"/><path id="path11669" d="m 11500,8950 0,51" style="fill:none;stroke:#000;stroke-width:50"/><path id="path11671" d="m 11500,9052 0,51" style="fill:none;stroke:#000;stroke-width:50"/><path id="path11673" d="m 11500,9154 0,51" style="fill:none;stroke:#000;stroke-width:50"/><path id="path11675" d="m 11500,9256 0,51" style="fill:none;stroke:#000;stroke-width:50"/><path id="path11677" d="m 11500,9358 0,51" style="fill:none;stroke:#000;stroke-width:50"/><path id="path11679" d="m 11500,9460 0,51" style="fill:none;stroke:#000;stroke-width:50"/><path id="path11681" d="m 11500,9562 0,51" style="fill:none;stroke:#000;stroke-width:50"/><path id="path11683" d="m 11500,9664 0,51" style="fill:none;stroke:#000;stroke-width:50"/><path id="path11685" d="m 11500,9766 0,51" style="fill:none;stroke:#000;stroke-width:50"/><path id="path11687" d="m 11500,9868 0,51" style="fill:none;stroke:#000;stroke-width:50"/><path id="path11689" d="m 11500,9970 0,51" style="fill:none;stroke:#000;stroke-width:50"/><path id="path11691" d="m 11500,10072 0,51" style="fill:none;stroke:#000;stroke-width:50"/><path id="path11693" d="m 11500,10174 0,51" style="fill:none;stroke:#000;stroke-width:50"/><path id="path11695" d="m 11500,10276 0,51" style="fill:none;stroke:#000;stroke-width:50"/><path id="path11697" d="m 11500,10378 0,51" style="fill:none;stroke:#000;stroke-width:50"/><path id="path11699" d="m 11500,10480 0,20" style="fill:none;stroke:#000;stroke-width:50"/></g></g><g id="g11701" class="com.sun.star.drawing.LineShape"><g id="id8"><path id="path11704" d="m 1100,1800 51,0" style="fill:none;stroke:#000;stroke-width:50"/><path id="path11706" d="m 1202,1800 51,0" style="fill:none;stroke:#000;stroke-width:50"/><path id="path11708" d="m 1304,1800 51,0" style="fill:none;stroke:#000;stroke-width:50"/><path id="path11710" d="m 1406,1800 51,0" style="fill:none;stroke:#000;stroke-width:50"/><path id="path11712" d="m 1508,1800 51,0" style="fill:none;stroke:#000;stroke-width:50"/><path id="path11714" d="m 1610,1800 51,0" style="fill:none;stroke:#000;stroke-width:50"/><path id="path11716" d="m 1712,1800 51,0" style="fill:none;stroke:#000;stroke-width:50"/><path id="path11718" d="m 1814,1800 51,0" style="fill:none;stroke:#000;stroke-width:50"/><path id="path11720" d="m 1916,1800 51,0" style="fill:none;stroke:#000;stroke-width:50"/><path id="path11722" d="m 2018,1800 51,0" style="fill:none;stroke:#000;stroke-width:50"/><path id="path11724" d="m 2120,1800 51,0" style="fill:none;stroke:#000;stroke-width:50"/><path id="path11726" d="m 2222,1800 51,0" style="fill:none;stroke:#000;stroke-width:50"/><path id="path11728" d="m 2324,1800 51,0" style="fill:none;stroke:#000;stroke-width:50"/><path id="path11730" d="m 2426,1800 51,0" style="fill:none;stroke:#000;stroke-width:50"/><path id="path11732" d="m 2528,1800 51,0" style="fill:none;stroke:#000;stroke-width:50"/><path id="path11734" d="m 2630,1800 51,0" style="fill:none;stroke:#000;stroke-width:50"/><path id="path11736" d="m 2732,1800 51,0" style="fill:none;stroke:#000;stroke-width:50"/><path id="path11738" d="m 2834,1800 51,0" style="fill:none;stroke:#000;stroke-width:50"/><path id="path11740" d="m 2936,1800 51,0" style="fill:none;stroke:#000;stroke-width:50"/><path id="path11742" d="m 3038,1800 51,0" style="fill:none;stroke:#000;stroke-width:50"/><path id="path11744" d="m 3140,1800 51,0" style="fill:none;stroke:#000;stroke-width:50"/><path id="path11746" d="m 3242,1800 51,0" style="fill:none;stroke:#000;stroke-width:50"/><path id="path11748" d="m 3344,1800 51,0" style="fill:none;stroke:#000;stroke-width:50"/><path id="path11750" d="m 3446,1800 51,0" style="fill:none;stroke:#000;stroke-width:50"/><path id="path11752" d="m 3548,1800 51,0" style="fill:none;stroke:#000;stroke-width:50"/><path id="path11754" d="m 3650,1800 51,0" style="fill:none;stroke:#000;stroke-width:50"/><path id="path11756" d="m 3752,1800 51,0" style="fill:none;stroke:#000;stroke-width:50"/><path id="path11758" d="m 3854,1800 51,0" style="fill:none;stroke:#000;stroke-width:50"/><path id="path11760" d="m 3956,1800 51,0" style="fill:none;stroke:#000;stroke-width:50"/><path id="path11762" d="m 4058,1800 51,0" style="fill:none;stroke:#000;stroke-width:50"/><path id="path11764" d="m 4160,1800 51,0" style="fill:none;stroke:#000;stroke-width:50"/><path id="path11766" d="m 4262,1800 51,0" style="fill:none;stroke:#000;stroke-width:50"/><path id="path11768" d="m 4364,1800 51,0" style="fill:none;stroke:#000;stroke-width:50"/><path id="path11770" d="m 4466,1800 51,0" style="fill:none;stroke:#000;stroke-width:50"/><path id="path11772" d="m 4568,1800 51,0" style="fill:none;stroke:#000;stroke-width:50"/><path id="path11774" d="m 4670,1800 51,0" style="fill:none;stroke:#000;stroke-width:50"/><path id="path11776" d="m 4772,1800 51,0" style="fill:none;stroke:#000;stroke-width:50"/><path id="path11778" d="m 4874,1800 51,0" style="fill:none;stroke:#000;stroke-width:50"/><path id="path11780" d="m 4976,1800 51,0" style="fill:none;stroke:#000;stroke-width:50"/><path id="path11782" d="m 5078,1800 51,0" style="fill:none;stroke:#000;stroke-width:50"/><path id="path11784" d="m 5180,1800 51,0" style="fill:none;stroke:#000;stroke-width:50"/><path id="path11786" d="m 5282,1800 51,0" style="fill:none;stroke:#000;stroke-width:50"/><path id="path11788" d="m 5384,1800 51,0" style="fill:none;stroke:#000;stroke-width:50"/><path id="path11790" d="m 5486,1800 51,0" style="fill:none;stroke:#000;stroke-width:50"/><path id="path11792" d="m 5588,1800 51,0" style="fill:none;stroke:#000;stroke-width:50"/><path id="path11794" d="m 5690,1800 51,0" style="fill:none;stroke:#000;stroke-width:50"/><path id="path11796" d="m 5792,1800 51,0" style="fill:none;stroke:#000;stroke-width:50"/><path id="path11798" d="m 5894,1800 51,0" style="fill:none;stroke:#000;stroke-width:50"/><path id="path11800" d="m 5996,1800 51,0" style="fill:none;stroke:#000;stroke-width:50"/><path id="path11802" d="m 6098,1800 51,0" style="fill:none;stroke:#000;stroke-width:50"/><path id="path11804" d="m 6200,1800 51,0" style="fill:none;stroke:#000;stroke-width:50"/><path id="path11806" d="m 6302,1800 51,0" style="fill:none;stroke:#000;stroke-width:50"/><path id="path11808" d="m 6404,1800 51,0" style="fill:none;stroke:#000;stroke-width:50"/><path id="path11810" d="m 6506,1800 51,0" style="fill:none;stroke:#000;stroke-width:50"/><path id="path11812" d="m 6608,1800 51,0" style="fill:none;stroke:#000;stroke-width:50"/><path id="path11814" d="m 6710,1800 51,0" style="fill:none;stroke:#000;stroke-width:50"/><path id="path11816" d="m 6812,1800 51,0" style="fill:none;stroke:#000;stroke-width:50"/><path id="path11818" d="m 6914,1800 51,0" style="fill:none;stroke:#000;stroke-width:50"/><path id="path11820" d="m 7016,1800 51,0" style="fill:none;stroke:#000;stroke-width:50"/><path id="path11822" d="m 7118,1800 51,0" style="fill:none;stroke:#000;stroke-width:50"/><path id="path11824" d="m 7220,1800 51,0" style="fill:none;stroke:#000;stroke-width:50"/><path id="path11826" d="m 7322,1800 51,0" style="fill:none;stroke:#000;stroke-width:50"/><path id="path11828" d="m 7424,1800 51,0" style="fill:none;stroke:#000;stroke-width:50"/><path id="path11830" d="m 7526,1800 51,0" style="fill:none;stroke:#000;stroke-width:50"/><path id="path11832" d="m 7628,1800 51,0" style="fill:none;stroke:#000;stroke-width:50"/><path id="path11834" d="m 7730,1800 51,0" style="fill:none;stroke:#000;stroke-width:50"/><path id="path11836" d="m 7832,1800 51,0" style="fill:none;stroke:#000;stroke-width:50"/><path id="path11838" d="m 7934,1800 51,0" style="fill:none;stroke:#000;stroke-width:50"/><path id="path11840" d="m 8036,1800 51,0" style="fill:none;stroke:#000;stroke-width:50"/><path id="path11842" d="m 8138,1800 51,0" style="fill:none;stroke:#000;stroke-width:50"/><path id="path11844" d="m 8240,1800 51,0" style="fill:none;stroke:#000;stroke-width:50"/><path id="path11846" d="m 8342,1800 51,0" style="fill:none;stroke:#000;stroke-width:50"/><path id="path11848" d="m 8444,1800 51,0" style="fill:none;stroke:#000;stroke-width:50"/><path id="path11850" d="m 8546,1800 51,0" style="fill:none;stroke:#000;stroke-width:50"/><path id="path11852" d="m 8648,1800 51,0" style="fill:none;stroke:#000;stroke-width:50"/><path id="path11854" d="m 8750,1800 51,0" style="fill:none;stroke:#000;stroke-width:50"/><path id="path11856" d="m 8852,1800 51,0" style="fill:none;stroke:#000;stroke-width:50"/><path id="path11858" d="m 8954,1800 51,0" style="fill:none;stroke:#000;stroke-width:50"/><path id="path11860" d="m 9056,1800 51,0" style="fill:none;stroke:#000;stroke-width:50"/><path id="path11862" d="m 9158,1800 51,0" style="fill:none;stroke:#000;stroke-width:50"/><path id="path11864" d="m 9260,1800 51,0" style="fill:none;stroke:#000;stroke-width:50"/><path id="path11866" d="m 9362,1800 51,0" style="fill:none;stroke:#000;stroke-width:50"/><path id="path11868" d="m 9464,1800 51,0" style="fill:none;stroke:#000;stroke-width:50"/><path id="path11870" d="m 9566,1800 51,0" style="fill:none;stroke:#000;stroke-width:50"/><path id="path11872" d="m 9668,1800 51,0" style="fill:none;stroke:#000;stroke-width:50"/><path id="path11874" d="m 9770,1800 51,0" style="fill:none;stroke:#000;stroke-width:50"/><path id="path11876" d="m 9872,1800 51,0" style="fill:none;stroke:#000;stroke-width:50"/><path id="path11878" d="m 9974,1800 51,0" style="fill:none;stroke:#000;stroke-width:50"/><path id="path11880" d="m 10076,1800 51,0" style="fill:none;stroke:#000;stroke-width:50"/><path id="path11882" d="m 10178,1800 51,0" style="fill:none;stroke:#000;stroke-width:50"/><path id="path11884" d="m 10280,1800 51,0" style="fill:none;stroke:#000;stroke-width:50"/><path id="path11886" d="m 10382,1800 51,0" style="fill:none;stroke:#000;stroke-width:50"/><path id="path11888" d="m 10484,1800 51,0" style="fill:none;stroke:#000;stroke-width:50"/><path id="path11890" d="m 10586,1800 51,0" style="fill:none;stroke:#000;stroke-width:50"/><path id="path11892" d="m 10688,1800 51,0" style="fill:none;stroke:#000;stroke-width:50"/><path id="path11894" d="m 10790,1800 51,0" style="fill:none;stroke:#000;stroke-width:50"/><path id="path11896" d="m 10892,1800 51,0" style="fill:none;stroke:#000;stroke-width:50"/><path id="path11898" d="m 10994,1800 51,0" style="fill:none;stroke:#000;stroke-width:50"/><path id="path11900" d="m 11096,1800 51,0" style="fill:none;stroke:#000;stroke-width:50"/><path id="path11902" d="m 11198,1800 51,0" style="fill:none;stroke:#000;stroke-width:50"/><path id="path11904" d="m 11300,1800 51,0" style="fill:none;stroke:#000;stroke-width:50"/><path id="path11906" d="m 11402,1800 51,0" style="fill:none;stroke:#000;stroke-width:50"/><path id="path11908" d="m 11504,1800 51,0" style="fill:none;stroke:#000;stroke-width:50"/><path id="path11910" d="m 11606,1800 51,0" style="fill:none;stroke:#000;stroke-width:50"/><path id="path11912" d="m 11708,1800 51,0" style="fill:none;stroke:#000;stroke-width:50"/><path id="path11914" d="m 11810,1800 51,0" style="fill:none;stroke:#000;stroke-width:50"/><path id="path11916" d="m 11912,1800 51,0" style="fill:none;stroke:#000;stroke-width:50"/><path id="path11918" d="m 12014,1800 51,0" style="fill:none;stroke:#000;stroke-width:50"/><path id="path11920" d="m 12116,1800 51,0" style="fill:none;stroke:#000;stroke-width:50"/><path id="path11922" d="m 12218,1800 51,0" style="fill:none;stroke:#000;stroke-width:50"/><path id="path11924" d="m 12320,1800 51,0" style="fill:none;stroke:#000;stroke-width:50"/><path id="path11926" d="m 12422,1800 51,0" style="fill:none;stroke:#000;stroke-width:50"/><path id="path11928" d="m 12524,1800 51,0" style="fill:none;stroke:#000;stroke-width:50"/><path id="path11930" d="m 12626,1800 51,0" style="fill:none;stroke:#000;stroke-width:50"/><path id="path11932" d="m 12728,1800 51,0" style="fill:none;stroke:#000;stroke-width:50"/><path id="path11934" d="m 12830,1800 51,0" style="fill:none;stroke:#000;stroke-width:50"/><path id="path11936" d="m 12932,1800 51,0" style="fill:none;stroke:#000;stroke-width:50"/><path id="path11938" d="m 13034,1800 51,0" style="fill:none;stroke:#000;stroke-width:50"/><path id="path11940" d="m 13136,1800 51,0" style="fill:none;stroke:#000;stroke-width:50"/><path id="path11942" d="m 13238,1800 51,0" style="fill:none;stroke:#000;stroke-width:50"/><path id="path11944" d="m 13340,1800 51,0" style="fill:none;stroke:#000;stroke-width:50"/><path id="path11946" d="m 13442,1800 51,0" style="fill:none;stroke:#000;stroke-width:50"/><path id="path11948" d="m 13544,1800 51,0" style="fill:none;stroke:#000;stroke-width:50"/><path id="path11950" d="m 13646,1800 51,0" style="fill:none;stroke:#000;stroke-width:50"/><path id="path11952" d="m 13748,1800 51,0" style="fill:none;stroke:#000;stroke-width:50"/><path id="path11954" d="m 13850,1800 51,0" style="fill:none;stroke:#000;stroke-width:50"/><path id="path11956" d="m 13952,1800 51,0" style="fill:none;stroke:#000;stroke-width:50"/><path id="path11958" d="m 14054,1800 51,0" style="fill:none;stroke:#000;stroke-width:50"/><path id="path11960" d="m 14156,1800 51,0" style="fill:none;stroke:#000;stroke-width:50"/><path id="path11962" d="m 14258,1800 51,0" style="fill:none;stroke:#000;stroke-width:50"/><path id="path11964" d="m 14360,1800 51,0" style="fill:none;stroke:#000;stroke-width:50"/><path id="path11966" d="m 14462,1800 51,0" style="fill:none;stroke:#000;stroke-width:50"/><path id="path11968" d="m 14564,1800 51,0" style="fill:none;stroke:#000;stroke-width:50"/><path id="path11970" d="m 14666,1800 51,0" style="fill:none;stroke:#000;stroke-width:50"/><path id="path11972" d="m 14768,1800 51,0" style="fill:none;stroke:#000;stroke-width:50"/><path id="path11974" d="m 14870,1800 51,0" style="fill:none;stroke:#000;stroke-width:50"/><path id="path11976" d="m 14972,1800 51,0" style="fill:none;stroke:#000;stroke-width:50"/><path id="path11978" d="m 15074,1800 51,0" style="fill:none;stroke:#000;stroke-width:50"/><path id="path11980" d="m 15176,1800 51,0" style="fill:none;stroke:#000;stroke-width:50"/><path id="path11982" d="m 15278,1800 51,0" style="fill:none;stroke:#000;stroke-width:50"/><path id="path11984" d="m 15380,1800 51,0" style="fill:none;stroke:#000;stroke-width:50"/><path id="path11986" d="m 15482,1800 51,0" style="fill:none;stroke:#000;stroke-width:50"/><path id="path11988" d="m 15584,1800 51,0" style="fill:none;stroke:#000;stroke-width:50"/><path id="path11990" d="m 15686,1800 51,0" style="fill:none;stroke:#000;stroke-width:50"/><path id="path11992" d="m 15788,1800 51,0" style="fill:none;stroke:#000;stroke-width:50"/><path id="path11994" d="m 15890,1800 51,0" style="fill:none;stroke:#000;stroke-width:50"/><path id="path11996" d="m 15992,1800 51,0" style="fill:none;stroke:#000;stroke-width:50"/><path id="path11998" d="m 16094,1800 51,0" style="fill:none;stroke:#000;stroke-width:50"/><path id="path12000" d="m 16196,1800 51,0" style="fill:none;stroke:#000;stroke-width:50"/><path id="path12002" d="m 16298,1800 51,0" style="fill:none;stroke:#000;stroke-width:50"/><path id="path12004" d="m 16400,1800 51,0" style="fill:none;stroke:#000;stroke-width:50"/><path id="path12006" d="m 16502,1800 51,0" style="fill:none;stroke:#000;stroke-width:50"/><path id="path12008" d="m 16604,1800 51,0" style="fill:none;stroke:#000;stroke-width:50"/><path id="path12010" d="m 16706,1800 51,0" style="fill:none;stroke:#000;stroke-width:50"/><path id="path12012" d="m 16808,1800 51,0" style="fill:none;stroke:#000;stroke-width:50"/></g></g><g id="g12014" class="com.sun.star.drawing.TextShape"><g id="id9"><text id="text12017" class="TextShape"><tspan id="tspan12019" class="TextParagraph" font-size="388" font-weight="400" style="font-size:388px;font-weight:400;font-family:'Arial, sans-serif'"><tspan id="tspan12021" x="5951" y="1494" class="TextPosition"><tspan id="tspan12023" style="fill:#000;stroke:none">local</tspan></tspan></tspan></text></g></g><g id="g12025" class="com.sun.star.drawing.TextShape"><g id="id10"><text id="text12028" class="TextShape"><tspan id="tspan12030" class="TextParagraph" font-size="388" font-weight="400" style="font-size:388px;font-weight:400;font-family:'Arial, sans-serif'"><tspan id="tspan12032" x="13696" y="1495" class="TextPosition"><tspan id="tspan12034" style="fill:#000;stroke:none">GitHub</tspan></tspan></tspan></text></g></g><g id="g12036" class="com.sun.star.drawing.CustomShape"><g id="id11"><path id="path12039" d="m 13750,4148 1400,0 0,1575 -175,225 -1225,0 0,-1800 z" style="fill:none;stroke:#000;stroke-width:50"/><path id="path12041" d="m 14975,5948 46,-225 c 44,33 42,14 129,0 l -175,225 z" style="fill:none;stroke:#000;stroke-width:50"/></g></g><g id="g12043" class="com.sun.star.drawing.TextShape"><g id="id12"><text id="text12046" class="TextShape"><tspan id="tspan12048" class="TextParagraph" font-size="388" font-weight="400" style="font-size:388px;font-weight:400;font-family:'Arial, sans-serif'"><tspan id="tspan12050" x="13759" y="6794" class="TextPosition"><tspan id="tspan12052" style="fill:#000;stroke:none">mars.txt</tspan></tspan></tspan></text></g></g><g id="g12054" class="com.sun.star.drawing.CustomShape"><g id="id13"><path id="path12057" d="m 7850,4147 1400,0 0,1575 -175,225 -1225,0 0,-1800 z" style="fill:none;stroke:#000;stroke-width:50"/><path id="path12059" d="m 9075,5947 46,-225 c 44,33 42,14 129,0 l -175,225 z" style="fill:none;stroke:#000;stroke-width:50"/></g></g><g id="g12061" class="com.sun.star.drawing.TextShape"><g id="id14"><text id="text12064" class="TextShape"><tspan id="tspan12066" class="TextParagraph" font-size="388" font-weight="400" style="font-size:388px;font-weight:400;font-family:'Arial, sans-serif'"><tspan id="tspan12068" x="7859" y="6793" class="TextPosition"><tspan id="tspan12070" style="fill:#000;stroke:none">mars.txt</tspan></tspan></tspan></text></g></g><g id="g12072" class="com.sun.star.drawing.CustomShape"><g id="id15"><path id="path12075" d="m 6900,2300 c -100,0 -200,100 -200,200 l 0,800 c 0,100 100,201 200,201 l 3300,0 c 100,0 201,-101 201,-201 l 0,-800 c 0,-100 -101,-200 -201,-200 l -3300,0 z" style="fill:none;stroke:#000;stroke-width:50"/><text id="text12077" class="TextShape"><tspan id="tspan12079" class="TextParagraph" font-size="388" font-weight="400" style="font-size:388px;font-weight:400;font-family:'Arial, sans-serif'"><tspan id="tspan12081" x="7494" y="3035" class="TextPosition"><tspan id="tspan12083" style="fill:#000;stroke:none">/tmp/planets</tspan></tspan></tspan></text></g></g><g id="g12085" class="com.sun.star.drawing.CustomShape"><g id="id16"><path id="path12088" d="m 7850,7448 1400,0 0,1575 -175,225 -1225,0 0,-1800 z" style="fill:none;stroke:#000;stroke-width:50"/><path id="path12090" d="m 9075,9248 46,-225 c 44,33 42,14 129,0 l -175,225 z" style="fill:none;stroke:#000;stroke-width:50"/></g></g><g id="g12092" class="com.sun.star.drawing.TextShape"><g id="id17"><text id="text12095" class="TextShape"><tspan id="tspan12097" class="TextParagraph" font-size="388" font-weight="400" style="font-size:388px;font-weight:400;font-family:'Arial, sans-serif'"><tspan id="tspan12099" x="7859" y="10094" class="TextPosition"><tspan id="tspan12101" style="fill:#000;stroke:none">pluto.txt</tspan></tspan></tspan></text></g></g><g id="g12103" class="com.sun.star.drawing.LineShape"><g id="id18"><path id="path12106" d="m 8100,7898 900,0" style="fill:none;stroke:#000;stroke-width:50"/></g></g><g id="g12108" class="com.sun.star.drawing.LineShape"><g id="id19"><path id="path12111" d="m 8100,8198 900,0" style="fill:none;stroke:#000;stroke-width:50"/></g></g><g id="g12113" class="com.sun.star.drawing.LineShape"><g id="id20"><path id="path12116" d="m 8100,8498 900,0" style="fill:none;stroke:#000;stroke-width:50"/></g></g><g id="g12118" class="com.sun.star.drawing.CustomShape"><g id="id21"><path id="path12121" d="m 13751,7449 1400,0 0,1575 -175,225 -1225,0 0,-1800 z" style="fill:none;stroke:#000;stroke-width:50"/><path id="path12123" d="m 14976,9249 46,-225 c 44,33 42,14 129,0 l -175,225 z" style="fill:none;stroke:#000;stroke-width:50"/></g></g><g id="g12125" class="com.sun.star.drawing.TextShape"><g id="id22"><text id="text12128" class="TextShape"><tspan id="tspan12130" class="TextParagraph" font-size="388" font-weight="400" style="font-size:388px;font-weight:400;font-family:'Arial, sans-serif'"><tspan id="tspan12132" x="13760" y="10095" class="TextPosition"><tspan id="tspan12134" style="fill:#000;stroke:none">pluto.txt</tspan></tspan></tspan></text></g></g><g id="g12136" class="com.sun.star.drawing.LineShape"><g id="id23"><path id="path12139" d="m 14001,7899 900,0" style="fill:none;stroke:#000;stroke-width:50"/></g></g><g id="g12141" class="com.sun.star.drawing.LineShape"><g id="id24"><path id="path12144" d="m 14001,8199 900,0" style="fill:none;stroke:#000;stroke-width:50"/></g></g><g id="g12146" class="com.sun.star.drawing.LineShape"><g id="id25"><path id="path12149" d="m 14001,8499 900,0" style="fill:none;stroke:#000;stroke-width:50"/></g></g><g id="g12151" class="com.sun.star.drawing.CustomShape"><g id="id26"><path id="path12154" d="m 3450,4600 -105,344 -345,0 280,215 -105,342 275,-210 275,210 -105,-342 281,-215 -346,0 -105,-344 0,0 z m -450,0 0,0 z m 901,901 0,0 z" style="fill:silver;stroke:none"/><path id="path12156" d="m 3450,4600 -105,344 -345,0 280,215 -105,342 275,-210 275,210 -105,-342 281,-215 -346,0 -105,-344 0,0 z" style="fill:none;stroke:#000;stroke-width:50"/></g></g><g id="g12158" class="com.sun.star.drawing.CustomShape"><g id="id27"><path id="path12161" d="m 14450,4600 -105,344 -345,0 280,215 -105,342 275,-210 275,210 -105,-342 281,-215 -346,0 -105,-344 0,0 z m -450,0 0,0 z m 901,901 0,0 z" style="fill:silver;stroke:none"/><path id="path12163" d="m 14450,4600 -105,344 -345,0 280,215 -105,342 275,-210 275,210 -105,-342 281,-215 -346,0 -105,-344 0,0 z" style="fill:none;stroke:#000;stroke-width:50"/></g></g><g id="g12165" class="com.sun.star.drawing.CustomShape"><g id="id28"><path id="path12168" d="m 8275,4500 550,0 0,275 276,0 0,550 -276,0 0,276 -550,0 0,-276 -275,0 0,-550 275,0 0,-275 0,0 z m -275,0 0,0 z m 1101,1101 0,0 z" style="fill:silver;stroke:none"/><path id="path12170" d="m 8275,4500 550,0 0,275 276,0 0,550 -276,0 0,276 -550,0 0,-276 -275,0 0,-550 275,0 0,-275 0,0 z" style="fill:none;stroke:#000;stroke-width:50"/></g></g></g></g></g></g></svg>