<svg xmlns="http://www.w3.org/2000/svg" xmlns:ooo="http://xml.openoffice.org/svg/export" xmlns:svg="http://www.w3.org/2000/svg" id="svg7220" width="560.161" height="329.97" clip-path="url(#presentation_clip_path)" style="fill-rule:evenodd;stroke-width:28.22200012;stroke-linejoin:round" preserveAspectRatio="xMidYMid" version="1.2" viewBox="0 0 15809.001 9312.475" xml:space="preserve"><metadata id="metadata7984"/><defs id="defs7222" class="ClipPathGroup"><clipPath id="presentation_clip_path" clipPathUnits="userSpaceOnUse"><rect id="rect7225" width="21590" height="27940" x="0" y="0"/></clipPath></defs><defs id="defs7231" class="EmbeddedBulletChars"><g id="bullet-char-template(57356)" transform="scale(4.8828125e-4,-4.8828125e-4)"><path id="path7234" d="M 580,1141 1163,571 580,0 -4,571 580,1141 z"/></g><g id="bullet-char-template(57354)" transform="scale(4.8828125e-4,-4.8828125e-4)"><path id="path7237" d="m 8,1128 1129,0 L 1137,0 8,0 8,1128 z"/></g><g id="bullet-char-template(10146)" transform="scale(4.8828125e-4,-4.8828125e-4)"><path id="path7240" d="M 174,0 602,739 174,1481 1456,739 174,0 z m 1184,739 -1049,607 350,-607 699,0 z"/></g><g id="bullet-char-template(10132)" transform="scale(4.8828125e-4,-4.8828125e-4)"><path id="path7243" d="M 2015,739 1276,0 717,0 l 543,543 -1086,0 0,393 1086,0 -543,545 557,0 741,-742 z"/></g><g id="bullet-char-template(10007)" transform="scale(4.8828125e-4,-4.8828125e-4)"><path id="path7246" d="m 0,-2 c -7,16 -16,29 -25,39 l 381,530 c -94,256 -141,385 -141,387 0,25 13,38 40,38 9,0 21,-2 34,-5 21,4 42,12 65,25 l 27,-13 111,-251 280,301 64,-25 24,25 c 21,-10 41,-24 62,-43 C 886,937 835,863 770,784 769,783 710,716 594,584 L 774,223 c 0,-27 -21,-55 -63,-84 l 16,-20 C 717,90 699,76 672,76 641,76 570,178 457,381 L 164,-76 c -22,-34 -53,-51 -92,-51 -42,0 -63,17 -64,51 -7,9 -10,24 -10,44 0,9 1,19 2,30 z"/></g><g id="bullet-char-template(10004)" transform="scale(4.8828125e-4,-4.8828125e-4)"><path id="path7249" d="M 285,-33 C 182,-33 111,30 74,156 52,228 41,333 41,471 c 0,78 14,145 41,201 34,71 87,106 158,106 53,0 88,-31 106,-94 l 23,-176 c 8,-64 28,-97 59,-98 l 735,706 c 11,11 33,17 66,17 42,0 63,-15 63,-46 l 0,-122 c 0,-36 -10,-64 -30,-84 L 442,47 C 390,-6 338,-33 285,-33 z"/></g><g id="bullet-char-template(9679)" transform="scale(4.8828125e-4,-4.8828125e-4)"><path id="path7252" d="M 813,0 C 632,0 489,54 383,161 276,268 223,411 223,592 c 0,181 53,324 160,431 106,107 249,161 430,161 179,0 323,-54 432,-161 108,-107 162,-251 162,-431 0,-180 -54,-324 -162,-431 C 1136,54 992,0 813,0 z"/></g><g id="bullet-char-template(8226)" transform="scale(4.8828125e-4,-4.8828125e-4)"><path id="path7255" d="m 346,457 c -73,0 -137,26 -191,78 -54,51 -81,114 -81,188 0,73 27,136 81,188 54,52 118,78 191,78 73,0 134,-26 185,-79 51,-51 77,-114 77,-187 0,-75 -25,-137 -76,-188 -50,-52 -112,-78 -186,-78 z"/></g><g id="bullet-char-template(8211)" transform="scale(4.8828125e-4,-4.8828125e-4)"><path id="path7258" d="m -4,459 1139,0 0,147 -1139,0 0,-147 z"/></g></defs><g id="g7267" class="SlideGroup" transform="translate(-1075,-1212.5254)"><g id="g7269"><g id="id1" class="Slide" clip-path="url(#presentation_clip_path)"><g id="g7272" class="Page"><g id="g7274" class="com.sun.star.drawing.CustomShape"><g id="id3"><path id="path7277" d="m 2750,4147 1400,0 0,1575 -175,225 -1225,0 0,-1800 z" style="fill:none;stroke:#000;stroke-width:50"/><path id="path7279" d="m 3975,5947 46,-225 c 44,33 42,14 129,0 l -175,225 z" style="fill:none;stroke:#000;stroke-width:50"/></g></g><g id="g7281" class="com.sun.star.drawing.TextShape"><g id="id4"><text id="text7284" class="TextShape"><tspan id="tspan7286" class="TextParagraph" font-size="388" font-weight="400" style="font-size:388px;font-weight:400;font-family:'Arial, sans-serif'"><tspan id="tspan7288" x="2759" y="6793" class="TextPosition"><tspan id="tspan7290" style="fill:#000;stroke:none">mars.txt</tspan></tspan></tspan></text></g></g><g id="g7292" class="com.sun.star.drawing.CustomShape"><g id="id5"><path id="path7295" d="m 1800,2300 c -100,0 -200,100 -200,200 l 0,800 c 0,100 100,201 200,201 l 3300,0 c 100,0 201,-101 201,-201 l 0,-800 c 0,-100 -101,-200 -201,-200 l -3300,0 z" style="fill:none;stroke:#000;stroke-width:50"/><text id="text7297" class="TextShape"><tspan id="tspan7299" class="TextParagraph" font-size="388" font-weight="400" style="font-size:388px;font-weight:400;font-family:'Arial, sans-serif'"><tspan id="tspan7301" x="1822" y="3035" class="TextPosition"><tspan id="tspan7303" style="fill:#000;stroke:none">/home/vlad/planets</tspan></tspan></tspan></text></g></g><g id="g7305" class="com.sun.star.drawing.CustomShape"><g id="id6"><path id="path7308" d="m 12650,2300 c -100,0 -200,100 -200,200 l 0,800 c 0,100 100,201 200,201 l 3300,0 c 100,0 201,-101 201,-201 l 0,-800 c 0,-100 -101,-200 -201,-200 l -3300,0 z" style="fill:none;stroke:#000;stroke-width:50"/><text id="text7310" class="TextShape"><tspan id="tspan7312" class="TextParagraph" font-size="388" font-weight="400" style="font-size:388px;font-weight:400;font-family:'Arial, sans-serif'"><tspan id="tspan7314" x="12564" y="3035" class="TextPosition"><tspan id="tspan7316" style="fill:#000;stroke:none">/somewhere/planets</tspan></tspan></tspan></text></g></g><g id="g7318" class="com.sun.star.drawing.LineShape"><g id="id7"><path id="path7321" d="m 11500,1300 0,51" style="fill:none;stroke:#000;stroke-width:50"/><path id="path7323" d="m 11500,1402 0,51" style="fill:none;stroke:#000;stroke-width:50"/><path id="path7325" d="m 11500,1504 0,51" style="fill:none;stroke:#000;stroke-width:50"/><path id="path7327" d="m 11500,1606 0,51" style="fill:none;stroke:#000;stroke-width:50"/><path id="path7329" d="m 11500,1708 0,51" style="fill:none;stroke:#000;stroke-width:50"/><path id="path7331" d="m 11500,1810 0,51" style="fill:none;stroke:#000;stroke-width:50"/><path id="path7333" d="m 11500,1912 0,51" style="fill:none;stroke:#000;stroke-width:50"/><path id="path7335" d="m 11500,2014 0,51" style="fill:none;stroke:#000;stroke-width:50"/><path id="path7337" d="m 11500,2116 0,51" style="fill:none;stroke:#000;stroke-width:50"/><path id="path7339" d="m 11500,2218 0,51" style="fill:none;stroke:#000;stroke-width:50"/><path id="path7341" d="m 11500,2320 0,51" style="fill:none;stroke:#000;stroke-width:50"/><path id="path7343" d="m 11500,2422 0,51" style="fill:none;stroke:#000;stroke-width:50"/><path id="path7345" d="m 11500,2524 0,51" style="fill:none;stroke:#000;stroke-width:50"/><path id="path7347" d="m 11500,2626 0,51" style="fill:none;stroke:#000;stroke-width:50"/><path id="path7349" d="m 11500,2728 0,51" style="fill:none;stroke:#000;stroke-width:50"/><path id="path7351" d="m 11500,2830 0,51" style="fill:none;stroke:#000;stroke-width:50"/><path id="path7353" d="m 11500,2932 0,51" style="fill:none;stroke:#000;stroke-width:50"/><path id="path7355" d="m 11500,3034 0,51" style="fill:none;stroke:#000;stroke-width:50"/><path id="path7357" d="m 11500,3136 0,51" style="fill:none;stroke:#000;stroke-width:50"/><path id="path7359" d="m 11500,3238 0,51" style="fill:none;stroke:#000;stroke-width:50"/><path id="path7361" d="m 11500,3340 0,51" style="fill:none;stroke:#000;stroke-width:50"/><path id="path7363" d="m 11500,3442 0,51" style="fill:none;stroke:#000;stroke-width:50"/><path id="path7365" d="m 11500,3544 0,51" style="fill:none;stroke:#000;stroke-width:50"/><path id="path7367" d="m 11500,3646 0,51" style="fill:none;stroke:#000;stroke-width:50"/><path id="path7369" d="m 11500,3748 0,51" style="fill:none;stroke:#000;stroke-width:50"/><path id="path7371" d="m 11500,3850 0,51" style="fill:none;stroke:#000;stroke-width:50"/><path id="path7373" d="m 11500,3952 0,51" style="fill:none;stroke:#000;stroke-width:50"/><path id="path7375" d="m 11500,4054 0,51" style="fill:none;stroke:#000;stroke-width:50"/><path id="path7377" d="m 11500,4156 0,51" style="fill:none;stroke:#000;stroke-width:50"/><path id="path7379" d="m 11500,4258 0,51" style="fill:none;stroke:#000;stroke-width:50"/><path id="path7381" d="m 11500,4360 0,51" style="fill:none;stroke:#000;stroke-width:50"/><path id="path7383" d="m 11500,4462 0,51" style="fill:none;stroke:#000;stroke-width:50"/><path id="path7385" d="m 11500,4564 0,51" style="fill:none;stroke:#000;stroke-width:50"/><path id="path7387" d="m 11500,4666 0,51" style="fill:none;stroke:#000;stroke-width:50"/><path id="path7389" d="m 11500,4768 0,51" style="fill:none;stroke:#000;stroke-width:50"/><path id="path7391" d="m 11500,4870 0,51" style="fill:none;stroke:#000;stroke-width:50"/><path id="path7393" d="m 11500,4972 0,51" style="fill:none;stroke:#000;stroke-width:50"/><path id="path7395" d="m 11500,5074 0,51" style="fill:none;stroke:#000;stroke-width:50"/><path id="path7397" d="m 11500,5176 0,51" style="fill:none;stroke:#000;stroke-width:50"/><path id="path7399" d="m 11500,5278 0,51" style="fill:none;stroke:#000;stroke-width:50"/><path id="path7401" d="m 11500,5380 0,51" style="fill:none;stroke:#000;stroke-width:50"/><path id="path7403" d="m 11500,5482 0,51" style="fill:none;stroke:#000;stroke-width:50"/><path id="path7405" d="m 11500,5584 0,51" style="fill:none;stroke:#000;stroke-width:50"/><path id="path7407" d="m 11500,5686 0,51" style="fill:none;stroke:#000;stroke-width:50"/><path id="path7409" d="m 11500,5788 0,51" style="fill:none;stroke:#000;stroke-width:50"/><path id="path7411" d="m 11500,5890 0,51" style="fill:none;stroke:#000;stroke-width:50"/><path id="path7413" d="m 11500,5992 0,51" style="fill:none;stroke:#000;stroke-width:50"/><path id="path7415" d="m 11500,6094 0,51" style="fill:none;stroke:#000;stroke-width:50"/><path id="path7417" d="m 11500,6196 0,51" style="fill:none;stroke:#000;stroke-width:50"/><path id="path7419" d="m 11500,6298 0,51" style="fill:none;stroke:#000;stroke-width:50"/><path id="path7421" d="m 11500,6400 0,51" style="fill:none;stroke:#000;stroke-width:50"/><path id="path7423" d="m 11500,6502 0,51" style="fill:none;stroke:#000;stroke-width:50"/><path id="path7425" d="m 11500,6604 0,51" style="fill:none;stroke:#000;stroke-width:50"/><path id="path7427" d="m 11500,6706 0,51" style="fill:none;stroke:#000;stroke-width:50"/><path id="path7429" d="m 11500,6808 0,51" style="fill:none;stroke:#000;stroke-width:50"/><path id="path7431" d="m 11500,6910 0,51" style="fill:none;stroke:#000;stroke-width:50"/><path id="path7433" d="m 11500,7012 0,51" style="fill:none;stroke:#000;stroke-width:50"/><path id="path7435" d="m 11500,7114 0,51" style="fill:none;stroke:#000;stroke-width:50"/><path id="path7437" d="m 11500,7216 0,51" style="fill:none;stroke:#000;stroke-width:50"/><path id="path7439" d="m 11500,7318 0,51" style="fill:none;stroke:#000;stroke-width:50"/><path id="path7441" d="m 11500,7420 0,51" style="fill:none;stroke:#000;stroke-width:50"/><path id="path7443" d="m 11500,7522 0,51" style="fill:none;stroke:#000;stroke-width:50"/><path id="path7445" d="m 11500,7624 0,51" style="fill:none;stroke:#000;stroke-width:50"/><path id="path7447" d="m 11500,7726 0,51" style="fill:none;stroke:#000;stroke-width:50"/><path id="path7449" d="m 11500,7828 0,51" style="fill:none;stroke:#000;stroke-width:50"/><path id="path7451" d="m 11500,7930 0,51" style="fill:none;stroke:#000;stroke-width:50"/><path id="path7453" d="m 11500,8032 0,51" style="fill:none;stroke:#000;stroke-width:50"/><path id="path7455" d="m 11500,8134 0,51" style="fill:none;stroke:#000;stroke-width:50"/><path id="path7457" d="m 11500,8236 0,51" style="fill:none;stroke:#000;stroke-width:50"/><path id="path7459" d="m 11500,8338 0,51" style="fill:none;stroke:#000;stroke-width:50"/><path id="path7461" d="m 11500,8440 0,51" style="fill:none;stroke:#000;stroke-width:50"/><path id="path7463" d="m 11500,8542 0,51" style="fill:none;stroke:#000;stroke-width:50"/><path id="path7465" d="m 11500,8644 0,51" style="fill:none;stroke:#000;stroke-width:50"/><path id="path7467" d="m 11500,8746 0,51" style="fill:none;stroke:#000;stroke-width:50"/><path id="path7469" d="m 11500,8848 0,51" style="fill:none;stroke:#000;stroke-width:50"/><path id="path7471" d="m 11500,8950 0,51" style="fill:none;stroke:#000;stroke-width:50"/><path id="path7473" d="m 11500,9052 0,51" style="fill:none;stroke:#000;stroke-width:50"/><path id="path7475" d="m 11500,9154 0,51" style="fill:none;stroke:#000;stroke-width:50"/><path id="path7477" d="m 11500,9256 0,51" style="fill:none;stroke:#000;stroke-width:50"/><path id="path7479" d="m 11500,9358 0,51" style="fill:none;stroke:#000;stroke-width:50"/><path id="path7481" d="m 11500,9460 0,51" style="fill:none;stroke:#000;stroke-width:50"/><path id="path7483" d="m 11500,9562 0,51" style="fill:none;stroke:#000;stroke-width:50"/><path id="path7485" d="m 11500,9664 0,51" style="fill:none;stroke:#000;stroke-width:50"/><path id="path7487" d="m 11500,9766 0,51" style="fill:none;stroke:#000;stroke-width:50"/><path id="path7489" d="m 11500,9868 0,51" style="fill:none;stroke:#000;stroke-width:50"/><path id="path7491" d="m 11500,9970 0,51" style="fill:none;stroke:#000;stroke-width:50"/><path id="path7493" d="m 11500,10072 0,51" style="fill:none;stroke:#000;stroke-width:50"/><path id="path7495" d="m 11500,10174 0,51" style="fill:none;stroke:#000;stroke-width:50"/><path id="path7497" d="m 11500,10276 0,51" style="fill:none;stroke:#000;stroke-width:50"/><path id="path7499" d="m 11500,10378 0,51" style="fill:none;stroke:#000;stroke-width:50"/><path id="path7501" d="m 11500,10480 0,20" style="fill:none;stroke:#000;stroke-width:50"/></g></g><g id="g7503" class="com.sun.star.drawing.LineShape"><g id="id8"><path id="path7506" d="m 1100,1800 51,0" style="fill:none;stroke:#000;stroke-width:50"/><path id="path7508" d="m 1202,1800 51,0" style="fill:none;stroke:#000;stroke-width:50"/><path id="path7510" d="m 1304,1800 51,0" style="fill:none;stroke:#000;stroke-width:50"/><path id="path7512" d="m 1406,1800 51,0" style="fill:none;stroke:#000;stroke-width:50"/><path id="path7514" d="m 1508,1800 51,0" style="fill:none;stroke:#000;stroke-width:50"/><path id="path7516" d="m 1610,1800 51,0" style="fill:none;stroke:#000;stroke-width:50"/><path id="path7518" d="m 1712,1800 51,0" style="fill:none;stroke:#000;stroke-width:50"/><path id="path7520" d="m 1814,1800 51,0" style="fill:none;stroke:#000;stroke-width:50"/><path id="path7522" d="m 1916,1800 51,0" style="fill:none;stroke:#000;stroke-width:50"/><path id="path7524" d="m 2018,1800 51,0" style="fill:none;stroke:#000;stroke-width:50"/><path id="path7526" d="m 2120,1800 51,0" style="fill:none;stroke:#000;stroke-width:50"/><path id="path7528" d="m 2222,1800 51,0" style="fill:none;stroke:#000;stroke-width:50"/><path id="path7530" d="m 2324,1800 51,0" style="fill:none;stroke:#000;stroke-width:50"/><path id="path7532" d="m 2426,1800 51,0" style="fill:none;stroke:#000;stroke-width:50"/><path id="path7534" d="m 2528,1800 51,0" style="fill:none;stroke:#000;stroke-width:50"/><path id="path7536" d="m 2630,1800 51,0" style="fill:none;stroke:#000;stroke-width:50"/><path id="path7538" d="m 2732,1800 51,0" style="fill:none;stroke:#000;stroke-width:50"/><path id="path7540" d="m 2834,1800 51,0" style="fill:none;stroke:#000;stroke-width:50"/><path id="path7542" d="m 2936,1800 51,0" style="fill:none;stroke:#000;stroke-width:50"/><path id="path7544" d="m 3038,1800 51,0" style="fill:none;stroke:#000;stroke-width:50"/><path id="path7546" d="m 3140,1800 51,0" style="fill:none;stroke:#000;stroke-width:50"/><path id="path7548" d="m 3242,1800 51,0" style="fill:none;stroke:#000;stroke-width:50"/><path id="path7550" d="m 3344,1800 51,0" style="fill:none;stroke:#000;stroke-width:50"/><path id="path7552" d="m 3446,1800 51,0" style="fill:none;stroke:#000;stroke-width:50"/><path id="path7554" d="m 3548,1800 51,0" style="fill:none;stroke:#000;stroke-width:50"/><path id="path7556" d="m 3650,1800 51,0" style="fill:none;stroke:#000;stroke-width:50"/><path id="path7558" d="m 3752,1800 51,0" style="fill:none;stroke:#000;stroke-width:50"/><path id="path7560" d="m 3854,1800 51,0" style="fill:none;stroke:#000;stroke-width:50"/><path id="path7562" d="m 3956,1800 51,0" style="fill:none;stroke:#000;stroke-width:50"/><path id="path7564" d="m 4058,1800 51,0" style="fill:none;stroke:#000;stroke-width:50"/><path id="path7566" d="m 4160,1800 51,0" style="fill:none;stroke:#000;stroke-width:50"/><path id="path7568" d="m 4262,1800 51,0" style="fill:none;stroke:#000;stroke-width:50"/><path id="path7570" d="m 4364,1800 51,0" style="fill:none;stroke:#000;stroke-width:50"/><path id="path7572" d="m 4466,1800 51,0" style="fill:none;stroke:#000;stroke-width:50"/><path id="path7574" d="m 4568,1800 51,0" style="fill:none;stroke:#000;stroke-width:50"/><path id="path7576" d="m 4670,1800 51,0" style="fill:none;stroke:#000;stroke-width:50"/><path id="path7578" d="m 4772,1800 51,0" style="fill:none;stroke:#000;stroke-width:50"/><path id="path7580" d="m 4874,1800 51,0" style="fill:none;stroke:#000;stroke-width:50"/><path id="path7582" d="m 4976,1800 51,0" style="fill:none;stroke:#000;stroke-width:50"/><path id="path7584" d="m 5078,1800 51,0" style="fill:none;stroke:#000;stroke-width:50"/><path id="path7586" d="m 5180,1800 51,0" style="fill:none;stroke:#000;stroke-width:50"/><path id="path7588" d="m 5282,1800 51,0" style="fill:none;stroke:#000;stroke-width:50"/><path id="path7590" d="m 5384,1800 51,0" style="fill:none;stroke:#000;stroke-width:50"/><path id="path7592" d="m 5486,1800 51,0" style="fill:none;stroke:#000;stroke-width:50"/><path id="path7594" d="m 5588,1800 51,0" style="fill:none;stroke:#000;stroke-width:50"/><path id="path7596" d="m 5690,1800 51,0" style="fill:none;stroke:#000;stroke-width:50"/><path id="path7598" d="m 5792,1800 51,0" style="fill:none;stroke:#000;stroke-width:50"/><path id="path7600" d="m 5894,1800 51,0" style="fill:none;stroke:#000;stroke-width:50"/><path id="path7602" d="m 5996,1800 51,0" style="fill:none;stroke:#000;stroke-width:50"/><path id="path7604" d="m 6098,1800 51,0" style="fill:none;stroke:#000;stroke-width:50"/><path id="path7606" d="m 6200,1800 51,0" style="fill:none;stroke:#000;stroke-width:50"/><path id="path7608" d="m 6302,1800 51,0" style="fill:none;stroke:#000;stroke-width:50"/><path id="path7610" d="m 6404,1800 51,0" style="fill:none;stroke:#000;stroke-width:50"/><path id="path7612" d="m 6506,1800 51,0" style="fill:none;stroke:#000;stroke-width:50"/><path id="path7614" d="m 6608,1800 51,0" style="fill:none;stroke:#000;stroke-width:50"/><path id="path7616" d="m 6710,1800 51,0" style="fill:none;stroke:#000;stroke-width:50"/><path id="path7618" d="m 6812,1800 51,0" style="fill:none;stroke:#000;stroke-width:50"/><path id="path7620" d="m 6914,1800 51,0" style="fill:none;stroke:#000;stroke-width:50"/><path id="path7622" d="m 7016,1800 51,0" style="fill:none;stroke:#000;stroke-width:50"/><path id="path7624" d="m 7118,1800 51,0" style="fill:none;stroke:#000;stroke-width:50"/><path id="path7626" d="m 7220,1800 51,0" style="fill:none;stroke:#000;stroke-width:50"/><path id="path7628" d="m 7322,1800 51,0" style="fill:none;stroke:#000;stroke-width:50"/><path id="path7630" d="m 7424,1800 51,0" style="fill:none;stroke:#000;stroke-width:50"/><path id="path7632" d="m 7526,1800 51,0" style="fill:none;stroke:#000;stroke-width:50"/><path id="path7634" d="m 7628,1800 51,0" style="fill:none;stroke:#000;stroke-width:50"/><path id="path7636" d="m 7730,1800 51,0" style="fill:none;stroke:#000;stroke-width:50"/><path id="path7638" d="m 7832,1800 51,0" style="fill:none;stroke:#000;stroke-width:50"/><path id="path7640" d="m 7934,1800 51,0" style="fill:none;stroke:#000;stroke-width:50"/><path id="path7642" d="m 8036,1800 51,0" style="fill:none;stroke:#000;stroke-width:50"/><path id="path7644" d="m 8138,1800 51,0" style="fill:none;stroke:#000;stroke-width:50"/><path id="path7646" d="m 8240,1800 51,0" style="fill:none;stroke:#000;stroke-width:50"/><path id="path7648" d="m 8342,1800 51,0" style="fill:none;stroke:#000;stroke-width:50"/><path id="path7650" d="m 8444,1800 51,0" style="fill:none;stroke:#000;stroke-width:50"/><path id="path7652" d="m 8546,1800 51,0" style="fill:none;stroke:#000;stroke-width:50"/><path id="path7654" d="m 8648,1800 51,0" style="fill:none;stroke:#000;stroke-width:50"/><path id="path7656" d="m 8750,1800 51,0" style="fill:none;stroke:#000;stroke-width:50"/><path id="path7658" d="m 8852,1800 51,0" style="fill:none;stroke:#000;stroke-width:50"/><path id="path7660" d="m 8954,1800 51,0" style="fill:none;stroke:#000;stroke-width:50"/><path id="path7662" d="m 9056,1800 51,0" style="fill:none;stroke:#000;stroke-width:50"/><path id="path7664" d="m 9158,1800 51,0" style="fill:none;stroke:#000;stroke-width:50"/><path id="path7666" d="m 9260,1800 51,0" style="fill:none;stroke:#000;stroke-width:50"/><path id="path7668" d="m 9362,1800 51,0" style="fill:none;stroke:#000;stroke-width:50"/><path id="path7670" d="m 9464,1800 51,0" style="fill:none;stroke:#000;stroke-width:50"/><path id="path7672" d="m 9566,1800 51,0" style="fill:none;stroke:#000;stroke-width:50"/><path id="path7674" d="m 9668,1800 51,0" style="fill:none;stroke:#000;stroke-width:50"/><path id="path7676" d="m 9770,1800 51,0" style="fill:none;stroke:#000;stroke-width:50"/><path id="path7678" d="m 9872,1800 51,0" style="fill:none;stroke:#000;stroke-width:50"/><path id="path7680" d="m 9974,1800 51,0" style="fill:none;stroke:#000;stroke-width:50"/><path id="path7682" d="m 10076,1800 51,0" style="fill:none;stroke:#000;stroke-width:50"/><path id="path7684" d="m 10178,1800 51,0" style="fill:none;stroke:#000;stroke-width:50"/><path id="path7686" d="m 10280,1800 51,0" style="fill:none;stroke:#000;stroke-width:50"/><path id="path7688" d="m 10382,1800 51,0" style="fill:none;stroke:#000;stroke-width:50"/><path id="path7690" d="m 10484,1800 51,0" style="fill:none;stroke:#000;stroke-width:50"/><path id="path7692" d="m 10586,1800 51,0" style="fill:none;stroke:#000;stroke-width:50"/><path id="path7694" d="m 10688,1800 51,0" style="fill:none;stroke:#000;stroke-width:50"/><path id="path7696" d="m 10790,1800 51,0" style="fill:none;stroke:#000;stroke-width:50"/><path id="path7698" d="m 10892,1800 51,0" style="fill:none;stroke:#000;stroke-width:50"/><path id="path7700" d="m 10994,1800 51,0" style="fill:none;stroke:#000;stroke-width:50"/><path id="path7702" d="m 11096,1800 51,0" style="fill:none;stroke:#000;stroke-width:50"/><path id="path7704" d="m 11198,1800 51,0" style="fill:none;stroke:#000;stroke-width:50"/><path id="path7706" d="m 11300,1800 51,0" style="fill:none;stroke:#000;stroke-width:50"/><path id="path7708" d="m 11402,1800 51,0" style="fill:none;stroke:#000;stroke-width:50"/><path id="path7710" d="m 11504,1800 51,0" style="fill:none;stroke:#000;stroke-width:50"/><path id="path7712" d="m 11606,1800 51,0" style="fill:none;stroke:#000;stroke-width:50"/><path id="path7714" d="m 11708,1800 51,0" style="fill:none;stroke:#000;stroke-width:50"/><path id="path7716" d="m 11810,1800 51,0" style="fill:none;stroke:#000;stroke-width:50"/><path id="path7718" d="m 11912,1800 51,0" style="fill:none;stroke:#000;stroke-width:50"/><path id="path7720" d="m 12014,1800 51,0" style="fill:none;stroke:#000;stroke-width:50"/><path id="path7722" d="m 12116,1800 51,0" style="fill:none;stroke:#000;stroke-width:50"/><path id="path7724" d="m 12218,1800 51,0" style="fill:none;stroke:#000;stroke-width:50"/><path id="path7726" d="m 12320,1800 51,0" style="fill:none;stroke:#000;stroke-width:50"/><path id="path7728" d="m 12422,1800 51,0" style="fill:none;stroke:#000;stroke-width:50"/><path id="path7730" d="m 12524,1800 51,0" style="fill:none;stroke:#000;stroke-width:50"/><path id="path7732" d="m 12626,1800 51,0" style="fill:none;stroke:#000;stroke-width:50"/><path id="path7734" d="m 12728,1800 51,0" style="fill:none;stroke:#000;stroke-width:50"/><path id="path7736" d="m 12830,1800 51,0" style="fill:none;stroke:#000;stroke-width:50"/><path id="path7738" d="m 12932,1800 51,0" style="fill:none;stroke:#000;stroke-width:50"/><path id="path7740" d="m 13034,1800 51,0" style="fill:none;stroke:#000;stroke-width:50"/><path id="path7742" d="m 13136,1800 51,0" style="fill:none;stroke:#000;stroke-width:50"/><path id="path7744" d="m 13238,1800 51,0" style="fill:none;stroke:#000;stroke-width:50"/><path id="path7746" d="m 13340,1800 51,0" style="fill:none;stroke:#000;stroke-width:50"/><path id="path7748" d="m 13442,1800 51,0" style="fill:none;stroke:#000;stroke-width:50"/><path id="path7750" d="m 13544,1800 51,0" style="fill:none;stroke:#000;stroke-width:50"/><path id="path7752" d="m 13646,1800 51,0" style="fill:none;stroke:#000;stroke-width:50"/><path id="path7754" d="m 13748,1800 51,0" style="fill:none;stroke:#000;stroke-width:50"/><path id="path7756" d="m 13850,1800 51,0" style="fill:none;stroke:#000;stroke-width:50"/><path id="path7758" d="m 13952,1800 51,0" style="fill:none;stroke:#000;stroke-width:50"/><path id="path7760" d="m 14054,1800 51,0" style="fill:none;stroke:#000;stroke-width:50"/><path id="path7762" d="m 14156,1800 51,0" style="fill:none;stroke:#000;stroke-width:50"/><path id="path7764" d="m 14258,1800 51,0" style="fill:none;stroke:#000;stroke-width:50"/><path id="path7766" d="m 14360,1800 51,0" style="fill:none;stroke:#000;stroke-width:50"/><path id="path7768" d="m 14462,1800 51,0" style="fill:none;stroke:#000;stroke-width:50"/><path id="path7770" d="m 14564,1800 51,0" style="fill:none;stroke:#000;stroke-width:50"/><path id="path7772" d="m 14666,1800 51,0" style="fill:none;stroke:#000;stroke-width:50"/><path id="path7774" d="m 14768,1800 51,0" style="fill:none;stroke:#000;stroke-width:50"/><path id="path7776" d="m 14870,1800 51,0" style="fill:none;stroke:#000;stroke-width:50"/><path id="path7778" d="m 14972,1800 51,0" style="fill:none;stroke:#000;stroke-width:50"/><path id="path7780" d="m 15074,1800 51,0" style="fill:none;stroke:#000;stroke-width:50"/><path id="path7782" d="m 15176,1800 51,0" style="fill:none;stroke:#000;stroke-width:50"/><path id="path7784" d="m 15278,1800 51,0" style="fill:none;stroke:#000;stroke-width:50"/><path id="path7786" d="m 15380,1800 51,0" style="fill:none;stroke:#000;stroke-width:50"/><path id="path7788" d="m 15482,1800 51,0" style="fill:none;stroke:#000;stroke-width:50"/><path id="path7790" d="m 15584,1800 51,0" style="fill:none;stroke:#000;stroke-width:50"/><path id="path7792" d="m 15686,1800 51,0" style="fill:none;stroke:#000;stroke-width:50"/><path id="path7794" d="m 15788,1800 51,0" style="fill:none;stroke:#000;stroke-width:50"/><path id="path7796" d="m 15890,1800 51,0" style="fill:none;stroke:#000;stroke-width:50"/><path id="path7798" d="m 15992,1800 51,0" style="fill:none;stroke:#000;stroke-width:50"/><path id="path7800" d="m 16094,1800 51,0" style="fill:none;stroke:#000;stroke-width:50"/><path id="path7802" d="m 16196,1800 51,0" style="fill:none;stroke:#000;stroke-width:50"/><path id="path7804" d="m 16298,1800 51,0" style="fill:none;stroke:#000;stroke-width:50"/><path id="path7806" d="m 16400,1800 51,0" style="fill:none;stroke:#000;stroke-width:50"/><path id="path7808" d="m 16502,1800 51,0" style="fill:none;stroke:#000;stroke-width:50"/><path id="path7810" d="m 16604,1800 51,0" style="fill:none;stroke:#000;stroke-width:50"/><path id="path7812" d="m 16706,1800 51,0" style="fill:none;stroke:#000;stroke-width:50"/><path id="path7814" d="m 16808,1800 51,0" style="fill:none;stroke:#000;stroke-width:50"/></g></g><g id="g7816" class="com.sun.star.drawing.TextShape"><g id="id9"><text id="text7819" class="TextShape"><tspan id="tspan7821" class="TextParagraph" font-size="388" font-weight="400" style="font-size:388px;font-weight:400;font-family:'Arial, sans-serif'"><tspan id="tspan7823" x="5951" y="1494" class="TextPosition"><tspan id="tspan7825" style="fill:#000;stroke:none">local</tspan></tspan></tspan></text></g></g><g id="g7827" class="com.sun.star.drawing.TextShape"><g id="id10"><text id="text7830" class="TextShape"><tspan id="tspan7832" class="TextParagraph" font-size="388" font-weight="400" style="font-size:388px;font-weight:400;font-family:'Arial, sans-serif'"><tspan id="tspan7834" x="13696" y="1495" class="TextPosition"><tspan id="tspan7836" style="fill:#000;stroke:none">GitHub</tspan></tspan></tspan></text></g></g><g id="g7838" class="com.sun.star.drawing.CustomShape"><g id="id11"><path id="path7841" d="m 13750,4148 1400,0 0,1575 -175,225 -1225,0 0,-1800 z" style="fill:none;stroke:#000;stroke-width:50"/><path id="path7843" d="m 14975,5948 46,-225 c 44,33 42,14 129,0 l -175,225 z" style="fill:none;stroke:#000;stroke-width:50"/></g></g><g id="g7845" class="com.sun.star.drawing.TextShape"><g id="id12"><text id="text7848" class="TextShape"><tspan id="tspan7850" class="TextParagraph" font-size="388" font-weight="400" style="font-size:388px;font-weight:400;font-family:'Arial, sans-serif'"><tspan id="tspan7852" x="13759" y="6794" class="TextPosition"><tspan id="tspan7854" style="fill:#000;stroke:none">mars.txt</tspan></tspan></tspan></text></g></g><g id="g7856" class="com.sun.star.drawing.CustomShape"><g id="id13"><path id="path7859" d="m 7850,4147 1400,0 0,1575 -175,225 -1225,0 0,-1800 z" style="fill:none;stroke:#000;stroke-width:50"/><path id="path7861" d="m 9075,5947 46,-225 c 44,33 42,14 129,0 l -175,225 z" style="fill:none;stroke:#000;stroke-width:50"/></g></g><g id="g7863" class="com.sun.star.drawing.TextShape"><g id="id14"><text id="text7866" class="TextShape"><tspan id="tspan7868" class="TextParagraph" font-size="388" font-weight="400" style="font-size:388px;font-weight:400;font-family:'Arial, sans-serif'"><tspan id="tspan7870" x="7859" y="6793" class="TextPosition"><tspan id="tspan7872" style="fill:#000;stroke:none">mars.txt</tspan></tspan></tspan></text></g></g><g id="g7874" class="com.sun.star.drawing.LineShape"><g id="id15"><path id="path7877" d="m 8100,4597 900,0" style="fill:none;stroke:#000;stroke-width:50"/></g></g><g id="g7879" class="com.sun.star.drawing.LineShape"><g id="id16"><path id="path7882" d="m 8100,4897 900,0" style="fill:none;stroke:#000;stroke-width:50"/></g></g><g id="g7884" class="com.sun.star.drawing.LineShape"><g id="id17"><path id="path7887" d="m 8100,5197 900,0" style="fill:none;stroke:#000;stroke-width:50"/></g></g><g id="g7889" class="com.sun.star.drawing.CustomShape"><g id="id18"><path id="path7892" d="m 6900,2300 c -100,0 -200,100 -200,200 l 0,800 c 0,100 100,201 200,201 l 3300,0 c 100,0 201,-101 201,-201 l 0,-800 c 0,-100 -101,-200 -201,-200 l -3300,0 z" style="fill:none;stroke:#000;stroke-width:50"/><text id="text7894" class="TextShape"><tspan id="tspan7896" class="TextParagraph" font-size="388" font-weight="400" style="font-size:388px;font-weight:400;font-family:'Arial, sans-serif'"><tspan id="tspan7898" x="7494" y="3035" class="TextPosition"><tspan id="tspan7900" style="fill:#000;stroke:none">/tmp/planets</tspan></tspan></tspan></text></g></g><g id="g7902" class="com.sun.star.drawing.CustomShape"><g id="id19"><path id="path7905" d="m 7850,7448 1400,0 0,1575 -175,225 -1225,0 0,-1800 z" style="fill:none;stroke:#000;stroke-width:50"/><path id="path7907" d="m 9075,9248 46,-225 c 44,33 42,14 129,0 l -175,225 z" style="fill:none;stroke:#000;stroke-width:50"/></g></g><g id="g7909" class="com.sun.star.drawing.TextShape"><g id="id20"><text id="text7912" class="TextShape"><tspan id="tspan7914" class="TextParagraph" font-size="388" font-weight="400" style="font-size:388px;font-weight:400;font-family:'Arial, sans-serif'"><tspan id="tspan7916" x="7859" y="10094" class="TextPosition"><tspan id="tspan7918" style="fill:#000;stroke:none">pluto.txt</tspan></tspan></tspan></text></g></g><g id="g7920" class="com.sun.star.drawing.LineShape"><g id="id21"><path id="path7923" d="m 8100,7898 900,0" style="fill:none;stroke:#000;stroke-width:50"/></g></g><g id="g7925" class="com.sun.star.drawing.LineShape"><g id="id22"><path id="path7928" d="m 8100,8198 900,0" style="fill:none;stroke:#000;stroke-width:50"/></g></g><g id="g7930" class="com.sun.star.drawing.LineShape"><g id="id23"><path id="path7933" d="m 8100,8498 900,0" style="fill:none;stroke:#000;stroke-width:50"/></g></g><g id="g7935" class="com.sun.star.drawing.CustomShape"><g id="id24"><path id="path7938" d="m 13751,7449 1400,0 0,1575 -175,225 -1225,0 0,-1800 z" style="fill:none;stroke:#000;stroke-width:50"/><path id="path7940" d="m 14976,9249 46,-225 c 44,33 42,14 129,0 l -175,225 z" style="fill:none;stroke:#000;stroke-width:50"/></g></g><g id="g7942" class="com.sun.star.drawing.TextShape"><g id="id25"><text id="text7945" class="TextShape"><tspan id="tspan7947" class="TextParagraph" font-size="388" font-weight="400" style="font-size:388px;font-weight:400;font-family:'Arial, sans-serif'"><tspan id="tspan7949" x="13760" y="10095" class="TextPosition"><tspan id="tspan7951" style="fill:#000;stroke:none">pluto.txt</tspan></tspan></tspan></text></g></g><g id="g7953" class="com.sun.star.drawing.LineShape"><g id="id26"><path id="path7956" d="m 14001,7899 900,0" style="fill:none;stroke:#000;stroke-width:50"/></g></g><g id="g7958" class="com.sun.star.drawing.LineShape"><g id="id27"><path id="path7961" d="m 14001,8199 900,0" style="fill:none;stroke:#000;stroke-width:50"/></g></g><g id="g7963" class="com.sun.star.drawing.LineShape"><g id="id28"><path id="path7966" d="m 14001,8499 900,0" style="fill:none;stroke:#000;stroke-width:50"/></g></g><g id="g7968" class="com.sun.star.drawing.CustomShape"><g id="id29"><path id="path7971" d="m 3450,4600 -105,344 -345,0 280,215 -105,342 275,-210 275,210 -105,-342 281,-215 -346,0 -105,-344 0,0 z m -450,0 0,0 z m 901,901 0,0 z" style="fill:silver;stroke:none"/><path id="path7973" d="m 3450,4600 -105,344 -345,0 280,215 -105,342 275,-210 275,210 -105,-342 281,-215 -346,0 -105,-344 0,0 z" style="fill:none;stroke:#000;stroke-width:50"/></g></g><g id="g7975" class="com.sun.star.drawing.CustomShape"><g id="id30"><path id="path7978" d="m 14450,4600 -105,344 -345,0 280,215 -105,342 275,-210 275,210 -105,-342 281,-215 -346,0 -105,-344 0,0 z m -450,0 0,0 z m 901,901 0,0 z" style="fill:silver;stroke:none"/><path id="path7980" d="m 14450,4600 -105,344 -345,0 280,215 -105,342 275,-210 275,210 -105,-342 281,-215 -346,0 -105,-344 0,0 z" style="fill:none;stroke:#000;stroke-width:50"/></g></g></g></g></g></g></svg>