<svg xmlns="http://www.w3.org/2000/svg" xmlns:ooo="http://xml.openoffice.org/svg/export" xmlns:svg="http://www.w3.org/2000/svg" id="svg18513" width="375.839" height="233.485" clip-path="url(#presentation_clip_path)" style="fill-rule:evenodd;stroke-width:28.22200012;stroke-linejoin:round" preserveAspectRatio="xMidYMid" version="1.2" viewBox="0 0 10607 6589.475" xml:space="preserve"><metadata id="metadata19030"/><defs id="defs18515" class="ClipPathGroup"><clipPath id="presentation_clip_path" clipPathUnits="userSpaceOnUse"><rect id="rect18518" width="21590" height="27940" x="0" y="0"/></clipPath></defs><defs id="defs18524" class="EmbeddedBulletChars"><g id="bullet-char-template(57356)" transform="scale(4.8828125e-4,-4.8828125e-4)"><path id="path18527" d="M 580,1141 1163,571 580,0 -4,571 580,1141 z"/></g><g id="bullet-char-template(57354)" transform="scale(4.8828125e-4,-4.8828125e-4)"><path id="path18530" d="m 8,1128 1129,0 L 1137,0 8,0 8,1128 z"/></g><g id="bullet-char-template(10146)" transform="scale(4.8828125e-4,-4.8828125e-4)"><path id="path18533" d="M 174,0 602,739 174,1481 1456,739 174,0 z m 1184,739 -1049,607 350,-607 699,0 z"/></g><g id="bullet-char-template(10132)" transform="scale(4.8828125e-4,-4.8828125e-4)"><path id="path18536" d="M 2015,739 1276,0 717,0 l 543,543 -1086,0 0,393 1086,0 -543,545 557,0 741,-742 z"/></g><g id="bullet-char-template(10007)" transform="scale(4.8828125e-4,-4.8828125e-4)"><path id="path18539" d="m 0,-2 c -7,16 -16,29 -25,39 l 381,530 c -94,256 -141,385 -141,387 0,25 13,38 40,38 9,0 21,-2 34,-5 21,4 42,12 65,25 l 27,-13 111,-251 280,301 64,-25 24,25 c 21,-10 41,-24 62,-43 C 886,937 835,863 770,784 769,783 710,716 594,584 L 774,223 c 0,-27 -21,-55 -63,-84 l 16,-20 C 717,90 699,76 672,76 641,76 570,178 457,381 L 164,-76 c -22,-34 -53,-51 -92,-51 -42,0 -63,17 -64,51 -7,9 -10,24 -10,44 0,9 1,19 2,30 z"/></g><g id="bullet-char-template(10004)" transform="scale(4.8828125e-4,-4.8828125e-4)"><path id="path18542" d="M 285,-33 C 182,-33 111,30 74,156 52,228 41,333 41,471 c 0,78 14,145 41,201 34,71 87,106 158,106 53,0 88,-31 106,-94 l 23,-176 c 8,-64 28,-97 59,-98 l 735,706 c 11,11 33,17 66,17 42,0 63,-15 63,-46 l 0,-122 c 0,-36 -10,-64 -30,-84 L 442,47 C 390,-6 338,-33 285,-33 z"/></g><g id="bullet-char-template(9679)" transform="scale(4.8828125e-4,-4.8828125e-4)"><path id="path18545" d="M 813,0 C 632,0 489,54 383,161 276,268 223,411 223,592 c 0,181 53,324 160,431 106,107 249,161 430,161 179,0 323,-54 432,-161 108,-107 162,-251 162,-431 0,-180 -54,-324 -162,-431 C 1136,54 992,0 813,0 z"/></g><g id="bullet-char-template(8226)" transform="scale(4.8828125e-4,-4.8828125e-4)"><path id="path18548" d="m 346,457 c -73,0 -137,26 -191,78 -54,51 -81,114 -81,188 0,73 27,136 81,188 54,52 118,78 191,78 73,0 134,-26 185,-79 51,-51 77,-114 77,-187 0,-75 -25,-137 -76,-188 -50,-52 -112,-78 -186,-78 z"/></g><g id="bullet-char-template(8211)" transform="scale(4.8828125e-4,-4.8828125e-4)"><path id="path18551" d="m -4,459 1139,0 0,147 -1139,0 0,-147 z"/></g></defs><g id="g18560" class="SlideGroup" transform="translate(-1075,-1212.5254)"><g id="g18562"><g id="id1" class="Slide" clip-path="url(#presentation_clip_path)"><g id="g18565" class="Page"><g id="g18567" class="com.sun.star.drawing.CustomShape"><g id="id3"><path id="path18570" d="m 2750,4147 1400,0 0,1575 -175,225 -1225,0 0,-1800 z" style="fill:none;stroke:#000;stroke-width:50"/><path id="path18572" d="m 3975,5947 46,-225 c 44,33 42,14 129,0 l -175,225 z" style="fill:none;stroke:#000;stroke-width:50"/></g></g><g id="g18574" class="com.sun.star.drawing.TextShape"><g id="id4"><text id="text18577" class="TextShape"><tspan id="tspan18579" class="TextParagraph" font-size="388" font-weight="400" style="font-size:388px;font-weight:400;font-family:'Arial, sans-serif'"><tspan id="tspan18581" x="2759" y="6793" class="TextPosition"><tspan id="tspan18583" style="fill:#000;stroke:none">mars.txt</tspan></tspan></tspan></text></g></g><g id="g18585" class="com.sun.star.drawing.LineShape"><g id="id5"><path id="path18588" d="m 3000,4597 900,0" style="fill:none;stroke:#000;stroke-width:50"/></g></g><g id="g18590" class="com.sun.star.drawing.LineShape"><g id="id6"><path id="path18593" d="m 3000,4897 900,0" style="fill:none;stroke:#000;stroke-width:50"/></g></g><g id="g18595" class="com.sun.star.drawing.LineShape"><g id="id7"><path id="path18598" d="m 3000,5197 900,0" style="fill:none;stroke:#000;stroke-width:50"/></g></g><g id="g18600" class="com.sun.star.drawing.CustomShape"><g id="id8"><path id="path18603" d="m 1800,2300 c -100,0 -200,100 -200,200 l 0,800 c 0,100 100,201 200,201 l 3300,0 c 100,0 201,-101 201,-201 l 0,-800 c 0,-100 -101,-200 -201,-200 l -3300,0 z" style="fill:none;stroke:#000;stroke-width:50"/><text id="text18605" class="TextShape"><tspan id="tspan18607" class="TextParagraph" font-size="388" font-weight="400" style="font-size:388px;font-weight:400;font-family:'Arial, sans-serif'"><tspan id="tspan18609" x="1822" y="3035" class="TextPosition"><tspan id="tspan18611" style="fill:#000;stroke:none">/home/vlad/planets</tspan></tspan></tspan></text></g></g><g id="g18613" class="com.sun.star.drawing.CustomShape"><g id="id9"><path id="path18616" d="m 7150,2300 c -100,0 -200,100 -200,200 l 0,800 c 0,100 100,201 200,201 l 3300,0 c 100,0 201,-101 201,-201 l 0,-800 c 0,-100 -101,-200 -201,-200 l -3300,0 z" style="fill:none;stroke:#000;stroke-width:50"/><text id="text18618" class="TextShape"><tspan id="tspan18620" class="TextParagraph" font-size="388" font-weight="400" style="font-size:388px;font-weight:400;font-family:'Arial, sans-serif'"><tspan id="tspan18622" x="7064" y="3035" class="TextPosition"><tspan id="tspan18624" style="fill:#000;stroke:none">/somewhere/planets</tspan></tspan></tspan></text></g></g><g id="g18626" class="com.sun.star.drawing.LineShape"><g id="id10"><path id="path18629" d="m 6100,1300 0,51" style="fill:none;stroke:#000;stroke-width:50"/><path id="path18631" d="m 6100,1402 0,51" style="fill:none;stroke:#000;stroke-width:50"/><path id="path18633" d="m 6100,1504 0,51" style="fill:none;stroke:#000;stroke-width:50"/><path id="path18635" d="m 6100,1606 0,51" style="fill:none;stroke:#000;stroke-width:50"/><path id="path18637" d="m 6100,1708 0,51" style="fill:none;stroke:#000;stroke-width:50"/><path id="path18639" d="m 6100,1810 0,51" style="fill:none;stroke:#000;stroke-width:50"/><path id="path18641" d="m 6100,1912 0,51" style="fill:none;stroke:#000;stroke-width:50"/><path id="path18643" d="m 6100,2014 0,51" style="fill:none;stroke:#000;stroke-width:50"/><path id="path18645" d="m 6100,2116 0,51" style="fill:none;stroke:#000;stroke-width:50"/><path id="path18647" d="m 6100,2218 0,51" style="fill:none;stroke:#000;stroke-width:50"/><path id="path18649" d="m 6100,2320 0,51" style="fill:none;stroke:#000;stroke-width:50"/><path id="path18651" d="m 6100,2422 0,51" style="fill:none;stroke:#000;stroke-width:50"/><path id="path18653" d="m 6100,2524 0,51" style="fill:none;stroke:#000;stroke-width:50"/><path id="path18655" d="m 6100,2626 0,51" style="fill:none;stroke:#000;stroke-width:50"/><path id="path18657" d="m 6100,2728 0,51" style="fill:none;stroke:#000;stroke-width:50"/><path id="path18659" d="m 6100,2830 0,51" style="fill:none;stroke:#000;stroke-width:50"/><path id="path18661" d="m 6100,2932 0,51" style="fill:none;stroke:#000;stroke-width:50"/><path id="path18663" d="m 6100,3034 0,51" style="fill:none;stroke:#000;stroke-width:50"/><path id="path18665" d="m 6100,3136 0,51" style="fill:none;stroke:#000;stroke-width:50"/><path id="path18667" d="m 6100,3238 0,51" style="fill:none;stroke:#000;stroke-width:50"/><path id="path18669" d="m 6100,3340 0,51" style="fill:none;stroke:#000;stroke-width:50"/><path id="path18671" d="m 6100,3442 0,51" style="fill:none;stroke:#000;stroke-width:50"/><path id="path18673" d="m 6100,3544 0,51" style="fill:none;stroke:#000;stroke-width:50"/><path id="path18675" d="m 6100,3646 0,51" style="fill:none;stroke:#000;stroke-width:50"/><path id="path18677" d="m 6100,3748 0,51" style="fill:none;stroke:#000;stroke-width:50"/><path id="path18679" d="m 6100,3850 0,51" style="fill:none;stroke:#000;stroke-width:50"/><path id="path18681" d="m 6100,3952 0,51" style="fill:none;stroke:#000;stroke-width:50"/><path id="path18683" d="m 6100,4054 0,51" style="fill:none;stroke:#000;stroke-width:50"/><path id="path18685" d="m 6100,4156 0,51" style="fill:none;stroke:#000;stroke-width:50"/><path id="path18687" d="m 6100,4258 0,51" style="fill:none;stroke:#000;stroke-width:50"/><path id="path18689" d="m 6100,4360 0,51" style="fill:none;stroke:#000;stroke-width:50"/><path id="path18691" d="m 6100,4462 0,51" style="fill:none;stroke:#000;stroke-width:50"/><path id="path18693" d="m 6100,4564 0,51" style="fill:none;stroke:#000;stroke-width:50"/><path id="path18695" d="m 6100,4666 0,51" style="fill:none;stroke:#000;stroke-width:50"/><path id="path18697" d="m 6100,4768 0,51" style="fill:none;stroke:#000;stroke-width:50"/><path id="path18699" d="m 6100,4870 0,51" style="fill:none;stroke:#000;stroke-width:50"/><path id="path18701" d="m 6100,4972 0,51" style="fill:none;stroke:#000;stroke-width:50"/><path id="path18703" d="m 6100,5074 0,51" style="fill:none;stroke:#000;stroke-width:50"/><path id="path18705" d="m 6100,5176 0,51" style="fill:none;stroke:#000;stroke-width:50"/><path id="path18707" d="m 6100,5278 0,51" style="fill:none;stroke:#000;stroke-width:50"/><path id="path18709" d="m 6100,5380 0,51" style="fill:none;stroke:#000;stroke-width:50"/><path id="path18711" d="m 6100,5482 0,51" style="fill:none;stroke:#000;stroke-width:50"/><path id="path18713" d="m 6100,5584 0,51" style="fill:none;stroke:#000;stroke-width:50"/><path id="path18715" d="m 6100,5686 0,51" style="fill:none;stroke:#000;stroke-width:50"/><path id="path18717" d="m 6100,5788 0,51" style="fill:none;stroke:#000;stroke-width:50"/><path id="path18719" d="m 6100,5890 0,51" style="fill:none;stroke:#000;stroke-width:50"/><path id="path18721" d="m 6100,5992 0,51" style="fill:none;stroke:#000;stroke-width:50"/><path id="path18723" d="m 6100,6094 0,51" style="fill:none;stroke:#000;stroke-width:50"/><path id="path18725" d="m 6100,6196 0,51" style="fill:none;stroke:#000;stroke-width:50"/><path id="path18727" d="m 6100,6298 0,51" style="fill:none;stroke:#000;stroke-width:50"/><path id="path18729" d="m 6100,6400 0,51" style="fill:none;stroke:#000;stroke-width:50"/><path id="path18731" d="m 6100,6502 0,51" style="fill:none;stroke:#000;stroke-width:50"/><path id="path18733" d="m 6100,6604 0,51" style="fill:none;stroke:#000;stroke-width:50"/><path id="path18735" d="m 6100,6706 0,51" style="fill:none;stroke:#000;stroke-width:50"/><path id="path18737" d="m 6100,6808 0,51" style="fill:none;stroke:#000;stroke-width:50"/><path id="path18739" d="m 6100,6910 0,51" style="fill:none;stroke:#000;stroke-width:50"/><path id="path18741" d="m 6100,7012 0,51" style="fill:none;stroke:#000;stroke-width:50"/><path id="path18743" d="m 6100,7114 0,51" style="fill:none;stroke:#000;stroke-width:50"/><path id="path18745" d="m 6100,7216 0,51" style="fill:none;stroke:#000;stroke-width:50"/><path id="path18747" d="m 6100,7318 0,51" style="fill:none;stroke:#000;stroke-width:50"/><path id="path18749" d="m 6100,7420 0,51" style="fill:none;stroke:#000;stroke-width:50"/><path id="path18751" d="m 6100,7522 0,51" style="fill:none;stroke:#000;stroke-width:50"/><path id="path18753" d="m 6100,7624 0,51" style="fill:none;stroke:#000;stroke-width:50"/><path id="path18755" d="m 6100,7726 0,51" style="fill:none;stroke:#000;stroke-width:50"/></g></g><g id="g18757" class="com.sun.star.drawing.LineShape"><g id="id11"><path id="path18760" d="m 1100,1800 51,0" style="fill:none;stroke:#000;stroke-width:50"/><path id="path18762" d="m 1202,1800 51,0" style="fill:none;stroke:#000;stroke-width:50"/><path id="path18764" d="m 1304,1800 51,0" style="fill:none;stroke:#000;stroke-width:50"/><path id="path18766" d="m 1406,1800 51,0" style="fill:none;stroke:#000;stroke-width:50"/><path id="path18768" d="m 1508,1800 51,0" style="fill:none;stroke:#000;stroke-width:50"/><path id="path18770" d="m 1610,1800 51,0" style="fill:none;stroke:#000;stroke-width:50"/><path id="path18772" d="m 1712,1800 51,0" style="fill:none;stroke:#000;stroke-width:50"/><path id="path18774" d="m 1814,1800 51,0" style="fill:none;stroke:#000;stroke-width:50"/><path id="path18776" d="m 1916,1800 51,0" style="fill:none;stroke:#000;stroke-width:50"/><path id="path18778" d="m 2018,1800 51,0" style="fill:none;stroke:#000;stroke-width:50"/><path id="path18780" d="m 2120,1800 51,0" style="fill:none;stroke:#000;stroke-width:50"/><path id="path18782" d="m 2222,1800 51,0" style="fill:none;stroke:#000;stroke-width:50"/><path id="path18784" d="m 2324,1800 51,0" style="fill:none;stroke:#000;stroke-width:50"/><path id="path18786" d="m 2426,1800 51,0" style="fill:none;stroke:#000;stroke-width:50"/><path id="path18788" d="m 2528,1800 51,0" style="fill:none;stroke:#000;stroke-width:50"/><path id="path18790" d="m 2630,1800 51,0" style="fill:none;stroke:#000;stroke-width:50"/><path id="path18792" d="m 2732,1800 51,0" style="fill:none;stroke:#000;stroke-width:50"/><path id="path18794" d="m 2834,1800 51,0" style="fill:none;stroke:#000;stroke-width:50"/><path id="path18796" d="m 2936,1800 51,0" style="fill:none;stroke:#000;stroke-width:50"/><path id="path18798" d="m 3038,1800 51,0" style="fill:none;stroke:#000;stroke-width:50"/><path id="path18800" d="m 3140,1800 51,0" style="fill:none;stroke:#000;stroke-width:50"/><path id="path18802" d="m 3242,1800 51,0" style="fill:none;stroke:#000;stroke-width:50"/><path id="path18804" d="m 3344,1800 51,0" style="fill:none;stroke:#000;stroke-width:50"/><path id="path18806" d="m 3446,1800 51,0" style="fill:none;stroke:#000;stroke-width:50"/><path id="path18808" d="m 3548,1800 51,0" style="fill:none;stroke:#000;stroke-width:50"/><path id="path18810" d="m 3650,1800 51,0" style="fill:none;stroke:#000;stroke-width:50"/><path id="path18812" d="m 3752,1800 51,0" style="fill:none;stroke:#000;stroke-width:50"/><path id="path18814" d="m 3854,1800 51,0" style="fill:none;stroke:#000;stroke-width:50"/><path id="path18816" d="m 3956,1800 51,0" style="fill:none;stroke:#000;stroke-width:50"/><path id="path18818" d="m 4058,1800 51,0" style="fill:none;stroke:#000;stroke-width:50"/><path id="path18820" d="m 4160,1800 51,0" style="fill:none;stroke:#000;stroke-width:50"/><path id="path18822" d="m 4262,1800 51,0" style="fill:none;stroke:#000;stroke-width:50"/><path id="path18824" d="m 4364,1800 51,0" style="fill:none;stroke:#000;stroke-width:50"/><path id="path18826" d="m 4466,1800 51,0" style="fill:none;stroke:#000;stroke-width:50"/><path id="path18828" d="m 4568,1800 51,0" style="fill:none;stroke:#000;stroke-width:50"/><path id="path18830" d="m 4670,1800 51,0" style="fill:none;stroke:#000;stroke-width:50"/><path id="path18832" d="m 4772,1800 51,0" style="fill:none;stroke:#000;stroke-width:50"/><path id="path18834" d="m 4874,1800 51,0" style="fill:none;stroke:#000;stroke-width:50"/><path id="path18836" d="m 4976,1800 51,0" style="fill:none;stroke:#000;stroke-width:50"/><path id="path18838" d="m 5078,1800 51,0" style="fill:none;stroke:#000;stroke-width:50"/><path id="path18840" d="m 5180,1800 51,0" style="fill:none;stroke:#000;stroke-width:50"/><path id="path18842" d="m 5282,1800 51,0" style="fill:none;stroke:#000;stroke-width:50"/><path id="path18844" d="m 5384,1800 51,0" style="fill:none;stroke:#000;stroke-width:50"/><path id="path18846" d="m 5486,1800 51,0" style="fill:none;stroke:#000;stroke-width:50"/><path id="path18848" d="m 5588,1800 51,0" style="fill:none;stroke:#000;stroke-width:50"/><path id="path18850" d="m 5690,1800 51,0" style="fill:none;stroke:#000;stroke-width:50"/><path id="path18852" d="m 5792,1800 51,0" style="fill:none;stroke:#000;stroke-width:50"/><path id="path18854" d="m 5894,1800 51,0" style="fill:none;stroke:#000;stroke-width:50"/><path id="path18856" d="m 5996,1800 51,0" style="fill:none;stroke:#000;stroke-width:50"/><path id="path18858" d="m 6098,1800 51,0" style="fill:none;stroke:#000;stroke-width:50"/><path id="path18860" d="m 6200,1800 51,0" style="fill:none;stroke:#000;stroke-width:50"/><path id="path18862" d="m 6302,1800 51,0" style="fill:none;stroke:#000;stroke-width:50"/><path id="path18864" d="m 6404,1800 51,0" style="fill:none;stroke:#000;stroke-width:50"/><path id="path18866" d="m 6506,1800 51,0" style="fill:none;stroke:#000;stroke-width:50"/><path id="path18868" d="m 6608,1800 51,0" style="fill:none;stroke:#000;stroke-width:50"/><path id="path18870" d="m 6710,1800 51,0" style="fill:none;stroke:#000;stroke-width:50"/><path id="path18872" d="m 6812,1800 51,0" style="fill:none;stroke:#000;stroke-width:50"/><path id="path18874" d="m 6914,1800 51,0" style="fill:none;stroke:#000;stroke-width:50"/><path id="path18876" d="m 7016,1800 51,0" style="fill:none;stroke:#000;stroke-width:50"/><path id="path18878" d="m 7118,1800 51,0" style="fill:none;stroke:#000;stroke-width:50"/><path id="path18880" d="m 7220,1800 51,0" style="fill:none;stroke:#000;stroke-width:50"/><path id="path18882" d="m 7322,1800 51,0" style="fill:none;stroke:#000;stroke-width:50"/><path id="path18884" d="m 7424,1800 51,0" style="fill:none;stroke:#000;stroke-width:50"/><path id="path18886" d="m 7526,1800 51,0" style="fill:none;stroke:#000;stroke-width:50"/><path id="path18888" d="m 7628,1800 51,0" style="fill:none;stroke:#000;stroke-width:50"/><path id="path18890" d="m 7730,1800 51,0" style="fill:none;stroke:#000;stroke-width:50"/><path id="path18892" d="m 7832,1800 51,0" style="fill:none;stroke:#000;stroke-width:50"/><path id="path18894" d="m 7934,1800 51,0" style="fill:none;stroke:#000;stroke-width:50"/><path id="path18896" d="m 8036,1800 51,0" style="fill:none;stroke:#000;stroke-width:50"/><path id="path18898" d="m 8138,1800 51,0" style="fill:none;stroke:#000;stroke-width:50"/><path id="path18900" d="m 8240,1800 51,0" style="fill:none;stroke:#000;stroke-width:50"/><path id="path18902" d="m 8342,1800 51,0" style="fill:none;stroke:#000;stroke-width:50"/><path id="path18904" d="m 8444,1800 51,0" style="fill:none;stroke:#000;stroke-width:50"/><path id="path18906" d="m 8546,1800 51,0" style="fill:none;stroke:#000;stroke-width:50"/><path id="path18908" d="m 8648,1800 51,0" style="fill:none;stroke:#000;stroke-width:50"/><path id="path18910" d="m 8750,1800 51,0" style="fill:none;stroke:#000;stroke-width:50"/><path id="path18912" d="m 8852,1800 51,0" style="fill:none;stroke:#000;stroke-width:50"/><path id="path18914" d="m 8954,1800 51,0" style="fill:none;stroke:#000;stroke-width:50"/><path id="path18916" d="m 9056,1800 51,0" style="fill:none;stroke:#000;stroke-width:50"/><path id="path18918" d="m 9158,1800 51,0" style="fill:none;stroke:#000;stroke-width:50"/><path id="path18920" d="m 9260,1800 51,0" style="fill:none;stroke:#000;stroke-width:50"/><path id="path18922" d="m 9362,1800 51,0" style="fill:none;stroke:#000;stroke-width:50"/><path id="path18924" d="m 9464,1800 51,0" style="fill:none;stroke:#000;stroke-width:50"/><path id="path18926" d="m 9566,1800 51,0" style="fill:none;stroke:#000;stroke-width:50"/><path id="path18928" d="m 9668,1800 51,0" style="fill:none;stroke:#000;stroke-width:50"/><path id="path18930" d="m 9770,1800 51,0" style="fill:none;stroke:#000;stroke-width:50"/><path id="path18932" d="m 9872,1800 51,0" style="fill:none;stroke:#000;stroke-width:50"/><path id="path18934" d="m 9974,1800 51,0" style="fill:none;stroke:#000;stroke-width:50"/><path id="path18936" d="m 10076,1800 51,0" style="fill:none;stroke:#000;stroke-width:50"/><path id="path18938" d="m 10178,1800 51,0" style="fill:none;stroke:#000;stroke-width:50"/><path id="path18940" d="m 10280,1800 51,0" style="fill:none;stroke:#000;stroke-width:50"/><path id="path18942" d="m 10382,1800 51,0" style="fill:none;stroke:#000;stroke-width:50"/><path id="path18944" d="m 10484,1800 51,0" style="fill:none;stroke:#000;stroke-width:50"/><path id="path18946" d="m 10586,1800 51,0" style="fill:none;stroke:#000;stroke-width:50"/><path id="path18948" d="m 10688,1800 51,0" style="fill:none;stroke:#000;stroke-width:50"/><path id="path18950" d="m 10790,1800 51,0" style="fill:none;stroke:#000;stroke-width:50"/><path id="path18952" d="m 10892,1800 51,0" style="fill:none;stroke:#000;stroke-width:50"/><path id="path18954" d="m 10994,1800 51,0" style="fill:none;stroke:#000;stroke-width:50"/><path id="path18956" d="m 11096,1800 51,0" style="fill:none;stroke:#000;stroke-width:50"/><path id="path18958" d="m 11198,1800 51,0" style="fill:none;stroke:#000;stroke-width:50"/><path id="path18960" d="m 11300,1800 51,0" style="fill:none;stroke:#000;stroke-width:50"/><path id="path18962" d="m 11402,1800 51,0" style="fill:none;stroke:#000;stroke-width:50"/><path id="path18964" d="m 11504,1800 51,0" style="fill:none;stroke:#000;stroke-width:50"/><path id="path18966" d="m 11606,1800 51,0" style="fill:none;stroke:#000;stroke-width:50"/></g></g><g id="g18968" class="com.sun.star.drawing.TextShape"><g id="id12"><text id="text18971" class="TextShape"><tspan id="tspan18973" class="TextParagraph" font-size="388" font-weight="400" style="font-size:388px;font-weight:400;font-family:'Arial, sans-serif'"><tspan id="tspan18975" x="3051" y="1494" class="TextPosition"><tspan id="tspan18977" style="fill:#000;stroke:none">local</tspan></tspan></tspan></text></g></g><g id="g18979" class="com.sun.star.drawing.TextShape"><g id="id13"><text id="text18982" class="TextShape"><tspan id="tspan18984" class="TextParagraph" font-size="388" font-weight="400" style="font-size:388px;font-weight:400;font-family:'Arial, sans-serif'"><tspan id="tspan18986" x="8196" y="1495" class="TextPosition"><tspan id="tspan18988" style="fill:#000;stroke:none">GitHub</tspan></tspan></tspan></text></g></g><g id="g18990" class="com.sun.star.drawing.CustomShape"><g id="id14"><path id="path18993" d="m 8250,4148 1400,0 0,1575 -175,225 -1225,0 0,-1800 z" style="fill:none;stroke:#000;stroke-width:50"/><path id="path18995" d="m 9475,5948 46,-225 c 44,33 42,14 129,0 l -175,225 z" style="fill:none;stroke:#000;stroke-width:50"/></g></g><g id="g18997" class="com.sun.star.drawing.TextShape"><g id="id15"><text id="text19000" class="TextShape"><tspan id="tspan19002" class="TextParagraph" font-size="388" font-weight="400" style="font-size:388px;font-weight:400;font-family:'Arial, sans-serif'"><tspan id="tspan19004" x="8259" y="6794" class="TextPosition"><tspan id="tspan19006" style="fill:#000;stroke:none">mars.txt</tspan></tspan></tspan></text></g></g><g id="g19008" class="com.sun.star.drawing.LineShape"><g id="id16"><path id="path19011" d="m 8500,4598 900,0" style="fill:none;stroke:#000;stroke-width:50"/></g></g><g id="g19013" class="com.sun.star.drawing.LineShape"><g id="id17"><path id="path19016" d="m 8500,4898 900,0" style="fill:none;stroke:#000;stroke-width:50"/></g></g><g id="g19018" class="com.sun.star.drawing.LineShape"><g id="id18"><path id="path19021" d="m 8500,5198 900,0" style="fill:none;stroke:#000;stroke-width:50"/></g></g><g id="g19023" class="com.sun.star.drawing.CustomShape"><g id="id19"><path id="path19026" d="m 5200,4775 1500,0 0,-275 501,550 -501,551 0,-276 -1500,0 0,-550 z" style="fill:none;stroke:#000;stroke-width:50"/></g></g></g></g></g></g></svg>