<svg xmlns="http://www.w3.org/2000/svg" xmlns:ooo="http://xml.openoffice.org/svg/export" xmlns:svg="http://www.w3.org/2000/svg" id="svg13353" width="260.291" height="48.118" clip-path="url(#presentation_clip_path)" style="fill-rule:evenodd;stroke-width:28.22200012;stroke-linejoin:round" preserveAspectRatio="xMidYMid" version="1.2" viewBox="0 0 7346 1358" xml:space="preserve"><metadata id="metadata13461"/><defs id="defs13355" class="ClipPathGroup"><clipPath id="presentation_clip_path" clipPathUnits="userSpaceOnUse"><rect id="rect13358" width="21590" height="27940" x="0" y="0"/></clipPath></defs><defs id="defs13364" class="EmbeddedBulletChars"><g id="bullet-char-template(57356)" transform="scale(4.8828125e-4,-4.8828125e-4)"><path id="path13367" d="M 580,1141 1163,571 580,0 -4,571 580,1141 z"/></g><g id="bullet-char-template(57354)" transform="scale(4.8828125e-4,-4.8828125e-4)"><path id="path13370" d="m 8,1128 1129,0 L 1137,0 8,0 8,1128 z"/></g><g id="bullet-char-template(10146)" transform="scale(4.8828125e-4,-4.8828125e-4)"><path id="path13373" d="M 174,0 602,739 174,1481 1456,739 174,0 z m 1184,739 -1049,607 350,-607 699,0 z"/></g><g id="bullet-char-template(10132)" transform="scale(4.8828125e-4,-4.8828125e-4)"><path id="path13376" d="M 2015,739 1276,0 717,0 l 543,543 -1086,0 0,393 1086,0 -543,545 557,0 741,-742 z"/></g><g id="bullet-char-template(10007)" transform="scale(4.8828125e-4,-4.8828125e-4)"><path id="path13379" d="m 0,-2 c -7,16 -16,29 -25,39 l 381,530 c -94,256 -141,385 -141,387 0,25 13,38 40,38 9,0 21,-2 34,-5 21,4 42,12 65,25 l 27,-13 111,-251 280,301 64,-25 24,25 c 21,-10 41,-24 62,-43 C 886,937 835,863 770,784 769,783 710,716 594,584 L 774,223 c 0,-27 -21,-55 -63,-84 l 16,-20 C 717,90 699,76 672,76 641,76 570,178 457,381 L 164,-76 c -22,-34 -53,-51 -92,-51 -42,0 -63,17 -64,51 -7,9 -10,24 -10,44 0,9 1,19 2,30 z"/></g><g id="bullet-char-template(10004)" transform="scale(4.8828125e-4,-4.8828125e-4)"><path id="path13382" d="M 285,-33 C 182,-33 111,30 74,156 52,228 41,333 41,471 c 0,78 14,145 41,201 34,71 87,106 158,106 53,0 88,-31 106,-94 l 23,-176 c 8,-64 28,-97 59,-98 l 735,706 c 11,11 33,17 66,17 42,0 63,-15 63,-46 l 0,-122 c 0,-36 -10,-64 -30,-84 L 442,47 C 390,-6 338,-33 285,-33 z"/></g><g id="bullet-char-template(9679)" transform="scale(4.8828125e-4,-4.8828125e-4)"><path id="path13385" d="M 813,0 C 632,0 489,54 383,161 276,268 223,411 223,592 c 0,181 53,324 160,431 106,107 249,161 430,161 179,0 323,-54 432,-161 108,-107 162,-251 162,-431 0,-180 -54,-324 -162,-431 C 1136,54 992,0 813,0 z"/></g><g id="bullet-char-template(8226)" transform="scale(4.8828125e-4,-4.8828125e-4)"><path id="path13388" d="m 346,457 c -73,0 -137,26 -191,78 -54,51 -81,114 -81,188 0,73 27,136 81,188 54,52 118,78 191,78 73,0 134,-26 185,-79 51,-51 77,-114 77,-187 0,-75 -25,-137 -76,-188 -50,-52 -112,-78 -186,-78 z"/></g><g id="bullet-char-template(8211)" transform="scale(4.8828125e-4,-4.8828125e-4)"><path id="path13391" d="m -4,459 1139,0 0,147 -1139,0 0,-147 z"/></g></defs><g id="g13400" class="SlideGroup" transform="translate(-1100,-1075)"><g id="g13402"><g id="id1" class="Slide" clip-path="url(#presentation_clip_path)"><g id="g13405" class="Page"><g id="g13407" class="com.sun.star.drawing.TextShape"><g id="id3"><path id="path13410" d="m 3561,1833 -761,0 0,-733 1521,0 0,733 -760,0 z" style="fill:none;stroke:#000;stroke-width:50"/><text id="text13412" class="TextShape"><tspan id="tspan13414" class="TextParagraph" font-size="388" font-weight="400" style="font-size:388px;font-weight:400;font-family:'Arial, sans-serif'"><tspan id="tspan13416" x="3075" y="1601" class="TextPosition"><tspan id="tspan13418" style="fill:#000;stroke:none">100.0</tspan></tspan></tspan></text></g></g><g id="g13420" class="com.sun.star.drawing.TextShape"><g id="id4"><path id="path13423" d="m 2250,2433 -1150,0 0,-733 2300,0 0,733 -1150,0 z" style="fill:silver;stroke:none"/><text id="text13425" class="TextShape"><tspan id="tspan13427" class="TextParagraph" font-size="388" font-weight="400" style="font-size:388px;font-weight:400;font-family:'Arial, sans-serif'"><tspan id="tspan13429" x="1375" y="2201" class="TextPosition"><tspan id="tspan13431" style="fill:#000;stroke:none">weight_kg</tspan></tspan></tspan></text></g></g><g id="g13433" class="com.sun.star.drawing.TextShape"><g id="id5"><path id="path13436" d="m 7661,1833 -761,0 0,-733 1521,0 0,733 -760,0 z" style="fill:none;stroke:#000;stroke-width:50"/><text id="text13438" class="TextShape"><tspan id="tspan13440" class="TextParagraph" font-size="388" font-weight="400" style="font-size:388px;font-weight:400;font-family:'Arial, sans-serif'"><tspan id="tspan13442" x="7175" y="1601" class="TextPosition"><tspan id="tspan13444" style="fill:#000;stroke:none">126.5</tspan></tspan></tspan></text></g></g><g id="g13446" class="com.sun.star.drawing.TextShape"><g id="id6"><path id="path13449" d="m 6295,2433 -1095,0 0,-733 2190,0 0,733 -1095,0 z" style="fill:silver;stroke:none"/><text id="text13451" class="TextShape"><tspan id="tspan13453" class="TextParagraph" font-size="388" font-weight="400" style="font-size:388px;font-weight:400;font-family:'Arial, sans-serif'"><tspan id="tspan13455" x="5475" y="2201" class="TextPosition"><tspan id="tspan13457" style="fill:#000;stroke:none">weight_lb</tspan></tspan></tspan></text></g></g></g></g></g></g></svg>