<svg xmlns="http://www.w3.org/2000/svg" xmlns:ooo="http://xml.openoffice.org/svg/export" xmlns:svg="http://www.w3.org/2000/svg" id="svg12375" width="513.761" height="269.279" clip-path="url(#presentation_clip_path)" style="fill-rule:evenodd;stroke-width:28.22200012;stroke-linejoin:round" preserveAspectRatio="xMidYMid" version="1.2" viewBox="0 0 14499.482 7599.654" xml:space="preserve"><metadata id="metadata12613"/><defs id="defs12377" class="ClipPathGroup"><clipPath id="presentation_clip_path" clipPathUnits="userSpaceOnUse"><rect id="rect12380" width="21590" height="27940" x="0" y="0"/></clipPath></defs><defs id="defs12386" class="EmbeddedBulletChars"><g id="bullet-char-template(57356)" transform="scale(4.8828125e-4,-4.8828125e-4)"><path id="path12389" d="M 580,1141 1163,571 580,0 -4,571 580,1141 z"/></g><g id="bullet-char-template(57354)" transform="scale(4.8828125e-4,-4.8828125e-4)"><path id="path12392" d="m 8,1128 1129,0 L 1137,0 8,0 8,1128 z"/></g><g id="bullet-char-template(10146)" transform="scale(4.8828125e-4,-4.8828125e-4)"><path id="path12395" d="M 174,0 602,739 174,1481 1456,739 174,0 z m 1184,739 -1049,607 350,-607 699,0 z"/></g><g id="bullet-char-template(10132)" transform="scale(4.8828125e-4,-4.8828125e-4)"><path id="path12398" d="M 2015,739 1276,0 717,0 l 543,543 -1086,0 0,393 1086,0 -543,545 557,0 741,-742 z"/></g><g id="bullet-char-template(10007)" transform="scale(4.8828125e-4,-4.8828125e-4)"><path id="path12401" d="m 0,-2 c -7,16 -16,29 -25,39 l 381,530 c -94,256 -141,385 -141,387 0,25 13,38 40,38 9,0 21,-2 34,-5 21,4 42,12 65,25 l 27,-13 111,-251 280,301 64,-25 24,25 c 21,-10 41,-24 62,-43 C 886,937 835,863 770,784 769,783 710,716 594,584 L 774,223 c 0,-27 -21,-55 -63,-84 l 16,-20 C 717,90 699,76 672,76 641,76 570,178 457,381 L 164,-76 c -22,-34 -53,-51 -92,-51 -42,0 -63,17 -64,51 -7,9 -10,24 -10,44 0,9 1,19 2,30 z"/></g><g id="bullet-char-template(10004)" transform="scale(4.8828125e-4,-4.8828125e-4)"><path id="path12404" d="M 285,-33 C 182,-33 111,30 74,156 52,228 41,333 41,471 c 0,78 14,145 41,201 34,71 87,106 158,106 53,0 88,-31 106,-94 l 23,-176 c 8,-64 28,-97 59,-98 l 735,706 c 11,11 33,17 66,17 42,0 63,-15 63,-46 l 0,-122 c 0,-36 -10,-64 -30,-84 L 442,47 C 390,-6 338,-33 285,-33 z"/></g><g id="bullet-char-template(9679)" transform="scale(4.8828125e-4,-4.8828125e-4)"><path id="path12407" d="M 813,0 C 632,0 489,54 383,161 276,268 223,411 223,592 c 0,181 53,324 160,431 106,107 249,161 430,161 179,0 323,-54 432,-161 108,-107 162,-251 162,-431 0,-180 -54,-324 -162,-431 C 1136,54 992,0 813,0 z"/></g><g id="bullet-char-template(8226)" transform="scale(4.8828125e-4,-4.8828125e-4)"><path id="path12410" d="m 346,457 c -73,0 -137,26 -191,78 -54,51 -81,114 -81,188 0,73 27,136 81,188 54,52 118,78 191,78 73,0 134,-26 185,-79 51,-51 77,-114 77,-187 0,-75 -25,-137 -76,-188 -50,-52 -112,-78 -186,-78 z"/></g><g id="bullet-char-template(8211)" transform="scale(4.8828125e-4,-4.8828125e-4)"><path id="path12413" d="m -4,459 1139,0 0,147 -1139,0 0,-147 z"/></g></defs><g id="g12422" class="SlideGroup" transform="translate(-1275,-1175)"><g id="g12424"><g id="id1" class="Slide" clip-path="url(#presentation_clip_path)"><g id="g12427" class="Page"><g id="g12429" class="com.sun.star.drawing.CustomShape"><g id="id3"><path id="path12432" d="m 8600,7200 -2000,0 0,-6000 4000,0 0,6000 -2000,0 z" style="fill:none;stroke:#000;stroke-width:50"/></g></g><g id="g12434" class="com.sun.star.drawing.LineShape"><g id="id4"><path id="path12437" d="m 7600,1200 0,6000" style="fill:none;stroke:#000;stroke-width:50"/></g></g><g id="g12439" class="com.sun.star.drawing.LineShape"><g id="id5"><path id="path12442" d="m 9600,1200 0,6000" style="fill:none;stroke:#000;stroke-width:50"/></g></g><g id="g12444" class="com.sun.star.drawing.LineShape"><g id="id6"><path id="path12447" d="m 8600,1200 0,6000" style="fill:none;stroke:#000;stroke-width:50"/></g></g><g id="g12449" class="com.sun.star.drawing.LineShape"><g id="id7"><path id="path12452" d="m 6600,2200 4000,0" style="fill:none;stroke:#000;stroke-width:50"/></g></g><g id="g12454" class="com.sun.star.drawing.LineShape"><g id="id8"><path id="path12457" d="m 6600,3200 4000,0" style="fill:none;stroke:#000;stroke-width:50"/></g></g><g id="g12459" class="com.sun.star.drawing.LineShape"><g id="id9"><path id="path12462" d="m 6600,4200 4000,0" style="fill:none;stroke:#000;stroke-width:50"/></g></g><g id="g12464" class="com.sun.star.drawing.LineShape"><g id="id10"><path id="path12467" d="m 6600,5200 4000,0" style="fill:none;stroke:#000;stroke-width:50"/></g></g><g id="g12469" class="com.sun.star.drawing.LineShape"><g id="id11"><path id="path12472" d="m 6600,6200 4000,0" style="fill:none;stroke:#000;stroke-width:50"/></g></g><g id="g12474" class="com.sun.star.drawing.LineShape"><g id="id12"><path id="path12477" d="m 7100,1700 3970,0" style="fill:none;stroke:#000"/><path id="path12479" d="m 11500,1700 -450,-150 0,300 450,-150 z" style="fill:#000;stroke:none"/></g></g><g id="g12481" class="com.sun.star.drawing.LineShape"><g id="id13"><path id="path12484" d="m 7100,2700 3970,0" style="fill:none;stroke:#000"/><path id="path12486" d="m 11500,2700 -450,-150 0,300 450,-150 z" style="fill:#000;stroke:none"/></g></g><g id="g12488" class="com.sun.star.drawing.LineShape"><g id="id14"><path id="path12491" d="m 7100,3700 3970,0" style="fill:none;stroke:#000"/><path id="path12493" d="m 11500,3700 -450,-150 0,300 450,-150 z" style="fill:#000;stroke:none"/></g></g><g id="g12495" class="com.sun.star.drawing.LineShape"><g id="id15"><path id="path12498" d="m 7100,4700 3970,0" style="fill:none;stroke:#000"/><path id="path12500" d="m 11500,4700 -450,-150 0,300 450,-150 z" style="fill:#000;stroke:none"/></g></g><g id="g12502" class="com.sun.star.drawing.LineShape"><g id="id16"><path id="path12505" d="m 7100,5700 3970,0" style="fill:none;stroke:#000"/><path id="path12507" d="m 11500,5700 -450,-150 0,300 450,-150 z" style="fill:#000;stroke:none"/></g></g><g id="g12509" class="com.sun.star.drawing.LineShape"><g id="id17"><path id="path12512" d="m 7100,6700 3970,0" style="fill:none;stroke:#000"/><path id="path12514" d="m 11500,6700 -450,-150 0,300 450,-150 z" style="fill:#000;stroke:none"/></g></g><g id="g12516" class="com.sun.star.drawing.CustomShape"><g id="id18"><path id="path12519" d="m 3300,7200 -2000,0 0,-6000 4000,0 0,6000 -2000,0 z" style="fill:none;stroke:#000;stroke-width:50"/></g></g><g id="g12521" class="com.sun.star.drawing.LineShape"><g id="id19"><path id="path12524" d="m 2300,1200 0,6000" style="fill:none;stroke:#000;stroke-width:50"/></g></g><g id="g12526" class="com.sun.star.drawing.LineShape"><g id="id20"><path id="path12529" d="m 4300,1200 0,6000" style="fill:none;stroke:#000;stroke-width:50"/></g></g><g id="g12531" class="com.sun.star.drawing.LineShape"><g id="id21"><path id="path12534" d="m 3300,1200 0,6000" style="fill:none;stroke:#000;stroke-width:50"/></g></g><g id="g12536" class="com.sun.star.drawing.LineShape"><g id="id22"><path id="path12539" d="m 1300,2200 4000,0" style="fill:none;stroke:#000;stroke-width:50"/></g></g><g id="g12541" class="com.sun.star.drawing.LineShape"><g id="id23"><path id="path12544" d="m 1300,3200 4000,0" style="fill:none;stroke:#000;stroke-width:50"/></g></g><g id="g12546" class="com.sun.star.drawing.LineShape"><g id="id24"><path id="path12549" d="m 1300,4200 4000,0" style="fill:none;stroke:#000;stroke-width:50"/></g></g><g id="g12551" class="com.sun.star.drawing.LineShape"><g id="id25"><path id="path12554" d="m 1300,5200 4000,0" style="fill:none;stroke:#000;stroke-width:50"/></g></g><g id="g12556" class="com.sun.star.drawing.LineShape"><g id="id26"><path id="path12559" d="m 1300,6200 4000,0" style="fill:none;stroke:#000;stroke-width:50"/></g></g><g id="g12561" class="com.sun.star.drawing.LineShape"><g id="id27"><path id="path12564" d="m 1800,1700 0,5870" style="fill:none;stroke:#000"/><path id="path12566" d="m 1800,8000 150,-450 -300,0 150,450 z" style="fill:#000;stroke:none"/></g></g><g id="g12568" class="com.sun.star.drawing.LineShape"><g id="id28"><path id="path12571" d="m 2800,1700 0,5870" style="fill:none;stroke:#000"/><path id="path12573" d="m 2800,8000 150,-450 -300,0 150,450 z" style="fill:#000;stroke:none"/></g></g><g id="g12575" class="com.sun.star.drawing.LineShape"><g id="id29"><path id="path12578" d="m 3800,1700 0,5870" style="fill:none;stroke:#000"/><path id="path12580" d="m 3800,8000 150,-450 -300,0 150,450 z" style="fill:#000;stroke:none"/></g></g><g id="g12582" class="com.sun.star.drawing.LineShape"><g id="id30"><path id="path12585" d="m 4800,1700 0,5870" style="fill:none;stroke:#000"/><path id="path12587" d="m 4800,8000 150,-450 -300,0 150,450 z" style="fill:#000;stroke:none"/></g></g><g id="g12589" class="com.sun.star.drawing.TextShape"><g id="id31"><text id="text12592" class="TextShape"><tspan id="tspan12594" class="TextParagraph" font-size="388" font-weight="400" style="font-size:388px;font-weight:400;font-family:'Arial, sans-serif'"><tspan id="tspan12596" x="1472" y="8693" class="TextPosition"><tspan id="tspan12598" style="fill:#000;stroke:none">average across axis 0</tspan></tspan></tspan></text></g></g><g id="g12600" class="com.sun.star.drawing.TextShape"><g id="id32"><text id="text12603" class="TextShape"><tspan id="tspan12605" class="TextParagraph" font-size="388" font-weight="400" style="font-size:388px;font-weight:400;font-family:'Arial, sans-serif'"><tspan id="tspan12607" x="12072" y="4376" class="TextPosition"><tspan id="tspan12609" style="fill:#000;stroke:none">average across axis 1</tspan></tspan></tspan></text></g></g></g></g></g></g></svg>