<svg xmlns="http://www.w3.org/2000/svg" xmlns:ooo="http://xml.openoffice.org/svg/export" xmlns:svg="http://www.w3.org/2000/svg" id="svg4713" width="354.911" height="225" clip-path="url(#presentation_clip_path)" style="fill-rule:evenodd;stroke-width:28.22200012;stroke-linejoin:round" preserveAspectRatio="xMidYMid" version="1.2" viewBox="0 0 10016.381 6350" xml:space="preserve"><metadata id="metadata5432"/><defs id="defs4715" class="ClipPathGroup"><clipPath id="presentation_clip_path" clipPathUnits="userSpaceOnUse"><rect id="rect4718" width="21590" height="27940" x="0" y="0"/></clipPath></defs><defs id="defs4724" class="EmbeddedBulletChars"><g id="bullet-char-template(57356)" transform="scale(4.8828125e-4,-4.8828125e-4)"><path id="path4727" d="M 580,1141 1163,571 580,0 -4,571 580,1141 z"/></g><g id="bullet-char-template(57354)" transform="scale(4.8828125e-4,-4.8828125e-4)"><path id="path4730" d="m 8,1128 1129,0 L 1137,0 8,0 8,1128 z"/></g><g id="bullet-char-template(10146)" transform="scale(4.8828125e-4,-4.8828125e-4)"><path id="path4733" d="M 174,0 602,739 174,1481 1456,739 174,0 z m 1184,739 -1049,607 350,-607 699,0 z"/></g><g id="bullet-char-template(10132)" transform="scale(4.8828125e-4,-4.8828125e-4)"><path id="path4736" d="M 2015,739 1276,0 717,0 l 543,543 -1086,0 0,393 1086,0 -543,545 557,0 741,-742 z"/></g><g id="bullet-char-template(10007)" transform="scale(4.8828125e-4,-4.8828125e-4)"><path id="path4739" d="m 0,-2 c -7,16 -16,29 -25,39 l 381,530 c -94,256 -141,385 -141,387 0,25 13,38 40,38 9,0 21,-2 34,-5 21,4 42,12 65,25 l 27,-13 111,-251 280,301 64,-25 24,25 c 21,-10 41,-24 62,-43 C 886,937 835,863 770,784 769,783 710,716 594,584 L 774,223 c 0,-27 -21,-55 -63,-84 l 16,-20 C 717,90 699,76 672,76 641,76 570,178 457,381 L 164,-76 c -22,-34 -53,-51 -92,-51 -42,0 -63,17 -64,51 -7,9 -10,24 -10,44 0,9 1,19 2,30 z"/></g><g id="bullet-char-template(10004)" transform="scale(4.8828125e-4,-4.8828125e-4)"><path id="path4742" d="M 285,-33 C 182,-33 111,30 74,156 52,228 41,333 41,471 c 0,78 14,145 41,201 34,71 87,106 158,106 53,0 88,-31 106,-94 l 23,-176 c 8,-64 28,-97 59,-98 l 735,706 c 11,11 33,17 66,17 42,0 63,-15 63,-46 l 0,-122 c 0,-36 -10,-64 -30,-84 L 442,47 C 390,-6 338,-33 285,-33 z"/></g><g id="bullet-char-template(9679)" transform="scale(4.8828125e-4,-4.8828125e-4)"><path id="path4745" d="M 813,0 C 632,0 489,54 383,161 276,268 223,411 223,592 c 0,181 53,324 160,431 106,107 249,161 430,161 179,0 323,-54 432,-161 108,-107 162,-251 162,-431 0,-180 -54,-324 -162,-431 C 1136,54 992,0 813,0 z"/></g><g id="bullet-char-template(8226)" transform="scale(4.8828125e-4,-4.8828125e-4)"><path id="path4748" d="m 346,457 c -73,0 -137,26 -191,78 -54,51 -81,114 -81,188 0,73 27,136 81,188 54,52 118,78 191,78 73,0 134,-26 185,-79 51,-51 77,-114 77,-187 0,-75 -25,-137 -76,-188 -50,-52 -112,-78 -186,-78 z"/></g><g id="bullet-char-template(8211)" transform="scale(4.8828125e-4,-4.8828125e-4)"><path id="path4751" d="m -4,459 1139,0 0,147 -1139,0 0,-147 z"/></g></defs><g id="g4760" class="SlideGroup" transform="translate(-1108.6191,-1175)"><g id="g4762"><g id="id1" class="Slide" clip-path="url(#presentation_clip_path)"><g id="g4765" class="Page"><g id="g4767" class="com.sun.star.drawing.TextShape"><g id="id3"><text id="text4770" class="TextShape"><tspan id="tspan4772" class="TextParagraph" font-size="388" font-style="italic" font-weight="400" style="font-size:388px;font-style:italic;font-weight:400;font-family:'Arial, sans-serif'"><tspan id="tspan4774" x="1091" y="3969" class="TextPosition"><tspan id="tspan4776" style="fill:#000;stroke:none">fahr_to_celsius</tspan></tspan></tspan></text></g></g><g id="g4778" class="com.sun.star.drawing.LineShape"><g id="id4"><path id="path4781" d="m 7100,5700 1470,0" style="fill:none;stroke:#000"/><path id="path4783" d="m 9000,5700 -450,-150 0,300 450,-150 z" style="fill:#000;stroke:none"/></g></g><g id="g4785" class="com.sun.star.drawing.TextShape"><g id="id5"><path id="path4788" d="m 6023,6100 -878,0 0,-683 1755,0 0,683 -877,0 z" style="fill:silver;stroke:none"/><text id="text4790" class="TextShape"><tspan id="tspan4792" class="TextParagraph" font-size="388" font-weight="400" style="font-size:388px;font-weight:400;font-family:'Arial, sans-serif'"><tspan id="tspan4794" x="5395" y="5893" class="TextPosition"><tspan id="tspan4796" style="fill:#000;stroke:none">original</tspan></tspan></tspan></text></g></g><g id="g4798" class="com.sun.star.drawing.TextShape"><g id="id6"><path id="path4801" d="m 9692,6100 -492,0 0,-733 984,0 0,733 -492,0 z" style="fill:none;stroke:#000;stroke-width:50"/><text id="text4803" class="TextShape"><tspan id="tspan4805" class="TextParagraph" font-size="388" font-weight="400" style="font-size:388px;font-weight:400;font-family:'Arial, sans-serif'"><tspan id="tspan4807" x="9475" y="5868" class="TextPosition"><tspan id="tspan4809" style="fill:#000;stroke:none">32</tspan></tspan></tspan></text></g></g><g id="g4811" class="com.sun.star.drawing.LineShape"><g id="id7"><path id="path4814" d="m 7800,7500 0,-51" style="fill:none;stroke:#000;stroke-width:50"/><path id="path4816" d="m 7800,7398 0,-51" style="fill:none;stroke:#000;stroke-width:50"/><path id="path4818" d="m 7800,7296 0,-51" style="fill:none;stroke:#000;stroke-width:50"/><path id="path4820" d="m 7800,7194 0,-51" style="fill:none;stroke:#000;stroke-width:50"/><path id="path4822" d="m 7800,7092 0,-51" style="fill:none;stroke:#000;stroke-width:50"/><path id="path4824" d="m 7800,6990 0,-51" style="fill:none;stroke:#000;stroke-width:50"/><path id="path4826" d="m 7800,6888 0,-51" style="fill:none;stroke:#000;stroke-width:50"/><path id="path4828" d="m 7800,6786 0,-51" style="fill:none;stroke:#000;stroke-width:50"/><path id="path4830" d="m 7800,6684 0,-51" style="fill:none;stroke:#000;stroke-width:50"/><path id="path4832" d="m 7800,6582 0,-51" style="fill:none;stroke:#000;stroke-width:50"/><path id="path4834" d="m 7800,6480 0,-51" style="fill:none;stroke:#000;stroke-width:50"/><path id="path4836" d="m 7800,6378 0,-51" style="fill:none;stroke:#000;stroke-width:50"/><path id="path4838" d="m 7800,6276 0,-51" style="fill:none;stroke:#000;stroke-width:50"/><path id="path4840" d="m 7800,6174 0,-51" style="fill:none;stroke:#000;stroke-width:50"/><path id="path4842" d="m 7800,6072 0,-51" style="fill:none;stroke:#000;stroke-width:50"/><path id="path4844" d="m 7800,5970 0,-51" style="fill:none;stroke:#000;stroke-width:50"/><path id="path4846" d="m 7800,5868 0,-51" style="fill:none;stroke:#000;stroke-width:50"/><path id="path4848" d="m 7800,5766 0,-51" style="fill:none;stroke:#000;stroke-width:50"/><path id="path4850" d="m 7800,5664 0,-51" style="fill:none;stroke:#000;stroke-width:50"/><path id="path4852" d="m 7800,5562 0,-51" style="fill:none;stroke:#000;stroke-width:50"/><path id="path4854" d="m 7800,5460 0,-51" style="fill:none;stroke:#000;stroke-width:50"/><path id="path4856" d="m 7800,5358 0,-51" style="fill:none;stroke:#000;stroke-width:50"/><path id="path4858" d="m 7800,5256 0,-51" style="fill:none;stroke:#000;stroke-width:50"/><path id="path4860" d="m 7800,5154 0,-51" style="fill:none;stroke:#000;stroke-width:50"/><path id="path4862" d="m 7800,5052 0,-51" style="fill:none;stroke:#000;stroke-width:50"/><path id="path4864" d="m 7800,4950 0,-51" style="fill:none;stroke:#000;stroke-width:50"/><path id="path4866" d="m 7800,4848 0,-51" style="fill:none;stroke:#000;stroke-width:50"/><path id="path4868" d="m 7800,4746 0,-51" style="fill:none;stroke:#000;stroke-width:50"/><path id="path4870" d="m 7800,4644 0,-51" style="fill:none;stroke:#000;stroke-width:50"/><path id="path4872" d="m 7800,4542 0,-51" style="fill:none;stroke:#000;stroke-width:50"/><path id="path4874" d="m 7800,4440 0,-51" style="fill:none;stroke:#000;stroke-width:50"/><path id="path4876" d="m 7800,4338 0,-51" style="fill:none;stroke:#000;stroke-width:50"/><path id="path4878" d="m 7800,4236 0,-51" style="fill:none;stroke:#000;stroke-width:50"/><path id="path4880" d="m 7800,4134 0,-51" style="fill:none;stroke:#000;stroke-width:50"/><path id="path4882" d="m 7800,4032 0,-51" style="fill:none;stroke:#000;stroke-width:50"/><path id="path4884" d="m 7800,3930 0,-51" style="fill:none;stroke:#000;stroke-width:50"/><path id="path4886" d="m 7800,3828 0,-51" style="fill:none;stroke:#000;stroke-width:50"/><path id="path4888" d="m 7800,3726 0,-51" style="fill:none;stroke:#000;stroke-width:50"/><path id="path4890" d="m 7800,3624 0,-51" style="fill:none;stroke:#000;stroke-width:50"/><path id="path4892" d="m 7800,3522 0,-51" style="fill:none;stroke:#000;stroke-width:50"/><path id="path4894" d="m 7800,3420 0,-51" style="fill:none;stroke:#000;stroke-width:50"/><path id="path4896" d="m 7800,3318 0,-51" style="fill:none;stroke:#000;stroke-width:50"/><path id="path4898" d="m 7800,3216 0,-51" style="fill:none;stroke:#000;stroke-width:50"/><path id="path4900" d="m 7800,3114 0,-51" style="fill:none;stroke:#000;stroke-width:50"/><path id="path4902" d="m 7800,3012 0,-51" style="fill:none;stroke:#000;stroke-width:50"/><path id="path4904" d="m 7800,2910 0,-51" style="fill:none;stroke:#000;stroke-width:50"/><path id="path4906" d="m 7800,2808 0,-51" style="fill:none;stroke:#000;stroke-width:50"/><path id="path4908" d="m 7800,2706 0,-51" style="fill:none;stroke:#000;stroke-width:50"/><path id="path4910" d="m 7800,2604 0,-51" style="fill:none;stroke:#000;stroke-width:50"/><path id="path4912" d="m 7800,2502 0,-51" style="fill:none;stroke:#000;stroke-width:50"/><path id="path4914" d="m 7800,2400 0,-51" style="fill:none;stroke:#000;stroke-width:50"/><path id="path4916" d="m 7800,2298 0,-51" style="fill:none;stroke:#000;stroke-width:50"/><path id="path4918" d="m 7800,2196 0,-51" style="fill:none;stroke:#000;stroke-width:50"/><path id="path4920" d="m 7800,2094 0,-51" style="fill:none;stroke:#000;stroke-width:50"/><path id="path4922" d="m 7800,1992 0,-51" style="fill:none;stroke:#000;stroke-width:50"/><path id="path4924" d="m 7800,1890 0,-51" style="fill:none;stroke:#000;stroke-width:50"/><path id="path4926" d="m 7800,1788 0,-51" style="fill:none;stroke:#000;stroke-width:50"/></g></g><g id="g4928" class="com.sun.star.drawing.LineShape"><g id="id8"><path id="path4931" d="m 11100,6500 -51,0" style="fill:none;stroke:#000;stroke-width:50"/><path id="path4933" d="m 10998,6500 -51,0" style="fill:none;stroke:#000;stroke-width:50"/><path id="path4935" d="m 10896,6500 -51,0" style="fill:none;stroke:#000;stroke-width:50"/><path id="path4937" d="m 10794,6500 -51,0" style="fill:none;stroke:#000;stroke-width:50"/><path id="path4939" d="m 10692,6500 -51,0" style="fill:none;stroke:#000;stroke-width:50"/><path id="path4941" d="m 10590,6500 -51,0" style="fill:none;stroke:#000;stroke-width:50"/><path id="path4943" d="m 10488,6500 -51,0" style="fill:none;stroke:#000;stroke-width:50"/><path id="path4945" d="m 10386,6500 -51,0" style="fill:none;stroke:#000;stroke-width:50"/><path id="path4947" d="m 10284,6500 -51,0" style="fill:none;stroke:#000;stroke-width:50"/><path id="path4949" d="m 10182,6500 -51,0" style="fill:none;stroke:#000;stroke-width:50"/><path id="path4951" d="m 10080,6500 -51,0" style="fill:none;stroke:#000;stroke-width:50"/><path id="path4953" d="m 9978,6500 -51,0" style="fill:none;stroke:#000;stroke-width:50"/><path id="path4955" d="m 9876,6500 -51,0" style="fill:none;stroke:#000;stroke-width:50"/><path id="path4957" d="m 9774,6500 -51,0" style="fill:none;stroke:#000;stroke-width:50"/><path id="path4959" d="m 9672,6500 -51,0" style="fill:none;stroke:#000;stroke-width:50"/><path id="path4961" d="m 9570,6500 -51,0" style="fill:none;stroke:#000;stroke-width:50"/><path id="path4963" d="m 9468,6500 -51,0" style="fill:none;stroke:#000;stroke-width:50"/><path id="path4965" d="m 9366,6500 -51,0" style="fill:none;stroke:#000;stroke-width:50"/><path id="path4967" d="m 9264,6500 -51,0" style="fill:none;stroke:#000;stroke-width:50"/><path id="path4969" d="m 9162,6500 -51,0" style="fill:none;stroke:#000;stroke-width:50"/><path id="path4971" d="m 9060,6500 -51,0" style="fill:none;stroke:#000;stroke-width:50"/><path id="path4973" d="m 8958,6500 -51,0" style="fill:none;stroke:#000;stroke-width:50"/><path id="path4975" d="m 8856,6500 -51,0" style="fill:none;stroke:#000;stroke-width:50"/><path id="path4977" d="m 8754,6500 -51,0" style="fill:none;stroke:#000;stroke-width:50"/><path id="path4979" d="m 8652,6500 -51,0" style="fill:none;stroke:#000;stroke-width:50"/><path id="path4981" d="m 8550,6500 -51,0" style="fill:none;stroke:#000;stroke-width:50"/><path id="path4983" d="m 8448,6500 -51,0" style="fill:none;stroke:#000;stroke-width:50"/><path id="path4985" d="m 8346,6500 -51,0" style="fill:none;stroke:#000;stroke-width:50"/><path id="path4987" d="m 8244,6500 -51,0" style="fill:none;stroke:#000;stroke-width:50"/><path id="path4989" d="m 8142,6500 -51,0" style="fill:none;stroke:#000;stroke-width:50"/><path id="path4991" d="m 8040,6500 -51,0" style="fill:none;stroke:#000;stroke-width:50"/><path id="path4993" d="m 7938,6500 -51,0" style="fill:none;stroke:#000;stroke-width:50"/><path id="path4995" d="m 7836,6500 -51,0" style="fill:none;stroke:#000;stroke-width:50"/><path id="path4997" d="m 7734,6500 -51,0" style="fill:none;stroke:#000;stroke-width:50"/><path id="path4999" d="m 7632,6500 -51,0" style="fill:none;stroke:#000;stroke-width:50"/><path id="path5001" d="m 7530,6500 -51,0" style="fill:none;stroke:#000;stroke-width:50"/><path id="path5003" d="m 7428,6500 -51,0" style="fill:none;stroke:#000;stroke-width:50"/><path id="path5005" d="m 7326,6500 -51,0" style="fill:none;stroke:#000;stroke-width:50"/><path id="path5007" d="m 7224,6500 -51,0" style="fill:none;stroke:#000;stroke-width:50"/><path id="path5009" d="m 7122,6500 -51,0" style="fill:none;stroke:#000;stroke-width:50"/><path id="path5011" d="m 7020,6500 -51,0" style="fill:none;stroke:#000;stroke-width:50"/><path id="path5013" d="m 6918,6500 -51,0" style="fill:none;stroke:#000;stroke-width:50"/><path id="path5015" d="m 6816,6500 -51,0" style="fill:none;stroke:#000;stroke-width:50"/><path id="path5017" d="m 6714,6500 -51,0" style="fill:none;stroke:#000;stroke-width:50"/><path id="path5019" d="m 6612,6500 -51,0" style="fill:none;stroke:#000;stroke-width:50"/><path id="path5021" d="m 6510,6500 -51,0" style="fill:none;stroke:#000;stroke-width:50"/><path id="path5023" d="m 6408,6500 -51,0" style="fill:none;stroke:#000;stroke-width:50"/><path id="path5025" d="m 6306,6500 -51,0" style="fill:none;stroke:#000;stroke-width:50"/><path id="path5027" d="m 6204,6500 -51,0" style="fill:none;stroke:#000;stroke-width:50"/><path id="path5029" d="m 6102,6500 -51,0" style="fill:none;stroke:#000;stroke-width:50"/><path id="path5031" d="m 6000,6500 -51,0" style="fill:none;stroke:#000;stroke-width:50"/><path id="path5033" d="m 5898,6500 -51,0" style="fill:none;stroke:#000;stroke-width:50"/><path id="path5035" d="m 5796,6500 -51,0" style="fill:none;stroke:#000;stroke-width:50"/><path id="path5037" d="m 5694,6500 -51,0" style="fill:none;stroke:#000;stroke-width:50"/><path id="path5039" d="m 5592,6500 -51,0" style="fill:none;stroke:#000;stroke-width:50"/><path id="path5041" d="m 5490,6500 -51,0" style="fill:none;stroke:#000;stroke-width:50"/><path id="path5043" d="m 5388,6500 -51,0" style="fill:none;stroke:#000;stroke-width:50"/><path id="path5045" d="m 5286,6500 -51,0" style="fill:none;stroke:#000;stroke-width:50"/><path id="path5047" d="m 5184,6500 -51,0" style="fill:none;stroke:#000;stroke-width:50"/><path id="path5049" d="m 5082,6500 -51,0" style="fill:none;stroke:#000;stroke-width:50"/><path id="path5051" d="m 4980,6500 -51,0" style="fill:none;stroke:#000;stroke-width:50"/><path id="path5053" d="m 4878,6500 -51,0" style="fill:none;stroke:#000;stroke-width:50"/><path id="path5055" d="m 4776,6500 -51,0" style="fill:none;stroke:#000;stroke-width:50"/><path id="path5057" d="m 4674,6500 -51,0" style="fill:none;stroke:#000;stroke-width:50"/><path id="path5059" d="m 4572,6500 -51,0" style="fill:none;stroke:#000;stroke-width:50"/><path id="path5061" d="m 4470,6500 -51,0" style="fill:none;stroke:#000;stroke-width:50"/><path id="path5063" d="m 4368,6500 -51,0" style="fill:none;stroke:#000;stroke-width:50"/></g></g><g id="g5065" class="com.sun.star.drawing.TextShape"><g id="id9"><text id="text5068" class="TextShape"><tspan id="tspan5070" class="TextParagraph" font-size="388" font-weight="400" style="font-size:388px;font-weight:400;font-family:'Arial, sans-serif'"><tspan id="tspan5072" x="5191" y="7168" class="TextPosition"><tspan id="tspan5074" style="fill:#000;stroke:none">Variables</tspan></tspan></tspan></text></g></g><g id="g5076" class="com.sun.star.drawing.TextShape"><g id="id10"><text id="text5079" class="TextShape"><tspan id="tspan5081" class="TextParagraph" font-size="388" font-weight="400" style="font-size:388px;font-weight:400;font-family:'Arial, sans-serif'"><tspan id="tspan5083" x="9091" y="7169" class="TextPosition"><tspan id="tspan5085" style="fill:#000;stroke:none">Values</tspan></tspan></tspan></text></g></g><g id="g5087" class="com.sun.star.drawing.LineShape"><g id="id11"><path id="path5090" d="m 11100,4900 -51,0" style="fill:none;stroke:#000;stroke-width:50"/><path id="path5092" d="m 10998,4900 -51,0" style="fill:none;stroke:#000;stroke-width:50"/><path id="path5094" d="m 10896,4900 -51,0" style="fill:none;stroke:#000;stroke-width:50"/><path id="path5096" d="m 10794,4900 -51,0" style="fill:none;stroke:#000;stroke-width:50"/><path id="path5098" d="m 10692,4900 -51,0" style="fill:none;stroke:#000;stroke-width:50"/><path id="path5100" d="m 10590,4900 -51,0" style="fill:none;stroke:#000;stroke-width:50"/><path id="path5102" d="m 10488,4900 -51,0" style="fill:none;stroke:#000;stroke-width:50"/><path id="path5104" d="m 10386,4900 -51,0" style="fill:none;stroke:#000;stroke-width:50"/><path id="path5106" d="m 10284,4900 -51,0" style="fill:none;stroke:#000;stroke-width:50"/><path id="path5108" d="m 10182,4900 -51,0" style="fill:none;stroke:#000;stroke-width:50"/><path id="path5110" d="m 10080,4900 -51,0" style="fill:none;stroke:#000;stroke-width:50"/><path id="path5112" d="m 9978,4900 -51,0" style="fill:none;stroke:#000;stroke-width:50"/><path id="path5114" d="m 9876,4900 -51,0" style="fill:none;stroke:#000;stroke-width:50"/><path id="path5116" d="m 9774,4900 -51,0" style="fill:none;stroke:#000;stroke-width:50"/><path id="path5118" d="m 9672,4900 -51,0" style="fill:none;stroke:#000;stroke-width:50"/><path id="path5120" d="m 9570,4900 -51,0" style="fill:none;stroke:#000;stroke-width:50"/><path id="path5122" d="m 9468,4900 -51,0" style="fill:none;stroke:#000;stroke-width:50"/><path id="path5124" d="m 9366,4900 -51,0" style="fill:none;stroke:#000;stroke-width:50"/><path id="path5126" d="m 9264,4900 -51,0" style="fill:none;stroke:#000;stroke-width:50"/><path id="path5128" d="m 9162,4900 -51,0" style="fill:none;stroke:#000;stroke-width:50"/><path id="path5130" d="m 9060,4900 -51,0" style="fill:none;stroke:#000;stroke-width:50"/><path id="path5132" d="m 8958,4900 -51,0" style="fill:none;stroke:#000;stroke-width:50"/><path id="path5134" d="m 8856,4900 -51,0" style="fill:none;stroke:#000;stroke-width:50"/><path id="path5136" d="m 8754,4900 -51,0" style="fill:none;stroke:#000;stroke-width:50"/><path id="path5138" d="m 8652,4900 -51,0" style="fill:none;stroke:#000;stroke-width:50"/><path id="path5140" d="m 8550,4900 -51,0" style="fill:none;stroke:#000;stroke-width:50"/><path id="path5142" d="m 8448,4900 -51,0" style="fill:none;stroke:#000;stroke-width:50"/><path id="path5144" d="m 8346,4900 -51,0" style="fill:none;stroke:#000;stroke-width:50"/><path id="path5146" d="m 8244,4900 -51,0" style="fill:none;stroke:#000;stroke-width:50"/><path id="path5148" d="m 8142,4900 -51,0" style="fill:none;stroke:#000;stroke-width:50"/><path id="path5150" d="m 8040,4900 -51,0" style="fill:none;stroke:#000;stroke-width:50"/><path id="path5152" d="m 7938,4900 -51,0" style="fill:none;stroke:#000;stroke-width:50"/><path id="path5154" d="m 7836,4900 -51,0" style="fill:none;stroke:#000;stroke-width:50"/><path id="path5156" d="m 7734,4900 -51,0" style="fill:none;stroke:#000;stroke-width:50"/><path id="path5158" d="m 7632,4900 -51,0" style="fill:none;stroke:#000;stroke-width:50"/><path id="path5160" d="m 7530,4900 -51,0" style="fill:none;stroke:#000;stroke-width:50"/><path id="path5162" d="m 7428,4900 -51,0" style="fill:none;stroke:#000;stroke-width:50"/><path id="path5164" d="m 7326,4900 -51,0" style="fill:none;stroke:#000;stroke-width:50"/><path id="path5166" d="m 7224,4900 -51,0" style="fill:none;stroke:#000;stroke-width:50"/><path id="path5168" d="m 7122,4900 -51,0" style="fill:none;stroke:#000;stroke-width:50"/><path id="path5170" d="m 7020,4900 -51,0" style="fill:none;stroke:#000;stroke-width:50"/><path id="path5172" d="m 6918,4900 -51,0" style="fill:none;stroke:#000;stroke-width:50"/><path id="path5174" d="m 6816,4900 -51,0" style="fill:none;stroke:#000;stroke-width:50"/><path id="path5176" d="m 6714,4900 -51,0" style="fill:none;stroke:#000;stroke-width:50"/><path id="path5178" d="m 6612,4900 -51,0" style="fill:none;stroke:#000;stroke-width:50"/><path id="path5180" d="m 6510,4900 -51,0" style="fill:none;stroke:#000;stroke-width:50"/><path id="path5182" d="m 6408,4900 -51,0" style="fill:none;stroke:#000;stroke-width:50"/><path id="path5184" d="m 6306,4900 -51,0" style="fill:none;stroke:#000;stroke-width:50"/><path id="path5186" d="m 6204,4900 -51,0" style="fill:none;stroke:#000;stroke-width:50"/><path id="path5188" d="m 6102,4900 -51,0" style="fill:none;stroke:#000;stroke-width:50"/><path id="path5190" d="m 6000,4900 -51,0" style="fill:none;stroke:#000;stroke-width:50"/><path id="path5192" d="m 5898,4900 -51,0" style="fill:none;stroke:#000;stroke-width:50"/><path id="path5194" d="m 5796,4900 -51,0" style="fill:none;stroke:#000;stroke-width:50"/><path id="path5196" d="m 5694,4900 -51,0" style="fill:none;stroke:#000;stroke-width:50"/><path id="path5198" d="m 5592,4900 -51,0" style="fill:none;stroke:#000;stroke-width:50"/><path id="path5200" d="m 5490,4900 -51,0" style="fill:none;stroke:#000;stroke-width:50"/><path id="path5202" d="m 5388,4900 -51,0" style="fill:none;stroke:#000;stroke-width:50"/><path id="path5204" d="m 5286,4900 -51,0" style="fill:none;stroke:#000;stroke-width:50"/><path id="path5206" d="m 5184,4900 -51,0" style="fill:none;stroke:#000;stroke-width:50"/><path id="path5208" d="m 5082,4900 -51,0" style="fill:none;stroke:#000;stroke-width:50"/><path id="path5210" d="m 4980,4900 -51,0" style="fill:none;stroke:#000;stroke-width:50"/><path id="path5212" d="m 4878,4900 -51,0" style="fill:none;stroke:#000;stroke-width:50"/><path id="path5214" d="m 4776,4900 -51,0" style="fill:none;stroke:#000;stroke-width:50"/><path id="path5216" d="m 4674,4900 -51,0" style="fill:none;stroke:#000;stroke-width:50"/><path id="path5218" d="m 4572,4900 -51,0" style="fill:none;stroke:#000;stroke-width:50"/><path id="path5220" d="m 4470,4900 -51,0" style="fill:none;stroke:#000;stroke-width:50"/><path id="path5222" d="m 4368,4900 -51,0" style="fill:none;stroke:#000;stroke-width:50"/></g></g><g id="g5224" class="com.sun.star.drawing.CustomShape"><g id="id12"><path id="path5227" d="m 3959,3200 c -30,0 -61,58 -61,116 l 0,467 c 0,59 -30,117 -60,117 30,0 60,58 60,117 l 0,467 c 0,58 31,116 61,116" style="fill:none;stroke:#000;stroke-width:50"/><path id="path5229" d="m 3838,3200 0,0 z" style="fill:none;stroke:#000;stroke-width:50"/><path id="path5231" d="m 3960,4601 0,0 z" style="fill:none;stroke:#000;stroke-width:50"/></g></g><g id="g5233" class="com.sun.star.drawing.TextShape"><g id="id13"><path id="path5236" d="m 6029,4201 -683,0 0,-683 1366,0 0,683 -683,0 z" style="fill:silver;stroke:none"/><text id="text5238" class="TextShape"><tspan id="tspan5240" class="TextParagraph" font-size="388" font-weight="400" style="font-size:388px;font-weight:400;font-family:'Arial, sans-serif'"><tspan id="tspan5242" x="5596" y="3994" class="TextPosition"><tspan id="tspan5244" style="fill:#000;stroke:none">temp</tspan></tspan></tspan></text></g></g><g id="g5246" class="com.sun.star.drawing.LineShape"><g id="id14"><path id="path5249" d="M 7000,3900 8664,5231" style="fill:none;stroke:#000"/><path id="path5251" d="m 9000,5500 -258,-398 -187,234 445,164 z" style="fill:#000;stroke:none"/></g></g><g id="g5253" class="com.sun.star.drawing.TextShape"><g id="id15"><text id="text5256" class="TextShape"><tspan id="tspan5258" class="TextParagraph" font-size="388" font-style="italic" font-weight="400" style="font-size:388px;font-style:italic;font-weight:400;font-family:'Arial, sans-serif'"><tspan id="tspan5260" x="1291" y="1969" class="TextPosition"><tspan id="tspan5262" style="fill:#000;stroke:none">fahr_to_kelvin</tspan></tspan></tspan></text></g></g><g id="g5264" class="com.sun.star.drawing.LineShape"><g id="id16"><path id="path5267" d="m 11100,2900 -51,0" style="fill:none;stroke:#000;stroke-width:50"/><path id="path5269" d="m 10998,2900 -51,0" style="fill:none;stroke:#000;stroke-width:50"/><path id="path5271" d="m 10896,2900 -51,0" style="fill:none;stroke:#000;stroke-width:50"/><path id="path5273" d="m 10794,2900 -51,0" style="fill:none;stroke:#000;stroke-width:50"/><path id="path5275" d="m 10692,2900 -51,0" style="fill:none;stroke:#000;stroke-width:50"/><path id="path5277" d="m 10590,2900 -51,0" style="fill:none;stroke:#000;stroke-width:50"/><path id="path5279" d="m 10488,2900 -51,0" style="fill:none;stroke:#000;stroke-width:50"/><path id="path5281" d="m 10386,2900 -51,0" style="fill:none;stroke:#000;stroke-width:50"/><path id="path5283" d="m 10284,2900 -51,0" style="fill:none;stroke:#000;stroke-width:50"/><path id="path5285" d="m 10182,2900 -51,0" style="fill:none;stroke:#000;stroke-width:50"/><path id="path5287" d="m 10080,2900 -51,0" style="fill:none;stroke:#000;stroke-width:50"/><path id="path5289" d="m 9978,2900 -51,0" style="fill:none;stroke:#000;stroke-width:50"/><path id="path5291" d="m 9876,2900 -51,0" style="fill:none;stroke:#000;stroke-width:50"/><path id="path5293" d="m 9774,2900 -51,0" style="fill:none;stroke:#000;stroke-width:50"/><path id="path5295" d="m 9672,2900 -51,0" style="fill:none;stroke:#000;stroke-width:50"/><path id="path5297" d="m 9570,2900 -51,0" style="fill:none;stroke:#000;stroke-width:50"/><path id="path5299" d="m 9468,2900 -51,0" style="fill:none;stroke:#000;stroke-width:50"/><path id="path5301" d="m 9366,2900 -51,0" style="fill:none;stroke:#000;stroke-width:50"/><path id="path5303" d="m 9264,2900 -51,0" style="fill:none;stroke:#000;stroke-width:50"/><path id="path5305" d="m 9162,2900 -51,0" style="fill:none;stroke:#000;stroke-width:50"/><path id="path5307" d="m 9060,2900 -51,0" style="fill:none;stroke:#000;stroke-width:50"/><path id="path5309" d="m 8958,2900 -51,0" style="fill:none;stroke:#000;stroke-width:50"/><path id="path5311" d="m 8856,2900 -51,0" style="fill:none;stroke:#000;stroke-width:50"/><path id="path5313" d="m 8754,2900 -51,0" style="fill:none;stroke:#000;stroke-width:50"/><path id="path5315" d="m 8652,2900 -51,0" style="fill:none;stroke:#000;stroke-width:50"/><path id="path5317" d="m 8550,2900 -51,0" style="fill:none;stroke:#000;stroke-width:50"/><path id="path5319" d="m 8448,2900 -51,0" style="fill:none;stroke:#000;stroke-width:50"/><path id="path5321" d="m 8346,2900 -51,0" style="fill:none;stroke:#000;stroke-width:50"/><path id="path5323" d="m 8244,2900 -51,0" style="fill:none;stroke:#000;stroke-width:50"/><path id="path5325" d="m 8142,2900 -51,0" style="fill:none;stroke:#000;stroke-width:50"/><path id="path5327" d="m 8040,2900 -51,0" style="fill:none;stroke:#000;stroke-width:50"/><path id="path5329" d="m 7938,2900 -51,0" style="fill:none;stroke:#000;stroke-width:50"/><path id="path5331" d="m 7836,2900 -51,0" style="fill:none;stroke:#000;stroke-width:50"/><path id="path5333" d="m 7734,2900 -51,0" style="fill:none;stroke:#000;stroke-width:50"/><path id="path5335" d="m 7632,2900 -51,0" style="fill:none;stroke:#000;stroke-width:50"/><path id="path5337" d="m 7530,2900 -51,0" style="fill:none;stroke:#000;stroke-width:50"/><path id="path5339" d="m 7428,2900 -51,0" style="fill:none;stroke:#000;stroke-width:50"/><path id="path5341" d="m 7326,2900 -51,0" style="fill:none;stroke:#000;stroke-width:50"/><path id="path5343" d="m 7224,2900 -51,0" style="fill:none;stroke:#000;stroke-width:50"/><path id="path5345" d="m 7122,2900 -51,0" style="fill:none;stroke:#000;stroke-width:50"/><path id="path5347" d="m 7020,2900 -51,0" style="fill:none;stroke:#000;stroke-width:50"/><path id="path5349" d="m 6918,2900 -51,0" style="fill:none;stroke:#000;stroke-width:50"/><path id="path5351" d="m 6816,2900 -51,0" style="fill:none;stroke:#000;stroke-width:50"/><path id="path5353" d="m 6714,2900 -51,0" style="fill:none;stroke:#000;stroke-width:50"/><path id="path5355" d="m 6612,2900 -51,0" style="fill:none;stroke:#000;stroke-width:50"/><path id="path5357" d="m 6510,2900 -51,0" style="fill:none;stroke:#000;stroke-width:50"/><path id="path5359" d="m 6408,2900 -51,0" style="fill:none;stroke:#000;stroke-width:50"/><path id="path5361" d="m 6306,2900 -51,0" style="fill:none;stroke:#000;stroke-width:50"/><path id="path5363" d="m 6204,2900 -51,0" style="fill:none;stroke:#000;stroke-width:50"/><path id="path5365" d="m 6102,2900 -51,0" style="fill:none;stroke:#000;stroke-width:50"/><path id="path5367" d="m 6000,2900 -51,0" style="fill:none;stroke:#000;stroke-width:50"/><path id="path5369" d="m 5898,2900 -51,0" style="fill:none;stroke:#000;stroke-width:50"/><path id="path5371" d="m 5796,2900 -51,0" style="fill:none;stroke:#000;stroke-width:50"/><path id="path5373" d="m 5694,2900 -51,0" style="fill:none;stroke:#000;stroke-width:50"/><path id="path5375" d="m 5592,2900 -51,0" style="fill:none;stroke:#000;stroke-width:50"/><path id="path5377" d="m 5490,2900 -51,0" style="fill:none;stroke:#000;stroke-width:50"/><path id="path5379" d="m 5388,2900 -51,0" style="fill:none;stroke:#000;stroke-width:50"/><path id="path5381" d="m 5286,2900 -51,0" style="fill:none;stroke:#000;stroke-width:50"/><path id="path5383" d="m 5184,2900 -51,0" style="fill:none;stroke:#000;stroke-width:50"/><path id="path5385" d="m 5082,2900 -51,0" style="fill:none;stroke:#000;stroke-width:50"/><path id="path5387" d="m 4980,2900 -51,0" style="fill:none;stroke:#000;stroke-width:50"/><path id="path5389" d="m 4878,2900 -51,0" style="fill:none;stroke:#000;stroke-width:50"/><path id="path5391" d="m 4776,2900 -51,0" style="fill:none;stroke:#000;stroke-width:50"/><path id="path5393" d="m 4674,2900 -51,0" style="fill:none;stroke:#000;stroke-width:50"/><path id="path5395" d="m 4572,2900 -51,0" style="fill:none;stroke:#000;stroke-width:50"/><path id="path5397" d="m 4470,2900 -51,0" style="fill:none;stroke:#000;stroke-width:50"/><path id="path5399" d="m 4368,2900 -51,0" style="fill:none;stroke:#000;stroke-width:50"/></g></g><g id="g5401" class="com.sun.star.drawing.CustomShape"><g id="id17"><path id="path5404" d="m 3959,1200 c -30,0 -61,58 -61,116 l 0,467 c 0,59 -30,117 -60,117 30,0 60,58 60,117 l 0,467 c 0,58 31,116 61,116" style="fill:none;stroke:#000;stroke-width:50"/><path id="path5406" d="m 3838,1200 0,0 z" style="fill:none;stroke:#000;stroke-width:50"/><path id="path5408" d="m 3960,2601 0,0 z" style="fill:none;stroke:#000;stroke-width:50"/></g></g><g id="g5410" class="com.sun.star.drawing.TextShape"><g id="id18"><path id="path5413" d="m 6029,2201 -683,0 0,-683 1366,0 0,683 -683,0 z" style="fill:silver;stroke:none"/><text id="text5415" class="TextShape"><tspan id="tspan5417" class="TextParagraph" font-size="388" font-weight="400" style="font-size:388px;font-weight:400;font-family:'Arial, sans-serif'"><tspan id="tspan5419" x="5596" y="1994" class="TextPosition"><tspan id="tspan5421" style="fill:#000;stroke:none">temp</tspan></tspan></tspan></text></g></g><g id="g5423" class="com.sun.star.drawing.LineShape"><g id="id19"><path id="path5426" d="M 7000,1900 8772,4735" style="fill:none;stroke:#000"/><path id="path5428" d="m 9000,5100 -111,-461 -255,159 366,302 z" style="fill:#000;stroke:none"/></g></g></g></g></g></g></svg>