<svg xmlns="http://www.w3.org/2000/svg" xmlns:ooo="http://xml.openoffice.org/svg/export" xmlns:svg="http://www.w3.org/2000/svg" id="svg10540" width="338.421" height="267.555" clip-path="url(#presentation_clip_path)" style="fill-rule:evenodd;stroke-width:28.22200012;stroke-linejoin:round" preserveAspectRatio="xMidYMid" version="1.2" viewBox="0 0 9551 7551" xml:space="preserve"><metadata id="metadata10683"/><defs id="defs10542" class="ClipPathGroup"><clipPath id="presentation_clip_path" clipPathUnits="userSpaceOnUse"><rect id="rect10545" width="21590" height="27940" x="0" y="0"/></clipPath></defs><defs id="defs10551" class="EmbeddedBulletChars"><g id="bullet-char-template(57356)" transform="scale(4.8828125e-4,-4.8828125e-4)"><path id="path10554" d="M 580,1141 1163,571 580,0 -4,571 580,1141 z"/></g><g id="bullet-char-template(57354)" transform="scale(4.8828125e-4,-4.8828125e-4)"><path id="path10557" d="m 8,1128 1129,0 L 1137,0 8,0 8,1128 z"/></g><g id="bullet-char-template(10146)" transform="scale(4.8828125e-4,-4.8828125e-4)"><path id="path10560" d="M 174,0 602,739 174,1481 1456,739 174,0 z m 1184,739 -1049,607 350,-607 699,0 z"/></g><g id="bullet-char-template(10132)" transform="scale(4.8828125e-4,-4.8828125e-4)"><path id="path10563" d="M 2015,739 1276,0 717,0 l 543,543 -1086,0 0,393 1086,0 -543,545 557,0 741,-742 z"/></g><g id="bullet-char-template(10007)" transform="scale(4.8828125e-4,-4.8828125e-4)"><path id="path10566" d="m 0,-2 c -7,16 -16,29 -25,39 l 381,530 c -94,256 -141,385 -141,387 0,25 13,38 40,38 9,0 21,-2 34,-5 21,4 42,12 65,25 l 27,-13 111,-251 280,301 64,-25 24,25 c 21,-10 41,-24 62,-43 C 886,937 835,863 770,784 769,783 710,716 594,584 L 774,223 c 0,-27 -21,-55 -63,-84 l 16,-20 C 717,90 699,76 672,76 641,76 570,178 457,381 L 164,-76 c -22,-34 -53,-51 -92,-51 -42,0 -63,17 -64,51 -7,9 -10,24 -10,44 0,9 1,19 2,30 z"/></g><g id="bullet-char-template(10004)" transform="scale(4.8828125e-4,-4.8828125e-4)"><path id="path10569" d="M 285,-33 C 182,-33 111,30 74,156 52,228 41,333 41,471 c 0,78 14,145 41,201 34,71 87,106 158,106 53,0 88,-31 106,-94 l 23,-176 c 8,-64 28,-97 59,-98 l 735,706 c 11,11 33,17 66,17 42,0 63,-15 63,-46 l 0,-122 c 0,-36 -10,-64 -30,-84 L 442,47 C 390,-6 338,-33 285,-33 z"/></g><g id="bullet-char-template(9679)" transform="scale(4.8828125e-4,-4.8828125e-4)"><path id="path10572" d="M 813,0 C 632,0 489,54 383,161 276,268 223,411 223,592 c 0,181 53,324 160,431 106,107 249,161 430,161 179,0 323,-54 432,-161 108,-107 162,-251 162,-431 0,-180 -54,-324 -162,-431 C 1136,54 992,0 813,0 z"/></g><g id="bullet-char-template(8226)" transform="scale(4.8828125e-4,-4.8828125e-4)"><path id="path10575" d="m 346,457 c -73,0 -137,26 -191,78 -54,51 -81,114 -81,188 0,73 27,136 81,188 54,52 118,78 191,78 73,0 134,-26 185,-79 51,-51 77,-114 77,-187 0,-75 -25,-137 -76,-188 -50,-52 -112,-78 -186,-78 z"/></g><g id="bullet-char-template(8211)" transform="scale(4.8828125e-4,-4.8828125e-4)"><path id="path10578" d="m -4,459 1139,0 0,147 -1139,0 0,-147 z"/></g></defs><g id="g10587" class="SlideGroup" transform="translate(-1175,-1075)"><g id="g10589"><g id="id1" class="Slide" clip-path="url(#presentation_clip_path)"><g id="g10592" class="Page"><g id="g10594" class="com.sun.star.drawing.CustomShape"><g id="id3"><path id="path10597" d="m 4250,3250 1600,-850 1601,850 -1601,851 -1600,-851 0,0 z" style="fill:none;stroke:#000;stroke-width:50"/><text id="text10599" class="TextShape"><tspan id="tspan10601" class="TextParagraph" font-size="388" font-weight="400" style="font-size:388px;font-weight:400;font-family:'Arial, sans-serif'"><tspan id="tspan10603" x="4927" y="3385" class="TextPosition"><tspan id="tspan10605" style="fill:#000;stroke:none">num &gt; 100</tspan></tspan></tspan></text></g></g><g id="g10607" class="com.sun.star.drawing.LineShape"><g id="id4"><path id="path10610" d="m 5850,1100 0,763" style="fill:none;stroke:#000;stroke-width:50"/><path id="path10612" d="m 5850,2400 188,-562 -375,0 187,562 z" style="fill:#000;stroke:none"/></g></g><g id="g10614" class="com.sun.star.drawing.CustomShape"><g id="id5"><path id="path10617" d="m 1200,4300 2801,0 0,1201 -2801,0 0,-1201 0,0 z" style="fill:none;stroke:#000;stroke-width:50"/><text id="text10619" class="TextShape"><tspan id="tspan10621" class="TextParagraph" font-size="388" font-weight="400" style="font-size:388px;font-weight:400;font-family:'Arial, sans-serif'"><tspan id="tspan10623" x="1481" y="5035" class="TextPosition"><tspan id="tspan10625" style="fill:#000;stroke:none">print &apos;greater&apos;</tspan></tspan></tspan></text></g></g><g id="g10627" class="com.sun.star.drawing.CustomShape"><g id="id6"><path id="path10630" d="m 7500,4300 3201,0 0,1201 -3201,0 0,-1201 0,0 z" style="fill:none;stroke:#000;stroke-width:50"/><text id="text10632" class="TextShape"><tspan id="tspan10634" class="TextParagraph" font-size="388" font-weight="400" style="font-size:388px;font-weight:400;font-family:'Arial, sans-serif'"><tspan id="tspan10636" x="7656" y="5035" class="TextPosition"><tspan id="tspan10638" style="fill:#000;stroke:none">print &apos;not greater&apos;</tspan></tspan></tspan></text></g></g><g id="g10640" class="com.sun.star.drawing.CustomShape"><g id="id7"><path id="path10643" d="m 4500,7400 2801,0 0,1201 -2801,0 0,-1201 0,0 z" style="fill:none;stroke:#000;stroke-width:50"/><text id="text10645" class="TextShape"><tspan id="tspan10647" class="TextParagraph" font-size="388" font-weight="400" style="font-size:388px;font-weight:400;font-family:'Arial, sans-serif'"><tspan id="tspan10649" x="4963" y="8135" class="TextPosition"><tspan id="tspan10651" style="fill:#000;stroke:none">print &apos;done&apos;</tspan></tspan></tspan></text></g></g><g id="g10653" class="com.sun.star.drawing.ConnectorShape"><g id="id8"><path id="path10656" d="m 4250,3250 -1650,0 0,513" style="fill:none;stroke:#000;stroke-width:50"/><path id="path10658" d="m 2600,4300 188,-562 -375,0 187,562 z" style="fill:#000;stroke:none"/></g></g><g id="g10660" class="com.sun.star.drawing.ConnectorShape"><g id="id9"><path id="path10663" d="m 7450,3250 1650,0 0,513" style="fill:none;stroke:#000;stroke-width:50"/><path id="path10665" d="m 9100,4300 188,-562 -375,0 187,562 z" style="fill:#000;stroke:none"/></g></g><g id="g10667" class="com.sun.star.drawing.ConnectorShape"><g id="id10"><path id="path10670" d="m 2600,5500 0,750 3300,0 0,613" style="fill:none;stroke:#000;stroke-width:50"/><path id="path10672" d="m 5900,7400 188,-562 -375,0 187,562 z" style="fill:#000;stroke:none"/></g></g><g id="g10674" class="com.sun.star.drawing.ConnectorShape"><g id="id11"><path id="path10677" d="m 9100,5500 0,750 -3200,0 0,613" style="fill:none;stroke:#000;stroke-width:50"/><path id="path10679" d="m 5900,7400 188,-562 -375,0 187,562 z" style="fill:#000;stroke:none"/></g></g></g></g></g></g></svg>