<svg xmlns="http://www.w3.org/2000/svg" xmlns:ooo="http://xml.openoffice.org/svg/export" xmlns:svg="http://www.w3.org/2000/svg" id="svg11410" width="463.642" height="295.937" clip-path="url(#presentation_clip_path)" style="fill-rule:evenodd;stroke-width:28.22200012;stroke-linejoin:round" preserveAspectRatio="xMidYMid" version="1.2" viewBox="0 0 13085 8352" xml:space="preserve"><metadata id="metadata12098"/><defs id="defs11412" class="ClipPathGroup"><clipPath id="presentation_clip_path" clipPathUnits="userSpaceOnUse"><rect id="rect11415" width="21590" height="27940" x="0" y="0"/></clipPath></defs><defs id="defs11421" class="EmbeddedBulletChars"><g id="bullet-char-template(57356)" transform="scale(4.8828125e-4,-4.8828125e-4)"><path id="path11424" d="M 580,1141 1163,571 580,0 -4,571 580,1141 z"/></g><g id="bullet-char-template(57354)" transform="scale(4.8828125e-4,-4.8828125e-4)"><path id="path11427" d="m 8,1128 1129,0 L 1137,0 8,0 8,1128 z"/></g><g id="bullet-char-template(10146)" transform="scale(4.8828125e-4,-4.8828125e-4)"><path id="path11430" d="M 174,0 602,739 174,1481 1456,739 174,0 z m 1184,739 -1049,607 350,-607 699,0 z"/></g><g id="bullet-char-template(10132)" transform="scale(4.8828125e-4,-4.8828125e-4)"><path id="path11433" d="M 2015,739 1276,0 717,0 l 543,543 -1086,0 0,393 1086,0 -543,545 557,0 741,-742 z"/></g><g id="bullet-char-template(10007)" transform="scale(4.8828125e-4,-4.8828125e-4)"><path id="path11436" d="m 0,-2 c -7,16 -16,29 -25,39 l 381,530 c -94,256 -141,385 -141,387 0,25 13,38 40,38 9,0 21,-2 34,-5 21,4 42,12 65,25 l 27,-13 111,-251 280,301 64,-25 24,25 c 21,-10 41,-24 62,-43 C 886,937 835,863 770,784 769,783 710,716 594,584 L 774,223 c 0,-27 -21,-55 -63,-84 l 16,-20 C 717,90 699,76 672,76 641,76 570,178 457,381 L 164,-76 c -22,-34 -53,-51 -92,-51 -42,0 -63,17 -64,51 -7,9 -10,24 -10,44 0,9 1,19 2,30 z"/></g><g id="bullet-char-template(10004)" transform="scale(4.8828125e-4,-4.8828125e-4)"><path id="path11439" d="M 285,-33 C 182,-33 111,30 74,156 52,228 41,333 41,471 c 0,78 14,145 41,201 34,71 87,106 158,106 53,0 88,-31 106,-94 l 23,-176 c 8,-64 28,-97 59,-98 l 735,706 c 11,11 33,17 66,17 42,0 63,-15 63,-46 l 0,-122 c 0,-36 -10,-64 -30,-84 L 442,47 C 390,-6 338,-33 285,-33 z"/></g><g id="bullet-char-template(9679)" transform="scale(4.8828125e-4,-4.8828125e-4)"><path id="path11442" d="M 813,0 C 632,0 489,54 383,161 276,268 223,411 223,592 c 0,181 53,324 160,431 106,107 249,161 430,161 179,0 323,-54 432,-161 108,-107 162,-251 162,-431 0,-180 -54,-324 -162,-431 C 1136,54 992,0 813,0 z"/></g><g id="bullet-char-template(8226)" transform="scale(4.8828125e-4,-4.8828125e-4)"><path id="path11445" d="m 346,457 c -73,0 -137,26 -191,78 -54,51 -81,114 -81,188 0,73 27,136 81,188 54,52 118,78 191,78 73,0 134,-26 185,-79 51,-51 77,-114 77,-187 0,-75 -25,-137 -76,-188 -50,-52 -112,-78 -186,-78 z"/></g><g id="bullet-char-template(8211)" transform="scale(4.8828125e-4,-4.8828125e-4)"><path id="path11448" d="m -4,459 1139,0 0,147 -1139,0 0,-147 z"/></g></defs><g id="g11457" class="SlideGroup" transform="translate(-1241,-1148)"><g id="g11459"><g id="id1" class="Slide" clip-path="url(#presentation_clip_path)"><g id="g11462" class="Page"><g id="g11464" class="com.sun.star.drawing.ConnectorShape"><g id="id3"><path id="path11467" d="m 9400,5173 2350,0 0,363" style="fill:none;stroke:#000;stroke-width:50"/><path id="path11469" d="m 11750,6073 188,-562 -375,0 187,562 z" style="fill:#000;stroke:none"/></g></g><g id="g11471" class="com.sun.star.drawing.CustomShape"><g id="id4"><path id="path11474" d="m 2199,2473 1867,0 934,600 -934,601 -1867,0 -933,-601 933,-600 z" style="fill:none;stroke:#000;stroke-width:50"/><text id="text11476" class="TextShape"><tspan id="tspan11478" class="TextParagraph" font-size="388" font-weight="400" style="font-size:388px;font-weight:400;font-family:'Arial, sans-serif'"><tspan id="tspan11480" x="1656" y="3208" class="TextPosition"><tspan id="tspan11482" style="fill:#000;stroke:none">consonant </tspan><tspan id="tspan11484" style="fill:#000;stroke:none">ϵ</tspan><tspan id="tspan11486" style="fill:#000;stroke:none"> &apos;bcd&apos;</tspan></tspan></tspan></text></g></g><g id="g11488" class="com.sun.star.drawing.CustomShape"><g id="id5"><path id="path11491" d="m 6599,4573 1867,0 934,600 -934,601 -1867,0 -933,-601 933,-600 z" style="fill:none;stroke:#000;stroke-width:50"/><text id="text11493" class="TextShape"><tspan id="tspan11495" class="TextParagraph" font-size="388" font-weight="400" style="font-size:388px;font-weight:400;font-family:'Arial, sans-serif'"><tspan id="tspan11497" x="6552" y="5308" class="TextPosition"><tspan id="tspan11499" style="fill:#000;stroke:none">vowel </tspan><tspan id="tspan11501" style="fill:#000;stroke:none">ϵ</tspan><tspan id="tspan11503" style="fill:#000;stroke:none"> &apos;ae&apos;</tspan></tspan></tspan></text></g></g><g id="g11505" class="com.sun.star.drawing.CustomShape"><g id="id6"><path id="path11508" d="m 9500,6073 4501,0 0,1201 -4501,0 0,-1201 0,0 z" style="fill:none;stroke:#000;stroke-width:50"/><text id="text11510" class="TextShape"><tspan id="tspan11512" class="TextParagraph" font-size="388" font-weight="400" style="font-size:388px;font-weight:400;font-family:'Arial, sans-serif'"><tspan id="tspan11514" x="9707" y="6808" class="TextPosition"><tspan id="tspan11516" style="fill:#000;stroke:none">print consonant + vowel</tspan></tspan></tspan></text></g></g><g id="g11518" class="com.sun.star.drawing.CustomShape"><g id="id7"><path id="path11521" d="m 5500,3833 0,-34 51,0" style="fill:none;stroke:#000;stroke-width:50"/><path id="path11523" d="m 5602,3799 51,0" style="fill:none;stroke:#000;stroke-width:50"/><path id="path11525" d="m 5704,3799 51,0" style="fill:none;stroke:#000;stroke-width:50"/><path id="path11527" d="m 5806,3799 51,0" style="fill:none;stroke:#000;stroke-width:50"/><path id="path11529" d="m 5908,3799 51,0" style="fill:none;stroke:#000;stroke-width:50"/><path id="path11531" d="m 6010,3799 51,0" style="fill:none;stroke:#000;stroke-width:50"/><path id="path11533" d="m 6112,3799 51,0" style="fill:none;stroke:#000;stroke-width:50"/><path id="path11535" d="m 6214,3799 51,0" style="fill:none;stroke:#000;stroke-width:50"/><path id="path11537" d="m 6316,3799 51,0" style="fill:none;stroke:#000;stroke-width:50"/><path id="path11539" d="m 6418,3799 51,0" style="fill:none;stroke:#000;stroke-width:50"/><path id="path11541" d="m 6520,3799 51,0" style="fill:none;stroke:#000;stroke-width:50"/><path id="path11543" d="m 6622,3799 51,0" style="fill:none;stroke:#000;stroke-width:50"/><path id="path11545" d="m 6724,3799 51,0" style="fill:none;stroke:#000;stroke-width:50"/><path id="path11547" d="m 6826,3799 51,0" style="fill:none;stroke:#000;stroke-width:50"/><path id="path11549" d="m 6928,3799 51,0" style="fill:none;stroke:#000;stroke-width:50"/><path id="path11551" d="m 7030,3799 51,0" style="fill:none;stroke:#000;stroke-width:50"/><path id="path11553" d="m 7132,3799 51,0" style="fill:none;stroke:#000;stroke-width:50"/><path id="path11555" d="m 7234,3799 51,0" style="fill:none;stroke:#000;stroke-width:50"/><path id="path11557" d="m 7336,3799 51,0" style="fill:none;stroke:#000;stroke-width:50"/><path id="path11559" d="m 7438,3799 51,0" style="fill:none;stroke:#000;stroke-width:50"/><path id="path11561" d="m 7540,3799 51,0" style="fill:none;stroke:#000;stroke-width:50"/><path id="path11563" d="m 7642,3799 51,0" style="fill:none;stroke:#000;stroke-width:50"/><path id="path11565" d="m 7744,3799 51,0" style="fill:none;stroke:#000;stroke-width:50"/><path id="path11567" d="m 7846,3799 51,0" style="fill:none;stroke:#000;stroke-width:50"/><path id="path11569" d="m 7948,3799 51,0" style="fill:none;stroke:#000;stroke-width:50"/><path id="path11571" d="m 8050,3799 51,0" style="fill:none;stroke:#000;stroke-width:50"/><path id="path11573" d="m 8152,3799 51,0" style="fill:none;stroke:#000;stroke-width:50"/><path id="path11575" d="m 8254,3799 51,0" style="fill:none;stroke:#000;stroke-width:50"/><path id="path11577" d="m 8356,3799 51,0" style="fill:none;stroke:#000;stroke-width:50"/><path id="path11579" d="m 8458,3799 51,0" style="fill:none;stroke:#000;stroke-width:50"/><path id="path11581" d="m 8560,3799 51,0" style="fill:none;stroke:#000;stroke-width:50"/><path id="path11583" d="m 8662,3799 51,0" style="fill:none;stroke:#000;stroke-width:50"/><path id="path11585" d="m 8764,3799 51,0" style="fill:none;stroke:#000;stroke-width:50"/><path id="path11587" d="m 8866,3799 51,0" style="fill:none;stroke:#000;stroke-width:50"/><path id="path11589" d="m 8968,3799 51,0" style="fill:none;stroke:#000;stroke-width:50"/><path id="path11591" d="m 9070,3799 51,0" style="fill:none;stroke:#000;stroke-width:50"/><path id="path11593" d="m 9172,3799 51,0" style="fill:none;stroke:#000;stroke-width:50"/><path id="path11595" d="m 9274,3799 51,0" style="fill:none;stroke:#000;stroke-width:50"/><path id="path11597" d="m 9376,3799 51,0" style="fill:none;stroke:#000;stroke-width:50"/><path id="path11599" d="m 9478,3799 51,0" style="fill:none;stroke:#000;stroke-width:50"/><path id="path11601" d="m 9580,3799 51,0" style="fill:none;stroke:#000;stroke-width:50"/><path id="path11603" d="m 9682,3799 51,0" style="fill:none;stroke:#000;stroke-width:50"/><path id="path11605" d="m 9784,3799 51,0" style="fill:none;stroke:#000;stroke-width:50"/><path id="path11607" d="m 9886,3799 51,0" style="fill:none;stroke:#000;stroke-width:50"/><path id="path11609" d="m 9988,3799 51,0" style="fill:none;stroke:#000;stroke-width:50"/><path id="path11611" d="m 10090,3799 51,0" style="fill:none;stroke:#000;stroke-width:50"/><path id="path11613" d="m 10192,3799 51,0" style="fill:none;stroke:#000;stroke-width:50"/><path id="path11615" d="m 10294,3799 51,0" style="fill:none;stroke:#000;stroke-width:50"/><path id="path11617" d="m 10396,3799 51,0" style="fill:none;stroke:#000;stroke-width:50"/><path id="path11619" d="m 10498,3799 51,0" style="fill:none;stroke:#000;stroke-width:50"/><path id="path11621" d="m 10600,3799 51,0" style="fill:none;stroke:#000;stroke-width:50"/><path id="path11623" d="m 10702,3799 51,0" style="fill:none;stroke:#000;stroke-width:50"/><path id="path11625" d="m 10804,3799 51,0" style="fill:none;stroke:#000;stroke-width:50"/><path id="path11627" d="m 10906,3799 51,0" style="fill:none;stroke:#000;stroke-width:50"/><path id="path11629" d="m 11008,3799 51,0" style="fill:none;stroke:#000;stroke-width:50"/><path id="path11631" d="m 11110,3799 51,0" style="fill:none;stroke:#000;stroke-width:50"/><path id="path11633" d="m 11212,3799 51,0" style="fill:none;stroke:#000;stroke-width:50"/><path id="path11635" d="m 11314,3799 51,0" style="fill:none;stroke:#000;stroke-width:50"/><path id="path11637" d="m 11416,3799 51,0" style="fill:none;stroke:#000;stroke-width:50"/><path id="path11639" d="m 11518,3799 51,0" style="fill:none;stroke:#000;stroke-width:50"/><path id="path11641" d="m 11620,3799 51,0" style="fill:none;stroke:#000;stroke-width:50"/><path id="path11643" d="m 11722,3799 51,0" style="fill:none;stroke:#000;stroke-width:50"/><path id="path11645" d="m 11824,3799 51,0" style="fill:none;stroke:#000;stroke-width:50"/><path id="path11647" d="m 11926,3799 51,0" style="fill:none;stroke:#000;stroke-width:50"/><path id="path11649" d="m 12028,3799 51,0" style="fill:none;stroke:#000;stroke-width:50"/><path id="path11651" d="m 12130,3799 51,0" style="fill:none;stroke:#000;stroke-width:50"/><path id="path11653" d="m 12232,3799 51,0" style="fill:none;stroke:#000;stroke-width:50"/><path id="path11655" d="m 12334,3799 51,0" style="fill:none;stroke:#000;stroke-width:50"/><path id="path11657" d="m 12436,3799 51,0" style="fill:none;stroke:#000;stroke-width:50"/><path id="path11659" d="m 12538,3799 51,0" style="fill:none;stroke:#000;stroke-width:50"/><path id="path11661" d="m 12640,3799 51,0" style="fill:none;stroke:#000;stroke-width:50"/><path id="path11663" d="m 12742,3799 51,0" style="fill:none;stroke:#000;stroke-width:50"/><path id="path11665" d="m 12844,3799 51,0" style="fill:none;stroke:#000;stroke-width:50"/><path id="path11667" d="m 12946,3799 51,0" style="fill:none;stroke:#000;stroke-width:50"/><path id="path11669" d="m 13048,3799 51,0" style="fill:none;stroke:#000;stroke-width:50"/><path id="path11671" d="m 13150,3799 51,0" style="fill:none;stroke:#000;stroke-width:50"/><path id="path11673" d="m 13252,3799 51,0" style="fill:none;stroke:#000;stroke-width:50"/><path id="path11675" d="m 13354,3799 51,0" style="fill:none;stroke:#000;stroke-width:50"/><path id="path11677" d="m 13456,3799 51,0" style="fill:none;stroke:#000;stroke-width:50"/><path id="path11679" d="m 13558,3799 51,0" style="fill:none;stroke:#000;stroke-width:50"/><path id="path11681" d="m 13660,3799 51,0" style="fill:none;stroke:#000;stroke-width:50"/><path id="path11683" d="m 13762,3799 51,0" style="fill:none;stroke:#000;stroke-width:50"/><path id="path11685" d="m 13864,3799 51,0" style="fill:none;stroke:#000;stroke-width:50"/><path id="path11687" d="m 13966,3799 51,0" style="fill:none;stroke:#000;stroke-width:50"/><path id="path11689" d="m 14068,3799 51,0" style="fill:none;stroke:#000;stroke-width:50"/><path id="path11691" d="m 14170,3799 51,0" style="fill:none;stroke:#000;stroke-width:50"/><path id="path11693" d="m 14272,3799 29,0 0,22" style="fill:none;stroke:#000;stroke-width:50"/><path id="path11695" d="m 14301,3872 0,51" style="fill:none;stroke:#000;stroke-width:50"/><path id="path11697" d="m 14301,3974 0,51" style="fill:none;stroke:#000;stroke-width:50"/><path id="path11699" d="m 14301,4076 0,51" style="fill:none;stroke:#000;stroke-width:50"/><path id="path11701" d="m 14301,4178 0,51" style="fill:none;stroke:#000;stroke-width:50"/><path id="path11703" d="m 14301,4280 0,51" style="fill:none;stroke:#000;stroke-width:50"/><path id="path11705" d="m 14301,4382 0,51" style="fill:none;stroke:#000;stroke-width:50"/><path id="path11707" d="m 14301,4484 0,51" style="fill:none;stroke:#000;stroke-width:50"/><path id="path11709" d="m 14301,4586 0,51" style="fill:none;stroke:#000;stroke-width:50"/><path id="path11711" d="m 14301,4688 0,51" style="fill:none;stroke:#000;stroke-width:50"/><path id="path11713" d="m 14301,4790 0,51" style="fill:none;stroke:#000;stroke-width:50"/><path id="path11715" d="m 14301,4892 0,51" style="fill:none;stroke:#000;stroke-width:50"/><path id="path11717" d="m 14301,4994 0,51" style="fill:none;stroke:#000;stroke-width:50"/><path id="path11719" d="m 14301,5096 0,51" style="fill:none;stroke:#000;stroke-width:50"/><path id="path11721" d="m 14301,5198 0,51" style="fill:none;stroke:#000;stroke-width:50"/><path id="path11723" d="m 14301,5300 0,51" style="fill:none;stroke:#000;stroke-width:50"/><path id="path11725" d="m 14301,5402 0,51" style="fill:none;stroke:#000;stroke-width:50"/><path id="path11727" d="m 14301,5504 0,51" style="fill:none;stroke:#000;stroke-width:50"/><path id="path11729" d="m 14301,5606 0,51" style="fill:none;stroke:#000;stroke-width:50"/><path id="path11731" d="m 14301,5708 0,51" style="fill:none;stroke:#000;stroke-width:50"/><path id="path11733" d="m 14301,5810 0,51" style="fill:none;stroke:#000;stroke-width:50"/><path id="path11735" d="m 14301,5912 0,51" style="fill:none;stroke:#000;stroke-width:50"/><path id="path11737" d="m 14301,6014 0,51" style="fill:none;stroke:#000;stroke-width:50"/><path id="path11739" d="m 14301,6116 0,51" style="fill:none;stroke:#000;stroke-width:50"/><path id="path11741" d="m 14301,6218 0,51" style="fill:none;stroke:#000;stroke-width:50"/><path id="path11743" d="m 14301,6320 0,51" style="fill:none;stroke:#000;stroke-width:50"/><path id="path11745" d="m 14301,6422 0,51" style="fill:none;stroke:#000;stroke-width:50"/><path id="path11747" d="m 14301,6524 0,51" style="fill:none;stroke:#000;stroke-width:50"/><path id="path11749" d="m 14301,6626 0,51" style="fill:none;stroke:#000;stroke-width:50"/><path id="path11751" d="m 14301,6728 0,51" style="fill:none;stroke:#000;stroke-width:50"/><path id="path11753" d="m 14301,6830 0,51" style="fill:none;stroke:#000;stroke-width:50"/><path id="path11755" d="m 14301,6932 0,51" style="fill:none;stroke:#000;stroke-width:50"/><path id="path11757" d="m 14301,7034 0,51" style="fill:none;stroke:#000;stroke-width:50"/><path id="path11759" d="m 14301,7136 0,51" style="fill:none;stroke:#000;stroke-width:50"/><path id="path11761" d="m 14301,7238 0,51" style="fill:none;stroke:#000;stroke-width:50"/><path id="path11763" d="m 14301,7340 0,51" style="fill:none;stroke:#000;stroke-width:50"/><path id="path11765" d="m 14301,7442 0,51" style="fill:none;stroke:#000;stroke-width:50"/><path id="path11767" d="m 14301,7544 0,51" style="fill:none;stroke:#000;stroke-width:50"/><path id="path11769" d="m 14301,7646 0,51" style="fill:none;stroke:#000;stroke-width:50"/><path id="path11771" d="m 14301,7748 0,51" style="fill:none;stroke:#000;stroke-width:50"/><path id="path11773" d="m 14301,7850 0,51" style="fill:none;stroke:#000;stroke-width:50"/><path id="path11775" d="m 14301,7952 0,51" style="fill:none;stroke:#000;stroke-width:50"/><path id="path11777" d="m 14301,8054 0,51" style="fill:none;stroke:#000;stroke-width:50"/><path id="path11779" d="m 14301,8156 0,17 -34,0" style="fill:none;stroke:#000;stroke-width:50"/><path id="path11781" d="m 14216,8173 -51,0" style="fill:none;stroke:#000;stroke-width:50"/><path id="path11783" d="m 14114,8173 -51,0" style="fill:none;stroke:#000;stroke-width:50"/><path id="path11785" d="m 14012,8173 -51,0" style="fill:none;stroke:#000;stroke-width:50"/><path id="path11787" d="m 13910,8173 -51,0" style="fill:none;stroke:#000;stroke-width:50"/><path id="path11789" d="m 13808,8173 -51,0" style="fill:none;stroke:#000;stroke-width:50"/><path id="path11791" d="m 13706,8173 -51,0" style="fill:none;stroke:#000;stroke-width:50"/><path id="path11793" d="m 13604,8173 -51,0" style="fill:none;stroke:#000;stroke-width:50"/><path id="path11795" d="m 13502,8173 -51,0" style="fill:none;stroke:#000;stroke-width:50"/><path id="path11797" d="m 13400,8173 -51,0" style="fill:none;stroke:#000;stroke-width:50"/><path id="path11799" d="m 13298,8173 -51,0" style="fill:none;stroke:#000;stroke-width:50"/><path id="path11801" d="m 13196,8173 -51,0" style="fill:none;stroke:#000;stroke-width:50"/><path id="path11803" d="m 13094,8173 -51,0" style="fill:none;stroke:#000;stroke-width:50"/><path id="path11805" d="m 12992,8173 -51,0" style="fill:none;stroke:#000;stroke-width:50"/><path id="path11807" d="m 12890,8173 -51,0" style="fill:none;stroke:#000;stroke-width:50"/><path id="path11809" d="m 12788,8173 -51,0" style="fill:none;stroke:#000;stroke-width:50"/><path id="path11811" d="m 12686,8173 -51,0" style="fill:none;stroke:#000;stroke-width:50"/><path id="path11813" d="m 12584,8173 -51,0" style="fill:none;stroke:#000;stroke-width:50"/><path id="path11815" d="m 12482,8173 -51,0" style="fill:none;stroke:#000;stroke-width:50"/><path id="path11817" d="m 12380,8173 -51,0" style="fill:none;stroke:#000;stroke-width:50"/><path id="path11819" d="m 12278,8173 -51,0" style="fill:none;stroke:#000;stroke-width:50"/><path id="path11821" d="m 12176,8173 -51,0" style="fill:none;stroke:#000;stroke-width:50"/><path id="path11823" d="m 12074,8173 -51,0" style="fill:none;stroke:#000;stroke-width:50"/><path id="path11825" d="m 11972,8173 -51,0" style="fill:none;stroke:#000;stroke-width:50"/><path id="path11827" d="m 11870,8173 -51,0" style="fill:none;stroke:#000;stroke-width:50"/><path id="path11829" d="m 11768,8173 -51,0" style="fill:none;stroke:#000;stroke-width:50"/><path id="path11831" d="m 11666,8173 -51,0" style="fill:none;stroke:#000;stroke-width:50"/><path id="path11833" d="m 11564,8173 -51,0" style="fill:none;stroke:#000;stroke-width:50"/><path id="path11835" d="m 11462,8173 -51,0" style="fill:none;stroke:#000;stroke-width:50"/><path id="path11837" d="m 11360,8173 -51,0" style="fill:none;stroke:#000;stroke-width:50"/><path id="path11839" d="m 11258,8173 -51,0" style="fill:none;stroke:#000;stroke-width:50"/><path id="path11841" d="m 11156,8173 -51,0" style="fill:none;stroke:#000;stroke-width:50"/><path id="path11843" d="m 11054,8173 -51,0" style="fill:none;stroke:#000;stroke-width:50"/><path id="path11845" d="m 10952,8173 -51,0" style="fill:none;stroke:#000;stroke-width:50"/><path id="path11847" d="m 10850,8173 -51,0" style="fill:none;stroke:#000;stroke-width:50"/><path id="path11849" d="m 10748,8173 -51,0" style="fill:none;stroke:#000;stroke-width:50"/><path id="path11851" d="m 10646,8173 -51,0" style="fill:none;stroke:#000;stroke-width:50"/><path id="path11853" d="m 10544,8173 -51,0" style="fill:none;stroke:#000;stroke-width:50"/><path id="path11855" d="m 10442,8173 -51,0" style="fill:none;stroke:#000;stroke-width:50"/><path id="path11857" d="m 10340,8173 -51,0" style="fill:none;stroke:#000;stroke-width:50"/><path id="path11859" d="m 10238,8173 -51,0" style="fill:none;stroke:#000;stroke-width:50"/><path id="path11861" d="m 10136,8173 -51,0" style="fill:none;stroke:#000;stroke-width:50"/><path id="path11863" d="m 10034,8173 -51,0" style="fill:none;stroke:#000;stroke-width:50"/><path id="path11865" d="m 9932,8173 -51,0" style="fill:none;stroke:#000;stroke-width:50"/><path id="path11867" d="m 9830,8173 -51,0" style="fill:none;stroke:#000;stroke-width:50"/><path id="path11869" d="m 9728,8173 -51,0" style="fill:none;stroke:#000;stroke-width:50"/><path id="path11871" d="m 9626,8173 -51,0" style="fill:none;stroke:#000;stroke-width:50"/><path id="path11873" d="m 9524,8173 -51,0" style="fill:none;stroke:#000;stroke-width:50"/><path id="path11875" d="m 9422,8173 -51,0" style="fill:none;stroke:#000;stroke-width:50"/><path id="path11877" d="m 9320,8173 -51,0" style="fill:none;stroke:#000;stroke-width:50"/><path id="path11879" d="m 9218,8173 -51,0" style="fill:none;stroke:#000;stroke-width:50"/><path id="path11881" d="m 9116,8173 -51,0" style="fill:none;stroke:#000;stroke-width:50"/><path id="path11883" d="m 9014,8173 -51,0" style="fill:none;stroke:#000;stroke-width:50"/><path id="path11885" d="m 8912,8173 -51,0" style="fill:none;stroke:#000;stroke-width:50"/><path id="path11887" d="m 8810,8173 -51,0" style="fill:none;stroke:#000;stroke-width:50"/><path id="path11889" d="m 8708,8173 -51,0" style="fill:none;stroke:#000;stroke-width:50"/><path id="path11891" d="m 8606,8173 -51,0" style="fill:none;stroke:#000;stroke-width:50"/><path id="path11893" d="m 8504,8173 -51,0" style="fill:none;stroke:#000;stroke-width:50"/><path id="path11895" d="m 8402,8173 -51,0" style="fill:none;stroke:#000;stroke-width:50"/><path id="path11897" d="m 8300,8173 -51,0" style="fill:none;stroke:#000;stroke-width:50"/><path id="path11899" d="m 8198,8173 -51,0" style="fill:none;stroke:#000;stroke-width:50"/><path id="path11901" d="m 8096,8173 -51,0" style="fill:none;stroke:#000;stroke-width:50"/><path id="path11903" d="m 7994,8173 -51,0" style="fill:none;stroke:#000;stroke-width:50"/><path id="path11905" d="m 7892,8173 -51,0" style="fill:none;stroke:#000;stroke-width:50"/><path id="path11907" d="m 7790,8173 -51,0" style="fill:none;stroke:#000;stroke-width:50"/><path id="path11909" d="m 7688,8173 -51,0" style="fill:none;stroke:#000;stroke-width:50"/><path id="path11911" d="m 7586,8173 -51,0" style="fill:none;stroke:#000;stroke-width:50"/><path id="path11913" d="m 7484,8173 -51,0" style="fill:none;stroke:#000;stroke-width:50"/><path id="path11915" d="m 7382,8173 -51,0" style="fill:none;stroke:#000;stroke-width:50"/><path id="path11917" d="m 7280,8173 -51,0" style="fill:none;stroke:#000;stroke-width:50"/><path id="path11919" d="m 7178,8173 -51,0" style="fill:none;stroke:#000;stroke-width:50"/><path id="path11921" d="m 7076,8173 -51,0" style="fill:none;stroke:#000;stroke-width:50"/><path id="path11923" d="m 6974,8173 -51,0" style="fill:none;stroke:#000;stroke-width:50"/><path id="path11925" d="m 6872,8173 -51,0" style="fill:none;stroke:#000;stroke-width:50"/><path id="path11927" d="m 6770,8173 -51,0" style="fill:none;stroke:#000;stroke-width:50"/><path id="path11929" d="m 6668,8173 -51,0" style="fill:none;stroke:#000;stroke-width:50"/><path id="path11931" d="m 6566,8173 -51,0" style="fill:none;stroke:#000;stroke-width:50"/><path id="path11933" d="m 6464,8173 -51,0" style="fill:none;stroke:#000;stroke-width:50"/><path id="path11935" d="m 6362,8173 -51,0" style="fill:none;stroke:#000;stroke-width:50"/><path id="path11937" d="m 6260,8173 -51,0" style="fill:none;stroke:#000;stroke-width:50"/><path id="path11939" d="m 6158,8173 -51,0" style="fill:none;stroke:#000;stroke-width:50"/><path id="path11941" d="m 6056,8173 -51,0" style="fill:none;stroke:#000;stroke-width:50"/><path id="path11943" d="m 5954,8173 -51,0" style="fill:none;stroke:#000;stroke-width:50"/><path id="path11945" d="m 5852,8173 -51,0" style="fill:none;stroke:#000;stroke-width:50"/><path id="path11947" d="m 5750,8173 -51,0" style="fill:none;stroke:#000;stroke-width:50"/><path id="path11949" d="m 5648,8173 -51,0" style="fill:none;stroke:#000;stroke-width:50"/><path id="path11951" d="m 5546,8173 -46,0 0,-5" style="fill:none;stroke:#000;stroke-width:50"/><path id="path11953" d="m 5500,8117 0,-51" style="fill:none;stroke:#000;stroke-width:50"/><path id="path11955" d="m 5500,8015 0,-51" style="fill:none;stroke:#000;stroke-width:50"/><path id="path11957" d="m 5500,7913 0,-51" style="fill:none;stroke:#000;stroke-width:50"/><path id="path11959" d="m 5500,7811 0,-51" style="fill:none;stroke:#000;stroke-width:50"/><path id="path11961" d="m 5500,7709 0,-51" style="fill:none;stroke:#000;stroke-width:50"/><path id="path11963" d="m 5500,7607 0,-51" style="fill:none;stroke:#000;stroke-width:50"/><path id="path11965" d="m 5500,7505 0,-51" style="fill:none;stroke:#000;stroke-width:50"/><path id="path11967" d="m 5500,7403 0,-51" style="fill:none;stroke:#000;stroke-width:50"/><path id="path11969" d="m 5500,7301 0,-51" style="fill:none;stroke:#000;stroke-width:50"/><path id="path11971" d="m 5500,7199 0,-51" style="fill:none;stroke:#000;stroke-width:50"/><path id="path11973" d="m 5500,7097 0,-51" style="fill:none;stroke:#000;stroke-width:50"/><path id="path11975" d="m 5500,6995 0,-51" style="fill:none;stroke:#000;stroke-width:50"/><path id="path11977" d="m 5500,6893 0,-51" style="fill:none;stroke:#000;stroke-width:50"/><path id="path11979" d="m 5500,6791 0,-51" style="fill:none;stroke:#000;stroke-width:50"/><path id="path11981" d="m 5500,6689 0,-51" style="fill:none;stroke:#000;stroke-width:50"/><path id="path11983" d="m 5500,6587 0,-51" style="fill:none;stroke:#000;stroke-width:50"/><path id="path11985" d="m 5500,6485 0,-51" style="fill:none;stroke:#000;stroke-width:50"/><path id="path11987" d="m 5500,6383 0,-51" style="fill:none;stroke:#000;stroke-width:50"/><path id="path11989" d="m 5500,6281 0,-51" style="fill:none;stroke:#000;stroke-width:50"/><path id="path11991" d="m 5500,6179 0,-51" style="fill:none;stroke:#000;stroke-width:50"/><path id="path11993" d="m 5500,6077 0,-51" style="fill:none;stroke:#000;stroke-width:50"/><path id="path11995" d="m 5500,5975 0,-51" style="fill:none;stroke:#000;stroke-width:50"/><path id="path11997" d="m 5500,5873 0,-51" style="fill:none;stroke:#000;stroke-width:50"/><path id="path11999" d="m 5500,5771 0,-51" style="fill:none;stroke:#000;stroke-width:50"/><path id="path12001" d="m 5500,5669 0,-51" style="fill:none;stroke:#000;stroke-width:50"/><path id="path12003" d="m 5500,5567 0,-51" style="fill:none;stroke:#000;stroke-width:50"/><path id="path12005" d="m 5500,5465 0,-51" style="fill:none;stroke:#000;stroke-width:50"/><path id="path12007" d="m 5500,5363 0,-51" style="fill:none;stroke:#000;stroke-width:50"/><path id="path12009" d="m 5500,5261 0,-51" style="fill:none;stroke:#000;stroke-width:50"/><path id="path12011" d="m 5500,5159 0,-51" style="fill:none;stroke:#000;stroke-width:50"/><path id="path12013" d="m 5500,5057 0,-51" style="fill:none;stroke:#000;stroke-width:50"/><path id="path12015" d="m 5500,4955 0,-51" style="fill:none;stroke:#000;stroke-width:50"/><path id="path12017" d="m 5500,4853 0,-51" style="fill:none;stroke:#000;stroke-width:50"/><path id="path12019" d="m 5500,4751 0,-51" style="fill:none;stroke:#000;stroke-width:50"/><path id="path12021" d="m 5500,4649 0,-51" style="fill:none;stroke:#000;stroke-width:50"/><path id="path12023" d="m 5500,4547 0,-51" style="fill:none;stroke:#000;stroke-width:50"/><path id="path12025" d="m 5500,4445 0,-51" style="fill:none;stroke:#000;stroke-width:50"/><path id="path12027" d="m 5500,4343 0,-51" style="fill:none;stroke:#000;stroke-width:50"/><path id="path12029" d="m 5500,4241 0,-51" style="fill:none;stroke:#000;stroke-width:50"/><path id="path12031" d="m 5500,4139 0,-51" style="fill:none;stroke:#000;stroke-width:50"/><path id="path12033" d="m 5500,4037 0,-51" style="fill:none;stroke:#000;stroke-width:50"/><path id="path12035" d="m 5500,3935 0,-51" style="fill:none;stroke:#000;stroke-width:50"/></g></g><g id="g12037" class="com.sun.star.drawing.ConnectorShape"><g id="id8"><path id="path12040" d="m 5000,3073 2534,0 0,963" style="fill:none;stroke:#000;stroke-width:50"/><path id="path12042" d="m 7534,4573 188,-562 -375,0 187,562 z" style="fill:#000;stroke:none"/></g></g><g id="g12044" class="com.sun.star.drawing.LineShape"><g id="id9"><path id="path12047" d="m 2700,1173 0,763" style="fill:none;stroke:#000;stroke-width:50"/><path id="path12049" d="m 2700,2473 188,-562 -375,0 187,562 z" style="fill:#000;stroke:none"/></g></g><g id="g12051" class="com.sun.star.drawing.LineShape"><g id="id10"><path id="path12054" d="m 2700,3673 0,5290" style="fill:none;stroke:#000;stroke-width:50"/><path id="path12056" d="m 2700,9500 188,-562 -375,0 187,562 z" style="fill:#000;stroke:none"/></g></g><g id="g12058" class="Group"><g id="g12060" class="com.sun.star.drawing.LineShape"><g id="id11"><path id="path12063" d="m 8100,7900 0,-1562" style="fill:none;stroke:#000;stroke-width:50"/><path id="path12065" d="m 8100,5800 -187,563 375,0 -188,-563 z" style="fill:#000;stroke:none"/></g></g><g id="g12067" class="com.sun.star.drawing.LineShape"><g id="id12"><path id="path12070" d="m 8100,7900 3700,0" style="fill:none;stroke:#000;stroke-width:50"/></g></g><g id="g12072" class="com.sun.star.drawing.LineShape"><g id="id13"><path id="path12075" d="m 11800,7300 0,600" style="fill:none;stroke:#000;stroke-width:50"/></g></g></g><g id="g12077" class="Group"><g id="g12079" class="com.sun.star.drawing.LineShape"><g id="id14"><path id="path12082" d="m 3500,6400 0,-2162" style="fill:none;stroke:#000;stroke-width:50"/><path id="path12084" d="m 3500,3700 -187,563 375,0 -188,-563 z" style="fill:#000;stroke:none"/></g></g><g id="g12086" class="com.sun.star.drawing.LineShape"><g id="id15"><path id="path12089" d="m 3500,6400 3700,0" style="fill:none;stroke:#000;stroke-width:50"/></g></g><g id="g12091" class="com.sun.star.drawing.LineShape"><g id="id16"><path id="path12094" d="m 7200,5800 0,600" style="fill:none;stroke:#000;stroke-width:50"/></g></g></g></g></g></g></g></svg>