<svg xmlns="http://www.w3.org/2000/svg" xmlns:ooo="http://xml.openoffice.org/svg/export" xmlns:svg="http://www.w3.org/2000/svg" id="svg2" width="342.379" height="154.169" clip-path="url(#presentation_clip_path)" style="fill-rule:evenodd;stroke-width:28.22200012;stroke-linejoin:round" preserveAspectRatio="xMidYMid" version="1.2" viewBox="0 0 9662.686 4351" xml:space="preserve"><metadata id="metadata574"/><defs id="defs4" class="ClipPathGroup"><clipPath id="presentation_clip_path" clipPathUnits="userSpaceOnUse"><rect id="rect7" width="21590" height="27940" x="0" y="0"/></clipPath></defs><defs id="defs13" class="EmbeddedBulletChars"><g id="bullet-char-template(57356)" transform="scale(4.8828125e-4,-4.8828125e-4)"><path id="path16" d="M 580,1141 1163,571 580,0 -4,571 580,1141 z"/></g><g id="bullet-char-template(57354)" transform="scale(4.8828125e-4,-4.8828125e-4)"><path id="path19" d="m 8,1128 1129,0 L 1137,0 8,0 8,1128 z"/></g><g id="bullet-char-template(10146)" transform="scale(4.8828125e-4,-4.8828125e-4)"><path id="path22" d="M 174,0 602,739 174,1481 1456,739 174,0 z m 1184,739 -1049,607 350,-607 699,0 z"/></g><g id="bullet-char-template(10132)" transform="scale(4.8828125e-4,-4.8828125e-4)"><path id="path25" d="M 2015,739 1276,0 717,0 l 543,543 -1086,0 0,393 1086,0 -543,545 557,0 741,-742 z"/></g><g id="bullet-char-template(10007)" transform="scale(4.8828125e-4,-4.8828125e-4)"><path id="path28" d="m 0,-2 c -7,16 -16,29 -25,39 l 381,530 c -94,256 -141,385 -141,387 0,25 13,38 40,38 9,0 21,-2 34,-5 21,4 42,12 65,25 l 27,-13 111,-251 280,301 64,-25 24,25 c 21,-10 41,-24 62,-43 C 886,937 835,863 770,784 769,783 710,716 594,584 L 774,223 c 0,-27 -21,-55 -63,-84 l 16,-20 C 717,90 699,76 672,76 641,76 570,178 457,381 L 164,-76 c -22,-34 -53,-51 -92,-51 -42,0 -63,17 -64,51 -7,9 -10,24 -10,44 0,9 1,19 2,30 z"/></g><g id="bullet-char-template(10004)" transform="scale(4.8828125e-4,-4.8828125e-4)"><path id="path31" d="M 285,-33 C 182,-33 111,30 74,156 52,228 41,333 41,471 c 0,78 14,145 41,201 34,71 87,106 158,106 53,0 88,-31 106,-94 l 23,-176 c 8,-64 28,-97 59,-98 l 735,706 c 11,11 33,17 66,17 42,0 63,-15 63,-46 l 0,-122 c 0,-36 -10,-64 -30,-84 L 442,47 C 390,-6 338,-33 285,-33 z"/></g><g id="bullet-char-template(9679)" transform="scale(4.8828125e-4,-4.8828125e-4)"><path id="path34" d="M 813,0 C 632,0 489,54 383,161 276,268 223,411 223,592 c 0,181 53,324 160,431 106,107 249,161 430,161 179,0 323,-54 432,-161 108,-107 162,-251 162,-431 0,-180 -54,-324 -162,-431 C 1136,54 992,0 813,0 z"/></g><g id="bullet-char-template(8226)" transform="scale(4.8828125e-4,-4.8828125e-4)"><path id="path37" d="m 346,457 c -73,0 -137,26 -191,78 -54,51 -81,114 -81,188 0,73 27,136 81,188 54,52 118,78 191,78 73,0 134,-26 185,-79 51,-51 77,-114 77,-187 0,-75 -25,-137 -76,-188 -50,-52 -112,-78 -186,-78 z"/></g><g id="bullet-char-template(8211)" transform="scale(4.8828125e-4,-4.8828125e-4)"><path id="path40" d="m -4,459 1139,0 0,147 -1139,0 0,-147 z"/></g></defs><g id="g49" class="SlideGroup" transform="translate(-1162.3145,-1375)"><g id="g51"><g id="id1" class="Slide" clip-path="url(#presentation_clip_path)"><g id="g54" class="Page"><g id="g56" class="com.sun.star.drawing.TextShape"><g id="id3"><text id="text59" class="TextShape"><tspan id="tspan61" class="TextParagraph" font-size="388" font-weight="400" style="font-size:388px;font-weight:400;font-family:'Arial, sans-serif'"><tspan id="tspan63" x="1150" y="1976" class="TextPosition"><tspan id="tspan65" style="fill:#000;stroke:none">-3.0</tspan></tspan></tspan></text></g></g><g id="g67" class="com.sun.star.drawing.LineShape"><g id="id4"><path id="path70" d="m 2000,2000 8000,0" style="fill:none;stroke:#000;stroke-width:50"/></g></g><g id="g72" class="com.sun.star.drawing.LineShape"><g id="id5"><path id="path75" d="m 2000,1700 0,300" style="fill:none;stroke:#000;stroke-width:50"/></g></g><g id="g77" class="com.sun.star.drawing.LineShape"><g id="id6"><path id="path80" d="m 10000,1700 0,300" style="fill:none;stroke:#000;stroke-width:50"/></g></g><g id="g82" class="com.sun.star.drawing.TextShape"><g id="id7"><text id="text85" class="TextShape"><tspan id="tspan87" class="TextParagraph" font-size="388" font-weight="400" style="font-size:388px;font-weight:400;font-family:'Arial, sans-serif'"><tspan id="tspan89" x="10251" y="1977" class="TextPosition"><tspan id="tspan91" style="fill:#000;stroke:none">5.0</tspan></tspan></tspan></text></g></g><g id="g93" class="com.sun.star.drawing.TextShape"><g id="id8"><text id="text96" class="TextShape"><tspan id="tspan98" class="TextParagraph" font-size="388" font-weight="400" style="font-size:388px;font-weight:400;font-family:'Arial, sans-serif'"><tspan id="tspan100" x="4250" y="2976" class="TextPosition"><tspan id="tspan102" style="fill:#000;stroke:none">0.0</tspan></tspan></tspan></text></g></g><g id="g104" class="com.sun.star.drawing.LineShape"><g id="id9"><path id="path107" d="m 5000,3000 4500,0" style="fill:none;stroke:#000;stroke-width:50"/></g></g><g id="g109" class="com.sun.star.drawing.LineShape"><g id="id10"><path id="path112" d="m 5000,2700 0,300" style="fill:none;stroke:#000;stroke-width:50"/></g></g><g id="g114" class="com.sun.star.drawing.LineShape"><g id="id11"><path id="path117" d="m 9500,2700 0,300" style="fill:none;stroke:#000;stroke-width:50"/></g></g><g id="g119" class="com.sun.star.drawing.TextShape"><g id="id12"><text id="text122" class="TextShape"><tspan id="tspan124" class="TextParagraph" font-size="388" font-weight="400" style="font-size:388px;font-weight:400;font-family:'Arial, sans-serif'"><tspan id="tspan126" x="9751" y="2977" class="TextPosition"><tspan id="tspan128" style="fill:#000;stroke:none">4.5</tspan></tspan></tspan></text></g></g><g id="g130" class="com.sun.star.drawing.TextShape"><g id="id13"><text id="text133" class="TextShape"><tspan id="tspan135" class="TextParagraph" font-size="388" font-weight="400" style="font-size:388px;font-weight:400;font-family:'Arial, sans-serif'"><tspan id="tspan137" x="2609" y="3976" class="TextPosition"><tspan id="tspan139" style="fill:#000;stroke:none">-1.5</tspan></tspan></tspan></text></g></g><g id="g141" class="com.sun.star.drawing.LineShape"><g id="id14"><path id="path144" d="m 3500,4000 3500,0" style="fill:none;stroke:#000;stroke-width:50"/></g></g><g id="g146" class="com.sun.star.drawing.LineShape"><g id="id15"><path id="path149" d="m 3500,3700 0,300" style="fill:none;stroke:#000;stroke-width:50"/></g></g><g id="g151" class="com.sun.star.drawing.LineShape"><g id="id16"><path id="path154" d="m 7000,3700 0,300" style="fill:none;stroke:#000;stroke-width:50"/></g></g><g id="g156" class="com.sun.star.drawing.TextShape"><g id="id17"><text id="text159" class="TextShape"><tspan id="tspan161" class="TextParagraph" font-size="388" font-weight="400" style="font-size:388px;font-weight:400;font-family:'Arial, sans-serif'"><tspan id="tspan163" x="7210" y="3977" class="TextPosition"><tspan id="tspan165" style="fill:#000;stroke:none">2.0</tspan></tspan></tspan></text></g></g><g id="g167" class="com.sun.star.drawing.LineShape"><g id="id18"><path id="path170" d="m 5000,1400 0,51" style="fill:none;stroke:silver;stroke-width:50"/><path id="path172" d="m 5000,1502 0,51" style="fill:none;stroke:silver;stroke-width:50"/><path id="path174" d="m 5000,1604 0,51" style="fill:none;stroke:silver;stroke-width:50"/><path id="path176" d="m 5000,1706 0,51" style="fill:none;stroke:silver;stroke-width:50"/><path id="path178" d="m 5000,1808 0,51" style="fill:none;stroke:silver;stroke-width:50"/><path id="path180" d="m 5000,1910 0,51" style="fill:none;stroke:silver;stroke-width:50"/><path id="path182" d="m 5000,2012 0,51" style="fill:none;stroke:silver;stroke-width:50"/><path id="path184" d="m 5000,2114 0,51" style="fill:none;stroke:silver;stroke-width:50"/><path id="path186" d="m 5000,2216 0,51" style="fill:none;stroke:silver;stroke-width:50"/><path id="path188" d="m 5000,2318 0,51" style="fill:none;stroke:silver;stroke-width:50"/><path id="path190" d="m 5000,2420 0,51" style="fill:none;stroke:silver;stroke-width:50"/><path id="path192" d="m 5000,2522 0,51" style="fill:none;stroke:silver;stroke-width:50"/><path id="path194" d="m 5000,2624 0,51" style="fill:none;stroke:silver;stroke-width:50"/><path id="path196" d="m 5000,2726 0,51" style="fill:none;stroke:silver;stroke-width:50"/><path id="path198" d="m 5000,2828 0,51" style="fill:none;stroke:silver;stroke-width:50"/><path id="path200" d="m 5000,2930 0,51" style="fill:none;stroke:silver;stroke-width:50"/><path id="path202" d="m 5000,3032 0,51" style="fill:none;stroke:silver;stroke-width:50"/><path id="path204" d="m 5000,3134 0,51" style="fill:none;stroke:silver;stroke-width:50"/><path id="path206" d="m 5000,3236 0,51" style="fill:none;stroke:silver;stroke-width:50"/><path id="path208" d="m 5000,3338 0,51" style="fill:none;stroke:silver;stroke-width:50"/><path id="path210" d="m 5000,3440 0,51" style="fill:none;stroke:silver;stroke-width:50"/><path id="path212" d="m 5000,3542 0,51" style="fill:none;stroke:silver;stroke-width:50"/><path id="path214" d="m 5000,3644 0,51" style="fill:none;stroke:silver;stroke-width:50"/><path id="path216" d="m 5000,3746 0,51" style="fill:none;stroke:silver;stroke-width:50"/><path id="path218" d="m 5000,3848 0,51" style="fill:none;stroke:silver;stroke-width:50"/><path id="path220" d="m 5000,3950 0,51" style="fill:none;stroke:silver;stroke-width:50"/><path id="path222" d="m 5000,4052 0,51" style="fill:none;stroke:silver;stroke-width:50"/><path id="path224" d="m 5000,4154 0,51" style="fill:none;stroke:silver;stroke-width:50"/><path id="path226" d="m 5000,4256 0,51" style="fill:none;stroke:silver;stroke-width:50"/><path id="path228" d="m 5000,4358 0,51" style="fill:none;stroke:silver;stroke-width:50"/><path id="path230" d="m 5000,4460 0,51" style="fill:none;stroke:silver;stroke-width:50"/><path id="path232" d="m 5000,4562 0,51" style="fill:none;stroke:silver;stroke-width:50"/><path id="path234" d="m 5000,4664 0,51" style="fill:none;stroke:silver;stroke-width:50"/><path id="path236" d="m 5000,4766 0,51" style="fill:none;stroke:silver;stroke-width:50"/><path id="path238" d="m 5000,4868 0,51" style="fill:none;stroke:silver;stroke-width:50"/><path id="path240" d="m 5000,4970 0,51" style="fill:none;stroke:silver;stroke-width:50"/><path id="path242" d="m 5000,5072 0,51" style="fill:none;stroke:silver;stroke-width:50"/><path id="path244" d="m 5000,5174 0,51" style="fill:none;stroke:silver;stroke-width:50"/><path id="path246" d="m 5000,5276 0,51" style="fill:none;stroke:silver;stroke-width:50"/><path id="path248" d="m 5000,5378 0,51" style="fill:none;stroke:silver;stroke-width:50"/><path id="path250" d="m 5000,5480 0,51" style="fill:none;stroke:silver;stroke-width:50"/><path id="path252" d="m 5000,5582 0,51" style="fill:none;stroke:silver;stroke-width:50"/><path id="path254" d="m 5000,5684 0,16" style="fill:none;stroke:silver;stroke-width:50"/></g></g><g id="g256" class="com.sun.star.drawing.LineShape"><g id="id19"><path id="path259" d="m 7000,1400 0,51" style="fill:none;stroke:silver;stroke-width:50"/><path id="path261" d="m 7000,1502 0,51" style="fill:none;stroke:silver;stroke-width:50"/><path id="path263" d="m 7000,1604 0,51" style="fill:none;stroke:silver;stroke-width:50"/><path id="path265" d="m 7000,1706 0,51" style="fill:none;stroke:silver;stroke-width:50"/><path id="path267" d="m 7000,1808 0,51" style="fill:none;stroke:silver;stroke-width:50"/><path id="path269" d="m 7000,1910 0,51" style="fill:none;stroke:silver;stroke-width:50"/><path id="path271" d="m 7000,2012 0,51" style="fill:none;stroke:silver;stroke-width:50"/><path id="path273" d="m 7000,2114 0,51" style="fill:none;stroke:silver;stroke-width:50"/><path id="path275" d="m 7000,2216 0,51" style="fill:none;stroke:silver;stroke-width:50"/><path id="path277" d="m 7000,2318 0,51" style="fill:none;stroke:silver;stroke-width:50"/><path id="path279" d="m 7000,2420 0,51" style="fill:none;stroke:silver;stroke-width:50"/><path id="path281" d="m 7000,2522 0,51" style="fill:none;stroke:silver;stroke-width:50"/><path id="path283" d="m 7000,2624 0,51" style="fill:none;stroke:silver;stroke-width:50"/><path id="path285" d="m 7000,2726 0,51" style="fill:none;stroke:silver;stroke-width:50"/><path id="path287" d="m 7000,2828 0,51" style="fill:none;stroke:silver;stroke-width:50"/><path id="path289" d="m 7000,2930 0,51" style="fill:none;stroke:silver;stroke-width:50"/><path id="path291" d="m 7000,3032 0,51" style="fill:none;stroke:silver;stroke-width:50"/><path id="path293" d="m 7000,3134 0,51" style="fill:none;stroke:silver;stroke-width:50"/><path id="path295" d="m 7000,3236 0,51" style="fill:none;stroke:silver;stroke-width:50"/><path id="path297" d="m 7000,3338 0,51" style="fill:none;stroke:silver;stroke-width:50"/><path id="path299" d="m 7000,3440 0,51" style="fill:none;stroke:silver;stroke-width:50"/><path id="path301" d="m 7000,3542 0,51" style="fill:none;stroke:silver;stroke-width:50"/><path id="path303" d="m 7000,3644 0,51" style="fill:none;stroke:silver;stroke-width:50"/><path id="path305" d="m 7000,3746 0,51" style="fill:none;stroke:silver;stroke-width:50"/><path id="path307" d="m 7000,3848 0,51" style="fill:none;stroke:silver;stroke-width:50"/><path id="path309" d="m 7000,3950 0,51" style="fill:none;stroke:silver;stroke-width:50"/><path id="path311" d="m 7000,4052 0,51" style="fill:none;stroke:silver;stroke-width:50"/><path id="path313" d="m 7000,4154 0,51" style="fill:none;stroke:silver;stroke-width:50"/><path id="path315" d="m 7000,4256 0,51" style="fill:none;stroke:silver;stroke-width:50"/><path id="path317" d="m 7000,4358 0,51" style="fill:none;stroke:silver;stroke-width:50"/><path id="path319" d="m 7000,4460 0,51" style="fill:none;stroke:silver;stroke-width:50"/><path id="path321" d="m 7000,4562 0,51" style="fill:none;stroke:silver;stroke-width:50"/><path id="path323" d="m 7000,4664 0,51" style="fill:none;stroke:silver;stroke-width:50"/><path id="path325" d="m 7000,4766 0,51" style="fill:none;stroke:silver;stroke-width:50"/><path id="path327" d="m 7000,4868 0,51" style="fill:none;stroke:silver;stroke-width:50"/><path id="path329" d="m 7000,4970 0,51" style="fill:none;stroke:silver;stroke-width:50"/><path id="path331" d="m 7000,5072 0,51" style="fill:none;stroke:silver;stroke-width:50"/><path id="path333" d="m 7000,5174 0,51" style="fill:none;stroke:silver;stroke-width:50"/><path id="path335" d="m 7000,5276 0,51" style="fill:none;stroke:silver;stroke-width:50"/><path id="path337" d="m 7000,5378 0,51" style="fill:none;stroke:silver;stroke-width:50"/><path id="path339" d="m 7000,5480 0,51" style="fill:none;stroke:silver;stroke-width:50"/><path id="path341" d="m 7000,5582 0,51" style="fill:none;stroke:silver;stroke-width:50"/><path id="path343" d="m 7000,5684 0,16" style="fill:none;stroke:silver;stroke-width:50"/></g></g><g id="g345" class="com.sun.star.drawing.LineShape"><g id="id20"><path id="path348" d="m 5000,5700 2000,0" style="fill:none;stroke:#000;stroke-width:50"/></g></g><g id="g350" class="com.sun.star.drawing.LineShape"><g id="id21"><path id="path353" d="m 5000,5400 0,300" style="fill:none;stroke:#000;stroke-width:50"/></g></g><g id="g355" class="com.sun.star.drawing.LineShape"><g id="id22"><path id="path358" d="m 7000,5400 0,300" style="fill:none;stroke:#000;stroke-width:50"/></g></g><g id="g360" class="com.sun.star.drawing.TextShape"><g id="id23"><text id="text363" class="TextShape"><tspan id="tspan365" class="TextParagraph" font-size="388" font-weight="400" style="font-size:388px;font-weight:400;font-family:'Arial, sans-serif'"><tspan id="tspan367" x="4250" y="5677" class="TextPosition"><tspan id="tspan369" style="fill:#000;stroke:none">0.0</tspan></tspan></tspan></text></g></g><g id="g371" class="com.sun.star.drawing.LineShape"><g id="id24"><path id="path374" d="m 7000,5401 0,300" style="fill:none;stroke:#000;stroke-width:50"/></g></g><g id="g376" class="com.sun.star.drawing.TextShape"><g id="id25"><text id="text379" class="TextShape"><tspan id="tspan381" class="TextParagraph" font-size="388" font-weight="400" style="font-size:388px;font-weight:400;font-family:'Arial, sans-serif'"><tspan id="tspan383" x="7210" y="5678" class="TextPosition"><tspan id="tspan385" style="fill:#000;stroke:none">2.0</tspan></tspan></tspan></text></g></g><g id="g387" class="com.sun.star.drawing.LineShape"><g id="id26"><path id="path390" d="m 1600,4800 51,0" style="fill:none;stroke:silver;stroke-width:50"/><path id="path392" d="m 1702,4800 51,0" style="fill:none;stroke:silver;stroke-width:50"/><path id="path394" d="m 1804,4800 51,0" style="fill:none;stroke:silver;stroke-width:50"/><path id="path396" d="m 1906,4800 51,0" style="fill:none;stroke:silver;stroke-width:50"/><path id="path398" d="m 2008,4800 51,0" style="fill:none;stroke:silver;stroke-width:50"/><path id="path400" d="m 2110,4800 51,0" style="fill:none;stroke:silver;stroke-width:50"/><path id="path402" d="m 2212,4800 51,0" style="fill:none;stroke:silver;stroke-width:50"/><path id="path404" d="m 2314,4800 51,0" style="fill:none;stroke:silver;stroke-width:50"/><path id="path406" d="m 2416,4800 51,0" style="fill:none;stroke:silver;stroke-width:50"/><path id="path408" d="m 2518,4800 51,0" style="fill:none;stroke:silver;stroke-width:50"/><path id="path410" d="m 2620,4800 51,0" style="fill:none;stroke:silver;stroke-width:50"/><path id="path412" d="m 2722,4800 51,0" style="fill:none;stroke:silver;stroke-width:50"/><path id="path414" d="m 2824,4800 51,0" style="fill:none;stroke:silver;stroke-width:50"/><path id="path416" d="m 2926,4800 51,0" style="fill:none;stroke:silver;stroke-width:50"/><path id="path418" d="m 3028,4800 51,0" style="fill:none;stroke:silver;stroke-width:50"/><path id="path420" d="m 3130,4800 51,0" style="fill:none;stroke:silver;stroke-width:50"/><path id="path422" d="m 3232,4800 51,0" style="fill:none;stroke:silver;stroke-width:50"/><path id="path424" d="m 3334,4800 51,0" style="fill:none;stroke:silver;stroke-width:50"/><path id="path426" d="m 3436,4800 51,0" style="fill:none;stroke:silver;stroke-width:50"/><path id="path428" d="m 3538,4800 51,0" style="fill:none;stroke:silver;stroke-width:50"/><path id="path430" d="m 3640,4800 51,0" style="fill:none;stroke:silver;stroke-width:50"/><path id="path432" d="m 3742,4800 51,0" style="fill:none;stroke:silver;stroke-width:50"/><path id="path434" d="m 3844,4800 51,0" style="fill:none;stroke:silver;stroke-width:50"/><path id="path436" d="m 3946,4800 51,0" style="fill:none;stroke:silver;stroke-width:50"/><path id="path438" d="m 4048,4800 51,0" style="fill:none;stroke:silver;stroke-width:50"/><path id="path440" d="m 4150,4800 51,0" style="fill:none;stroke:silver;stroke-width:50"/><path id="path442" d="m 4252,4800 51,0" style="fill:none;stroke:silver;stroke-width:50"/><path id="path444" d="m 4354,4800 51,0" style="fill:none;stroke:silver;stroke-width:50"/><path id="path446" d="m 4456,4800 51,0" style="fill:none;stroke:silver;stroke-width:50"/><path id="path448" d="m 4558,4800 51,0" style="fill:none;stroke:silver;stroke-width:50"/><path id="path450" d="m 4660,4800 51,0" style="fill:none;stroke:silver;stroke-width:50"/><path id="path452" d="m 4762,4800 51,0" style="fill:none;stroke:silver;stroke-width:50"/><path id="path454" d="m 4864,4800 51,0" style="fill:none;stroke:silver;stroke-width:50"/><path id="path456" d="m 4966,4800 51,0" style="fill:none;stroke:silver;stroke-width:50"/><path id="path458" d="m 5068,4800 51,0" style="fill:none;stroke:silver;stroke-width:50"/><path id="path460" d="m 5170,4800 51,0" style="fill:none;stroke:silver;stroke-width:50"/><path id="path462" d="m 5272,4800 51,0" style="fill:none;stroke:silver;stroke-width:50"/><path id="path464" d="m 5374,4800 51,0" style="fill:none;stroke:silver;stroke-width:50"/><path id="path466" d="m 5476,4800 51,0" style="fill:none;stroke:silver;stroke-width:50"/><path id="path468" d="m 5578,4800 51,0" style="fill:none;stroke:silver;stroke-width:50"/><path id="path470" d="m 5680,4800 51,0" style="fill:none;stroke:silver;stroke-width:50"/><path id="path472" d="m 5782,4800 51,0" style="fill:none;stroke:silver;stroke-width:50"/><path id="path474" d="m 5884,4800 51,0" style="fill:none;stroke:silver;stroke-width:50"/><path id="path476" d="m 5986,4800 51,0" style="fill:none;stroke:silver;stroke-width:50"/><path id="path478" d="m 6088,4800 51,0" style="fill:none;stroke:silver;stroke-width:50"/><path id="path480" d="m 6190,4800 51,0" style="fill:none;stroke:silver;stroke-width:50"/><path id="path482" d="m 6292,4800 51,0" style="fill:none;stroke:silver;stroke-width:50"/><path id="path484" d="m 6394,4800 51,0" style="fill:none;stroke:silver;stroke-width:50"/><path id="path486" d="m 6496,4800 51,0" style="fill:none;stroke:silver;stroke-width:50"/><path id="path488" d="m 6598,4800 51,0" style="fill:none;stroke:silver;stroke-width:50"/><path id="path490" d="m 6700,4800 51,0" style="fill:none;stroke:silver;stroke-width:50"/><path id="path492" d="m 6802,4800 51,0" style="fill:none;stroke:silver;stroke-width:50"/><path id="path494" d="m 6904,4800 51,0" style="fill:none;stroke:silver;stroke-width:50"/><path id="path496" d="m 7006,4800 51,0" style="fill:none;stroke:silver;stroke-width:50"/><path id="path498" d="m 7108,4800 51,0" style="fill:none;stroke:silver;stroke-width:50"/><path id="path500" d="m 7210,4800 51,0" style="fill:none;stroke:silver;stroke-width:50"/><path id="path502" d="m 7312,4800 51,0" style="fill:none;stroke:silver;stroke-width:50"/><path id="path504" d="m 7414,4800 51,0" style="fill:none;stroke:silver;stroke-width:50"/><path id="path506" d="m 7516,4800 51,0" style="fill:none;stroke:silver;stroke-width:50"/><path id="path508" d="m 7618,4800 51,0" style="fill:none;stroke:silver;stroke-width:50"/><path id="path510" d="m 7720,4800 51,0" style="fill:none;stroke:silver;stroke-width:50"/><path id="path512" d="m 7822,4800 51,0" style="fill:none;stroke:silver;stroke-width:50"/><path id="path514" d="m 7924,4800 51,0" style="fill:none;stroke:silver;stroke-width:50"/><path id="path516" d="m 8026,4800 51,0" style="fill:none;stroke:silver;stroke-width:50"/><path id="path518" d="m 8128,4800 51,0" style="fill:none;stroke:silver;stroke-width:50"/><path id="path520" d="m 8230,4800 51,0" style="fill:none;stroke:silver;stroke-width:50"/><path id="path522" d="m 8332,4800 51,0" style="fill:none;stroke:silver;stroke-width:50"/><path id="path524" d="m 8434,4800 51,0" style="fill:none;stroke:silver;stroke-width:50"/><path id="path526" d="m 8536,4800 51,0" style="fill:none;stroke:silver;stroke-width:50"/><path id="path528" d="m 8638,4800 51,0" style="fill:none;stroke:silver;stroke-width:50"/><path id="path530" d="m 8740,4800 51,0" style="fill:none;stroke:silver;stroke-width:50"/><path id="path532" d="m 8842,4800 51,0" style="fill:none;stroke:silver;stroke-width:50"/><path id="path534" d="m 8944,4800 51,0" style="fill:none;stroke:silver;stroke-width:50"/><path id="path536" d="m 9046,4800 51,0" style="fill:none;stroke:silver;stroke-width:50"/><path id="path538" d="m 9148,4800 51,0" style="fill:none;stroke:silver;stroke-width:50"/><path id="path540" d="m 9250,4800 51,0" style="fill:none;stroke:silver;stroke-width:50"/><path id="path542" d="m 9352,4800 51,0" style="fill:none;stroke:silver;stroke-width:50"/><path id="path544" d="m 9454,4800 51,0" style="fill:none;stroke:silver;stroke-width:50"/><path id="path546" d="m 9556,4800 51,0" style="fill:none;stroke:silver;stroke-width:50"/><path id="path548" d="m 9658,4800 51,0" style="fill:none;stroke:silver;stroke-width:50"/><path id="path550" d="m 9760,4800 51,0" style="fill:none;stroke:silver;stroke-width:50"/><path id="path552" d="m 9862,4800 51,0" style="fill:none;stroke:silver;stroke-width:50"/><path id="path554" d="m 9964,4800 51,0" style="fill:none;stroke:silver;stroke-width:50"/><path id="path556" d="m 10066,4800 51,0" style="fill:none;stroke:silver;stroke-width:50"/><path id="path558" d="m 10168,4800 51,0" style="fill:none;stroke:silver;stroke-width:50"/><path id="path560" d="m 10270,4800 51,0" style="fill:none;stroke:silver;stroke-width:50"/><path id="path562" d="m 10372,4800 51,0" style="fill:none;stroke:silver;stroke-width:50"/><path id="path564" d="m 10474,4800 51,0" style="fill:none;stroke:silver;stroke-width:50"/><path id="path566" d="m 10576,4800 51,0" style="fill:none;stroke:silver;stroke-width:50"/><path id="path568" d="m 10678,4800 51,0" style="fill:none;stroke:silver;stroke-width:50"/><path id="path570" d="m 10780,4800 20,0" style="fill:none;stroke:silver;stroke-width:50"/></g></g></g></g></g></g></svg>