<svg xmlns="http://www.w3.org/2000/svg" xmlns:ooo="http://xml.openoffice.org/svg/export" xmlns:svg="http://www.w3.org/2000/svg" id="svg6046" width="354.911" height="205.972" clip-path="url(#presentation_clip_path)" style="fill-rule:evenodd;stroke-width:28.22200012;stroke-linejoin:round" preserveAspectRatio="xMidYMid" version="1.2" viewBox="0 0 10016.381 5813" xml:space="preserve"><metadata id="metadata6621"/><defs id="defs6048" class="ClipPathGroup"><clipPath id="presentation_clip_path" clipPathUnits="userSpaceOnUse"><rect id="rect6051" width="21590" height="27940" x="0" y="0"/></clipPath></defs><defs id="defs6057" class="EmbeddedBulletChars"><g id="bullet-char-template(57356)" transform="scale(4.8828125e-4,-4.8828125e-4)"><path id="path6060" d="M 580,1141 1163,571 580,0 -4,571 580,1141 z"/></g><g id="bullet-char-template(57354)" transform="scale(4.8828125e-4,-4.8828125e-4)"><path id="path6063" d="m 8,1128 1129,0 L 1137,0 8,0 8,1128 z"/></g><g id="bullet-char-template(10146)" transform="scale(4.8828125e-4,-4.8828125e-4)"><path id="path6066" d="M 174,0 602,739 174,1481 1456,739 174,0 z m 1184,739 -1049,607 350,-607 699,0 z"/></g><g id="bullet-char-template(10132)" transform="scale(4.8828125e-4,-4.8828125e-4)"><path id="path6069" d="M 2015,739 1276,0 717,0 l 543,543 -1086,0 0,393 1086,0 -543,545 557,0 741,-742 z"/></g><g id="bullet-char-template(10007)" transform="scale(4.8828125e-4,-4.8828125e-4)"><path id="path6072" d="m 0,-2 c -7,16 -16,29 -25,39 l 381,530 c -94,256 -141,385 -141,387 0,25 13,38 40,38 9,0 21,-2 34,-5 21,4 42,12 65,25 l 27,-13 111,-251 280,301 64,-25 24,25 c 21,-10 41,-24 62,-43 C 886,937 835,863 770,784 769,783 710,716 594,584 L 774,223 c 0,-27 -21,-55 -63,-84 l 16,-20 C 717,90 699,76 672,76 641,76 570,178 457,381 L 164,-76 c -22,-34 -53,-51 -92,-51 -42,0 -63,17 -64,51 -7,9 -10,24 -10,44 0,9 1,19 2,30 z"/></g><g id="bullet-char-template(10004)" transform="scale(4.8828125e-4,-4.8828125e-4)"><path id="path6075" d="M 285,-33 C 182,-33 111,30 74,156 52,228 41,333 41,471 c 0,78 14,145 41,201 34,71 87,106 158,106 53,0 88,-31 106,-94 l 23,-176 c 8,-64 28,-97 59,-98 l 735,706 c 11,11 33,17 66,17 42,0 63,-15 63,-46 l 0,-122 c 0,-36 -10,-64 -30,-84 L 442,47 C 390,-6 338,-33 285,-33 z"/></g><g id="bullet-char-template(9679)" transform="scale(4.8828125e-4,-4.8828125e-4)"><path id="path6078" d="M 813,0 C 632,0 489,54 383,161 276,268 223,411 223,592 c 0,181 53,324 160,431 106,107 249,161 430,161 179,0 323,-54 432,-161 108,-107 162,-251 162,-431 0,-180 -54,-324 -162,-431 C 1136,54 992,0 813,0 z"/></g><g id="bullet-char-template(8226)" transform="scale(4.8828125e-4,-4.8828125e-4)"><path id="path6081" d="m 346,457 c -73,0 -137,26 -191,78 -54,51 -81,114 -81,188 0,73 27,136 81,188 54,52 118,78 191,78 73,0 134,-26 185,-79 51,-51 77,-114 77,-187 0,-75 -25,-137 -76,-188 -50,-52 -112,-78 -186,-78 z"/></g><g id="bullet-char-template(8211)" transform="scale(4.8828125e-4,-4.8828125e-4)"><path id="path6084" d="m -4,459 1139,0 0,147 -1139,0 0,-147 z"/></g></defs><g id="g6093" class="SlideGroup" transform="translate(-1108.6191,-1212)"><g id="g6095"><g id="id1" class="Slide" clip-path="url(#presentation_clip_path)"><g id="g6098" class="Page"><g id="g6100" class="com.sun.star.drawing.TextShape"><g id="id3"><text id="text6103" class="TextShape"><tspan id="tspan6105" class="TextParagraph" font-size="388" font-style="italic" font-weight="400" style="font-size:388px;font-style:italic;font-weight:400;font-family:'Arial, sans-serif'"><tspan id="tspan6107" x="1091" y="3069" class="TextPosition"><tspan id="tspan6109" style="fill:#000;stroke:none">fahr_to_celsius</tspan></tspan></tspan></text></g></g><g id="g6111" class="com.sun.star.drawing.LineShape"><g id="id4"><path id="path6114" d="m 7100,5200 1470,0" style="fill:none;stroke:#000"/><path id="path6116" d="m 9000,5200 -450,-150 0,300 450,-150 z" style="fill:#000;stroke:none"/></g></g><g id="g6118" class="com.sun.star.drawing.TextShape"><g id="id5"><path id="path6121" d="m 6023,5600 -878,0 0,-683 1755,0 0,683 -877,0 z" style="fill:silver;stroke:none"/><text id="text6123" class="TextShape"><tspan id="tspan6125" class="TextParagraph" font-size="388" font-weight="400" style="font-size:388px;font-weight:400;font-family:'Arial, sans-serif'"><tspan id="tspan6127" x="5395" y="5393" class="TextPosition"><tspan id="tspan6129" style="fill:#000;stroke:none">original</tspan></tspan></tspan></text></g></g><g id="g6131" class="com.sun.star.drawing.TextShape"><g id="id6"><path id="path6134" d="m 9692,5600 -492,0 0,-733 984,0 0,733 -492,0 z" style="fill:none;stroke:#000;stroke-width:50"/><text id="text6136" class="TextShape"><tspan id="tspan6138" class="TextParagraph" font-size="388" font-weight="400" style="font-size:388px;font-weight:400;font-family:'Arial, sans-serif'"><tspan id="tspan6140" x="9475" y="5368" class="TextPosition"><tspan id="tspan6142" style="fill:#000;stroke:none">32</tspan></tspan></tspan></text></g></g><g id="g6144" class="com.sun.star.drawing.LineShape"><g id="id7"><path id="path6147" d="m 7800,7000 0,-51" style="fill:none;stroke:#000;stroke-width:50"/><path id="path6149" d="m 7800,6898 0,-51" style="fill:none;stroke:#000;stroke-width:50"/><path id="path6151" d="m 7800,6796 0,-51" style="fill:none;stroke:#000;stroke-width:50"/><path id="path6153" d="m 7800,6694 0,-51" style="fill:none;stroke:#000;stroke-width:50"/><path id="path6155" d="m 7800,6592 0,-51" style="fill:none;stroke:#000;stroke-width:50"/><path id="path6157" d="m 7800,6490 0,-51" style="fill:none;stroke:#000;stroke-width:50"/><path id="path6159" d="m 7800,6388 0,-51" style="fill:none;stroke:#000;stroke-width:50"/><path id="path6161" d="m 7800,6286 0,-51" style="fill:none;stroke:#000;stroke-width:50"/><path id="path6163" d="m 7800,6184 0,-51" style="fill:none;stroke:#000;stroke-width:50"/><path id="path6165" d="m 7800,6082 0,-51" style="fill:none;stroke:#000;stroke-width:50"/><path id="path6167" d="m 7800,5980 0,-51" style="fill:none;stroke:#000;stroke-width:50"/><path id="path6169" d="m 7800,5878 0,-51" style="fill:none;stroke:#000;stroke-width:50"/><path id="path6171" d="m 7800,5776 0,-51" style="fill:none;stroke:#000;stroke-width:50"/><path id="path6173" d="m 7800,5674 0,-51" style="fill:none;stroke:#000;stroke-width:50"/><path id="path6175" d="m 7800,5572 0,-51" style="fill:none;stroke:#000;stroke-width:50"/><path id="path6177" d="m 7800,5470 0,-51" style="fill:none;stroke:#000;stroke-width:50"/><path id="path6179" d="m 7800,5368 0,-51" style="fill:none;stroke:#000;stroke-width:50"/><path id="path6181" d="m 7800,5266 0,-51" style="fill:none;stroke:#000;stroke-width:50"/><path id="path6183" d="m 7800,5164 0,-51" style="fill:none;stroke:#000;stroke-width:50"/><path id="path6185" d="m 7800,5062 0,-51" style="fill:none;stroke:#000;stroke-width:50"/><path id="path6187" d="m 7800,4960 0,-51" style="fill:none;stroke:#000;stroke-width:50"/><path id="path6189" d="m 7800,4858 0,-51" style="fill:none;stroke:#000;stroke-width:50"/><path id="path6191" d="m 7800,4756 0,-51" style="fill:none;stroke:#000;stroke-width:50"/><path id="path6193" d="m 7800,4654 0,-51" style="fill:none;stroke:#000;stroke-width:50"/><path id="path6195" d="m 7800,4552 0,-51" style="fill:none;stroke:#000;stroke-width:50"/><path id="path6197" d="m 7800,4450 0,-51" style="fill:none;stroke:#000;stroke-width:50"/><path id="path6199" d="m 7800,4348 0,-51" style="fill:none;stroke:#000;stroke-width:50"/><path id="path6201" d="m 7800,4246 0,-51" style="fill:none;stroke:#000;stroke-width:50"/><path id="path6203" d="m 7800,4144 0,-51" style="fill:none;stroke:#000;stroke-width:50"/><path id="path6205" d="m 7800,4042 0,-51" style="fill:none;stroke:#000;stroke-width:50"/><path id="path6207" d="m 7800,3940 0,-51" style="fill:none;stroke:#000;stroke-width:50"/><path id="path6209" d="m 7800,3838 0,-51" style="fill:none;stroke:#000;stroke-width:50"/><path id="path6211" d="m 7800,3736 0,-51" style="fill:none;stroke:#000;stroke-width:50"/><path id="path6213" d="m 7800,3634 0,-51" style="fill:none;stroke:#000;stroke-width:50"/><path id="path6215" d="m 7800,3532 0,-51" style="fill:none;stroke:#000;stroke-width:50"/><path id="path6217" d="m 7800,3430 0,-51" style="fill:none;stroke:#000;stroke-width:50"/><path id="path6219" d="m 7800,3328 0,-51" style="fill:none;stroke:#000;stroke-width:50"/><path id="path6221" d="m 7800,3226 0,-51" style="fill:none;stroke:#000;stroke-width:50"/><path id="path6223" d="m 7800,3124 0,-51" style="fill:none;stroke:#000;stroke-width:50"/><path id="path6225" d="m 7800,3022 0,-51" style="fill:none;stroke:#000;stroke-width:50"/><path id="path6227" d="m 7800,2920 0,-51" style="fill:none;stroke:#000;stroke-width:50"/><path id="path6229" d="m 7800,2818 0,-51" style="fill:none;stroke:#000;stroke-width:50"/><path id="path6231" d="m 7800,2716 0,-51" style="fill:none;stroke:#000;stroke-width:50"/><path id="path6233" d="m 7800,2614 0,-51" style="fill:none;stroke:#000;stroke-width:50"/><path id="path6235" d="m 7800,2512 0,-51" style="fill:none;stroke:#000;stroke-width:50"/><path id="path6237" d="m 7800,2410 0,-51" style="fill:none;stroke:#000;stroke-width:50"/><path id="path6239" d="m 7800,2308 0,-51" style="fill:none;stroke:#000;stroke-width:50"/><path id="path6241" d="m 7800,2206 0,-51" style="fill:none;stroke:#000;stroke-width:50"/><path id="path6243" d="m 7800,2104 0,-51" style="fill:none;stroke:#000;stroke-width:50"/><path id="path6245" d="m 7800,2002 0,-51" style="fill:none;stroke:#000;stroke-width:50"/><path id="path6247" d="m 7800,1900 0,-51" style="fill:none;stroke:#000;stroke-width:50"/><path id="path6249" d="m 7800,1798 0,-51" style="fill:none;stroke:#000;stroke-width:50"/><path id="path6251" d="m 7800,1696 0,-51" style="fill:none;stroke:#000;stroke-width:50"/><path id="path6253" d="m 7800,1594 0,-51" style="fill:none;stroke:#000;stroke-width:50"/><path id="path6255" d="m 7800,1492 0,-51" style="fill:none;stroke:#000;stroke-width:50"/><path id="path6257" d="m 7800,1390 0,-51" style="fill:none;stroke:#000;stroke-width:50"/><path id="path6259" d="m 7800,1288 0,-51" style="fill:none;stroke:#000;stroke-width:50"/></g></g><g id="g6261" class="com.sun.star.drawing.LineShape"><g id="id8"><path id="path6264" d="m 11100,6000 -51,0" style="fill:none;stroke:#000;stroke-width:50"/><path id="path6266" d="m 10998,6000 -51,0" style="fill:none;stroke:#000;stroke-width:50"/><path id="path6268" d="m 10896,6000 -51,0" style="fill:none;stroke:#000;stroke-width:50"/><path id="path6270" d="m 10794,6000 -51,0" style="fill:none;stroke:#000;stroke-width:50"/><path id="path6272" d="m 10692,6000 -51,0" style="fill:none;stroke:#000;stroke-width:50"/><path id="path6274" d="m 10590,6000 -51,0" style="fill:none;stroke:#000;stroke-width:50"/><path id="path6276" d="m 10488,6000 -51,0" style="fill:none;stroke:#000;stroke-width:50"/><path id="path6278" d="m 10386,6000 -51,0" style="fill:none;stroke:#000;stroke-width:50"/><path id="path6280" d="m 10284,6000 -51,0" style="fill:none;stroke:#000;stroke-width:50"/><path id="path6282" d="m 10182,6000 -51,0" style="fill:none;stroke:#000;stroke-width:50"/><path id="path6284" d="m 10080,6000 -51,0" style="fill:none;stroke:#000;stroke-width:50"/><path id="path6286" d="m 9978,6000 -51,0" style="fill:none;stroke:#000;stroke-width:50"/><path id="path6288" d="m 9876,6000 -51,0" style="fill:none;stroke:#000;stroke-width:50"/><path id="path6290" d="m 9774,6000 -51,0" style="fill:none;stroke:#000;stroke-width:50"/><path id="path6292" d="m 9672,6000 -51,0" style="fill:none;stroke:#000;stroke-width:50"/><path id="path6294" d="m 9570,6000 -51,0" style="fill:none;stroke:#000;stroke-width:50"/><path id="path6296" d="m 9468,6000 -51,0" style="fill:none;stroke:#000;stroke-width:50"/><path id="path6298" d="m 9366,6000 -51,0" style="fill:none;stroke:#000;stroke-width:50"/><path id="path6300" d="m 9264,6000 -51,0" style="fill:none;stroke:#000;stroke-width:50"/><path id="path6302" d="m 9162,6000 -51,0" style="fill:none;stroke:#000;stroke-width:50"/><path id="path6304" d="m 9060,6000 -51,0" style="fill:none;stroke:#000;stroke-width:50"/><path id="path6306" d="m 8958,6000 -51,0" style="fill:none;stroke:#000;stroke-width:50"/><path id="path6308" d="m 8856,6000 -51,0" style="fill:none;stroke:#000;stroke-width:50"/><path id="path6310" d="m 8754,6000 -51,0" style="fill:none;stroke:#000;stroke-width:50"/><path id="path6312" d="m 8652,6000 -51,0" style="fill:none;stroke:#000;stroke-width:50"/><path id="path6314" d="m 8550,6000 -51,0" style="fill:none;stroke:#000;stroke-width:50"/><path id="path6316" d="m 8448,6000 -51,0" style="fill:none;stroke:#000;stroke-width:50"/><path id="path6318" d="m 8346,6000 -51,0" style="fill:none;stroke:#000;stroke-width:50"/><path id="path6320" d="m 8244,6000 -51,0" style="fill:none;stroke:#000;stroke-width:50"/><path id="path6322" d="m 8142,6000 -51,0" style="fill:none;stroke:#000;stroke-width:50"/><path id="path6324" d="m 8040,6000 -51,0" style="fill:none;stroke:#000;stroke-width:50"/><path id="path6326" d="m 7938,6000 -51,0" style="fill:none;stroke:#000;stroke-width:50"/><path id="path6328" d="m 7836,6000 -51,0" style="fill:none;stroke:#000;stroke-width:50"/><path id="path6330" d="m 7734,6000 -51,0" style="fill:none;stroke:#000;stroke-width:50"/><path id="path6332" d="m 7632,6000 -51,0" style="fill:none;stroke:#000;stroke-width:50"/><path id="path6334" d="m 7530,6000 -51,0" style="fill:none;stroke:#000;stroke-width:50"/><path id="path6336" d="m 7428,6000 -51,0" style="fill:none;stroke:#000;stroke-width:50"/><path id="path6338" d="m 7326,6000 -51,0" style="fill:none;stroke:#000;stroke-width:50"/><path id="path6340" d="m 7224,6000 -51,0" style="fill:none;stroke:#000;stroke-width:50"/><path id="path6342" d="m 7122,6000 -51,0" style="fill:none;stroke:#000;stroke-width:50"/><path id="path6344" d="m 7020,6000 -51,0" style="fill:none;stroke:#000;stroke-width:50"/><path id="path6346" d="m 6918,6000 -51,0" style="fill:none;stroke:#000;stroke-width:50"/><path id="path6348" d="m 6816,6000 -51,0" style="fill:none;stroke:#000;stroke-width:50"/><path id="path6350" d="m 6714,6000 -51,0" style="fill:none;stroke:#000;stroke-width:50"/><path id="path6352" d="m 6612,6000 -51,0" style="fill:none;stroke:#000;stroke-width:50"/><path id="path6354" d="m 6510,6000 -51,0" style="fill:none;stroke:#000;stroke-width:50"/><path id="path6356" d="m 6408,6000 -51,0" style="fill:none;stroke:#000;stroke-width:50"/><path id="path6358" d="m 6306,6000 -51,0" style="fill:none;stroke:#000;stroke-width:50"/><path id="path6360" d="m 6204,6000 -51,0" style="fill:none;stroke:#000;stroke-width:50"/><path id="path6362" d="m 6102,6000 -51,0" style="fill:none;stroke:#000;stroke-width:50"/><path id="path6364" d="m 6000,6000 -51,0" style="fill:none;stroke:#000;stroke-width:50"/><path id="path6366" d="m 5898,6000 -51,0" style="fill:none;stroke:#000;stroke-width:50"/><path id="path6368" d="m 5796,6000 -51,0" style="fill:none;stroke:#000;stroke-width:50"/><path id="path6370" d="m 5694,6000 -51,0" style="fill:none;stroke:#000;stroke-width:50"/><path id="path6372" d="m 5592,6000 -51,0" style="fill:none;stroke:#000;stroke-width:50"/><path id="path6374" d="m 5490,6000 -51,0" style="fill:none;stroke:#000;stroke-width:50"/><path id="path6376" d="m 5388,6000 -51,0" style="fill:none;stroke:#000;stroke-width:50"/><path id="path6378" d="m 5286,6000 -51,0" style="fill:none;stroke:#000;stroke-width:50"/><path id="path6380" d="m 5184,6000 -51,0" style="fill:none;stroke:#000;stroke-width:50"/><path id="path6382" d="m 5082,6000 -51,0" style="fill:none;stroke:#000;stroke-width:50"/><path id="path6384" d="m 4980,6000 -51,0" style="fill:none;stroke:#000;stroke-width:50"/><path id="path6386" d="m 4878,6000 -51,0" style="fill:none;stroke:#000;stroke-width:50"/><path id="path6388" d="m 4776,6000 -51,0" style="fill:none;stroke:#000;stroke-width:50"/><path id="path6390" d="m 4674,6000 -51,0" style="fill:none;stroke:#000;stroke-width:50"/><path id="path6392" d="m 4572,6000 -51,0" style="fill:none;stroke:#000;stroke-width:50"/><path id="path6394" d="m 4470,6000 -51,0" style="fill:none;stroke:#000;stroke-width:50"/><path id="path6396" d="m 4368,6000 -51,0" style="fill:none;stroke:#000;stroke-width:50"/></g></g><g id="g6398" class="com.sun.star.drawing.TextShape"><g id="id9"><text id="text6401" class="TextShape"><tspan id="tspan6403" class="TextParagraph" font-size="388" font-weight="400" style="font-size:388px;font-weight:400;font-family:'Arial, sans-serif'"><tspan id="tspan6405" x="5191" y="6668" class="TextPosition"><tspan id="tspan6407" style="fill:#000;stroke:none">Variables</tspan></tspan></tspan></text></g></g><g id="g6409" class="com.sun.star.drawing.TextShape"><g id="id10"><text id="text6412" class="TextShape"><tspan id="tspan6414" class="TextParagraph" font-size="388" font-weight="400" style="font-size:388px;font-weight:400;font-family:'Arial, sans-serif'"><tspan id="tspan6416" x="9091" y="6669" class="TextPosition"><tspan id="tspan6418" style="fill:#000;stroke:none">Values</tspan></tspan></tspan></text></g></g><g id="g6420" class="com.sun.star.drawing.LineShape"><g id="id11"><path id="path6423" d="m 11100,4400 -51,0" style="fill:none;stroke:#000;stroke-width:50"/><path id="path6425" d="m 10998,4400 -51,0" style="fill:none;stroke:#000;stroke-width:50"/><path id="path6427" d="m 10896,4400 -51,0" style="fill:none;stroke:#000;stroke-width:50"/><path id="path6429" d="m 10794,4400 -51,0" style="fill:none;stroke:#000;stroke-width:50"/><path id="path6431" d="m 10692,4400 -51,0" style="fill:none;stroke:#000;stroke-width:50"/><path id="path6433" d="m 10590,4400 -51,0" style="fill:none;stroke:#000;stroke-width:50"/><path id="path6435" d="m 10488,4400 -51,0" style="fill:none;stroke:#000;stroke-width:50"/><path id="path6437" d="m 10386,4400 -51,0" style="fill:none;stroke:#000;stroke-width:50"/><path id="path6439" d="m 10284,4400 -51,0" style="fill:none;stroke:#000;stroke-width:50"/><path id="path6441" d="m 10182,4400 -51,0" style="fill:none;stroke:#000;stroke-width:50"/><path id="path6443" d="m 10080,4400 -51,0" style="fill:none;stroke:#000;stroke-width:50"/><path id="path6445" d="m 9978,4400 -51,0" style="fill:none;stroke:#000;stroke-width:50"/><path id="path6447" d="m 9876,4400 -51,0" style="fill:none;stroke:#000;stroke-width:50"/><path id="path6449" d="m 9774,4400 -51,0" style="fill:none;stroke:#000;stroke-width:50"/><path id="path6451" d="m 9672,4400 -51,0" style="fill:none;stroke:#000;stroke-width:50"/><path id="path6453" d="m 9570,4400 -51,0" style="fill:none;stroke:#000;stroke-width:50"/><path id="path6455" d="m 9468,4400 -51,0" style="fill:none;stroke:#000;stroke-width:50"/><path id="path6457" d="m 9366,4400 -51,0" style="fill:none;stroke:#000;stroke-width:50"/><path id="path6459" d="m 9264,4400 -51,0" style="fill:none;stroke:#000;stroke-width:50"/><path id="path6461" d="m 9162,4400 -51,0" style="fill:none;stroke:#000;stroke-width:50"/><path id="path6463" d="m 9060,4400 -51,0" style="fill:none;stroke:#000;stroke-width:50"/><path id="path6465" d="m 8958,4400 -51,0" style="fill:none;stroke:#000;stroke-width:50"/><path id="path6467" d="m 8856,4400 -51,0" style="fill:none;stroke:#000;stroke-width:50"/><path id="path6469" d="m 8754,4400 -51,0" style="fill:none;stroke:#000;stroke-width:50"/><path id="path6471" d="m 8652,4400 -51,0" style="fill:none;stroke:#000;stroke-width:50"/><path id="path6473" d="m 8550,4400 -51,0" style="fill:none;stroke:#000;stroke-width:50"/><path id="path6475" d="m 8448,4400 -51,0" style="fill:none;stroke:#000;stroke-width:50"/><path id="path6477" d="m 8346,4400 -51,0" style="fill:none;stroke:#000;stroke-width:50"/><path id="path6479" d="m 8244,4400 -51,0" style="fill:none;stroke:#000;stroke-width:50"/><path id="path6481" d="m 8142,4400 -51,0" style="fill:none;stroke:#000;stroke-width:50"/><path id="path6483" d="m 8040,4400 -51,0" style="fill:none;stroke:#000;stroke-width:50"/><path id="path6485" d="m 7938,4400 -51,0" style="fill:none;stroke:#000;stroke-width:50"/><path id="path6487" d="m 7836,4400 -51,0" style="fill:none;stroke:#000;stroke-width:50"/><path id="path6489" d="m 7734,4400 -51,0" style="fill:none;stroke:#000;stroke-width:50"/><path id="path6491" d="m 7632,4400 -51,0" style="fill:none;stroke:#000;stroke-width:50"/><path id="path6493" d="m 7530,4400 -51,0" style="fill:none;stroke:#000;stroke-width:50"/><path id="path6495" d="m 7428,4400 -51,0" style="fill:none;stroke:#000;stroke-width:50"/><path id="path6497" d="m 7326,4400 -51,0" style="fill:none;stroke:#000;stroke-width:50"/><path id="path6499" d="m 7224,4400 -51,0" style="fill:none;stroke:#000;stroke-width:50"/><path id="path6501" d="m 7122,4400 -51,0" style="fill:none;stroke:#000;stroke-width:50"/><path id="path6503" d="m 7020,4400 -51,0" style="fill:none;stroke:#000;stroke-width:50"/><path id="path6505" d="m 6918,4400 -51,0" style="fill:none;stroke:#000;stroke-width:50"/><path id="path6507" d="m 6816,4400 -51,0" style="fill:none;stroke:#000;stroke-width:50"/><path id="path6509" d="m 6714,4400 -51,0" style="fill:none;stroke:#000;stroke-width:50"/><path id="path6511" d="m 6612,4400 -51,0" style="fill:none;stroke:#000;stroke-width:50"/><path id="path6513" d="m 6510,4400 -51,0" style="fill:none;stroke:#000;stroke-width:50"/><path id="path6515" d="m 6408,4400 -51,0" style="fill:none;stroke:#000;stroke-width:50"/><path id="path6517" d="m 6306,4400 -51,0" style="fill:none;stroke:#000;stroke-width:50"/><path id="path6519" d="m 6204,4400 -51,0" style="fill:none;stroke:#000;stroke-width:50"/><path id="path6521" d="m 6102,4400 -51,0" style="fill:none;stroke:#000;stroke-width:50"/><path id="path6523" d="m 6000,4400 -51,0" style="fill:none;stroke:#000;stroke-width:50"/><path id="path6525" d="m 5898,4400 -51,0" style="fill:none;stroke:#000;stroke-width:50"/><path id="path6527" d="m 5796,4400 -51,0" style="fill:none;stroke:#000;stroke-width:50"/><path id="path6529" d="m 5694,4400 -51,0" style="fill:none;stroke:#000;stroke-width:50"/><path id="path6531" d="m 5592,4400 -51,0" style="fill:none;stroke:#000;stroke-width:50"/><path id="path6533" d="m 5490,4400 -51,0" style="fill:none;stroke:#000;stroke-width:50"/><path id="path6535" d="m 5388,4400 -51,0" style="fill:none;stroke:#000;stroke-width:50"/><path id="path6537" d="m 5286,4400 -51,0" style="fill:none;stroke:#000;stroke-width:50"/><path id="path6539" d="m 5184,4400 -51,0" style="fill:none;stroke:#000;stroke-width:50"/><path id="path6541" d="m 5082,4400 -51,0" style="fill:none;stroke:#000;stroke-width:50"/><path id="path6543" d="m 4980,4400 -51,0" style="fill:none;stroke:#000;stroke-width:50"/><path id="path6545" d="m 4878,4400 -51,0" style="fill:none;stroke:#000;stroke-width:50"/><path id="path6547" d="m 4776,4400 -51,0" style="fill:none;stroke:#000;stroke-width:50"/><path id="path6549" d="m 4674,4400 -51,0" style="fill:none;stroke:#000;stroke-width:50"/><path id="path6551" d="m 4572,4400 -51,0" style="fill:none;stroke:#000;stroke-width:50"/><path id="path6553" d="m 4470,4400 -51,0" style="fill:none;stroke:#000;stroke-width:50"/><path id="path6555" d="m 4368,4400 -51,0" style="fill:none;stroke:#000;stroke-width:50"/></g></g><g id="g6557" class="com.sun.star.drawing.CustomShape"><g id="id12"><path id="path6560" d="m 3959,1800 c -30,0 -61,95 -61,191 l 0,767 c 0,96 -30,192 -60,192 30,0 60,96 60,192 l 0,767 c 0,96 31,192 61,192" style="fill:none;stroke:#000;stroke-width:50"/><path id="path6562" d="m 3838,1800 0,0 z" style="fill:none;stroke:#000;stroke-width:50"/><path id="path6564" d="m 3960,4101 0,0 z" style="fill:none;stroke:#000;stroke-width:50"/></g></g><g id="g6566" class="com.sun.star.drawing.TextShape"><g id="id13"><path id="path6569" d="m 6029,3701 -683,0 0,-683 1366,0 0,683 -683,0 z" style="fill:silver;stroke:none"/><text id="text6571" class="TextShape"><tspan id="tspan6573" class="TextParagraph" font-size="388" font-weight="400" style="font-size:388px;font-weight:400;font-family:'Arial, sans-serif'"><tspan id="tspan6575" x="5596" y="3494" class="TextPosition"><tspan id="tspan6577" style="fill:#000;stroke:none">temp</tspan></tspan></tspan></text></g></g><g id="g6579" class="com.sun.star.drawing.LineShape"><g id="id14"><path id="path6582" d="M 7000,3400 8664,4731" style="fill:none;stroke:#000"/><path id="path6584" d="m 9000,5000 -258,-398 -187,234 445,164 z" style="fill:#000;stroke:none"/></g></g><g id="g6586" class="com.sun.star.drawing.TextShape"><g id="id15"><path id="path6589" d="m 5934,2602 -888,0 0,-683 1776,0 0,683 -888,0 z" style="fill:silver;stroke:none"/><text id="text6591" class="TextShape"><tspan id="tspan6593" class="TextParagraph" font-size="388" font-weight="400" style="font-size:388px;font-weight:400;font-family:'Arial, sans-serif'"><tspan id="tspan6595" x="5296" y="2395" class="TextPosition"><tspan id="tspan6597" style="fill:#000;stroke:none">temp_k</tspan></tspan></tspan></text></g></g><g id="g6599" class="com.sun.star.drawing.TextShape"><g id="id16"><path id="path6602" d="m 9669,2601 -869,0 0,-733 1737,0 0,733 -868,0 z" style="fill:none;stroke:#000;stroke-width:50"/><text id="text6604" class="TextShape"><tspan id="tspan6606" class="TextParagraph" font-size="388" font-weight="400" style="font-size:388px;font-weight:400;font-family:'Arial, sans-serif'"><tspan id="tspan6608" x="9075" y="2369" class="TextPosition"><tspan id="tspan6610" style="fill:#000;stroke:none">273.15</tspan></tspan></tspan></text></g></g><g id="g6612" class="com.sun.star.drawing.LineShape"><g id="id17"><path id="path6615" d="m 7000,2300 1270,0" style="fill:none;stroke:#000"/><path id="path6617" d="m 8700,2300 -450,-150 0,300 450,-150 z" style="fill:#000;stroke:none"/></g></g></g></g></g></g></svg>