<svg xmlns="http://www.w3.org/2000/svg" xmlns:ooo="http://xml.openoffice.org/svg/export" xmlns:svg="http://www.w3.org/2000/svg" id="svg6483" width="674.114" height="243.303" clip-path="url(#presentation_clip_path)" style="fill-rule:evenodd;stroke-width:28.22200012;stroke-linejoin:round" preserveAspectRatio="xMidYMid" version="1.2" viewBox="0 0 19025.001 6866.547" xml:space="preserve"><metadata id="metadata6889"/><defs id="defs6485" class="ClipPathGroup"><clipPath id="presentation_clip_path" clipPathUnits="userSpaceOnUse"><rect id="rect6488" width="21590" height="27940" x="0" y="0"/></clipPath></defs><defs id="defs6494" class="EmbeddedBulletChars"><g id="bullet-char-template(57356)" transform="scale(4.8828125e-4,-4.8828125e-4)"><path id="path6497" d="M 580,1141 1163,571 580,0 -4,571 580,1141 z"/></g><g id="bullet-char-template(57354)" transform="scale(4.8828125e-4,-4.8828125e-4)"><path id="path6500" d="m 8,1128 1129,0 L 1137,0 8,0 8,1128 z"/></g><g id="bullet-char-template(10146)" transform="scale(4.8828125e-4,-4.8828125e-4)"><path id="path6503" d="M 174,0 602,739 174,1481 1456,739 174,0 z m 1184,739 -1049,607 350,-607 699,0 z"/></g><g id="bullet-char-template(10132)" transform="scale(4.8828125e-4,-4.8828125e-4)"><path id="path6506" d="M 2015,739 1276,0 717,0 l 543,543 -1086,0 0,393 1086,0 -543,545 557,0 741,-742 z"/></g><g id="bullet-char-template(10007)" transform="scale(4.8828125e-4,-4.8828125e-4)"><path id="path6509" d="m 0,-2 c -7,16 -16,29 -25,39 l 381,530 c -94,256 -141,385 -141,387 0,25 13,38 40,38 9,0 21,-2 34,-5 21,4 42,12 65,25 l 27,-13 111,-251 280,301 64,-25 24,25 c 21,-10 41,-24 62,-43 C 886,937 835,863 770,784 769,783 710,716 594,584 L 774,223 c 0,-27 -21,-55 -63,-84 l 16,-20 C 717,90 699,76 672,76 641,76 570,178 457,381 L 164,-76 c -22,-34 -53,-51 -92,-51 -42,0 -63,17 -64,51 -7,9 -10,24 -10,44 0,9 1,19 2,30 z"/></g><g id="bullet-char-template(10004)" transform="scale(4.8828125e-4,-4.8828125e-4)"><path id="path6512" d="M 285,-33 C 182,-33 111,30 74,156 52,228 41,333 41,471 c 0,78 14,145 41,201 34,71 87,106 158,106 53,0 88,-31 106,-94 l 23,-176 c 8,-64 28,-97 59,-98 l 735,706 c 11,11 33,17 66,17 42,0 63,-15 63,-46 l 0,-122 c 0,-36 -10,-64 -30,-84 L 442,47 C 390,-6 338,-33 285,-33 z"/></g><g id="bullet-char-template(9679)" transform="scale(4.8828125e-4,-4.8828125e-4)"><path id="path6515" d="M 813,0 C 632,0 489,54 383,161 276,268 223,411 223,592 c 0,181 53,324 160,431 106,107 249,161 430,161 179,0 323,-54 432,-161 108,-107 162,-251 162,-431 0,-180 -54,-324 -162,-431 C 1136,54 992,0 813,0 z"/></g><g id="bullet-char-template(8226)" transform="scale(4.8828125e-4,-4.8828125e-4)"><path id="path6518" d="m 346,457 c -73,0 -137,26 -191,78 -54,51 -81,114 -81,188 0,73 27,136 81,188 54,52 118,78 191,78 73,0 134,-26 185,-79 51,-51 77,-114 77,-187 0,-75 -25,-137 -76,-188 -50,-52 -112,-78 -186,-78 z"/></g><g id="bullet-char-template(8211)" transform="scale(4.8828125e-4,-4.8828125e-4)"><path id="path6521" d="m -4,459 1139,0 0,147 -1139,0 0,-147 z"/></g></defs><g id="g6530" class="SlideGroup" transform="translate(-1475,-1234)"><g id="g6532"><g id="id1" class="Slide" clip-path="url(#presentation_clip_path)"><g id="g6535" class="Page"><g id="g6537" class="com.sun.star.drawing.CustomShape"><g id="id3"><path id="path6540" d="m 1959,5447 1400,0 0,1575 -175,225 -1225,0 0,-1800 z" style="fill:none;stroke:#000;stroke-width:50"/><path id="path6542" d="m 3184,7247 46,-225 c 44,33 42,14 129,0 l -175,225 z" style="fill:none;stroke:#000;stroke-width:50"/></g></g><g id="g6544" class="com.sun.star.drawing.TextShape"><g id="id4"><text id="text6547" class="TextShape"><tspan id="tspan6549" class="TextParagraph" font-size="388" font-weight="400" style="font-size:388px;font-weight:400;font-family:'Arial, sans-serif'"><tspan id="tspan6551" x="1968" y="8093" class="TextPosition"><tspan id="tspan6553" style="fill:#000;stroke:none">mars.txt</tspan></tspan></tspan></text></g></g><g id="g6555" class="com.sun.star.drawing.LineShape"><g id="id5"><path id="path6558" d="m 2209,5897 900,0" style="fill:none;stroke:#000;stroke-width:50"/></g></g><g id="g6560" class="com.sun.star.drawing.CustomShape"><g id="id6"><path id="path6563" d="m 2125,2100 1250,0 626,700 -626,700 -1250,0 -625,-700 625,-700 z" style="fill:none;stroke:#000;stroke-width:50"/><text id="text6565" class="TextShape"><tspan id="tspan6567" class="TextParagraph" font-size="423" font-weight="400" style="font-size:423px;font-weight:400;font-family:'Arial, sans-serif'"><tspan id="tspan6569" x="2045" y="2946" class="TextPosition"><tspan id="tspan6571" style="fill:#000;stroke:none">005937</tspan></tspan></tspan></text></g></g><g id="g6573" class="com.sun.star.drawing.CustomShape"><g id="id7"><path id="path6576" d="m 6125,2100 1250,0 626,700 -626,700 -1250,0 -625,-700 625,-700 z" style="fill:none;stroke:#000;stroke-width:50"/><text id="text6578" class="TextShape"><tspan id="tspan6580" class="TextParagraph" font-size="423" font-weight="400" style="font-size:423px;font-weight:400;font-family:'Arial, sans-serif'"><tspan id="tspan6582" x="6045" y="2946" class="TextPosition"><tspan id="tspan6584" style="fill:#000;stroke:none">34961b</tspan></tspan></tspan></text></g></g><g id="g6586" class="com.sun.star.drawing.CustomShape"><g id="id8"><path id="path6589" d="m 10125,2100 1250,0 626,700 -626,700 -1250,0 -625,-700 625,-700 z" style="fill:none;stroke:#000;stroke-width:50"/><text id="text6591" class="TextShape"><tspan id="tspan6593" class="TextParagraph" font-size="423" font-weight="400" style="font-size:423px;font-weight:400;font-family:'Arial, sans-serif'"><tspan id="tspan6595" x="10102" y="2946" class="TextPosition"><tspan id="tspan6597" style="fill:#000;stroke:none">f22b25</tspan></tspan></tspan></text></g></g><g id="g6599" class="com.sun.star.drawing.CustomShape"><g id="id9"><path id="path6602" d="m 5959,5448 1400,0 0,1575 -175,225 -1225,0 0,-1800 z" style="fill:none;stroke:#000;stroke-width:50"/><path id="path6604" d="m 7184,7248 46,-225 c 44,33 42,14 129,0 l -175,225 z" style="fill:none;stroke:#000;stroke-width:50"/></g></g><g id="g6606" class="com.sun.star.drawing.TextShape"><g id="id10"><text id="text6609" class="TextShape"><tspan id="tspan6611" class="TextParagraph" font-size="388" font-weight="400" style="font-size:388px;font-weight:400;font-family:'Arial, sans-serif'"><tspan id="tspan6613" x="5968" y="8094" class="TextPosition"><tspan id="tspan6615" style="fill:#000;stroke:none">mars.txt</tspan></tspan></tspan></text></g></g><g id="g6617" class="com.sun.star.drawing.LineShape"><g id="id11"><path id="path6620" d="m 6209,5898 900,0" style="fill:none;stroke:#000;stroke-width:50"/></g></g><g id="g6622" class="com.sun.star.drawing.LineShape"><g id="id12"><path id="path6625" d="m 6209,6198 900,0" style="fill:none;stroke:#000;stroke-width:50"/></g></g><g id="g6627" class="com.sun.star.drawing.CustomShape"><g id="id13"><path id="path6630" d="m 10059,5449 1400,0 0,1575 -175,225 -1225,0 0,-1800 z" style="fill:none;stroke:#000;stroke-width:50"/><path id="path6632" d="m 11284,7249 46,-225 c 44,33 42,14 129,0 l -175,225 z" style="fill:none;stroke:#000;stroke-width:50"/></g></g><g id="g6634" class="com.sun.star.drawing.TextShape"><g id="id14"><text id="text6637" class="TextShape"><tspan id="tspan6639" class="TextParagraph" font-size="388" font-weight="400" style="font-size:388px;font-weight:400;font-family:'Arial, sans-serif'"><tspan id="tspan6641" x="10068" y="8095" class="TextPosition"><tspan id="tspan6643" style="fill:#000;stroke:none">mars.txt</tspan></tspan></tspan></text></g></g><g id="g6645" class="com.sun.star.drawing.LineShape"><g id="id15"><path id="path6648" d="m 10309,5899 900,0" style="fill:none;stroke:#000;stroke-width:50"/></g></g><g id="g6650" class="com.sun.star.drawing.LineShape"><g id="id16"><path id="path6653" d="m 10309,6199 900,0" style="fill:none;stroke:#000;stroke-width:50"/></g></g><g id="g6655" class="com.sun.star.drawing.LineShape"><g id="id17"><path id="path6658" d="m 10309,6499 900,0" style="fill:none;stroke:#000;stroke-width:50"/></g></g><g id="g6660" class="com.sun.star.drawing.LineShape"><g id="id18"><path id="path6663" d="m 5200,2800 -51,0" style="fill:none;stroke:#000;stroke-width:50"/><path id="path6665" d="m 5098,2800 -51,0" style="fill:none;stroke:#000;stroke-width:50"/><path id="path6667" d="m 4996,2800 -51,0" style="fill:none;stroke:#000;stroke-width:50"/><path id="path6669" d="m 4894,2800 -51,0" style="fill:none;stroke:#000;stroke-width:50"/><path id="path6671" d="m 4792,2800 -51,0" style="fill:none;stroke:#000;stroke-width:50"/><path id="path6673" d="m 4690,2800 -51,0" style="fill:none;stroke:#000;stroke-width:50"/><path id="path6675" d="m 4588,2800 -38,0" style="fill:none;stroke:#000;stroke-width:50"/><path id="path6677" d="m 4200,2800 375,-187 0,375 -375,-188 z m 56,0 294,147 0,-294 -294,147 z" style="fill:#000;stroke:none"/></g></g><g id="g6679" class="com.sun.star.drawing.LineShape"><g id="id19"><path id="path6682" d="m 9200,2800 -51,0" style="fill:none;stroke:#000;stroke-width:50"/><path id="path6684" d="m 9098,2800 -51,0" style="fill:none;stroke:#000;stroke-width:50"/><path id="path6686" d="m 8996,2800 -51,0" style="fill:none;stroke:#000;stroke-width:50"/><path id="path6688" d="m 8894,2800 -51,0" style="fill:none;stroke:#000;stroke-width:50"/><path id="path6690" d="m 8792,2800 -51,0" style="fill:none;stroke:#000;stroke-width:50"/><path id="path6692" d="m 8690,2800 -51,0" style="fill:none;stroke:#000;stroke-width:50"/><path id="path6694" d="m 8588,2800 -38,0" style="fill:none;stroke:#000;stroke-width:50"/><path id="path6696" d="m 8200,2800 375,-187 0,375 -375,-188 z m 56,0 294,147 0,-294 -294,147 z" style="fill:#000;stroke:none"/></g></g><g id="g6698" class="com.sun.star.drawing.LineShape"><g id="id20"><path id="path6701" d="m 2700,3800 0,763" style="fill:none;stroke:#000;stroke-width:50"/><path id="path6703" d="m 2700,5100 188,-562 -375,0 187,562 z" style="fill:#000;stroke:none"/></g></g><g id="g6705" class="com.sun.star.drawing.LineShape"><g id="id21"><path id="path6708" d="m 6700,3800 0,763" style="fill:none;stroke:#000;stroke-width:50"/><path id="path6710" d="m 6700,5100 188,-562 -375,0 187,562 z" style="fill:#000;stroke:none"/></g></g><g id="g6712" class="com.sun.star.drawing.LineShape"><g id="id22"><path id="path6715" d="m 10800,3800 0,763" style="fill:none;stroke:#000;stroke-width:50"/><path id="path6717" d="m 10800,5100 188,-562 -375,0 187,562 z" style="fill:#000;stroke:none"/></g></g><g id="g6719" class="com.sun.star.drawing.TextShape"><g id="id23"><path id="path6722" d="m 19684,1967 -816,0 0,-733 1632,0 0,733 -816,0 z" style="fill:silver;stroke:none"/><text id="text6724" class="TextShape"><tspan id="tspan6726" class="TextParagraph" font-size="388" font-weight="400" style="font-size:388px;font-weight:400;font-family:'Arial, sans-serif'"><tspan id="tspan6728" x="19143" y="1735" class="TextPosition"><tspan id="tspan6730" style="fill:#000;stroke:none">HEAD</tspan></tspan></tspan></text></g></g><g id="g6732" class="com.sun.star.drawing.TextShape"><g id="id24"><path id="path6735" d="m 12137,2000 -869,0 0,-733 1737,0 0,733 -868,0 z" style="fill:silver;stroke:none"/><text id="text6737" class="TextShape"><tspan id="tspan6739" class="TextParagraph" font-size="388" font-weight="400" style="font-size:388px;font-weight:400;font-family:'Arial, sans-serif'"><tspan id="tspan6741" x="11543" y="1768" class="TextPosition"><tspan id="tspan6743" style="fill:#000;stroke:none">master</tspan></tspan></tspan></text></g></g><g id="g6745" class="com.sun.star.drawing.LineShape"><g id="id25"><path id="path6748" d="m 18600,1667 -462,0" style="fill:none;stroke:#000;stroke-width:50"/><path id="path6750" d="m 17600,1667 563,188 0,-375 -563,187 z" style="fill:#000;stroke:none"/></g></g><g id="g6752" class="com.sun.star.drawing.TextShape"><g id="id26"><path id="path6755" d="m 16621,2000 -858,0 0,-733 1716,0 0,733 -858,0 z" style="fill:silver;stroke:none"/><text id="text6757" class="TextShape"><tspan id="tspan6759" class="TextParagraph" font-size="388" font-weight="400" style="font-size:388px;font-weight:400;font-family:'Arial, sans-serif'"><tspan id="tspan6761" x="16038" y="1768" class="TextPosition"><tspan id="tspan6763" style="fill:#000;stroke:none">moons</tspan></tspan></tspan></text></g></g><g id="g6765" class="com.sun.star.drawing.CustomShape"><g id="id27"><path id="path6768" d="m 14225,2100 1250,0 626,700 -626,700 -1250,0 -625,-700 625,-700 z" style="fill:none;stroke:#000;stroke-width:50"/><text id="text6770" class="TextShape"><tspan id="tspan6772" class="TextParagraph" font-size="423" font-weight="400" style="font-size:423px;font-weight:400;font-family:'Arial, sans-serif'"><tspan id="tspan6774" x="14145" y="2946" class="TextPosition"><tspan id="tspan6776" style="fill:#000;stroke:none">62e779</tspan></tspan></tspan></text></g></g><g id="g6778" class="com.sun.star.drawing.CustomShape"><g id="id28"><path id="path6781" d="m 13159,5449 1400,0 0,1575 -175,225 -1225,0 0,-1800 z" style="fill:none;stroke:#000;stroke-width:50"/><path id="path6783" d="m 14384,7249 46,-225 c 44,33 42,14 129,0 l -175,225 z" style="fill:none;stroke:#000;stroke-width:50"/></g></g><g id="g6785" class="com.sun.star.drawing.TextShape"><g id="id29"><text id="text6788" class="TextShape"><tspan id="tspan6790" class="TextParagraph" font-size="388" font-weight="400" style="font-size:388px;font-weight:400;font-family:'Arial, sans-serif'"><tspan id="tspan6792" x="13168" y="8095" class="TextPosition"><tspan id="tspan6794" style="fill:#000;stroke:none">mars.txt</tspan></tspan></tspan></text></g></g><g id="g6796" class="com.sun.star.drawing.LineShape"><g id="id30"><path id="path6799" d="m 13409,5899 900,0" style="fill:none;stroke:#000;stroke-width:50"/></g></g><g id="g6801" class="com.sun.star.drawing.LineShape"><g id="id31"><path id="path6804" d="m 13409,6199 900,0" style="fill:none;stroke:#000;stroke-width:50"/></g></g><g id="g6806" class="com.sun.star.drawing.LineShape"><g id="id32"><path id="path6809" d="m 13409,6499 900,0" style="fill:none;stroke:#000;stroke-width:50"/></g></g><g id="g6811" class="com.sun.star.drawing.LineShape"><g id="id33"><path id="path6814" d="m 13300,2800 -51,0" style="fill:none;stroke:#000;stroke-width:50"/><path id="path6816" d="m 13198,2800 -51,0" style="fill:none;stroke:#000;stroke-width:50"/><path id="path6818" d="m 13096,2800 -51,0" style="fill:none;stroke:#000;stroke-width:50"/><path id="path6820" d="m 12994,2800 -51,0" style="fill:none;stroke:#000;stroke-width:50"/><path id="path6822" d="m 12892,2800 -51,0" style="fill:none;stroke:#000;stroke-width:50"/><path id="path6824" d="m 12790,2800 -51,0" style="fill:none;stroke:#000;stroke-width:50"/><path id="path6826" d="m 12688,2800 -38,0" style="fill:none;stroke:#000;stroke-width:50"/><path id="path6828" d="m 12300,2800 375,-187 0,375 -375,-188 z m 56,0 294,147 0,-294 -294,147 z" style="fill:#000;stroke:none"/></g></g><g id="g6830" class="com.sun.star.drawing.LineShape"><g id="id34"><path id="path6833" d="m 14900,3800 -577,770" style="fill:none;stroke:#000;stroke-width:50"/><path id="path6835" d="m 14000,5000 488,-337 -300,-225 -188,562 z" style="fill:#000;stroke:none"/></g></g><g id="g6837" class="com.sun.star.drawing.LineShape"><g id="id35"><path id="path6840" d="m 13409,6799 900,0" style="fill:none;stroke:#000;stroke-width:50"/></g></g><g id="g6842" class="com.sun.star.drawing.CustomShape"><g id="id36"><path id="path6845" d="m 15259,5450 1400,0 0,1575 -175,225 -1225,0 0,-1800 z" style="fill:none;stroke:#000;stroke-width:50"/><path id="path6847" d="m 16484,7250 46,-225 c 44,33 42,14 129,0 l -175,225 z" style="fill:none;stroke:#000;stroke-width:50"/></g></g><g id="g6849" class="com.sun.star.drawing.TextShape"><g id="id37"><text id="text6852" class="TextShape"><tspan id="tspan6854" class="TextParagraph" font-size="388" font-weight="400" style="font-size:388px;font-weight:400;font-family:'Arial, sans-serif'"><tspan id="tspan6856" x="15268" y="8096" class="TextPosition"><tspan id="tspan6858" style="fill:#000;stroke:none">moons.txt</tspan></tspan></tspan></text></g></g><g id="g6860" class="com.sun.star.drawing.LineShape"><g id="id38"><path id="path6863" d="m 15509,5900 900,0" style="fill:none;stroke:#000;stroke-width:50"/></g></g><g id="g6865" class="com.sun.star.drawing.LineShape"><g id="id39"><path id="path6868" d="m 15509,6200 900,0" style="fill:none;stroke:#000;stroke-width:50"/></g></g><g id="g6870" class="com.sun.star.drawing.LineShape"><g id="id40"><path id="path6873" d="m 15509,6500 900,0" style="fill:none;stroke:#000;stroke-width:50"/></g></g><g id="g6875" class="com.sun.star.drawing.LineShape"><g id="id41"><path id="path6878" d="m 15509,6800 900,0" style="fill:none;stroke:#000;stroke-width:50"/></g></g><g id="g6880" class="com.sun.star.drawing.LineShape"><g id="id42"><path id="path6883" d="m 14900,3800 578,770" style="fill:none;stroke:#000;stroke-width:50"/><path id="path6885" d="m 15800,5000 -187,-562 -300,225 487,337 z" style="fill:#000;stroke:none"/></g></g></g></g></g></g></svg>