<svg xmlns="http://www.w3.org/2000/svg" xmlns:ooo="http://xml.openoffice.org/svg/export" xmlns:svg="http://www.w3.org/2000/svg" id="svg2" width="518.209" height="242.098" clip-path="url(#presentation_clip_path)" style="fill-rule:evenodd;stroke-width:28.22200012;stroke-linejoin:round" preserveAspectRatio="xMidYMid" version="1.2" viewBox="0 0 14625.001 6832.547" xml:space="preserve"><metadata id="metadata273"/><defs id="defs4" class="ClipPathGroup"><clipPath id="presentation_clip_path" clipPathUnits="userSpaceOnUse"><rect id="rect7" width="21590" height="27940" x="0" y="0"/></clipPath></defs><defs id="defs13" class="EmbeddedBulletChars"><g id="bullet-char-template(57356)" transform="scale(4.8828125e-4,-4.8828125e-4)"><path id="path16" d="M 580,1141 1163,571 580,0 -4,571 580,1141 z"/></g><g id="bullet-char-template(57354)" transform="scale(4.8828125e-4,-4.8828125e-4)"><path id="path19" d="m 8,1128 1129,0 L 1137,0 8,0 8,1128 z"/></g><g id="bullet-char-template(10146)" transform="scale(4.8828125e-4,-4.8828125e-4)"><path id="path22" d="M 174,0 602,739 174,1481 1456,739 174,0 z m 1184,739 -1049,607 350,-607 699,0 z"/></g><g id="bullet-char-template(10132)" transform="scale(4.8828125e-4,-4.8828125e-4)"><path id="path25" d="M 2015,739 1276,0 717,0 l 543,543 -1086,0 0,393 1086,0 -543,545 557,0 741,-742 z"/></g><g id="bullet-char-template(10007)" transform="scale(4.8828125e-4,-4.8828125e-4)"><path id="path28" d="m 0,-2 c -7,16 -16,29 -25,39 l 381,530 c -94,256 -141,385 -141,387 0,25 13,38 40,38 9,0 21,-2 34,-5 21,4 42,12 65,25 l 27,-13 111,-251 280,301 64,-25 24,25 c 21,-10 41,-24 62,-43 C 886,937 835,863 770,784 769,783 710,716 594,584 L 774,223 c 0,-27 -21,-55 -63,-84 l 16,-20 C 717,90 699,76 672,76 641,76 570,178 457,381 L 164,-76 c -22,-34 -53,-51 -92,-51 -42,0 -63,17 -64,51 -7,9 -10,24 -10,44 0,9 1,19 2,30 z"/></g><g id="bullet-char-template(10004)" transform="scale(4.8828125e-4,-4.8828125e-4)"><path id="path31" d="M 285,-33 C 182,-33 111,30 74,156 52,228 41,333 41,471 c 0,78 14,145 41,201 34,71 87,106 158,106 53,0 88,-31 106,-94 l 23,-176 c 8,-64 28,-97 59,-98 l 735,706 c 11,11 33,17 66,17 42,0 63,-15 63,-46 l 0,-122 c 0,-36 -10,-64 -30,-84 L 442,47 C 390,-6 338,-33 285,-33 z"/></g><g id="bullet-char-template(9679)" transform="scale(4.8828125e-4,-4.8828125e-4)"><path id="path34" d="M 813,0 C 632,0 489,54 383,161 276,268 223,411 223,592 c 0,181 53,324 160,431 106,107 249,161 430,161 179,0 323,-54 432,-161 108,-107 162,-251 162,-431 0,-180 -54,-324 -162,-431 C 1136,54 992,0 813,0 z"/></g><g id="bullet-char-template(8226)" transform="scale(4.8828125e-4,-4.8828125e-4)"><path id="path37" d="m 346,457 c -73,0 -137,26 -191,78 -54,51 -81,114 -81,188 0,73 27,136 81,188 54,52 118,78 191,78 73,0 134,-26 185,-79 51,-51 77,-114 77,-187 0,-75 -25,-137 -76,-188 -50,-52 -112,-78 -186,-78 z"/></g><g id="bullet-char-template(8211)" transform="scale(4.8828125e-4,-4.8828125e-4)"><path id="path40" d="m -4,459 1139,0 0,147 -1139,0 0,-147 z"/></g></defs><g id="g49" class="SlideGroup" transform="translate(-1475,-1267)"><g id="g51"><g id="id1" class="Slide" clip-path="url(#presentation_clip_path)"><g id="g54" class="Page"><g id="g56" class="com.sun.star.drawing.CustomShape"><g id="id3"><path id="path59" d="m 1959,5447 1400,0 0,1575 -175,225 -1225,0 0,-1800 z" style="fill:none;stroke:#000;stroke-width:50"/><path id="path61" d="m 3184,7247 46,-225 c 44,33 42,14 129,0 l -175,225 z" style="fill:none;stroke:#000;stroke-width:50"/></g></g><g id="g63" class="com.sun.star.drawing.TextShape"><g id="id4"><text id="text66" class="TextShape"><tspan id="tspan68" class="TextParagraph" font-size="388" font-weight="400" style="font-size:388px;font-weight:400;font-family:'Arial, sans-serif'"><tspan id="tspan70" x="1968" y="8093" class="TextPosition"><tspan id="tspan72" style="fill:#000;stroke:none">mars.txt</tspan></tspan></tspan></text></g></g><g id="g74" class="com.sun.star.drawing.LineShape"><g id="id5"><path id="path77" d="m 2209,5897 900,0" style="fill:none;stroke:#000;stroke-width:50"/></g></g><g id="g79" class="com.sun.star.drawing.CustomShape"><g id="id6"><path id="path82" d="m 2125,2100 1250,0 626,700 -626,700 -1250,0 -625,-700 625,-700 z" style="fill:none;stroke:#000;stroke-width:50"/><text id="text84" class="TextShape"><tspan id="tspan86" class="TextParagraph" font-size="423" font-weight="400" style="font-size:423px;font-weight:400;font-family:'Arial, sans-serif'"><tspan id="tspan88" x="2045" y="2946" class="TextPosition"><tspan id="tspan90" style="fill:#000;stroke:none">005937</tspan></tspan></tspan></text></g></g><g id="g92" class="com.sun.star.drawing.CustomShape"><g id="id7"><path id="path95" d="m 6125,2100 1250,0 626,700 -626,700 -1250,0 -625,-700 625,-700 z" style="fill:none;stroke:#000;stroke-width:50"/><text id="text97" class="TextShape"><tspan id="tspan99" class="TextParagraph" font-size="423" font-weight="400" style="font-size:423px;font-weight:400;font-family:'Arial, sans-serif'"><tspan id="tspan101" x="6045" y="2946" class="TextPosition"><tspan id="tspan103" style="fill:#000;stroke:none">34961b</tspan></tspan></tspan></text></g></g><g id="g105" class="com.sun.star.drawing.CustomShape"><g id="id8"><path id="path108" d="m 10125,2100 1250,0 626,700 -626,700 -1250,0 -625,-700 625,-700 z" style="fill:none;stroke:#000;stroke-width:50"/><text id="text110" class="TextShape"><tspan id="tspan112" class="TextParagraph" font-size="423" font-weight="400" style="font-size:423px;font-weight:400;font-family:'Arial, sans-serif'"><tspan id="tspan114" x="10102" y="2946" class="TextPosition"><tspan id="tspan116" style="fill:#000;stroke:none">f22b25</tspan></tspan></tspan></text></g></g><g id="g118" class="com.sun.star.drawing.CustomShape"><g id="id9"><path id="path121" d="m 5959,5448 1400,0 0,1575 -175,225 -1225,0 0,-1800 z" style="fill:none;stroke:#000;stroke-width:50"/><path id="path123" d="m 7184,7248 46,-225 c 44,33 42,14 129,0 l -175,225 z" style="fill:none;stroke:#000;stroke-width:50"/></g></g><g id="g125" class="com.sun.star.drawing.TextShape"><g id="id10"><text id="text128" class="TextShape"><tspan id="tspan130" class="TextParagraph" font-size="388" font-weight="400" style="font-size:388px;font-weight:400;font-family:'Arial, sans-serif'"><tspan id="tspan132" x="5968" y="8094" class="TextPosition"><tspan id="tspan134" style="fill:#000;stroke:none">mars.txt</tspan></tspan></tspan></text></g></g><g id="g136" class="com.sun.star.drawing.LineShape"><g id="id11"><path id="path139" d="m 6209,5898 900,0" style="fill:none;stroke:#000;stroke-width:50"/></g></g><g id="g141" class="com.sun.star.drawing.LineShape"><g id="id12"><path id="path144" d="m 6209,6198 900,0" style="fill:none;stroke:#000;stroke-width:50"/></g></g><g id="g146" class="com.sun.star.drawing.CustomShape"><g id="id13"><path id="path149" d="m 10059,5449 1400,0 0,1575 -175,225 -1225,0 0,-1800 z" style="fill:none;stroke:#000;stroke-width:50"/><path id="path151" d="m 11284,7249 46,-225 c 44,33 42,14 129,0 l -175,225 z" style="fill:none;stroke:#000;stroke-width:50"/></g></g><g id="g153" class="com.sun.star.drawing.TextShape"><g id="id14"><text id="text156" class="TextShape"><tspan id="tspan158" class="TextParagraph" font-size="388" font-weight="400" style="font-size:388px;font-weight:400;font-family:'Arial, sans-serif'"><tspan id="tspan160" x="10068" y="8095" class="TextPosition"><tspan id="tspan162" style="fill:#000;stroke:none">mars.txt</tspan></tspan></tspan></text></g></g><g id="g164" class="com.sun.star.drawing.LineShape"><g id="id15"><path id="path167" d="m 10309,5899 900,0" style="fill:none;stroke:#000;stroke-width:50"/></g></g><g id="g169" class="com.sun.star.drawing.LineShape"><g id="id16"><path id="path172" d="m 10309,6199 900,0" style="fill:none;stroke:#000;stroke-width:50"/></g></g><g id="g174" class="com.sun.star.drawing.LineShape"><g id="id17"><path id="path177" d="m 10309,6499 900,0" style="fill:none;stroke:#000;stroke-width:50"/></g></g><g id="g179" class="com.sun.star.drawing.LineShape"><g id="id18"><path id="path182" d="m 5200,2800 -51,0" style="fill:none;stroke:#000;stroke-width:50"/><path id="path184" d="m 5098,2800 -51,0" style="fill:none;stroke:#000;stroke-width:50"/><path id="path186" d="m 4996,2800 -51,0" style="fill:none;stroke:#000;stroke-width:50"/><path id="path188" d="m 4894,2800 -51,0" style="fill:none;stroke:#000;stroke-width:50"/><path id="path190" d="m 4792,2800 -51,0" style="fill:none;stroke:#000;stroke-width:50"/><path id="path192" d="m 4690,2800 -51,0" style="fill:none;stroke:#000;stroke-width:50"/><path id="path194" d="m 4588,2800 -38,0" style="fill:none;stroke:#000;stroke-width:50"/><path id="path196" d="m 4200,2800 375,-187 0,375 -375,-188 z m 56,0 294,147 0,-294 -294,147 z" style="fill:#000;stroke:none"/></g></g><g id="g198" class="com.sun.star.drawing.LineShape"><g id="id19"><path id="path201" d="m 9200,2800 -51,0" style="fill:none;stroke:#000;stroke-width:50"/><path id="path203" d="m 9098,2800 -51,0" style="fill:none;stroke:#000;stroke-width:50"/><path id="path205" d="m 8996,2800 -51,0" style="fill:none;stroke:#000;stroke-width:50"/><path id="path207" d="m 8894,2800 -51,0" style="fill:none;stroke:#000;stroke-width:50"/><path id="path209" d="m 8792,2800 -51,0" style="fill:none;stroke:#000;stroke-width:50"/><path id="path211" d="m 8690,2800 -51,0" style="fill:none;stroke:#000;stroke-width:50"/><path id="path213" d="m 8588,2800 -38,0" style="fill:none;stroke:#000;stroke-width:50"/><path id="path215" d="m 8200,2800 375,-187 0,375 -375,-188 z m 56,0 294,147 0,-294 -294,147 z" style="fill:#000;stroke:none"/></g></g><g id="g217" class="com.sun.star.drawing.LineShape"><g id="id20"><path id="path220" d="m 2700,3800 0,763" style="fill:none;stroke:#000;stroke-width:50"/><path id="path222" d="m 2700,5100 188,-562 -375,0 187,562 z" style="fill:#000;stroke:none"/></g></g><g id="g224" class="com.sun.star.drawing.LineShape"><g id="id21"><path id="path227" d="m 6700,3800 0,763" style="fill:none;stroke:#000;stroke-width:50"/><path id="path229" d="m 6700,5100 188,-562 -375,0 187,562 z" style="fill:#000;stroke:none"/></g></g><g id="g231" class="com.sun.star.drawing.LineShape"><g id="id22"><path id="path234" d="m 10800,3800 0,763" style="fill:none;stroke:#000;stroke-width:50"/><path id="path236" d="m 10800,5100 188,-562 -375,0 187,562 z" style="fill:#000;stroke:none"/></g></g><g id="g238" class="com.sun.star.drawing.TextShape"><g id="id23"><path id="path241" d="m 15284,2000 -816,0 0,-733 1632,0 0,733 -816,0 z" style="fill:silver;stroke:none"/><text id="text243" class="TextShape"><tspan id="tspan245" class="TextParagraph" font-size="388" font-weight="400" style="font-size:388px;font-weight:400;font-family:'Arial, sans-serif'"><tspan id="tspan247" x="14743" y="1768" class="TextPosition"><tspan id="tspan249" style="fill:#000;stroke:none">HEAD</tspan></tspan></tspan></text></g></g><g id="g251" class="com.sun.star.drawing.TextShape"><g id="id24"><path id="path254" d="m 12137,2000 -869,0 0,-733 1737,0 0,733 -868,0 z" style="fill:silver;stroke:none"/><text id="text256" class="TextShape"><tspan id="tspan258" class="TextParagraph" font-size="388" font-weight="400" style="font-size:388px;font-weight:400;font-family:'Arial, sans-serif'"><tspan id="tspan260" x="11543" y="1768" class="TextPosition"><tspan id="tspan262" style="fill:#000;stroke:none">master</tspan></tspan></tspan></text></g></g><g id="g264" class="com.sun.star.drawing.LineShape"><g id="id25"><path id="path267" d="m 14200,1700 -462,0" style="fill:none;stroke:#000;stroke-width:50"/><path id="path269" d="m 13200,1700 563,188 0,-375 -563,187 z" style="fill:#000;stroke:none"/></g></g></g></g></g></g></svg>