<svg xmlns="http://www.w3.org/2000/svg" xmlns:ooo="http://xml.openoffice.org/svg/export" xmlns:svg="http://www.w3.org/2000/svg" id="svg9833" width="681.626" height="562.094" clip-path="url(#presentation_clip_path)" style="fill-rule:evenodd;stroke-width:28.22200012;stroke-linejoin:round" preserveAspectRatio="xMidYMid" version="1.2" viewBox="0 0 19237 15863.547" xml:space="preserve"><metadata id="metadata10781"/><defs id="defs9835" class="ClipPathGroup"><clipPath id="presentation_clip_path" clipPathUnits="userSpaceOnUse"><rect id="rect9838" width="21590" height="27940" x="0" y="0"/></clipPath></defs><defs id="defs9844" class="EmbeddedBulletChars"><g id="bullet-char-template(57356)" transform="scale(4.8828125e-4,-4.8828125e-4)"><path id="path9847" d="M 580,1141 1163,571 580,0 -4,571 580,1141 z"/></g><g id="bullet-char-template(57354)" transform="scale(4.8828125e-4,-4.8828125e-4)"><path id="path9850" d="m 8,1128 1129,0 L 1137,0 8,0 8,1128 z"/></g><g id="bullet-char-template(10146)" transform="scale(4.8828125e-4,-4.8828125e-4)"><path id="path9853" d="M 174,0 602,739 174,1481 1456,739 174,0 z m 1184,739 -1049,607 350,-607 699,0 z"/></g><g id="bullet-char-template(10132)" transform="scale(4.8828125e-4,-4.8828125e-4)"><path id="path9856" d="M 2015,739 1276,0 717,0 l 543,543 -1086,0 0,393 1086,0 -543,545 557,0 741,-742 z"/></g><g id="bullet-char-template(10007)" transform="scale(4.8828125e-4,-4.8828125e-4)"><path id="path9859" d="m 0,-2 c -7,16 -16,29 -25,39 l 381,530 c -94,256 -141,385 -141,387 0,25 13,38 40,38 9,0 21,-2 34,-5 21,4 42,12 65,25 l 27,-13 111,-251 280,301 64,-25 24,25 c 21,-10 41,-24 62,-43 C 886,937 835,863 770,784 769,783 710,716 594,584 L 774,223 c 0,-27 -21,-55 -63,-84 l 16,-20 C 717,90 699,76 672,76 641,76 570,178 457,381 L 164,-76 c -22,-34 -53,-51 -92,-51 -42,0 -63,17 -64,51 -7,9 -10,24 -10,44 0,9 1,19 2,30 z"/></g><g id="bullet-char-template(10004)" transform="scale(4.8828125e-4,-4.8828125e-4)"><path id="path9862" d="M 285,-33 C 182,-33 111,30 74,156 52,228 41,333 41,471 c 0,78 14,145 41,201 34,71 87,106 158,106 53,0 88,-31 106,-94 l 23,-176 c 8,-64 28,-97 59,-98 l 735,706 c 11,11 33,17 66,17 42,0 63,-15 63,-46 l 0,-122 c 0,-36 -10,-64 -30,-84 L 442,47 C 390,-6 338,-33 285,-33 z"/></g><g id="bullet-char-template(9679)" transform="scale(4.8828125e-4,-4.8828125e-4)"><path id="path9865" d="M 813,0 C 632,0 489,54 383,161 276,268 223,411 223,592 c 0,181 53,324 160,431 106,107 249,161 430,161 179,0 323,-54 432,-161 108,-107 162,-251 162,-431 0,-180 -54,-324 -162,-431 C 1136,54 992,0 813,0 z"/></g><g id="bullet-char-template(8226)" transform="scale(4.8828125e-4,-4.8828125e-4)"><path id="path9868" d="m 346,457 c -73,0 -137,26 -191,78 -54,51 -81,114 -81,188 0,73 27,136 81,188 54,52 118,78 191,78 73,0 134,-26 185,-79 51,-51 77,-114 77,-187 0,-75 -25,-137 -76,-188 -50,-52 -112,-78 -186,-78 z"/></g><g id="bullet-char-template(8211)" transform="scale(4.8828125e-4,-4.8828125e-4)"><path id="path9871" d="m -4,459 1139,0 0,147 -1139,0 0,-147 z"/></g></defs><g id="g9880" class="SlideGroup" transform="translate(-1200,-1034)"><g id="g9882"><g id="id1" class="Slide" clip-path="url(#presentation_clip_path)"><g id="g9885" class="Page"><g id="g9887" class="com.sun.star.drawing.CustomShape"><g id="id3"><path id="path9890" d="m 3125,6797 1250,0 626,700 -626,700 -1250,0 -625,-700 625,-700 z" style="fill:none;stroke:#000;stroke-width:50"/><text id="text9892" class="TextShape"><tspan id="tspan9894" class="TextParagraph" font-size="423" font-weight="400" style="font-size:423px;font-weight:400;font-family:'Arial, sans-serif'"><tspan id="tspan9896" x="3102" y="7643" class="TextPosition"><tspan id="tspan9898" style="fill:#000;stroke:none">f22b25</tspan></tspan></tspan></text></g></g><g id="g9900" class="com.sun.star.drawing.CustomShape"><g id="id4"><path id="path9903" d="m 3059,10146 1400,0 0,1575 -175,225 -1225,0 0,-1800 z" style="fill:none;stroke:#000;stroke-width:50"/><path id="path9905" d="m 4284,11946 46,-225 c 44,33 42,14 129,0 l -175,225 z" style="fill:none;stroke:#000;stroke-width:50"/></g></g><g id="g9907" class="com.sun.star.drawing.TextShape"><g id="id5"><text id="text9910" class="TextShape"><tspan id="tspan9912" class="TextParagraph" font-size="388" font-weight="400" style="font-size:388px;font-weight:400;font-family:'Arial, sans-serif'"><tspan id="tspan9914" x="3068" y="12792" class="TextPosition"><tspan id="tspan9916" style="fill:#000;stroke:none">mars.txt</tspan></tspan></tspan></text></g></g><g id="g9918" class="com.sun.star.drawing.LineShape"><g id="id6"><path id="path9921" d="m 3309,10596 900,0" style="fill:none;stroke:#000;stroke-width:50"/></g></g><g id="g9923" class="com.sun.star.drawing.LineShape"><g id="id7"><path id="path9926" d="m 3309,10896 900,0" style="fill:none;stroke:#000;stroke-width:50"/></g></g><g id="g9928" class="com.sun.star.drawing.LineShape"><g id="id8"><path id="path9931" d="m 3309,11196 900,0" style="fill:none;stroke:#000;stroke-width:50"/></g></g><g id="g9933" class="com.sun.star.drawing.LineShape"><g id="id9"><path id="path9936" d="m 2200,7497 -51,0" style="fill:none;stroke:#000;stroke-width:50"/><path id="path9938" d="m 2098,7497 -51,0" style="fill:none;stroke:#000;stroke-width:50"/><path id="path9940" d="m 1996,7497 -51,0" style="fill:none;stroke:#000;stroke-width:50"/><path id="path9942" d="m 1894,7497 -51,0" style="fill:none;stroke:#000;stroke-width:50"/><path id="path9944" d="m 1792,7497 -51,0" style="fill:none;stroke:#000;stroke-width:50"/><path id="path9946" d="m 1690,7497 -51,0" style="fill:none;stroke:#000;stroke-width:50"/><path id="path9948" d="m 1588,7497 -38,0" style="fill:none;stroke:#000;stroke-width:50"/><path id="path9950" d="m 1200,7497 375,-187 0,375 -375,-188 z m 56,0 294,147 0,-294 -294,147 z" style="fill:#000;stroke:none"/></g></g><g id="g9952" class="com.sun.star.drawing.LineShape"><g id="id10"><path id="path9955" d="m 3800,8497 0,763" style="fill:none;stroke:#000;stroke-width:50"/><path id="path9957" d="m 3800,9797 188,-562 -375,0 187,562 z" style="fill:#000;stroke:none"/></g></g><g id="g9959" class="com.sun.star.drawing.TextShape"><g id="id11"><path id="path9962" d="m 11142,11200 -858,0 0,-733 1716,0 0,733 -858,0 z" style="fill:silver;stroke:none"/><text id="text9964" class="TextShape"><tspan id="tspan9966" class="TextParagraph" font-size="388" font-weight="400" style="font-size:388px;font-weight:400;font-family:'Arial, sans-serif'"><tspan id="tspan9968" x="10559" y="10968" class="TextPosition"><tspan id="tspan9970" style="fill:#000;stroke:none">moons</tspan></tspan></tspan></text></g></g><g id="g9972" class="com.sun.star.drawing.CustomShape"><g id="id12"><path id="path9975" d="m 8425,10897 1250,0 626,700 -626,700 -1250,0 -625,-700 625,-700 z" style="fill:none;stroke:#000;stroke-width:50"/><text id="text9977" class="TextShape"><tspan id="tspan9979" class="TextParagraph" font-size="423" font-weight="400" style="font-size:423px;font-weight:400;font-family:'Arial, sans-serif'"><tspan id="tspan9981" x="8345" y="11743" class="TextPosition"><tspan id="tspan9983" style="fill:#000;stroke:none">62e779</tspan></tspan></tspan></text></g></g><g id="g9985" class="com.sun.star.drawing.CustomShape"><g id="id13"><path id="path9988" d="m 7359,14246 1400,0 0,1575 -175,225 -1225,0 0,-1800 z" style="fill:none;stroke:#000;stroke-width:50"/><path id="path9990" d="m 8584,16046 46,-225 c 44,33 42,14 129,0 l -175,225 z" style="fill:none;stroke:#000;stroke-width:50"/></g></g><g id="g9992" class="com.sun.star.drawing.TextShape"><g id="id14"><text id="text9995" class="TextShape"><tspan id="tspan9997" class="TextParagraph" font-size="388" font-weight="400" style="font-size:388px;font-weight:400;font-family:'Arial, sans-serif'"><tspan id="tspan9999" x="7368" y="16892" class="TextPosition"><tspan id="tspan10001" style="fill:#000;stroke:none">mars.txt</tspan></tspan></tspan></text></g></g><g id="g10003" class="com.sun.star.drawing.LineShape"><g id="id15"><path id="path10006" d="m 7609,14696 900,0" style="fill:none;stroke:#000;stroke-width:50"/></g></g><g id="g10008" class="com.sun.star.drawing.LineShape"><g id="id16"><path id="path10011" d="m 7609,14996 900,0" style="fill:none;stroke:#000;stroke-width:50"/></g></g><g id="g10013" class="com.sun.star.drawing.LineShape"><g id="id17"><path id="path10016" d="m 7609,15296 900,0" style="fill:none;stroke:#000;stroke-width:50"/></g></g><g id="g10018" class="com.sun.star.drawing.LineShape"><g id="id18"><path id="path10021" d="m 7900,11100 -35,-37" style="fill:none;stroke:#000;stroke-width:50"/><path id="path10023" d="m 7830,11026 -35,-38" style="fill:none;stroke:#000;stroke-width:50"/><path id="path10025" d="m 7760,10951 -34,-37" style="fill:none;stroke:#000;stroke-width:50"/><path id="path10027" d="m 7691,10877 -35,-37" style="fill:none;stroke:#000;stroke-width:50"/><path id="path10029" d="m 7621,10802 -35,-37" style="fill:none;stroke:#000;stroke-width:50"/><path id="path10031" d="m 7551,10728 -35,-37" style="fill:none;stroke:#000;stroke-width:50"/><path id="path10033" d="m 7481,10654 -34,-38" style="fill:none;stroke:#000;stroke-width:50"/><path id="path10035" d="m 7412,10579 -35,-37" style="fill:none;stroke:#000;stroke-width:50"/><path id="path10037" d="m 7342,10505 -35,-38" style="fill:none;stroke:#000;stroke-width:50"/><path id="path10039" d="m 7272,10430 -35,-37" style="fill:none;stroke:#000;stroke-width:50"/><path id="path10041" d="m 7202,10356 -35,-37" style="fill:none;stroke:#000;stroke-width:50"/><path id="path10043" d="m 7133,10281 -35,-37" style="fill:none;stroke:#000;stroke-width:50"/><path id="path10045" d="m 7063,10207 -35,-37" style="fill:none;stroke:#000;stroke-width:50"/><path id="path10047" d="m 6993,10133 -35,-38" style="fill:none;stroke:#000;stroke-width:50"/><path id="path10049" d="m 6923,10058 -35,-37" style="fill:none;stroke:#000;stroke-width:50"/><path id="path10051" d="m 6854,9984 -35,-37" style="fill:none;stroke:#000;stroke-width:50"/><path id="path10053" d="m 6784,9909 -35,-37" style="fill:none;stroke:#000;stroke-width:50"/><path id="path10055" d="m 6714,9835 -35,-37" style="fill:none;stroke:#000;stroke-width:50"/><path id="path10057" d="m 6644,9761 -35,-38" style="fill:none;stroke:#000;stroke-width:50"/><path id="path10059" d="m 6575,9686 -35,-37" style="fill:none;stroke:#000;stroke-width:50"/><path id="path10061" d="m 6505,9612 -35,-37" style="fill:none;stroke:#000;stroke-width:50"/><path id="path10063" d="m 6435,9537 -35,-37" style="fill:none;stroke:#000;stroke-width:50"/><path id="path10065" d="m 6365,9463 -35,-37" style="fill:none;stroke:#000;stroke-width:50"/><path id="path10067" d="m 6295,9389 -34,-38" style="fill:none;stroke:#000;stroke-width:50"/><path id="path10069" d="m 6226,9314 -35,-37" style="fill:none;stroke:#000;stroke-width:50"/><path id="path10071" d="m 6156,9240 -35,-38" style="fill:none;stroke:#000;stroke-width:50"/><path id="path10073" d="m 6086,9165 -35,-37" style="fill:none;stroke:#000;stroke-width:50"/><path id="path10075" d="m 6016,9091 -34,-37" style="fill:none;stroke:#000;stroke-width:50"/><path id="path10077" d="m 5947,9016 -35,-37" style="fill:none;stroke:#000;stroke-width:50"/><path id="path10079" d="m 5877,8942 -35,-37" style="fill:none;stroke:#000;stroke-width:50"/><path id="path10081" d="m 5807,8868 -35,-38" style="fill:none;stroke:#000;stroke-width:50"/><path id="path10083" d="m 5737,8793 -35,-37" style="fill:none;stroke:#000;stroke-width:50"/><path id="path10085" d="m 5668,8719 -35,-37" style="fill:none;stroke:#000;stroke-width:50"/><path id="path10087" d="m 5598,8644 -35,-37" style="fill:none;stroke:#000;stroke-width:50"/><path id="path10089" d="m 5528,8570 -35,-37" style="fill:none;stroke:#000;stroke-width:50"/><path id="path10091" d="m 5458,8496 -35,-38" style="fill:none;stroke:#000;stroke-width:50"/><path id="path10093" d="m 5389,8421 -35,-37" style="fill:none;stroke:#000;stroke-width:50"/><path id="path10095" d="m 5319,8347 -35,-37" style="fill:none;stroke:#000;stroke-width:50"/><path id="path10097" d="m 5249,8272 -35,-37" style="fill:none;stroke:#000;stroke-width:50"/><path id="path10099" d="m 5179,8198 -35,-37" style="fill:none;stroke:#000;stroke-width:50"/><path id="path10101" d="m 4900,7900 393,145 -273,257 -120,-402 z m 38,41 94,315 215,-201 -309,-114 z" style="fill:#000;stroke:none"/></g></g><g id="g10103" class="com.sun.star.drawing.LineShape"><g id="id19"><path id="path10106" d="m 9100,12597 -577,770" style="fill:none;stroke:#000;stroke-width:50"/><path id="path10108" d="m 8200,13797 488,-337 -300,-225 -188,562 z" style="fill:#000;stroke:none"/></g></g><g id="g10110" class="com.sun.star.drawing.LineShape"><g id="id20"><path id="path10113" d="m 7609,15596 900,0" style="fill:none;stroke:#000;stroke-width:50"/></g></g><g id="g10115" class="com.sun.star.drawing.CustomShape"><g id="id21"><path id="path10118" d="m 9459,14247 1400,0 0,1575 -175,225 -1225,0 0,-1800 z" style="fill:none;stroke:#000;stroke-width:50"/><path id="path10120" d="m 10684,16047 46,-225 c 44,33 42,14 129,0 l -175,225 z" style="fill:none;stroke:#000;stroke-width:50"/></g></g><g id="g10122" class="com.sun.star.drawing.TextShape"><g id="id22"><text id="text10125" class="TextShape"><tspan id="tspan10127" class="TextParagraph" font-size="388" font-weight="400" style="font-size:388px;font-weight:400;font-family:'Arial, sans-serif'"><tspan id="tspan10129" x="9468" y="16893" class="TextPosition"><tspan id="tspan10131" style="fill:#000;stroke:none">moons.txt</tspan></tspan></tspan></text></g></g><g id="g10133" class="com.sun.star.drawing.LineShape"><g id="id23"><path id="path10136" d="m 9709,14697 900,0" style="fill:none;stroke:#000;stroke-width:50"/></g></g><g id="g10138" class="com.sun.star.drawing.LineShape"><g id="id24"><path id="path10141" d="m 9709,14997 900,0" style="fill:none;stroke:#000;stroke-width:50"/></g></g><g id="g10143" class="com.sun.star.drawing.LineShape"><g id="id25"><path id="path10146" d="m 9709,15297 900,0" style="fill:none;stroke:#000;stroke-width:50"/></g></g><g id="g10148" class="com.sun.star.drawing.LineShape"><g id="id26"><path id="path10151" d="m 9709,15597 900,0" style="fill:none;stroke:#000;stroke-width:50"/></g></g><g id="g10153" class="com.sun.star.drawing.LineShape"><g id="id27"><path id="path10156" d="m 9100,12597 578,770" style="fill:none;stroke:#000;stroke-width:50"/><path id="path10158" d="m 10000,13797 -187,-562 -300,225 487,337 z" style="fill:#000;stroke:none"/></g></g><g id="g10160" class="com.sun.star.drawing.TextShape"><g id="id28"><path id="path10163" d="m 19621,1767 -816,0 0,-733 1632,0 0,733 -816,0 z" style="fill:silver;stroke:none"/><text id="text10165" class="TextShape"><tspan id="tspan10167" class="TextParagraph" font-size="388" font-weight="400" style="font-size:388px;font-weight:400;font-family:'Arial, sans-serif'"><tspan id="tspan10169" x="19080" y="1535" class="TextPosition"><tspan id="tspan10171" style="fill:#000;stroke:none">HEAD</tspan></tspan></tspan></text></g></g><g id="g10173" class="com.sun.star.drawing.LineShape"><g id="id29"><path id="path10176" d="m 18537,1467 -462,0" style="fill:none;stroke:#000;stroke-width:50"/><path id="path10178" d="m 17537,1467 563,188 0,-375 -563,187 z" style="fill:#000;stroke:none"/></g></g><g id="g10180" class="com.sun.star.drawing.TextShape"><g id="id30"><path id="path10183" d="m 16569,1800 -869,0 0,-733 1737,0 0,733 -868,0 z" style="fill:silver;stroke:none"/><text id="text10185" class="TextShape"><tspan id="tspan10187" class="TextParagraph" font-size="388" font-weight="400" style="font-size:388px;font-weight:400;font-family:'Arial, sans-serif'"><tspan id="tspan10189" x="15975" y="1568" class="TextPosition"><tspan id="tspan10191" style="fill:#000;stroke:none">master</tspan></tspan></tspan></text></g></g><g id="g10193" class="com.sun.star.drawing.CustomShape"><g id="id31"><path id="path10196" d="m 8425,2066 1250,0 626,700 -626,700 -1250,0 -625,-700 625,-700 z" style="fill:none;stroke:#000;stroke-width:50"/><text id="text10198" class="TextShape"><tspan id="tspan10200" class="TextParagraph" font-size="423" font-weight="400" style="font-size:423px;font-weight:400;font-family:'Arial, sans-serif'"><tspan id="tspan10202" x="8415" y="2912" class="TextPosition"><tspan id="tspan10204" style="fill:#000;stroke:none">dfc908</tspan></tspan></tspan></text></g></g><g id="g10206" class="com.sun.star.drawing.CustomShape"><g id="id32"><path id="path10209" d="m 7259,5415 1400,0 0,1575 -175,225 -1225,0 0,-1800 z" style="fill:none;stroke:#000;stroke-width:50"/><path id="path10211" d="m 8484,7215 46,-225 c 44,33 42,14 129,0 l -175,225 z" style="fill:none;stroke:#000;stroke-width:50"/></g></g><g id="g10213" class="com.sun.star.drawing.TextShape"><g id="id33"><text id="text10216" class="TextShape"><tspan id="tspan10218" class="TextParagraph" font-size="388" font-weight="400" style="font-size:388px;font-weight:400;font-family:'Arial, sans-serif'"><tspan id="tspan10220" x="7268" y="8061" class="TextPosition"><tspan id="tspan10222" style="fill:#000;stroke:none">mars.txt</tspan></tspan></tspan></text></g></g><g id="g10224" class="com.sun.star.drawing.LineShape"><g id="id34"><path id="path10227" d="m 7509,5865 900,0" style="fill:none;stroke:#000;stroke-width:50"/></g></g><g id="g10229" class="com.sun.star.drawing.LineShape"><g id="id35"><path id="path10232" d="m 7509,6165 900,0" style="fill:none;stroke:#000;stroke-width:50"/></g></g><g id="g10234" class="com.sun.star.drawing.LineShape"><g id="id36"><path id="path10237" d="m 7509,6465 900,0" style="fill:none;stroke:#000;stroke-width:50"/></g></g><g id="g10239" class="com.sun.star.drawing.LineShape"><g id="id37"><path id="path10242" d="m 7900,3300 -32,40" style="fill:none;stroke:#000;stroke-width:50"/><path id="path10244" d="m 7836,3379 -32,40" style="fill:none;stroke:#000;stroke-width:50"/><path id="path10246" d="m 7772,3458 -33,40" style="fill:none;stroke:#000;stroke-width:50"/><path id="path10248" d="m 7707,3538 -32,39" style="fill:none;stroke:#000;stroke-width:50"/><path id="path10250" d="m 7643,3617 -32,40" style="fill:none;stroke:#000;stroke-width:50"/><path id="path10252" d="m 7579,3696 -32,40" style="fill:none;stroke:#000;stroke-width:50"/><path id="path10254" d="m 7515,3775 -33,40" style="fill:none;stroke:#000;stroke-width:50"/><path id="path10256" d="m 7450,3855 -32,39" style="fill:none;stroke:#000;stroke-width:50"/><path id="path10258" d="m 7386,3934 -32,39" style="fill:none;stroke:#000;stroke-width:50"/><path id="path10260" d="m 7322,4013 -32,40" style="fill:none;stroke:#000;stroke-width:50"/><path id="path10262" d="m 7258,4092 -33,40" style="fill:none;stroke:#000;stroke-width:50"/><path id="path10264" d="m 7193,4172 -32,39" style="fill:none;stroke:#000;stroke-width:50"/><path id="path10266" d="m 7129,4251 -32,39" style="fill:none;stroke:#000;stroke-width:50"/><path id="path10268" d="m 7065,4330 -32,40" style="fill:none;stroke:#000;stroke-width:50"/><path id="path10270" d="m 7001,4409 -32,40" style="fill:none;stroke:#000;stroke-width:50"/><path id="path10272" d="m 6936,4488 -32,40" style="fill:none;stroke:#000;stroke-width:50"/><path id="path10274" d="m 6872,4568 -32,39" style="fill:none;stroke:#000;stroke-width:50"/><path id="path10276" d="m 6808,4647 -32,40" style="fill:none;stroke:#000;stroke-width:50"/><path id="path10278" d="m 6744,4726 -32,40" style="fill:none;stroke:#000;stroke-width:50"/><path id="path10280" d="m 6679,4805 -32,40" style="fill:none;stroke:#000;stroke-width:50"/><path id="path10282" d="m 6615,4885 -32,39" style="fill:none;stroke:#000;stroke-width:50"/><path id="path10284" d="m 6551,4964 -32,39" style="fill:none;stroke:#000;stroke-width:50"/><path id="path10286" d="m 6487,5043 -32,40" style="fill:none;stroke:#000;stroke-width:50"/><path id="path10288" d="m 6422,5122 -32,40" style="fill:none;stroke:#000;stroke-width:50"/><path id="path10290" d="m 6358,5201 -32,40" style="fill:none;stroke:#000;stroke-width:50"/><path id="path10292" d="m 6294,5281 -32,39" style="fill:none;stroke:#000;stroke-width:50"/><path id="path10294" d="m 6230,5360 -32,40" style="fill:none;stroke:#000;stroke-width:50"/><path id="path10296" d="m 6166,5439 -33,40" style="fill:none;stroke:#000;stroke-width:50"/><path id="path10298" d="m 6101,5518 -32,40" style="fill:none;stroke:#000;stroke-width:50"/><path id="path10300" d="m 6037,5598 -32,39" style="fill:none;stroke:#000;stroke-width:50"/><path id="path10302" d="m 5973,5677 -32,39" style="fill:none;stroke:#000;stroke-width:50"/><path id="path10304" d="m 5909,5756 -33,40" style="fill:none;stroke:#000;stroke-width:50"/><path id="path10306" d="m 5844,5835 -32,40" style="fill:none;stroke:#000;stroke-width:50"/><path id="path10308" d="m 5780,5915 -32,39" style="fill:none;stroke:#000;stroke-width:50"/><path id="path10310" d="m 5716,5994 -32,39" style="fill:none;stroke:#000;stroke-width:50"/><path id="path10312" d="m 5652,6073 -33,40" style="fill:none;stroke:#000;stroke-width:50"/><path id="path10314" d="m 5587,6152 -32,40" style="fill:none;stroke:#000;stroke-width:50"/><path id="path10316" d="m 5523,6231 -32,40" style="fill:none;stroke:#000;stroke-width:50"/><path id="path10318" d="m 5459,6311 -32,39" style="fill:none;stroke:#000;stroke-width:50"/><path id="path10320" d="m 5395,6390 -32,40" style="fill:none;stroke:#000;stroke-width:50"/><path id="path10322" d="m 5330,6469 -32,40" style="fill:none;stroke:#000;stroke-width:50"/><path id="path10324" d="m 5266,6548 -32,40" style="fill:none;stroke:#000;stroke-width:50"/><path id="path10326" d="m 5202,6628 -32,39" style="fill:none;stroke:#000;stroke-width:50"/><path id="path10328" d="m 5138,6707 -18,21" style="fill:none;stroke:#000;stroke-width:50"/><path id="path10330" d="m 4900,7000 91,-409 291,236 -382,173 z m 35,-43 300,-136 -229,-186 -71,322 z" style="fill:#000;stroke:none"/></g></g><g id="g10332" class="com.sun.star.drawing.LineShape"><g id="id38"><path id="path10335" d="m 9000,3766 -577,770" style="fill:none;stroke:#000;stroke-width:50"/><path id="path10337" d="m 8100,4966 488,-337 -300,-225 -188,562 z" style="fill:#000;stroke:none"/></g></g><g id="g10339" class="com.sun.star.drawing.LineShape"><g id="id39"><path id="path10342" d="m 7509,6765 900,0" style="fill:none;stroke:#000;stroke-width:50"/></g></g><g id="g10344" class="com.sun.star.drawing.CustomShape"><g id="id40"><path id="path10347" d="m 9359,5416 1400,0 0,1575 -175,225 -1225,0 0,-1800 z" style="fill:none;stroke:#000;stroke-width:50"/><path id="path10349" d="m 10584,7216 46,-225 c 44,33 42,14 129,0 l -175,225 z" style="fill:none;stroke:#000;stroke-width:50"/></g></g><g id="g10351" class="com.sun.star.drawing.TextShape"><g id="id41"><text id="text10354" class="TextShape"><tspan id="tspan10356" class="TextParagraph" font-size="388" font-weight="400" style="font-size:388px;font-weight:400;font-family:'Arial, sans-serif'"><tspan id="tspan10358" x="9368" y="8062" class="TextPosition"><tspan id="tspan10360" style="fill:#000;stroke:none">names.txt</tspan></tspan></tspan></text></g></g><g id="g10362" class="com.sun.star.drawing.LineShape"><g id="id42"><path id="path10365" d="m 9609,5866 900,0" style="fill:none;stroke:#000;stroke-width:50"/></g></g><g id="g10367" class="com.sun.star.drawing.LineShape"><g id="id43"><path id="path10370" d="m 9609,6166 900,0" style="fill:none;stroke:#000;stroke-width:50"/></g></g><g id="g10372" class="com.sun.star.drawing.LineShape"><g id="id44"><path id="path10375" d="m 9609,6466 900,0" style="fill:none;stroke:#000;stroke-width:50"/></g></g><g id="g10377" class="com.sun.star.drawing.LineShape"><g id="id45"><path id="path10380" d="m 9609,6766 900,0" style="fill:none;stroke:#000;stroke-width:50"/></g></g><g id="g10382" class="com.sun.star.drawing.LineShape"><g id="id46"><path id="path10385" d="m 9000,3766 578,770" style="fill:none;stroke:#000;stroke-width:50"/><path id="path10387" d="m 9900,4966 -187,-562 -300,225 487,337 z" style="fill:#000;stroke:none"/></g></g><g id="g10389" class="com.sun.star.drawing.CustomShape"><g id="id47"><path id="path10392" d="m 14926,2067 1250,0 626,700 -626,700 -1250,0 -625,-700 625,-700 z" style="fill:none;stroke:#000;stroke-width:50"/><text id="text10394" class="TextShape"><tspan id="tspan10396" class="TextParagraph" font-size="423" font-weight="400" style="font-size:423px;font-weight:400;font-family:'Arial, sans-serif'"><tspan id="tspan10398" x="14916" y="2913" class="TextPosition"><tspan id="tspan10400" style="fill:#000;stroke:none">e0cf8a</tspan></tspan></tspan></text></g></g><g id="g10402" class="com.sun.star.drawing.CustomShape"><g id="id48"><path id="path10405" d="m 12760,5416 1400,0 0,1575 -175,225 -1225,0 0,-1800 z" style="fill:none;stroke:#000;stroke-width:50"/><path id="path10407" d="m 13985,7216 46,-225 c 44,33 42,14 129,0 l -175,225 z" style="fill:none;stroke:#000;stroke-width:50"/></g></g><g id="g10409" class="com.sun.star.drawing.TextShape"><g id="id49"><text id="text10412" class="TextShape"><tspan id="tspan10414" class="TextParagraph" font-size="388" font-weight="400" style="font-size:388px;font-weight:400;font-family:'Arial, sans-serif'"><tspan id="tspan10416" x="12769" y="8062" class="TextPosition"><tspan id="tspan10418" style="fill:#000;stroke:none">mars.txt</tspan></tspan></tspan></text></g></g><g id="g10420" class="com.sun.star.drawing.LineShape"><g id="id50"><path id="path10423" d="m 13010,5866 900,0" style="fill:none;stroke:#000;stroke-width:50"/></g></g><g id="g10425" class="com.sun.star.drawing.LineShape"><g id="id51"><path id="path10428" d="m 13010,6166 900,0" style="fill:none;stroke:#000;stroke-width:50"/></g></g><g id="g10430" class="com.sun.star.drawing.LineShape"><g id="id52"><path id="path10433" d="m 13010,6466 900,0" style="fill:none;stroke:#000;stroke-width:50"/></g></g><g id="g10435" class="com.sun.star.drawing.LineShape"><g id="id53"><path id="path10438" d="m 15200,3800 -934,1006" style="fill:none;stroke:#000;stroke-width:50"/><path id="path10440" d="m 13900,5200 520,-285 -275,-255 -245,540 z" style="fill:#000;stroke:none"/></g></g><g id="g10442" class="com.sun.star.drawing.LineShape"><g id="id54"><path id="path10445" d="m 13010,6766 900,0" style="fill:none;stroke:#000;stroke-width:50"/></g></g><g id="g10447" class="com.sun.star.drawing.CustomShape"><g id="id55"><path id="path10450" d="m 14860,5417 1400,0 0,1575 -175,225 -1225,0 0,-1800 z" style="fill:none;stroke:#000;stroke-width:50"/><path id="path10452" d="m 16085,7217 46,-225 c 44,33 42,14 129,0 l -175,225 z" style="fill:none;stroke:#000;stroke-width:50"/></g></g><g id="g10454" class="com.sun.star.drawing.TextShape"><g id="id56"><text id="text10457" class="TextShape"><tspan id="tspan10459" class="TextParagraph" font-size="388" font-weight="400" style="font-size:388px;font-weight:400;font-family:'Arial, sans-serif'"><tspan id="tspan10461" x="14869" y="8063" class="TextPosition"><tspan id="tspan10463" style="fill:#000;stroke:none">names.txt</tspan></tspan></tspan></text></g></g><g id="g10465" class="com.sun.star.drawing.LineShape"><g id="id57"><path id="path10468" d="m 15110,5867 900,0" style="fill:none;stroke:#000;stroke-width:50"/></g></g><g id="g10470" class="com.sun.star.drawing.LineShape"><g id="id58"><path id="path10473" d="m 15110,6167 900,0" style="fill:none;stroke:#000;stroke-width:50"/></g></g><g id="g10475" class="com.sun.star.drawing.LineShape"><g id="id59"><path id="path10478" d="m 15110,6467 900,0" style="fill:none;stroke:#000;stroke-width:50"/></g></g><g id="g10480" class="com.sun.star.drawing.LineShape"><g id="id60"><path id="path10483" d="m 15110,6767 900,0" style="fill:none;stroke:#000;stroke-width:50"/></g></g><g id="g10485" class="com.sun.star.drawing.LineShape"><g id="id61"><path id="path10488" d="m 15600,3800 0,863" style="fill:none;stroke:#000;stroke-width:50"/><path id="path10490" d="m 15600,5200 188,-562 -375,0 187,562 z" style="fill:#000;stroke:none"/></g></g><g id="g10492" class="com.sun.star.drawing.LineShape"><g id="id62"><path id="path10495" d="m 14000,2800 -51,0" style="fill:none;stroke:#000;stroke-width:50"/><path id="path10497" d="m 13898,2800 -51,0" style="fill:none;stroke:#000;stroke-width:50"/><path id="path10499" d="m 13796,2800 -51,0" style="fill:none;stroke:#000;stroke-width:50"/><path id="path10501" d="m 13694,2800 -51,0" style="fill:none;stroke:#000;stroke-width:50"/><path id="path10503" d="m 13592,2800 -51,0" style="fill:none;stroke:#000;stroke-width:50"/><path id="path10505" d="m 13490,2800 -51,0" style="fill:none;stroke:#000;stroke-width:50"/><path id="path10507" d="m 13388,2800 -51,0" style="fill:none;stroke:#000;stroke-width:50"/><path id="path10509" d="m 13286,2800 -51,0" style="fill:none;stroke:#000;stroke-width:50"/><path id="path10511" d="m 13184,2800 -51,0" style="fill:none;stroke:#000;stroke-width:50"/><path id="path10513" d="m 13082,2800 -51,0" style="fill:none;stroke:#000;stroke-width:50"/><path id="path10515" d="m 12980,2800 -51,0" style="fill:none;stroke:#000;stroke-width:50"/><path id="path10517" d="m 12878,2800 -51,0" style="fill:none;stroke:#000;stroke-width:50"/><path id="path10519" d="m 12776,2800 -51,0" style="fill:none;stroke:#000;stroke-width:50"/><path id="path10521" d="m 12674,2800 -51,0" style="fill:none;stroke:#000;stroke-width:50"/><path id="path10523" d="m 12572,2800 -51,0" style="fill:none;stroke:#000;stroke-width:50"/><path id="path10525" d="m 12470,2800 -51,0" style="fill:none;stroke:#000;stroke-width:50"/><path id="path10527" d="m 12368,2800 -51,0" style="fill:none;stroke:#000;stroke-width:50"/><path id="path10529" d="m 12266,2800 -51,0" style="fill:none;stroke:#000;stroke-width:50"/><path id="path10531" d="m 12164,2800 -51,0" style="fill:none;stroke:#000;stroke-width:50"/><path id="path10533" d="m 12062,2800 -51,0" style="fill:none;stroke:#000;stroke-width:50"/><path id="path10535" d="m 11960,2800 -51,0" style="fill:none;stroke:#000;stroke-width:50"/><path id="path10537" d="m 11858,2800 -51,0" style="fill:none;stroke:#000;stroke-width:50"/><path id="path10539" d="m 11756,2800 -51,0" style="fill:none;stroke:#000;stroke-width:50"/><path id="path10541" d="m 11654,2800 -51,0" style="fill:none;stroke:#000;stroke-width:50"/><path id="path10543" d="m 11552,2800 -51,0" style="fill:none;stroke:#000;stroke-width:50"/><path id="path10545" d="m 11450,2800 -51,0" style="fill:none;stroke:#000;stroke-width:50"/><path id="path10547" d="m 11348,2800 -51,0" style="fill:none;stroke:#000;stroke-width:50"/><path id="path10549" d="m 11246,2800 -51,0" style="fill:none;stroke:#000;stroke-width:50"/><path id="path10551" d="m 11144,2800 -51,0" style="fill:none;stroke:#000;stroke-width:50"/><path id="path10553" d="m 11042,2800 -51,0" style="fill:none;stroke:#000;stroke-width:50"/><path id="path10555" d="m 10600,2800 375,-187 0,375 -375,-188 z m 56,0 294,147 0,-294 -294,147 z" style="fill:#000;stroke:none"/></g></g><g id="g10557" class="com.sun.star.drawing.CustomShape"><g id="id63"><path id="path10560" d="m 17058,5450 1400,0 0,1575 -175,225 -1225,0 0,-1800 z" style="fill:none;stroke:#000;stroke-width:50"/><path id="path10562" d="m 18283,7250 46,-225 c 44,33 42,14 129,0 l -175,225 z" style="fill:none;stroke:#000;stroke-width:50"/></g></g><g id="g10564" class="com.sun.star.drawing.TextShape"><g id="id64"><text id="text10567" class="TextShape"><tspan id="tspan10569" class="TextParagraph" font-size="388" font-weight="400" style="font-size:388px;font-weight:400;font-family:'Arial, sans-serif'"><tspan id="tspan10571" x="17067" y="8096" class="TextPosition"><tspan id="tspan10573" style="fill:#000;stroke:none">moons.txt</tspan></tspan></tspan></text></g></g><g id="g10575" class="com.sun.star.drawing.LineShape"><g id="id65"><path id="path10578" d="m 17308,5900 900,0" style="fill:none;stroke:#000;stroke-width:50"/></g></g><g id="g10580" class="com.sun.star.drawing.LineShape"><g id="id66"><path id="path10583" d="m 17308,6200 900,0" style="fill:none;stroke:#000;stroke-width:50"/></g></g><g id="g10585" class="com.sun.star.drawing.LineShape"><g id="id67"><path id="path10588" d="m 17308,6500 900,0" style="fill:none;stroke:#000;stroke-width:50"/></g></g><g id="g10590" class="com.sun.star.drawing.LineShape"><g id="id68"><path id="path10593" d="m 17308,6800 900,0" style="fill:none;stroke:#000;stroke-width:50"/></g></g><g id="g10595" class="com.sun.star.drawing.LineShape"><g id="id69"><path id="path10598" d="m 16000,3800 850,992" style="fill:none;stroke:#000;stroke-width:50"/><path id="path10600" d="m 17200,5200 -224,-549 -284,244 508,305 z" style="fill:#000;stroke:none"/></g></g><g id="g10602" class="com.sun.star.drawing.LineShape"><g id="id70"><path id="path10605" d="m 14000,2800 -24,45" style="fill:none;stroke:#000;stroke-width:50"/><path id="path10607" d="m 13953,2890 -24,45" style="fill:none;stroke:#000;stroke-width:50"/><path id="path10609" d="m 13905,2981 -24,45" style="fill:none;stroke:#000;stroke-width:50"/><path id="path10611" d="m 13858,3071 -24,45" style="fill:none;stroke:#000;stroke-width:50"/><path id="path10613" d="m 13810,3161 -23,45" style="fill:none;stroke:#000;stroke-width:50"/><path id="path10615" d="m 13763,3252 -24,45" style="fill:none;stroke:#000;stroke-width:50"/><path id="path10617" d="m 13716,3342 -24,45" style="fill:none;stroke:#000;stroke-width:50"/><path id="path10619" d="m 13668,3432 -24,45" style="fill:none;stroke:#000;stroke-width:50"/><path id="path10621" d="m 13621,3522 -24,46" style="fill:none;stroke:#000;stroke-width:50"/><path id="path10623" d="m 13573,3613 -23,45" style="fill:none;stroke:#000;stroke-width:50"/><path id="path10625" d="m 13526,3703 -24,45" style="fill:none;stroke:#000;stroke-width:50"/><path id="path10627" d="m 13478,3793 -23,46" style="fill:none;stroke:#000;stroke-width:50"/><path id="path10629" d="m 13431,3884 -24,45" style="fill:none;stroke:#000;stroke-width:50"/><path id="path10631" d="m 13384,3974 -24,45" style="fill:none;stroke:#000;stroke-width:50"/><path id="path10633" d="m 13336,4064 -23,46" style="fill:none;stroke:#000;stroke-width:50"/><path id="path10635" d="m 13289,4155 -24,45" style="fill:none;stroke:#000;stroke-width:50"/><path id="path10637" d="m 13241,4245 -23,45" style="fill:none;stroke:#000;stroke-width:50"/><path id="path10639" d="m 13194,4335 -24,45" style="fill:none;stroke:#000;stroke-width:50"/><path id="path10641" d="m 13147,4426 -24,45" style="fill:none;stroke:#000;stroke-width:50"/><path id="path10643" d="m 13099,4516 -24,45" style="fill:none;stroke:#000;stroke-width:50"/><path id="path10645" d="m 13052,4606 -24,45" style="fill:none;stroke:#000;stroke-width:50"/><path id="path10647" d="m 13004,4697 -23,45" style="fill:none;stroke:#000;stroke-width:50"/><path id="path10649" d="m 12957,4787 -24,45" style="fill:none;stroke:#000;stroke-width:50"/><path id="path10651" d="m 12909,4877 -23,45" style="fill:none;stroke:#000;stroke-width:50"/><path id="path10653" d="m 12862,4967 -24,46" style="fill:none;stroke:#000;stroke-width:50"/><path id="path10655" d="m 12815,5058 -24,45" style="fill:none;stroke:#000;stroke-width:50"/><path id="path10657" d="m 12767,5148 -23,45" style="fill:none;stroke:#000;stroke-width:50"/><path id="path10659" d="m 12720,5238 -24,46" style="fill:none;stroke:#000;stroke-width:50"/><path id="path10661" d="m 12672,5329 -23,45" style="fill:none;stroke:#000;stroke-width:50"/><path id="path10663" d="m 12625,5419 -24,45" style="fill:none;stroke:#000;stroke-width:50"/><path id="path10665" d="m 12578,5509 -24,45" style="fill:none;stroke:#000;stroke-width:50"/><path id="path10667" d="m 12530,5600 -24,45" style="fill:none;stroke:#000;stroke-width:50"/><path id="path10669" d="m 12483,5690 -24,45" style="fill:none;stroke:#000;stroke-width:50"/><path id="path10671" d="m 12435,5780 -23,45" style="fill:none;stroke:#000;stroke-width:50"/><path id="path10673" d="m 12388,5871 -24,45" style="fill:none;stroke:#000;stroke-width:50"/><path id="path10675" d="m 12341,5961 -24,45" style="fill:none;stroke:#000;stroke-width:50"/><path id="path10677" d="m 12293,6051 -24,45" style="fill:none;stroke:#000;stroke-width:50"/><path id="path10679" d="m 12246,6141 -24,46" style="fill:none;stroke:#000;stroke-width:50"/><path id="path10681" d="m 12198,6232 -23,45" style="fill:none;stroke:#000;stroke-width:50"/><path id="path10683" d="m 12151,6322 -24,45" style="fill:none;stroke:#000;stroke-width:50"/><path id="path10685" d="m 12103,6412 -23,46" style="fill:none;stroke:#000;stroke-width:50"/><path id="path10687" d="m 12056,6503 -24,45" style="fill:none;stroke:#000;stroke-width:50"/><path id="path10689" d="m 12009,6593 -24,45" style="fill:none;stroke:#000;stroke-width:50"/><path id="path10691" d="m 11961,6683 -23,46" style="fill:none;stroke:#000;stroke-width:50"/><path id="path10693" d="m 11914,6774 -24,45" style="fill:none;stroke:#000;stroke-width:50"/><path id="path10695" d="m 11866,6864 -23,45" style="fill:none;stroke:#000;stroke-width:50"/><path id="path10697" d="m 11819,6954 -24,45" style="fill:none;stroke:#000;stroke-width:50"/><path id="path10699" d="m 11772,7045 -24,45" style="fill:none;stroke:#000;stroke-width:50"/><path id="path10701" d="m 11724,7135 -24,45" style="fill:none;stroke:#000;stroke-width:50"/><path id="path10703" d="m 11677,7225 -24,45" style="fill:none;stroke:#000;stroke-width:50"/><path id="path10705" d="m 11629,7316 -23,45" style="fill:none;stroke:#000;stroke-width:50"/><path id="path10707" d="m 11582,7406 -24,45" style="fill:none;stroke:#000;stroke-width:50"/><path id="path10709" d="m 11535,7496 -24,45" style="fill:none;stroke:#000;stroke-width:50"/><path id="path10711" d="m 11487,7586 -24,46" style="fill:none;stroke:#000;stroke-width:50"/><path id="path10713" d="m 11440,7677 -24,45" style="fill:none;stroke:#000;stroke-width:50"/><path id="path10715" d="m 11392,7767 -23,45" style="fill:none;stroke:#000;stroke-width:50"/><path id="path10717" d="m 11345,7857 -24,46" style="fill:none;stroke:#000;stroke-width:50"/><path id="path10719" d="m 11297,7948 -23,45" style="fill:none;stroke:#000;stroke-width:50"/><path id="path10721" d="m 11250,8038 -24,45" style="fill:none;stroke:#000;stroke-width:50"/><path id="path10723" d="m 11203,8128 -24,45" style="fill:none;stroke:#000;stroke-width:50"/><path id="path10725" d="m 11155,8219 -23,45" style="fill:none;stroke:#000;stroke-width:50"/><path id="path10727" d="m 11108,8309 -24,45" style="fill:none;stroke:#000;stroke-width:50"/><path id="path10729" d="m 11060,8399 -23,45" style="fill:none;stroke:#000;stroke-width:50"/><path id="path10731" d="m 11013,8490 -24,45" style="fill:none;stroke:#000;stroke-width:50"/><path id="path10733" d="m 10966,8580 -24,45" style="fill:none;stroke:#000;stroke-width:50"/><path id="path10735" d="m 10918,8670 -24,45" style="fill:none;stroke:#000;stroke-width:50"/><path id="path10737" d="m 10871,8760 -24,46" style="fill:none;stroke:#000;stroke-width:50"/><path id="path10739" d="m 10823,8851 -23,45" style="fill:none;stroke:#000;stroke-width:50"/><path id="path10741" d="m 10776,8941 -24,45" style="fill:none;stroke:#000;stroke-width:50"/><path id="path10743" d="m 10728,9031 -23,46" style="fill:none;stroke:#000;stroke-width:50"/><path id="path10745" d="m 10681,9122 -24,45" style="fill:none;stroke:#000;stroke-width:50"/><path id="path10747" d="m 10634,9212 -24,45" style="fill:none;stroke:#000;stroke-width:50"/><path id="path10749" d="m 10586,9302 -23,46" style="fill:none;stroke:#000;stroke-width:50"/><path id="path10751" d="m 10539,9393 -24,45" style="fill:none;stroke:#000;stroke-width:50"/><path id="path10753" d="m 10491,9483 -23,45" style="fill:none;stroke:#000;stroke-width:50"/><path id="path10755" d="m 10444,9573 -24,45" style="fill:none;stroke:#000;stroke-width:50"/><path id="path10757" d="m 10397,9664 -24,45" style="fill:none;stroke:#000;stroke-width:50"/><path id="path10759" d="m 10349,9754 -24,45" style="fill:none;stroke:#000;stroke-width:50"/><path id="path10761" d="m 10302,9844 -24,45" style="fill:none;stroke:#000;stroke-width:50"/><path id="path10763" d="m 10254,9935 -23,45" style="fill:none;stroke:#000;stroke-width:50"/><path id="path10765" d="m 10207,10025 -24,45" style="fill:none;stroke:#000;stroke-width:50"/><path id="path10767" d="m 10160,10115 -24,45" style="fill:none;stroke:#000;stroke-width:50"/><path id="path10769" d="m 10112,10205 -24,46" style="fill:none;stroke:#000;stroke-width:50"/><path id="path10771" d="m 10065,10296 -24,45" style="fill:none;stroke:#000;stroke-width:50"/><path id="path10773" d="m 10017,10386 -23,45" style="fill:none;stroke:#000;stroke-width:50"/><path id="path10775" d="m 9970,10476 -7,14" style="fill:none;stroke:#000;stroke-width:50"/><path id="path10777" d="m 9800,10800 8,-419 332,174 -340,245 z m 26,-49 267,-193 -261,-136 -6,329 z" style="fill:#000;stroke:none"/></g></g></g></g></g></g></svg>