<svg xmlns="http://www.w3.org/2000/svg" xmlns:ooo="http://xml.openoffice.org/svg/export" xmlns:svg="http://www.w3.org/2000/svg" id="svg7887" width="492.52" height="540.834" clip-path="url(#presentation_clip_path)" style="fill-rule:evenodd;stroke-width:28.22200012;stroke-linejoin:round" preserveAspectRatio="xMidYMid" version="1.2" viewBox="0 0 13900 15263.547" xml:space="preserve"><metadata id="metadata8445"/><defs id="defs7889" class="ClipPathGroup"><clipPath id="presentation_clip_path" clipPathUnits="userSpaceOnUse"><rect id="rect7892" width="21590" height="27940" x="0" y="0"/></clipPath></defs><defs id="defs7898" class="EmbeddedBulletChars"><g id="bullet-char-template(57356)" transform="scale(4.8828125e-4,-4.8828125e-4)"><path id="path7901" d="M 580,1141 1163,571 580,0 -4,571 580,1141 z"/></g><g id="bullet-char-template(57354)" transform="scale(4.8828125e-4,-4.8828125e-4)"><path id="path7904" d="m 8,1128 1129,0 L 1137,0 8,0 8,1128 z"/></g><g id="bullet-char-template(10146)" transform="scale(4.8828125e-4,-4.8828125e-4)"><path id="path7907" d="M 174,0 602,739 174,1481 1456,739 174,0 z m 1184,739 -1049,607 350,-607 699,0 z"/></g><g id="bullet-char-template(10132)" transform="scale(4.8828125e-4,-4.8828125e-4)"><path id="path7910" d="M 2015,739 1276,0 717,0 l 543,543 -1086,0 0,393 1086,0 -543,545 557,0 741,-742 z"/></g><g id="bullet-char-template(10007)" transform="scale(4.8828125e-4,-4.8828125e-4)"><path id="path7913" d="m 0,-2 c -7,16 -16,29 -25,39 l 381,530 c -94,256 -141,385 -141,387 0,25 13,38 40,38 9,0 21,-2 34,-5 21,4 42,12 65,25 l 27,-13 111,-251 280,301 64,-25 24,25 c 21,-10 41,-24 62,-43 C 886,937 835,863 770,784 769,783 710,716 594,584 L 774,223 c 0,-27 -21,-55 -63,-84 l 16,-20 C 717,90 699,76 672,76 641,76 570,178 457,381 L 164,-76 c -22,-34 -53,-51 -92,-51 -42,0 -63,17 -64,51 -7,9 -10,24 -10,44 0,9 1,19 2,30 z"/></g><g id="bullet-char-template(10004)" transform="scale(4.8828125e-4,-4.8828125e-4)"><path id="path7916" d="M 285,-33 C 182,-33 111,30 74,156 52,228 41,333 41,471 c 0,78 14,145 41,201 34,71 87,106 158,106 53,0 88,-31 106,-94 l 23,-176 c 8,-64 28,-97 59,-98 l 735,706 c 11,11 33,17 66,17 42,0 63,-15 63,-46 l 0,-122 c 0,-36 -10,-64 -30,-84 L 442,47 C 390,-6 338,-33 285,-33 z"/></g><g id="bullet-char-template(9679)" transform="scale(4.8828125e-4,-4.8828125e-4)"><path id="path7919" d="M 813,0 C 632,0 489,54 383,161 276,268 223,411 223,592 c 0,181 53,324 160,431 106,107 249,161 430,161 179,0 323,-54 432,-161 108,-107 162,-251 162,-431 0,-180 -54,-324 -162,-431 C 1136,54 992,0 813,0 z"/></g><g id="bullet-char-template(8226)" transform="scale(4.8828125e-4,-4.8828125e-4)"><path id="path7922" d="m 346,457 c -73,0 -137,26 -191,78 -54,51 -81,114 -81,188 0,73 27,136 81,188 54,52 118,78 191,78 73,0 134,-26 185,-79 51,-51 77,-114 77,-187 0,-75 -25,-137 -76,-188 -50,-52 -112,-78 -186,-78 z"/></g><g id="bullet-char-template(8211)" transform="scale(4.8828125e-4,-4.8828125e-4)"><path id="path7925" d="m -4,459 1139,0 0,147 -1139,0 0,-147 z"/></g></defs><g id="g7934" class="SlideGroup" transform="translate(-1200,-1634)"><g id="g7936"><g id="id1" class="Slide" clip-path="url(#presentation_clip_path)"><g id="g7939" class="Page"><g id="g7941" class="com.sun.star.drawing.CustomShape"><g id="id3"><path id="path7944" d="m 3125,6797 1250,0 626,700 -626,700 -1250,0 -625,-700 625,-700 z" style="fill:none;stroke:#000;stroke-width:50"/><text id="text7946" class="TextShape"><tspan id="tspan7948" class="TextParagraph" font-size="423" font-weight="400" style="font-size:423px;font-weight:400;font-family:'Arial, sans-serif'"><tspan id="tspan7950" x="3102" y="7643" class="TextPosition"><tspan id="tspan7952" style="fill:#000;stroke:none">f22b25</tspan></tspan></tspan></text></g></g><g id="g7954" class="com.sun.star.drawing.CustomShape"><g id="id4"><path id="path7957" d="m 3059,10146 1400,0 0,1575 -175,225 -1225,0 0,-1800 z" style="fill:none;stroke:#000;stroke-width:50"/><path id="path7959" d="m 4284,11946 46,-225 c 44,33 42,14 129,0 l -175,225 z" style="fill:none;stroke:#000;stroke-width:50"/></g></g><g id="g7961" class="com.sun.star.drawing.TextShape"><g id="id5"><text id="text7964" class="TextShape"><tspan id="tspan7966" class="TextParagraph" font-size="388" font-weight="400" style="font-size:388px;font-weight:400;font-family:'Arial, sans-serif'"><tspan id="tspan7968" x="3068" y="12792" class="TextPosition"><tspan id="tspan7970" style="fill:#000;stroke:none">mars.txt</tspan></tspan></tspan></text></g></g><g id="g7972" class="com.sun.star.drawing.LineShape"><g id="id6"><path id="path7975" d="m 3309,10596 900,0" style="fill:none;stroke:#000;stroke-width:50"/></g></g><g id="g7977" class="com.sun.star.drawing.LineShape"><g id="id7"><path id="path7980" d="m 3309,10896 900,0" style="fill:none;stroke:#000;stroke-width:50"/></g></g><g id="g7982" class="com.sun.star.drawing.LineShape"><g id="id8"><path id="path7985" d="m 3309,11196 900,0" style="fill:none;stroke:#000;stroke-width:50"/></g></g><g id="g7987" class="com.sun.star.drawing.LineShape"><g id="id9"><path id="path7990" d="m 2200,7497 -51,0" style="fill:none;stroke:#000;stroke-width:50"/><path id="path7992" d="m 2098,7497 -51,0" style="fill:none;stroke:#000;stroke-width:50"/><path id="path7994" d="m 1996,7497 -51,0" style="fill:none;stroke:#000;stroke-width:50"/><path id="path7996" d="m 1894,7497 -51,0" style="fill:none;stroke:#000;stroke-width:50"/><path id="path7998" d="m 1792,7497 -51,0" style="fill:none;stroke:#000;stroke-width:50"/><path id="path8000" d="m 1690,7497 -51,0" style="fill:none;stroke:#000;stroke-width:50"/><path id="path8002" d="m 1588,7497 -38,0" style="fill:none;stroke:#000;stroke-width:50"/><path id="path8004" d="m 1200,7497 375,-187 0,375 -375,-188 z m 56,0 294,147 0,-294 -294,147 z" style="fill:#000;stroke:none"/></g></g><g id="g8006" class="com.sun.star.drawing.LineShape"><g id="id10"><path id="path8009" d="m 3800,8497 0,763" style="fill:none;stroke:#000;stroke-width:50"/><path id="path8011" d="m 3800,9797 188,-562 -375,0 187,562 z" style="fill:#000;stroke:none"/></g></g><g id="g8013" class="com.sun.star.drawing.TextShape"><g id="id11"><path id="path8016" d="m 11142,11200 -858,0 0,-733 1716,0 0,733 -858,0 z" style="fill:silver;stroke:none"/><text id="text8018" class="TextShape"><tspan id="tspan8020" class="TextParagraph" font-size="388" font-weight="400" style="font-size:388px;font-weight:400;font-family:'Arial, sans-serif'"><tspan id="tspan8022" x="10559" y="10968" class="TextPosition"><tspan id="tspan8024" style="fill:#000;stroke:none">moons</tspan></tspan></tspan></text></g></g><g id="g8026" class="com.sun.star.drawing.CustomShape"><g id="id12"><path id="path8029" d="m 8425,10897 1250,0 626,700 -626,700 -1250,0 -625,-700 625,-700 z" style="fill:none;stroke:#000;stroke-width:50"/><text id="text8031" class="TextShape"><tspan id="tspan8033" class="TextParagraph" font-size="423" font-weight="400" style="font-size:423px;font-weight:400;font-family:'Arial, sans-serif'"><tspan id="tspan8035" x="8345" y="11743" class="TextPosition"><tspan id="tspan8037" style="fill:#000;stroke:none">62e779</tspan></tspan></tspan></text></g></g><g id="g8039" class="com.sun.star.drawing.CustomShape"><g id="id13"><path id="path8042" d="m 7359,14246 1400,0 0,1575 -175,225 -1225,0 0,-1800 z" style="fill:none;stroke:#000;stroke-width:50"/><path id="path8044" d="m 8584,16046 46,-225 c 44,33 42,14 129,0 l -175,225 z" style="fill:none;stroke:#000;stroke-width:50"/></g></g><g id="g8046" class="com.sun.star.drawing.TextShape"><g id="id14"><text id="text8049" class="TextShape"><tspan id="tspan8051" class="TextParagraph" font-size="388" font-weight="400" style="font-size:388px;font-weight:400;font-family:'Arial, sans-serif'"><tspan id="tspan8053" x="7368" y="16892" class="TextPosition"><tspan id="tspan8055" style="fill:#000;stroke:none">mars.txt</tspan></tspan></tspan></text></g></g><g id="g8057" class="com.sun.star.drawing.LineShape"><g id="id15"><path id="path8060" d="m 7609,14696 900,0" style="fill:none;stroke:#000;stroke-width:50"/></g></g><g id="g8062" class="com.sun.star.drawing.LineShape"><g id="id16"><path id="path8065" d="m 7609,14996 900,0" style="fill:none;stroke:#000;stroke-width:50"/></g></g><g id="g8067" class="com.sun.star.drawing.LineShape"><g id="id17"><path id="path8070" d="m 7609,15296 900,0" style="fill:none;stroke:#000;stroke-width:50"/></g></g><g id="g8072" class="com.sun.star.drawing.LineShape"><g id="id18"><path id="path8075" d="m 7900,11100 -35,-37" style="fill:none;stroke:#000;stroke-width:50"/><path id="path8077" d="m 7830,11026 -35,-38" style="fill:none;stroke:#000;stroke-width:50"/><path id="path8079" d="m 7760,10951 -34,-37" style="fill:none;stroke:#000;stroke-width:50"/><path id="path8081" d="m 7691,10877 -35,-37" style="fill:none;stroke:#000;stroke-width:50"/><path id="path8083" d="m 7621,10802 -35,-37" style="fill:none;stroke:#000;stroke-width:50"/><path id="path8085" d="m 7551,10728 -35,-37" style="fill:none;stroke:#000;stroke-width:50"/><path id="path8087" d="m 7481,10654 -34,-38" style="fill:none;stroke:#000;stroke-width:50"/><path id="path8089" d="m 7412,10579 -35,-37" style="fill:none;stroke:#000;stroke-width:50"/><path id="path8091" d="m 7342,10505 -35,-38" style="fill:none;stroke:#000;stroke-width:50"/><path id="path8093" d="m 7272,10430 -35,-37" style="fill:none;stroke:#000;stroke-width:50"/><path id="path8095" d="m 7202,10356 -35,-37" style="fill:none;stroke:#000;stroke-width:50"/><path id="path8097" d="m 7133,10281 -35,-37" style="fill:none;stroke:#000;stroke-width:50"/><path id="path8099" d="m 7063,10207 -35,-37" style="fill:none;stroke:#000;stroke-width:50"/><path id="path8101" d="m 6993,10133 -35,-38" style="fill:none;stroke:#000;stroke-width:50"/><path id="path8103" d="m 6923,10058 -35,-37" style="fill:none;stroke:#000;stroke-width:50"/><path id="path8105" d="m 6854,9984 -35,-37" style="fill:none;stroke:#000;stroke-width:50"/><path id="path8107" d="m 6784,9909 -35,-37" style="fill:none;stroke:#000;stroke-width:50"/><path id="path8109" d="m 6714,9835 -35,-37" style="fill:none;stroke:#000;stroke-width:50"/><path id="path8111" d="m 6644,9761 -35,-38" style="fill:none;stroke:#000;stroke-width:50"/><path id="path8113" d="m 6575,9686 -35,-37" style="fill:none;stroke:#000;stroke-width:50"/><path id="path8115" d="m 6505,9612 -35,-37" style="fill:none;stroke:#000;stroke-width:50"/><path id="path8117" d="m 6435,9537 -35,-37" style="fill:none;stroke:#000;stroke-width:50"/><path id="path8119" d="m 6365,9463 -35,-37" style="fill:none;stroke:#000;stroke-width:50"/><path id="path8121" d="m 6295,9389 -34,-38" style="fill:none;stroke:#000;stroke-width:50"/><path id="path8123" d="m 6226,9314 -35,-37" style="fill:none;stroke:#000;stroke-width:50"/><path id="path8125" d="m 6156,9240 -35,-38" style="fill:none;stroke:#000;stroke-width:50"/><path id="path8127" d="m 6086,9165 -35,-37" style="fill:none;stroke:#000;stroke-width:50"/><path id="path8129" d="m 6016,9091 -34,-37" style="fill:none;stroke:#000;stroke-width:50"/><path id="path8131" d="m 5947,9016 -35,-37" style="fill:none;stroke:#000;stroke-width:50"/><path id="path8133" d="m 5877,8942 -35,-37" style="fill:none;stroke:#000;stroke-width:50"/><path id="path8135" d="m 5807,8868 -35,-38" style="fill:none;stroke:#000;stroke-width:50"/><path id="path8137" d="m 5737,8793 -35,-37" style="fill:none;stroke:#000;stroke-width:50"/><path id="path8139" d="m 5668,8719 -35,-37" style="fill:none;stroke:#000;stroke-width:50"/><path id="path8141" d="m 5598,8644 -35,-37" style="fill:none;stroke:#000;stroke-width:50"/><path id="path8143" d="m 5528,8570 -35,-37" style="fill:none;stroke:#000;stroke-width:50"/><path id="path8145" d="m 5458,8496 -35,-38" style="fill:none;stroke:#000;stroke-width:50"/><path id="path8147" d="m 5389,8421 -35,-37" style="fill:none;stroke:#000;stroke-width:50"/><path id="path8149" d="m 5319,8347 -35,-37" style="fill:none;stroke:#000;stroke-width:50"/><path id="path8151" d="m 5249,8272 -35,-37" style="fill:none;stroke:#000;stroke-width:50"/><path id="path8153" d="m 5179,8198 -35,-37" style="fill:none;stroke:#000;stroke-width:50"/><path id="path8155" d="m 4900,7900 393,145 -273,257 -120,-402 z m 38,41 94,315 215,-201 -309,-114 z" style="fill:#000;stroke:none"/></g></g><g id="g8157" class="com.sun.star.drawing.LineShape"><g id="id19"><path id="path8160" d="m 9100,12597 -577,770" style="fill:none;stroke:#000;stroke-width:50"/><path id="path8162" d="m 8200,13797 488,-337 -300,-225 -188,562 z" style="fill:#000;stroke:none"/></g></g><g id="g8164" class="com.sun.star.drawing.LineShape"><g id="id20"><path id="path8167" d="m 7609,15596 900,0" style="fill:none;stroke:#000;stroke-width:50"/></g></g><g id="g8169" class="com.sun.star.drawing.CustomShape"><g id="id21"><path id="path8172" d="m 9459,14247 1400,0 0,1575 -175,225 -1225,0 0,-1800 z" style="fill:none;stroke:#000;stroke-width:50"/><path id="path8174" d="m 10684,16047 46,-225 c 44,33 42,14 129,0 l -175,225 z" style="fill:none;stroke:#000;stroke-width:50"/></g></g><g id="g8176" class="com.sun.star.drawing.TextShape"><g id="id22"><text id="text8179" class="TextShape"><tspan id="tspan8181" class="TextParagraph" font-size="388" font-weight="400" style="font-size:388px;font-weight:400;font-family:'Arial, sans-serif'"><tspan id="tspan8183" x="9468" y="16893" class="TextPosition"><tspan id="tspan8185" style="fill:#000;stroke:none">moons.txt</tspan></tspan></tspan></text></g></g><g id="g8187" class="com.sun.star.drawing.LineShape"><g id="id23"><path id="path8190" d="m 9709,14697 900,0" style="fill:none;stroke:#000;stroke-width:50"/></g></g><g id="g8192" class="com.sun.star.drawing.LineShape"><g id="id24"><path id="path8195" d="m 9709,14997 900,0" style="fill:none;stroke:#000;stroke-width:50"/></g></g><g id="g8197" class="com.sun.star.drawing.LineShape"><g id="id25"><path id="path8200" d="m 9709,15297 900,0" style="fill:none;stroke:#000;stroke-width:50"/></g></g><g id="g8202" class="com.sun.star.drawing.LineShape"><g id="id26"><path id="path8205" d="m 9709,15597 900,0" style="fill:none;stroke:#000;stroke-width:50"/></g></g><g id="g8207" class="com.sun.star.drawing.LineShape"><g id="id27"><path id="path8210" d="m 9100,12597 578,770" style="fill:none;stroke:#000;stroke-width:50"/><path id="path8212" d="m 10000,13797 -187,-562 -300,225 487,337 z" style="fill:#000;stroke:none"/></g></g><g id="g8214" class="com.sun.star.drawing.TextShape"><g id="id28"><path id="path8217" d="m 14284,2367 -816,0 0,-733 1632,0 0,733 -816,0 z" style="fill:silver;stroke:none"/><text id="text8219" class="TextShape"><tspan id="tspan8221" class="TextParagraph" font-size="388" font-weight="400" style="font-size:388px;font-weight:400;font-family:'Arial, sans-serif'"><tspan id="tspan8223" x="13743" y="2135" class="TextPosition"><tspan id="tspan8225" style="fill:#000;stroke:none">HEAD</tspan></tspan></tspan></text></g></g><g id="g8227" class="com.sun.star.drawing.LineShape"><g id="id29"><path id="path8230" d="m 13200,2067 -462,0" style="fill:none;stroke:#000;stroke-width:50"/><path id="path8232" d="m 12200,2067 563,188 0,-375 -563,187 z" style="fill:#000;stroke:none"/></g></g><g id="g8234" class="com.sun.star.drawing.TextShape"><g id="id30"><path id="path8237" d="m 11232,2400 -869,0 0,-733 1737,0 0,733 -868,0 z" style="fill:silver;stroke:none"/><text id="text8239" class="TextShape"><tspan id="tspan8241" class="TextParagraph" font-size="388" font-weight="400" style="font-size:388px;font-weight:400;font-family:'Arial, sans-serif'"><tspan id="tspan8243" x="10638" y="2168" class="TextPosition"><tspan id="tspan8245" style="fill:#000;stroke:none">master</tspan></tspan></tspan></text></g></g><g id="g8247" class="com.sun.star.drawing.CustomShape"><g id="id31"><path id="path8250" d="m 8425,2066 1250,0 626,700 -626,700 -1250,0 -625,-700 625,-700 z" style="fill:none;stroke:#000;stroke-width:50"/><text id="text8252" class="TextShape"><tspan id="tspan8254" class="TextParagraph" font-size="423" font-weight="400" style="font-size:423px;font-weight:400;font-family:'Arial, sans-serif'"><tspan id="tspan8256" x="8415" y="2912" class="TextPosition"><tspan id="tspan8258" style="fill:#000;stroke:none">dfc908</tspan></tspan></tspan></text></g></g><g id="g8260" class="com.sun.star.drawing.CustomShape"><g id="id32"><path id="path8263" d="m 7259,5415 1400,0 0,1575 -175,225 -1225,0 0,-1800 z" style="fill:none;stroke:#000;stroke-width:50"/><path id="path8265" d="m 8484,7215 46,-225 c 44,33 42,14 129,0 l -175,225 z" style="fill:none;stroke:#000;stroke-width:50"/></g></g><g id="g8267" class="com.sun.star.drawing.TextShape"><g id="id33"><text id="text8270" class="TextShape"><tspan id="tspan8272" class="TextParagraph" font-size="388" font-weight="400" style="font-size:388px;font-weight:400;font-family:'Arial, sans-serif'"><tspan id="tspan8274" x="7268" y="8061" class="TextPosition"><tspan id="tspan8276" style="fill:#000;stroke:none">mars.txt</tspan></tspan></tspan></text></g></g><g id="g8278" class="com.sun.star.drawing.LineShape"><g id="id34"><path id="path8281" d="m 7509,5865 900,0" style="fill:none;stroke:#000;stroke-width:50"/></g></g><g id="g8283" class="com.sun.star.drawing.LineShape"><g id="id35"><path id="path8286" d="m 7509,6165 900,0" style="fill:none;stroke:#000;stroke-width:50"/></g></g><g id="g8288" class="com.sun.star.drawing.LineShape"><g id="id36"><path id="path8291" d="m 7509,6465 900,0" style="fill:none;stroke:#000;stroke-width:50"/></g></g><g id="g8293" class="com.sun.star.drawing.LineShape"><g id="id37"><path id="path8296" d="m 7900,3300 -32,40" style="fill:none;stroke:#000;stroke-width:50"/><path id="path8298" d="m 7836,3379 -32,40" style="fill:none;stroke:#000;stroke-width:50"/><path id="path8300" d="m 7772,3458 -33,40" style="fill:none;stroke:#000;stroke-width:50"/><path id="path8302" d="m 7707,3538 -32,39" style="fill:none;stroke:#000;stroke-width:50"/><path id="path8304" d="m 7643,3617 -32,40" style="fill:none;stroke:#000;stroke-width:50"/><path id="path8306" d="m 7579,3696 -32,40" style="fill:none;stroke:#000;stroke-width:50"/><path id="path8308" d="m 7515,3775 -33,40" style="fill:none;stroke:#000;stroke-width:50"/><path id="path8310" d="m 7450,3855 -32,39" style="fill:none;stroke:#000;stroke-width:50"/><path id="path8312" d="m 7386,3934 -32,39" style="fill:none;stroke:#000;stroke-width:50"/><path id="path8314" d="m 7322,4013 -32,40" style="fill:none;stroke:#000;stroke-width:50"/><path id="path8316" d="m 7258,4092 -33,40" style="fill:none;stroke:#000;stroke-width:50"/><path id="path8318" d="m 7193,4172 -32,39" style="fill:none;stroke:#000;stroke-width:50"/><path id="path8320" d="m 7129,4251 -32,39" style="fill:none;stroke:#000;stroke-width:50"/><path id="path8322" d="m 7065,4330 -32,40" style="fill:none;stroke:#000;stroke-width:50"/><path id="path8324" d="m 7001,4409 -32,40" style="fill:none;stroke:#000;stroke-width:50"/><path id="path8326" d="m 6936,4488 -32,40" style="fill:none;stroke:#000;stroke-width:50"/><path id="path8328" d="m 6872,4568 -32,39" style="fill:none;stroke:#000;stroke-width:50"/><path id="path8330" d="m 6808,4647 -32,40" style="fill:none;stroke:#000;stroke-width:50"/><path id="path8332" d="m 6744,4726 -32,40" style="fill:none;stroke:#000;stroke-width:50"/><path id="path8334" d="m 6679,4805 -32,40" style="fill:none;stroke:#000;stroke-width:50"/><path id="path8336" d="m 6615,4885 -32,39" style="fill:none;stroke:#000;stroke-width:50"/><path id="path8338" d="m 6551,4964 -32,39" style="fill:none;stroke:#000;stroke-width:50"/><path id="path8340" d="m 6487,5043 -32,40" style="fill:none;stroke:#000;stroke-width:50"/><path id="path8342" d="m 6422,5122 -32,40" style="fill:none;stroke:#000;stroke-width:50"/><path id="path8344" d="m 6358,5201 -32,40" style="fill:none;stroke:#000;stroke-width:50"/><path id="path8346" d="m 6294,5281 -32,39" style="fill:none;stroke:#000;stroke-width:50"/><path id="path8348" d="m 6230,5360 -32,40" style="fill:none;stroke:#000;stroke-width:50"/><path id="path8350" d="m 6166,5439 -33,40" style="fill:none;stroke:#000;stroke-width:50"/><path id="path8352" d="m 6101,5518 -32,40" style="fill:none;stroke:#000;stroke-width:50"/><path id="path8354" d="m 6037,5598 -32,39" style="fill:none;stroke:#000;stroke-width:50"/><path id="path8356" d="m 5973,5677 -32,39" style="fill:none;stroke:#000;stroke-width:50"/><path id="path8358" d="m 5909,5756 -33,40" style="fill:none;stroke:#000;stroke-width:50"/><path id="path8360" d="m 5844,5835 -32,40" style="fill:none;stroke:#000;stroke-width:50"/><path id="path8362" d="m 5780,5915 -32,39" style="fill:none;stroke:#000;stroke-width:50"/><path id="path8364" d="m 5716,5994 -32,39" style="fill:none;stroke:#000;stroke-width:50"/><path id="path8366" d="m 5652,6073 -33,40" style="fill:none;stroke:#000;stroke-width:50"/><path id="path8368" d="m 5587,6152 -32,40" style="fill:none;stroke:#000;stroke-width:50"/><path id="path8370" d="m 5523,6231 -32,40" style="fill:none;stroke:#000;stroke-width:50"/><path id="path8372" d="m 5459,6311 -32,39" style="fill:none;stroke:#000;stroke-width:50"/><path id="path8374" d="m 5395,6390 -32,40" style="fill:none;stroke:#000;stroke-width:50"/><path id="path8376" d="m 5330,6469 -32,40" style="fill:none;stroke:#000;stroke-width:50"/><path id="path8378" d="m 5266,6548 -32,40" style="fill:none;stroke:#000;stroke-width:50"/><path id="path8380" d="m 5202,6628 -32,39" style="fill:none;stroke:#000;stroke-width:50"/><path id="path8382" d="m 5138,6707 -18,21" style="fill:none;stroke:#000;stroke-width:50"/><path id="path8384" d="m 4900,7000 91,-409 291,236 -382,173 z m 35,-43 300,-136 -229,-186 -71,322 z" style="fill:#000;stroke:none"/></g></g><g id="g8386" class="com.sun.star.drawing.LineShape"><g id="id38"><path id="path8389" d="m 9000,3766 -577,770" style="fill:none;stroke:#000;stroke-width:50"/><path id="path8391" d="m 8100,4966 488,-337 -300,-225 -188,562 z" style="fill:#000;stroke:none"/></g></g><g id="g8393" class="com.sun.star.drawing.LineShape"><g id="id39"><path id="path8396" d="m 7509,6765 900,0" style="fill:none;stroke:#000;stroke-width:50"/></g></g><g id="g8398" class="com.sun.star.drawing.CustomShape"><g id="id40"><path id="path8401" d="m 9359,5416 1400,0 0,1575 -175,225 -1225,0 0,-1800 z" style="fill:none;stroke:#000;stroke-width:50"/><path id="path8403" d="m 10584,7216 46,-225 c 44,33 42,14 129,0 l -175,225 z" style="fill:none;stroke:#000;stroke-width:50"/></g></g><g id="g8405" class="com.sun.star.drawing.TextShape"><g id="id41"><text id="text8408" class="TextShape"><tspan id="tspan8410" class="TextParagraph" font-size="388" font-weight="400" style="font-size:388px;font-weight:400;font-family:'Arial, sans-serif'"><tspan id="tspan8412" x="9368" y="8062" class="TextPosition"><tspan id="tspan8414" style="fill:#000;stroke:none">names.txt</tspan></tspan></tspan></text></g></g><g id="g8416" class="com.sun.star.drawing.LineShape"><g id="id42"><path id="path8419" d="m 9609,5866 900,0" style="fill:none;stroke:#000;stroke-width:50"/></g></g><g id="g8421" class="com.sun.star.drawing.LineShape"><g id="id43"><path id="path8424" d="m 9609,6166 900,0" style="fill:none;stroke:#000;stroke-width:50"/></g></g><g id="g8426" class="com.sun.star.drawing.LineShape"><g id="id44"><path id="path8429" d="m 9609,6466 900,0" style="fill:none;stroke:#000;stroke-width:50"/></g></g><g id="g8431" class="com.sun.star.drawing.LineShape"><g id="id45"><path id="path8434" d="m 9609,6766 900,0" style="fill:none;stroke:#000;stroke-width:50"/></g></g><g id="g8436" class="com.sun.star.drawing.LineShape"><g id="id46"><path id="path8439" d="m 9000,3766 578,770" style="fill:none;stroke:#000;stroke-width:50"/><path id="path8441" d="m 9900,4966 -187,-562 -300,225 487,337 z" style="fill:#000;stroke:none"/></g></g></g></g></g></g></svg>