<svg xmlns="http://www.w3.org/2000/svg" xmlns:ooo="http://xml.openoffice.org/svg/export" xmlns:svg="http://www.w3.org/2000/svg" id="svg2" width="625.217" height="170.485" clip-path="url(#presentation_clip_path)" style="fill-rule:evenodd;stroke-width:28.22200012;stroke-linejoin:round" preserveAspectRatio="xMidYMid" version="1.2" viewBox="0 0 17645 4811.475" xml:space="preserve"><metadata id="metadata774"/><defs id="defs4" class="ClipPathGroup"><clipPath id="presentation_clip_path" clipPathUnits="userSpaceOnUse"><rect id="rect7" width="21590" height="27940" x="0" y="0"/></clipPath></defs><defs id="defs13" class="EmbeddedBulletChars"><g id="bullet-char-template(57356)" transform="scale(4.8828125e-4,-4.8828125e-4)"><path id="path16" d="M 580,1141 1163,571 580,0 -4,571 580,1141 z"/></g><g id="bullet-char-template(57354)" transform="scale(4.8828125e-4,-4.8828125e-4)"><path id="path19" d="m 8,1128 1129,0 L 1137,0 8,0 8,1128 z"/></g><g id="bullet-char-template(10146)" transform="scale(4.8828125e-4,-4.8828125e-4)"><path id="path22" d="M 174,0 602,739 174,1481 1456,739 174,0 z m 1184,739 -1049,607 350,-607 699,0 z"/></g><g id="bullet-char-template(10132)" transform="scale(4.8828125e-4,-4.8828125e-4)"><path id="path25" d="M 2015,739 1276,0 717,0 l 543,543 -1086,0 0,393 1086,0 -543,545 557,0 741,-742 z"/></g><g id="bullet-char-template(10007)" transform="scale(4.8828125e-4,-4.8828125e-4)"><path id="path28" d="m 0,-2 c -7,16 -16,29 -25,39 l 381,530 c -94,256 -141,385 -141,387 0,25 13,38 40,38 9,0 21,-2 34,-5 21,4 42,12 65,25 l 27,-13 111,-251 280,301 64,-25 24,25 c 21,-10 41,-24 62,-43 C 886,937 835,863 770,784 769,783 710,716 594,584 L 774,223 c 0,-27 -21,-55 -63,-84 l 16,-20 C 717,90 699,76 672,76 641,76 570,178 457,381 L 164,-76 c -22,-34 -53,-51 -92,-51 -42,0 -63,17 -64,51 -7,9 -10,24 -10,44 0,9 1,19 2,30 z"/></g><g id="bullet-char-template(10004)" transform="scale(4.8828125e-4,-4.8828125e-4)"><path id="path31" d="M 285,-33 C 182,-33 111,30 74,156 52,228 41,333 41,471 c 0,78 14,145 41,201 34,71 87,106 158,106 53,0 88,-31 106,-94 l 23,-176 c 8,-64 28,-97 59,-98 l 735,706 c 11,11 33,17 66,17 42,0 63,-15 63,-46 l 0,-122 c 0,-36 -10,-64 -30,-84 L 442,47 C 390,-6 338,-33 285,-33 z"/></g><g id="bullet-char-template(9679)" transform="scale(4.8828125e-4,-4.8828125e-4)"><path id="path34" d="M 813,0 C 632,0 489,54 383,161 276,268 223,411 223,592 c 0,181 53,324 160,431 106,107 249,161 430,161 179,0 323,-54 432,-161 108,-107 162,-251 162,-431 0,-180 -54,-324 -162,-431 C 1136,54 992,0 813,0 z"/></g><g id="bullet-char-template(8226)" transform="scale(4.8828125e-4,-4.8828125e-4)"><path id="path37" d="m 346,457 c -73,0 -137,26 -191,78 -54,51 -81,114 -81,188 0,73 27,136 81,188 54,52 118,78 191,78 73,0 134,-26 185,-79 51,-51 77,-114 77,-187 0,-75 -25,-137 -76,-188 -50,-52 -112,-78 -186,-78 z"/></g><g id="bullet-char-template(8211)" transform="scale(4.8828125e-4,-4.8828125e-4)"><path id="path40" d="m -4,459 1139,0 0,147 -1139,0 0,-147 z"/></g></defs><g id="g49" class="SlideGroup" transform="translate(-1075,-1213.5254)"><g id="g51"><g id="id1" class="Slide" clip-path="url(#presentation_clip_path)"><g id="g54" class="Page"><g id="g56" class="com.sun.star.drawing.CustomShape"><g id="id3"><path id="path59" d="m 6550,3000 c -100,0 -200,100 -200,200 l 0,800 c 0,100 100,201 200,201 l 1850,0 c 100,0 201,-101 201,-201 l 0,-800 c 0,-100 -101,-200 -201,-200 l -1850,0 z" style="fill:none;stroke:#000;stroke-width:50"/><text id="text61" class="TextShape"><tspan id="tspan63" class="TextParagraph" font-size="388" font-weight="400" style="font-size:388px;font-weight:400;font-family:'Arial, sans-serif'"><tspan id="tspan65" x="6666" y="3735" class="TextPosition"><tspan id="tspan67" style="fill:#000;stroke:none">undersea</tspan></tspan></tspan></text></g></g><g id="g69" class="com.sun.star.drawing.LineShape"><g id="id4"><path id="path72" d="m 5300,2000 0,51" style="fill:none;stroke:#000;stroke-width:50"/><path id="path74" d="m 5300,2102 0,51" style="fill:none;stroke:#000;stroke-width:50"/><path id="path76" d="m 5300,2204 0,51" style="fill:none;stroke:#000;stroke-width:50"/><path id="path78" d="m 5300,2306 0,51" style="fill:none;stroke:#000;stroke-width:50"/><path id="path80" d="m 5300,2408 0,51" style="fill:none;stroke:#000;stroke-width:50"/><path id="path82" d="m 5300,2510 0,51" style="fill:none;stroke:#000;stroke-width:50"/><path id="path84" d="m 5300,2612 0,51" style="fill:none;stroke:#000;stroke-width:50"/><path id="path86" d="m 5300,2714 0,51" style="fill:none;stroke:#000;stroke-width:50"/><path id="path88" d="m 5300,2816 0,51" style="fill:none;stroke:#000;stroke-width:50"/><path id="path90" d="m 5300,2918 0,51" style="fill:none;stroke:#000;stroke-width:50"/><path id="path92" d="m 5300,3020 0,51" style="fill:none;stroke:#000;stroke-width:50"/><path id="path94" d="m 5300,3122 0,51" style="fill:none;stroke:#000;stroke-width:50"/><path id="path96" d="m 5300,3224 0,51" style="fill:none;stroke:#000;stroke-width:50"/><path id="path98" d="m 5300,3326 0,51" style="fill:none;stroke:#000;stroke-width:50"/><path id="path100" d="m 5300,3428 0,51" style="fill:none;stroke:#000;stroke-width:50"/><path id="path102" d="m 5300,3530 0,51" style="fill:none;stroke:#000;stroke-width:50"/><path id="path104" d="m 5300,3632 0,51" style="fill:none;stroke:#000;stroke-width:50"/><path id="path106" d="m 5300,3734 0,51" style="fill:none;stroke:#000;stroke-width:50"/><path id="path108" d="m 5300,3836 0,51" style="fill:none;stroke:#000;stroke-width:50"/><path id="path110" d="m 5300,3938 0,51" style="fill:none;stroke:#000;stroke-width:50"/><path id="path112" d="m 5300,4040 0,51" style="fill:none;stroke:#000;stroke-width:50"/><path id="path114" d="m 5300,4142 0,51" style="fill:none;stroke:#000;stroke-width:50"/><path id="path116" d="m 5300,4244 0,51" style="fill:none;stroke:#000;stroke-width:50"/><path id="path118" d="m 5300,4346 0,51" style="fill:none;stroke:#000;stroke-width:50"/><path id="path120" d="m 5300,4448 0,51" style="fill:none;stroke:#000;stroke-width:50"/><path id="path122" d="m 5300,4550 0,51" style="fill:none;stroke:#000;stroke-width:50"/><path id="path124" d="m 5300,4652 0,51" style="fill:none;stroke:#000;stroke-width:50"/><path id="path126" d="m 5300,4754 0,51" style="fill:none;stroke:#000;stroke-width:50"/><path id="path128" d="m 5300,4856 0,51" style="fill:none;stroke:#000;stroke-width:50"/><path id="path130" d="m 5300,4958 0,51" style="fill:none;stroke:#000;stroke-width:50"/><path id="path132" d="m 5300,5060 0,51" style="fill:none;stroke:#000;stroke-width:50"/><path id="path134" d="m 5300,5162 0,51" style="fill:none;stroke:#000;stroke-width:50"/><path id="path136" d="m 5300,5264 0,51" style="fill:none;stroke:#000;stroke-width:50"/><path id="path138" d="m 5300,5366 0,51" style="fill:none;stroke:#000;stroke-width:50"/><path id="path140" d="m 5300,5468 0,51" style="fill:none;stroke:#000;stroke-width:50"/><path id="path142" d="m 5300,5570 0,51" style="fill:none;stroke:#000;stroke-width:50"/><path id="path144" d="m 5300,5672 0,51" style="fill:none;stroke:#000;stroke-width:50"/><path id="path146" d="m 5300,5774 0,51" style="fill:none;stroke:#000;stroke-width:50"/><path id="path148" d="m 5300,5876 0,51" style="fill:none;stroke:#000;stroke-width:50"/><path id="path150" d="m 5300,5978 0,22" style="fill:none;stroke:#000;stroke-width:50"/></g></g><g id="g152" class="com.sun.star.drawing.LineShape"><g id="id5"><path id="path155" d="m 1100,2500 51,0" style="fill:none;stroke:#000;stroke-width:50"/><path id="path157" d="m 1202,2500 51,0" style="fill:none;stroke:#000;stroke-width:50"/><path id="path159" d="m 1304,2500 51,0" style="fill:none;stroke:#000;stroke-width:50"/><path id="path161" d="m 1406,2500 51,0" style="fill:none;stroke:#000;stroke-width:50"/><path id="path163" d="m 1508,2500 51,0" style="fill:none;stroke:#000;stroke-width:50"/><path id="path165" d="m 1610,2500 51,0" style="fill:none;stroke:#000;stroke-width:50"/><path id="path167" d="m 1712,2500 51,0" style="fill:none;stroke:#000;stroke-width:50"/><path id="path169" d="m 1814,2500 51,0" style="fill:none;stroke:#000;stroke-width:50"/><path id="path171" d="m 1916,2500 51,0" style="fill:none;stroke:#000;stroke-width:50"/><path id="path173" d="m 2018,2500 51,0" style="fill:none;stroke:#000;stroke-width:50"/><path id="path175" d="m 2120,2500 51,0" style="fill:none;stroke:#000;stroke-width:50"/><path id="path177" d="m 2222,2500 51,0" style="fill:none;stroke:#000;stroke-width:50"/><path id="path179" d="m 2324,2500 51,0" style="fill:none;stroke:#000;stroke-width:50"/><path id="path181" d="m 2426,2500 51,0" style="fill:none;stroke:#000;stroke-width:50"/><path id="path183" d="m 2528,2500 51,0" style="fill:none;stroke:#000;stroke-width:50"/><path id="path185" d="m 2630,2500 51,0" style="fill:none;stroke:#000;stroke-width:50"/><path id="path187" d="m 2732,2500 51,0" style="fill:none;stroke:#000;stroke-width:50"/><path id="path189" d="m 2834,2500 51,0" style="fill:none;stroke:#000;stroke-width:50"/><path id="path191" d="m 2936,2500 51,0" style="fill:none;stroke:#000;stroke-width:50"/><path id="path193" d="m 3038,2500 51,0" style="fill:none;stroke:#000;stroke-width:50"/><path id="path195" d="m 3140,2500 51,0" style="fill:none;stroke:#000;stroke-width:50"/><path id="path197" d="m 3242,2500 51,0" style="fill:none;stroke:#000;stroke-width:50"/><path id="path199" d="m 3344,2500 51,0" style="fill:none;stroke:#000;stroke-width:50"/><path id="path201" d="m 3446,2500 51,0" style="fill:none;stroke:#000;stroke-width:50"/><path id="path203" d="m 3548,2500 51,0" style="fill:none;stroke:#000;stroke-width:50"/><path id="path205" d="m 3650,2500 51,0" style="fill:none;stroke:#000;stroke-width:50"/><path id="path207" d="m 3752,2500 51,0" style="fill:none;stroke:#000;stroke-width:50"/><path id="path209" d="m 3854,2500 51,0" style="fill:none;stroke:#000;stroke-width:50"/><path id="path211" d="m 3956,2500 51,0" style="fill:none;stroke:#000;stroke-width:50"/><path id="path213" d="m 4058,2500 51,0" style="fill:none;stroke:#000;stroke-width:50"/><path id="path215" d="m 4160,2500 51,0" style="fill:none;stroke:#000;stroke-width:50"/><path id="path217" d="m 4262,2500 51,0" style="fill:none;stroke:#000;stroke-width:50"/><path id="path219" d="m 4364,2500 51,0" style="fill:none;stroke:#000;stroke-width:50"/><path id="path221" d="m 4466,2500 51,0" style="fill:none;stroke:#000;stroke-width:50"/><path id="path223" d="m 4568,2500 51,0" style="fill:none;stroke:#000;stroke-width:50"/><path id="path225" d="m 4670,2500 51,0" style="fill:none;stroke:#000;stroke-width:50"/><path id="path227" d="m 4772,2500 51,0" style="fill:none;stroke:#000;stroke-width:50"/><path id="path229" d="m 4874,2500 51,0" style="fill:none;stroke:#000;stroke-width:50"/><path id="path231" d="m 4976,2500 51,0" style="fill:none;stroke:#000;stroke-width:50"/><path id="path233" d="m 5078,2500 51,0" style="fill:none;stroke:#000;stroke-width:50"/><path id="path235" d="m 5180,2500 51,0" style="fill:none;stroke:#000;stroke-width:50"/><path id="path237" d="m 5282,2500 51,0" style="fill:none;stroke:#000;stroke-width:50"/><path id="path239" d="m 5384,2500 51,0" style="fill:none;stroke:#000;stroke-width:50"/><path id="path241" d="m 5486,2500 51,0" style="fill:none;stroke:#000;stroke-width:50"/><path id="path243" d="m 5588,2500 51,0" style="fill:none;stroke:#000;stroke-width:50"/><path id="path245" d="m 5690,2500 51,0" style="fill:none;stroke:#000;stroke-width:50"/><path id="path247" d="m 5792,2500 51,0" style="fill:none;stroke:#000;stroke-width:50"/><path id="path249" d="m 5894,2500 51,0" style="fill:none;stroke:#000;stroke-width:50"/><path id="path251" d="m 5996,2500 51,0" style="fill:none;stroke:#000;stroke-width:50"/><path id="path253" d="m 6098,2500 51,0" style="fill:none;stroke:#000;stroke-width:50"/><path id="path255" d="m 6200,2500 51,0" style="fill:none;stroke:#000;stroke-width:50"/><path id="path257" d="m 6302,2500 51,0" style="fill:none;stroke:#000;stroke-width:50"/><path id="path259" d="m 6404,2500 51,0" style="fill:none;stroke:#000;stroke-width:50"/><path id="path261" d="m 6506,2500 51,0" style="fill:none;stroke:#000;stroke-width:50"/><path id="path263" d="m 6608,2500 51,0" style="fill:none;stroke:#000;stroke-width:50"/><path id="path265" d="m 6710,2500 51,0" style="fill:none;stroke:#000;stroke-width:50"/><path id="path267" d="m 6812,2500 51,0" style="fill:none;stroke:#000;stroke-width:50"/><path id="path269" d="m 6914,2500 51,0" style="fill:none;stroke:#000;stroke-width:50"/><path id="path271" d="m 7016,2500 51,0" style="fill:none;stroke:#000;stroke-width:50"/><path id="path273" d="m 7118,2500 51,0" style="fill:none;stroke:#000;stroke-width:50"/><path id="path275" d="m 7220,2500 51,0" style="fill:none;stroke:#000;stroke-width:50"/><path id="path277" d="m 7322,2500 51,0" style="fill:none;stroke:#000;stroke-width:50"/><path id="path279" d="m 7424,2500 51,0" style="fill:none;stroke:#000;stroke-width:50"/><path id="path281" d="m 7526,2500 51,0" style="fill:none;stroke:#000;stroke-width:50"/><path id="path283" d="m 7628,2500 51,0" style="fill:none;stroke:#000;stroke-width:50"/><path id="path285" d="m 7730,2500 51,0" style="fill:none;stroke:#000;stroke-width:50"/><path id="path287" d="m 7832,2500 51,0" style="fill:none;stroke:#000;stroke-width:50"/><path id="path289" d="m 7934,2500 51,0" style="fill:none;stroke:#000;stroke-width:50"/><path id="path291" d="m 8036,2500 51,0" style="fill:none;stroke:#000;stroke-width:50"/><path id="path293" d="m 8138,2500 51,0" style="fill:none;stroke:#000;stroke-width:50"/><path id="path295" d="m 8240,2500 51,0" style="fill:none;stroke:#000;stroke-width:50"/><path id="path297" d="m 8342,2500 51,0" style="fill:none;stroke:#000;stroke-width:50"/><path id="path299" d="m 8444,2500 51,0" style="fill:none;stroke:#000;stroke-width:50"/><path id="path301" d="m 8546,2500 51,0" style="fill:none;stroke:#000;stroke-width:50"/><path id="path303" d="m 8648,2500 51,0" style="fill:none;stroke:#000;stroke-width:50"/><path id="path305" d="m 8750,2500 51,0" style="fill:none;stroke:#000;stroke-width:50"/><path id="path307" d="m 8852,2500 51,0" style="fill:none;stroke:#000;stroke-width:50"/><path id="path309" d="m 8954,2500 51,0" style="fill:none;stroke:#000;stroke-width:50"/><path id="path311" d="m 9056,2500 51,0" style="fill:none;stroke:#000;stroke-width:50"/><path id="path313" d="m 9158,2500 51,0" style="fill:none;stroke:#000;stroke-width:50"/><path id="path315" d="m 9260,2500 51,0" style="fill:none;stroke:#000;stroke-width:50"/><path id="path317" d="m 9362,2500 51,0" style="fill:none;stroke:#000;stroke-width:50"/><path id="path319" d="m 9464,2500 51,0" style="fill:none;stroke:#000;stroke-width:50"/><path id="path321" d="m 9566,2500 51,0" style="fill:none;stroke:#000;stroke-width:50"/><path id="path323" d="m 9668,2500 51,0" style="fill:none;stroke:#000;stroke-width:50"/><path id="path325" d="m 9770,2500 51,0" style="fill:none;stroke:#000;stroke-width:50"/><path id="path327" d="m 9872,2500 51,0" style="fill:none;stroke:#000;stroke-width:50"/><path id="path329" d="m 9974,2500 51,0" style="fill:none;stroke:#000;stroke-width:50"/><path id="path331" d="m 10076,2500 51,0" style="fill:none;stroke:#000;stroke-width:50"/><path id="path333" d="m 10178,2500 51,0" style="fill:none;stroke:#000;stroke-width:50"/><path id="path335" d="m 10280,2500 51,0" style="fill:none;stroke:#000;stroke-width:50"/><path id="path337" d="m 10382,2500 51,0" style="fill:none;stroke:#000;stroke-width:50"/><path id="path339" d="m 10484,2500 51,0" style="fill:none;stroke:#000;stroke-width:50"/><path id="path341" d="m 10586,2500 51,0" style="fill:none;stroke:#000;stroke-width:50"/><path id="path343" d="m 10688,2500 51,0" style="fill:none;stroke:#000;stroke-width:50"/><path id="path345" d="m 10790,2500 51,0" style="fill:none;stroke:#000;stroke-width:50"/><path id="path347" d="m 10892,2500 51,0" style="fill:none;stroke:#000;stroke-width:50"/><path id="path349" d="m 10994,2500 51,0" style="fill:none;stroke:#000;stroke-width:50"/><path id="path351" d="m 11096,2500 51,0" style="fill:none;stroke:#000;stroke-width:50"/><path id="path353" d="m 11198,2500 51,0" style="fill:none;stroke:#000;stroke-width:50"/><path id="path355" d="m 11300,2500 51,0" style="fill:none;stroke:#000;stroke-width:50"/><path id="path357" d="m 11402,2500 51,0" style="fill:none;stroke:#000;stroke-width:50"/><path id="path359" d="m 11504,2500 51,0" style="fill:none;stroke:#000;stroke-width:50"/><path id="path361" d="m 11606,2500 51,0" style="fill:none;stroke:#000;stroke-width:50"/><path id="path363" d="m 11708,2500 51,0" style="fill:none;stroke:#000;stroke-width:50"/><path id="path365" d="m 11810,2500 51,0" style="fill:none;stroke:#000;stroke-width:50"/><path id="path367" d="m 11912,2500 51,0" style="fill:none;stroke:#000;stroke-width:50"/><path id="path369" d="m 12014,2500 51,0" style="fill:none;stroke:#000;stroke-width:50"/><path id="path371" d="m 12116,2500 51,0" style="fill:none;stroke:#000;stroke-width:50"/><path id="path373" d="m 12218,2500 51,0" style="fill:none;stroke:#000;stroke-width:50"/><path id="path375" d="m 12320,2500 51,0" style="fill:none;stroke:#000;stroke-width:50"/><path id="path377" d="m 12422,2500 51,0" style="fill:none;stroke:#000;stroke-width:50"/><path id="path379" d="m 12524,2500 51,0" style="fill:none;stroke:#000;stroke-width:50"/><path id="path381" d="m 12626,2500 51,0" style="fill:none;stroke:#000;stroke-width:50"/><path id="path383" d="m 12728,2500 51,0" style="fill:none;stroke:#000;stroke-width:50"/><path id="path385" d="m 12830,2500 51,0" style="fill:none;stroke:#000;stroke-width:50"/><path id="path387" d="m 12932,2500 51,0" style="fill:none;stroke:#000;stroke-width:50"/><path id="path389" d="m 13034,2500 51,0" style="fill:none;stroke:#000;stroke-width:50"/><path id="path391" d="m 13136,2500 51,0" style="fill:none;stroke:#000;stroke-width:50"/><path id="path393" d="m 13238,2500 51,0" style="fill:none;stroke:#000;stroke-width:50"/><path id="path395" d="m 13340,2500 51,0" style="fill:none;stroke:#000;stroke-width:50"/><path id="path397" d="m 13442,2500 51,0" style="fill:none;stroke:#000;stroke-width:50"/><path id="path399" d="m 13544,2500 51,0" style="fill:none;stroke:#000;stroke-width:50"/><path id="path401" d="m 13646,2500 51,0" style="fill:none;stroke:#000;stroke-width:50"/><path id="path403" d="m 13748,2500 51,0" style="fill:none;stroke:#000;stroke-width:50"/><path id="path405" d="m 13850,2500 51,0" style="fill:none;stroke:#000;stroke-width:50"/><path id="path407" d="m 13952,2500 51,0" style="fill:none;stroke:#000;stroke-width:50"/><path id="path409" d="m 14054,2500 51,0" style="fill:none;stroke:#000;stroke-width:50"/><path id="path411" d="m 14156,2500 51,0" style="fill:none;stroke:#000;stroke-width:50"/><path id="path413" d="m 14258,2500 51,0" style="fill:none;stroke:#000;stroke-width:50"/><path id="path415" d="m 14360,2500 51,0" style="fill:none;stroke:#000;stroke-width:50"/><path id="path417" d="m 14462,2500 51,0" style="fill:none;stroke:#000;stroke-width:50"/><path id="path419" d="m 14564,2500 51,0" style="fill:none;stroke:#000;stroke-width:50"/><path id="path421" d="m 14666,2500 51,0" style="fill:none;stroke:#000;stroke-width:50"/><path id="path423" d="m 14768,2500 51,0" style="fill:none;stroke:#000;stroke-width:50"/><path id="path425" d="m 14870,2500 51,0" style="fill:none;stroke:#000;stroke-width:50"/><path id="path427" d="m 14972,2500 51,0" style="fill:none;stroke:#000;stroke-width:50"/><path id="path429" d="m 15074,2500 51,0" style="fill:none;stroke:#000;stroke-width:50"/><path id="path431" d="m 15176,2500 51,0" style="fill:none;stroke:#000;stroke-width:50"/><path id="path433" d="m 15278,2500 51,0" style="fill:none;stroke:#000;stroke-width:50"/><path id="path435" d="m 15380,2500 51,0" style="fill:none;stroke:#000;stroke-width:50"/><path id="path437" d="m 15482,2500 51,0" style="fill:none;stroke:#000;stroke-width:50"/><path id="path439" d="m 15584,2500 51,0" style="fill:none;stroke:#000;stroke-width:50"/><path id="path441" d="m 15686,2500 51,0" style="fill:none;stroke:#000;stroke-width:50"/><path id="path443" d="m 15788,2500 51,0" style="fill:none;stroke:#000;stroke-width:50"/><path id="path445" d="m 15890,2500 51,0" style="fill:none;stroke:#000;stroke-width:50"/><path id="path447" d="m 15992,2500 51,0" style="fill:none;stroke:#000;stroke-width:50"/><path id="path449" d="m 16094,2500 51,0" style="fill:none;stroke:#000;stroke-width:50"/><path id="path451" d="m 16196,2500 51,0" style="fill:none;stroke:#000;stroke-width:50"/><path id="path453" d="m 16298,2500 51,0" style="fill:none;stroke:#000;stroke-width:50"/><path id="path455" d="m 16400,2500 51,0" style="fill:none;stroke:#000;stroke-width:50"/><path id="path457" d="m 16502,2500 51,0" style="fill:none;stroke:#000;stroke-width:50"/><path id="path459" d="m 16604,2500 51,0" style="fill:none;stroke:#000;stroke-width:50"/><path id="path461" d="m 16706,2500 51,0" style="fill:none;stroke:#000;stroke-width:50"/><path id="path463" d="m 16808,2500 51,0" style="fill:none;stroke:#000;stroke-width:50"/><path id="path465" d="m 16910,2500 51,0" style="fill:none;stroke:#000;stroke-width:50"/><path id="path467" d="m 17012,2500 51,0" style="fill:none;stroke:#000;stroke-width:50"/><path id="path469" d="m 17114,2500 51,0" style="fill:none;stroke:#000;stroke-width:50"/><path id="path471" d="m 17216,2500 51,0" style="fill:none;stroke:#000;stroke-width:50"/><path id="path473" d="m 17318,2500 51,0" style="fill:none;stroke:#000;stroke-width:50"/><path id="path475" d="m 17420,2500 51,0" style="fill:none;stroke:#000;stroke-width:50"/><path id="path477" d="m 17522,2500 51,0" style="fill:none;stroke:#000;stroke-width:50"/><path id="path479" d="m 17624,2500 51,0" style="fill:none;stroke:#000;stroke-width:50"/><path id="path481" d="m 17726,2500 51,0" style="fill:none;stroke:#000;stroke-width:50"/><path id="path483" d="m 17828,2500 51,0" style="fill:none;stroke:#000;stroke-width:50"/><path id="path485" d="m 17930,2500 51,0" style="fill:none;stroke:#000;stroke-width:50"/><path id="path487" d="m 18032,2500 51,0" style="fill:none;stroke:#000;stroke-width:50"/><path id="path489" d="m 18134,2500 51,0" style="fill:none;stroke:#000;stroke-width:50"/><path id="path491" d="m 18236,2500 51,0" style="fill:none;stroke:#000;stroke-width:50"/><path id="path493" d="m 18338,2500 51,0" style="fill:none;stroke:#000;stroke-width:50"/><path id="path495" d="m 18440,2500 51,0" style="fill:none;stroke:#000;stroke-width:50"/><path id="path497" d="m 18542,2500 51,0" style="fill:none;stroke:#000;stroke-width:50"/><path id="path499" d="m 18644,2500 51,0" style="fill:none;stroke:#000;stroke-width:50"/></g></g><g id="g501" class="com.sun.star.drawing.TextShape"><g id="id6"><text id="text504" class="TextShape"><tspan id="tspan506" class="TextParagraph" font-size="388" font-weight="400" style="font-size:388px;font-weight:400;font-family:'Arial, sans-serif'"><tspan id="tspan508" x="5996" y="2195" class="TextPosition"><tspan id="tspan510" style="fill:#000;stroke:none">Dracula&apos;s Account</tspan></tspan></tspan></text></g></g><g id="g512" class="com.sun.star.drawing.TextShape"><g id="id7"><text id="text515" class="TextShape"><tspan id="tspan517" class="TextParagraph" font-size="388" font-weight="400" style="font-size:388px;font-weight:400;font-family:'Arial, sans-serif'"><tspan id="tspan519" x="1397" y="2196" class="TextPosition"><tspan id="tspan521" style="fill:#000;stroke:none">Dracula&apos;s Computer</tspan></tspan></tspan></text></g></g><g id="g523" class="com.sun.star.drawing.TextShape"><g id="id8"><text id="text526" class="TextShape"><tspan id="tspan528" class="TextParagraph" font-size="388" font-weight="400" style="font-size:388px;font-weight:400;font-family:'Arial, sans-serif'"><tspan id="tspan530" x="10397" y="2196" class="TextPosition"><tspan id="tspan532" style="fill:#000;stroke:none">Wolfman&apos;s Account</tspan></tspan></tspan></text></g></g><g id="g534" class="com.sun.star.drawing.LineShape"><g id="id9"><path id="path537" d="m 14301,2000 0,51" style="fill:none;stroke:#000;stroke-width:50"/><path id="path539" d="m 14301,2102 0,51" style="fill:none;stroke:#000;stroke-width:50"/><path id="path541" d="m 14301,2204 0,51" style="fill:none;stroke:#000;stroke-width:50"/><path id="path543" d="m 14301,2306 0,51" style="fill:none;stroke:#000;stroke-width:50"/><path id="path545" d="m 14301,2408 0,51" style="fill:none;stroke:#000;stroke-width:50"/><path id="path547" d="m 14301,2510 0,51" style="fill:none;stroke:#000;stroke-width:50"/><path id="path549" d="m 14301,2612 0,51" style="fill:none;stroke:#000;stroke-width:50"/><path id="path551" d="m 14301,2714 0,51" style="fill:none;stroke:#000;stroke-width:50"/><path id="path553" d="m 14301,2816 0,51" style="fill:none;stroke:#000;stroke-width:50"/><path id="path555" d="m 14301,2918 0,51" style="fill:none;stroke:#000;stroke-width:50"/><path id="path557" d="m 14301,3020 0,51" style="fill:none;stroke:#000;stroke-width:50"/><path id="path559" d="m 14301,3122 0,51" style="fill:none;stroke:#000;stroke-width:50"/><path id="path561" d="m 14301,3224 0,51" style="fill:none;stroke:#000;stroke-width:50"/><path id="path563" d="m 14301,3326 0,51" style="fill:none;stroke:#000;stroke-width:50"/><path id="path565" d="m 14301,3428 0,51" style="fill:none;stroke:#000;stroke-width:50"/><path id="path567" d="m 14301,3530 0,51" style="fill:none;stroke:#000;stroke-width:50"/><path id="path569" d="m 14301,3632 0,51" style="fill:none;stroke:#000;stroke-width:50"/><path id="path571" d="m 14301,3734 0,51" style="fill:none;stroke:#000;stroke-width:50"/><path id="path573" d="m 14301,3836 0,51" style="fill:none;stroke:#000;stroke-width:50"/><path id="path575" d="m 14301,3938 0,51" style="fill:none;stroke:#000;stroke-width:50"/><path id="path577" d="m 14301,4040 0,51" style="fill:none;stroke:#000;stroke-width:50"/><path id="path579" d="m 14301,4142 0,51" style="fill:none;stroke:#000;stroke-width:50"/><path id="path581" d="m 14301,4244 0,51" style="fill:none;stroke:#000;stroke-width:50"/><path id="path583" d="m 14301,4346 0,51" style="fill:none;stroke:#000;stroke-width:50"/><path id="path585" d="m 14301,4448 0,51" style="fill:none;stroke:#000;stroke-width:50"/><path id="path587" d="m 14301,4550 0,51" style="fill:none;stroke:#000;stroke-width:50"/><path id="path589" d="m 14301,4652 0,51" style="fill:none;stroke:#000;stroke-width:50"/><path id="path591" d="m 14301,4754 0,51" style="fill:none;stroke:#000;stroke-width:50"/><path id="path593" d="m 14301,4856 0,51" style="fill:none;stroke:#000;stroke-width:50"/><path id="path595" d="m 14301,4958 0,51" style="fill:none;stroke:#000;stroke-width:50"/><path id="path597" d="m 14301,5060 0,51" style="fill:none;stroke:#000;stroke-width:50"/><path id="path599" d="m 14301,5162 0,51" style="fill:none;stroke:#000;stroke-width:50"/><path id="path601" d="m 14301,5264 0,51" style="fill:none;stroke:#000;stroke-width:50"/><path id="path603" d="m 14301,5366 0,51" style="fill:none;stroke:#000;stroke-width:50"/><path id="path605" d="m 14301,5468 0,51" style="fill:none;stroke:#000;stroke-width:50"/><path id="path607" d="m 14301,5570 0,51" style="fill:none;stroke:#000;stroke-width:50"/><path id="path609" d="m 14301,5672 0,51" style="fill:none;stroke:#000;stroke-width:50"/><path id="path611" d="m 14301,5774 0,51" style="fill:none;stroke:#000;stroke-width:50"/><path id="path613" d="m 14301,5876 0,51" style="fill:none;stroke:#000;stroke-width:50"/><path id="path615" d="m 14301,5978 0,22" style="fill:none;stroke:#000;stroke-width:50"/></g></g><g id="g617" class="com.sun.star.drawing.TextShape"><g id="id10"><text id="text620" class="TextShape"><tspan id="tspan622" class="TextParagraph" font-size="388" font-weight="400" style="font-size:388px;font-weight:400;font-family:'Arial, sans-serif'"><tspan id="tspan624" x="14798" y="2196" class="TextPosition"><tspan id="tspan626" style="fill:#000;stroke:none">Wolfman&apos;s Computer</tspan></tspan></tspan></text></g></g><g id="g628" class="com.sun.star.drawing.TextShape"><g id="id11"><text id="text631" class="TextShape"><tspan id="tspan633" class="TextParagraph" font-size="388" font-weight="400" style="font-size:388px;font-weight:400;font-family:'Arial, sans-serif'"><tspan id="tspan635" x="9297" y="1496" class="TextPosition"><tspan id="tspan637" style="fill:#000;stroke:none">GitHub</tspan></tspan></tspan></text></g></g><g id="g639" class="com.sun.star.drawing.LineShape"><g id="id12"><path id="path642" d="m 9700,2500 0,51" style="fill:none;stroke:#000;stroke-width:50"/><path id="path644" d="m 9700,2602 0,51" style="fill:none;stroke:#000;stroke-width:50"/><path id="path646" d="m 9700,2704 0,51" style="fill:none;stroke:#000;stroke-width:50"/><path id="path648" d="m 9700,2806 0,51" style="fill:none;stroke:#000;stroke-width:50"/><path id="path650" d="m 9700,2908 0,51" style="fill:none;stroke:#000;stroke-width:50"/><path id="path652" d="m 9700,3010 0,51" style="fill:none;stroke:#000;stroke-width:50"/><path id="path654" d="m 9700,3112 0,51" style="fill:none;stroke:#000;stroke-width:50"/><path id="path656" d="m 9700,3214 0,51" style="fill:none;stroke:#000;stroke-width:50"/><path id="path658" d="m 9700,3316 0,51" style="fill:none;stroke:#000;stroke-width:50"/><path id="path660" d="m 9700,3418 0,51" style="fill:none;stroke:#000;stroke-width:50"/><path id="path662" d="m 9700,3520 0,51" style="fill:none;stroke:#000;stroke-width:50"/><path id="path664" d="m 9700,3622 0,51" style="fill:none;stroke:#000;stroke-width:50"/><path id="path666" d="m 9700,3724 0,51" style="fill:none;stroke:#000;stroke-width:50"/><path id="path668" d="m 9700,3826 0,51" style="fill:none;stroke:#000;stroke-width:50"/><path id="path670" d="m 9700,3928 0,51" style="fill:none;stroke:#000;stroke-width:50"/><path id="path672" d="m 9700,4030 0,51" style="fill:none;stroke:#000;stroke-width:50"/><path id="path674" d="m 9700,4132 0,51" style="fill:none;stroke:#000;stroke-width:50"/><path id="path676" d="m 9700,4234 0,51" style="fill:none;stroke:#000;stroke-width:50"/><path id="path678" d="m 9700,4336 0,51" style="fill:none;stroke:#000;stroke-width:50"/><path id="path680" d="m 9700,4438 0,51" style="fill:none;stroke:#000;stroke-width:50"/><path id="path682" d="m 9700,4540 0,51" style="fill:none;stroke:#000;stroke-width:50"/><path id="path684" d="m 9700,4642 0,51" style="fill:none;stroke:#000;stroke-width:50"/><path id="path686" d="m 9700,4744 0,51" style="fill:none;stroke:#000;stroke-width:50"/><path id="path688" d="m 9700,4846 0,51" style="fill:none;stroke:#000;stroke-width:50"/><path id="path690" d="m 9700,4948 0,51" style="fill:none;stroke:#000;stroke-width:50"/><path id="path692" d="m 9700,5050 0,51" style="fill:none;stroke:#000;stroke-width:50"/><path id="path694" d="m 9700,5152 0,51" style="fill:none;stroke:#000;stroke-width:50"/><path id="path696" d="m 9700,5254 0,51" style="fill:none;stroke:#000;stroke-width:50"/><path id="path698" d="m 9700,5356 0,51" style="fill:none;stroke:#000;stroke-width:50"/><path id="path700" d="m 9700,5458 0,51" style="fill:none;stroke:#000;stroke-width:50"/><path id="path702" d="m 9700,5560 0,51" style="fill:none;stroke:#000;stroke-width:50"/><path id="path704" d="m 9700,5662 0,51" style="fill:none;stroke:#000;stroke-width:50"/><path id="path706" d="m 9700,5764 0,51" style="fill:none;stroke:#000;stroke-width:50"/><path id="path708" d="m 9700,5866 0,51" style="fill:none;stroke:#000;stroke-width:50"/><path id="path710" d="m 9700,5968 0,32" style="fill:none;stroke:#000;stroke-width:50"/></g></g><g id="g712" class="com.sun.star.drawing.CustomShape"><g id="id13"><path id="path715" d="m 10950,3000 c -100,0 -200,100 -200,200 l 0,800 c 0,100 100,201 200,201 l 1850,0 c 100,0 201,-101 201,-201 l 0,-800 c 0,-100 -101,-200 -201,-200 l -1850,0 z" style="fill:none;stroke:#000;stroke-width:50"/><text id="text717" class="TextShape"><tspan id="tspan719" class="TextParagraph" font-size="388" font-weight="400" style="font-size:388px;font-weight:400;font-family:'Arial, sans-serif'"><tspan id="tspan721" x="11066" y="3735" class="TextPosition"><tspan id="tspan723" style="fill:#000;stroke:none">undersea</tspan></tspan></tspan></text></g></g><g id="g725" class="com.sun.star.drawing.CustomShape"><g id="id14"><path id="path728" d="m 15650,4000 c -100,0 -200,100 -200,200 l 0,800 c 0,100 100,201 200,201 l 1850,0 c 100,0 201,-101 201,-201 l 0,-800 c 0,-100 -101,-200 -201,-200 l -1850,0 z" style="fill:none;stroke:#000;stroke-width:50"/><text id="text730" class="TextShape"><tspan id="tspan732" class="TextParagraph" font-size="388" font-weight="400" style="font-size:388px;font-weight:400;font-family:'Arial, sans-serif'"><tspan id="tspan734" x="15766" y="4735" class="TextPosition"><tspan id="tspan736" style="fill:#000;stroke:none">undersea</tspan></tspan></tspan></text></g></g><g id="g738" class="com.sun.star.drawing.CustomShape"><g id="id15"><path id="path741" d="m 2150,4000 c -100,0 -200,100 -200,200 l 0,800 c 0,100 100,201 200,201 l 1850,0 c 100,0 201,-101 201,-201 l 0,-800 c 0,-100 -101,-200 -201,-200 l -1850,0 z" style="fill:none;stroke:#000;stroke-width:50"/><text id="text743" class="TextShape"><tspan id="tspan745" class="TextParagraph" font-size="388" font-weight="400" style="font-size:388px;font-weight:400;font-family:'Arial, sans-serif'"><tspan id="tspan747" x="2266" y="4735" class="TextPosition"><tspan id="tspan749" style="fill:#000;stroke:none">undersea</tspan></tspan></tspan></text></g></g><g id="g751" class="com.sun.star.drawing.LineShape"><g id="id16"><path id="path754" d="M 4400,4200 5787,3762" style="fill:none;stroke:#000;stroke-width:50"/><path id="path756" d="m 6300,3600 -593,-9 113,357 480,-348 z" style="fill:#000;stroke:none"/></g></g><g id="g758" class="com.sun.star.drawing.LineShape"><g id="id17"><path id="path761" d="m 8700,3600 1363,0" style="fill:none;stroke:#000;stroke-width:50"/><path id="path763" d="m 10600,3600 -562,-187 0,375 562,-188 z" style="fill:#000;stroke:none"/></g></g><g id="g765" class="com.sun.star.drawing.LineShape"><g id="id18"><path id="path768" d="M 15300,4200 13717,3748" style="fill:none;stroke:#000;stroke-width:50"/><path id="path770" d="m 13200,3600 489,335 103,-361 -592,26 z" style="fill:#000;stroke:none"/></g></g></g></g></g></g></svg>