<svg xmlns="http://www.w3.org/2000/svg" xmlns:ooo="http://xml.openoffice.org/svg/export" xmlns:svg="http://www.w3.org/2000/svg" id="svg7956" width="374.774" height="299.409" clip-path="url(#presentation_clip_path)" style="fill-rule:evenodd;stroke-width:28.22200012;stroke-linejoin:round" preserveAspectRatio="xMidYMid" version="1.2" viewBox="0 0 10576.95 8450" xml:space="preserve"><metadata id="metadata8672"/><defs id="defs7958" class="ClipPathGroup"><clipPath id="presentation_clip_path" clipPathUnits="userSpaceOnUse"><rect id="rect7961" width="21590" height="27940" x="0" y="0"/></clipPath></defs><defs id="defs7967" class="EmbeddedBulletChars"><g id="bullet-char-template(57356)" transform="scale(4.8828125e-4,-4.8828125e-4)"><path id="path7970" d="M 580,1141 1163,571 580,0 -4,571 580,1141 z"/></g><g id="bullet-char-template(57354)" transform="scale(4.8828125e-4,-4.8828125e-4)"><path id="path7973" d="m 8,1128 1129,0 L 1137,0 8,0 8,1128 z"/></g><g id="bullet-char-template(10146)" transform="scale(4.8828125e-4,-4.8828125e-4)"><path id="path7976" d="M 174,0 602,739 174,1481 1456,739 174,0 z m 1184,739 -1049,607 350,-607 699,0 z"/></g><g id="bullet-char-template(10132)" transform="scale(4.8828125e-4,-4.8828125e-4)"><path id="path7979" d="M 2015,739 1276,0 717,0 l 543,543 -1086,0 0,393 1086,0 -543,545 557,0 741,-742 z"/></g><g id="bullet-char-template(10007)" transform="scale(4.8828125e-4,-4.8828125e-4)"><path id="path7982" d="m 0,-2 c -7,16 -16,29 -25,39 l 381,530 c -94,256 -141,385 -141,387 0,25 13,38 40,38 9,0 21,-2 34,-5 21,4 42,12 65,25 l 27,-13 111,-251 280,301 64,-25 24,25 c 21,-10 41,-24 62,-43 C 886,937 835,863 770,784 769,783 710,716 594,584 L 774,223 c 0,-27 -21,-55 -63,-84 l 16,-20 C 717,90 699,76 672,76 641,76 570,178 457,381 L 164,-76 c -22,-34 -53,-51 -92,-51 -42,0 -63,17 -64,51 -7,9 -10,24 -10,44 0,9 1,19 2,30 z"/></g><g id="bullet-char-template(10004)" transform="scale(4.8828125e-4,-4.8828125e-4)"><path id="path7985" d="M 285,-33 C 182,-33 111,30 74,156 52,228 41,333 41,471 c 0,78 14,145 41,201 34,71 87,106 158,106 53,0 88,-31 106,-94 l 23,-176 c 8,-64 28,-97 59,-98 l 735,706 c 11,11 33,17 66,17 42,0 63,-15 63,-46 l 0,-122 c 0,-36 -10,-64 -30,-84 L 442,47 C 390,-6 338,-33 285,-33 z"/></g><g id="bullet-char-template(9679)" transform="scale(4.8828125e-4,-4.8828125e-4)"><path id="path7988" d="M 813,0 C 632,0 489,54 383,161 276,268 223,411 223,592 c 0,181 53,324 160,431 106,107 249,161 430,161 179,0 323,-54 432,-161 108,-107 162,-251 162,-431 0,-180 -54,-324 -162,-431 C 1136,54 992,0 813,0 z"/></g><g id="bullet-char-template(8226)" transform="scale(4.8828125e-4,-4.8828125e-4)"><path id="path7991" d="m 346,457 c -73,0 -137,26 -191,78 -54,51 -81,114 -81,188 0,73 27,136 81,188 54,52 118,78 191,78 73,0 134,-26 185,-79 51,-51 77,-114 77,-187 0,-75 -25,-137 -76,-188 -50,-52 -112,-78 -186,-78 z"/></g><g id="bullet-char-template(8211)" transform="scale(4.8828125e-4,-4.8828125e-4)"><path id="path7994" d="m -4,459 1139,0 0,147 -1139,0 0,-147 z"/></g></defs><g id="g8003" class="SlideGroup" transform="translate(-1448.0508,-1275)"><g id="g8005"><g id="id1" class="Slide" clip-path="url(#presentation_clip_path)"><g id="g8008" class="Page"><g id="g8010" class="com.sun.star.drawing.LineShape"><g id="id3"><path id="path8013" d="m 7200,5300 1170,0" style="fill:none;stroke:#000"/><path id="path8015" d="m 8800,5300 -450,-150 0,300 450,-150 z" style="fill:#000;stroke:none"/></g></g><g id="g8017" class="com.sun.star.drawing.TextShape"><g id="id4"><path id="path8020" d="m 5820,5583 -1081,0 0,-683 2161,0 0,683 -1080,0 z" style="fill:silver;stroke:none"/><text id="text8022" class="TextShape"><tspan id="tspan8024" class="TextParagraph" font-size="388" font-weight="400" style="font-size:388px;font-weight:400;font-family:'Arial, sans-serif'"><tspan id="tspan8026" x="4989" y="5376" class="TextPosition"><tspan id="tspan8028" style="fill:#000;stroke:none">string_val</tspan></tspan></tspan></text></g></g><g id="g8030" class="com.sun.star.drawing.LineShape"><g id="id5"><path id="path8033" d="m 7500,9700 0,-51" style="fill:none;stroke:#000;stroke-width:50"/><path id="path8035" d="m 7500,9598 0,-51" style="fill:none;stroke:#000;stroke-width:50"/><path id="path8037" d="m 7500,9496 0,-51" style="fill:none;stroke:#000;stroke-width:50"/><path id="path8039" d="m 7500,9394 0,-51" style="fill:none;stroke:#000;stroke-width:50"/><path id="path8041" d="m 7500,9292 0,-51" style="fill:none;stroke:#000;stroke-width:50"/><path id="path8043" d="m 7500,9190 0,-51" style="fill:none;stroke:#000;stroke-width:50"/><path id="path8045" d="m 7500,9088 0,-51" style="fill:none;stroke:#000;stroke-width:50"/><path id="path8047" d="m 7500,8986 0,-51" style="fill:none;stroke:#000;stroke-width:50"/><path id="path8049" d="m 7500,8884 0,-51" style="fill:none;stroke:#000;stroke-width:50"/><path id="path8051" d="m 7500,8782 0,-51" style="fill:none;stroke:#000;stroke-width:50"/><path id="path8053" d="m 7500,8680 0,-51" style="fill:none;stroke:#000;stroke-width:50"/><path id="path8055" d="m 7500,8578 0,-51" style="fill:none;stroke:#000;stroke-width:50"/><path id="path8057" d="m 7500,8476 0,-51" style="fill:none;stroke:#000;stroke-width:50"/><path id="path8059" d="m 7500,8374 0,-51" style="fill:none;stroke:#000;stroke-width:50"/><path id="path8061" d="m 7500,8272 0,-51" style="fill:none;stroke:#000;stroke-width:50"/><path id="path8063" d="m 7500,8170 0,-51" style="fill:none;stroke:#000;stroke-width:50"/><path id="path8065" d="m 7500,8068 0,-51" style="fill:none;stroke:#000;stroke-width:50"/><path id="path8067" d="m 7500,7966 0,-51" style="fill:none;stroke:#000;stroke-width:50"/><path id="path8069" d="m 7500,7864 0,-51" style="fill:none;stroke:#000;stroke-width:50"/><path id="path8071" d="m 7500,7762 0,-51" style="fill:none;stroke:#000;stroke-width:50"/><path id="path8073" d="m 7500,7660 0,-51" style="fill:none;stroke:#000;stroke-width:50"/><path id="path8075" d="m 7500,7558 0,-51" style="fill:none;stroke:#000;stroke-width:50"/><path id="path8077" d="m 7500,7456 0,-51" style="fill:none;stroke:#000;stroke-width:50"/><path id="path8079" d="m 7500,7354 0,-51" style="fill:none;stroke:#000;stroke-width:50"/><path id="path8081" d="m 7500,7252 0,-51" style="fill:none;stroke:#000;stroke-width:50"/><path id="path8083" d="m 7500,7150 0,-51" style="fill:none;stroke:#000;stroke-width:50"/><path id="path8085" d="m 7500,7048 0,-51" style="fill:none;stroke:#000;stroke-width:50"/><path id="path8087" d="m 7500,6946 0,-51" style="fill:none;stroke:#000;stroke-width:50"/><path id="path8089" d="m 7500,6844 0,-51" style="fill:none;stroke:#000;stroke-width:50"/><path id="path8091" d="m 7500,6742 0,-51" style="fill:none;stroke:#000;stroke-width:50"/><path id="path8093" d="m 7500,6640 0,-51" style="fill:none;stroke:#000;stroke-width:50"/><path id="path8095" d="m 7500,6538 0,-51" style="fill:none;stroke:#000;stroke-width:50"/><path id="path8097" d="m 7500,6436 0,-51" style="fill:none;stroke:#000;stroke-width:50"/><path id="path8099" d="m 7500,6334 0,-51" style="fill:none;stroke:#000;stroke-width:50"/><path id="path8101" d="m 7500,6232 0,-51" style="fill:none;stroke:#000;stroke-width:50"/><path id="path8103" d="m 7500,6130 0,-51" style="fill:none;stroke:#000;stroke-width:50"/><path id="path8105" d="m 7500,6028 0,-51" style="fill:none;stroke:#000;stroke-width:50"/><path id="path8107" d="m 7500,5926 0,-51" style="fill:none;stroke:#000;stroke-width:50"/><path id="path8109" d="m 7500,5824 0,-51" style="fill:none;stroke:#000;stroke-width:50"/><path id="path8111" d="m 7500,5722 0,-51" style="fill:none;stroke:#000;stroke-width:50"/><path id="path8113" d="m 7500,5620 0,-51" style="fill:none;stroke:#000;stroke-width:50"/><path id="path8115" d="m 7500,5518 0,-51" style="fill:none;stroke:#000;stroke-width:50"/><path id="path8117" d="m 7500,5416 0,-51" style="fill:none;stroke:#000;stroke-width:50"/><path id="path8119" d="m 7500,5314 0,-51" style="fill:none;stroke:#000;stroke-width:50"/><path id="path8121" d="m 7500,5212 0,-51" style="fill:none;stroke:#000;stroke-width:50"/><path id="path8123" d="m 7500,5110 0,-51" style="fill:none;stroke:#000;stroke-width:50"/><path id="path8125" d="m 7500,5008 0,-51" style="fill:none;stroke:#000;stroke-width:50"/><path id="path8127" d="m 7500,4906 0,-51" style="fill:none;stroke:#000;stroke-width:50"/><path id="path8129" d="m 7500,4804 0,-51" style="fill:none;stroke:#000;stroke-width:50"/><path id="path8131" d="m 7500,4702 0,-51" style="fill:none;stroke:#000;stroke-width:50"/><path id="path8133" d="m 7500,4600 0,-51" style="fill:none;stroke:#000;stroke-width:50"/><path id="path8135" d="m 7500,4498 0,-51" style="fill:none;stroke:#000;stroke-width:50"/><path id="path8137" d="m 7500,4396 0,-51" style="fill:none;stroke:#000;stroke-width:50"/><path id="path8139" d="m 7500,4294 0,-51" style="fill:none;stroke:#000;stroke-width:50"/><path id="path8141" d="m 7500,4192 0,-51" style="fill:none;stroke:#000;stroke-width:50"/><path id="path8143" d="m 7500,4090 0,-51" style="fill:none;stroke:#000;stroke-width:50"/><path id="path8145" d="m 7500,3988 0,-51" style="fill:none;stroke:#000;stroke-width:50"/><path id="path8147" d="m 7500,3886 0,-51" style="fill:none;stroke:#000;stroke-width:50"/><path id="path8149" d="m 7500,3784 0,-51" style="fill:none;stroke:#000;stroke-width:50"/><path id="path8151" d="m 7500,3682 0,-51" style="fill:none;stroke:#000;stroke-width:50"/><path id="path8153" d="m 7500,3580 0,-51" style="fill:none;stroke:#000;stroke-width:50"/><path id="path8155" d="m 7500,3478 0,-51" style="fill:none;stroke:#000;stroke-width:50"/><path id="path8157" d="m 7500,3376 0,-51" style="fill:none;stroke:#000;stroke-width:50"/><path id="path8159" d="m 7500,3274 0,-51" style="fill:none;stroke:#000;stroke-width:50"/><path id="path8161" d="m 7500,3172 0,-51" style="fill:none;stroke:#000;stroke-width:50"/><path id="path8163" d="m 7500,3070 0,-51" style="fill:none;stroke:#000;stroke-width:50"/><path id="path8165" d="m 7500,2968 0,-51" style="fill:none;stroke:#000;stroke-width:50"/><path id="path8167" d="m 7500,2866 0,-51" style="fill:none;stroke:#000;stroke-width:50"/><path id="path8169" d="m 7500,2764 0,-51" style="fill:none;stroke:#000;stroke-width:50"/><path id="path8171" d="m 7500,2662 0,-51" style="fill:none;stroke:#000;stroke-width:50"/><path id="path8173" d="m 7500,2560 0,-51" style="fill:none;stroke:#000;stroke-width:50"/><path id="path8175" d="m 7500,2458 0,-51" style="fill:none;stroke:#000;stroke-width:50"/><path id="path8177" d="m 7500,2356 0,-51" style="fill:none;stroke:#000;stroke-width:50"/><path id="path8179" d="m 7500,2254 0,-51" style="fill:none;stroke:#000;stroke-width:50"/><path id="path8181" d="m 7500,2152 0,-51" style="fill:none;stroke:#000;stroke-width:50"/><path id="path8183" d="m 7500,2050 0,-51" style="fill:none;stroke:#000;stroke-width:50"/><path id="path8185" d="m 7500,1948 0,-51" style="fill:none;stroke:#000;stroke-width:50"/><path id="path8187" d="m 7500,1846 0,-51" style="fill:none;stroke:#000;stroke-width:50"/><path id="path8189" d="m 7500,1744 0,-51" style="fill:none;stroke:#000;stroke-width:50"/><path id="path8191" d="m 7500,1642 0,-51" style="fill:none;stroke:#000;stroke-width:50"/><path id="path8193" d="m 7500,1540 0,-51" style="fill:none;stroke:#000;stroke-width:50"/><path id="path8195" d="m 7500,1438 0,-51" style="fill:none;stroke:#000;stroke-width:50"/><path id="path8197" d="m 7500,1336 0,-36" style="fill:none;stroke:#000;stroke-width:50"/></g></g><g id="g8199" class="com.sun.star.drawing.LineShape"><g id="id6"><path id="path8202" d="m 12000,8700 -51,0" style="fill:none;stroke:#000;stroke-width:50"/><path id="path8204" d="m 11898,8700 -51,0" style="fill:none;stroke:#000;stroke-width:50"/><path id="path8206" d="m 11796,8700 -51,0" style="fill:none;stroke:#000;stroke-width:50"/><path id="path8208" d="m 11694,8700 -51,0" style="fill:none;stroke:#000;stroke-width:50"/><path id="path8210" d="m 11592,8700 -51,0" style="fill:none;stroke:#000;stroke-width:50"/><path id="path8212" d="m 11490,8700 -51,0" style="fill:none;stroke:#000;stroke-width:50"/><path id="path8214" d="m 11388,8700 -51,0" style="fill:none;stroke:#000;stroke-width:50"/><path id="path8216" d="m 11286,8700 -51,0" style="fill:none;stroke:#000;stroke-width:50"/><path id="path8218" d="m 11184,8700 -51,0" style="fill:none;stroke:#000;stroke-width:50"/><path id="path8220" d="m 11082,8700 -51,0" style="fill:none;stroke:#000;stroke-width:50"/><path id="path8222" d="m 10980,8700 -51,0" style="fill:none;stroke:#000;stroke-width:50"/><path id="path8224" d="m 10878,8700 -51,0" style="fill:none;stroke:#000;stroke-width:50"/><path id="path8226" d="m 10776,8700 -51,0" style="fill:none;stroke:#000;stroke-width:50"/><path id="path8228" d="m 10674,8700 -51,0" style="fill:none;stroke:#000;stroke-width:50"/><path id="path8230" d="m 10572,8700 -51,0" style="fill:none;stroke:#000;stroke-width:50"/><path id="path8232" d="m 10470,8700 -51,0" style="fill:none;stroke:#000;stroke-width:50"/><path id="path8234" d="m 10368,8700 -51,0" style="fill:none;stroke:#000;stroke-width:50"/><path id="path8236" d="m 10266,8700 -51,0" style="fill:none;stroke:#000;stroke-width:50"/><path id="path8238" d="m 10164,8700 -51,0" style="fill:none;stroke:#000;stroke-width:50"/><path id="path8240" d="m 10062,8700 -51,0" style="fill:none;stroke:#000;stroke-width:50"/><path id="path8242" d="m 9960,8700 -51,0" style="fill:none;stroke:#000;stroke-width:50"/><path id="path8244" d="m 9858,8700 -51,0" style="fill:none;stroke:#000;stroke-width:50"/><path id="path8246" d="m 9756,8700 -51,0" style="fill:none;stroke:#000;stroke-width:50"/><path id="path8248" d="m 9654,8700 -51,0" style="fill:none;stroke:#000;stroke-width:50"/><path id="path8250" d="m 9552,8700 -51,0" style="fill:none;stroke:#000;stroke-width:50"/><path id="path8252" d="m 9450,8700 -51,0" style="fill:none;stroke:#000;stroke-width:50"/><path id="path8254" d="m 9348,8700 -51,0" style="fill:none;stroke:#000;stroke-width:50"/><path id="path8256" d="m 9246,8700 -51,0" style="fill:none;stroke:#000;stroke-width:50"/><path id="path8258" d="m 9144,8700 -51,0" style="fill:none;stroke:#000;stroke-width:50"/><path id="path8260" d="m 9042,8700 -51,0" style="fill:none;stroke:#000;stroke-width:50"/><path id="path8262" d="m 8940,8700 -51,0" style="fill:none;stroke:#000;stroke-width:50"/><path id="path8264" d="m 8838,8700 -51,0" style="fill:none;stroke:#000;stroke-width:50"/><path id="path8266" d="m 8736,8700 -51,0" style="fill:none;stroke:#000;stroke-width:50"/><path id="path8268" d="m 8634,8700 -51,0" style="fill:none;stroke:#000;stroke-width:50"/><path id="path8270" d="m 8532,8700 -51,0" style="fill:none;stroke:#000;stroke-width:50"/><path id="path8272" d="m 8430,8700 -51,0" style="fill:none;stroke:#000;stroke-width:50"/><path id="path8274" d="m 8328,8700 -51,0" style="fill:none;stroke:#000;stroke-width:50"/><path id="path8276" d="m 8226,8700 -51,0" style="fill:none;stroke:#000;stroke-width:50"/><path id="path8278" d="m 8124,8700 -51,0" style="fill:none;stroke:#000;stroke-width:50"/><path id="path8280" d="m 8022,8700 -51,0" style="fill:none;stroke:#000;stroke-width:50"/><path id="path8282" d="m 7920,8700 -51,0" style="fill:none;stroke:#000;stroke-width:50"/><path id="path8284" d="m 7818,8700 -51,0" style="fill:none;stroke:#000;stroke-width:50"/><path id="path8286" d="m 7716,8700 -51,0" style="fill:none;stroke:#000;stroke-width:50"/><path id="path8288" d="m 7614,8700 -51,0" style="fill:none;stroke:#000;stroke-width:50"/><path id="path8290" d="m 7512,8700 -51,0" style="fill:none;stroke:#000;stroke-width:50"/><path id="path8292" d="m 7410,8700 -51,0" style="fill:none;stroke:#000;stroke-width:50"/><path id="path8294" d="m 7308,8700 -51,0" style="fill:none;stroke:#000;stroke-width:50"/><path id="path8296" d="m 7206,8700 -51,0" style="fill:none;stroke:#000;stroke-width:50"/><path id="path8298" d="m 7104,8700 -51,0" style="fill:none;stroke:#000;stroke-width:50"/><path id="path8300" d="m 7002,8700 -51,0" style="fill:none;stroke:#000;stroke-width:50"/><path id="path8302" d="m 6900,8700 -51,0" style="fill:none;stroke:#000;stroke-width:50"/><path id="path8304" d="m 6798,8700 -51,0" style="fill:none;stroke:#000;stroke-width:50"/><path id="path8306" d="m 6696,8700 -51,0" style="fill:none;stroke:#000;stroke-width:50"/><path id="path8308" d="m 6594,8700 -51,0" style="fill:none;stroke:#000;stroke-width:50"/><path id="path8310" d="m 6492,8700 -51,0" style="fill:none;stroke:#000;stroke-width:50"/><path id="path8312" d="m 6390,8700 -51,0" style="fill:none;stroke:#000;stroke-width:50"/><path id="path8314" d="m 6288,8700 -51,0" style="fill:none;stroke:#000;stroke-width:50"/><path id="path8316" d="m 6186,8700 -51,0" style="fill:none;stroke:#000;stroke-width:50"/><path id="path8318" d="m 6084,8700 -51,0" style="fill:none;stroke:#000;stroke-width:50"/><path id="path8320" d="m 5982,8700 -51,0" style="fill:none;stroke:#000;stroke-width:50"/><path id="path8322" d="m 5880,8700 -51,0" style="fill:none;stroke:#000;stroke-width:50"/><path id="path8324" d="m 5778,8700 -51,0" style="fill:none;stroke:#000;stroke-width:50"/><path id="path8326" d="m 5676,8700 -51,0" style="fill:none;stroke:#000;stroke-width:50"/><path id="path8328" d="m 5574,8700 -51,0" style="fill:none;stroke:#000;stroke-width:50"/><path id="path8330" d="m 5472,8700 -51,0" style="fill:none;stroke:#000;stroke-width:50"/><path id="path8332" d="m 5370,8700 -51,0" style="fill:none;stroke:#000;stroke-width:50"/><path id="path8334" d="m 5268,8700 -51,0" style="fill:none;stroke:#000;stroke-width:50"/><path id="path8336" d="m 5166,8700 -51,0" style="fill:none;stroke:#000;stroke-width:50"/><path id="path8338" d="m 5064,8700 -51,0" style="fill:none;stroke:#000;stroke-width:50"/><path id="path8340" d="m 4962,8700 -51,0" style="fill:none;stroke:#000;stroke-width:50"/><path id="path8342" d="m 4860,8700 -51,0" style="fill:none;stroke:#000;stroke-width:50"/><path id="path8344" d="m 4758,8700 -51,0" style="fill:none;stroke:#000;stroke-width:50"/><path id="path8346" d="m 4656,8700 -51,0" style="fill:none;stroke:#000;stroke-width:50"/><path id="path8348" d="m 4554,8700 -51,0" style="fill:none;stroke:#000;stroke-width:50"/><path id="path8350" d="m 4452,8700 -51,0" style="fill:none;stroke:#000;stroke-width:50"/><path id="path8352" d="m 4350,8700 -51,0" style="fill:none;stroke:#000;stroke-width:50"/><path id="path8354" d="m 4248,8700 -51,0" style="fill:none;stroke:#000;stroke-width:50"/><path id="path8356" d="m 4146,8700 -51,0" style="fill:none;stroke:#000;stroke-width:50"/><path id="path8358" d="m 4044,8700 -44,0" style="fill:none;stroke:#000;stroke-width:50"/></g></g><g id="g8360" class="com.sun.star.drawing.TextShape"><g id="id7"><text id="text8363" class="TextShape"><tspan id="tspan8365" class="TextParagraph" font-size="388" font-weight="400" style="font-size:388px;font-weight:400;font-family:'Arial, sans-serif'"><tspan id="tspan8367" x="4891" y="9368" class="TextPosition"><tspan id="tspan8369" style="fill:#000;stroke:none">Variables</tspan></tspan></tspan></text></g></g><g id="g8371" class="com.sun.star.drawing.TextShape"><g id="id8"><text id="text8374" class="TextShape"><tspan id="tspan8376" class="TextParagraph" font-size="388" font-weight="400" style="font-size:388px;font-weight:400;font-family:'Arial, sans-serif'"><tspan id="tspan8378" x="8791" y="9369" class="TextPosition"><tspan id="tspan8380" style="fill:#000;stroke:none">Values</tspan></tspan></tspan></text></g></g><g id="g8382" class="com.sun.star.drawing.TextShape"><g id="id9"><path id="path8385" d="m 6057,6700 -844,0 0,-683 1687,0 0,683 -843,0 z" style="fill:silver;stroke:none"/><text id="text8387" class="TextShape"><tspan id="tspan8389" class="TextParagraph" font-size="388" font-weight="400" style="font-size:388px;font-weight:400;font-family:'Arial, sans-serif'"><tspan id="tspan8391" x="5463" y="6493" class="TextPosition"><tspan id="tspan8393" style="fill:#000;stroke:none">list_val</tspan></tspan></tspan></text></g></g><g id="g8395" class="com.sun.star.drawing.TextShape"><g id="id10"><path id="path8398" d="m 9317,8401 -717,0 0,-733 1433,0 0,733 -716,0 z" style="fill:none;stroke:#000;stroke-width:50"/><text id="text8400" class="TextShape"><tspan id="tspan8402" class="TextParagraph" font-size="388" font-weight="400" style="font-size:388px;font-weight:400;font-family:'Arial, sans-serif'"><tspan id="tspan8404" x="8875" y="8169" class="TextPosition"><tspan id="tspan8406" style="fill:#000;stroke:none">&apos;alan&apos;</tspan></tspan></tspan></text></g></g><g id="g8408" class="com.sun.star.drawing.LineShape"><g id="id11"><path id="path8411" d="m 7100,6400 1270,0" style="fill:none;stroke:#000"/><path id="path8413" d="m 8800,6400 -450,-150 0,300 450,-150 z" style="fill:#000;stroke:none"/></g></g><g id="g8415" class="com.sun.star.drawing.LineShape"><g id="id12"><path id="path8418" d="m 9300,6400 0,670" style="fill:none;stroke:#000"/><path id="path8420" d="m 9300,7500 150,-450 -300,0 150,450 z" style="fill:#000;stroke:none"/></g></g><g id="g8422" class="com.sun.star.drawing.TextShape"><g id="id13"><text id="text8425" class="TextShape"><tspan id="tspan8427" class="TextParagraph" font-size="388" font-weight="400" style="font-size:388px;font-weight:400;font-family:'Arial, sans-serif'"><tspan id="tspan8429" x="8976" y="5470" class="TextPosition"><tspan id="tspan8431" style="fill:#000;stroke:none">&apos;alan&apos;</tspan></tspan></tspan></text></g></g><g id="g8433" class="com.sun.star.drawing.LineShape"><g id="id14"><path id="path8436" d="m 12000,3900 -51,0" style="fill:none;stroke:#000;stroke-width:50"/><path id="path8438" d="m 11898,3900 -51,0" style="fill:none;stroke:#000;stroke-width:50"/><path id="path8440" d="m 11796,3900 -51,0" style="fill:none;stroke:#000;stroke-width:50"/><path id="path8442" d="m 11694,3900 -51,0" style="fill:none;stroke:#000;stroke-width:50"/><path id="path8444" d="m 11592,3900 -51,0" style="fill:none;stroke:#000;stroke-width:50"/><path id="path8446" d="m 11490,3900 -51,0" style="fill:none;stroke:#000;stroke-width:50"/><path id="path8448" d="m 11388,3900 -51,0" style="fill:none;stroke:#000;stroke-width:50"/><path id="path8450" d="m 11286,3900 -51,0" style="fill:none;stroke:#000;stroke-width:50"/><path id="path8452" d="m 11184,3900 -51,0" style="fill:none;stroke:#000;stroke-width:50"/><path id="path8454" d="m 11082,3900 -51,0" style="fill:none;stroke:#000;stroke-width:50"/><path id="path8456" d="m 10980,3900 -51,0" style="fill:none;stroke:#000;stroke-width:50"/><path id="path8458" d="m 10878,3900 -51,0" style="fill:none;stroke:#000;stroke-width:50"/><path id="path8460" d="m 10776,3900 -51,0" style="fill:none;stroke:#000;stroke-width:50"/><path id="path8462" d="m 10674,3900 -51,0" style="fill:none;stroke:#000;stroke-width:50"/><path id="path8464" d="m 10572,3900 -51,0" style="fill:none;stroke:#000;stroke-width:50"/><path id="path8466" d="m 10470,3900 -51,0" style="fill:none;stroke:#000;stroke-width:50"/><path id="path8468" d="m 10368,3900 -51,0" style="fill:none;stroke:#000;stroke-width:50"/><path id="path8470" d="m 10266,3900 -51,0" style="fill:none;stroke:#000;stroke-width:50"/><path id="path8472" d="m 10164,3900 -51,0" style="fill:none;stroke:#000;stroke-width:50"/><path id="path8474" d="m 10062,3900 -51,0" style="fill:none;stroke:#000;stroke-width:50"/><path id="path8476" d="m 9960,3900 -51,0" style="fill:none;stroke:#000;stroke-width:50"/><path id="path8478" d="m 9858,3900 -51,0" style="fill:none;stroke:#000;stroke-width:50"/><path id="path8480" d="m 9756,3900 -51,0" style="fill:none;stroke:#000;stroke-width:50"/><path id="path8482" d="m 9654,3900 -51,0" style="fill:none;stroke:#000;stroke-width:50"/><path id="path8484" d="m 9552,3900 -51,0" style="fill:none;stroke:#000;stroke-width:50"/><path id="path8486" d="m 9450,3900 -51,0" style="fill:none;stroke:#000;stroke-width:50"/><path id="path8488" d="m 9348,3900 -51,0" style="fill:none;stroke:#000;stroke-width:50"/><path id="path8490" d="m 9246,3900 -51,0" style="fill:none;stroke:#000;stroke-width:50"/><path id="path8492" d="m 9144,3900 -51,0" style="fill:none;stroke:#000;stroke-width:50"/><path id="path8494" d="m 9042,3900 -51,0" style="fill:none;stroke:#000;stroke-width:50"/><path id="path8496" d="m 8940,3900 -51,0" style="fill:none;stroke:#000;stroke-width:50"/><path id="path8498" d="m 8838,3900 -51,0" style="fill:none;stroke:#000;stroke-width:50"/><path id="path8500" d="m 8736,3900 -51,0" style="fill:none;stroke:#000;stroke-width:50"/><path id="path8502" d="m 8634,3900 -51,0" style="fill:none;stroke:#000;stroke-width:50"/><path id="path8504" d="m 8532,3900 -51,0" style="fill:none;stroke:#000;stroke-width:50"/><path id="path8506" d="m 8430,3900 -51,0" style="fill:none;stroke:#000;stroke-width:50"/><path id="path8508" d="m 8328,3900 -51,0" style="fill:none;stroke:#000;stroke-width:50"/><path id="path8510" d="m 8226,3900 -51,0" style="fill:none;stroke:#000;stroke-width:50"/><path id="path8512" d="m 8124,3900 -51,0" style="fill:none;stroke:#000;stroke-width:50"/><path id="path8514" d="m 8022,3900 -51,0" style="fill:none;stroke:#000;stroke-width:50"/><path id="path8516" d="m 7920,3900 -51,0" style="fill:none;stroke:#000;stroke-width:50"/><path id="path8518" d="m 7818,3900 -51,0" style="fill:none;stroke:#000;stroke-width:50"/><path id="path8520" d="m 7716,3900 -51,0" style="fill:none;stroke:#000;stroke-width:50"/><path id="path8522" d="m 7614,3900 -51,0" style="fill:none;stroke:#000;stroke-width:50"/><path id="path8524" d="m 7512,3900 -51,0" style="fill:none;stroke:#000;stroke-width:50"/><path id="path8526" d="m 7410,3900 -51,0" style="fill:none;stroke:#000;stroke-width:50"/><path id="path8528" d="m 7308,3900 -51,0" style="fill:none;stroke:#000;stroke-width:50"/><path id="path8530" d="m 7206,3900 -51,0" style="fill:none;stroke:#000;stroke-width:50"/><path id="path8532" d="m 7104,3900 -51,0" style="fill:none;stroke:#000;stroke-width:50"/><path id="path8534" d="m 7002,3900 -51,0" style="fill:none;stroke:#000;stroke-width:50"/><path id="path8536" d="m 6900,3900 -51,0" style="fill:none;stroke:#000;stroke-width:50"/><path id="path8538" d="m 6798,3900 -51,0" style="fill:none;stroke:#000;stroke-width:50"/><path id="path8540" d="m 6696,3900 -51,0" style="fill:none;stroke:#000;stroke-width:50"/><path id="path8542" d="m 6594,3900 -51,0" style="fill:none;stroke:#000;stroke-width:50"/><path id="path8544" d="m 6492,3900 -51,0" style="fill:none;stroke:#000;stroke-width:50"/><path id="path8546" d="m 6390,3900 -51,0" style="fill:none;stroke:#000;stroke-width:50"/><path id="path8548" d="m 6288,3900 -51,0" style="fill:none;stroke:#000;stroke-width:50"/><path id="path8550" d="m 6186,3900 -51,0" style="fill:none;stroke:#000;stroke-width:50"/><path id="path8552" d="m 6084,3900 -51,0" style="fill:none;stroke:#000;stroke-width:50"/><path id="path8554" d="m 5982,3900 -51,0" style="fill:none;stroke:#000;stroke-width:50"/><path id="path8556" d="m 5880,3900 -51,0" style="fill:none;stroke:#000;stroke-width:50"/><path id="path8558" d="m 5778,3900 -51,0" style="fill:none;stroke:#000;stroke-width:50"/><path id="path8560" d="m 5676,3900 -51,0" style="fill:none;stroke:#000;stroke-width:50"/><path id="path8562" d="m 5574,3900 -51,0" style="fill:none;stroke:#000;stroke-width:50"/><path id="path8564" d="m 5472,3900 -51,0" style="fill:none;stroke:#000;stroke-width:50"/><path id="path8566" d="m 5370,3900 -51,0" style="fill:none;stroke:#000;stroke-width:50"/><path id="path8568" d="m 5268,3900 -51,0" style="fill:none;stroke:#000;stroke-width:50"/><path id="path8570" d="m 5166,3900 -51,0" style="fill:none;stroke:#000;stroke-width:50"/><path id="path8572" d="m 5064,3900 -51,0" style="fill:none;stroke:#000;stroke-width:50"/><path id="path8574" d="m 4962,3900 -51,0" style="fill:none;stroke:#000;stroke-width:50"/><path id="path8576" d="m 4860,3900 -51,0" style="fill:none;stroke:#000;stroke-width:50"/><path id="path8578" d="m 4758,3900 -51,0" style="fill:none;stroke:#000;stroke-width:50"/><path id="path8580" d="m 4656,3900 -51,0" style="fill:none;stroke:#000;stroke-width:50"/><path id="path8582" d="m 4554,3900 -51,0" style="fill:none;stroke:#000;stroke-width:50"/><path id="path8584" d="m 4452,3900 -51,0" style="fill:none;stroke:#000;stroke-width:50"/><path id="path8586" d="m 4350,3900 -51,0" style="fill:none;stroke:#000;stroke-width:50"/><path id="path8588" d="m 4248,3900 -51,0" style="fill:none;stroke:#000;stroke-width:50"/><path id="path8590" d="m 4146,3900 -51,0" style="fill:none;stroke:#000;stroke-width:50"/><path id="path8592" d="m 4044,3900 -44,0" style="fill:none;stroke:#000;stroke-width:50"/></g></g><g id="g8594" class="com.sun.star.drawing.LineShape"><g id="id15"><path id="path8597" d="m 7201,2000 1169,0" style="fill:none;stroke:#000"/><path id="path8599" d="m 8800,2000 -450,-150 0,300 450,-150 z" style="fill:#000;stroke:none"/></g></g><g id="g8601" class="com.sun.star.drawing.TextShape"><g id="id16"><path id="path8604" d="m 5981,2283 -941,0 0,-683 1882,0 0,683 -941,0 z" style="fill:silver;stroke:none"/><text id="text8606" class="TextShape"><tspan id="tspan8608" class="TextParagraph" font-size="388" font-weight="400" style="font-size:388px;font-weight:400;font-family:'Arial, sans-serif'"><tspan id="tspan8610" x="5290" y="2076" class="TextPosition"><tspan id="tspan8612" style="fill:#000;stroke:none">a_string</tspan></tspan></tspan></text></g></g><g id="g8614" class="com.sun.star.drawing.TextShape"><g id="id17"><path id="path8617" d="m 6218,3400 -704,0 0,-683 1408,0 0,683 -704,0 z" style="fill:silver;stroke:none"/><text id="text8619" class="TextShape"><tspan id="tspan8621" class="TextParagraph" font-size="388" font-weight="400" style="font-size:388px;font-weight:400;font-family:'Arial, sans-serif'"><tspan id="tspan8623" x="5764" y="3193" class="TextPosition"><tspan id="tspan8625" style="fill:#000;stroke:none">a_list</tspan></tspan></tspan></text></g></g><g id="g8627" class="com.sun.star.drawing.LineShape"><g id="id18"><path id="path8630" d="M 7101,3100 8588,5726" style="fill:none;stroke:#000"/><path id="path8632" d="m 8800,6100 -91,-465 -261,147 352,318 z" style="fill:#000;stroke:none"/></g></g><g id="g8634" class="com.sun.star.drawing.TextShape"><g id="id19"><text id="text8637" class="TextShape"><tspan id="tspan8639" class="TextParagraph" font-size="388" font-style="italic" font-weight="400" style="font-size:388px;font-style:italic;font-weight:400;font-family:'Arial, sans-serif'"><tspan id="tspan8641" x="1431" y="2569" class="TextPosition"><tspan id="tspan8643" style="fill:#000;stroke:none">appender</tspan></tspan></tspan></text></g></g><g id="g8645" class="com.sun.star.drawing.CustomShape"><g id="id20"><path id="path8648" d="m 3599,1400 c -30,0 -61,91 -61,183 l 0,734 c 0,91 -30,183 -60,183 30,0 60,92 60,183 l 0,734 c 0,92 31,184 61,184" style="fill:none;stroke:#000;stroke-width:50"/><path id="path8650" d="m 3478,1400 0,0 z" style="fill:none;stroke:#000;stroke-width:50"/><path id="path8652" d="m 3600,3601 0,0 z" style="fill:none;stroke:#000;stroke-width:50"/></g></g><g id="g8654" class="com.sun.star.drawing.TextShape"><g id="id21"><text id="text8657" class="TextShape"><tspan id="tspan8659" class="TextParagraph" font-size="388" font-weight="400" style="font-size:388px;font-weight:400;font-family:'Arial, sans-serif'"><tspan id="tspan8661" x="8942" y="2168" class="TextPosition"><tspan id="tspan8663" style="fill:#000;stroke:none">&apos;alanturing&apos;</tspan></tspan></tspan></text></g></g><g id="g8665" class="com.sun.star.drawing.TextShape"><g id="id22"><path id="path8668" d="m 9277,6702 -276,0 0,-733 552,0 0,733 -276,0 z" style="fill:none;stroke:#000;stroke-width:50"/></g></g></g></g></g></g></svg>