<svg xmlns="http://www.w3.org/2000/svg" xmlns:ooo="http://xml.openoffice.org/svg/export" xmlns:svg="http://www.w3.org/2000/svg" id="svg2" width="294.839" height="191.516" clip-path="url(#presentation_clip_path)" style="fill-rule:evenodd;stroke-width:28.22200012;stroke-linejoin:round" preserveAspectRatio="xMidYMid" version="1.2" viewBox="0 0 8321 5405" xml:space="preserve"><metadata id="metadata451"/><defs id="defs4" class="ClipPathGroup"><clipPath id="presentation_clip_path" clipPathUnits="userSpaceOnUse"><rect id="rect7" width="21590" height="27940" x="0" y="0"/></clipPath></defs><defs id="defs13" class="EmbeddedBulletChars"><g id="bullet-char-template(57356)" transform="scale(4.8828125e-4,-4.8828125e-4)"><path id="path16" d="M 580,1141 1163,571 580,0 -4,571 580,1141 z"/></g><g id="bullet-char-template(57354)" transform="scale(4.8828125e-4,-4.8828125e-4)"><path id="path19" d="m 8,1128 1129,0 L 1137,0 8,0 8,1128 z"/></g><g id="bullet-char-template(10146)" transform="scale(4.8828125e-4,-4.8828125e-4)"><path id="path22" d="M 174,0 602,739 174,1481 1456,739 174,0 z m 1184,739 -1049,607 350,-607 699,0 z"/></g><g id="bullet-char-template(10132)" transform="scale(4.8828125e-4,-4.8828125e-4)"><path id="path25" d="M 2015,739 1276,0 717,0 l 543,543 -1086,0 0,393 1086,0 -543,545 557,0 741,-742 z"/></g><g id="bullet-char-template(10007)" transform="scale(4.8828125e-4,-4.8828125e-4)"><path id="path28" d="m 0,-2 c -7,16 -16,29 -25,39 l 381,530 c -94,256 -141,385 -141,387 0,25 13,38 40,38 9,0 21,-2 34,-5 21,4 42,12 65,25 l 27,-13 111,-251 280,301 64,-25 24,25 c 21,-10 41,-24 62,-43 C 886,937 835,863 770,784 769,783 710,716 594,584 L 774,223 c 0,-27 -21,-55 -63,-84 l 16,-20 C 717,90 699,76 672,76 641,76 570,178 457,381 L 164,-76 c -22,-34 -53,-51 -92,-51 -42,0 -63,17 -64,51 -7,9 -10,24 -10,44 0,9 1,19 2,30 z"/></g><g id="bullet-char-template(10004)" transform="scale(4.8828125e-4,-4.8828125e-4)"><path id="path31" d="M 285,-33 C 182,-33 111,30 74,156 52,228 41,333 41,471 c 0,78 14,145 41,201 34,71 87,106 158,106 53,0 88,-31 106,-94 l 23,-176 c 8,-64 28,-97 59,-98 l 735,706 c 11,11 33,17 66,17 42,0 63,-15 63,-46 l 0,-122 c 0,-36 -10,-64 -30,-84 L 442,47 C 390,-6 338,-33 285,-33 z"/></g><g id="bullet-char-template(9679)" transform="scale(4.8828125e-4,-4.8828125e-4)"><path id="path34" d="M 813,0 C 632,0 489,54 383,161 276,268 223,411 223,592 c 0,181 53,324 160,431 106,107 249,161 430,161 179,0 323,-54 432,-161 108,-107 162,-251 162,-431 0,-180 -54,-324 -162,-431 C 1136,54 992,0 813,0 z"/></g><g id="bullet-char-template(8226)" transform="scale(4.8828125e-4,-4.8828125e-4)"><path id="path37" d="m 346,457 c -73,0 -137,26 -191,78 -54,51 -81,114 -81,188 0,73 27,136 81,188 54,52 118,78 191,78 73,0 134,-26 185,-79 51,-51 77,-114 77,-187 0,-75 -25,-137 -76,-188 -50,-52 -112,-78 -186,-78 z"/></g><g id="bullet-char-template(8211)" transform="scale(4.8828125e-4,-4.8828125e-4)"><path id="path40" d="m -4,459 1139,0 0,147 -1139,0 0,-147 z"/></g></defs><g id="g49" class="SlideGroup" transform="translate(-1175,-1020)"><g id="g51"><g id="id1" class="Slide" clip-path="url(#presentation_clip_path)"><g id="g54" class="Page"><g id="g56" class="com.sun.star.drawing.LineShape"><g id="id3"><path id="path59" d="m 4400,2000 1170,0" style="fill:none;stroke:#000"/><path id="path61" d="m 6000,2000 -450,-150 0,300 450,-150 z" style="fill:#000;stroke:none"/></g></g><g id="g63" class="com.sun.star.drawing.TextShape"><g id="id4"><path id="path66" d="m 3020,2283 -1081,0 0,-683 2161,0 0,683 -1080,0 z" style="fill:silver;stroke:none"/><text id="text68" class="TextShape"><tspan id="tspan70" class="TextParagraph" font-size="388" font-weight="400" style="font-size:388px;font-weight:400;font-family:'Arial, sans-serif'"><tspan id="tspan72" x="2189" y="2076" class="TextPosition"><tspan id="tspan74" style="fill:#000;stroke:none">string_val</tspan></tspan></tspan></text></g></g><g id="g76" class="com.sun.star.drawing.LineShape"><g id="id5"><path id="path79" d="m 4700,6400 0,-51" style="fill:none;stroke:#000;stroke-width:50"/><path id="path81" d="m 4700,6298 0,-51" style="fill:none;stroke:#000;stroke-width:50"/><path id="path83" d="m 4700,6196 0,-51" style="fill:none;stroke:#000;stroke-width:50"/><path id="path85" d="m 4700,6094 0,-51" style="fill:none;stroke:#000;stroke-width:50"/><path id="path87" d="m 4700,5992 0,-51" style="fill:none;stroke:#000;stroke-width:50"/><path id="path89" d="m 4700,5890 0,-51" style="fill:none;stroke:#000;stroke-width:50"/><path id="path91" d="m 4700,5788 0,-51" style="fill:none;stroke:#000;stroke-width:50"/><path id="path93" d="m 4700,5686 0,-51" style="fill:none;stroke:#000;stroke-width:50"/><path id="path95" d="m 4700,5584 0,-51" style="fill:none;stroke:#000;stroke-width:50"/><path id="path97" d="m 4700,5482 0,-51" style="fill:none;stroke:#000;stroke-width:50"/><path id="path99" d="m 4700,5380 0,-51" style="fill:none;stroke:#000;stroke-width:50"/><path id="path101" d="m 4700,5278 0,-51" style="fill:none;stroke:#000;stroke-width:50"/><path id="path103" d="m 4700,5176 0,-51" style="fill:none;stroke:#000;stroke-width:50"/><path id="path105" d="m 4700,5074 0,-51" style="fill:none;stroke:#000;stroke-width:50"/><path id="path107" d="m 4700,4972 0,-51" style="fill:none;stroke:#000;stroke-width:50"/><path id="path109" d="m 4700,4870 0,-51" style="fill:none;stroke:#000;stroke-width:50"/><path id="path111" d="m 4700,4768 0,-51" style="fill:none;stroke:#000;stroke-width:50"/><path id="path113" d="m 4700,4666 0,-51" style="fill:none;stroke:#000;stroke-width:50"/><path id="path115" d="m 4700,4564 0,-51" style="fill:none;stroke:#000;stroke-width:50"/><path id="path117" d="m 4700,4462 0,-51" style="fill:none;stroke:#000;stroke-width:50"/><path id="path119" d="m 4700,4360 0,-51" style="fill:none;stroke:#000;stroke-width:50"/><path id="path121" d="m 4700,4258 0,-51" style="fill:none;stroke:#000;stroke-width:50"/><path id="path123" d="m 4700,4156 0,-51" style="fill:none;stroke:#000;stroke-width:50"/><path id="path125" d="m 4700,4054 0,-51" style="fill:none;stroke:#000;stroke-width:50"/><path id="path127" d="m 4700,3952 0,-51" style="fill:none;stroke:#000;stroke-width:50"/><path id="path129" d="m 4700,3850 0,-51" style="fill:none;stroke:#000;stroke-width:50"/><path id="path131" d="m 4700,3748 0,-51" style="fill:none;stroke:#000;stroke-width:50"/><path id="path133" d="m 4700,3646 0,-51" style="fill:none;stroke:#000;stroke-width:50"/><path id="path135" d="m 4700,3544 0,-51" style="fill:none;stroke:#000;stroke-width:50"/><path id="path137" d="m 4700,3442 0,-51" style="fill:none;stroke:#000;stroke-width:50"/><path id="path139" d="m 4700,3340 0,-51" style="fill:none;stroke:#000;stroke-width:50"/><path id="path141" d="m 4700,3238 0,-51" style="fill:none;stroke:#000;stroke-width:50"/><path id="path143" d="m 4700,3136 0,-51" style="fill:none;stroke:#000;stroke-width:50"/><path id="path145" d="m 4700,3034 0,-51" style="fill:none;stroke:#000;stroke-width:50"/><path id="path147" d="m 4700,2932 0,-51" style="fill:none;stroke:#000;stroke-width:50"/><path id="path149" d="m 4700,2830 0,-51" style="fill:none;stroke:#000;stroke-width:50"/><path id="path151" d="m 4700,2728 0,-51" style="fill:none;stroke:#000;stroke-width:50"/><path id="path153" d="m 4700,2626 0,-51" style="fill:none;stroke:#000;stroke-width:50"/><path id="path155" d="m 4700,2524 0,-51" style="fill:none;stroke:#000;stroke-width:50"/><path id="path157" d="m 4700,2422 0,-51" style="fill:none;stroke:#000;stroke-width:50"/><path id="path159" d="m 4700,2320 0,-51" style="fill:none;stroke:#000;stroke-width:50"/><path id="path161" d="m 4700,2218 0,-51" style="fill:none;stroke:#000;stroke-width:50"/><path id="path163" d="m 4700,2116 0,-51" style="fill:none;stroke:#000;stroke-width:50"/><path id="path165" d="m 4700,2014 0,-51" style="fill:none;stroke:#000;stroke-width:50"/><path id="path167" d="m 4700,1912 0,-51" style="fill:none;stroke:#000;stroke-width:50"/><path id="path169" d="m 4700,1810 0,-51" style="fill:none;stroke:#000;stroke-width:50"/><path id="path171" d="m 4700,1708 0,-51" style="fill:none;stroke:#000;stroke-width:50"/><path id="path173" d="m 4700,1606 0,-51" style="fill:none;stroke:#000;stroke-width:50"/><path id="path175" d="m 4700,1504 0,-51" style="fill:none;stroke:#000;stroke-width:50"/><path id="path177" d="m 4700,1402 0,-51" style="fill:none;stroke:#000;stroke-width:50"/><path id="path179" d="m 4700,1300 0,-51" style="fill:none;stroke:#000;stroke-width:50"/><path id="path181" d="m 4700,1198 0,-51" style="fill:none;stroke:#000;stroke-width:50"/><path id="path183" d="m 4700,1096 0,-51" style="fill:none;stroke:#000;stroke-width:50"/></g></g><g id="g185" class="com.sun.star.drawing.LineShape"><g id="id6"><path id="path188" d="m 9200,5400 -51,0" style="fill:none;stroke:#000;stroke-width:50"/><path id="path190" d="m 9098,5400 -51,0" style="fill:none;stroke:#000;stroke-width:50"/><path id="path192" d="m 8996,5400 -51,0" style="fill:none;stroke:#000;stroke-width:50"/><path id="path194" d="m 8894,5400 -51,0" style="fill:none;stroke:#000;stroke-width:50"/><path id="path196" d="m 8792,5400 -51,0" style="fill:none;stroke:#000;stroke-width:50"/><path id="path198" d="m 8690,5400 -51,0" style="fill:none;stroke:#000;stroke-width:50"/><path id="path200" d="m 8588,5400 -51,0" style="fill:none;stroke:#000;stroke-width:50"/><path id="path202" d="m 8486,5400 -51,0" style="fill:none;stroke:#000;stroke-width:50"/><path id="path204" d="m 8384,5400 -51,0" style="fill:none;stroke:#000;stroke-width:50"/><path id="path206" d="m 8282,5400 -51,0" style="fill:none;stroke:#000;stroke-width:50"/><path id="path208" d="m 8180,5400 -51,0" style="fill:none;stroke:#000;stroke-width:50"/><path id="path210" d="m 8078,5400 -51,0" style="fill:none;stroke:#000;stroke-width:50"/><path id="path212" d="m 7976,5400 -51,0" style="fill:none;stroke:#000;stroke-width:50"/><path id="path214" d="m 7874,5400 -51,0" style="fill:none;stroke:#000;stroke-width:50"/><path id="path216" d="m 7772,5400 -51,0" style="fill:none;stroke:#000;stroke-width:50"/><path id="path218" d="m 7670,5400 -51,0" style="fill:none;stroke:#000;stroke-width:50"/><path id="path220" d="m 7568,5400 -51,0" style="fill:none;stroke:#000;stroke-width:50"/><path id="path222" d="m 7466,5400 -51,0" style="fill:none;stroke:#000;stroke-width:50"/><path id="path224" d="m 7364,5400 -51,0" style="fill:none;stroke:#000;stroke-width:50"/><path id="path226" d="m 7262,5400 -51,0" style="fill:none;stroke:#000;stroke-width:50"/><path id="path228" d="m 7160,5400 -51,0" style="fill:none;stroke:#000;stroke-width:50"/><path id="path230" d="m 7058,5400 -51,0" style="fill:none;stroke:#000;stroke-width:50"/><path id="path232" d="m 6956,5400 -51,0" style="fill:none;stroke:#000;stroke-width:50"/><path id="path234" d="m 6854,5400 -51,0" style="fill:none;stroke:#000;stroke-width:50"/><path id="path236" d="m 6752,5400 -51,0" style="fill:none;stroke:#000;stroke-width:50"/><path id="path238" d="m 6650,5400 -51,0" style="fill:none;stroke:#000;stroke-width:50"/><path id="path240" d="m 6548,5400 -51,0" style="fill:none;stroke:#000;stroke-width:50"/><path id="path242" d="m 6446,5400 -51,0" style="fill:none;stroke:#000;stroke-width:50"/><path id="path244" d="m 6344,5400 -51,0" style="fill:none;stroke:#000;stroke-width:50"/><path id="path246" d="m 6242,5400 -51,0" style="fill:none;stroke:#000;stroke-width:50"/><path id="path248" d="m 6140,5400 -51,0" style="fill:none;stroke:#000;stroke-width:50"/><path id="path250" d="m 6038,5400 -51,0" style="fill:none;stroke:#000;stroke-width:50"/><path id="path252" d="m 5936,5400 -51,0" style="fill:none;stroke:#000;stroke-width:50"/><path id="path254" d="m 5834,5400 -51,0" style="fill:none;stroke:#000;stroke-width:50"/><path id="path256" d="m 5732,5400 -51,0" style="fill:none;stroke:#000;stroke-width:50"/><path id="path258" d="m 5630,5400 -51,0" style="fill:none;stroke:#000;stroke-width:50"/><path id="path260" d="m 5528,5400 -51,0" style="fill:none;stroke:#000;stroke-width:50"/><path id="path262" d="m 5426,5400 -51,0" style="fill:none;stroke:#000;stroke-width:50"/><path id="path264" d="m 5324,5400 -51,0" style="fill:none;stroke:#000;stroke-width:50"/><path id="path266" d="m 5222,5400 -51,0" style="fill:none;stroke:#000;stroke-width:50"/><path id="path268" d="m 5120,5400 -51,0" style="fill:none;stroke:#000;stroke-width:50"/><path id="path270" d="m 5018,5400 -51,0" style="fill:none;stroke:#000;stroke-width:50"/><path id="path272" d="m 4916,5400 -51,0" style="fill:none;stroke:#000;stroke-width:50"/><path id="path274" d="m 4814,5400 -51,0" style="fill:none;stroke:#000;stroke-width:50"/><path id="path276" d="m 4712,5400 -51,0" style="fill:none;stroke:#000;stroke-width:50"/><path id="path278" d="m 4610,5400 -51,0" style="fill:none;stroke:#000;stroke-width:50"/><path id="path280" d="m 4508,5400 -51,0" style="fill:none;stroke:#000;stroke-width:50"/><path id="path282" d="m 4406,5400 -51,0" style="fill:none;stroke:#000;stroke-width:50"/><path id="path284" d="m 4304,5400 -51,0" style="fill:none;stroke:#000;stroke-width:50"/><path id="path286" d="m 4202,5400 -51,0" style="fill:none;stroke:#000;stroke-width:50"/><path id="path288" d="m 4100,5400 -51,0" style="fill:none;stroke:#000;stroke-width:50"/><path id="path290" d="m 3998,5400 -51,0" style="fill:none;stroke:#000;stroke-width:50"/><path id="path292" d="m 3896,5400 -51,0" style="fill:none;stroke:#000;stroke-width:50"/><path id="path294" d="m 3794,5400 -51,0" style="fill:none;stroke:#000;stroke-width:50"/><path id="path296" d="m 3692,5400 -51,0" style="fill:none;stroke:#000;stroke-width:50"/><path id="path298" d="m 3590,5400 -51,0" style="fill:none;stroke:#000;stroke-width:50"/><path id="path300" d="m 3488,5400 -51,0" style="fill:none;stroke:#000;stroke-width:50"/><path id="path302" d="m 3386,5400 -51,0" style="fill:none;stroke:#000;stroke-width:50"/><path id="path304" d="m 3284,5400 -51,0" style="fill:none;stroke:#000;stroke-width:50"/><path id="path306" d="m 3182,5400 -51,0" style="fill:none;stroke:#000;stroke-width:50"/><path id="path308" d="m 3080,5400 -51,0" style="fill:none;stroke:#000;stroke-width:50"/><path id="path310" d="m 2978,5400 -51,0" style="fill:none;stroke:#000;stroke-width:50"/><path id="path312" d="m 2876,5400 -51,0" style="fill:none;stroke:#000;stroke-width:50"/><path id="path314" d="m 2774,5400 -51,0" style="fill:none;stroke:#000;stroke-width:50"/><path id="path316" d="m 2672,5400 -51,0" style="fill:none;stroke:#000;stroke-width:50"/><path id="path318" d="m 2570,5400 -51,0" style="fill:none;stroke:#000;stroke-width:50"/><path id="path320" d="m 2468,5400 -51,0" style="fill:none;stroke:#000;stroke-width:50"/><path id="path322" d="m 2366,5400 -51,0" style="fill:none;stroke:#000;stroke-width:50"/><path id="path324" d="m 2264,5400 -51,0" style="fill:none;stroke:#000;stroke-width:50"/><path id="path326" d="m 2162,5400 -51,0" style="fill:none;stroke:#000;stroke-width:50"/><path id="path328" d="m 2060,5400 -51,0" style="fill:none;stroke:#000;stroke-width:50"/><path id="path330" d="m 1958,5400 -51,0" style="fill:none;stroke:#000;stroke-width:50"/><path id="path332" d="m 1856,5400 -51,0" style="fill:none;stroke:#000;stroke-width:50"/><path id="path334" d="m 1754,5400 -51,0" style="fill:none;stroke:#000;stroke-width:50"/><path id="path336" d="m 1652,5400 -51,0" style="fill:none;stroke:#000;stroke-width:50"/><path id="path338" d="m 1550,5400 -51,0" style="fill:none;stroke:#000;stroke-width:50"/><path id="path340" d="m 1448,5400 -51,0" style="fill:none;stroke:#000;stroke-width:50"/><path id="path342" d="m 1346,5400 -51,0" style="fill:none;stroke:#000;stroke-width:50"/><path id="path344" d="m 1244,5400 -44,0" style="fill:none;stroke:#000;stroke-width:50"/></g></g><g id="g346" class="com.sun.star.drawing.TextShape"><g id="id7"><text id="text349" class="TextShape"><tspan id="tspan351" class="TextParagraph" font-size="388" font-weight="400" style="font-size:388px;font-weight:400;font-family:'Arial, sans-serif'"><tspan id="tspan353" x="2091" y="6068" class="TextPosition"><tspan id="tspan355" style="fill:#000;stroke:none">Variables</tspan></tspan></tspan></text></g></g><g id="g357" class="com.sun.star.drawing.TextShape"><g id="id8"><text id="text360" class="TextShape"><tspan id="tspan362" class="TextParagraph" font-size="388" font-weight="400" style="font-size:388px;font-weight:400;font-family:'Arial, sans-serif'"><tspan id="tspan364" x="5991" y="6069" class="TextPosition"><tspan id="tspan366" style="fill:#000;stroke:none">Values</tspan></tspan></tspan></text></g></g><g id="g368" class="com.sun.star.drawing.TextShape"><g id="id9"><path id="path371" d="m 3257,3400 -844,0 0,-683 1687,0 0,683 -843,0 z" style="fill:silver;stroke:none"/><text id="text373" class="TextShape"><tspan id="tspan375" class="TextParagraph" font-size="388" font-weight="400" style="font-size:388px;font-weight:400;font-family:'Arial, sans-serif'"><tspan id="tspan377" x="2663" y="3193" class="TextPosition"><tspan id="tspan379" style="fill:#000;stroke:none">list_val</tspan></tspan></tspan></text></g></g><g id="g381" class="com.sun.star.drawing.TextShape"><g id="id10"><path id="path384" d="m 6517,5101 -717,0 0,-733 1433,0 0,733 -716,0 z" style="fill:none;stroke:#000;stroke-width:50"/><text id="text386" class="TextShape"><tspan id="tspan388" class="TextParagraph" font-size="388" font-weight="400" style="font-size:388px;font-weight:400;font-family:'Arial, sans-serif'"><tspan id="tspan390" x="6075" y="4869" class="TextPosition"><tspan id="tspan392" style="fill:#000;stroke:none">&apos;alan&apos;</tspan></tspan></tspan></text></g></g><g id="g394" class="com.sun.star.drawing.LineShape"><g id="id11"><path id="path397" d="m 4300,3100 1870,0" style="fill:none;stroke:#000"/><path id="path399" d="m 6600,3100 -450,-150 0,300 450,-150 z" style="fill:#000;stroke:none"/></g></g><g id="g401" class="com.sun.star.drawing.LineShape"><g id="id12"><path id="path404" d="m 7200,3000 -483,829" style="fill:none;stroke:#000"/><path id="path406" d="m 6500,4200 356,-313 -259,-151 -97,464 z" style="fill:#000;stroke:none"/></g></g><g id="g408" class="com.sun.star.drawing.TextShape"><g id="id13"><text id="text411" class="TextShape"><tspan id="tspan413" class="TextParagraph" font-size="388" font-weight="400" style="font-size:388px;font-weight:400;font-family:'Arial, sans-serif'"><tspan id="tspan415" x="6176" y="2170" class="TextPosition"><tspan id="tspan417" style="fill:#000;stroke:none">&apos;alan&apos;</tspan></tspan></tspan></text></g></g><g id="g419" class="com.sun.star.drawing.TextShape"><g id="id14"><path id="path422" d="m 7177,3403 -276,0 0,-733 552,0 0,733 -276,0 z" style="fill:none;stroke:#000;stroke-width:50"/></g></g><g id="g424" class="com.sun.star.drawing.TextShape"><g id="id15"><path id="path427" d="m 7777,3404 -276,0 0,-733 552,0 0,733 -276,0 z" style="fill:none;stroke:#000;stroke-width:50"/></g></g><g id="g429" class="com.sun.star.drawing.TextShape"><g id="id16"><path id="path432" d="m 8636,5102 -835,0 0,-733 1670,0 0,733 -835,0 z" style="fill:none;stroke:#000;stroke-width:50"/><text id="text434" class="TextShape"><tspan id="tspan436" class="TextParagraph" font-size="388" font-weight="400" style="font-size:388px;font-weight:400;font-family:'Arial, sans-serif'"><tspan id="tspan438" x="8076" y="4870" class="TextPosition"><tspan id="tspan440" style="fill:#000;stroke:none">&apos;turing&apos;</tspan></tspan></tspan></text></g></g><g id="g442" class="com.sun.star.drawing.LineShape"><g id="id17"><path id="path445" d="m 7800,3000 561,842" style="fill:none;stroke:#000"/><path id="path447" d="m 8600,4200 -125,-458 -249,167 374,291 z" style="fill:#000;stroke:none"/></g></g></g></g></g></g></svg>