<svg xmlns="http://www.w3.org/2000/svg" xmlns:ooo="http://xml.openoffice.org/svg/export" xmlns:svg="http://www.w3.org/2000/svg" id="svg5330" width="285.236" height="187.902" clip-path="url(#presentation_clip_path)" style="fill-rule:evenodd;stroke-width:28.22200012;stroke-linejoin:round" preserveAspectRatio="xMidYMid" version="1.2" viewBox="0 0 8050 5303" xml:space="preserve"><metadata id="metadata5752"/><defs id="defs5332" class="ClipPathGroup"><clipPath id="presentation_clip_path" clipPathUnits="userSpaceOnUse"><rect id="rect5335" width="21590" height="27940" x="0" y="0"/></clipPath></defs><defs id="defs5341" class="EmbeddedBulletChars"><g id="bullet-char-template(57356)" transform="scale(4.8828125e-4,-4.8828125e-4)"><path id="path5344" d="M 580,1141 1163,571 580,0 -4,571 580,1141 z"/></g><g id="bullet-char-template(57354)" transform="scale(4.8828125e-4,-4.8828125e-4)"><path id="path5347" d="m 8,1128 1129,0 L 1137,0 8,0 8,1128 z"/></g><g id="bullet-char-template(10146)" transform="scale(4.8828125e-4,-4.8828125e-4)"><path id="path5350" d="M 174,0 602,739 174,1481 1456,739 174,0 z m 1184,739 -1049,607 350,-607 699,0 z"/></g><g id="bullet-char-template(10132)" transform="scale(4.8828125e-4,-4.8828125e-4)"><path id="path5353" d="M 2015,739 1276,0 717,0 l 543,543 -1086,0 0,393 1086,0 -543,545 557,0 741,-742 z"/></g><g id="bullet-char-template(10007)" transform="scale(4.8828125e-4,-4.8828125e-4)"><path id="path5356" d="m 0,-2 c -7,16 -16,29 -25,39 l 381,530 c -94,256 -141,385 -141,387 0,25 13,38 40,38 9,0 21,-2 34,-5 21,4 42,12 65,25 l 27,-13 111,-251 280,301 64,-25 24,25 c 21,-10 41,-24 62,-43 C 886,937 835,863 770,784 769,783 710,716 594,584 L 774,223 c 0,-27 -21,-55 -63,-84 l 16,-20 C 717,90 699,76 672,76 641,76 570,178 457,381 L 164,-76 c -22,-34 -53,-51 -92,-51 -42,0 -63,17 -64,51 -7,9 -10,24 -10,44 0,9 1,19 2,30 z"/></g><g id="bullet-char-template(10004)" transform="scale(4.8828125e-4,-4.8828125e-4)"><path id="path5359" d="M 285,-33 C 182,-33 111,30 74,156 52,228 41,333 41,471 c 0,78 14,145 41,201 34,71 87,106 158,106 53,0 88,-31 106,-94 l 23,-176 c 8,-64 28,-97 59,-98 l 735,706 c 11,11 33,17 66,17 42,0 63,-15 63,-46 l 0,-122 c 0,-36 -10,-64 -30,-84 L 442,47 C 390,-6 338,-33 285,-33 z"/></g><g id="bullet-char-template(9679)" transform="scale(4.8828125e-4,-4.8828125e-4)"><path id="path5362" d="M 813,0 C 632,0 489,54 383,161 276,268 223,411 223,592 c 0,181 53,324 160,431 106,107 249,161 430,161 179,0 323,-54 432,-161 108,-107 162,-251 162,-431 0,-180 -54,-324 -162,-431 C 1136,54 992,0 813,0 z"/></g><g id="bullet-char-template(8226)" transform="scale(4.8828125e-4,-4.8828125e-4)"><path id="path5365" d="m 346,457 c -73,0 -137,26 -191,78 -54,51 -81,114 -81,188 0,73 27,136 81,188 54,52 118,78 191,78 73,0 134,-26 185,-79 51,-51 77,-114 77,-187 0,-75 -25,-137 -76,-188 -50,-52 -112,-78 -186,-78 z"/></g><g id="bullet-char-template(8211)" transform="scale(4.8828125e-4,-4.8828125e-4)"><path id="path5368" d="m -4,459 1139,0 0,147 -1139,0 0,-147 z"/></g></defs><g id="g5377" class="SlideGroup" transform="translate(-1175,-1122)"><g id="g5379"><g id="id1" class="Slide" clip-path="url(#presentation_clip_path)"><g id="g5382" class="Page"><g id="g5384" class="com.sun.star.drawing.LineShape"><g id="id3"><path id="path5387" d="m 4400,2000 1170,0" style="fill:none;stroke:#000"/><path id="path5389" d="m 6000,2000 -450,-150 0,300 450,-150 z" style="fill:#000;stroke:none"/></g></g><g id="g5391" class="com.sun.star.drawing.TextShape"><g id="id4"><path id="path5394" d="m 3020,2283 -1081,0 0,-683 2161,0 0,683 -1080,0 z" style="fill:silver;stroke:none"/><text id="text5396" class="TextShape"><tspan id="tspan5398" class="TextParagraph" font-size="388" font-weight="400" style="font-size:388px;font-weight:400;font-family:'Arial, sans-serif'"><tspan id="tspan5400" x="2189" y="2076" class="TextPosition"><tspan id="tspan5402" style="fill:#000;stroke:none">string_val</tspan></tspan></tspan></text></g></g><g id="g5404" class="com.sun.star.drawing.LineShape"><g id="id5"><path id="path5407" d="m 4700,6400 0,-51" style="fill:none;stroke:#000;stroke-width:50"/><path id="path5409" d="m 4700,6298 0,-51" style="fill:none;stroke:#000;stroke-width:50"/><path id="path5411" d="m 4700,6196 0,-51" style="fill:none;stroke:#000;stroke-width:50"/><path id="path5413" d="m 4700,6094 0,-51" style="fill:none;stroke:#000;stroke-width:50"/><path id="path5415" d="m 4700,5992 0,-51" style="fill:none;stroke:#000;stroke-width:50"/><path id="path5417" d="m 4700,5890 0,-51" style="fill:none;stroke:#000;stroke-width:50"/><path id="path5419" d="m 4700,5788 0,-51" style="fill:none;stroke:#000;stroke-width:50"/><path id="path5421" d="m 4700,5686 0,-51" style="fill:none;stroke:#000;stroke-width:50"/><path id="path5423" d="m 4700,5584 0,-51" style="fill:none;stroke:#000;stroke-width:50"/><path id="path5425" d="m 4700,5482 0,-51" style="fill:none;stroke:#000;stroke-width:50"/><path id="path5427" d="m 4700,5380 0,-51" style="fill:none;stroke:#000;stroke-width:50"/><path id="path5429" d="m 4700,5278 0,-51" style="fill:none;stroke:#000;stroke-width:50"/><path id="path5431" d="m 4700,5176 0,-51" style="fill:none;stroke:#000;stroke-width:50"/><path id="path5433" d="m 4700,5074 0,-51" style="fill:none;stroke:#000;stroke-width:50"/><path id="path5435" d="m 4700,4972 0,-51" style="fill:none;stroke:#000;stroke-width:50"/><path id="path5437" d="m 4700,4870 0,-51" style="fill:none;stroke:#000;stroke-width:50"/><path id="path5439" d="m 4700,4768 0,-51" style="fill:none;stroke:#000;stroke-width:50"/><path id="path5441" d="m 4700,4666 0,-51" style="fill:none;stroke:#000;stroke-width:50"/><path id="path5443" d="m 4700,4564 0,-51" style="fill:none;stroke:#000;stroke-width:50"/><path id="path5445" d="m 4700,4462 0,-51" style="fill:none;stroke:#000;stroke-width:50"/><path id="path5447" d="m 4700,4360 0,-51" style="fill:none;stroke:#000;stroke-width:50"/><path id="path5449" d="m 4700,4258 0,-51" style="fill:none;stroke:#000;stroke-width:50"/><path id="path5451" d="m 4700,4156 0,-51" style="fill:none;stroke:#000;stroke-width:50"/><path id="path5453" d="m 4700,4054 0,-51" style="fill:none;stroke:#000;stroke-width:50"/><path id="path5455" d="m 4700,3952 0,-51" style="fill:none;stroke:#000;stroke-width:50"/><path id="path5457" d="m 4700,3850 0,-51" style="fill:none;stroke:#000;stroke-width:50"/><path id="path5459" d="m 4700,3748 0,-51" style="fill:none;stroke:#000;stroke-width:50"/><path id="path5461" d="m 4700,3646 0,-51" style="fill:none;stroke:#000;stroke-width:50"/><path id="path5463" d="m 4700,3544 0,-51" style="fill:none;stroke:#000;stroke-width:50"/><path id="path5465" d="m 4700,3442 0,-51" style="fill:none;stroke:#000;stroke-width:50"/><path id="path5467" d="m 4700,3340 0,-51" style="fill:none;stroke:#000;stroke-width:50"/><path id="path5469" d="m 4700,3238 0,-51" style="fill:none;stroke:#000;stroke-width:50"/><path id="path5471" d="m 4700,3136 0,-51" style="fill:none;stroke:#000;stroke-width:50"/><path id="path5473" d="m 4700,3034 0,-51" style="fill:none;stroke:#000;stroke-width:50"/><path id="path5475" d="m 4700,2932 0,-51" style="fill:none;stroke:#000;stroke-width:50"/><path id="path5477" d="m 4700,2830 0,-51" style="fill:none;stroke:#000;stroke-width:50"/><path id="path5479" d="m 4700,2728 0,-51" style="fill:none;stroke:#000;stroke-width:50"/><path id="path5481" d="m 4700,2626 0,-51" style="fill:none;stroke:#000;stroke-width:50"/><path id="path5483" d="m 4700,2524 0,-51" style="fill:none;stroke:#000;stroke-width:50"/><path id="path5485" d="m 4700,2422 0,-51" style="fill:none;stroke:#000;stroke-width:50"/><path id="path5487" d="m 4700,2320 0,-51" style="fill:none;stroke:#000;stroke-width:50"/><path id="path5489" d="m 4700,2218 0,-51" style="fill:none;stroke:#000;stroke-width:50"/><path id="path5491" d="m 4700,2116 0,-51" style="fill:none;stroke:#000;stroke-width:50"/><path id="path5493" d="m 4700,2014 0,-51" style="fill:none;stroke:#000;stroke-width:50"/><path id="path5495" d="m 4700,1912 0,-51" style="fill:none;stroke:#000;stroke-width:50"/><path id="path5497" d="m 4700,1810 0,-51" style="fill:none;stroke:#000;stroke-width:50"/><path id="path5499" d="m 4700,1708 0,-51" style="fill:none;stroke:#000;stroke-width:50"/><path id="path5501" d="m 4700,1606 0,-51" style="fill:none;stroke:#000;stroke-width:50"/><path id="path5503" d="m 4700,1504 0,-51" style="fill:none;stroke:#000;stroke-width:50"/><path id="path5505" d="m 4700,1402 0,-51" style="fill:none;stroke:#000;stroke-width:50"/><path id="path5507" d="m 4700,1300 0,-51" style="fill:none;stroke:#000;stroke-width:50"/><path id="path5509" d="m 4700,1198 0,-51" style="fill:none;stroke:#000;stroke-width:50"/></g></g><g id="g5511" class="com.sun.star.drawing.LineShape"><g id="id6"><path id="path5514" d="m 9200,5400 -51,0" style="fill:none;stroke:#000;stroke-width:50"/><path id="path5516" d="m 9098,5400 -51,0" style="fill:none;stroke:#000;stroke-width:50"/><path id="path5518" d="m 8996,5400 -51,0" style="fill:none;stroke:#000;stroke-width:50"/><path id="path5520" d="m 8894,5400 -51,0" style="fill:none;stroke:#000;stroke-width:50"/><path id="path5522" d="m 8792,5400 -51,0" style="fill:none;stroke:#000;stroke-width:50"/><path id="path5524" d="m 8690,5400 -51,0" style="fill:none;stroke:#000;stroke-width:50"/><path id="path5526" d="m 8588,5400 -51,0" style="fill:none;stroke:#000;stroke-width:50"/><path id="path5528" d="m 8486,5400 -51,0" style="fill:none;stroke:#000;stroke-width:50"/><path id="path5530" d="m 8384,5400 -51,0" style="fill:none;stroke:#000;stroke-width:50"/><path id="path5532" d="m 8282,5400 -51,0" style="fill:none;stroke:#000;stroke-width:50"/><path id="path5534" d="m 8180,5400 -51,0" style="fill:none;stroke:#000;stroke-width:50"/><path id="path5536" d="m 8078,5400 -51,0" style="fill:none;stroke:#000;stroke-width:50"/><path id="path5538" d="m 7976,5400 -51,0" style="fill:none;stroke:#000;stroke-width:50"/><path id="path5540" d="m 7874,5400 -51,0" style="fill:none;stroke:#000;stroke-width:50"/><path id="path5542" d="m 7772,5400 -51,0" style="fill:none;stroke:#000;stroke-width:50"/><path id="path5544" d="m 7670,5400 -51,0" style="fill:none;stroke:#000;stroke-width:50"/><path id="path5546" d="m 7568,5400 -51,0" style="fill:none;stroke:#000;stroke-width:50"/><path id="path5548" d="m 7466,5400 -51,0" style="fill:none;stroke:#000;stroke-width:50"/><path id="path5550" d="m 7364,5400 -51,0" style="fill:none;stroke:#000;stroke-width:50"/><path id="path5552" d="m 7262,5400 -51,0" style="fill:none;stroke:#000;stroke-width:50"/><path id="path5554" d="m 7160,5400 -51,0" style="fill:none;stroke:#000;stroke-width:50"/><path id="path5556" d="m 7058,5400 -51,0" style="fill:none;stroke:#000;stroke-width:50"/><path id="path5558" d="m 6956,5400 -51,0" style="fill:none;stroke:#000;stroke-width:50"/><path id="path5560" d="m 6854,5400 -51,0" style="fill:none;stroke:#000;stroke-width:50"/><path id="path5562" d="m 6752,5400 -51,0" style="fill:none;stroke:#000;stroke-width:50"/><path id="path5564" d="m 6650,5400 -51,0" style="fill:none;stroke:#000;stroke-width:50"/><path id="path5566" d="m 6548,5400 -51,0" style="fill:none;stroke:#000;stroke-width:50"/><path id="path5568" d="m 6446,5400 -51,0" style="fill:none;stroke:#000;stroke-width:50"/><path id="path5570" d="m 6344,5400 -51,0" style="fill:none;stroke:#000;stroke-width:50"/><path id="path5572" d="m 6242,5400 -51,0" style="fill:none;stroke:#000;stroke-width:50"/><path id="path5574" d="m 6140,5400 -51,0" style="fill:none;stroke:#000;stroke-width:50"/><path id="path5576" d="m 6038,5400 -51,0" style="fill:none;stroke:#000;stroke-width:50"/><path id="path5578" d="m 5936,5400 -51,0" style="fill:none;stroke:#000;stroke-width:50"/><path id="path5580" d="m 5834,5400 -51,0" style="fill:none;stroke:#000;stroke-width:50"/><path id="path5582" d="m 5732,5400 -51,0" style="fill:none;stroke:#000;stroke-width:50"/><path id="path5584" d="m 5630,5400 -51,0" style="fill:none;stroke:#000;stroke-width:50"/><path id="path5586" d="m 5528,5400 -51,0" style="fill:none;stroke:#000;stroke-width:50"/><path id="path5588" d="m 5426,5400 -51,0" style="fill:none;stroke:#000;stroke-width:50"/><path id="path5590" d="m 5324,5400 -51,0" style="fill:none;stroke:#000;stroke-width:50"/><path id="path5592" d="m 5222,5400 -51,0" style="fill:none;stroke:#000;stroke-width:50"/><path id="path5594" d="m 5120,5400 -51,0" style="fill:none;stroke:#000;stroke-width:50"/><path id="path5596" d="m 5018,5400 -51,0" style="fill:none;stroke:#000;stroke-width:50"/><path id="path5598" d="m 4916,5400 -51,0" style="fill:none;stroke:#000;stroke-width:50"/><path id="path5600" d="m 4814,5400 -51,0" style="fill:none;stroke:#000;stroke-width:50"/><path id="path5602" d="m 4712,5400 -51,0" style="fill:none;stroke:#000;stroke-width:50"/><path id="path5604" d="m 4610,5400 -51,0" style="fill:none;stroke:#000;stroke-width:50"/><path id="path5606" d="m 4508,5400 -51,0" style="fill:none;stroke:#000;stroke-width:50"/><path id="path5608" d="m 4406,5400 -51,0" style="fill:none;stroke:#000;stroke-width:50"/><path id="path5610" d="m 4304,5400 -51,0" style="fill:none;stroke:#000;stroke-width:50"/><path id="path5612" d="m 4202,5400 -51,0" style="fill:none;stroke:#000;stroke-width:50"/><path id="path5614" d="m 4100,5400 -51,0" style="fill:none;stroke:#000;stroke-width:50"/><path id="path5616" d="m 3998,5400 -51,0" style="fill:none;stroke:#000;stroke-width:50"/><path id="path5618" d="m 3896,5400 -51,0" style="fill:none;stroke:#000;stroke-width:50"/><path id="path5620" d="m 3794,5400 -51,0" style="fill:none;stroke:#000;stroke-width:50"/><path id="path5622" d="m 3692,5400 -51,0" style="fill:none;stroke:#000;stroke-width:50"/><path id="path5624" d="m 3590,5400 -51,0" style="fill:none;stroke:#000;stroke-width:50"/><path id="path5626" d="m 3488,5400 -51,0" style="fill:none;stroke:#000;stroke-width:50"/><path id="path5628" d="m 3386,5400 -51,0" style="fill:none;stroke:#000;stroke-width:50"/><path id="path5630" d="m 3284,5400 -51,0" style="fill:none;stroke:#000;stroke-width:50"/><path id="path5632" d="m 3182,5400 -51,0" style="fill:none;stroke:#000;stroke-width:50"/><path id="path5634" d="m 3080,5400 -51,0" style="fill:none;stroke:#000;stroke-width:50"/><path id="path5636" d="m 2978,5400 -51,0" style="fill:none;stroke:#000;stroke-width:50"/><path id="path5638" d="m 2876,5400 -51,0" style="fill:none;stroke:#000;stroke-width:50"/><path id="path5640" d="m 2774,5400 -51,0" style="fill:none;stroke:#000;stroke-width:50"/><path id="path5642" d="m 2672,5400 -51,0" style="fill:none;stroke:#000;stroke-width:50"/><path id="path5644" d="m 2570,5400 -51,0" style="fill:none;stroke:#000;stroke-width:50"/><path id="path5646" d="m 2468,5400 -51,0" style="fill:none;stroke:#000;stroke-width:50"/><path id="path5648" d="m 2366,5400 -51,0" style="fill:none;stroke:#000;stroke-width:50"/><path id="path5650" d="m 2264,5400 -51,0" style="fill:none;stroke:#000;stroke-width:50"/><path id="path5652" d="m 2162,5400 -51,0" style="fill:none;stroke:#000;stroke-width:50"/><path id="path5654" d="m 2060,5400 -51,0" style="fill:none;stroke:#000;stroke-width:50"/><path id="path5656" d="m 1958,5400 -51,0" style="fill:none;stroke:#000;stroke-width:50"/><path id="path5658" d="m 1856,5400 -51,0" style="fill:none;stroke:#000;stroke-width:50"/><path id="path5660" d="m 1754,5400 -51,0" style="fill:none;stroke:#000;stroke-width:50"/><path id="path5662" d="m 1652,5400 -51,0" style="fill:none;stroke:#000;stroke-width:50"/><path id="path5664" d="m 1550,5400 -51,0" style="fill:none;stroke:#000;stroke-width:50"/><path id="path5666" d="m 1448,5400 -51,0" style="fill:none;stroke:#000;stroke-width:50"/><path id="path5668" d="m 1346,5400 -51,0" style="fill:none;stroke:#000;stroke-width:50"/><path id="path5670" d="m 1244,5400 -44,0" style="fill:none;stroke:#000;stroke-width:50"/></g></g><g id="g5672" class="com.sun.star.drawing.TextShape"><g id="id7"><text id="text5675" class="TextShape"><tspan id="tspan5677" class="TextParagraph" font-size="388" font-weight="400" style="font-size:388px;font-weight:400;font-family:'Arial, sans-serif'"><tspan id="tspan5679" x="2091" y="6068" class="TextPosition"><tspan id="tspan5681" style="fill:#000;stroke:none">Variables</tspan></tspan></tspan></text></g></g><g id="g5683" class="com.sun.star.drawing.TextShape"><g id="id8"><text id="text5686" class="TextShape"><tspan id="tspan5688" class="TextParagraph" font-size="388" font-weight="400" style="font-size:388px;font-weight:400;font-family:'Arial, sans-serif'"><tspan id="tspan5690" x="5991" y="6069" class="TextPosition"><tspan id="tspan5692" style="fill:#000;stroke:none">Values</tspan></tspan></tspan></text></g></g><g id="g5694" class="com.sun.star.drawing.TextShape"><g id="id9"><path id="path5697" d="m 3257,3400 -844,0 0,-683 1687,0 0,683 -843,0 z" style="fill:silver;stroke:none"/><text id="text5699" class="TextShape"><tspan id="tspan5701" class="TextParagraph" font-size="388" font-weight="400" style="font-size:388px;font-weight:400;font-family:'Arial, sans-serif'"><tspan id="tspan5703" x="2663" y="3193" class="TextPosition"><tspan id="tspan5705" style="fill:#000;stroke:none">list_val</tspan></tspan></tspan></text></g></g><g id="g5707" class="com.sun.star.drawing.TextShape"><g id="id10"><path id="path5710" d="m 6517,5101 -717,0 0,-733 1433,0 0,733 -716,0 z" style="fill:none;stroke:#000;stroke-width:50"/><text id="text5712" class="TextShape"><tspan id="tspan5714" class="TextParagraph" font-size="388" font-weight="400" style="font-size:388px;font-weight:400;font-family:'Arial, sans-serif'"><tspan id="tspan5716" x="6075" y="4869" class="TextPosition"><tspan id="tspan5718" style="fill:#000;stroke:none">&apos;alan&apos;</tspan></tspan></tspan></text></g></g><g id="g5720" class="com.sun.star.drawing.LineShape"><g id="id11"><path id="path5723" d="m 4300,3100 1270,0" style="fill:none;stroke:#000"/><path id="path5725" d="m 6000,3100 -450,-150 0,300 450,-150 z" style="fill:#000;stroke:none"/></g></g><g id="g5727" class="com.sun.star.drawing.LineShape"><g id="id12"><path id="path5730" d="m 6500,3100 0,670" style="fill:none;stroke:#000"/><path id="path5732" d="m 6500,4200 150,-450 -300,0 150,450 z" style="fill:#000;stroke:none"/></g></g><g id="g5734" class="com.sun.star.drawing.TextShape"><g id="id13"><text id="text5737" class="TextShape"><tspan id="tspan5739" class="TextParagraph" font-size="388" font-weight="400" style="font-size:388px;font-weight:400;font-family:'Arial, sans-serif'"><tspan id="tspan5741" x="6176" y="2170" class="TextPosition"><tspan id="tspan5743" style="fill:#000;stroke:none">&apos;alan&apos;</tspan></tspan></tspan></text></g></g><g id="g5745" class="com.sun.star.drawing.TextShape"><g id="id14"><path id="path5748" d="m 6476,3433 -276,0 0,-733 552,0 0,733 -276,0 z" style="fill:none;stroke:#000;stroke-width:50"/></g></g></g></g></g></g></svg>