<svg xmlns="http://www.w3.org/2000/svg" xmlns:ooo="http://xml.openoffice.org/svg/export" xmlns:svg="http://www.w3.org/2000/svg" id="svg9452" width="384.376" height="299.409" clip-path="url(#presentation_clip_path)" style="fill-rule:evenodd;stroke-width:28.22200012;stroke-linejoin:round" preserveAspectRatio="xMidYMid" version="1.2" viewBox="0 0 10847.949 8450" xml:space="preserve"><metadata id="metadata10193"/><defs id="defs9454" class="ClipPathGroup"><clipPath id="presentation_clip_path" clipPathUnits="userSpaceOnUse"><rect id="rect9457" width="21590" height="27940" x="0" y="0"/></clipPath></defs><defs id="defs9463" class="EmbeddedBulletChars"><g id="bullet-char-template(57356)" transform="scale(4.8828125e-4,-4.8828125e-4)"><path id="path9466" d="M 580,1141 1163,571 580,0 -4,571 580,1141 z"/></g><g id="bullet-char-template(57354)" transform="scale(4.8828125e-4,-4.8828125e-4)"><path id="path9469" d="m 8,1128 1129,0 L 1137,0 8,0 8,1128 z"/></g><g id="bullet-char-template(10146)" transform="scale(4.8828125e-4,-4.8828125e-4)"><path id="path9472" d="M 174,0 602,739 174,1481 1456,739 174,0 z m 1184,739 -1049,607 350,-607 699,0 z"/></g><g id="bullet-char-template(10132)" transform="scale(4.8828125e-4,-4.8828125e-4)"><path id="path9475" d="M 2015,739 1276,0 717,0 l 543,543 -1086,0 0,393 1086,0 -543,545 557,0 741,-742 z"/></g><g id="bullet-char-template(10007)" transform="scale(4.8828125e-4,-4.8828125e-4)"><path id="path9478" d="m 0,-2 c -7,16 -16,29 -25,39 l 381,530 c -94,256 -141,385 -141,387 0,25 13,38 40,38 9,0 21,-2 34,-5 21,4 42,12 65,25 l 27,-13 111,-251 280,301 64,-25 24,25 c 21,-10 41,-24 62,-43 C 886,937 835,863 770,784 769,783 710,716 594,584 L 774,223 c 0,-27 -21,-55 -63,-84 l 16,-20 C 717,90 699,76 672,76 641,76 570,178 457,381 L 164,-76 c -22,-34 -53,-51 -92,-51 -42,0 -63,17 -64,51 -7,9 -10,24 -10,44 0,9 1,19 2,30 z"/></g><g id="bullet-char-template(10004)" transform="scale(4.8828125e-4,-4.8828125e-4)"><path id="path9481" d="M 285,-33 C 182,-33 111,30 74,156 52,228 41,333 41,471 c 0,78 14,145 41,201 34,71 87,106 158,106 53,0 88,-31 106,-94 l 23,-176 c 8,-64 28,-97 59,-98 l 735,706 c 11,11 33,17 66,17 42,0 63,-15 63,-46 l 0,-122 c 0,-36 -10,-64 -30,-84 L 442,47 C 390,-6 338,-33 285,-33 z"/></g><g id="bullet-char-template(9679)" transform="scale(4.8828125e-4,-4.8828125e-4)"><path id="path9484" d="M 813,0 C 632,0 489,54 383,161 276,268 223,411 223,592 c 0,181 53,324 160,431 106,107 249,161 430,161 179,0 323,-54 432,-161 108,-107 162,-251 162,-431 0,-180 -54,-324 -162,-431 C 1136,54 992,0 813,0 z"/></g><g id="bullet-char-template(8226)" transform="scale(4.8828125e-4,-4.8828125e-4)"><path id="path9487" d="m 346,457 c -73,0 -137,26 -191,78 -54,51 -81,114 -81,188 0,73 27,136 81,188 54,52 118,78 191,78 73,0 134,-26 185,-79 51,-51 77,-114 77,-187 0,-75 -25,-137 -76,-188 -50,-52 -112,-78 -186,-78 z"/></g><g id="bullet-char-template(8211)" transform="scale(4.8828125e-4,-4.8828125e-4)"><path id="path9490" d="m -4,459 1139,0 0,147 -1139,0 0,-147 z"/></g></defs><g id="g9499" class="SlideGroup" transform="translate(-1448.0508,-1275)"><g id="g9501"><g id="id1" class="Slide" clip-path="url(#presentation_clip_path)"><g id="g9504" class="Page"><g id="g9506" class="com.sun.star.drawing.LineShape"><g id="id3"><path id="path9509" d="m 7200,5300 1170,0" style="fill:none;stroke:#000"/><path id="path9511" d="m 8800,5300 -450,-150 0,300 450,-150 z" style="fill:#000;stroke:none"/></g></g><g id="g9513" class="com.sun.star.drawing.TextShape"><g id="id4"><path id="path9516" d="m 5820,5583 -1081,0 0,-683 2161,0 0,683 -1080,0 z" style="fill:silver;stroke:none"/><text id="text9518" class="TextShape"><tspan id="tspan9520" class="TextParagraph" font-size="388" font-weight="400" style="font-size:388px;font-weight:400;font-family:'Arial, sans-serif'"><tspan id="tspan9522" x="4989" y="5376" class="TextPosition"><tspan id="tspan9524" style="fill:#000;stroke:none">string_val</tspan></tspan></tspan></text></g></g><g id="g9526" class="com.sun.star.drawing.LineShape"><g id="id5"><path id="path9529" d="m 7500,9700 0,-51" style="fill:none;stroke:#000;stroke-width:50"/><path id="path9531" d="m 7500,9598 0,-51" style="fill:none;stroke:#000;stroke-width:50"/><path id="path9533" d="m 7500,9496 0,-51" style="fill:none;stroke:#000;stroke-width:50"/><path id="path9535" d="m 7500,9394 0,-51" style="fill:none;stroke:#000;stroke-width:50"/><path id="path9537" d="m 7500,9292 0,-51" style="fill:none;stroke:#000;stroke-width:50"/><path id="path9539" d="m 7500,9190 0,-51" style="fill:none;stroke:#000;stroke-width:50"/><path id="path9541" d="m 7500,9088 0,-51" style="fill:none;stroke:#000;stroke-width:50"/><path id="path9543" d="m 7500,8986 0,-51" style="fill:none;stroke:#000;stroke-width:50"/><path id="path9545" d="m 7500,8884 0,-51" style="fill:none;stroke:#000;stroke-width:50"/><path id="path9547" d="m 7500,8782 0,-51" style="fill:none;stroke:#000;stroke-width:50"/><path id="path9549" d="m 7500,8680 0,-51" style="fill:none;stroke:#000;stroke-width:50"/><path id="path9551" d="m 7500,8578 0,-51" style="fill:none;stroke:#000;stroke-width:50"/><path id="path9553" d="m 7500,8476 0,-51" style="fill:none;stroke:#000;stroke-width:50"/><path id="path9555" d="m 7500,8374 0,-51" style="fill:none;stroke:#000;stroke-width:50"/><path id="path9557" d="m 7500,8272 0,-51" style="fill:none;stroke:#000;stroke-width:50"/><path id="path9559" d="m 7500,8170 0,-51" style="fill:none;stroke:#000;stroke-width:50"/><path id="path9561" d="m 7500,8068 0,-51" style="fill:none;stroke:#000;stroke-width:50"/><path id="path9563" d="m 7500,7966 0,-51" style="fill:none;stroke:#000;stroke-width:50"/><path id="path9565" d="m 7500,7864 0,-51" style="fill:none;stroke:#000;stroke-width:50"/><path id="path9567" d="m 7500,7762 0,-51" style="fill:none;stroke:#000;stroke-width:50"/><path id="path9569" d="m 7500,7660 0,-51" style="fill:none;stroke:#000;stroke-width:50"/><path id="path9571" d="m 7500,7558 0,-51" style="fill:none;stroke:#000;stroke-width:50"/><path id="path9573" d="m 7500,7456 0,-51" style="fill:none;stroke:#000;stroke-width:50"/><path id="path9575" d="m 7500,7354 0,-51" style="fill:none;stroke:#000;stroke-width:50"/><path id="path9577" d="m 7500,7252 0,-51" style="fill:none;stroke:#000;stroke-width:50"/><path id="path9579" d="m 7500,7150 0,-51" style="fill:none;stroke:#000;stroke-width:50"/><path id="path9581" d="m 7500,7048 0,-51" style="fill:none;stroke:#000;stroke-width:50"/><path id="path9583" d="m 7500,6946 0,-51" style="fill:none;stroke:#000;stroke-width:50"/><path id="path9585" d="m 7500,6844 0,-51" style="fill:none;stroke:#000;stroke-width:50"/><path id="path9587" d="m 7500,6742 0,-51" style="fill:none;stroke:#000;stroke-width:50"/><path id="path9589" d="m 7500,6640 0,-51" style="fill:none;stroke:#000;stroke-width:50"/><path id="path9591" d="m 7500,6538 0,-51" style="fill:none;stroke:#000;stroke-width:50"/><path id="path9593" d="m 7500,6436 0,-51" style="fill:none;stroke:#000;stroke-width:50"/><path id="path9595" d="m 7500,6334 0,-51" style="fill:none;stroke:#000;stroke-width:50"/><path id="path9597" d="m 7500,6232 0,-51" style="fill:none;stroke:#000;stroke-width:50"/><path id="path9599" d="m 7500,6130 0,-51" style="fill:none;stroke:#000;stroke-width:50"/><path id="path9601" d="m 7500,6028 0,-51" style="fill:none;stroke:#000;stroke-width:50"/><path id="path9603" d="m 7500,5926 0,-51" style="fill:none;stroke:#000;stroke-width:50"/><path id="path9605" d="m 7500,5824 0,-51" style="fill:none;stroke:#000;stroke-width:50"/><path id="path9607" d="m 7500,5722 0,-51" style="fill:none;stroke:#000;stroke-width:50"/><path id="path9609" d="m 7500,5620 0,-51" style="fill:none;stroke:#000;stroke-width:50"/><path id="path9611" d="m 7500,5518 0,-51" style="fill:none;stroke:#000;stroke-width:50"/><path id="path9613" d="m 7500,5416 0,-51" style="fill:none;stroke:#000;stroke-width:50"/><path id="path9615" d="m 7500,5314 0,-51" style="fill:none;stroke:#000;stroke-width:50"/><path id="path9617" d="m 7500,5212 0,-51" style="fill:none;stroke:#000;stroke-width:50"/><path id="path9619" d="m 7500,5110 0,-51" style="fill:none;stroke:#000;stroke-width:50"/><path id="path9621" d="m 7500,5008 0,-51" style="fill:none;stroke:#000;stroke-width:50"/><path id="path9623" d="m 7500,4906 0,-51" style="fill:none;stroke:#000;stroke-width:50"/><path id="path9625" d="m 7500,4804 0,-51" style="fill:none;stroke:#000;stroke-width:50"/><path id="path9627" d="m 7500,4702 0,-51" style="fill:none;stroke:#000;stroke-width:50"/><path id="path9629" d="m 7500,4600 0,-51" style="fill:none;stroke:#000;stroke-width:50"/><path id="path9631" d="m 7500,4498 0,-51" style="fill:none;stroke:#000;stroke-width:50"/><path id="path9633" d="m 7500,4396 0,-51" style="fill:none;stroke:#000;stroke-width:50"/><path id="path9635" d="m 7500,4294 0,-51" style="fill:none;stroke:#000;stroke-width:50"/><path id="path9637" d="m 7500,4192 0,-51" style="fill:none;stroke:#000;stroke-width:50"/><path id="path9639" d="m 7500,4090 0,-51" style="fill:none;stroke:#000;stroke-width:50"/><path id="path9641" d="m 7500,3988 0,-51" style="fill:none;stroke:#000;stroke-width:50"/><path id="path9643" d="m 7500,3886 0,-51" style="fill:none;stroke:#000;stroke-width:50"/><path id="path9645" d="m 7500,3784 0,-51" style="fill:none;stroke:#000;stroke-width:50"/><path id="path9647" d="m 7500,3682 0,-51" style="fill:none;stroke:#000;stroke-width:50"/><path id="path9649" d="m 7500,3580 0,-51" style="fill:none;stroke:#000;stroke-width:50"/><path id="path9651" d="m 7500,3478 0,-51" style="fill:none;stroke:#000;stroke-width:50"/><path id="path9653" d="m 7500,3376 0,-51" style="fill:none;stroke:#000;stroke-width:50"/><path id="path9655" d="m 7500,3274 0,-51" style="fill:none;stroke:#000;stroke-width:50"/><path id="path9657" d="m 7500,3172 0,-51" style="fill:none;stroke:#000;stroke-width:50"/><path id="path9659" d="m 7500,3070 0,-51" style="fill:none;stroke:#000;stroke-width:50"/><path id="path9661" d="m 7500,2968 0,-51" style="fill:none;stroke:#000;stroke-width:50"/><path id="path9663" d="m 7500,2866 0,-51" style="fill:none;stroke:#000;stroke-width:50"/><path id="path9665" d="m 7500,2764 0,-51" style="fill:none;stroke:#000;stroke-width:50"/><path id="path9667" d="m 7500,2662 0,-51" style="fill:none;stroke:#000;stroke-width:50"/><path id="path9669" d="m 7500,2560 0,-51" style="fill:none;stroke:#000;stroke-width:50"/><path id="path9671" d="m 7500,2458 0,-51" style="fill:none;stroke:#000;stroke-width:50"/><path id="path9673" d="m 7500,2356 0,-51" style="fill:none;stroke:#000;stroke-width:50"/><path id="path9675" d="m 7500,2254 0,-51" style="fill:none;stroke:#000;stroke-width:50"/><path id="path9677" d="m 7500,2152 0,-51" style="fill:none;stroke:#000;stroke-width:50"/><path id="path9679" d="m 7500,2050 0,-51" style="fill:none;stroke:#000;stroke-width:50"/><path id="path9681" d="m 7500,1948 0,-51" style="fill:none;stroke:#000;stroke-width:50"/><path id="path9683" d="m 7500,1846 0,-51" style="fill:none;stroke:#000;stroke-width:50"/><path id="path9685" d="m 7500,1744 0,-51" style="fill:none;stroke:#000;stroke-width:50"/><path id="path9687" d="m 7500,1642 0,-51" style="fill:none;stroke:#000;stroke-width:50"/><path id="path9689" d="m 7500,1540 0,-51" style="fill:none;stroke:#000;stroke-width:50"/><path id="path9691" d="m 7500,1438 0,-51" style="fill:none;stroke:#000;stroke-width:50"/><path id="path9693" d="m 7500,1336 0,-36" style="fill:none;stroke:#000;stroke-width:50"/></g></g><g id="g9695" class="com.sun.star.drawing.LineShape"><g id="id6"><path id="path9698" d="m 12000,8700 -51,0" style="fill:none;stroke:#000;stroke-width:50"/><path id="path9700" d="m 11898,8700 -51,0" style="fill:none;stroke:#000;stroke-width:50"/><path id="path9702" d="m 11796,8700 -51,0" style="fill:none;stroke:#000;stroke-width:50"/><path id="path9704" d="m 11694,8700 -51,0" style="fill:none;stroke:#000;stroke-width:50"/><path id="path9706" d="m 11592,8700 -51,0" style="fill:none;stroke:#000;stroke-width:50"/><path id="path9708" d="m 11490,8700 -51,0" style="fill:none;stroke:#000;stroke-width:50"/><path id="path9710" d="m 11388,8700 -51,0" style="fill:none;stroke:#000;stroke-width:50"/><path id="path9712" d="m 11286,8700 -51,0" style="fill:none;stroke:#000;stroke-width:50"/><path id="path9714" d="m 11184,8700 -51,0" style="fill:none;stroke:#000;stroke-width:50"/><path id="path9716" d="m 11082,8700 -51,0" style="fill:none;stroke:#000;stroke-width:50"/><path id="path9718" d="m 10980,8700 -51,0" style="fill:none;stroke:#000;stroke-width:50"/><path id="path9720" d="m 10878,8700 -51,0" style="fill:none;stroke:#000;stroke-width:50"/><path id="path9722" d="m 10776,8700 -51,0" style="fill:none;stroke:#000;stroke-width:50"/><path id="path9724" d="m 10674,8700 -51,0" style="fill:none;stroke:#000;stroke-width:50"/><path id="path9726" d="m 10572,8700 -51,0" style="fill:none;stroke:#000;stroke-width:50"/><path id="path9728" d="m 10470,8700 -51,0" style="fill:none;stroke:#000;stroke-width:50"/><path id="path9730" d="m 10368,8700 -51,0" style="fill:none;stroke:#000;stroke-width:50"/><path id="path9732" d="m 10266,8700 -51,0" style="fill:none;stroke:#000;stroke-width:50"/><path id="path9734" d="m 10164,8700 -51,0" style="fill:none;stroke:#000;stroke-width:50"/><path id="path9736" d="m 10062,8700 -51,0" style="fill:none;stroke:#000;stroke-width:50"/><path id="path9738" d="m 9960,8700 -51,0" style="fill:none;stroke:#000;stroke-width:50"/><path id="path9740" d="m 9858,8700 -51,0" style="fill:none;stroke:#000;stroke-width:50"/><path id="path9742" d="m 9756,8700 -51,0" style="fill:none;stroke:#000;stroke-width:50"/><path id="path9744" d="m 9654,8700 -51,0" style="fill:none;stroke:#000;stroke-width:50"/><path id="path9746" d="m 9552,8700 -51,0" style="fill:none;stroke:#000;stroke-width:50"/><path id="path9748" d="m 9450,8700 -51,0" style="fill:none;stroke:#000;stroke-width:50"/><path id="path9750" d="m 9348,8700 -51,0" style="fill:none;stroke:#000;stroke-width:50"/><path id="path9752" d="m 9246,8700 -51,0" style="fill:none;stroke:#000;stroke-width:50"/><path id="path9754" d="m 9144,8700 -51,0" style="fill:none;stroke:#000;stroke-width:50"/><path id="path9756" d="m 9042,8700 -51,0" style="fill:none;stroke:#000;stroke-width:50"/><path id="path9758" d="m 8940,8700 -51,0" style="fill:none;stroke:#000;stroke-width:50"/><path id="path9760" d="m 8838,8700 -51,0" style="fill:none;stroke:#000;stroke-width:50"/><path id="path9762" d="m 8736,8700 -51,0" style="fill:none;stroke:#000;stroke-width:50"/><path id="path9764" d="m 8634,8700 -51,0" style="fill:none;stroke:#000;stroke-width:50"/><path id="path9766" d="m 8532,8700 -51,0" style="fill:none;stroke:#000;stroke-width:50"/><path id="path9768" d="m 8430,8700 -51,0" style="fill:none;stroke:#000;stroke-width:50"/><path id="path9770" d="m 8328,8700 -51,0" style="fill:none;stroke:#000;stroke-width:50"/><path id="path9772" d="m 8226,8700 -51,0" style="fill:none;stroke:#000;stroke-width:50"/><path id="path9774" d="m 8124,8700 -51,0" style="fill:none;stroke:#000;stroke-width:50"/><path id="path9776" d="m 8022,8700 -51,0" style="fill:none;stroke:#000;stroke-width:50"/><path id="path9778" d="m 7920,8700 -51,0" style="fill:none;stroke:#000;stroke-width:50"/><path id="path9780" d="m 7818,8700 -51,0" style="fill:none;stroke:#000;stroke-width:50"/><path id="path9782" d="m 7716,8700 -51,0" style="fill:none;stroke:#000;stroke-width:50"/><path id="path9784" d="m 7614,8700 -51,0" style="fill:none;stroke:#000;stroke-width:50"/><path id="path9786" d="m 7512,8700 -51,0" style="fill:none;stroke:#000;stroke-width:50"/><path id="path9788" d="m 7410,8700 -51,0" style="fill:none;stroke:#000;stroke-width:50"/><path id="path9790" d="m 7308,8700 -51,0" style="fill:none;stroke:#000;stroke-width:50"/><path id="path9792" d="m 7206,8700 -51,0" style="fill:none;stroke:#000;stroke-width:50"/><path id="path9794" d="m 7104,8700 -51,0" style="fill:none;stroke:#000;stroke-width:50"/><path id="path9796" d="m 7002,8700 -51,0" style="fill:none;stroke:#000;stroke-width:50"/><path id="path9798" d="m 6900,8700 -51,0" style="fill:none;stroke:#000;stroke-width:50"/><path id="path9800" d="m 6798,8700 -51,0" style="fill:none;stroke:#000;stroke-width:50"/><path id="path9802" d="m 6696,8700 -51,0" style="fill:none;stroke:#000;stroke-width:50"/><path id="path9804" d="m 6594,8700 -51,0" style="fill:none;stroke:#000;stroke-width:50"/><path id="path9806" d="m 6492,8700 -51,0" style="fill:none;stroke:#000;stroke-width:50"/><path id="path9808" d="m 6390,8700 -51,0" style="fill:none;stroke:#000;stroke-width:50"/><path id="path9810" d="m 6288,8700 -51,0" style="fill:none;stroke:#000;stroke-width:50"/><path id="path9812" d="m 6186,8700 -51,0" style="fill:none;stroke:#000;stroke-width:50"/><path id="path9814" d="m 6084,8700 -51,0" style="fill:none;stroke:#000;stroke-width:50"/><path id="path9816" d="m 5982,8700 -51,0" style="fill:none;stroke:#000;stroke-width:50"/><path id="path9818" d="m 5880,8700 -51,0" style="fill:none;stroke:#000;stroke-width:50"/><path id="path9820" d="m 5778,8700 -51,0" style="fill:none;stroke:#000;stroke-width:50"/><path id="path9822" d="m 5676,8700 -51,0" style="fill:none;stroke:#000;stroke-width:50"/><path id="path9824" d="m 5574,8700 -51,0" style="fill:none;stroke:#000;stroke-width:50"/><path id="path9826" d="m 5472,8700 -51,0" style="fill:none;stroke:#000;stroke-width:50"/><path id="path9828" d="m 5370,8700 -51,0" style="fill:none;stroke:#000;stroke-width:50"/><path id="path9830" d="m 5268,8700 -51,0" style="fill:none;stroke:#000;stroke-width:50"/><path id="path9832" d="m 5166,8700 -51,0" style="fill:none;stroke:#000;stroke-width:50"/><path id="path9834" d="m 5064,8700 -51,0" style="fill:none;stroke:#000;stroke-width:50"/><path id="path9836" d="m 4962,8700 -51,0" style="fill:none;stroke:#000;stroke-width:50"/><path id="path9838" d="m 4860,8700 -51,0" style="fill:none;stroke:#000;stroke-width:50"/><path id="path9840" d="m 4758,8700 -51,0" style="fill:none;stroke:#000;stroke-width:50"/><path id="path9842" d="m 4656,8700 -51,0" style="fill:none;stroke:#000;stroke-width:50"/><path id="path9844" d="m 4554,8700 -51,0" style="fill:none;stroke:#000;stroke-width:50"/><path id="path9846" d="m 4452,8700 -51,0" style="fill:none;stroke:#000;stroke-width:50"/><path id="path9848" d="m 4350,8700 -51,0" style="fill:none;stroke:#000;stroke-width:50"/><path id="path9850" d="m 4248,8700 -51,0" style="fill:none;stroke:#000;stroke-width:50"/><path id="path9852" d="m 4146,8700 -51,0" style="fill:none;stroke:#000;stroke-width:50"/><path id="path9854" d="m 4044,8700 -44,0" style="fill:none;stroke:#000;stroke-width:50"/></g></g><g id="g9856" class="com.sun.star.drawing.TextShape"><g id="id7"><text id="text9859" class="TextShape"><tspan id="tspan9861" class="TextParagraph" font-size="388" font-weight="400" style="font-size:388px;font-weight:400;font-family:'Arial, sans-serif'"><tspan id="tspan9863" x="4891" y="9368" class="TextPosition"><tspan id="tspan9865" style="fill:#000;stroke:none">Variables</tspan></tspan></tspan></text></g></g><g id="g9867" class="com.sun.star.drawing.TextShape"><g id="id8"><text id="text9870" class="TextShape"><tspan id="tspan9872" class="TextParagraph" font-size="388" font-weight="400" style="font-size:388px;font-weight:400;font-family:'Arial, sans-serif'"><tspan id="tspan9874" x="8791" y="9369" class="TextPosition"><tspan id="tspan9876" style="fill:#000;stroke:none">Values</tspan></tspan></tspan></text></g></g><g id="g9878" class="com.sun.star.drawing.TextShape"><g id="id9"><path id="path9881" d="m 6057,6700 -844,0 0,-683 1687,0 0,683 -843,0 z" style="fill:silver;stroke:none"/><text id="text9883" class="TextShape"><tspan id="tspan9885" class="TextParagraph" font-size="388" font-weight="400" style="font-size:388px;font-weight:400;font-family:'Arial, sans-serif'"><tspan id="tspan9887" x="5463" y="6493" class="TextPosition"><tspan id="tspan9889" style="fill:#000;stroke:none">list_val</tspan></tspan></tspan></text></g></g><g id="g9891" class="com.sun.star.drawing.TextShape"><g id="id10"><path id="path9894" d="m 9317,8401 -717,0 0,-733 1433,0 0,733 -716,0 z" style="fill:none;stroke:#000;stroke-width:50"/><text id="text9896" class="TextShape"><tspan id="tspan9898" class="TextParagraph" font-size="388" font-weight="400" style="font-size:388px;font-weight:400;font-family:'Arial, sans-serif'"><tspan id="tspan9900" x="8875" y="8169" class="TextPosition"><tspan id="tspan9902" style="fill:#000;stroke:none">&apos;alan&apos;</tspan></tspan></tspan></text></g></g><g id="g9904" class="com.sun.star.drawing.LineShape"><g id="id11"><path id="path9907" d="m 7100,6400 1870,0" style="fill:none;stroke:#000"/><path id="path9909" d="m 9400,6400 -450,-150 0,300 450,-150 z" style="fill:#000;stroke:none"/></g></g><g id="g9911" class="com.sun.star.drawing.LineShape"><g id="id12"><path id="path9914" d="m 10000,6300 -483,829" style="fill:none;stroke:#000"/><path id="path9916" d="m 9300,7500 356,-313 -259,-151 -97,464 z" style="fill:#000;stroke:none"/></g></g><g id="g9918" class="com.sun.star.drawing.TextShape"><g id="id13"><text id="text9921" class="TextShape"><tspan id="tspan9923" class="TextParagraph" font-size="388" font-weight="400" style="font-size:388px;font-weight:400;font-family:'Arial, sans-serif'"><tspan id="tspan9925" x="8976" y="5470" class="TextPosition"><tspan id="tspan9927" style="fill:#000;stroke:none">&apos;alan&apos;</tspan></tspan></tspan></text></g></g><g id="g9929" class="com.sun.star.drawing.LineShape"><g id="id14"><path id="path9932" d="m 12000,3900 -51,0" style="fill:none;stroke:#000;stroke-width:50"/><path id="path9934" d="m 11898,3900 -51,0" style="fill:none;stroke:#000;stroke-width:50"/><path id="path9936" d="m 11796,3900 -51,0" style="fill:none;stroke:#000;stroke-width:50"/><path id="path9938" d="m 11694,3900 -51,0" style="fill:none;stroke:#000;stroke-width:50"/><path id="path9940" d="m 11592,3900 -51,0" style="fill:none;stroke:#000;stroke-width:50"/><path id="path9942" d="m 11490,3900 -51,0" style="fill:none;stroke:#000;stroke-width:50"/><path id="path9944" d="m 11388,3900 -51,0" style="fill:none;stroke:#000;stroke-width:50"/><path id="path9946" d="m 11286,3900 -51,0" style="fill:none;stroke:#000;stroke-width:50"/><path id="path9948" d="m 11184,3900 -51,0" style="fill:none;stroke:#000;stroke-width:50"/><path id="path9950" d="m 11082,3900 -51,0" style="fill:none;stroke:#000;stroke-width:50"/><path id="path9952" d="m 10980,3900 -51,0" style="fill:none;stroke:#000;stroke-width:50"/><path id="path9954" d="m 10878,3900 -51,0" style="fill:none;stroke:#000;stroke-width:50"/><path id="path9956" d="m 10776,3900 -51,0" style="fill:none;stroke:#000;stroke-width:50"/><path id="path9958" d="m 10674,3900 -51,0" style="fill:none;stroke:#000;stroke-width:50"/><path id="path9960" d="m 10572,3900 -51,0" style="fill:none;stroke:#000;stroke-width:50"/><path id="path9962" d="m 10470,3900 -51,0" style="fill:none;stroke:#000;stroke-width:50"/><path id="path9964" d="m 10368,3900 -51,0" style="fill:none;stroke:#000;stroke-width:50"/><path id="path9966" d="m 10266,3900 -51,0" style="fill:none;stroke:#000;stroke-width:50"/><path id="path9968" d="m 10164,3900 -51,0" style="fill:none;stroke:#000;stroke-width:50"/><path id="path9970" d="m 10062,3900 -51,0" style="fill:none;stroke:#000;stroke-width:50"/><path id="path9972" d="m 9960,3900 -51,0" style="fill:none;stroke:#000;stroke-width:50"/><path id="path9974" d="m 9858,3900 -51,0" style="fill:none;stroke:#000;stroke-width:50"/><path id="path9976" d="m 9756,3900 -51,0" style="fill:none;stroke:#000;stroke-width:50"/><path id="path9978" d="m 9654,3900 -51,0" style="fill:none;stroke:#000;stroke-width:50"/><path id="path9980" d="m 9552,3900 -51,0" style="fill:none;stroke:#000;stroke-width:50"/><path id="path9982" d="m 9450,3900 -51,0" style="fill:none;stroke:#000;stroke-width:50"/><path id="path9984" d="m 9348,3900 -51,0" style="fill:none;stroke:#000;stroke-width:50"/><path id="path9986" d="m 9246,3900 -51,0" style="fill:none;stroke:#000;stroke-width:50"/><path id="path9988" d="m 9144,3900 -51,0" style="fill:none;stroke:#000;stroke-width:50"/><path id="path9990" d="m 9042,3900 -51,0" style="fill:none;stroke:#000;stroke-width:50"/><path id="path9992" d="m 8940,3900 -51,0" style="fill:none;stroke:#000;stroke-width:50"/><path id="path9994" d="m 8838,3900 -51,0" style="fill:none;stroke:#000;stroke-width:50"/><path id="path9996" d="m 8736,3900 -51,0" style="fill:none;stroke:#000;stroke-width:50"/><path id="path9998" d="m 8634,3900 -51,0" style="fill:none;stroke:#000;stroke-width:50"/><path id="path10000" d="m 8532,3900 -51,0" style="fill:none;stroke:#000;stroke-width:50"/><path id="path10002" d="m 8430,3900 -51,0" style="fill:none;stroke:#000;stroke-width:50"/><path id="path10004" d="m 8328,3900 -51,0" style="fill:none;stroke:#000;stroke-width:50"/><path id="path10006" d="m 8226,3900 -51,0" style="fill:none;stroke:#000;stroke-width:50"/><path id="path10008" d="m 8124,3900 -51,0" style="fill:none;stroke:#000;stroke-width:50"/><path id="path10010" d="m 8022,3900 -51,0" style="fill:none;stroke:#000;stroke-width:50"/><path id="path10012" d="m 7920,3900 -51,0" style="fill:none;stroke:#000;stroke-width:50"/><path id="path10014" d="m 7818,3900 -51,0" style="fill:none;stroke:#000;stroke-width:50"/><path id="path10016" d="m 7716,3900 -51,0" style="fill:none;stroke:#000;stroke-width:50"/><path id="path10018" d="m 7614,3900 -51,0" style="fill:none;stroke:#000;stroke-width:50"/><path id="path10020" d="m 7512,3900 -51,0" style="fill:none;stroke:#000;stroke-width:50"/><path id="path10022" d="m 7410,3900 -51,0" style="fill:none;stroke:#000;stroke-width:50"/><path id="path10024" d="m 7308,3900 -51,0" style="fill:none;stroke:#000;stroke-width:50"/><path id="path10026" d="m 7206,3900 -51,0" style="fill:none;stroke:#000;stroke-width:50"/><path id="path10028" d="m 7104,3900 -51,0" style="fill:none;stroke:#000;stroke-width:50"/><path id="path10030" d="m 7002,3900 -51,0" style="fill:none;stroke:#000;stroke-width:50"/><path id="path10032" d="m 6900,3900 -51,0" style="fill:none;stroke:#000;stroke-width:50"/><path id="path10034" d="m 6798,3900 -51,0" style="fill:none;stroke:#000;stroke-width:50"/><path id="path10036" d="m 6696,3900 -51,0" style="fill:none;stroke:#000;stroke-width:50"/><path id="path10038" d="m 6594,3900 -51,0" style="fill:none;stroke:#000;stroke-width:50"/><path id="path10040" d="m 6492,3900 -51,0" style="fill:none;stroke:#000;stroke-width:50"/><path id="path10042" d="m 6390,3900 -51,0" style="fill:none;stroke:#000;stroke-width:50"/><path id="path10044" d="m 6288,3900 -51,0" style="fill:none;stroke:#000;stroke-width:50"/><path id="path10046" d="m 6186,3900 -51,0" style="fill:none;stroke:#000;stroke-width:50"/><path id="path10048" d="m 6084,3900 -51,0" style="fill:none;stroke:#000;stroke-width:50"/><path id="path10050" d="m 5982,3900 -51,0" style="fill:none;stroke:#000;stroke-width:50"/><path id="path10052" d="m 5880,3900 -51,0" style="fill:none;stroke:#000;stroke-width:50"/><path id="path10054" d="m 5778,3900 -51,0" style="fill:none;stroke:#000;stroke-width:50"/><path id="path10056" d="m 5676,3900 -51,0" style="fill:none;stroke:#000;stroke-width:50"/><path id="path10058" d="m 5574,3900 -51,0" style="fill:none;stroke:#000;stroke-width:50"/><path id="path10060" d="m 5472,3900 -51,0" style="fill:none;stroke:#000;stroke-width:50"/><path id="path10062" d="m 5370,3900 -51,0" style="fill:none;stroke:#000;stroke-width:50"/><path id="path10064" d="m 5268,3900 -51,0" style="fill:none;stroke:#000;stroke-width:50"/><path id="path10066" d="m 5166,3900 -51,0" style="fill:none;stroke:#000;stroke-width:50"/><path id="path10068" d="m 5064,3900 -51,0" style="fill:none;stroke:#000;stroke-width:50"/><path id="path10070" d="m 4962,3900 -51,0" style="fill:none;stroke:#000;stroke-width:50"/><path id="path10072" d="m 4860,3900 -51,0" style="fill:none;stroke:#000;stroke-width:50"/><path id="path10074" d="m 4758,3900 -51,0" style="fill:none;stroke:#000;stroke-width:50"/><path id="path10076" d="m 4656,3900 -51,0" style="fill:none;stroke:#000;stroke-width:50"/><path id="path10078" d="m 4554,3900 -51,0" style="fill:none;stroke:#000;stroke-width:50"/><path id="path10080" d="m 4452,3900 -51,0" style="fill:none;stroke:#000;stroke-width:50"/><path id="path10082" d="m 4350,3900 -51,0" style="fill:none;stroke:#000;stroke-width:50"/><path id="path10084" d="m 4248,3900 -51,0" style="fill:none;stroke:#000;stroke-width:50"/><path id="path10086" d="m 4146,3900 -51,0" style="fill:none;stroke:#000;stroke-width:50"/><path id="path10088" d="m 4044,3900 -44,0" style="fill:none;stroke:#000;stroke-width:50"/></g></g><g id="g10090" class="com.sun.star.drawing.LineShape"><g id="id15"><path id="path10093" d="m 7201,2000 1169,0" style="fill:none;stroke:#000"/><path id="path10095" d="m 8800,2000 -450,-150 0,300 450,-150 z" style="fill:#000;stroke:none"/></g></g><g id="g10097" class="com.sun.star.drawing.TextShape"><g id="id16"><path id="path10100" d="m 5981,2283 -941,0 0,-683 1882,0 0,683 -941,0 z" style="fill:silver;stroke:none"/><text id="text10102" class="TextShape"><tspan id="tspan10104" class="TextParagraph" font-size="388" font-weight="400" style="font-size:388px;font-weight:400;font-family:'Arial, sans-serif'"><tspan id="tspan10106" x="5290" y="2076" class="TextPosition"><tspan id="tspan10108" style="fill:#000;stroke:none">a_string</tspan></tspan></tspan></text></g></g><g id="g10110" class="com.sun.star.drawing.TextShape"><g id="id17"><path id="path10113" d="m 6218,3400 -704,0 0,-683 1408,0 0,683 -704,0 z" style="fill:silver;stroke:none"/><text id="text10115" class="TextShape"><tspan id="tspan10117" class="TextParagraph" font-size="388" font-weight="400" style="font-size:388px;font-weight:400;font-family:'Arial, sans-serif'"><tspan id="tspan10119" x="5764" y="3193" class="TextPosition"><tspan id="tspan10121" style="fill:#000;stroke:none">a_list</tspan></tspan></tspan></text></g></g><g id="g10123" class="com.sun.star.drawing.LineShape"><g id="id18"><path id="path10126" d="M 7101,3100 8948,5652" style="fill:none;stroke:#000"/><path id="path10128" d="m 9200,6000 -142,-452 -243,175 385,277 z" style="fill:#000;stroke:none"/></g></g><g id="g10130" class="com.sun.star.drawing.TextShape"><g id="id19"><text id="text10133" class="TextShape"><tspan id="tspan10135" class="TextParagraph" font-size="388" font-style="italic" font-weight="400" style="font-size:388px;font-style:italic;font-weight:400;font-family:'Arial, sans-serif'"><tspan id="tspan10137" x="1431" y="2569" class="TextPosition"><tspan id="tspan10139" style="fill:#000;stroke:none">appender</tspan></tspan></tspan></text></g></g><g id="g10141" class="com.sun.star.drawing.CustomShape"><g id="id20"><path id="path10144" d="m 3599,1400 c -30,0 -61,91 -61,183 l 0,734 c 0,91 -30,183 -60,183 30,0 60,92 60,183 l 0,734 c 0,92 31,184 61,184" style="fill:none;stroke:#000;stroke-width:50"/><path id="path10146" d="m 3478,1400 0,0 z" style="fill:none;stroke:#000;stroke-width:50"/><path id="path10148" d="m 3600,3601 0,0 z" style="fill:none;stroke:#000;stroke-width:50"/></g></g><g id="g10150" class="com.sun.star.drawing.TextShape"><g id="id21"><text id="text10153" class="TextShape"><tspan id="tspan10155" class="TextParagraph" font-size="388" font-weight="400" style="font-size:388px;font-weight:400;font-family:'Arial, sans-serif'"><tspan id="tspan10157" x="8942" y="2168" class="TextPosition"><tspan id="tspan10159" style="fill:#000;stroke:none">&apos;alanturing&apos;</tspan></tspan></tspan></text></g></g><g id="g10161" class="com.sun.star.drawing.TextShape"><g id="id22"><path id="path10164" d="m 9977,6703 -276,0 0,-733 552,0 0,733 -276,0 z" style="fill:none;stroke:#000;stroke-width:50"/></g></g><g id="g10166" class="com.sun.star.drawing.TextShape"><g id="id23"><path id="path10169" d="m 10577,6704 -276,0 0,-733 552,0 0,733 -276,0 z" style="fill:none;stroke:#000;stroke-width:50"/></g></g><g id="g10171" class="com.sun.star.drawing.TextShape"><g id="id24"><path id="path10174" d="m 11436,8402 -835,0 0,-733 1670,0 0,733 -835,0 z" style="fill:none;stroke:#000;stroke-width:50"/><text id="text10176" class="TextShape"><tspan id="tspan10178" class="TextParagraph" font-size="388" font-weight="400" style="font-size:388px;font-weight:400;font-family:'Arial, sans-serif'"><tspan id="tspan10180" x="10876" y="8170" class="TextPosition"><tspan id="tspan10182" style="fill:#000;stroke:none">&apos;turing&apos;</tspan></tspan></tspan></text></g></g><g id="g10184" class="com.sun.star.drawing.LineShape"><g id="id25"><path id="path10187" d="m 10600,6300 561,842" style="fill:none;stroke:#000"/><path id="path10189" d="m 11400,7500 -125,-458 -249,167 374,291 z" style="fill:#000;stroke:none"/></g></g></g></g></g></g></svg>