<svg xmlns="http://www.w3.org/2000/svg" xmlns:ooo="http://xml.openoffice.org/svg/export" xmlns:svg="http://www.w3.org/2000/svg" id="svg2" width="285.236" height="205.972" clip-path="url(#presentation_clip_path)" style="fill-rule:evenodd;stroke-width:28.22200012;stroke-linejoin:round" preserveAspectRatio="xMidYMid" version="1.2" viewBox="0 0 8050 5813" xml:space="preserve"><metadata id="metadata473"/><defs id="defs4" class="ClipPathGroup"><clipPath id="presentation_clip_path" clipPathUnits="userSpaceOnUse"><rect id="rect7" width="21590" height="27940" x="0" y="0"/></clipPath></defs><defs id="defs13" class="EmbeddedBulletChars"><g id="bullet-char-template(57356)" transform="scale(4.8828125e-4,-4.8828125e-4)"><path id="path16" d="M 580,1141 1163,571 580,0 -4,571 580,1141 z"/></g><g id="bullet-char-template(57354)" transform="scale(4.8828125e-4,-4.8828125e-4)"><path id="path19" d="m 8,1128 1129,0 L 1137,0 8,0 8,1128 z"/></g><g id="bullet-char-template(10146)" transform="scale(4.8828125e-4,-4.8828125e-4)"><path id="path22" d="M 174,0 602,739 174,1481 1456,739 174,0 z m 1184,739 -1049,607 350,-607 699,0 z"/></g><g id="bullet-char-template(10132)" transform="scale(4.8828125e-4,-4.8828125e-4)"><path id="path25" d="M 2015,739 1276,0 717,0 l 543,543 -1086,0 0,393 1086,0 -543,545 557,0 741,-742 z"/></g><g id="bullet-char-template(10007)" transform="scale(4.8828125e-4,-4.8828125e-4)"><path id="path28" d="m 0,-2 c -7,16 -16,29 -25,39 l 381,530 c -94,256 -141,385 -141,387 0,25 13,38 40,38 9,0 21,-2 34,-5 21,4 42,12 65,25 l 27,-13 111,-251 280,301 64,-25 24,25 c 21,-10 41,-24 62,-43 C 886,937 835,863 770,784 769,783 710,716 594,584 L 774,223 c 0,-27 -21,-55 -63,-84 l 16,-20 C 717,90 699,76 672,76 641,76 570,178 457,381 L 164,-76 c -22,-34 -53,-51 -92,-51 -42,0 -63,17 -64,51 -7,9 -10,24 -10,44 0,9 1,19 2,30 z"/></g><g id="bullet-char-template(10004)" transform="scale(4.8828125e-4,-4.8828125e-4)"><path id="path31" d="M 285,-33 C 182,-33 111,30 74,156 52,228 41,333 41,471 c 0,78 14,145 41,201 34,71 87,106 158,106 53,0 88,-31 106,-94 l 23,-176 c 8,-64 28,-97 59,-98 l 735,706 c 11,11 33,17 66,17 42,0 63,-15 63,-46 l 0,-122 c 0,-36 -10,-64 -30,-84 L 442,47 C 390,-6 338,-33 285,-33 z"/></g><g id="bullet-char-template(9679)" transform="scale(4.8828125e-4,-4.8828125e-4)"><path id="path34" d="M 813,0 C 632,0 489,54 383,161 276,268 223,411 223,592 c 0,181 53,324 160,431 106,107 249,161 430,161 179,0 323,-54 432,-161 108,-107 162,-251 162,-431 0,-180 -54,-324 -162,-431 C 1136,54 992,0 813,0 z"/></g><g id="bullet-char-template(8226)" transform="scale(4.8828125e-4,-4.8828125e-4)"><path id="path37" d="m 346,457 c -73,0 -137,26 -191,78 -54,51 -81,114 -81,188 0,73 27,136 81,188 54,52 118,78 191,78 73,0 134,-26 185,-79 51,-51 77,-114 77,-187 0,-75 -25,-137 -76,-188 -50,-52 -112,-78 -186,-78 z"/></g><g id="bullet-char-template(8211)" transform="scale(4.8828125e-4,-4.8828125e-4)"><path id="path40" d="m -4,459 1139,0 0,147 -1139,0 0,-147 z"/></g></defs><g id="g49" class="SlideGroup" transform="translate(-1075,-1312)"><g id="g51"><g id="id1" class="Slide" clip-path="url(#presentation_clip_path)"><g id="g54" class="Page"><g id="g56" class="com.sun.star.drawing.LineShape"><g id="id3"><path id="path59" d="M 3400,5300 5506,4373" style="fill:none;stroke:#000"/><path id="path61" d="m 5900,4200 -472,44 121,275 351,-319 z" style="fill:#000;stroke:none"/></g></g><g id="g63" class="com.sun.star.drawing.TextShape"><g id="id4"><path id="path66" d="m 2510,5700 -565,0 0,-683 1129,0 0,683 -564,0 z" style="fill:silver;stroke:none"/><text id="text68" class="TextShape"><tspan id="tspan70" class="TextParagraph" font-size="388" font-weight="400" style="font-size:388px;font-weight:400;font-family:'Arial, sans-serif'"><tspan id="tspan72" x="2195" y="5493" class="TextPosition"><tspan id="tspan74" style="fill:#000;stroke:none">first</tspan></tspan></tspan></text></g></g><g id="g76" class="com.sun.star.drawing.TextShape"><g id="id5"><path id="path79" d="m 6376,4704 -276,0 0,-1237 552,0 0,1237 -276,0 z" style="fill:none;stroke:#000;stroke-width:50"/></g></g><g id="g81" class="com.sun.star.drawing.LineShape"><g id="id6"><path id="path84" d="m 4600,7100 0,-51" style="fill:none;stroke:#000;stroke-width:50"/><path id="path86" d="m 4600,6998 0,-51" style="fill:none;stroke:#000;stroke-width:50"/><path id="path88" d="m 4600,6896 0,-51" style="fill:none;stroke:#000;stroke-width:50"/><path id="path90" d="m 4600,6794 0,-51" style="fill:none;stroke:#000;stroke-width:50"/><path id="path92" d="m 4600,6692 0,-51" style="fill:none;stroke:#000;stroke-width:50"/><path id="path94" d="m 4600,6590 0,-51" style="fill:none;stroke:#000;stroke-width:50"/><path id="path96" d="m 4600,6488 0,-51" style="fill:none;stroke:#000;stroke-width:50"/><path id="path98" d="m 4600,6386 0,-51" style="fill:none;stroke:#000;stroke-width:50"/><path id="path100" d="m 4600,6284 0,-51" style="fill:none;stroke:#000;stroke-width:50"/><path id="path102" d="m 4600,6182 0,-51" style="fill:none;stroke:#000;stroke-width:50"/><path id="path104" d="m 4600,6080 0,-51" style="fill:none;stroke:#000;stroke-width:50"/><path id="path106" d="m 4600,5978 0,-51" style="fill:none;stroke:#000;stroke-width:50"/><path id="path108" d="m 4600,5876 0,-51" style="fill:none;stroke:#000;stroke-width:50"/><path id="path110" d="m 4600,5774 0,-51" style="fill:none;stroke:#000;stroke-width:50"/><path id="path112" d="m 4600,5672 0,-51" style="fill:none;stroke:#000;stroke-width:50"/><path id="path114" d="m 4600,5570 0,-51" style="fill:none;stroke:#000;stroke-width:50"/><path id="path116" d="m 4600,5468 0,-51" style="fill:none;stroke:#000;stroke-width:50"/><path id="path118" d="m 4600,5366 0,-51" style="fill:none;stroke:#000;stroke-width:50"/><path id="path120" d="m 4600,5264 0,-51" style="fill:none;stroke:#000;stroke-width:50"/><path id="path122" d="m 4600,5162 0,-51" style="fill:none;stroke:#000;stroke-width:50"/><path id="path124" d="m 4600,5060 0,-51" style="fill:none;stroke:#000;stroke-width:50"/><path id="path126" d="m 4600,4958 0,-51" style="fill:none;stroke:#000;stroke-width:50"/><path id="path128" d="m 4600,4856 0,-51" style="fill:none;stroke:#000;stroke-width:50"/><path id="path130" d="m 4600,4754 0,-51" style="fill:none;stroke:#000;stroke-width:50"/><path id="path132" d="m 4600,4652 0,-51" style="fill:none;stroke:#000;stroke-width:50"/><path id="path134" d="m 4600,4550 0,-51" style="fill:none;stroke:#000;stroke-width:50"/><path id="path136" d="m 4600,4448 0,-51" style="fill:none;stroke:#000;stroke-width:50"/><path id="path138" d="m 4600,4346 0,-51" style="fill:none;stroke:#000;stroke-width:50"/><path id="path140" d="m 4600,4244 0,-51" style="fill:none;stroke:#000;stroke-width:50"/><path id="path142" d="m 4600,4142 0,-51" style="fill:none;stroke:#000;stroke-width:50"/><path id="path144" d="m 4600,4040 0,-51" style="fill:none;stroke:#000;stroke-width:50"/><path id="path146" d="m 4600,3938 0,-51" style="fill:none;stroke:#000;stroke-width:50"/><path id="path148" d="m 4600,3836 0,-51" style="fill:none;stroke:#000;stroke-width:50"/><path id="path150" d="m 4600,3734 0,-51" style="fill:none;stroke:#000;stroke-width:50"/><path id="path152" d="m 4600,3632 0,-51" style="fill:none;stroke:#000;stroke-width:50"/><path id="path154" d="m 4600,3530 0,-51" style="fill:none;stroke:#000;stroke-width:50"/><path id="path156" d="m 4600,3428 0,-51" style="fill:none;stroke:#000;stroke-width:50"/><path id="path158" d="m 4600,3326 0,-51" style="fill:none;stroke:#000;stroke-width:50"/><path id="path160" d="m 4600,3224 0,-51" style="fill:none;stroke:#000;stroke-width:50"/><path id="path162" d="m 4600,3122 0,-51" style="fill:none;stroke:#000;stroke-width:50"/><path id="path164" d="m 4600,3020 0,-51" style="fill:none;stroke:#000;stroke-width:50"/><path id="path166" d="m 4600,2918 0,-51" style="fill:none;stroke:#000;stroke-width:50"/><path id="path168" d="m 4600,2816 0,-51" style="fill:none;stroke:#000;stroke-width:50"/><path id="path170" d="m 4600,2714 0,-51" style="fill:none;stroke:#000;stroke-width:50"/><path id="path172" d="m 4600,2612 0,-51" style="fill:none;stroke:#000;stroke-width:50"/><path id="path174" d="m 4600,2510 0,-51" style="fill:none;stroke:#000;stroke-width:50"/><path id="path176" d="m 4600,2408 0,-51" style="fill:none;stroke:#000;stroke-width:50"/><path id="path178" d="m 4600,2306 0,-51" style="fill:none;stroke:#000;stroke-width:50"/><path id="path180" d="m 4600,2204 0,-51" style="fill:none;stroke:#000;stroke-width:50"/><path id="path182" d="m 4600,2102 0,-51" style="fill:none;stroke:#000;stroke-width:50"/><path id="path184" d="m 4600,2000 0,-51" style="fill:none;stroke:#000;stroke-width:50"/><path id="path186" d="m 4600,1898 0,-51" style="fill:none;stroke:#000;stroke-width:50"/><path id="path188" d="m 4600,1796 0,-51" style="fill:none;stroke:#000;stroke-width:50"/><path id="path190" d="m 4600,1694 0,-51" style="fill:none;stroke:#000;stroke-width:50"/><path id="path192" d="m 4600,1592 0,-51" style="fill:none;stroke:#000;stroke-width:50"/><path id="path194" d="m 4600,1490 0,-51" style="fill:none;stroke:#000;stroke-width:50"/><path id="path196" d="m 4600,1388 0,-51" style="fill:none;stroke:#000;stroke-width:50"/></g></g><g id="g198" class="com.sun.star.drawing.LineShape"><g id="id7"><path id="path201" d="m 9100,6100 -51,0" style="fill:none;stroke:#000;stroke-width:50"/><path id="path203" d="m 8998,6100 -51,0" style="fill:none;stroke:#000;stroke-width:50"/><path id="path205" d="m 8896,6100 -51,0" style="fill:none;stroke:#000;stroke-width:50"/><path id="path207" d="m 8794,6100 -51,0" style="fill:none;stroke:#000;stroke-width:50"/><path id="path209" d="m 8692,6100 -51,0" style="fill:none;stroke:#000;stroke-width:50"/><path id="path211" d="m 8590,6100 -51,0" style="fill:none;stroke:#000;stroke-width:50"/><path id="path213" d="m 8488,6100 -51,0" style="fill:none;stroke:#000;stroke-width:50"/><path id="path215" d="m 8386,6100 -51,0" style="fill:none;stroke:#000;stroke-width:50"/><path id="path217" d="m 8284,6100 -51,0" style="fill:none;stroke:#000;stroke-width:50"/><path id="path219" d="m 8182,6100 -51,0" style="fill:none;stroke:#000;stroke-width:50"/><path id="path221" d="m 8080,6100 -51,0" style="fill:none;stroke:#000;stroke-width:50"/><path id="path223" d="m 7978,6100 -51,0" style="fill:none;stroke:#000;stroke-width:50"/><path id="path225" d="m 7876,6100 -51,0" style="fill:none;stroke:#000;stroke-width:50"/><path id="path227" d="m 7774,6100 -51,0" style="fill:none;stroke:#000;stroke-width:50"/><path id="path229" d="m 7672,6100 -51,0" style="fill:none;stroke:#000;stroke-width:50"/><path id="path231" d="m 7570,6100 -51,0" style="fill:none;stroke:#000;stroke-width:50"/><path id="path233" d="m 7468,6100 -51,0" style="fill:none;stroke:#000;stroke-width:50"/><path id="path235" d="m 7366,6100 -51,0" style="fill:none;stroke:#000;stroke-width:50"/><path id="path237" d="m 7264,6100 -51,0" style="fill:none;stroke:#000;stroke-width:50"/><path id="path239" d="m 7162,6100 -51,0" style="fill:none;stroke:#000;stroke-width:50"/><path id="path241" d="m 7060,6100 -51,0" style="fill:none;stroke:#000;stroke-width:50"/><path id="path243" d="m 6958,6100 -51,0" style="fill:none;stroke:#000;stroke-width:50"/><path id="path245" d="m 6856,6100 -51,0" style="fill:none;stroke:#000;stroke-width:50"/><path id="path247" d="m 6754,6100 -51,0" style="fill:none;stroke:#000;stroke-width:50"/><path id="path249" d="m 6652,6100 -51,0" style="fill:none;stroke:#000;stroke-width:50"/><path id="path251" d="m 6550,6100 -51,0" style="fill:none;stroke:#000;stroke-width:50"/><path id="path253" d="m 6448,6100 -51,0" style="fill:none;stroke:#000;stroke-width:50"/><path id="path255" d="m 6346,6100 -51,0" style="fill:none;stroke:#000;stroke-width:50"/><path id="path257" d="m 6244,6100 -51,0" style="fill:none;stroke:#000;stroke-width:50"/><path id="path259" d="m 6142,6100 -51,0" style="fill:none;stroke:#000;stroke-width:50"/><path id="path261" d="m 6040,6100 -51,0" style="fill:none;stroke:#000;stroke-width:50"/><path id="path263" d="m 5938,6100 -51,0" style="fill:none;stroke:#000;stroke-width:50"/><path id="path265" d="m 5836,6100 -51,0" style="fill:none;stroke:#000;stroke-width:50"/><path id="path267" d="m 5734,6100 -51,0" style="fill:none;stroke:#000;stroke-width:50"/><path id="path269" d="m 5632,6100 -51,0" style="fill:none;stroke:#000;stroke-width:50"/><path id="path271" d="m 5530,6100 -51,0" style="fill:none;stroke:#000;stroke-width:50"/><path id="path273" d="m 5428,6100 -51,0" style="fill:none;stroke:#000;stroke-width:50"/><path id="path275" d="m 5326,6100 -51,0" style="fill:none;stroke:#000;stroke-width:50"/><path id="path277" d="m 5224,6100 -51,0" style="fill:none;stroke:#000;stroke-width:50"/><path id="path279" d="m 5122,6100 -51,0" style="fill:none;stroke:#000;stroke-width:50"/><path id="path281" d="m 5020,6100 -51,0" style="fill:none;stroke:#000;stroke-width:50"/><path id="path283" d="m 4918,6100 -51,0" style="fill:none;stroke:#000;stroke-width:50"/><path id="path285" d="m 4816,6100 -51,0" style="fill:none;stroke:#000;stroke-width:50"/><path id="path287" d="m 4714,6100 -51,0" style="fill:none;stroke:#000;stroke-width:50"/><path id="path289" d="m 4612,6100 -51,0" style="fill:none;stroke:#000;stroke-width:50"/><path id="path291" d="m 4510,6100 -51,0" style="fill:none;stroke:#000;stroke-width:50"/><path id="path293" d="m 4408,6100 -51,0" style="fill:none;stroke:#000;stroke-width:50"/><path id="path295" d="m 4306,6100 -51,0" style="fill:none;stroke:#000;stroke-width:50"/><path id="path297" d="m 4204,6100 -51,0" style="fill:none;stroke:#000;stroke-width:50"/><path id="path299" d="m 4102,6100 -51,0" style="fill:none;stroke:#000;stroke-width:50"/><path id="path301" d="m 4000,6100 -51,0" style="fill:none;stroke:#000;stroke-width:50"/><path id="path303" d="m 3898,6100 -51,0" style="fill:none;stroke:#000;stroke-width:50"/><path id="path305" d="m 3796,6100 -51,0" style="fill:none;stroke:#000;stroke-width:50"/><path id="path307" d="m 3694,6100 -51,0" style="fill:none;stroke:#000;stroke-width:50"/><path id="path309" d="m 3592,6100 -51,0" style="fill:none;stroke:#000;stroke-width:50"/><path id="path311" d="m 3490,6100 -51,0" style="fill:none;stroke:#000;stroke-width:50"/><path id="path313" d="m 3388,6100 -51,0" style="fill:none;stroke:#000;stroke-width:50"/><path id="path315" d="m 3286,6100 -51,0" style="fill:none;stroke:#000;stroke-width:50"/><path id="path317" d="m 3184,6100 -51,0" style="fill:none;stroke:#000;stroke-width:50"/><path id="path319" d="m 3082,6100 -51,0" style="fill:none;stroke:#000;stroke-width:50"/><path id="path321" d="m 2980,6100 -51,0" style="fill:none;stroke:#000;stroke-width:50"/><path id="path323" d="m 2878,6100 -51,0" style="fill:none;stroke:#000;stroke-width:50"/><path id="path325" d="m 2776,6100 -51,0" style="fill:none;stroke:#000;stroke-width:50"/><path id="path327" d="m 2674,6100 -51,0" style="fill:none;stroke:#000;stroke-width:50"/><path id="path329" d="m 2572,6100 -51,0" style="fill:none;stroke:#000;stroke-width:50"/><path id="path331" d="m 2470,6100 -51,0" style="fill:none;stroke:#000;stroke-width:50"/><path id="path333" d="m 2368,6100 -51,0" style="fill:none;stroke:#000;stroke-width:50"/><path id="path335" d="m 2266,6100 -51,0" style="fill:none;stroke:#000;stroke-width:50"/><path id="path337" d="m 2164,6100 -51,0" style="fill:none;stroke:#000;stroke-width:50"/><path id="path339" d="m 2062,6100 -51,0" style="fill:none;stroke:#000;stroke-width:50"/><path id="path341" d="m 1960,6100 -51,0" style="fill:none;stroke:#000;stroke-width:50"/><path id="path343" d="m 1858,6100 -51,0" style="fill:none;stroke:#000;stroke-width:50"/><path id="path345" d="m 1756,6100 -51,0" style="fill:none;stroke:#000;stroke-width:50"/><path id="path347" d="m 1654,6100 -51,0" style="fill:none;stroke:#000;stroke-width:50"/><path id="path349" d="m 1552,6100 -51,0" style="fill:none;stroke:#000;stroke-width:50"/><path id="path351" d="m 1450,6100 -51,0" style="fill:none;stroke:#000;stroke-width:50"/><path id="path353" d="m 1348,6100 -51,0" style="fill:none;stroke:#000;stroke-width:50"/><path id="path355" d="m 1246,6100 -51,0" style="fill:none;stroke:#000;stroke-width:50"/><path id="path357" d="m 1144,6100 -44,0" style="fill:none;stroke:#000;stroke-width:50"/></g></g><g id="g359" class="com.sun.star.drawing.TextShape"><g id="id8"><text id="text362" class="TextShape"><tspan id="tspan364" class="TextParagraph" font-size="388" font-weight="400" style="font-size:388px;font-weight:400;font-family:'Arial, sans-serif'"><tspan id="tspan366" x="1991" y="6768" class="TextPosition"><tspan id="tspan368" style="fill:#000;stroke:none">Variables</tspan></tspan></tspan></text></g></g><g id="g370" class="com.sun.star.drawing.TextShape"><g id="id9"><text id="text373" class="TextShape"><tspan id="tspan375" class="TextParagraph" font-size="388" font-weight="400" style="font-size:388px;font-weight:400;font-family:'Arial, sans-serif'"><tspan id="tspan377" x="5891" y="6769" class="TextPosition"><tspan id="tspan379" style="fill:#000;stroke:none">Values</tspan></tspan></tspan></text></g></g><g id="g381" class="com.sun.star.drawing.TextShape"><g id="id10"><path id="path384" d="m 2824,4801 -878,0 0,-683 1755,0 0,683 -877,0 z" style="fill:silver;stroke:none"/><text id="text386" class="TextShape"><tspan id="tspan388" class="TextParagraph" font-size="388" font-weight="400" style="font-size:388px;font-weight:400;font-family:'Arial, sans-serif'"><tspan id="tspan390" x="2196" y="4594" class="TextPosition"><tspan id="tspan392" style="fill:#000;stroke:none">second</tspan></tspan></tspan></text></g></g><g id="g394" class="com.sun.star.drawing.TextShape"><g id="id11"><path id="path397" d="m 5792,5801 -492,0 0,-733 984,0 0,733 -492,0 z" style="fill:none;stroke:#000;stroke-width:50"/><text id="text399" class="TextShape"><tspan id="tspan401" class="TextParagraph" font-size="388" font-weight="400" style="font-size:388px;font-weight:400;font-family:'Arial, sans-serif'"><tspan id="tspan403" x="5575" y="5569" class="TextPosition"><tspan id="tspan405" style="fill:#000;stroke:none">10</tspan></tspan></tspan></text></g></g><g id="g407" class="com.sun.star.drawing.TextShape"><g id="id12"><path id="path410" d="m 6992,5802 -492,0 0,-733 984,0 0,733 -492,0 z" style="fill:none;stroke:#000;stroke-width:50"/><text id="text412" class="TextShape"><tspan id="tspan414" class="TextParagraph" font-size="388" font-weight="400" style="font-size:388px;font-weight:400;font-family:'Arial, sans-serif'"><tspan id="tspan416" x="6775" y="5570" class="TextPosition"><tspan id="tspan418" style="fill:#000;stroke:none">20</tspan></tspan></tspan></text></g></g><g id="g420" class="com.sun.star.drawing.TextShape"><g id="id13"><path id="path423" d="m 8192,5803 -492,0 0,-733 984,0 0,733 -492,0 z" style="fill:none;stroke:#000;stroke-width:50"/><text id="text425" class="TextShape"><tspan id="tspan427" class="TextParagraph" font-size="388" font-weight="400" style="font-size:388px;font-weight:400;font-family:'Arial, sans-serif'"><tspan id="tspan429" x="7975" y="5571" class="TextPosition"><tspan id="tspan431" style="fill:#000;stroke:none">30</tspan></tspan></tspan></text></g></g><g id="g433" class="com.sun.star.drawing.TextShape"><g id="id14"><path id="path436" d="m 6976,4705 -276,0 0,-1237 552,0 0,1237 -276,0 z" style="fill:none;stroke:#000;stroke-width:50"/></g></g><g id="g438" class="com.sun.star.drawing.TextShape"><g id="id15"><path id="path441" d="m 7576,4706 -276,0 0,-1237 552,0 0,1237 -276,0 z" style="fill:none;stroke:#000;stroke-width:50"/></g></g><g id="g443" class="com.sun.star.drawing.LineShape"><g id="id16"><path id="path446" d="M 4000,4500 5497,3949" style="fill:none;stroke:#000"/><path id="path448" d="m 5900,3800 -474,15 104,281 370,-296 z" style="fill:#000;stroke:none"/></g></g><g id="g450" class="com.sun.star.drawing.LineShape"><g id="id17"><path id="path453" d="m 6400,3800 -394,723" style="fill:none;stroke:#000"/><path id="path455" d="m 5800,4900 347,-323 -263,-144 -84,467 z" style="fill:#000;stroke:none"/></g></g><g id="g457" class="com.sun.star.drawing.LineShape"><g id="id18"><path id="path460" d="m 7000,3800 0,670" style="fill:none;stroke:#000"/><path id="path462" d="m 7000,4900 150,-450 -300,0 150,450 z" style="fill:#000;stroke:none"/></g></g><g id="g464" class="com.sun.star.drawing.LineShape"><g id="id19"><path id="path467" d="m 7600,3800 394,723" style="fill:none;stroke:#000"/><path id="path469" d="m 8200,4900 -84,-467 -263,144 347,323 z" style="fill:#000;stroke:none"/></g></g></g></g></g></g></svg>