<svg xmlns="http://www.w3.org/2000/svg" xmlns:ooo="http://xml.openoffice.org/svg/export" xmlns:svg="http://www.w3.org/2000/svg" id="svg4396" width="285.236" height="205.972" clip-path="url(#presentation_clip_path)" style="fill-rule:evenodd;stroke-width:28.22200012;stroke-linejoin:round" preserveAspectRatio="xMidYMid" version="1.2" viewBox="0 0 8050 5813" xml:space="preserve"><metadata id="metadata4869"/><defs id="defs4398" class="ClipPathGroup"><clipPath id="presentation_clip_path" clipPathUnits="userSpaceOnUse"><rect id="rect4401" width="21590" height="27940" x="0" y="0"/></clipPath></defs><defs id="defs4407" class="EmbeddedBulletChars"><g id="bullet-char-template(57356)" transform="scale(4.8828125e-4,-4.8828125e-4)"><path id="path4410" d="M 580,1141 1163,571 580,0 -4,571 580,1141 z"/></g><g id="bullet-char-template(57354)" transform="scale(4.8828125e-4,-4.8828125e-4)"><path id="path4413" d="m 8,1128 1129,0 L 1137,0 8,0 8,1128 z"/></g><g id="bullet-char-template(10146)" transform="scale(4.8828125e-4,-4.8828125e-4)"><path id="path4416" d="M 174,0 602,739 174,1481 1456,739 174,0 z m 1184,739 -1049,607 350,-607 699,0 z"/></g><g id="bullet-char-template(10132)" transform="scale(4.8828125e-4,-4.8828125e-4)"><path id="path4419" d="M 2015,739 1276,0 717,0 l 543,543 -1086,0 0,393 1086,0 -543,545 557,0 741,-742 z"/></g><g id="bullet-char-template(10007)" transform="scale(4.8828125e-4,-4.8828125e-4)"><path id="path4422" d="m 0,-2 c -7,16 -16,29 -25,39 l 381,530 c -94,256 -141,385 -141,387 0,25 13,38 40,38 9,0 21,-2 34,-5 21,4 42,12 65,25 l 27,-13 111,-251 280,301 64,-25 24,25 c 21,-10 41,-24 62,-43 C 886,937 835,863 770,784 769,783 710,716 594,584 L 774,223 c 0,-27 -21,-55 -63,-84 l 16,-20 C 717,90 699,76 672,76 641,76 570,178 457,381 L 164,-76 c -22,-34 -53,-51 -92,-51 -42,0 -63,17 -64,51 -7,9 -10,24 -10,44 0,9 1,19 2,30 z"/></g><g id="bullet-char-template(10004)" transform="scale(4.8828125e-4,-4.8828125e-4)"><path id="path4425" d="M 285,-33 C 182,-33 111,30 74,156 52,228 41,333 41,471 c 0,78 14,145 41,201 34,71 87,106 158,106 53,0 88,-31 106,-94 l 23,-176 c 8,-64 28,-97 59,-98 l 735,706 c 11,11 33,17 66,17 42,0 63,-15 63,-46 l 0,-122 c 0,-36 -10,-64 -30,-84 L 442,47 C 390,-6 338,-33 285,-33 z"/></g><g id="bullet-char-template(9679)" transform="scale(4.8828125e-4,-4.8828125e-4)"><path id="path4428" d="M 813,0 C 632,0 489,54 383,161 276,268 223,411 223,592 c 0,181 53,324 160,431 106,107 249,161 430,161 179,0 323,-54 432,-161 108,-107 162,-251 162,-431 0,-180 -54,-324 -162,-431 C 1136,54 992,0 813,0 z"/></g><g id="bullet-char-template(8226)" transform="scale(4.8828125e-4,-4.8828125e-4)"><path id="path4431" d="m 346,457 c -73,0 -137,26 -191,78 -54,51 -81,114 -81,188 0,73 27,136 81,188 54,52 118,78 191,78 73,0 134,-26 185,-79 51,-51 77,-114 77,-187 0,-75 -25,-137 -76,-188 -50,-52 -112,-78 -186,-78 z"/></g><g id="bullet-char-template(8211)" transform="scale(4.8828125e-4,-4.8828125e-4)"><path id="path4434" d="m -4,459 1139,0 0,147 -1139,0 0,-147 z"/></g></defs><g id="g4443" class="SlideGroup" transform="translate(-1075,-1312)"><g id="g4445"><g id="id1" class="Slide" clip-path="url(#presentation_clip_path)"><g id="g4448" class="Page"><g id="g4450" class="com.sun.star.drawing.LineShape"><g id="id3"><path id="path4453" d="M 3400,5300 5506,4373" style="fill:none;stroke:#000"/><path id="path4455" d="m 5900,4200 -472,44 121,275 351,-319 z" style="fill:#000;stroke:none"/></g></g><g id="g4457" class="com.sun.star.drawing.TextShape"><g id="id4"><path id="path4460" d="m 2510,5700 -565,0 0,-683 1129,0 0,683 -564,0 z" style="fill:silver;stroke:none"/><text id="text4462" class="TextShape"><tspan id="tspan4464" class="TextParagraph" font-size="388" font-weight="400" style="font-size:388px;font-weight:400;font-family:'Arial, sans-serif'"><tspan id="tspan4466" x="2195" y="5493" class="TextPosition"><tspan id="tspan4468" style="fill:#000;stroke:none">first</tspan></tspan></tspan></text></g></g><g id="g4470" class="com.sun.star.drawing.TextShape"><g id="id5"><path id="path4473" d="m 6376,4200 -276,0 0,-733 552,0 0,733 -276,0 z" style="fill:none;stroke:#000;stroke-width:50"/></g></g><g id="g4475" class="com.sun.star.drawing.LineShape"><g id="id6"><path id="path4478" d="m 4600,7100 0,-51" style="fill:none;stroke:#000;stroke-width:50"/><path id="path4480" d="m 4600,6998 0,-51" style="fill:none;stroke:#000;stroke-width:50"/><path id="path4482" d="m 4600,6896 0,-51" style="fill:none;stroke:#000;stroke-width:50"/><path id="path4484" d="m 4600,6794 0,-51" style="fill:none;stroke:#000;stroke-width:50"/><path id="path4486" d="m 4600,6692 0,-51" style="fill:none;stroke:#000;stroke-width:50"/><path id="path4488" d="m 4600,6590 0,-51" style="fill:none;stroke:#000;stroke-width:50"/><path id="path4490" d="m 4600,6488 0,-51" style="fill:none;stroke:#000;stroke-width:50"/><path id="path4492" d="m 4600,6386 0,-51" style="fill:none;stroke:#000;stroke-width:50"/><path id="path4494" d="m 4600,6284 0,-51" style="fill:none;stroke:#000;stroke-width:50"/><path id="path4496" d="m 4600,6182 0,-51" style="fill:none;stroke:#000;stroke-width:50"/><path id="path4498" d="m 4600,6080 0,-51" style="fill:none;stroke:#000;stroke-width:50"/><path id="path4500" d="m 4600,5978 0,-51" style="fill:none;stroke:#000;stroke-width:50"/><path id="path4502" d="m 4600,5876 0,-51" style="fill:none;stroke:#000;stroke-width:50"/><path id="path4504" d="m 4600,5774 0,-51" style="fill:none;stroke:#000;stroke-width:50"/><path id="path4506" d="m 4600,5672 0,-51" style="fill:none;stroke:#000;stroke-width:50"/><path id="path4508" d="m 4600,5570 0,-51" style="fill:none;stroke:#000;stroke-width:50"/><path id="path4510" d="m 4600,5468 0,-51" style="fill:none;stroke:#000;stroke-width:50"/><path id="path4512" d="m 4600,5366 0,-51" style="fill:none;stroke:#000;stroke-width:50"/><path id="path4514" d="m 4600,5264 0,-51" style="fill:none;stroke:#000;stroke-width:50"/><path id="path4516" d="m 4600,5162 0,-51" style="fill:none;stroke:#000;stroke-width:50"/><path id="path4518" d="m 4600,5060 0,-51" style="fill:none;stroke:#000;stroke-width:50"/><path id="path4520" d="m 4600,4958 0,-51" style="fill:none;stroke:#000;stroke-width:50"/><path id="path4522" d="m 4600,4856 0,-51" style="fill:none;stroke:#000;stroke-width:50"/><path id="path4524" d="m 4600,4754 0,-51" style="fill:none;stroke:#000;stroke-width:50"/><path id="path4526" d="m 4600,4652 0,-51" style="fill:none;stroke:#000;stroke-width:50"/><path id="path4528" d="m 4600,4550 0,-51" style="fill:none;stroke:#000;stroke-width:50"/><path id="path4530" d="m 4600,4448 0,-51" style="fill:none;stroke:#000;stroke-width:50"/><path id="path4532" d="m 4600,4346 0,-51" style="fill:none;stroke:#000;stroke-width:50"/><path id="path4534" d="m 4600,4244 0,-51" style="fill:none;stroke:#000;stroke-width:50"/><path id="path4536" d="m 4600,4142 0,-51" style="fill:none;stroke:#000;stroke-width:50"/><path id="path4538" d="m 4600,4040 0,-51" style="fill:none;stroke:#000;stroke-width:50"/><path id="path4540" d="m 4600,3938 0,-51" style="fill:none;stroke:#000;stroke-width:50"/><path id="path4542" d="m 4600,3836 0,-51" style="fill:none;stroke:#000;stroke-width:50"/><path id="path4544" d="m 4600,3734 0,-51" style="fill:none;stroke:#000;stroke-width:50"/><path id="path4546" d="m 4600,3632 0,-51" style="fill:none;stroke:#000;stroke-width:50"/><path id="path4548" d="m 4600,3530 0,-51" style="fill:none;stroke:#000;stroke-width:50"/><path id="path4550" d="m 4600,3428 0,-51" style="fill:none;stroke:#000;stroke-width:50"/><path id="path4552" d="m 4600,3326 0,-51" style="fill:none;stroke:#000;stroke-width:50"/><path id="path4554" d="m 4600,3224 0,-51" style="fill:none;stroke:#000;stroke-width:50"/><path id="path4556" d="m 4600,3122 0,-51" style="fill:none;stroke:#000;stroke-width:50"/><path id="path4558" d="m 4600,3020 0,-51" style="fill:none;stroke:#000;stroke-width:50"/><path id="path4560" d="m 4600,2918 0,-51" style="fill:none;stroke:#000;stroke-width:50"/><path id="path4562" d="m 4600,2816 0,-51" style="fill:none;stroke:#000;stroke-width:50"/><path id="path4564" d="m 4600,2714 0,-51" style="fill:none;stroke:#000;stroke-width:50"/><path id="path4566" d="m 4600,2612 0,-51" style="fill:none;stroke:#000;stroke-width:50"/><path id="path4568" d="m 4600,2510 0,-51" style="fill:none;stroke:#000;stroke-width:50"/><path id="path4570" d="m 4600,2408 0,-51" style="fill:none;stroke:#000;stroke-width:50"/><path id="path4572" d="m 4600,2306 0,-51" style="fill:none;stroke:#000;stroke-width:50"/><path id="path4574" d="m 4600,2204 0,-51" style="fill:none;stroke:#000;stroke-width:50"/><path id="path4576" d="m 4600,2102 0,-51" style="fill:none;stroke:#000;stroke-width:50"/><path id="path4578" d="m 4600,2000 0,-51" style="fill:none;stroke:#000;stroke-width:50"/><path id="path4580" d="m 4600,1898 0,-51" style="fill:none;stroke:#000;stroke-width:50"/><path id="path4582" d="m 4600,1796 0,-51" style="fill:none;stroke:#000;stroke-width:50"/><path id="path4584" d="m 4600,1694 0,-51" style="fill:none;stroke:#000;stroke-width:50"/><path id="path4586" d="m 4600,1592 0,-51" style="fill:none;stroke:#000;stroke-width:50"/><path id="path4588" d="m 4600,1490 0,-51" style="fill:none;stroke:#000;stroke-width:50"/><path id="path4590" d="m 4600,1388 0,-51" style="fill:none;stroke:#000;stroke-width:50"/></g></g><g id="g4592" class="com.sun.star.drawing.LineShape"><g id="id7"><path id="path4595" d="m 9100,6100 -51,0" style="fill:none;stroke:#000;stroke-width:50"/><path id="path4597" d="m 8998,6100 -51,0" style="fill:none;stroke:#000;stroke-width:50"/><path id="path4599" d="m 8896,6100 -51,0" style="fill:none;stroke:#000;stroke-width:50"/><path id="path4601" d="m 8794,6100 -51,0" style="fill:none;stroke:#000;stroke-width:50"/><path id="path4603" d="m 8692,6100 -51,0" style="fill:none;stroke:#000;stroke-width:50"/><path id="path4605" d="m 8590,6100 -51,0" style="fill:none;stroke:#000;stroke-width:50"/><path id="path4607" d="m 8488,6100 -51,0" style="fill:none;stroke:#000;stroke-width:50"/><path id="path4609" d="m 8386,6100 -51,0" style="fill:none;stroke:#000;stroke-width:50"/><path id="path4611" d="m 8284,6100 -51,0" style="fill:none;stroke:#000;stroke-width:50"/><path id="path4613" d="m 8182,6100 -51,0" style="fill:none;stroke:#000;stroke-width:50"/><path id="path4615" d="m 8080,6100 -51,0" style="fill:none;stroke:#000;stroke-width:50"/><path id="path4617" d="m 7978,6100 -51,0" style="fill:none;stroke:#000;stroke-width:50"/><path id="path4619" d="m 7876,6100 -51,0" style="fill:none;stroke:#000;stroke-width:50"/><path id="path4621" d="m 7774,6100 -51,0" style="fill:none;stroke:#000;stroke-width:50"/><path id="path4623" d="m 7672,6100 -51,0" style="fill:none;stroke:#000;stroke-width:50"/><path id="path4625" d="m 7570,6100 -51,0" style="fill:none;stroke:#000;stroke-width:50"/><path id="path4627" d="m 7468,6100 -51,0" style="fill:none;stroke:#000;stroke-width:50"/><path id="path4629" d="m 7366,6100 -51,0" style="fill:none;stroke:#000;stroke-width:50"/><path id="path4631" d="m 7264,6100 -51,0" style="fill:none;stroke:#000;stroke-width:50"/><path id="path4633" d="m 7162,6100 -51,0" style="fill:none;stroke:#000;stroke-width:50"/><path id="path4635" d="m 7060,6100 -51,0" style="fill:none;stroke:#000;stroke-width:50"/><path id="path4637" d="m 6958,6100 -51,0" style="fill:none;stroke:#000;stroke-width:50"/><path id="path4639" d="m 6856,6100 -51,0" style="fill:none;stroke:#000;stroke-width:50"/><path id="path4641" d="m 6754,6100 -51,0" style="fill:none;stroke:#000;stroke-width:50"/><path id="path4643" d="m 6652,6100 -51,0" style="fill:none;stroke:#000;stroke-width:50"/><path id="path4645" d="m 6550,6100 -51,0" style="fill:none;stroke:#000;stroke-width:50"/><path id="path4647" d="m 6448,6100 -51,0" style="fill:none;stroke:#000;stroke-width:50"/><path id="path4649" d="m 6346,6100 -51,0" style="fill:none;stroke:#000;stroke-width:50"/><path id="path4651" d="m 6244,6100 -51,0" style="fill:none;stroke:#000;stroke-width:50"/><path id="path4653" d="m 6142,6100 -51,0" style="fill:none;stroke:#000;stroke-width:50"/><path id="path4655" d="m 6040,6100 -51,0" style="fill:none;stroke:#000;stroke-width:50"/><path id="path4657" d="m 5938,6100 -51,0" style="fill:none;stroke:#000;stroke-width:50"/><path id="path4659" d="m 5836,6100 -51,0" style="fill:none;stroke:#000;stroke-width:50"/><path id="path4661" d="m 5734,6100 -51,0" style="fill:none;stroke:#000;stroke-width:50"/><path id="path4663" d="m 5632,6100 -51,0" style="fill:none;stroke:#000;stroke-width:50"/><path id="path4665" d="m 5530,6100 -51,0" style="fill:none;stroke:#000;stroke-width:50"/><path id="path4667" d="m 5428,6100 -51,0" style="fill:none;stroke:#000;stroke-width:50"/><path id="path4669" d="m 5326,6100 -51,0" style="fill:none;stroke:#000;stroke-width:50"/><path id="path4671" d="m 5224,6100 -51,0" style="fill:none;stroke:#000;stroke-width:50"/><path id="path4673" d="m 5122,6100 -51,0" style="fill:none;stroke:#000;stroke-width:50"/><path id="path4675" d="m 5020,6100 -51,0" style="fill:none;stroke:#000;stroke-width:50"/><path id="path4677" d="m 4918,6100 -51,0" style="fill:none;stroke:#000;stroke-width:50"/><path id="path4679" d="m 4816,6100 -51,0" style="fill:none;stroke:#000;stroke-width:50"/><path id="path4681" d="m 4714,6100 -51,0" style="fill:none;stroke:#000;stroke-width:50"/><path id="path4683" d="m 4612,6100 -51,0" style="fill:none;stroke:#000;stroke-width:50"/><path id="path4685" d="m 4510,6100 -51,0" style="fill:none;stroke:#000;stroke-width:50"/><path id="path4687" d="m 4408,6100 -51,0" style="fill:none;stroke:#000;stroke-width:50"/><path id="path4689" d="m 4306,6100 -51,0" style="fill:none;stroke:#000;stroke-width:50"/><path id="path4691" d="m 4204,6100 -51,0" style="fill:none;stroke:#000;stroke-width:50"/><path id="path4693" d="m 4102,6100 -51,0" style="fill:none;stroke:#000;stroke-width:50"/><path id="path4695" d="m 4000,6100 -51,0" style="fill:none;stroke:#000;stroke-width:50"/><path id="path4697" d="m 3898,6100 -51,0" style="fill:none;stroke:#000;stroke-width:50"/><path id="path4699" d="m 3796,6100 -51,0" style="fill:none;stroke:#000;stroke-width:50"/><path id="path4701" d="m 3694,6100 -51,0" style="fill:none;stroke:#000;stroke-width:50"/><path id="path4703" d="m 3592,6100 -51,0" style="fill:none;stroke:#000;stroke-width:50"/><path id="path4705" d="m 3490,6100 -51,0" style="fill:none;stroke:#000;stroke-width:50"/><path id="path4707" d="m 3388,6100 -51,0" style="fill:none;stroke:#000;stroke-width:50"/><path id="path4709" d="m 3286,6100 -51,0" style="fill:none;stroke:#000;stroke-width:50"/><path id="path4711" d="m 3184,6100 -51,0" style="fill:none;stroke:#000;stroke-width:50"/><path id="path4713" d="m 3082,6100 -51,0" style="fill:none;stroke:#000;stroke-width:50"/><path id="path4715" d="m 2980,6100 -51,0" style="fill:none;stroke:#000;stroke-width:50"/><path id="path4717" d="m 2878,6100 -51,0" style="fill:none;stroke:#000;stroke-width:50"/><path id="path4719" d="m 2776,6100 -51,0" style="fill:none;stroke:#000;stroke-width:50"/><path id="path4721" d="m 2674,6100 -51,0" style="fill:none;stroke:#000;stroke-width:50"/><path id="path4723" d="m 2572,6100 -51,0" style="fill:none;stroke:#000;stroke-width:50"/><path id="path4725" d="m 2470,6100 -51,0" style="fill:none;stroke:#000;stroke-width:50"/><path id="path4727" d="m 2368,6100 -51,0" style="fill:none;stroke:#000;stroke-width:50"/><path id="path4729" d="m 2266,6100 -51,0" style="fill:none;stroke:#000;stroke-width:50"/><path id="path4731" d="m 2164,6100 -51,0" style="fill:none;stroke:#000;stroke-width:50"/><path id="path4733" d="m 2062,6100 -51,0" style="fill:none;stroke:#000;stroke-width:50"/><path id="path4735" d="m 1960,6100 -51,0" style="fill:none;stroke:#000;stroke-width:50"/><path id="path4737" d="m 1858,6100 -51,0" style="fill:none;stroke:#000;stroke-width:50"/><path id="path4739" d="m 1756,6100 -51,0" style="fill:none;stroke:#000;stroke-width:50"/><path id="path4741" d="m 1654,6100 -51,0" style="fill:none;stroke:#000;stroke-width:50"/><path id="path4743" d="m 1552,6100 -51,0" style="fill:none;stroke:#000;stroke-width:50"/><path id="path4745" d="m 1450,6100 -51,0" style="fill:none;stroke:#000;stroke-width:50"/><path id="path4747" d="m 1348,6100 -51,0" style="fill:none;stroke:#000;stroke-width:50"/><path id="path4749" d="m 1246,6100 -51,0" style="fill:none;stroke:#000;stroke-width:50"/><path id="path4751" d="m 1144,6100 -44,0" style="fill:none;stroke:#000;stroke-width:50"/></g></g><g id="g4753" class="com.sun.star.drawing.TextShape"><g id="id8"><text id="text4756" class="TextShape"><tspan id="tspan4758" class="TextParagraph" font-size="388" font-weight="400" style="font-size:388px;font-weight:400;font-family:'Arial, sans-serif'"><tspan id="tspan4760" x="1991" y="6768" class="TextPosition"><tspan id="tspan4762" style="fill:#000;stroke:none">Variables</tspan></tspan></tspan></text></g></g><g id="g4764" class="com.sun.star.drawing.TextShape"><g id="id9"><text id="text4767" class="TextShape"><tspan id="tspan4769" class="TextParagraph" font-size="388" font-weight="400" style="font-size:388px;font-weight:400;font-family:'Arial, sans-serif'"><tspan id="tspan4771" x="5891" y="6769" class="TextPosition"><tspan id="tspan4773" style="fill:#000;stroke:none">Values</tspan></tspan></tspan></text></g></g><g id="g4775" class="com.sun.star.drawing.TextShape"><g id="id10"><path id="path4778" d="m 2824,4801 -878,0 0,-683 1755,0 0,683 -877,0 z" style="fill:silver;stroke:none"/><text id="text4780" class="TextShape"><tspan id="tspan4782" class="TextParagraph" font-size="388" font-weight="400" style="font-size:388px;font-weight:400;font-family:'Arial, sans-serif'"><tspan id="tspan4784" x="2196" y="4594" class="TextPosition"><tspan id="tspan4786" style="fill:#000;stroke:none">second</tspan></tspan></tspan></text></g></g><g id="g4788" class="com.sun.star.drawing.TextShape"><g id="id11"><path id="path4791" d="m 5792,5801 -492,0 0,-733 984,0 0,733 -492,0 z" style="fill:none;stroke:#000;stroke-width:50"/><text id="text4793" class="TextShape"><tspan id="tspan4795" class="TextParagraph" font-size="388" font-weight="400" style="font-size:388px;font-weight:400;font-family:'Arial, sans-serif'"><tspan id="tspan4797" x="5575" y="5569" class="TextPosition"><tspan id="tspan4799" style="fill:#000;stroke:none">10</tspan></tspan></tspan></text></g></g><g id="g4801" class="com.sun.star.drawing.TextShape"><g id="id12"><path id="path4804" d="m 6992,5802 -492,0 0,-733 984,0 0,733 -492,0 z" style="fill:none;stroke:#000;stroke-width:50"/><text id="text4806" class="TextShape"><tspan id="tspan4808" class="TextParagraph" font-size="388" font-weight="400" style="font-size:388px;font-weight:400;font-family:'Arial, sans-serif'"><tspan id="tspan4810" x="6775" y="5570" class="TextPosition"><tspan id="tspan4812" style="fill:#000;stroke:none">20</tspan></tspan></tspan></text></g></g><g id="g4814" class="com.sun.star.drawing.TextShape"><g id="id13"><path id="path4817" d="m 8192,5803 -492,0 0,-733 984,0 0,733 -492,0 z" style="fill:#e6e6e6;stroke:none"/><path id="path4819" d="m 8192,5803 -492,0 0,-733 984,0 0,733 -492,0 z" style="fill:none;stroke:#000;stroke-width:50"/><text id="text4821" class="TextShape"><tspan id="tspan4823" class="TextParagraph" font-size="388" font-weight="400" style="font-size:388px;font-weight:400;font-family:'Arial, sans-serif'"><tspan id="tspan4825" x="7975" y="5571" class="TextPosition"><tspan id="tspan4827" style="fill:#000;stroke:none">99</tspan></tspan></tspan></text></g></g><g id="g4829" class="com.sun.star.drawing.TextShape"><g id="id14"><path id="path4832" d="m 6976,4201 -276,0 0,-733 552,0 0,733 -276,0 z" style="fill:none;stroke:#000;stroke-width:50"/></g></g><g id="g4834" class="com.sun.star.drawing.TextShape"><g id="id15"><path id="path4837" d="m 7576,4202 -276,0 0,-733 552,0 0,733 -276,0 z" style="fill:none;stroke:#000;stroke-width:50"/></g></g><g id="g4839" class="com.sun.star.drawing.LineShape"><g id="id16"><path id="path4842" d="M 4000,4500 5497,3949" style="fill:none;stroke:#000"/><path id="path4844" d="m 5900,3800 -474,15 104,281 370,-296 z" style="fill:#000;stroke:none"/></g></g><g id="g4846" class="com.sun.star.drawing.LineShape"><g id="id17"><path id="path4849" d="m 6400,3800 -394,723" style="fill:none;stroke:#000"/><path id="path4851" d="m 5800,4900 347,-323 -263,-144 -84,467 z" style="fill:#000;stroke:none"/></g></g><g id="g4853" class="com.sun.star.drawing.LineShape"><g id="id18"><path id="path4856" d="m 7000,3800 0,670" style="fill:none;stroke:#000"/><path id="path4858" d="m 7000,4900 150,-450 -300,0 150,450 z" style="fill:#000;stroke:none"/></g></g><g id="g4860" class="com.sun.star.drawing.LineShape"><g id="id19"><path id="path4863" d="m 7600,3800 394,723" style="fill:none;stroke:#000"/><path id="path4865" d="m 8200,4900 -84,-467 -263,144 347,323 z" style="fill:#000;stroke:none"/></g></g></g></g></g></g></svg>