<svg xmlns="http://www.w3.org/2000/svg" xmlns:ooo="http://xml.openoffice.org/svg/export" xmlns:svg="http://www.w3.org/2000/svg" id="svg6496" width="374.774" height="299.409" clip-path="url(#presentation_clip_path)" style="fill-rule:evenodd;stroke-width:28.22200012;stroke-linejoin:round" preserveAspectRatio="xMidYMid" version="1.2" viewBox="0 0 10576.95 8450" xml:space="preserve"><metadata id="metadata7201"/><defs id="defs6498" class="ClipPathGroup"><clipPath id="presentation_clip_path" clipPathUnits="userSpaceOnUse"><rect id="rect6501" width="21590" height="27940" x="0" y="0"/></clipPath></defs><defs id="defs6507" class="EmbeddedBulletChars"><g id="bullet-char-template(57356)" transform="scale(4.8828125e-4,-4.8828125e-4)"><path id="path6510" d="M 580,1141 1163,571 580,0 -4,571 580,1141 z"/></g><g id="bullet-char-template(57354)" transform="scale(4.8828125e-4,-4.8828125e-4)"><path id="path6513" d="m 8,1128 1129,0 L 1137,0 8,0 8,1128 z"/></g><g id="bullet-char-template(10146)" transform="scale(4.8828125e-4,-4.8828125e-4)"><path id="path6516" d="M 174,0 602,739 174,1481 1456,739 174,0 z m 1184,739 -1049,607 350,-607 699,0 z"/></g><g id="bullet-char-template(10132)" transform="scale(4.8828125e-4,-4.8828125e-4)"><path id="path6519" d="M 2015,739 1276,0 717,0 l 543,543 -1086,0 0,393 1086,0 -543,545 557,0 741,-742 z"/></g><g id="bullet-char-template(10007)" transform="scale(4.8828125e-4,-4.8828125e-4)"><path id="path6522" d="m 0,-2 c -7,16 -16,29 -25,39 l 381,530 c -94,256 -141,385 -141,387 0,25 13,38 40,38 9,0 21,-2 34,-5 21,4 42,12 65,25 l 27,-13 111,-251 280,301 64,-25 24,25 c 21,-10 41,-24 62,-43 C 886,937 835,863 770,784 769,783 710,716 594,584 L 774,223 c 0,-27 -21,-55 -63,-84 l 16,-20 C 717,90 699,76 672,76 641,76 570,178 457,381 L 164,-76 c -22,-34 -53,-51 -92,-51 -42,0 -63,17 -64,51 -7,9 -10,24 -10,44 0,9 1,19 2,30 z"/></g><g id="bullet-char-template(10004)" transform="scale(4.8828125e-4,-4.8828125e-4)"><path id="path6525" d="M 285,-33 C 182,-33 111,30 74,156 52,228 41,333 41,471 c 0,78 14,145 41,201 34,71 87,106 158,106 53,0 88,-31 106,-94 l 23,-176 c 8,-64 28,-97 59,-98 l 735,706 c 11,11 33,17 66,17 42,0 63,-15 63,-46 l 0,-122 c 0,-36 -10,-64 -30,-84 L 442,47 C 390,-6 338,-33 285,-33 z"/></g><g id="bullet-char-template(9679)" transform="scale(4.8828125e-4,-4.8828125e-4)"><path id="path6528" d="M 813,0 C 632,0 489,54 383,161 276,268 223,411 223,592 c 0,181 53,324 160,431 106,107 249,161 430,161 179,0 323,-54 432,-161 108,-107 162,-251 162,-431 0,-180 -54,-324 -162,-431 C 1136,54 992,0 813,0 z"/></g><g id="bullet-char-template(8226)" transform="scale(4.8828125e-4,-4.8828125e-4)"><path id="path6531" d="m 346,457 c -73,0 -137,26 -191,78 -54,51 -81,114 -81,188 0,73 27,136 81,188 54,52 118,78 191,78 73,0 134,-26 185,-79 51,-51 77,-114 77,-187 0,-75 -25,-137 -76,-188 -50,-52 -112,-78 -186,-78 z"/></g><g id="bullet-char-template(8211)" transform="scale(4.8828125e-4,-4.8828125e-4)"><path id="path6534" d="m -4,459 1139,0 0,147 -1139,0 0,-147 z"/></g></defs><g id="g6543" class="SlideGroup" transform="translate(-1448.0508,-1275)"><g id="g6545"><g id="id1" class="Slide" clip-path="url(#presentation_clip_path)"><g id="g6548" class="Page"><g id="g6550" class="com.sun.star.drawing.LineShape"><g id="id3"><path id="path6553" d="m 7200,5300 1170,0" style="fill:none;stroke:#000"/><path id="path6555" d="m 8800,5300 -450,-150 0,300 450,-150 z" style="fill:#000;stroke:none"/></g></g><g id="g6557" class="com.sun.star.drawing.TextShape"><g id="id4"><path id="path6560" d="m 5820,5583 -1081,0 0,-683 2161,0 0,683 -1080,0 z" style="fill:silver;stroke:none"/><text id="text6562" class="TextShape"><tspan id="tspan6564" class="TextParagraph" font-size="388" font-weight="400" style="font-size:388px;font-weight:400;font-family:'Arial, sans-serif'"><tspan id="tspan6566" x="4989" y="5376" class="TextPosition"><tspan id="tspan6568" style="fill:#000;stroke:none">string_val</tspan></tspan></tspan></text></g></g><g id="g6570" class="com.sun.star.drawing.LineShape"><g id="id5"><path id="path6573" d="m 7500,9700 0,-51" style="fill:none;stroke:#000;stroke-width:50"/><path id="path6575" d="m 7500,9598 0,-51" style="fill:none;stroke:#000;stroke-width:50"/><path id="path6577" d="m 7500,9496 0,-51" style="fill:none;stroke:#000;stroke-width:50"/><path id="path6579" d="m 7500,9394 0,-51" style="fill:none;stroke:#000;stroke-width:50"/><path id="path6581" d="m 7500,9292 0,-51" style="fill:none;stroke:#000;stroke-width:50"/><path id="path6583" d="m 7500,9190 0,-51" style="fill:none;stroke:#000;stroke-width:50"/><path id="path6585" d="m 7500,9088 0,-51" style="fill:none;stroke:#000;stroke-width:50"/><path id="path6587" d="m 7500,8986 0,-51" style="fill:none;stroke:#000;stroke-width:50"/><path id="path6589" d="m 7500,8884 0,-51" style="fill:none;stroke:#000;stroke-width:50"/><path id="path6591" d="m 7500,8782 0,-51" style="fill:none;stroke:#000;stroke-width:50"/><path id="path6593" d="m 7500,8680 0,-51" style="fill:none;stroke:#000;stroke-width:50"/><path id="path6595" d="m 7500,8578 0,-51" style="fill:none;stroke:#000;stroke-width:50"/><path id="path6597" d="m 7500,8476 0,-51" style="fill:none;stroke:#000;stroke-width:50"/><path id="path6599" d="m 7500,8374 0,-51" style="fill:none;stroke:#000;stroke-width:50"/><path id="path6601" d="m 7500,8272 0,-51" style="fill:none;stroke:#000;stroke-width:50"/><path id="path6603" d="m 7500,8170 0,-51" style="fill:none;stroke:#000;stroke-width:50"/><path id="path6605" d="m 7500,8068 0,-51" style="fill:none;stroke:#000;stroke-width:50"/><path id="path6607" d="m 7500,7966 0,-51" style="fill:none;stroke:#000;stroke-width:50"/><path id="path6609" d="m 7500,7864 0,-51" style="fill:none;stroke:#000;stroke-width:50"/><path id="path6611" d="m 7500,7762 0,-51" style="fill:none;stroke:#000;stroke-width:50"/><path id="path6613" d="m 7500,7660 0,-51" style="fill:none;stroke:#000;stroke-width:50"/><path id="path6615" d="m 7500,7558 0,-51" style="fill:none;stroke:#000;stroke-width:50"/><path id="path6617" d="m 7500,7456 0,-51" style="fill:none;stroke:#000;stroke-width:50"/><path id="path6619" d="m 7500,7354 0,-51" style="fill:none;stroke:#000;stroke-width:50"/><path id="path6621" d="m 7500,7252 0,-51" style="fill:none;stroke:#000;stroke-width:50"/><path id="path6623" d="m 7500,7150 0,-51" style="fill:none;stroke:#000;stroke-width:50"/><path id="path6625" d="m 7500,7048 0,-51" style="fill:none;stroke:#000;stroke-width:50"/><path id="path6627" d="m 7500,6946 0,-51" style="fill:none;stroke:#000;stroke-width:50"/><path id="path6629" d="m 7500,6844 0,-51" style="fill:none;stroke:#000;stroke-width:50"/><path id="path6631" d="m 7500,6742 0,-51" style="fill:none;stroke:#000;stroke-width:50"/><path id="path6633" d="m 7500,6640 0,-51" style="fill:none;stroke:#000;stroke-width:50"/><path id="path6635" d="m 7500,6538 0,-51" style="fill:none;stroke:#000;stroke-width:50"/><path id="path6637" d="m 7500,6436 0,-51" style="fill:none;stroke:#000;stroke-width:50"/><path id="path6639" d="m 7500,6334 0,-51" style="fill:none;stroke:#000;stroke-width:50"/><path id="path6641" d="m 7500,6232 0,-51" style="fill:none;stroke:#000;stroke-width:50"/><path id="path6643" d="m 7500,6130 0,-51" style="fill:none;stroke:#000;stroke-width:50"/><path id="path6645" d="m 7500,6028 0,-51" style="fill:none;stroke:#000;stroke-width:50"/><path id="path6647" d="m 7500,5926 0,-51" style="fill:none;stroke:#000;stroke-width:50"/><path id="path6649" d="m 7500,5824 0,-51" style="fill:none;stroke:#000;stroke-width:50"/><path id="path6651" d="m 7500,5722 0,-51" style="fill:none;stroke:#000;stroke-width:50"/><path id="path6653" d="m 7500,5620 0,-51" style="fill:none;stroke:#000;stroke-width:50"/><path id="path6655" d="m 7500,5518 0,-51" style="fill:none;stroke:#000;stroke-width:50"/><path id="path6657" d="m 7500,5416 0,-51" style="fill:none;stroke:#000;stroke-width:50"/><path id="path6659" d="m 7500,5314 0,-51" style="fill:none;stroke:#000;stroke-width:50"/><path id="path6661" d="m 7500,5212 0,-51" style="fill:none;stroke:#000;stroke-width:50"/><path id="path6663" d="m 7500,5110 0,-51" style="fill:none;stroke:#000;stroke-width:50"/><path id="path6665" d="m 7500,5008 0,-51" style="fill:none;stroke:#000;stroke-width:50"/><path id="path6667" d="m 7500,4906 0,-51" style="fill:none;stroke:#000;stroke-width:50"/><path id="path6669" d="m 7500,4804 0,-51" style="fill:none;stroke:#000;stroke-width:50"/><path id="path6671" d="m 7500,4702 0,-51" style="fill:none;stroke:#000;stroke-width:50"/><path id="path6673" d="m 7500,4600 0,-51" style="fill:none;stroke:#000;stroke-width:50"/><path id="path6675" d="m 7500,4498 0,-51" style="fill:none;stroke:#000;stroke-width:50"/><path id="path6677" d="m 7500,4396 0,-51" style="fill:none;stroke:#000;stroke-width:50"/><path id="path6679" d="m 7500,4294 0,-51" style="fill:none;stroke:#000;stroke-width:50"/><path id="path6681" d="m 7500,4192 0,-51" style="fill:none;stroke:#000;stroke-width:50"/><path id="path6683" d="m 7500,4090 0,-51" style="fill:none;stroke:#000;stroke-width:50"/><path id="path6685" d="m 7500,3988 0,-51" style="fill:none;stroke:#000;stroke-width:50"/><path id="path6687" d="m 7500,3886 0,-51" style="fill:none;stroke:#000;stroke-width:50"/><path id="path6689" d="m 7500,3784 0,-51" style="fill:none;stroke:#000;stroke-width:50"/><path id="path6691" d="m 7500,3682 0,-51" style="fill:none;stroke:#000;stroke-width:50"/><path id="path6693" d="m 7500,3580 0,-51" style="fill:none;stroke:#000;stroke-width:50"/><path id="path6695" d="m 7500,3478 0,-51" style="fill:none;stroke:#000;stroke-width:50"/><path id="path6697" d="m 7500,3376 0,-51" style="fill:none;stroke:#000;stroke-width:50"/><path id="path6699" d="m 7500,3274 0,-51" style="fill:none;stroke:#000;stroke-width:50"/><path id="path6701" d="m 7500,3172 0,-51" style="fill:none;stroke:#000;stroke-width:50"/><path id="path6703" d="m 7500,3070 0,-51" style="fill:none;stroke:#000;stroke-width:50"/><path id="path6705" d="m 7500,2968 0,-51" style="fill:none;stroke:#000;stroke-width:50"/><path id="path6707" d="m 7500,2866 0,-51" style="fill:none;stroke:#000;stroke-width:50"/><path id="path6709" d="m 7500,2764 0,-51" style="fill:none;stroke:#000;stroke-width:50"/><path id="path6711" d="m 7500,2662 0,-51" style="fill:none;stroke:#000;stroke-width:50"/><path id="path6713" d="m 7500,2560 0,-51" style="fill:none;stroke:#000;stroke-width:50"/><path id="path6715" d="m 7500,2458 0,-51" style="fill:none;stroke:#000;stroke-width:50"/><path id="path6717" d="m 7500,2356 0,-51" style="fill:none;stroke:#000;stroke-width:50"/><path id="path6719" d="m 7500,2254 0,-51" style="fill:none;stroke:#000;stroke-width:50"/><path id="path6721" d="m 7500,2152 0,-51" style="fill:none;stroke:#000;stroke-width:50"/><path id="path6723" d="m 7500,2050 0,-51" style="fill:none;stroke:#000;stroke-width:50"/><path id="path6725" d="m 7500,1948 0,-51" style="fill:none;stroke:#000;stroke-width:50"/><path id="path6727" d="m 7500,1846 0,-51" style="fill:none;stroke:#000;stroke-width:50"/><path id="path6729" d="m 7500,1744 0,-51" style="fill:none;stroke:#000;stroke-width:50"/><path id="path6731" d="m 7500,1642 0,-51" style="fill:none;stroke:#000;stroke-width:50"/><path id="path6733" d="m 7500,1540 0,-51" style="fill:none;stroke:#000;stroke-width:50"/><path id="path6735" d="m 7500,1438 0,-51" style="fill:none;stroke:#000;stroke-width:50"/><path id="path6737" d="m 7500,1336 0,-36" style="fill:none;stroke:#000;stroke-width:50"/></g></g><g id="g6739" class="com.sun.star.drawing.LineShape"><g id="id6"><path id="path6742" d="m 12000,8700 -51,0" style="fill:none;stroke:#000;stroke-width:50"/><path id="path6744" d="m 11898,8700 -51,0" style="fill:none;stroke:#000;stroke-width:50"/><path id="path6746" d="m 11796,8700 -51,0" style="fill:none;stroke:#000;stroke-width:50"/><path id="path6748" d="m 11694,8700 -51,0" style="fill:none;stroke:#000;stroke-width:50"/><path id="path6750" d="m 11592,8700 -51,0" style="fill:none;stroke:#000;stroke-width:50"/><path id="path6752" d="m 11490,8700 -51,0" style="fill:none;stroke:#000;stroke-width:50"/><path id="path6754" d="m 11388,8700 -51,0" style="fill:none;stroke:#000;stroke-width:50"/><path id="path6756" d="m 11286,8700 -51,0" style="fill:none;stroke:#000;stroke-width:50"/><path id="path6758" d="m 11184,8700 -51,0" style="fill:none;stroke:#000;stroke-width:50"/><path id="path6760" d="m 11082,8700 -51,0" style="fill:none;stroke:#000;stroke-width:50"/><path id="path6762" d="m 10980,8700 -51,0" style="fill:none;stroke:#000;stroke-width:50"/><path id="path6764" d="m 10878,8700 -51,0" style="fill:none;stroke:#000;stroke-width:50"/><path id="path6766" d="m 10776,8700 -51,0" style="fill:none;stroke:#000;stroke-width:50"/><path id="path6768" d="m 10674,8700 -51,0" style="fill:none;stroke:#000;stroke-width:50"/><path id="path6770" d="m 10572,8700 -51,0" style="fill:none;stroke:#000;stroke-width:50"/><path id="path6772" d="m 10470,8700 -51,0" style="fill:none;stroke:#000;stroke-width:50"/><path id="path6774" d="m 10368,8700 -51,0" style="fill:none;stroke:#000;stroke-width:50"/><path id="path6776" d="m 10266,8700 -51,0" style="fill:none;stroke:#000;stroke-width:50"/><path id="path6778" d="m 10164,8700 -51,0" style="fill:none;stroke:#000;stroke-width:50"/><path id="path6780" d="m 10062,8700 -51,0" style="fill:none;stroke:#000;stroke-width:50"/><path id="path6782" d="m 9960,8700 -51,0" style="fill:none;stroke:#000;stroke-width:50"/><path id="path6784" d="m 9858,8700 -51,0" style="fill:none;stroke:#000;stroke-width:50"/><path id="path6786" d="m 9756,8700 -51,0" style="fill:none;stroke:#000;stroke-width:50"/><path id="path6788" d="m 9654,8700 -51,0" style="fill:none;stroke:#000;stroke-width:50"/><path id="path6790" d="m 9552,8700 -51,0" style="fill:none;stroke:#000;stroke-width:50"/><path id="path6792" d="m 9450,8700 -51,0" style="fill:none;stroke:#000;stroke-width:50"/><path id="path6794" d="m 9348,8700 -51,0" style="fill:none;stroke:#000;stroke-width:50"/><path id="path6796" d="m 9246,8700 -51,0" style="fill:none;stroke:#000;stroke-width:50"/><path id="path6798" d="m 9144,8700 -51,0" style="fill:none;stroke:#000;stroke-width:50"/><path id="path6800" d="m 9042,8700 -51,0" style="fill:none;stroke:#000;stroke-width:50"/><path id="path6802" d="m 8940,8700 -51,0" style="fill:none;stroke:#000;stroke-width:50"/><path id="path6804" d="m 8838,8700 -51,0" style="fill:none;stroke:#000;stroke-width:50"/><path id="path6806" d="m 8736,8700 -51,0" style="fill:none;stroke:#000;stroke-width:50"/><path id="path6808" d="m 8634,8700 -51,0" style="fill:none;stroke:#000;stroke-width:50"/><path id="path6810" d="m 8532,8700 -51,0" style="fill:none;stroke:#000;stroke-width:50"/><path id="path6812" d="m 8430,8700 -51,0" style="fill:none;stroke:#000;stroke-width:50"/><path id="path6814" d="m 8328,8700 -51,0" style="fill:none;stroke:#000;stroke-width:50"/><path id="path6816" d="m 8226,8700 -51,0" style="fill:none;stroke:#000;stroke-width:50"/><path id="path6818" d="m 8124,8700 -51,0" style="fill:none;stroke:#000;stroke-width:50"/><path id="path6820" d="m 8022,8700 -51,0" style="fill:none;stroke:#000;stroke-width:50"/><path id="path6822" d="m 7920,8700 -51,0" style="fill:none;stroke:#000;stroke-width:50"/><path id="path6824" d="m 7818,8700 -51,0" style="fill:none;stroke:#000;stroke-width:50"/><path id="path6826" d="m 7716,8700 -51,0" style="fill:none;stroke:#000;stroke-width:50"/><path id="path6828" d="m 7614,8700 -51,0" style="fill:none;stroke:#000;stroke-width:50"/><path id="path6830" d="m 7512,8700 -51,0" style="fill:none;stroke:#000;stroke-width:50"/><path id="path6832" d="m 7410,8700 -51,0" style="fill:none;stroke:#000;stroke-width:50"/><path id="path6834" d="m 7308,8700 -51,0" style="fill:none;stroke:#000;stroke-width:50"/><path id="path6836" d="m 7206,8700 -51,0" style="fill:none;stroke:#000;stroke-width:50"/><path id="path6838" d="m 7104,8700 -51,0" style="fill:none;stroke:#000;stroke-width:50"/><path id="path6840" d="m 7002,8700 -51,0" style="fill:none;stroke:#000;stroke-width:50"/><path id="path6842" d="m 6900,8700 -51,0" style="fill:none;stroke:#000;stroke-width:50"/><path id="path6844" d="m 6798,8700 -51,0" style="fill:none;stroke:#000;stroke-width:50"/><path id="path6846" d="m 6696,8700 -51,0" style="fill:none;stroke:#000;stroke-width:50"/><path id="path6848" d="m 6594,8700 -51,0" style="fill:none;stroke:#000;stroke-width:50"/><path id="path6850" d="m 6492,8700 -51,0" style="fill:none;stroke:#000;stroke-width:50"/><path id="path6852" d="m 6390,8700 -51,0" style="fill:none;stroke:#000;stroke-width:50"/><path id="path6854" d="m 6288,8700 -51,0" style="fill:none;stroke:#000;stroke-width:50"/><path id="path6856" d="m 6186,8700 -51,0" style="fill:none;stroke:#000;stroke-width:50"/><path id="path6858" d="m 6084,8700 -51,0" style="fill:none;stroke:#000;stroke-width:50"/><path id="path6860" d="m 5982,8700 -51,0" style="fill:none;stroke:#000;stroke-width:50"/><path id="path6862" d="m 5880,8700 -51,0" style="fill:none;stroke:#000;stroke-width:50"/><path id="path6864" d="m 5778,8700 -51,0" style="fill:none;stroke:#000;stroke-width:50"/><path id="path6866" d="m 5676,8700 -51,0" style="fill:none;stroke:#000;stroke-width:50"/><path id="path6868" d="m 5574,8700 -51,0" style="fill:none;stroke:#000;stroke-width:50"/><path id="path6870" d="m 5472,8700 -51,0" style="fill:none;stroke:#000;stroke-width:50"/><path id="path6872" d="m 5370,8700 -51,0" style="fill:none;stroke:#000;stroke-width:50"/><path id="path6874" d="m 5268,8700 -51,0" style="fill:none;stroke:#000;stroke-width:50"/><path id="path6876" d="m 5166,8700 -51,0" style="fill:none;stroke:#000;stroke-width:50"/><path id="path6878" d="m 5064,8700 -51,0" style="fill:none;stroke:#000;stroke-width:50"/><path id="path6880" d="m 4962,8700 -51,0" style="fill:none;stroke:#000;stroke-width:50"/><path id="path6882" d="m 4860,8700 -51,0" style="fill:none;stroke:#000;stroke-width:50"/><path id="path6884" d="m 4758,8700 -51,0" style="fill:none;stroke:#000;stroke-width:50"/><path id="path6886" d="m 4656,8700 -51,0" style="fill:none;stroke:#000;stroke-width:50"/><path id="path6888" d="m 4554,8700 -51,0" style="fill:none;stroke:#000;stroke-width:50"/><path id="path6890" d="m 4452,8700 -51,0" style="fill:none;stroke:#000;stroke-width:50"/><path id="path6892" d="m 4350,8700 -51,0" style="fill:none;stroke:#000;stroke-width:50"/><path id="path6894" d="m 4248,8700 -51,0" style="fill:none;stroke:#000;stroke-width:50"/><path id="path6896" d="m 4146,8700 -51,0" style="fill:none;stroke:#000;stroke-width:50"/><path id="path6898" d="m 4044,8700 -44,0" style="fill:none;stroke:#000;stroke-width:50"/></g></g><g id="g6900" class="com.sun.star.drawing.TextShape"><g id="id7"><text id="text6903" class="TextShape"><tspan id="tspan6905" class="TextParagraph" font-size="388" font-weight="400" style="font-size:388px;font-weight:400;font-family:'Arial, sans-serif'"><tspan id="tspan6907" x="4891" y="9368" class="TextPosition"><tspan id="tspan6909" style="fill:#000;stroke:none">Variables</tspan></tspan></tspan></text></g></g><g id="g6911" class="com.sun.star.drawing.TextShape"><g id="id8"><text id="text6914" class="TextShape"><tspan id="tspan6916" class="TextParagraph" font-size="388" font-weight="400" style="font-size:388px;font-weight:400;font-family:'Arial, sans-serif'"><tspan id="tspan6918" x="8791" y="9369" class="TextPosition"><tspan id="tspan6920" style="fill:#000;stroke:none">Values</tspan></tspan></tspan></text></g></g><g id="g6922" class="com.sun.star.drawing.TextShape"><g id="id9"><path id="path6925" d="m 6057,6700 -844,0 0,-683 1687,0 0,683 -843,0 z" style="fill:silver;stroke:none"/><text id="text6927" class="TextShape"><tspan id="tspan6929" class="TextParagraph" font-size="388" font-weight="400" style="font-size:388px;font-weight:400;font-family:'Arial, sans-serif'"><tspan id="tspan6931" x="5463" y="6493" class="TextPosition"><tspan id="tspan6933" style="fill:#000;stroke:none">list_val</tspan></tspan></tspan></text></g></g><g id="g6935" class="com.sun.star.drawing.TextShape"><g id="id10"><path id="path6938" d="m 9317,8401 -717,0 0,-733 1433,0 0,733 -716,0 z" style="fill:none;stroke:#000;stroke-width:50"/><text id="text6940" class="TextShape"><tspan id="tspan6942" class="TextParagraph" font-size="388" font-weight="400" style="font-size:388px;font-weight:400;font-family:'Arial, sans-serif'"><tspan id="tspan6944" x="8875" y="8169" class="TextPosition"><tspan id="tspan6946" style="fill:#000;stroke:none">&apos;alan&apos;</tspan></tspan></tspan></text></g></g><g id="g6948" class="com.sun.star.drawing.LineShape"><g id="id11"><path id="path6951" d="m 7100,6400 1270,0" style="fill:none;stroke:#000"/><path id="path6953" d="m 8800,6400 -450,-150 0,300 450,-150 z" style="fill:#000;stroke:none"/></g></g><g id="g6955" class="com.sun.star.drawing.LineShape"><g id="id12"><path id="path6958" d="m 9300,6400 0,670" style="fill:none;stroke:#000"/><path id="path6960" d="m 9300,7500 150,-450 -300,0 150,450 z" style="fill:#000;stroke:none"/></g></g><g id="g6962" class="com.sun.star.drawing.TextShape"><g id="id13"><text id="text6965" class="TextShape"><tspan id="tspan6967" class="TextParagraph" font-size="388" font-weight="400" style="font-size:388px;font-weight:400;font-family:'Arial, sans-serif'"><tspan id="tspan6969" x="8976" y="5470" class="TextPosition"><tspan id="tspan6971" style="fill:#000;stroke:none">&apos;alan&apos;</tspan></tspan></tspan></text></g></g><g id="g6973" class="com.sun.star.drawing.LineShape"><g id="id14"><path id="path6976" d="m 12000,3900 -51,0" style="fill:none;stroke:#000;stroke-width:50"/><path id="path6978" d="m 11898,3900 -51,0" style="fill:none;stroke:#000;stroke-width:50"/><path id="path6980" d="m 11796,3900 -51,0" style="fill:none;stroke:#000;stroke-width:50"/><path id="path6982" d="m 11694,3900 -51,0" style="fill:none;stroke:#000;stroke-width:50"/><path id="path6984" d="m 11592,3900 -51,0" style="fill:none;stroke:#000;stroke-width:50"/><path id="path6986" d="m 11490,3900 -51,0" style="fill:none;stroke:#000;stroke-width:50"/><path id="path6988" d="m 11388,3900 -51,0" style="fill:none;stroke:#000;stroke-width:50"/><path id="path6990" d="m 11286,3900 -51,0" style="fill:none;stroke:#000;stroke-width:50"/><path id="path6992" d="m 11184,3900 -51,0" style="fill:none;stroke:#000;stroke-width:50"/><path id="path6994" d="m 11082,3900 -51,0" style="fill:none;stroke:#000;stroke-width:50"/><path id="path6996" d="m 10980,3900 -51,0" style="fill:none;stroke:#000;stroke-width:50"/><path id="path6998" d="m 10878,3900 -51,0" style="fill:none;stroke:#000;stroke-width:50"/><path id="path7000" d="m 10776,3900 -51,0" style="fill:none;stroke:#000;stroke-width:50"/><path id="path7002" d="m 10674,3900 -51,0" style="fill:none;stroke:#000;stroke-width:50"/><path id="path7004" d="m 10572,3900 -51,0" style="fill:none;stroke:#000;stroke-width:50"/><path id="path7006" d="m 10470,3900 -51,0" style="fill:none;stroke:#000;stroke-width:50"/><path id="path7008" d="m 10368,3900 -51,0" style="fill:none;stroke:#000;stroke-width:50"/><path id="path7010" d="m 10266,3900 -51,0" style="fill:none;stroke:#000;stroke-width:50"/><path id="path7012" d="m 10164,3900 -51,0" style="fill:none;stroke:#000;stroke-width:50"/><path id="path7014" d="m 10062,3900 -51,0" style="fill:none;stroke:#000;stroke-width:50"/><path id="path7016" d="m 9960,3900 -51,0" style="fill:none;stroke:#000;stroke-width:50"/><path id="path7018" d="m 9858,3900 -51,0" style="fill:none;stroke:#000;stroke-width:50"/><path id="path7020" d="m 9756,3900 -51,0" style="fill:none;stroke:#000;stroke-width:50"/><path id="path7022" d="m 9654,3900 -51,0" style="fill:none;stroke:#000;stroke-width:50"/><path id="path7024" d="m 9552,3900 -51,0" style="fill:none;stroke:#000;stroke-width:50"/><path id="path7026" d="m 9450,3900 -51,0" style="fill:none;stroke:#000;stroke-width:50"/><path id="path7028" d="m 9348,3900 -51,0" style="fill:none;stroke:#000;stroke-width:50"/><path id="path7030" d="m 9246,3900 -51,0" style="fill:none;stroke:#000;stroke-width:50"/><path id="path7032" d="m 9144,3900 -51,0" style="fill:none;stroke:#000;stroke-width:50"/><path id="path7034" d="m 9042,3900 -51,0" style="fill:none;stroke:#000;stroke-width:50"/><path id="path7036" d="m 8940,3900 -51,0" style="fill:none;stroke:#000;stroke-width:50"/><path id="path7038" d="m 8838,3900 -51,0" style="fill:none;stroke:#000;stroke-width:50"/><path id="path7040" d="m 8736,3900 -51,0" style="fill:none;stroke:#000;stroke-width:50"/><path id="path7042" d="m 8634,3900 -51,0" style="fill:none;stroke:#000;stroke-width:50"/><path id="path7044" d="m 8532,3900 -51,0" style="fill:none;stroke:#000;stroke-width:50"/><path id="path7046" d="m 8430,3900 -51,0" style="fill:none;stroke:#000;stroke-width:50"/><path id="path7048" d="m 8328,3900 -51,0" style="fill:none;stroke:#000;stroke-width:50"/><path id="path7050" d="m 8226,3900 -51,0" style="fill:none;stroke:#000;stroke-width:50"/><path id="path7052" d="m 8124,3900 -51,0" style="fill:none;stroke:#000;stroke-width:50"/><path id="path7054" d="m 8022,3900 -51,0" style="fill:none;stroke:#000;stroke-width:50"/><path id="path7056" d="m 7920,3900 -51,0" style="fill:none;stroke:#000;stroke-width:50"/><path id="path7058" d="m 7818,3900 -51,0" style="fill:none;stroke:#000;stroke-width:50"/><path id="path7060" d="m 7716,3900 -51,0" style="fill:none;stroke:#000;stroke-width:50"/><path id="path7062" d="m 7614,3900 -51,0" style="fill:none;stroke:#000;stroke-width:50"/><path id="path7064" d="m 7512,3900 -51,0" style="fill:none;stroke:#000;stroke-width:50"/><path id="path7066" d="m 7410,3900 -51,0" style="fill:none;stroke:#000;stroke-width:50"/><path id="path7068" d="m 7308,3900 -51,0" style="fill:none;stroke:#000;stroke-width:50"/><path id="path7070" d="m 7206,3900 -51,0" style="fill:none;stroke:#000;stroke-width:50"/><path id="path7072" d="m 7104,3900 -51,0" style="fill:none;stroke:#000;stroke-width:50"/><path id="path7074" d="m 7002,3900 -51,0" style="fill:none;stroke:#000;stroke-width:50"/><path id="path7076" d="m 6900,3900 -51,0" style="fill:none;stroke:#000;stroke-width:50"/><path id="path7078" d="m 6798,3900 -51,0" style="fill:none;stroke:#000;stroke-width:50"/><path id="path7080" d="m 6696,3900 -51,0" style="fill:none;stroke:#000;stroke-width:50"/><path id="path7082" d="m 6594,3900 -51,0" style="fill:none;stroke:#000;stroke-width:50"/><path id="path7084" d="m 6492,3900 -51,0" style="fill:none;stroke:#000;stroke-width:50"/><path id="path7086" d="m 6390,3900 -51,0" style="fill:none;stroke:#000;stroke-width:50"/><path id="path7088" d="m 6288,3900 -51,0" style="fill:none;stroke:#000;stroke-width:50"/><path id="path7090" d="m 6186,3900 -51,0" style="fill:none;stroke:#000;stroke-width:50"/><path id="path7092" d="m 6084,3900 -51,0" style="fill:none;stroke:#000;stroke-width:50"/><path id="path7094" d="m 5982,3900 -51,0" style="fill:none;stroke:#000;stroke-width:50"/><path id="path7096" d="m 5880,3900 -51,0" style="fill:none;stroke:#000;stroke-width:50"/><path id="path7098" d="m 5778,3900 -51,0" style="fill:none;stroke:#000;stroke-width:50"/><path id="path7100" d="m 5676,3900 -51,0" style="fill:none;stroke:#000;stroke-width:50"/><path id="path7102" d="m 5574,3900 -51,0" style="fill:none;stroke:#000;stroke-width:50"/><path id="path7104" d="m 5472,3900 -51,0" style="fill:none;stroke:#000;stroke-width:50"/><path id="path7106" d="m 5370,3900 -51,0" style="fill:none;stroke:#000;stroke-width:50"/><path id="path7108" d="m 5268,3900 -51,0" style="fill:none;stroke:#000;stroke-width:50"/><path id="path7110" d="m 5166,3900 -51,0" style="fill:none;stroke:#000;stroke-width:50"/><path id="path7112" d="m 5064,3900 -51,0" style="fill:none;stroke:#000;stroke-width:50"/><path id="path7114" d="m 4962,3900 -51,0" style="fill:none;stroke:#000;stroke-width:50"/><path id="path7116" d="m 4860,3900 -51,0" style="fill:none;stroke:#000;stroke-width:50"/><path id="path7118" d="m 4758,3900 -51,0" style="fill:none;stroke:#000;stroke-width:50"/><path id="path7120" d="m 4656,3900 -51,0" style="fill:none;stroke:#000;stroke-width:50"/><path id="path7122" d="m 4554,3900 -51,0" style="fill:none;stroke:#000;stroke-width:50"/><path id="path7124" d="m 4452,3900 -51,0" style="fill:none;stroke:#000;stroke-width:50"/><path id="path7126" d="m 4350,3900 -51,0" style="fill:none;stroke:#000;stroke-width:50"/><path id="path7128" d="m 4248,3900 -51,0" style="fill:none;stroke:#000;stroke-width:50"/><path id="path7130" d="m 4146,3900 -51,0" style="fill:none;stroke:#000;stroke-width:50"/><path id="path7132" d="m 4044,3900 -44,0" style="fill:none;stroke:#000;stroke-width:50"/></g></g><g id="g7134" class="com.sun.star.drawing.LineShape"><g id="id15"><path id="path7137" d="M 7201,2000 8508,4615" style="fill:none;stroke:#000"/><path id="path7139" d="m 8700,5000 -67,-470 -268,135 335,335 z" style="fill:#000;stroke:none"/></g></g><g id="g7141" class="com.sun.star.drawing.TextShape"><g id="id16"><path id="path7144" d="m 5981,2283 -941,0 0,-683 1882,0 0,683 -941,0 z" style="fill:silver;stroke:none"/><text id="text7146" class="TextShape"><tspan id="tspan7148" class="TextParagraph" font-size="388" font-weight="400" style="font-size:388px;font-weight:400;font-family:'Arial, sans-serif'"><tspan id="tspan7150" x="5290" y="2076" class="TextPosition"><tspan id="tspan7152" style="fill:#000;stroke:none">a_string</tspan></tspan></tspan></text></g></g><g id="g7154" class="com.sun.star.drawing.TextShape"><g id="id17"><path id="path7157" d="m 6218,3400 -704,0 0,-683 1408,0 0,683 -704,0 z" style="fill:silver;stroke:none"/><text id="text7159" class="TextShape"><tspan id="tspan7161" class="TextParagraph" font-size="388" font-weight="400" style="font-size:388px;font-weight:400;font-family:'Arial, sans-serif'"><tspan id="tspan7163" x="5764" y="3193" class="TextPosition"><tspan id="tspan7165" style="fill:#000;stroke:none">a_list</tspan></tspan></tspan></text></g></g><g id="g7167" class="com.sun.star.drawing.LineShape"><g id="id18"><path id="path7170" d="M 7101,3100 8588,5726" style="fill:none;stroke:#000"/><path id="path7172" d="m 8800,6100 -91,-465 -261,147 352,318 z" style="fill:#000;stroke:none"/></g></g><g id="g7174" class="com.sun.star.drawing.TextShape"><g id="id19"><text id="text7177" class="TextShape"><tspan id="tspan7179" class="TextParagraph" font-size="388" font-style="italic" font-weight="400" style="font-size:388px;font-style:italic;font-weight:400;font-family:'Arial, sans-serif'"><tspan id="tspan7181" x="1431" y="2569" class="TextPosition"><tspan id="tspan7183" style="fill:#000;stroke:none">appender</tspan></tspan></tspan></text></g></g><g id="g7185" class="com.sun.star.drawing.CustomShape"><g id="id20"><path id="path7188" d="m 3599,1400 c -30,0 -61,91 -61,183 l 0,734 c 0,91 -30,183 -60,183 30,0 60,92 60,183 l 0,734 c 0,92 31,184 61,184" style="fill:none;stroke:#000;stroke-width:50"/><path id="path7190" d="m 3478,1400 0,0 z" style="fill:none;stroke:#000;stroke-width:50"/><path id="path7192" d="m 3600,3601 0,0 z" style="fill:none;stroke:#000;stroke-width:50"/></g></g><g id="g7194" class="com.sun.star.drawing.TextShape"><g id="id21"><path id="path7197" d="m 9277,6702 -276,0 0,-733 552,0 0,733 -276,0 z" style="fill:none;stroke:#000;stroke-width:50"/></g></g></g></g></g></g></svg>