<svg xmlns="http://www.w3.org/2000/svg" xmlns:ooo="http://xml.openoffice.org/svg/export" xmlns:svg="http://www.w3.org/2000/svg" id="svg2" width="444.598" height="239.173" clip-path="url(#presentation_clip_path)" style="fill-rule:evenodd;stroke-width:28.22200012;stroke-linejoin:round" preserveAspectRatio="xMidYMid" version="1.2" viewBox="0 0 12547.53 6750" xml:space="preserve"><metadata id="metadata283"/><defs id="defs4" class="ClipPathGroup"><clipPath id="presentation_clip_path" clipPathUnits="userSpaceOnUse"><rect id="rect7" width="21590" height="27940" x="0" y="0"/></clipPath></defs><defs id="defs13" class="EmbeddedBulletChars"><g id="bullet-char-template(57356)" transform="scale(4.8828125e-4,-4.8828125e-4)"><path id="path16" d="M 580,1141 1163,571 580,0 -4,571 580,1141 z"/></g><g id="bullet-char-template(57354)" transform="scale(4.8828125e-4,-4.8828125e-4)"><path id="path19" d="m 8,1128 1129,0 L 1137,0 8,0 8,1128 z"/></g><g id="bullet-char-template(10146)" transform="scale(4.8828125e-4,-4.8828125e-4)"><path id="path22" d="M 174,0 602,739 174,1481 1456,739 174,0 z m 1184,739 -1049,607 350,-607 699,0 z"/></g><g id="bullet-char-template(10132)" transform="scale(4.8828125e-4,-4.8828125e-4)"><path id="path25" d="M 2015,739 1276,0 717,0 l 543,543 -1086,0 0,393 1086,0 -543,545 557,0 741,-742 z"/></g><g id="bullet-char-template(10007)" transform="scale(4.8828125e-4,-4.8828125e-4)"><path id="path28" d="m 0,-2 c -7,16 -16,29 -25,39 l 381,530 c -94,256 -141,385 -141,387 0,25 13,38 40,38 9,0 21,-2 34,-5 21,4 42,12 65,25 l 27,-13 111,-251 280,301 64,-25 24,25 c 21,-10 41,-24 62,-43 C 886,937 835,863 770,784 769,783 710,716 594,584 L 774,223 c 0,-27 -21,-55 -63,-84 l 16,-20 C 717,90 699,76 672,76 641,76 570,178 457,381 L 164,-76 c -22,-34 -53,-51 -92,-51 -42,0 -63,17 -64,51 -7,9 -10,24 -10,44 0,9 1,19 2,30 z"/></g><g id="bullet-char-template(10004)" transform="scale(4.8828125e-4,-4.8828125e-4)"><path id="path31" d="M 285,-33 C 182,-33 111,30 74,156 52,228 41,333 41,471 c 0,78 14,145 41,201 34,71 87,106 158,106 53,0 88,-31 106,-94 l 23,-176 c 8,-64 28,-97 59,-98 l 735,706 c 11,11 33,17 66,17 42,0 63,-15 63,-46 l 0,-122 c 0,-36 -10,-64 -30,-84 L 442,47 C 390,-6 338,-33 285,-33 z"/></g><g id="bullet-char-template(9679)" transform="scale(4.8828125e-4,-4.8828125e-4)"><path id="path34" d="M 813,0 C 632,0 489,54 383,161 276,268 223,411 223,592 c 0,181 53,324 160,431 106,107 249,161 430,161 179,0 323,-54 432,-161 108,-107 162,-251 162,-431 0,-180 -54,-324 -162,-431 C 1136,54 992,0 813,0 z"/></g><g id="bullet-char-template(8226)" transform="scale(4.8828125e-4,-4.8828125e-4)"><path id="path37" d="m 346,457 c -73,0 -137,26 -191,78 -54,51 -81,114 -81,188 0,73 27,136 81,188 54,52 118,78 191,78 73,0 134,-26 185,-79 51,-51 77,-114 77,-187 0,-75 -25,-137 -76,-188 -50,-52 -112,-78 -186,-78 z"/></g><g id="bullet-char-template(8211)" transform="scale(4.8828125e-4,-4.8828125e-4)"><path id="path40" d="m -4,459 1139,0 0,147 -1139,0 0,-147 z"/></g></defs><g id="g49" class="SlideGroup" transform="translate(-2077.4702,-1175)"><g id="g51"><g id="id1" class="Slide" clip-path="url(#presentation_clip_path)"><g id="g54" class="Page"><g id="g56" class="Group"><g id="g58" class="com.sun.star.drawing.CustomShape"><g id="id3"><path id="path61" d="m 9050,2500 -1150,0 0,-1100 2300,0 0,1100 -1150,0 z" style="fill:none;stroke:#000;stroke-width:50"/><text id="text63" class="TextShape"><tspan id="tspan65" class="TextParagraph" font-size="388" font-weight="400" style="font-size:388px;font-weight:400;font-family:'Arial, sans-serif'"><tspan id="tspan67" x="8695" y="2085" class="TextPosition"><tspan id="tspan69" style="fill:#000;stroke:none">vlad</tspan></tspan></tspan></text></g></g><g id="g71" class="com.sun.star.drawing.CustomShape"><g id="id4"><path id="path74" d="m 7900,1400 1001,0 -251,-200 -500,0 -250,200 z" style="fill:none;stroke:#000;stroke-width:50"/></g></g></g><g id="g76" class="Group"><g id="g78" class="com.sun.star.drawing.CustomShape"><g id="id5"><path id="path81" d="m 8950,5300 -1150,0 0,-1100 2300,0 0,1100 -1150,0 z" style="fill:none;stroke:#000;stroke-width:50"/><text id="text83" class="TextShape"><tspan id="tspan85" class="TextParagraph" font-size="388" font-weight="400" style="font-size:388px;font-weight:400;font-family:'Arial, sans-serif'"><tspan id="tspan87" x="8518" y="4885" class="TextPosition"><tspan id="tspan89" style="fill:#000;stroke:none">mars</tspan></tspan></tspan></text></g></g><g id="g91" class="com.sun.star.drawing.CustomShape"><g id="id6"><path id="path94" d="m 7800,4200 1001,0 -251,-200 -500,0 -250,200 z" style="fill:none;stroke:#000;stroke-width:50"/></g></g></g><g id="g96" class="Group"><g id="g98" class="com.sun.star.drawing.CustomShape"><g id="id7"><path id="path101" d="m 4050,5300 -1150,0 0,-1100 2300,0 0,1100 -1150,0 z" style="fill:none;stroke:#000;stroke-width:50"/><text id="text103" class="TextShape"><tspan id="tspan105" class="TextParagraph" font-size="388" font-weight="400" style="font-size:388px;font-weight:400;font-family:'Arial, sans-serif'"><tspan id="tspan107" x="3532" y="4885" class="TextPosition"><tspan id="tspan109" style="fill:#000;stroke:none">venus</tspan></tspan></tspan></text></g></g><g id="g111" class="com.sun.star.drawing.CustomShape"><g id="id8"><path id="path114" d="m 2900,4200 1001,0 -251,-200 -500,0 -250,200 z" style="fill:none;stroke:#000;stroke-width:50"/></g></g></g><g id="g116" class="Group"><g id="g118" class="com.sun.star.drawing.CustomShape"><g id="id9"><path id="path121" d="m 13450,5400 -1150,0 0,-1100 2300,0 0,1100 -1150,0 z" style="fill:none;stroke:#000;stroke-width:50"/><text id="text123" class="TextShape"><tspan id="tspan125" class="TextParagraph" font-size="388" font-weight="400" style="font-size:388px;font-weight:400;font-family:'Arial, sans-serif'"><tspan id="tspan127" x="13029" y="4985" class="TextPosition"><tspan id="tspan129" style="fill:#000;stroke:none">pluto</tspan></tspan></tspan></text></g></g><g id="g131" class="com.sun.star.drawing.CustomShape"><g id="id10"><path id="path134" d="m 12300,4300 1001,0 -251,-200 -500,0 -250,200 z" style="fill:none;stroke:#000;stroke-width:50"/></g></g></g><g id="g136" class="com.sun.star.drawing.LineShape"><g id="id11"><path id="path139" d="m 4200,3100 9300,0" style="fill:none;stroke:#000"/></g></g><g id="g141" class="com.sun.star.drawing.LineShape"><g id="id12"><path id="path144" d="m 4200,3100 0,470" style="fill:none;stroke:#000"/><path id="path146" d="m 4200,4000 150,-450 -300,0 150,450 z" style="fill:#000;stroke:none"/></g></g><g id="g148" class="com.sun.star.drawing.LineShape"><g id="id13"><path id="path151" d="m 9100,3100 0,470" style="fill:none;stroke:#000"/><path id="path153" d="m 9100,4000 150,-450 -300,0 150,450 z" style="fill:#000;stroke:none"/></g></g><g id="g155" class="com.sun.star.drawing.LineShape"><g id="id14"><path id="path158" d="m 13500,3100 0,470" style="fill:none;stroke:#000"/><path id="path160" d="m 13500,4000 150,-450 -300,0 150,450 z" style="fill:#000;stroke:none"/></g></g><g id="g162" class="com.sun.star.drawing.LineShape"><g id="id15"><path id="path165" d="m 13501,5400 0,770" style="fill:none;stroke:#000"/><path id="path167" d="m 13501,6600 150,-450 -300,0 150,450 z" style="fill:#000;stroke:none"/></g></g><g id="g169" class="com.sun.star.drawing.LineShape"><g id="id16"><path id="path172" d="m 9100,2500 0,600" style="fill:none;stroke:#000"/></g></g><g id="g174" class="Group"><g id="g176" class="com.sun.star.drawing.CustomShape"><g id="id17"><path id="path179" d="m 13450,7900 -1150,0 0,-1100 2300,0 0,1100 -1150,0 z" style="fill:none;stroke:#000;stroke-width:50"/><text id="text181" class="TextShape"><tspan id="tspan183" class="TextParagraph" font-size="388" font-weight="400" style="font-size:388px;font-weight:400;font-family:'Arial, sans-serif'"><tspan id="tspan185" x="12976" y="7485" class="TextPosition"><tspan id="tspan187" style="fill:#000;stroke:none">notes</tspan></tspan></tspan></text></g></g><g id="g189" class="com.sun.star.drawing.CustomShape"><g id="id18"><path id="path192" d="m 12300,6800 1001,0 -251,-200 -500,0 -250,200 z" style="fill:none;stroke:#000;stroke-width:50"/></g></g></g><g id="g194" class="com.sun.star.drawing.LineShape"><g id="id19"><path id="path197" d="m 9101,5400 0,770" style="fill:none;stroke:#000"/><path id="path199" d="m 9101,6600 150,-450 -300,0 150,450 z" style="fill:#000;stroke:none"/></g></g><g id="g201" class="Group"><g id="g203" class="com.sun.star.drawing.CustomShape"><g id="id20"><path id="path206" d="m 9050,7900 -1150,0 0,-1100 2300,0 0,1100 -1150,0 z" style="fill:none;stroke:#000;stroke-width:50"/><text id="text208" class="TextShape"><tspan id="tspan210" class="TextParagraph" font-size="388" font-weight="400" style="font-size:388px;font-weight:400;font-family:'Arial, sans-serif'"><tspan id="tspan212" x="8576" y="7485" class="TextPosition"><tspan id="tspan214" style="fill:#000;stroke:none">notes</tspan></tspan></tspan></text></g></g><g id="g216" class="com.sun.star.drawing.CustomShape"><g id="id21"><path id="path219" d="m 7900,6800 1001,0 -251,-200 -500,0 -250,200 z" style="fill:none;stroke:#000;stroke-width:50"/></g></g></g><g id="g221" class="com.sun.star.drawing.LineShape"><g id="id22"><path id="path224" d="m 4201,5400 0,770" style="fill:none;stroke:#000"/><path id="path226" d="m 4201,6600 150,-450 -300,0 150,450 z" style="fill:#000;stroke:none"/></g></g><g id="g228" class="Group"><g id="g230" class="com.sun.star.drawing.CustomShape"><g id="id23"><path id="path233" d="m 4150,7900 -1150,0 0,-1100 2300,0 0,1100 -1150,0 z" style="fill:none;stroke:#000;stroke-width:50"/><text id="text235" class="TextShape"><tspan id="tspan237" class="TextParagraph" font-size="388" font-weight="400" style="font-size:388px;font-weight:400;font-family:'Arial, sans-serif'"><tspan id="tspan239" x="3676" y="7485" class="TextPosition"><tspan id="tspan241" style="fill:#000;stroke:none">notes</tspan></tspan></tspan></text></g></g><g id="g243" class="com.sun.star.drawing.CustomShape"><g id="id24"><path id="path246" d="m 3000,6800 1001,0 -251,-200 -500,0 -250,200 z" style="fill:none;stroke:#000;stroke-width:50"/></g></g></g><g id="g248" class="com.sun.star.drawing.TextShape"><g id="id25"><text id="text251" class="TextShape"><tspan id="tspan253" class="TextParagraph" font-size="423" font-weight="400" style="font-size:423px;font-weight:400;font-family:'Arial, sans-serif'"><tspan id="tspan255" x="2050" y="4885" class="TextPosition"><tspan id="tspan257" style="fill:#000;stroke:none">r-x</tspan></tspan></tspan></text></g></g><g id="g259" class="com.sun.star.drawing.TextShape"><g id="id26"><text id="text262" class="TextShape"><tspan id="tspan264" class="TextParagraph" font-size="423" font-weight="400" style="font-size:423px;font-weight:400;font-family:'Arial, sans-serif'"><tspan id="tspan266" x="6951" y="4886" class="TextPosition"><tspan id="tspan268" style="fill:#000;stroke:none">r--</tspan></tspan></tspan></text></g></g><g id="g270" class="com.sun.star.drawing.TextShape"><g id="id27"><text id="text273" class="TextShape"><tspan id="tspan275" class="TextParagraph" font-size="423" font-weight="400" style="font-size:423px;font-weight:400;font-family:'Arial, sans-serif'"><tspan id="tspan277" x="11552" y="4887" class="TextPosition"><tspan id="tspan279" style="fill:#000;stroke:none">--x</tspan></tspan></tspan></text></g></g></g></g></g></g></svg>