<svg xmlns="http://www.w3.org/2000/svg" xmlns:ooo="http://xml.openoffice.org/svg/export" xmlns:svg="http://www.w3.org/2000/svg" id="svg2" width="454.579" height="294.129" clip-path="url(#presentation_clip_path)" style="fill-rule:evenodd;stroke-width:28.22200012;stroke-linejoin:round" preserveAspectRatio="xMidYMid" version="1.2" viewBox="0 0 12829.222 8300.986" xml:space="preserve"><metadata id="metadata624"/><defs id="defs4" class="ClipPathGroup"><clipPath id="presentation_clip_path" clipPathUnits="userSpaceOnUse"><rect id="rect7" width="21590" height="27940" x="0" y="0"/></clipPath></defs><defs id="defs13" class="EmbeddedBulletChars"><g id="bullet-char-template(57356)" transform="scale(4.8828125e-4,-4.8828125e-4)"><path id="path16" d="M 580,1141 1163,571 580,0 -4,571 580,1141 z"/></g><g id="bullet-char-template(57354)" transform="scale(4.8828125e-4,-4.8828125e-4)"><path id="path19" d="m 8,1128 1129,0 L 1137,0 8,0 8,1128 z"/></g><g id="bullet-char-template(10146)" transform="scale(4.8828125e-4,-4.8828125e-4)"><path id="path22" d="M 174,0 602,739 174,1481 1456,739 174,0 z m 1184,739 -1049,607 350,-607 699,0 z"/></g><g id="bullet-char-template(10132)" transform="scale(4.8828125e-4,-4.8828125e-4)"><path id="path25" d="M 2015,739 1276,0 717,0 l 543,543 -1086,0 0,393 1086,0 -543,545 557,0 741,-742 z"/></g><g id="bullet-char-template(10007)" transform="scale(4.8828125e-4,-4.8828125e-4)"><path id="path28" d="m 0,-2 c -7,16 -16,29 -25,39 l 381,530 c -94,256 -141,385 -141,387 0,25 13,38 40,38 9,0 21,-2 34,-5 21,4 42,12 65,25 l 27,-13 111,-251 280,301 64,-25 24,25 c 21,-10 41,-24 62,-43 C 886,937 835,863 770,784 769,783 710,716 594,584 L 774,223 c 0,-27 -21,-55 -63,-84 l 16,-20 C 717,90 699,76 672,76 641,76 570,178 457,381 L 164,-76 c -22,-34 -53,-51 -92,-51 -42,0 -63,17 -64,51 -7,9 -10,24 -10,44 0,9 1,19 2,30 z"/></g><g id="bullet-char-template(10004)" transform="scale(4.8828125e-4,-4.8828125e-4)"><path id="path31" d="M 285,-33 C 182,-33 111,30 74,156 52,228 41,333 41,471 c 0,78 14,145 41,201 34,71 87,106 158,106 53,0 88,-31 106,-94 l 23,-176 c 8,-64 28,-97 59,-98 l 735,706 c 11,11 33,17 66,17 42,0 63,-15 63,-46 l 0,-122 c 0,-36 -10,-64 -30,-84 L 442,47 C 390,-6 338,-33 285,-33 z"/></g><g id="bullet-char-template(9679)" transform="scale(4.8828125e-4,-4.8828125e-4)"><path id="path34" d="M 813,0 C 632,0 489,54 383,161 276,268 223,411 223,592 c 0,181 53,324 160,431 106,107 249,161 430,161 179,0 323,-54 432,-161 108,-107 162,-251 162,-431 0,-180 -54,-324 -162,-431 C 1136,54 992,0 813,0 z"/></g><g id="bullet-char-template(8226)" transform="scale(4.8828125e-4,-4.8828125e-4)"><path id="path37" d="m 346,457 c -73,0 -137,26 -191,78 -54,51 -81,114 -81,188 0,73 27,136 81,188 54,52 118,78 191,78 73,0 134,-26 185,-79 51,-51 77,-114 77,-187 0,-75 -25,-137 -76,-188 -50,-52 -112,-78 -186,-78 z"/></g><g id="bullet-char-template(8211)" transform="scale(4.8828125e-4,-4.8828125e-4)"><path id="path40" d="m -4,459 1139,0 0,147 -1139,0 0,-147 z"/></g></defs><g id="g49" class="SlideGroup" transform="translate(-1185.889,-1314.125)"><g id="g51"><g id="id1" class="Slide" clip-path="url(#presentation_clip_path)"><g id="g54" class="Page"><g id="g56" class="com.sun.star.drawing.TextShape"><g id="id3"><text id="text59" class="TextShape"><tspan id="tspan61" class="TextParagraph" font-size="388" font-weight="400" style="font-size:388px;font-weight:400;font-family:'Arial, sans-serif'"><tspan id="tspan63" x="1450" y="2276" class="TextPosition"><tspan id="tspan65" style="fill:#000;stroke:none">619</tspan></tspan></tspan></text></g></g><g id="g67" class="com.sun.star.drawing.TextShape"><g id="id4"><text id="text70" class="TextShape"><tspan id="tspan72" class="TextParagraph" font-size="388" font-weight="400" style="font-size:388px;font-weight:400;font-family:'Arial, sans-serif'"><tspan id="tspan74" x="2450" y="2276" class="TextPosition"><tspan id="tspan76" style="fill:#000;stroke:none">DR-1</tspan></tspan></tspan></text></g></g><g id="g78" class="com.sun.star.drawing.TextShape"><g id="id5"><text id="text81" class="TextShape"><tspan id="tspan83" class="TextParagraph" font-size="388" font-weight="400" style="font-size:388px;font-weight:400;font-family:'Arial, sans-serif'"><tspan id="tspan85" x="3850" y="2276" class="TextPosition"><tspan id="tspan87" style="fill:#000;stroke:none">1927-02-08</tspan></tspan></tspan></text></g></g><g id="g89" class="com.sun.star.drawing.TextShape"><g id="id6"><text id="text92" class="TextShape"><tspan id="tspan94" class="TextParagraph" font-size="388" font-weight="400" style="font-size:388px;font-weight:400;font-family:'Arial, sans-serif'"><tspan id="tspan96" x="1450" y="2877" class="TextPosition"><tspan id="tspan98" style="fill:#000;stroke:none">622</tspan></tspan></tspan></text></g></g><g id="g100" class="com.sun.star.drawing.TextShape"><g id="id7"><text id="text103" class="TextShape"><tspan id="tspan105" class="TextParagraph" font-size="388" font-weight="400" style="font-size:388px;font-weight:400;font-family:'Arial, sans-serif'"><tspan id="tspan107" x="2450" y="2877" class="TextPosition"><tspan id="tspan109" style="fill:#000;stroke:none">DR-1</tspan></tspan></tspan></text></g></g><g id="g111" class="com.sun.star.drawing.TextShape"><g id="id8"><text id="text114" class="TextShape"><tspan id="tspan116" class="TextParagraph" font-size="388" font-weight="400" style="font-size:388px;font-weight:400;font-family:'Arial, sans-serif'"><tspan id="tspan118" x="3850" y="2877" class="TextPosition"><tspan id="tspan120" style="fill:#000;stroke:none">1927-02-10</tspan></tspan></tspan></text></g></g><g id="g122" class="com.sun.star.drawing.TextShape"><g id="id9"><text id="text125" class="TextShape"><tspan id="tspan127" class="TextParagraph" font-size="388" font-weight="400" style="font-size:388px;font-weight:400;font-family:'Arial, sans-serif'"><tspan id="tspan129" x="1450" y="3378" class="TextPosition"><tspan id="tspan131" style="fill:#000;stroke:none">734</tspan></tspan></tspan></text></g></g><g id="g133" class="com.sun.star.drawing.TextShape"><g id="id10"><text id="text136" class="TextShape"><tspan id="tspan138" class="TextParagraph" font-size="388" font-weight="400" style="font-size:388px;font-weight:400;font-family:'Arial, sans-serif'"><tspan id="tspan140" x="2450" y="3378" class="TextPosition"><tspan id="tspan142" style="fill:#000;stroke:none">DR-3</tspan></tspan></tspan></text></g></g><g id="g144" class="com.sun.star.drawing.TextShape"><g id="id11"><text id="text147" class="TextShape"><tspan id="tspan149" class="TextParagraph" font-size="388" font-weight="400" style="font-size:388px;font-weight:400;font-family:'Arial, sans-serif'"><tspan id="tspan151" x="3850" y="3378" class="TextPosition"><tspan id="tspan153" style="fill:#000;stroke:none">1939-01-07</tspan></tspan></tspan></text></g></g><g id="g155" class="com.sun.star.drawing.TextShape"><g id="id12"><text id="text158" class="TextShape"><tspan id="tspan160" class="TextParagraph" font-size="388" font-weight="400" style="font-size:388px;font-weight:400;font-family:'Arial, sans-serif'"><tspan id="tspan162" x="1450" y="4079" class="TextPosition"><tspan id="tspan164" style="fill:#000;stroke:none">735</tspan></tspan></tspan></text></g></g><g id="g166" class="com.sun.star.drawing.TextShape"><g id="id13"><text id="text169" class="TextShape"><tspan id="tspan171" class="TextParagraph" font-size="388" font-weight="400" style="font-size:388px;font-weight:400;font-family:'Arial, sans-serif'"><tspan id="tspan173" x="2450" y="4079" class="TextPosition"><tspan id="tspan175" style="fill:#000;stroke:none">DR-3</tspan></tspan></tspan></text></g></g><g id="g177" class="com.sun.star.drawing.TextShape"><g id="id14"><text id="text180" class="TextShape"><tspan id="tspan182" class="TextParagraph" font-size="388" font-weight="400" style="font-size:388px;font-weight:400;font-family:'Arial, sans-serif'"><tspan id="tspan184" x="3850" y="4079" class="TextPosition"><tspan id="tspan186" style="fill:#000;stroke:none">1939-01-12</tspan></tspan></tspan></text></g></g><g id="g188" class="com.sun.star.drawing.TextShape"><g id="id15"><text id="text191" class="TextShape"><tspan id="tspan193" class="TextParagraph" font-size="388" font-weight="400" style="font-size:388px;font-weight:400;font-family:'Arial, sans-serif'"><tspan id="tspan195" x="1450" y="4680" class="TextPosition"><tspan id="tspan197" style="fill:#000;stroke:none">751</tspan></tspan></tspan></text></g></g><g id="g199" class="com.sun.star.drawing.TextShape"><g id="id16"><text id="text202" class="TextShape"><tspan id="tspan204" class="TextParagraph" font-size="388" font-weight="400" style="font-size:388px;font-weight:400;font-family:'Arial, sans-serif'"><tspan id="tspan206" x="2450" y="4680" class="TextPosition"><tspan id="tspan208" style="fill:#000;stroke:none">DR-3</tspan></tspan></tspan></text></g></g><g id="g210" class="com.sun.star.drawing.TextShape"><g id="id17"><text id="text213" class="TextShape"><tspan id="tspan215" class="TextParagraph" font-size="388" font-weight="400" style="font-size:388px;font-weight:400;font-family:'Arial, sans-serif'"><tspan id="tspan217" x="3850" y="4680" class="TextPosition"><tspan id="tspan219" style="fill:#000;stroke:none">1939-02-26</tspan></tspan></tspan></text></g></g><g id="g221" class="com.sun.star.drawing.TextShape"><g id="id18"><text id="text224" class="TextShape"><tspan id="tspan226" class="TextParagraph" font-size="388" font-weight="400" style="font-size:388px;font-weight:400;font-family:'Arial, sans-serif'"><tspan id="tspan228" x="1450" y="5281" class="TextPosition"><tspan id="tspan230" style="fill:#000;stroke:none">752</tspan></tspan></tspan></text></g></g><g id="g232" class="com.sun.star.drawing.TextShape"><g id="id19"><text id="text235" class="TextShape"><tspan id="tspan237" class="TextParagraph" font-size="388" font-weight="400" style="font-size:388px;font-weight:400;font-family:'Arial, sans-serif'"><tspan id="tspan239" x="2450" y="5281" class="TextPosition"><tspan id="tspan241" style="fill:#000;stroke:none">DR-3</tspan></tspan></tspan></text></g></g><g id="g243" class="com.sun.star.drawing.TextShape"><g id="id20"><text id="text246" class="TextShape"><tspan id="tspan248" class="TextParagraph" font-size="388" font-weight="400" style="font-size:388px;font-weight:400;font-family:'Arial, sans-serif'"><tspan id="tspan250" x="1450" y="5881" class="TextPosition"><tspan id="tspan252" style="fill:#000;stroke:none">837</tspan></tspan></tspan></text></g></g><g id="g254" class="com.sun.star.drawing.TextShape"><g id="id21"><text id="text257" class="TextShape"><tspan id="tspan259" class="TextParagraph" font-size="388" font-weight="400" style="font-size:388px;font-weight:400;font-family:'Arial, sans-serif'"><tspan id="tspan261" x="2450" y="5881" class="TextPosition"><tspan id="tspan263" style="fill:#000;stroke:none">MSK-4</tspan></tspan></tspan></text></g></g><g id="g265" class="com.sun.star.drawing.TextShape"><g id="id22"><text id="text268" class="TextShape"><tspan id="tspan270" class="TextParagraph" font-size="388" font-weight="400" style="font-size:388px;font-weight:400;font-family:'Arial, sans-serif'"><tspan id="tspan272" x="3850" y="5881" class="TextPosition"><tspan id="tspan274" style="fill:#000;stroke:none">1932-01-14</tspan></tspan></tspan></text></g></g><g id="g276" class="com.sun.star.drawing.TextShape"><g id="id23"><text id="text279" class="TextShape"><tspan id="tspan281" class="TextParagraph" font-size="388" font-weight="400" style="font-size:388px;font-weight:400;font-family:'Arial, sans-serif'"><tspan id="tspan283" x="1450" y="6393" class="TextPosition"><tspan id="tspan285" style="fill:#000;stroke:none">844</tspan></tspan></tspan></text></g></g><g id="g287" class="com.sun.star.drawing.TextShape"><g id="id24"><text id="text290" class="TextShape"><tspan id="tspan292" class="TextParagraph" font-size="388" font-weight="400" style="font-size:388px;font-weight:400;font-family:'Arial, sans-serif'"><tspan id="tspan294" x="2450" y="6393" class="TextPosition"><tspan id="tspan296" style="fill:#000;stroke:none">DR-1</tspan></tspan></tspan></text></g></g><g id="g298" class="com.sun.star.drawing.TextShape"><g id="id25"><text id="text301" class="TextShape"><tspan id="tspan303" class="TextParagraph" font-size="388" font-weight="400" style="font-size:388px;font-weight:400;font-family:'Arial, sans-serif'"><tspan id="tspan305" x="3850" y="6393" class="TextPosition"><tspan id="tspan307" style="fill:#000;stroke:none">1932-03-22</tspan></tspan></tspan></text></g></g><g id="g309" class="com.sun.star.drawing.LineShape"><g id="id26"><path id="path312" d="m 1200,1800 0,4800" style="fill:none;stroke:#000"/></g></g><g id="g314" class="com.sun.star.drawing.LineShape"><g id="id27"><path id="path317" d="m 2300,1800 0,4800" style="fill:none;stroke:#000"/></g></g><g id="g319" class="com.sun.star.drawing.LineShape"><g id="id28"><path id="path322" d="m 3700,1800 0,4800" style="fill:none;stroke:#000"/></g></g><g id="g324" class="com.sun.star.drawing.LineShape"><g id="id29"><path id="path327" d="m 6000,1800 0,4800" style="fill:none;stroke:#000"/></g></g><g id="g329" class="com.sun.star.drawing.LineShape"><g id="id30"><path id="path332" d="m 1200,1800 4800,0" style="fill:none;stroke:#000"/></g></g><g id="g334" class="com.sun.star.drawing.LineShape"><g id="id31"><path id="path337" d="m 1200,2400 4800,0" style="fill:none;stroke:#000"/></g></g><g id="g339" class="com.sun.star.drawing.LineShape"><g id="id32"><path id="path342" d="m 1200,3000 4800,0" style="fill:none;stroke:#000"/></g></g><g id="g344" class="com.sun.star.drawing.LineShape"><g id="id33"><path id="path347" d="m 1200,3600 4800,0" style="fill:none;stroke:#000"/></g></g><g id="g349" class="com.sun.star.drawing.LineShape"><g id="id34"><path id="path352" d="m 1200,4200 4800,0" style="fill:none;stroke:#000"/></g></g><g id="g354" class="com.sun.star.drawing.LineShape"><g id="id35"><path id="path357" d="m 1200,4800 4800,0" style="fill:none;stroke:#000"/></g></g><g id="g359" class="com.sun.star.drawing.LineShape"><g id="id36"><path id="path362" d="m 1200,5400 4800,0" style="fill:none;stroke:#000"/></g></g><g id="g364" class="com.sun.star.drawing.LineShape"><g id="id37"><path id="path367" d="m 1200,6000 4800,0" style="fill:none;stroke:#000"/></g></g><g id="g369" class="com.sun.star.drawing.LineShape"><g id="id38"><path id="path372" d="m 1200,6600 4800,0" style="fill:none;stroke:#000"/></g></g><g id="g374" class="com.sun.star.drawing.TextShape"><g id="id39"><text id="text377" class="TextShape"><tspan id="tspan379" class="TextParagraph" font-size="388" font-weight="400" style="font-size:388px;font-weight:400;font-family:'Arial, sans-serif'"><tspan id="tspan381" x="7084" y="1593" class="TextPosition"><tspan id="tspan383" style="fill:#000;stroke:none">1. select date</tspan></tspan></tspan></text></g></g><g id="g385" class="com.sun.star.drawing.LineShape"><g id="id40"><path id="path388" d="m 6300,2100 4670,0" style="fill:none;stroke:#000"/><path id="path390" d="m 11400,2100 -450,-150 0,300 450,-150 z" style="fill:#000;stroke:none"/></g></g><g id="g392" class="com.sun.star.drawing.LineShape"><g id="id41"><path id="path395" d="m 6300,2700 4670,0" style="fill:none;stroke:#000"/><path id="path397" d="m 11400,2700 -450,-150 0,300 450,-150 z" style="fill:#000;stroke:none"/></g></g><g id="g399" class="com.sun.star.drawing.LineShape"><g id="id42"><path id="path402" d="m 6300,6300 4670,0" style="fill:none;stroke:#000"/><path id="path404" d="m 11400,6300 -450,-150 0,300 450,-150 z" style="fill:#000;stroke:none"/></g></g><g id="g406" class="com.sun.star.drawing.LineShape"><g id="id43"><path id="path409" d="m 12900,6900 0,1470" style="fill:none;stroke:#000"/><path id="path411" d="m 12900,8800 150,-450 -300,0 150,450 z" style="fill:#000;stroke:none"/></g></g><g id="g413" class="com.sun.star.drawing.TextShape"><g id="id44"><text id="text416" class="TextShape"><tspan id="tspan418" class="TextParagraph" font-size="388" font-weight="400" style="font-size:388px;font-weight:400;font-family:'Arial, sans-serif'"><tspan id="tspan420" x="10750" y="7993" class="TextPosition"><tspan id="tspan422" style="fill:#000;stroke:none">2. min</tspan></tspan></tspan></text></g></g><g id="g424" class="com.sun.star.drawing.TextShape"><g id="id45"><text id="text427" class="TextShape"><tspan id="tspan429" class="TextParagraph" font-size="388" font-weight="400" style="font-size:388px;font-weight:400;font-family:'Arial, sans-serif'"><tspan id="tspan431" x="11851" y="2276" class="TextPosition"><tspan id="tspan433" style="fill:#000;stroke:none">1927-02-08</tspan></tspan></tspan></text></g></g><g id="g435" class="com.sun.star.drawing.TextShape"><g id="id46"><text id="text438" class="TextShape"><tspan id="tspan440" class="TextParagraph" font-size="388" font-weight="400" style="font-size:388px;font-weight:400;font-family:'Arial, sans-serif'"><tspan id="tspan442" x="11851" y="2877" class="TextPosition"><tspan id="tspan444" style="fill:#000;stroke:none">1927-02-10</tspan></tspan></tspan></text></g></g><g id="g446" class="com.sun.star.drawing.TextShape"><g id="id47"><text id="text449" class="TextShape"><tspan id="tspan451" class="TextParagraph" font-size="388" font-weight="400" style="font-size:388px;font-weight:400;font-family:'Arial, sans-serif'"><tspan id="tspan453" x="11851" y="3378" class="TextPosition"><tspan id="tspan455" style="fill:#000;stroke:none">1939-01-07</tspan></tspan></tspan></text></g></g><g id="g457" class="com.sun.star.drawing.TextShape"><g id="id48"><text id="text460" class="TextShape"><tspan id="tspan462" class="TextParagraph" font-size="388" font-weight="400" style="font-size:388px;font-weight:400;font-family:'Arial, sans-serif'"><tspan id="tspan464" x="11851" y="4079" class="TextPosition"><tspan id="tspan466" style="fill:#000;stroke:none">1939-01-12</tspan></tspan></tspan></text></g></g><g id="g468" class="com.sun.star.drawing.TextShape"><g id="id49"><text id="text471" class="TextShape"><tspan id="tspan473" class="TextParagraph" font-size="388" font-weight="400" style="font-size:388px;font-weight:400;font-family:'Arial, sans-serif'"><tspan id="tspan475" x="11851" y="4680" class="TextPosition"><tspan id="tspan477" style="fill:#000;stroke:none">1939-02-26</tspan></tspan></tspan></text></g></g><g id="g479" class="com.sun.star.drawing.TextShape"><g id="id50"><text id="text482" class="TextShape"><tspan id="tspan484" class="TextParagraph" font-size="388" font-weight="400" style="font-size:388px;font-weight:400;font-family:'Arial, sans-serif'"><tspan id="tspan486" x="11851" y="5881" class="TextPosition"><tspan id="tspan488" style="fill:#000;stroke:none">1932-01-14</tspan></tspan></tspan></text></g></g><g id="g490" class="com.sun.star.drawing.TextShape"><g id="id51"><text id="text493" class="TextShape"><tspan id="tspan495" class="TextParagraph" font-size="388" font-weight="400" style="font-size:388px;font-weight:400;font-family:'Arial, sans-serif'"><tspan id="tspan497" x="11851" y="6393" class="TextPosition"><tspan id="tspan499" style="fill:#000;stroke:none">1932-03-22</tspan></tspan></tspan></text></g></g><g id="g501" class="com.sun.star.drawing.LineShape"><g id="id52"><path id="path504" d="m 11701,1800 0,4800" style="fill:none;stroke:#000"/></g></g><g id="g506" class="com.sun.star.drawing.LineShape"><g id="id53"><path id="path509" d="m 14001,1800 0,4800" style="fill:none;stroke:#000"/></g></g><g id="g511" class="com.sun.star.drawing.LineShape"><g id="id54"><path id="path514" d="m 11700,1800 2300,0" style="fill:none;stroke:#000"/></g></g><g id="g516" class="com.sun.star.drawing.LineShape"><g id="id55"><path id="path519" d="m 11700,2400 2300,0" style="fill:none;stroke:#000"/></g></g><g id="g521" class="com.sun.star.drawing.LineShape"><g id="id56"><path id="path524" d="m 11700,3600 2300,0" style="fill:none;stroke:#000"/></g></g><g id="g526" class="com.sun.star.drawing.LineShape"><g id="id57"><path id="path529" d="m 11700,4200 2300,0" style="fill:none;stroke:#000"/></g></g><g id="g531" class="com.sun.star.drawing.LineShape"><g id="id58"><path id="path534" d="m 11700,4800 2300,0" style="fill:none;stroke:#000"/></g></g><g id="g536" class="com.sun.star.drawing.LineShape"><g id="id59"><path id="path539" d="m 11700,6000 2300,0" style="fill:none;stroke:#000"/></g></g><g id="g541" class="com.sun.star.drawing.LineShape"><g id="id60"><path id="path544" d="m 11700,6600 2300,0" style="fill:none;stroke:#000"/></g></g><g id="g546" class="com.sun.star.drawing.LineShape"><g id="id61"><path id="path549" d="m 11700,3000 2300,0" style="fill:none;stroke:#000"/></g></g><g id="g551" class="com.sun.star.drawing.LineShape"><g id="id62"><path id="path554" d="m 11700,5400 2300,0" style="fill:none;stroke:#000"/></g></g><g id="g556" class="com.sun.star.drawing.TextShape"><g id="id63"><text id="text559" class="TextShape"><tspan id="tspan561" class="TextParagraph" font-size="388" font-weight="400" style="font-size:388px;font-weight:400;font-family:'Arial, sans-serif'"><tspan id="tspan563" x="11852" y="9477" class="TextPosition"><tspan id="tspan565" style="fill:#000;stroke:none">1927-02-08</tspan></tspan></tspan></text></g></g><g id="g567" class="com.sun.star.drawing.LineShape"><g id="id64"><path id="path570" d="m 11701,9001 2300,0" style="fill:none;stroke:#000"/></g></g><g id="g572" class="com.sun.star.drawing.LineShape"><g id="id65"><path id="path575" d="m 11701,9601 2300,0" style="fill:none;stroke:#000"/></g></g><g id="g577" class="com.sun.star.drawing.LineShape"><g id="id66"><path id="path580" d="m 11701,9000 0,600" style="fill:none;stroke:#000"/></g></g><g id="g582" class="com.sun.star.drawing.LineShape"><g id="id67"><path id="path585" d="m 14001,9000 0,600" style="fill:none;stroke:#000"/></g></g><g id="g587" class="com.sun.star.drawing.LineShape"><g id="id68"><path id="path590" d="m 6300,3300 4670,0" style="fill:none;stroke:#000"/><path id="path592" d="m 11400,3300 -450,-150 0,300 450,-150 z" style="fill:#000;stroke:none"/></g></g><g id="g594" class="com.sun.star.drawing.LineShape"><g id="id69"><path id="path597" d="m 6300,3900 4670,0" style="fill:none;stroke:#000"/><path id="path599" d="m 11400,3900 -450,-150 0,300 450,-150 z" style="fill:#000;stroke:none"/></g></g><g id="g601" class="com.sun.star.drawing.LineShape"><g id="id70"><path id="path604" d="m 6300,4500 4670,0" style="fill:none;stroke:#000"/><path id="path606" d="m 11400,4500 -450,-150 0,300 450,-150 z" style="fill:#000;stroke:none"/></g></g><g id="g608" class="com.sun.star.drawing.LineShape"><g id="id71"><path id="path611" d="m 6300,5100 4670,0" style="fill:none;stroke:#000"/><path id="path613" d="m 11400,5100 -450,-150 0,300 450,-150 z" style="fill:#000;stroke:none"/></g></g><g id="g615" class="com.sun.star.drawing.LineShape"><g id="id72"><path id="path618" d="m 6300,5700 4670,0" style="fill:none;stroke:#000"/><path id="path620" d="m 11400,5700 -450,-150 0,300 450,-150 z" style="fill:#000;stroke:none"/></g></g></g></g></g></g></svg>