<svg xmlns="http://www.w3.org/2000/svg" xmlns:ooo="http://xml.openoffice.org/svg/export" xmlns:svg="http://www.w3.org/2000/svg" id="svg5166" width="553.827" height="340.157" clip-path="url(#presentation_clip_path)" style="fill-rule:evenodd;stroke-width:28.22200012;stroke-linejoin:round" preserveAspectRatio="xMidYMid" version="1.2" viewBox="0 0 15630.223 9599.986" xml:space="preserve"><metadata id="metadata5920"/><defs id="defs5168" class="ClipPathGroup"><clipPath id="presentation_clip_path" clipPathUnits="userSpaceOnUse"><rect id="rect5171" width="21590" height="27940" x="0" y="0"/></clipPath></defs><defs id="defs5177" class="EmbeddedBulletChars"><g id="bullet-char-template(57356)" transform="scale(4.8828125e-4,-4.8828125e-4)"><path id="path5180" d="M 580,1141 1163,571 580,0 -4,571 580,1141 z"/></g><g id="bullet-char-template(57354)" transform="scale(4.8828125e-4,-4.8828125e-4)"><path id="path5183" d="m 8,1128 1129,0 L 1137,0 8,0 8,1128 z"/></g><g id="bullet-char-template(10146)" transform="scale(4.8828125e-4,-4.8828125e-4)"><path id="path5186" d="M 174,0 602,739 174,1481 1456,739 174,0 z m 1184,739 -1049,607 350,-607 699,0 z"/></g><g id="bullet-char-template(10132)" transform="scale(4.8828125e-4,-4.8828125e-4)"><path id="path5189" d="M 2015,739 1276,0 717,0 l 543,543 -1086,0 0,393 1086,0 -543,545 557,0 741,-742 z"/></g><g id="bullet-char-template(10007)" transform="scale(4.8828125e-4,-4.8828125e-4)"><path id="path5192" d="m 0,-2 c -7,16 -16,29 -25,39 l 381,530 c -94,256 -141,385 -141,387 0,25 13,38 40,38 9,0 21,-2 34,-5 21,4 42,12 65,25 l 27,-13 111,-251 280,301 64,-25 24,25 c 21,-10 41,-24 62,-43 C 886,937 835,863 770,784 769,783 710,716 594,584 L 774,223 c 0,-27 -21,-55 -63,-84 l 16,-20 C 717,90 699,76 672,76 641,76 570,178 457,381 L 164,-76 c -22,-34 -53,-51 -92,-51 -42,0 -63,17 -64,51 -7,9 -10,24 -10,44 0,9 1,19 2,30 z"/></g><g id="bullet-char-template(10004)" transform="scale(4.8828125e-4,-4.8828125e-4)"><path id="path5195" d="M 285,-33 C 182,-33 111,30 74,156 52,228 41,333 41,471 c 0,78 14,145 41,201 34,71 87,106 158,106 53,0 88,-31 106,-94 l 23,-176 c 8,-64 28,-97 59,-98 l 735,706 c 11,11 33,17 66,17 42,0 63,-15 63,-46 l 0,-122 c 0,-36 -10,-64 -30,-84 L 442,47 C 390,-6 338,-33 285,-33 z"/></g><g id="bullet-char-template(9679)" transform="scale(4.8828125e-4,-4.8828125e-4)"><path id="path5198" d="M 813,0 C 632,0 489,54 383,161 276,268 223,411 223,592 c 0,181 53,324 160,431 106,107 249,161 430,161 179,0 323,-54 432,-161 108,-107 162,-251 162,-431 0,-180 -54,-324 -162,-431 C 1136,54 992,0 813,0 z"/></g><g id="bullet-char-template(8226)" transform="scale(4.8828125e-4,-4.8828125e-4)"><path id="path5201" d="m 346,457 c -73,0 -137,26 -191,78 -54,51 -81,114 -81,188 0,73 27,136 81,188 54,52 118,78 191,78 73,0 134,-26 185,-79 51,-51 77,-114 77,-187 0,-75 -25,-137 -76,-188 -50,-52 -112,-78 -186,-78 z"/></g><g id="bullet-char-template(8211)" transform="scale(4.8828125e-4,-4.8828125e-4)"><path id="path5204" d="m -4,459 1139,0 0,147 -1139,0 0,-147 z"/></g></defs><g id="g5213" class="SlideGroup" transform="translate(-1185.889,-1314.125)"><g id="g5215"><g id="id1" class="Slide" clip-path="url(#presentation_clip_path)"><g id="g5218" class="Page"><g id="g5220" class="com.sun.star.drawing.TextShape"><g id="id3"><text id="text5223" class="TextShape"><tspan id="tspan5225" class="TextParagraph" font-size="388" font-weight="400" style="font-size:388px;font-weight:400;font-family:'Arial, sans-serif'"><tspan id="tspan5227" x="1450" y="2276" class="TextPosition"><tspan id="tspan5229" style="fill:#000;stroke:none">619</tspan></tspan></tspan></text></g></g><g id="g5231" class="com.sun.star.drawing.TextShape"><g id="id4"><text id="text5234" class="TextShape"><tspan id="tspan5236" class="TextParagraph" font-size="388" font-weight="400" style="font-size:388px;font-weight:400;font-family:'Arial, sans-serif'"><tspan id="tspan5238" x="2450" y="2276" class="TextPosition"><tspan id="tspan5240" style="fill:#000;stroke:none">DR-1</tspan></tspan></tspan></text></g></g><g id="g5242" class="com.sun.star.drawing.TextShape"><g id="id5"><text id="text5245" class="TextShape"><tspan id="tspan5247" class="TextParagraph" font-size="388" font-weight="400" style="font-size:388px;font-weight:400;font-family:'Arial, sans-serif'"><tspan id="tspan5249" x="3850" y="2276" class="TextPosition"><tspan id="tspan5251" style="fill:#000;stroke:none">1927-02-08</tspan></tspan></tspan></text></g></g><g id="g5253" class="com.sun.star.drawing.TextShape"><g id="id6"><text id="text5256" class="TextShape"><tspan id="tspan5258" class="TextParagraph" font-size="388" font-weight="400" style="font-size:388px;font-weight:400;font-family:'Arial, sans-serif'"><tspan id="tspan5260" x="1450" y="2877" class="TextPosition"><tspan id="tspan5262" style="fill:#000;stroke:none">622</tspan></tspan></tspan></text></g></g><g id="g5264" class="com.sun.star.drawing.TextShape"><g id="id7"><text id="text5267" class="TextShape"><tspan id="tspan5269" class="TextParagraph" font-size="388" font-weight="400" style="font-size:388px;font-weight:400;font-family:'Arial, sans-serif'"><tspan id="tspan5271" x="2450" y="2877" class="TextPosition"><tspan id="tspan5273" style="fill:#000;stroke:none">DR-1</tspan></tspan></tspan></text></g></g><g id="g5275" class="com.sun.star.drawing.TextShape"><g id="id8"><text id="text5278" class="TextShape"><tspan id="tspan5280" class="TextParagraph" font-size="388" font-weight="400" style="font-size:388px;font-weight:400;font-family:'Arial, sans-serif'"><tspan id="tspan5282" x="3850" y="2877" class="TextPosition"><tspan id="tspan5284" style="fill:#000;stroke:none">1927-02-10</tspan></tspan></tspan></text></g></g><g id="g5286" class="com.sun.star.drawing.TextShape"><g id="id9"><text id="text5289" class="TextShape"><tspan id="tspan5291" class="TextParagraph" font-size="388" font-weight="400" style="font-size:388px;font-weight:400;font-family:'Arial, sans-serif'"><tspan id="tspan5293" x="1450" y="3378" class="TextPosition"><tspan id="tspan5295" style="fill:#000;stroke:none">734</tspan></tspan></tspan></text></g></g><g id="g5297" class="com.sun.star.drawing.TextShape"><g id="id10"><text id="text5300" class="TextShape"><tspan id="tspan5302" class="TextParagraph" font-size="388" font-weight="400" style="font-size:388px;font-weight:400;font-family:'Arial, sans-serif'"><tspan id="tspan5304" x="2450" y="3378" class="TextPosition"><tspan id="tspan5306" style="fill:#000;stroke:none">DR-3</tspan></tspan></tspan></text></g></g><g id="g5308" class="com.sun.star.drawing.TextShape"><g id="id11"><text id="text5311" class="TextShape"><tspan id="tspan5313" class="TextParagraph" font-size="388" font-weight="400" style="font-size:388px;font-weight:400;font-family:'Arial, sans-serif'"><tspan id="tspan5315" x="3850" y="3378" class="TextPosition"><tspan id="tspan5317" style="fill:#000;stroke:none">1939-01-07</tspan></tspan></tspan></text></g></g><g id="g5319" class="com.sun.star.drawing.TextShape"><g id="id12"><text id="text5322" class="TextShape"><tspan id="tspan5324" class="TextParagraph" font-size="388" font-weight="400" style="font-size:388px;font-weight:400;font-family:'Arial, sans-serif'"><tspan id="tspan5326" x="1450" y="4079" class="TextPosition"><tspan id="tspan5328" style="fill:#000;stroke:none">735</tspan></tspan></tspan></text></g></g><g id="g5330" class="com.sun.star.drawing.TextShape"><g id="id13"><text id="text5333" class="TextShape"><tspan id="tspan5335" class="TextParagraph" font-size="388" font-weight="400" style="font-size:388px;font-weight:400;font-family:'Arial, sans-serif'"><tspan id="tspan5337" x="2450" y="4079" class="TextPosition"><tspan id="tspan5339" style="fill:#000;stroke:none">DR-3</tspan></tspan></tspan></text></g></g><g id="g5341" class="com.sun.star.drawing.TextShape"><g id="id14"><text id="text5344" class="TextShape"><tspan id="tspan5346" class="TextParagraph" font-size="388" font-weight="400" style="font-size:388px;font-weight:400;font-family:'Arial, sans-serif'"><tspan id="tspan5348" x="3850" y="4079" class="TextPosition"><tspan id="tspan5350" style="fill:#000;stroke:none">1939-01-12</tspan></tspan></tspan></text></g></g><g id="g5352" class="com.sun.star.drawing.TextShape"><g id="id15"><text id="text5355" class="TextShape"><tspan id="tspan5357" class="TextParagraph" font-size="388" font-weight="400" style="font-size:388px;font-weight:400;font-family:'Arial, sans-serif'"><tspan id="tspan5359" x="1450" y="4680" class="TextPosition"><tspan id="tspan5361" style="fill:#000;stroke:none">751</tspan></tspan></tspan></text></g></g><g id="g5363" class="com.sun.star.drawing.TextShape"><g id="id16"><text id="text5366" class="TextShape"><tspan id="tspan5368" class="TextParagraph" font-size="388" font-weight="400" style="font-size:388px;font-weight:400;font-family:'Arial, sans-serif'"><tspan id="tspan5370" x="2450" y="4680" class="TextPosition"><tspan id="tspan5372" style="fill:#000;stroke:none">DR-3</tspan></tspan></tspan></text></g></g><g id="g5374" class="com.sun.star.drawing.TextShape"><g id="id17"><text id="text5377" class="TextShape"><tspan id="tspan5379" class="TextParagraph" font-size="388" font-weight="400" style="font-size:388px;font-weight:400;font-family:'Arial, sans-serif'"><tspan id="tspan5381" x="3850" y="4680" class="TextPosition"><tspan id="tspan5383" style="fill:#000;stroke:none">1939-02-26</tspan></tspan></tspan></text></g></g><g id="g5385" class="com.sun.star.drawing.TextShape"><g id="id18"><text id="text5388" class="TextShape"><tspan id="tspan5390" class="TextParagraph" font-size="388" font-weight="400" style="font-size:388px;font-weight:400;font-family:'Arial, sans-serif'"><tspan id="tspan5392" x="1450" y="5281" class="TextPosition"><tspan id="tspan5394" style="fill:#000;stroke:none">752</tspan></tspan></tspan></text></g></g><g id="g5396" class="com.sun.star.drawing.TextShape"><g id="id19"><text id="text5399" class="TextShape"><tspan id="tspan5401" class="TextParagraph" font-size="388" font-weight="400" style="font-size:388px;font-weight:400;font-family:'Arial, sans-serif'"><tspan id="tspan5403" x="2450" y="5281" class="TextPosition"><tspan id="tspan5405" style="fill:#000;stroke:none">DR-3</tspan></tspan></tspan></text></g></g><g id="g5407" class="com.sun.star.drawing.TextShape"><g id="id20"><text id="text5410" class="TextShape"><tspan id="tspan5412" class="TextParagraph" font-size="388" font-weight="400" style="font-size:388px;font-weight:400;font-family:'Arial, sans-serif'"><tspan id="tspan5414" x="1450" y="5881" class="TextPosition"><tspan id="tspan5416" style="fill:#000;stroke:none">837</tspan></tspan></tspan></text></g></g><g id="g5418" class="com.sun.star.drawing.TextShape"><g id="id21"><text id="text5421" class="TextShape"><tspan id="tspan5423" class="TextParagraph" font-size="388" font-weight="400" style="font-size:388px;font-weight:400;font-family:'Arial, sans-serif'"><tspan id="tspan5425" x="2450" y="5881" class="TextPosition"><tspan id="tspan5427" style="fill:#000;stroke:none">MSK-4</tspan></tspan></tspan></text></g></g><g id="g5429" class="com.sun.star.drawing.TextShape"><g id="id22"><text id="text5432" class="TextShape"><tspan id="tspan5434" class="TextParagraph" font-size="388" font-weight="400" style="font-size:388px;font-weight:400;font-family:'Arial, sans-serif'"><tspan id="tspan5436" x="3850" y="5881" class="TextPosition"><tspan id="tspan5438" style="fill:#000;stroke:none">1932-01-14</tspan></tspan></tspan></text></g></g><g id="g5440" class="com.sun.star.drawing.TextShape"><g id="id23"><text id="text5443" class="TextShape"><tspan id="tspan5445" class="TextParagraph" font-size="388" font-weight="400" style="font-size:388px;font-weight:400;font-family:'Arial, sans-serif'"><tspan id="tspan5447" x="1450" y="6393" class="TextPosition"><tspan id="tspan5449" style="fill:#000;stroke:none">844</tspan></tspan></tspan></text></g></g><g id="g5451" class="com.sun.star.drawing.TextShape"><g id="id24"><text id="text5454" class="TextShape"><tspan id="tspan5456" class="TextParagraph" font-size="388" font-weight="400" style="font-size:388px;font-weight:400;font-family:'Arial, sans-serif'"><tspan id="tspan5458" x="2450" y="6393" class="TextPosition"><tspan id="tspan5460" style="fill:#000;stroke:none">DR-1</tspan></tspan></tspan></text></g></g><g id="g5462" class="com.sun.star.drawing.TextShape"><g id="id25"><text id="text5465" class="TextShape"><tspan id="tspan5467" class="TextParagraph" font-size="388" font-weight="400" style="font-size:388px;font-weight:400;font-family:'Arial, sans-serif'"><tspan id="tspan5469" x="3850" y="6393" class="TextPosition"><tspan id="tspan5471" style="fill:#000;stroke:none">1932-03-22</tspan></tspan></tspan></text></g></g><g id="g5473" class="com.sun.star.drawing.LineShape"><g id="id26"><path id="path5476" d="m 1200,1800 0,4800" style="fill:none;stroke:#000"/></g></g><g id="g5478" class="com.sun.star.drawing.LineShape"><g id="id27"><path id="path5481" d="m 2300,1800 0,4800" style="fill:none;stroke:#000"/></g></g><g id="g5483" class="com.sun.star.drawing.LineShape"><g id="id28"><path id="path5486" d="m 3700,1800 0,4800" style="fill:none;stroke:#000"/></g></g><g id="g5488" class="com.sun.star.drawing.LineShape"><g id="id29"><path id="path5491" d="m 6000,1800 0,4800" style="fill:none;stroke:#000"/></g></g><g id="g5493" class="com.sun.star.drawing.LineShape"><g id="id30"><path id="path5496" d="m 1200,1800 4800,0" style="fill:none;stroke:#000"/></g></g><g id="g5498" class="com.sun.star.drawing.LineShape"><g id="id31"><path id="path5501" d="m 1200,2400 4800,0" style="fill:none;stroke:#000"/></g></g><g id="g5503" class="com.sun.star.drawing.LineShape"><g id="id32"><path id="path5506" d="m 1200,3000 4800,0" style="fill:none;stroke:#000"/></g></g><g id="g5508" class="com.sun.star.drawing.LineShape"><g id="id33"><path id="path5511" d="m 1200,3600 4800,0" style="fill:none;stroke:#000"/></g></g><g id="g5513" class="com.sun.star.drawing.LineShape"><g id="id34"><path id="path5516" d="m 1200,4200 4800,0" style="fill:none;stroke:#000"/></g></g><g id="g5518" class="com.sun.star.drawing.LineShape"><g id="id35"><path id="path5521" d="m 1200,4800 4800,0" style="fill:none;stroke:#000"/></g></g><g id="g5523" class="com.sun.star.drawing.LineShape"><g id="id36"><path id="path5526" d="m 1200,5400 4800,0" style="fill:none;stroke:#000"/></g></g><g id="g5528" class="com.sun.star.drawing.LineShape"><g id="id37"><path id="path5531" d="m 1200,6000 4800,0" style="fill:none;stroke:#000"/></g></g><g id="g5533" class="com.sun.star.drawing.LineShape"><g id="id38"><path id="path5536" d="m 1200,6600 4800,0" style="fill:none;stroke:#000"/></g></g><g id="g5538" class="com.sun.star.drawing.TextShape"><g id="id39"><text id="text5541" class="TextShape"><tspan id="tspan5543" class="TextParagraph" font-size="388" font-weight="400" style="font-size:388px;font-weight:400;font-family:'Arial, sans-serif'"><tspan id="tspan5545" x="7084" y="1593" class="TextPosition"><tspan id="tspan5547" style="fill:#000;stroke:none">1. where site = &apos;DR-1&apos;</tspan></tspan></tspan></text></g></g><g id="g5549" class="com.sun.star.drawing.LineShape"><g id="id40"><path id="path5552" d="m 6300,2100 4670,0" style="fill:none;stroke:#000"/><path id="path5554" d="m 11400,2100 -450,-150 0,300 450,-150 z" style="fill:#000;stroke:none"/></g></g><g id="g5556" class="com.sun.star.drawing.LineShape"><g id="id41"><path id="path5559" d="m 6300,2700 4670,0" style="fill:none;stroke:#000"/><path id="path5561" d="m 11400,2700 -450,-150 0,300 450,-150 z" style="fill:#000;stroke:none"/></g></g><g id="g5563" class="com.sun.star.drawing.LineShape"><g id="id42"><path id="path5566" d="m 6300,6300 4670,0" style="fill:none;stroke:#000"/><path id="path5568" d="m 11400,6300 -450,-150 0,300 450,-150 z" style="fill:#000;stroke:none"/></g></g><g id="g5570" class="com.sun.star.drawing.LineShape"><g id="id43"><path id="path5573" d="m 6300,3300 1900,0" style="fill:none;stroke:#000"/></g></g><g id="g5575" class="com.sun.star.drawing.LineShape"><g id="id44"><path id="path5578" d="m 8200,3100 0,400" style="fill:none;stroke:#000"/></g></g><g id="g5580" class="com.sun.star.drawing.LineShape"><g id="id45"><path id="path5583" d="m 6300,4000 1900,0" style="fill:none;stroke:#000"/></g></g><g id="g5585" class="com.sun.star.drawing.LineShape"><g id="id46"><path id="path5588" d="m 8200,3800 0,400" style="fill:none;stroke:#000"/></g></g><g id="g5590" class="com.sun.star.drawing.LineShape"><g id="id47"><path id="path5593" d="m 6300,4500 1900,0" style="fill:none;stroke:#000"/></g></g><g id="g5595" class="com.sun.star.drawing.LineShape"><g id="id48"><path id="path5598" d="m 8200,4300 0,400" style="fill:none;stroke:#000"/></g></g><g id="g5600" class="com.sun.star.drawing.LineShape"><g id="id49"><path id="path5603" d="m 6300,5100 1900,0" style="fill:none;stroke:#000"/></g></g><g id="g5605" class="com.sun.star.drawing.LineShape"><g id="id50"><path id="path5608" d="m 8200,4900 0,400" style="fill:none;stroke:#000"/></g></g><g id="g5610" class="com.sun.star.drawing.LineShape"><g id="id51"><path id="path5613" d="m 6300,5700 1900,0" style="fill:none;stroke:#000"/></g></g><g id="g5615" class="com.sun.star.drawing.LineShape"><g id="id52"><path id="path5618" d="m 8200,5500 0,400" style="fill:none;stroke:#000"/></g></g><g id="g5620" class="com.sun.star.drawing.TextShape"><g id="id53"><text id="text5623" class="TextShape"><tspan id="tspan5625" class="TextParagraph" font-size="388" font-weight="400" style="font-size:388px;font-weight:400;font-family:'Arial, sans-serif'"><tspan id="tspan5627" x="12251" y="2276" class="TextPosition"><tspan id="tspan5629" style="fill:#000;stroke:none">619</tspan></tspan></tspan></text></g></g><g id="g5631" class="com.sun.star.drawing.TextShape"><g id="id54"><text id="text5634" class="TextShape"><tspan id="tspan5636" class="TextParagraph" font-size="388" font-weight="400" style="font-size:388px;font-weight:400;font-family:'Arial, sans-serif'"><tspan id="tspan5638" x="13251" y="2276" class="TextPosition"><tspan id="tspan5640" style="fill:#000;stroke:none">DR-1</tspan></tspan></tspan></text></g></g><g id="g5642" class="com.sun.star.drawing.TextShape"><g id="id55"><text id="text5645" class="TextShape"><tspan id="tspan5647" class="TextParagraph" font-size="388" font-weight="400" style="font-size:388px;font-weight:400;font-family:'Arial, sans-serif'"><tspan id="tspan5649" x="14651" y="2276" class="TextPosition"><tspan id="tspan5651" style="fill:#000;stroke:none">1927-02-08</tspan></tspan></tspan></text></g></g><g id="g5653" class="com.sun.star.drawing.TextShape"><g id="id56"><text id="text5656" class="TextShape"><tspan id="tspan5658" class="TextParagraph" font-size="388" font-weight="400" style="font-size:388px;font-weight:400;font-family:'Arial, sans-serif'"><tspan id="tspan5660" x="12251" y="2877" class="TextPosition"><tspan id="tspan5662" style="fill:#000;stroke:none">622</tspan></tspan></tspan></text></g></g><g id="g5664" class="com.sun.star.drawing.TextShape"><g id="id57"><text id="text5667" class="TextShape"><tspan id="tspan5669" class="TextParagraph" font-size="388" font-weight="400" style="font-size:388px;font-weight:400;font-family:'Arial, sans-serif'"><tspan id="tspan5671" x="13251" y="2877" class="TextPosition"><tspan id="tspan5673" style="fill:#000;stroke:none">DR-1</tspan></tspan></tspan></text></g></g><g id="g5675" class="com.sun.star.drawing.TextShape"><g id="id58"><text id="text5678" class="TextShape"><tspan id="tspan5680" class="TextParagraph" font-size="388" font-weight="400" style="font-size:388px;font-weight:400;font-family:'Arial, sans-serif'"><tspan id="tspan5682" x="14651" y="2877" class="TextPosition"><tspan id="tspan5684" style="fill:#000;stroke:none">1927-02-10</tspan></tspan></tspan></text></g></g><g id="g5686" class="com.sun.star.drawing.TextShape"><g id="id59"><text id="text5689" class="TextShape"><tspan id="tspan5691" class="TextParagraph" font-size="388" font-weight="400" style="font-size:388px;font-weight:400;font-family:'Arial, sans-serif'"><tspan id="tspan5693" x="12251" y="6393" class="TextPosition"><tspan id="tspan5695" style="fill:#000;stroke:none">844</tspan></tspan></tspan></text></g></g><g id="g5697" class="com.sun.star.drawing.TextShape"><g id="id60"><text id="text5700" class="TextShape"><tspan id="tspan5702" class="TextParagraph" font-size="388" font-weight="400" style="font-size:388px;font-weight:400;font-family:'Arial, sans-serif'"><tspan id="tspan5704" x="13251" y="6393" class="TextPosition"><tspan id="tspan5706" style="fill:#000;stroke:none">DR-1</tspan></tspan></tspan></text></g></g><g id="g5708" class="com.sun.star.drawing.TextShape"><g id="id61"><text id="text5711" class="TextShape"><tspan id="tspan5713" class="TextParagraph" font-size="388" font-weight="400" style="font-size:388px;font-weight:400;font-family:'Arial, sans-serif'"><tspan id="tspan5715" x="14651" y="6393" class="TextPosition"><tspan id="tspan5717" style="fill:#000;stroke:none">1932-03-22</tspan></tspan></tspan></text></g></g><g id="g5719" class="com.sun.star.drawing.LineShape"><g id="id62"><path id="path5722" d="m 12001,1800 0,1300" style="fill:none;stroke:#000"/></g></g><g id="g5724" class="com.sun.star.drawing.LineShape"><g id="id63"><path id="path5727" d="m 13101,1800 0,1300" style="fill:none;stroke:#000"/></g></g><g id="g5729" class="com.sun.star.drawing.LineShape"><g id="id64"><path id="path5732" d="m 14501,1800 0,1300" style="fill:none;stroke:#000"/></g></g><g id="g5734" class="com.sun.star.drawing.LineShape"><g id="id65"><path id="path5737" d="m 16801,1800 0,1300" style="fill:none;stroke:#000"/></g></g><g id="g5739" class="com.sun.star.drawing.LineShape"><g id="id66"><path id="path5742" d="m 12001,1800 4800,0" style="fill:none;stroke:#000"/></g></g><g id="g5744" class="com.sun.star.drawing.LineShape"><g id="id67"><path id="path5747" d="m 12000,2400 4800,0" style="fill:none;stroke:#000"/></g></g><g id="g5749" class="com.sun.star.drawing.LineShape"><g id="id68"><path id="path5752" d="m 12001,6600 4800,0" style="fill:none;stroke:#000"/></g></g><g id="g5754" class="com.sun.star.drawing.LineShape"><g id="id69"><path id="path5757" d="m 12000,3100 4800,0" style="fill:none;stroke:#000"/></g></g><g id="g5759" class="com.sun.star.drawing.LineShape"><g id="id70"><path id="path5762" d="m 12002,5900 0,700" style="fill:none;stroke:#000"/></g></g><g id="g5764" class="com.sun.star.drawing.LineShape"><g id="id71"><path id="path5767" d="m 13102,5900 0,700" style="fill:none;stroke:#000"/></g></g><g id="g5769" class="com.sun.star.drawing.LineShape"><g id="id72"><path id="path5772" d="m 14502,5900 0,700" style="fill:none;stroke:#000"/></g></g><g id="g5774" class="com.sun.star.drawing.LineShape"><g id="id73"><path id="path5777" d="m 16802,5900 0,700" style="fill:none;stroke:#000"/></g></g><g id="g5779" class="com.sun.star.drawing.LineShape"><g id="id74"><path id="path5782" d="m 12001,5900 4800,0" style="fill:none;stroke:#000"/></g></g><g id="g5784" class="com.sun.star.drawing.TextShape"><g id="id75"><text id="text5787" class="TextShape"><tspan id="tspan5789" class="TextParagraph" font-size="388" font-weight="400" style="font-size:388px;font-weight:400;font-family:'Arial, sans-serif'"><tspan id="tspan5791" x="12251" y="2276" class="TextPosition"><tspan id="tspan5793" style="fill:#000;stroke:none">619</tspan></tspan></tspan></text></g></g><g id="g5795" class="com.sun.star.drawing.TextShape"><g id="id76"><text id="text5798" class="TextShape"><tspan id="tspan5800" class="TextParagraph" font-size="388" font-weight="400" style="font-size:388px;font-weight:400;font-family:'Arial, sans-serif'"><tspan id="tspan5802" x="12251" y="2877" class="TextPosition"><tspan id="tspan5804" style="fill:#000;stroke:none">622</tspan></tspan></tspan></text></g></g><g id="g5806" class="com.sun.star.drawing.TextShape"><g id="id77"><text id="text5809" class="TextShape"><tspan id="tspan5811" class="TextParagraph" font-size="388" font-weight="400" style="font-size:388px;font-weight:400;font-family:'Arial, sans-serif'"><tspan id="tspan5813" x="12251" y="6393" class="TextPosition"><tspan id="tspan5815" style="fill:#000;stroke:none">844</tspan></tspan></tspan></text></g></g><g id="g5817" class="com.sun.star.drawing.LineShape"><g id="id78"><path id="path5820" d="m 12001,1800 0,1300" style="fill:none;stroke:#000"/></g></g><g id="g5822" class="com.sun.star.drawing.LineShape"><g id="id79"><path id="path5825" d="m 13101,1800 0,1300" style="fill:none;stroke:#000"/></g></g><g id="g5827" class="com.sun.star.drawing.LineShape"><g id="id80"><path id="path5830" d="m 12002,5900 0,700" style="fill:none;stroke:#000"/></g></g><g id="g5832" class="com.sun.star.drawing.LineShape"><g id="id81"><path id="path5835" d="m 13100,5900 0,700" style="fill:none;stroke:#000"/></g></g><g id="g5837" class="com.sun.star.drawing.TextShape"><g id="id82"><text id="text5840" class="TextShape"><tspan id="tspan5842" class="TextParagraph" font-size="388" font-weight="400" style="font-size:388px;font-weight:400;font-family:'Arial, sans-serif'"><tspan id="tspan5844" x="12252" y="9376" class="TextPosition"><tspan id="tspan5846" style="fill:#000;stroke:none">619</tspan></tspan></tspan></text></g></g><g id="g5848" class="com.sun.star.drawing.TextShape"><g id="id83"><text id="text5851" class="TextShape"><tspan id="tspan5853" class="TextParagraph" font-size="388" font-weight="400" style="font-size:388px;font-weight:400;font-family:'Arial, sans-serif'"><tspan id="tspan5855" x="12252" y="9977" class="TextPosition"><tspan id="tspan5857" style="fill:#000;stroke:none">622</tspan></tspan></tspan></text></g></g><g id="g5859" class="com.sun.star.drawing.TextShape"><g id="id84"><text id="text5862" class="TextShape"><tspan id="tspan5864" class="TextParagraph" font-size="388" font-weight="400" style="font-size:388px;font-weight:400;font-family:'Arial, sans-serif'"><tspan id="tspan5866" x="12252" y="10693" class="TextPosition"><tspan id="tspan5868" style="fill:#000;stroke:none">844</tspan></tspan></tspan></text></g></g><g id="g5870" class="com.sun.star.drawing.LineShape"><g id="id85"><path id="path5873" d="m 12001,8900 1199,0" style="fill:none;stroke:#000"/></g></g><g id="g5875" class="com.sun.star.drawing.LineShape"><g id="id86"><path id="path5878" d="m 12001,9500 1199,0" style="fill:none;stroke:#000"/></g></g><g id="g5880" class="com.sun.star.drawing.LineShape"><g id="id87"><path id="path5883" d="m 12001,10200 1199,0" style="fill:none;stroke:#000"/></g></g><g id="g5885" class="com.sun.star.drawing.LineShape"><g id="id88"><path id="path5888" d="m 12001,10900 1199,0" style="fill:none;stroke:#000"/></g></g><g id="g5890" class="com.sun.star.drawing.LineShape"><g id="id89"><path id="path5893" d="m 13200,8900 0,2000" style="fill:none;stroke:#000"/></g></g><g id="g5895" class="com.sun.star.drawing.LineShape"><g id="id90"><path id="path5898" d="m 12002,8900 0,2000" style="fill:none;stroke:#000"/></g></g><g id="g5900" class="com.sun.star.drawing.LineShape"><g id="id91"><path id="path5903" d="m 12600,6900 0,1470" style="fill:none;stroke:#000"/><path id="path5905" d="m 12600,8800 150,-450 -300,0 150,450 z" style="fill:#000;stroke:none"/></g></g><g id="g5907" class="com.sun.star.drawing.TextShape"><g id="id92"><text id="text5910" class="TextShape"><tspan id="tspan5912" class="TextParagraph" font-size="388" font-weight="400" style="font-size:388px;font-weight:400;font-family:'Arial, sans-serif'"><tspan id="tspan5914" x="9750" y="7776" class="TextPosition"><tspan id="tspan5916" style="fill:#000;stroke:none">2. select ident</tspan></tspan></tspan></text></g></g></g></g></g></g></svg>